<?xml version="1.0" encoding="UTF-8" standalone="no"?>
<svg xmlns="http://www.w3.org/2000/svg" xmlns:xlink="http://www.w3.org/1999/xlink" contentScriptType="application/ecmascript" contentStyleType="text/css" height="942px" preserveAspectRatio="none" style="width:1314px;height:942px;" version="1.1" viewBox="0 0 1314 942" width="1314px" zoomAndPan="magnify"><defs><filter height="300%" id="fldedpk7aw2aw" width="300%" x="-1" y="-1"><feGaussianBlur result="blurOut" stdDeviation="2.0"/><feColorMatrix in="blurOut" result="blurOut2" type="matrix" values="0 0 0 0 0 0 0 0 0 0 0 0 0 0 0 0 0 0 .4 0"/><feOffset dx="4.0" dy="4.0" in="blurOut2" result="blurOut3"/><feBlend in="SourceGraphic" in2="blurOut3" mode="normal"/></filter></defs><g><text fill="#000000" font-family="sans-serif" font-size="18" lengthAdjust="spacingAndGlyphs" text-decoration="underline" textLength="192" x="567" y="16.708">ABSTRACT_FACTORY</text><text fill="#000000" font-family="sans-serif" font-size="18" lengthAdjust="spacingAndGlyphs" textLength="0" x="666" y="37.6611"/><!--MD5=[d729e19e2ec370008f2fb5b0b4214c1c]
cluster in.ashwanik.pdp.abstract_factory--><polygon fill="#FFFFFF" filter="url(#fldedpk7aw2aw)" points="22,65.9063,289,65.9063,296,88.2031,1292,88.2031,1292,930.9063,22,930.9063,22,65.9063" style="stroke: #000000; stroke-width: 1.5;"/><line style="stroke: #000000; stroke-width: 1.5;" x1="22" x2="296" y1="88.2031" y2="88.2031"/><text fill="#000000" font-family="sans-serif" font-size="14" font-weight="bold" lengthAdjust="spacingAndGlyphs" textLength="261" x="26" y="80.9014">in.ashwanik.pdp.abstract_factory</text><!--MD5=[2c516cd91ee5003a230f809e0480fe9e]
class in.ashwanik.pdp.abstract_factory.AncientArena--><rect fill="#FEFECE" filter="url(#fldedpk7aw2aw)" height="73.6094" id="in.ashwanik.pdp.abstract_factory.AncientArena" style="stroke: #A80036; stroke-width: 1.5;" width="135" x="592.5" y="436.9063"/><ellipse cx="616.05" cy="452.9063" fill="#ADD1B2" rx="11" ry="11" style="stroke: #A80036; stroke-width: 1.0;"/><path d="M618.3938,448.5781 L618.5656,448.6563 C618.7844,448.3438 618.9875,448.25 619.2844,448.25 C619.5813,448.25 619.8625,448.3906 620.0188,448.6563 C620.1125,448.8125 620.1281,448.9375 620.1281,449.375 L620.1281,450.7969 C620.1281,451.2188 620.0969,451.4063 619.9875,451.5625 C619.8156,451.7813 619.55,451.9219 619.2844,451.9219 C619.0656,451.9219 618.8313,451.8125 618.6906,451.6719 C618.55,451.5469 618.5188,451.4219 618.4563,451.0156 C618.3625,450.6094 618.1906,450.3906 617.7063,450.1094 C617.2375,449.8594 616.6281,449.7031 616.05,449.7031 C614.3156,449.7031 613.0656,451.0156 613.0656,452.7969 L613.0656,453.8906 C613.0656,455.5938 614.3625,456.6875 616.4094,456.6875 C617.175,456.6875 617.8625,456.5625 618.2844,456.2969 C618.4719,456.2031 618.4719,456.2031 618.925,455.7188 C619.1125,455.5313 619.3156,455.4531 619.5344,455.4531 C620.0031,455.4531 620.3938,455.8438 620.3938,456.2969 C620.3938,456.6875 620.0656,457.1406 619.4875,457.5469 C618.7375,458.0938 617.5813,458.3906 616.3625,458.3906 C613.4719,458.3906 611.3625,456.5 611.3625,453.9219 L611.3625,452.7969 C611.3625,450.0781 613.3625,448 615.9875,448 C616.8625,448 617.4563,448.1406 618.3938,448.5781 Z "/><text fill="#000000" font-family="sans-serif" font-size="12" lengthAdjust="spacingAndGlyphs" textLength="84" x="631.95" y="457.0605">AncientArena</text><line style="stroke: #A80036; stroke-width: 1.5;" x1="593.5" x2="726.5" y1="468.9063" y2="468.9063"/><line style="stroke: #A80036; stroke-width: 1.5;" x1="593.5" x2="726.5" y1="476.9063" y2="476.9063"/><ellipse cx="603.5" cy="487.9063" fill="#84BE84" rx="3" ry="3" style="stroke: #038048; stroke-width: 1.0;"/><text fill="#000000" font-family="sans-serif" font-size="11" lengthAdjust="spacingAndGlyphs" textLength="109" x="612.5" y="491.1167">createCollectibles()</text><ellipse cx="603.5" cy="500.7109" fill="#84BE84" rx="3" ry="3" style="stroke: #038048; stroke-width: 1.0;"/><text fill="#000000" font-family="sans-serif" font-size="11" lengthAdjust="spacingAndGlyphs" textLength="82" x="612.5" y="503.9214">createEnemy()</text><!--MD5=[f26aeeae509748f2ec935cb54e043c0e]
class in.ashwanik.pdp.abstract_factory.AncientCollectibles--><rect fill="#FEFECE" filter="url(#fldedpk7aw2aw)" height="60.8047" id="in.ashwanik.pdp.abstract_factory.AncientCollectibles" style="stroke: #A80036; stroke-width: 1.5;" width="150" x="933" y="443.4063"/><ellipse cx="948" cy="459.4063" fill="#ADD1B2" rx="11" ry="11" style="stroke: #A80036; stroke-width: 1.0;"/><path d="M950.3438,455.0781 L950.5156,455.1563 C950.7344,454.8438 950.9375,454.75 951.2344,454.75 C951.5313,454.75 951.8125,454.8906 951.9688,455.1563 C952.0625,455.3125 952.0781,455.4375 952.0781,455.875 L952.0781,457.2969 C952.0781,457.7188 952.0469,457.9063 951.9375,458.0625 C951.7656,458.2813 951.5,458.4219 951.2344,458.4219 C951.0156,458.4219 950.7813,458.3125 950.6406,458.1719 C950.5,458.0469 950.4688,457.9219 950.4063,457.5156 C950.3125,457.1094 950.1406,456.8906 949.6563,456.6094 C949.1875,456.3594 948.5781,456.2031 948,456.2031 C946.2656,456.2031 945.0156,457.5156 945.0156,459.2969 L945.0156,460.3906 C945.0156,462.0938 946.3125,463.1875 948.3594,463.1875 C949.125,463.1875 949.8125,463.0625 950.2344,462.7969 C950.4219,462.7031 950.4219,462.7031 950.875,462.2188 C951.0625,462.0313 951.2656,461.9531 951.4844,461.9531 C951.9531,461.9531 952.3438,462.3438 952.3438,462.7969 C952.3438,463.1875 952.0156,463.6406 951.4375,464.0469 C950.6875,464.5938 949.5313,464.8906 948.3125,464.8906 C945.4219,464.8906 943.3125,463 943.3125,460.4219 L943.3125,459.2969 C943.3125,456.5781 945.3125,454.5 947.9375,454.5 C948.8125,454.5 949.4063,454.6406 950.3438,455.0781 Z "/><text fill="#000000" font-family="sans-serif" font-size="12" lengthAdjust="spacingAndGlyphs" textLength="118" x="962" y="463.5605">AncientCollectibles</text><line style="stroke: #A80036; stroke-width: 1.5;" x1="934" x2="1082" y1="475.4063" y2="475.4063"/><line style="stroke: #A80036; stroke-width: 1.5;" x1="934" x2="1082" y1="483.4063" y2="483.4063"/><ellipse cx="944" cy="494.4063" fill="#84BE84" rx="3" ry="3" style="stroke: #038048; stroke-width: 1.0;"/><text fill="#000000" font-family="sans-serif" font-size="11" lengthAdjust="spacingAndGlyphs" textLength="58" x="953" y="497.6167">getItems()</text><!--MD5=[187c374d5038813fbdba43351728fffb]
class in.ashwanik.pdp.abstract_factory.Arena--><rect fill="#FEFECE" filter="url(#fldedpk7aw2aw)" height="73.6094" id="in.ashwanik.pdp.abstract_factory.Arena" style="stroke: #A80036; stroke-width: 1.5;" width="134" x="806" y="145.4063"/><ellipse cx="850.25" cy="161.4063" fill="#B4A7E5" rx="11" ry="11" style="stroke: #A80036; stroke-width: 1.0;"/><path d="M851.2031,158.1875 L851.2031,164.7031 L852.9219,164.7031 C853.375,164.7031 853.5156,164.7344 853.6875,164.8594 C853.9219,165.0313 854.0313,165.2813 854.0313,165.5625 C854.0313,166.125 853.6719,166.4063 852.9219,166.4063 L847.7813,166.4063 C847.375,166.4063 847.1719,166.3594 847.0156,166.2344 C846.7969,166.0781 846.6563,165.8125 846.6563,165.5625 C846.6563,165.2656 846.8125,164.9844 847.0625,164.8281 C847.2188,164.7188 847.3438,164.7031 847.7813,164.7031 L849.5,164.7031 L849.5,158.1875 L847.7813,158.1875 C847.3594,158.1875 847.1719,158.1563 847.0156,158.0469 C846.7969,157.875 846.6563,157.625 846.6563,157.3438 C846.6563,157.0625 846.8125,156.7656 847.0625,156.6094 C847.2188,156.5156 847.3438,156.5 847.7813,156.5 L852.9219,156.5 C853.375,156.5 853.5156,156.5313 853.6875,156.6406 C853.9219,156.8125 854.0313,157.0781 854.0313,157.3438 C854.0313,157.6406 853.8906,157.9219 853.625,158.0781 C853.5,158.1563 853.3125,158.1875 852.9219,158.1875 Z "/><text fill="#000000" font-family="sans-serif" font-size="12" font-style="italic" lengthAdjust="spacingAndGlyphs" textLength="37" x="870.75" y="165.5605">Arena</text><line style="stroke: #A80036; stroke-width: 1.5;" x1="807" x2="939" y1="177.4063" y2="177.4063"/><line style="stroke: #A80036; stroke-width: 1.5;" x1="807" x2="939" y1="185.4063" y2="185.4063"/><ellipse cx="817" cy="196.4063" fill="#84BE84" rx="3" ry="3" style="stroke: #038048; stroke-width: 1.0;"/><text fill="#000000" font-family="sans-serif" font-size="11" font-style="italic" lengthAdjust="spacingAndGlyphs" textLength="108" x="826" y="199.6167">createCollectibles()</text><ellipse cx="817" cy="209.2109" fill="#84BE84" rx="3" ry="3" style="stroke: #038048; stroke-width: 1.0;"/><text fill="#000000" font-family="sans-serif" font-size="11" font-style="italic" lengthAdjust="spacingAndGlyphs" textLength="83" x="826" y="212.4214">createEnemy()</text><!--MD5=[0d8c1b2ec5a6fc57f0036e5c40112998]
class in.ashwanik.pdp.abstract_factory.ArenaType--><rect fill="#FEFECE" filter="url(#fldedpk7aw2aw)" height="73.6094" id="in.ashwanik.pdp.abstract_factory.ArenaType" style="stroke: #A80036; stroke-width: 1.5;" width="98" x="502" y="145.4063"/><ellipse cx="517" cy="161.4063" fill="#EB937F" rx="11" ry="11" style="stroke: #A80036; stroke-width: 1.0;"/><path d="M515.2969,162.2813 L515.2969,164.7031 L519.6563,164.7031 L519.6563,163.8281 C519.6563,163.3438 519.6875,163.2031 519.7969,163.0469 C519.9688,162.7969 520.2344,162.6875 520.5,162.6875 C520.7813,162.6875 521.0625,162.8438 521.2344,163.0938 C521.3125,163.25 521.3438,163.3906 521.3438,163.8281 L521.3438,166.4063 L513.3438,166.4063 C512.9531,166.4063 512.7188,166.3594 512.5781,166.2344 C512.3594,166.0781 512.2188,165.8281 512.2188,165.5625 C512.2188,165.2656 512.375,165 512.625,164.8281 C512.7813,164.7188 512.9375,164.7031 513.3438,164.7031 L513.5938,164.7031 L513.5938,158.1875 L513.3438,158.1875 C512.9219,158.1875 512.7344,158.1563 512.5781,158.0469 C512.3594,157.875 512.2188,157.625 512.2188,157.3438 C512.2188,157.0625 512.375,156.7656 512.625,156.6094 C512.7813,156.5156 512.9063,156.5 513.3438,156.5 L520.9688,156.5 L520.9688,159.0469 C520.9688,159.5156 520.9375,159.6563 520.8281,159.8281 C520.6563,160.0469 520.3906,160.1875 520.125,160.1875 C519.8438,160.1875 519.5625,160.0313 519.3906,159.7813 C519.3125,159.625 519.2813,159.4531 519.2813,159.0469 L519.2813,158.1875 L515.2969,158.1875 L515.2969,160.5938 L516.75,160.5938 L516.75,160.4688 C516.75,160.0156 516.7813,159.8594 516.8906,159.6875 C517.0625,159.4688 517.3281,159.3281 517.5781,159.3281 C518.0313,159.3281 518.3438,159.6406 518.4063,160.1094 C518.4219,160.2656 518.4219,160.3125 518.4219,160.4688 L518.4219,162.3906 C518.4219,162.8438 518.3906,163 518.2656,163.1563 C518.1094,163.375 517.8438,163.5156 517.5938,163.5156 C517.2969,163.5156 517.0156,163.3594 516.8594,163.1094 C516.7813,162.9531 516.75,162.7969 516.75,162.3906 L516.75,162.2813 Z "/><text fill="#000000" font-family="sans-serif" font-size="12" lengthAdjust="spacingAndGlyphs" textLength="66" x="531" y="165.5605">ArenaType</text><line style="stroke: #A80036; stroke-width: 1.5;" x1="503" x2="599" y1="177.4063" y2="177.4063"/><text fill="#000000" font-family="sans-serif" font-size="11" lengthAdjust="spacingAndGlyphs" textLength="48" x="508" y="191.6167">ANCIENT</text><text fill="#000000" font-family="sans-serif" font-size="11" lengthAdjust="spacingAndGlyphs" textLength="54" x="508" y="204.4214">MEDIEVAL</text><line style="stroke: #A80036; stroke-width: 1.5;" x1="503" x2="599" y1="211.0156" y2="211.0156"/><!--MD5=[7232e6751b4766b9da24282a922fcefa]
class in.ashwanik.pdp.abstract_factory.Armoury--><rect fill="#FEFECE" filter="url(#fldedpk7aw2aw)" height="163.2422" id="in.ashwanik.pdp.abstract_factory.Armoury" style="stroke: #A80036; stroke-width: 1.5;" width="171" x="295.5" y="100.9063"/><ellipse cx="351.25" cy="116.9063" fill="#ADD1B2" rx="11" ry="11" style="stroke: #A80036; stroke-width: 1.0;"/><path d="M353.5938,112.5781 L353.7656,112.6563 C353.9844,112.3438 354.1875,112.25 354.4844,112.25 C354.7813,112.25 355.0625,112.3906 355.2188,112.6563 C355.3125,112.8125 355.3281,112.9375 355.3281,113.375 L355.3281,114.7969 C355.3281,115.2188 355.2969,115.4063 355.1875,115.5625 C355.0156,115.7813 354.75,115.9219 354.4844,115.9219 C354.2656,115.9219 354.0313,115.8125 353.8906,115.6719 C353.75,115.5469 353.7188,115.4219 353.6563,115.0156 C353.5625,114.6094 353.3906,114.3906 352.9063,114.1094 C352.4375,113.8594 351.8281,113.7031 351.25,113.7031 C349.5156,113.7031 348.2656,115.0156 348.2656,116.7969 L348.2656,117.8906 C348.2656,119.5938 349.5625,120.6875 351.6094,120.6875 C352.375,120.6875 353.0625,120.5625 353.4844,120.2969 C353.6719,120.2031 353.6719,120.2031 354.125,119.7188 C354.3125,119.5313 354.5156,119.4531 354.7344,119.4531 C355.2031,119.4531 355.5938,119.8438 355.5938,120.2969 C355.5938,120.6875 355.2656,121.1406 354.6875,121.5469 C353.9375,122.0938 352.7813,122.3906 351.5625,122.3906 C348.6719,122.3906 346.5625,120.5 346.5625,117.9219 L346.5625,116.7969 C346.5625,114.0781 348.5625,112 351.1875,112 C352.0625,112 352.6563,112.1406 353.5938,112.5781 Z "/><text fill="#000000" font-family="sans-serif" font-size="12" lengthAdjust="spacingAndGlyphs" textLength="51" x="371.75" y="121.0605">Armoury</text><line style="stroke: #A80036; stroke-width: 1.5;" x1="296.5" x2="465.5" y1="132.9063" y2="132.9063"/><rect fill="none" height="6" style="stroke: #C82930; stroke-width: 1.0;" width="6" x="303.5" y="140.9063"/><text fill="#000000" font-family="sans-serif" font-size="11" lengthAdjust="spacingAndGlyphs" text-decoration="underline" textLength="108" x="315.5" y="147.1167">armoury : Armoury</text><rect fill="none" height="6" style="stroke: #C82930; stroke-width: 1.0;" width="6" x="303.5" y="153.7109"/><text fill="#000000" font-family="sans-serif" font-size="11" lengthAdjust="spacingAndGlyphs" text-decoration="underline" textLength="102" x="315.5" y="159.9214">random : Random</text><rect fill="none" height="6" style="stroke: #C82930; stroke-width: 1.0;" width="6" x="303.5" y="166.5156"/><text fill="#000000" font-family="sans-serif" font-size="11" lengthAdjust="spacingAndGlyphs" textLength="145" x="315.5" y="172.7261">weapons : List&lt;Weapon&gt;</text><line style="stroke: #A80036; stroke-width: 1.5;" x1="296.5" x2="465.5" y1="179.3203" y2="179.3203"/><polygon fill="#4177AF" points="306.5,186.3203,302.5,192.3203,310.5,192.3203" style="stroke: #1963A0; stroke-width: 1.0;"/><text fill="#000000" font-family="sans-serif" font-size="11" lengthAdjust="spacingAndGlyphs" text-decoration="underline" textLength="21" x="315.5" y="193.5308">fill()</text><polygon fill="#4177AF" points="306.5,199.125,302.5,205.125,310.5,205.125" style="stroke: #1963A0; stroke-width: 1.0;"/><text fill="#000000" font-family="sans-serif" font-size="11" lengthAdjust="spacingAndGlyphs" text-decoration="underline" textLength="116" x="315.5" y="206.3354">getRandomWeapon()</text><polygon fill="#4177AF" points="306.5,211.9297,302.5,217.9297,310.5,217.9297" style="stroke: #1963A0; stroke-width: 1.0;"/><text fill="#000000" font-family="sans-serif" font-size="11" lengthAdjust="spacingAndGlyphs" text-decoration="underline" textLength="77" x="315.5" y="219.1401">getWeapons()</text><polygon fill="#4177AF" points="306.5,224.7344,302.5,230.7344,310.5,230.7344" style="stroke: #1963A0; stroke-width: 1.0;"/><text fill="#000000" font-family="sans-serif" font-size="11" lengthAdjust="spacingAndGlyphs" textLength="116" x="315.5" y="231.9448">numberOfWeapons()</text><rect fill="#F24D5C" height="6" style="stroke: #C82930; stroke-width: 1.0;" width="6" x="303.5" y="238.5391"/><text fill="#000000" font-family="sans-serif" font-size="11" lengthAdjust="spacingAndGlyphs" textLength="56" x="315.5" y="244.7495">Armoury()</text><rect fill="#F24D5C" height="6" style="stroke: #C82930; stroke-width: 1.0;" width="6" x="303.5" y="251.3438"/><text fill="#000000" font-family="sans-serif" font-size="11" lengthAdjust="spacingAndGlyphs" text-decoration="underline" textLength="26" x="315.5" y="257.5542">get()</text><!--MD5=[8209ce874841dae98b945f69211710ae]
class in.ashwanik.pdp.abstract_factory.CollectibleItem--><rect fill="#FEFECE" filter="url(#fldedpk7aw2aw)" height="86.4141" id="in.ashwanik.pdp.abstract_factory.CollectibleItem" style="stroke: #A80036; stroke-width: 1.5;" width="123" x="434.5" y="430.9063"/><ellipse cx="449.5" cy="446.9063" fill="#ADD1B2" rx="11" ry="11" style="stroke: #A80036; stroke-width: 1.0;"/><path d="M451.8438,442.5781 L452.0156,442.6563 C452.2344,442.3438 452.4375,442.25 452.7344,442.25 C453.0313,442.25 453.3125,442.3906 453.4688,442.6563 C453.5625,442.8125 453.5781,442.9375 453.5781,443.375 L453.5781,444.7969 C453.5781,445.2188 453.5469,445.4063 453.4375,445.5625 C453.2656,445.7813 453,445.9219 452.7344,445.9219 C452.5156,445.9219 452.2813,445.8125 452.1406,445.6719 C452,445.5469 451.9688,445.4219 451.9063,445.0156 C451.8125,444.6094 451.6406,444.3906 451.1563,444.1094 C450.6875,443.8594 450.0781,443.7031 449.5,443.7031 C447.7656,443.7031 446.5156,445.0156 446.5156,446.7969 L446.5156,447.8906 C446.5156,449.5938 447.8125,450.6875 449.8594,450.6875 C450.625,450.6875 451.3125,450.5625 451.7344,450.2969 C451.9219,450.2031 451.9219,450.2031 452.375,449.7188 C452.5625,449.5313 452.7656,449.4531 452.9844,449.4531 C453.4531,449.4531 453.8438,449.8438 453.8438,450.2969 C453.8438,450.6875 453.5156,451.1406 452.9375,451.5469 C452.1875,452.0938 451.0313,452.3906 449.8125,452.3906 C446.9219,452.3906 444.8125,450.5 444.8125,447.9219 L444.8125,446.7969 C444.8125,444.0781 446.8125,442 449.4375,442 C450.3125,442 450.9063,442.1406 451.8438,442.5781 Z "/><text fill="#000000" font-family="sans-serif" font-size="12" lengthAdjust="spacingAndGlyphs" textLength="91" x="463.5" y="451.0605">CollectibleItem</text><line style="stroke: #A80036; stroke-width: 1.5;" x1="435.5" x2="556.5" y1="462.9063" y2="462.9063"/><rect fill="none" height="6" style="stroke: #C82930; stroke-width: 1.0;" width="6" x="442.5" y="470.9063"/><text fill="#000000" font-family="sans-serif" font-size="11" lengthAdjust="spacingAndGlyphs" textLength="63" x="454.5" y="477.1167">weight : int</text><line style="stroke: #A80036; stroke-width: 1.5;" x1="435.5" x2="556.5" y1="483.7109" y2="483.7109"/><ellipse cx="445.5" cy="494.7109" fill="#84BE84" rx="3" ry="3" style="stroke: #038048; stroke-width: 1.0;"/><text fill="#000000" font-family="sans-serif" font-size="11" lengthAdjust="spacingAndGlyphs" textLength="63" x="454.5" y="497.9214">getWeight()</text><polygon fill="#4177AF" points="445.5,503.5156,441.5,509.5156,449.5,509.5156" style="stroke: #1963A0; stroke-width: 1.0;"/><text fill="#000000" font-family="sans-serif" font-size="11" lengthAdjust="spacingAndGlyphs" textLength="91" x="454.5" y="510.7261">CollectibleItem()</text><!--MD5=[84b64032f245698ab498a2e26254820f]
class in.ashwanik.pdp.abstract_factory.Collectibles--><rect fill="#FEFECE" filter="url(#fldedpk7aw2aw)" height="60.8047" id="in.ashwanik.pdp.abstract_factory.Collectibles" style="stroke: #A80036; stroke-width: 1.5;" width="102" x="1060" y="151.9063"/><ellipse cx="1075" cy="167.9063" fill="#B4A7E5" rx="11" ry="11" style="stroke: #A80036; stroke-width: 1.0;"/><path d="M1075.9531,164.6875 L1075.9531,171.2031 L1077.6719,171.2031 C1078.125,171.2031 1078.2656,171.2344 1078.4375,171.3594 C1078.6719,171.5313 1078.7813,171.7813 1078.7813,172.0625 C1078.7813,172.625 1078.4219,172.9063 1077.6719,172.9063 L1072.5313,172.9063 C1072.125,172.9063 1071.9219,172.8594 1071.7656,172.7344 C1071.5469,172.5781 1071.4063,172.3125 1071.4063,172.0625 C1071.4063,171.7656 1071.5625,171.4844 1071.8125,171.3281 C1071.9688,171.2188 1072.0938,171.2031 1072.5313,171.2031 L1074.25,171.2031 L1074.25,164.6875 L1072.5313,164.6875 C1072.1094,164.6875 1071.9219,164.6563 1071.7656,164.5469 C1071.5469,164.375 1071.4063,164.125 1071.4063,163.8438 C1071.4063,163.5625 1071.5625,163.2656 1071.8125,163.1094 C1071.9688,163.0156 1072.0938,163 1072.5313,163 L1077.6719,163 C1078.125,163 1078.2656,163.0313 1078.4375,163.1406 C1078.6719,163.3125 1078.7813,163.5781 1078.7813,163.8438 C1078.7813,164.1406 1078.6406,164.4219 1078.375,164.5781 C1078.25,164.6563 1078.0625,164.6875 1077.6719,164.6875 Z "/><text fill="#000000" font-family="sans-serif" font-size="12" font-style="italic" lengthAdjust="spacingAndGlyphs" textLength="70" x="1089" y="172.0605">Collectibles</text><line style="stroke: #A80036; stroke-width: 1.5;" x1="1061" x2="1161" y1="183.9063" y2="183.9063"/><line style="stroke: #A80036; stroke-width: 1.5;" x1="1061" x2="1161" y1="191.9063" y2="191.9063"/><ellipse cx="1071" cy="202.9063" fill="#84BE84" rx="3" ry="3" style="stroke: #038048; stroke-width: 1.0;"/><text fill="#000000" font-family="sans-serif" font-size="11" font-style="italic" lengthAdjust="spacingAndGlyphs" textLength="57" x="1080" y="206.1167">getItems()</text><!--MD5=[1c10fcfa67c2cc2a5dc4ec46547732d5]
class in.ashwanik.pdp.abstract_factory.Dagger--><rect fill="#FEFECE" filter="url(#fldedpk7aw2aw)" height="60.8047" id="in.ashwanik.pdp.abstract_factory.Dagger" style="stroke: #A80036; stroke-width: 1.5;" width="78" x="301" y="853.9063"/><ellipse cx="316" cy="869.9063" fill="#ADD1B2" rx="11" ry="11" style="stroke: #A80036; stroke-width: 1.0;"/><path d="M318.3438,865.5781 L318.5156,865.6563 C318.7344,865.3438 318.9375,865.25 319.2344,865.25 C319.5313,865.25 319.8125,865.3906 319.9688,865.6563 C320.0625,865.8125 320.0781,865.9375 320.0781,866.375 L320.0781,867.7969 C320.0781,868.2188 320.0469,868.4063 319.9375,868.5625 C319.7656,868.7813 319.5,868.9219 319.2344,868.9219 C319.0156,868.9219 318.7813,868.8125 318.6406,868.6719 C318.5,868.5469 318.4688,868.4219 318.4063,868.0156 C318.3125,867.6094 318.1406,867.3906 317.6563,867.1094 C317.1875,866.8594 316.5781,866.7031 316,866.7031 C314.2656,866.7031 313.0156,868.0156 313.0156,869.7969 L313.0156,870.8906 C313.0156,872.5938 314.3125,873.6875 316.3594,873.6875 C317.125,873.6875 317.8125,873.5625 318.2344,873.2969 C318.4219,873.2031 318.4219,873.2031 318.875,872.7188 C319.0625,872.5313 319.2656,872.4531 319.4844,872.4531 C319.9531,872.4531 320.3438,872.8438 320.3438,873.2969 C320.3438,873.6875 320.0156,874.1406 319.4375,874.5469 C318.6875,875.0938 317.5313,875.3906 316.3125,875.3906 C313.4219,875.3906 311.3125,873.5 311.3125,870.9219 L311.3125,869.7969 C311.3125,867.0781 313.3125,865 315.9375,865 C316.8125,865 317.4063,865.1406 318.3438,865.5781 Z "/><text fill="#000000" font-family="sans-serif" font-size="12" lengthAdjust="spacingAndGlyphs" textLength="46" x="330" y="874.0605">Dagger</text><line style="stroke: #A80036; stroke-width: 1.5;" x1="302" x2="378" y1="885.9063" y2="885.9063"/><line style="stroke: #A80036; stroke-width: 1.5;" x1="302" x2="378" y1="893.9063" y2="893.9063"/><polygon fill="#4177AF" points="312,900.9063,308,906.9063,316,906.9063" style="stroke: #1963A0; stroke-width: 1.0;"/><text fill="#000000" font-family="sans-serif" font-size="11" lengthAdjust="spacingAndGlyphs" textLength="49" x="321" y="908.1167">Dagger()</text><!--MD5=[87c152966ab41552a2a232698e5d7548]
class in.ashwanik.pdp.abstract_factory.Enemy--><rect fill="#FEFECE" filter="url(#fldedpk7aw2aw)" height="265.6797" id="in.ashwanik.pdp.abstract_factory.Enemy" style="stroke: #A80036; stroke-width: 1.5;" width="171" x="38.5" y="340.9063"/><ellipse cx="98.75" cy="356.9063" fill="#A9DCDF" rx="11" ry="11" style="stroke: #A80036; stroke-width: 1.0;"/><path d="M100.3281,358.7188 L96.2813,358.7188 L95.8906,359.7031 L96.2813,359.7031 C96.7344,359.7031 96.875,359.7344 97.0469,359.8594 C97.2656,360.0313 97.3906,360.2813 97.3906,360.5625 C97.3906,360.8438 97.25,361.1406 96.9844,361.2813 C96.8594,361.375 96.6406,361.4063 96.2813,361.4063 L94.0156,361.4063 C93.2656,361.4063 92.8906,361.125 92.8906,360.5625 C92.8906,360.2656 93.0469,359.9844 93.2969,359.8281 C93.4531,359.7188 93.6094,359.7031 94.0313,359.7031 L96.6719,353.1875 L95.5938,353.1875 C95.1563,353.1875 94.9844,353.1563 94.8125,353.0469 C94.5938,352.875 94.4531,352.625 94.4531,352.3438 C94.4531,352.0625 94.6094,351.7813 94.8594,351.6094 C95.0156,351.5156 95.1406,351.5 95.5938,351.5 L99.2656,351.5 L102.6563,359.7031 C103.125,359.7031 103.2813,359.7344 103.4531,359.875 C103.6719,360.0313 103.8125,360.2813 103.8125,360.5625 C103.8125,360.8438 103.6563,361.1406 103.4063,361.2813 C103.2656,361.375 103.0469,361.4063 102.6875,361.4063 L100.3281,361.4063 C99.9063,361.4063 99.7031,361.3594 99.5625,361.2344 C99.3438,361.0781 99.2031,360.8281 99.2031,360.5625 C99.2031,360.2656 99.3594,359.9844 99.6094,359.8281 C99.7656,359.7188 99.875,359.7031 100.3281,359.7031 L100.7188,359.7031 Z M99.625,357.0156 L98.2969,353.75 L96.9531,357.0156 Z "/><text fill="#000000" font-family="sans-serif" font-size="12" font-style="italic" lengthAdjust="spacingAndGlyphs" textLength="42" x="119.25" y="361.0605">Enemy</text><line style="stroke: #A80036; stroke-width: 1.5;" x1="39.5" x2="208.5" y1="372.9063" y2="372.9063"/><rect fill="none" height="6" style="stroke: #C82930; stroke-width: 1.0;" width="6" x="46.5" y="380.9063"/><text fill="#000000" font-family="sans-serif" font-size="11" lengthAdjust="spacingAndGlyphs" textLength="109" x="58.5" y="387.1167">description : String</text><rect fill="none" height="6" style="stroke: #C82930; stroke-width: 1.0;" width="6" x="46.5" y="393.7109"/><text fill="#000000" font-family="sans-serif" font-size="11" lengthAdjust="spacingAndGlyphs" textLength="88" x="58.5" y="399.9214">experience : int</text><rect fill="none" height="6" style="stroke: #C82930; stroke-width: 1.0;" width="6" x="46.5" y="406.5156"/><text fill="#000000" font-family="sans-serif" font-size="11" lengthAdjust="spacingAndGlyphs" textLength="61" x="58.5" y="412.7261">health : int</text><rect fill="none" height="6" style="stroke: #C82930; stroke-width: 1.0;" width="6" x="46.5" y="419.3203"/><text fill="#000000" font-family="sans-serif" font-size="11" lengthAdjust="spacingAndGlyphs" textLength="78" x="58.5" y="425.5308">name : String</text><rect fill="none" height="6" style="stroke: #C82930; stroke-width: 1.0;" width="6" x="46.5" y="432.125"/><text fill="#000000" font-family="sans-serif" font-size="11" lengthAdjust="spacingAndGlyphs" textLength="145" x="58.5" y="438.3354">weapons : List&lt;Weapon&gt;</text><line style="stroke: #A80036; stroke-width: 1.5;" x1="39.5" x2="208.5" y1="444.9297" y2="444.9297"/><ellipse cx="49.5" cy="455.9297" fill="#84BE84" rx="3" ry="3" style="stroke: #038048; stroke-width: 1.0;"/><text fill="#000000" font-family="sans-serif" font-size="11" lengthAdjust="spacingAndGlyphs" textLength="90" x="58.5" y="459.1401">getDescription()</text><ellipse cx="49.5" cy="468.7344" fill="#84BE84" rx="3" ry="3" style="stroke: #038048; stroke-width: 1.0;"/><text fill="#000000" font-family="sans-serif" font-size="11" lengthAdjust="spacingAndGlyphs" textLength="88" x="58.5" y="471.9448">getExperience()</text><ellipse cx="49.5" cy="481.5391" fill="#84BE84" rx="3" ry="3" style="stroke: #038048; stroke-width: 1.0;"/><text fill="#000000" font-family="sans-serif" font-size="11" lengthAdjust="spacingAndGlyphs" textLength="62" x="58.5" y="484.7495">getHealth()</text><ellipse cx="49.5" cy="494.3438" fill="#84BE84" rx="3" ry="3" style="stroke: #038048; stroke-width: 1.0;"/><text fill="#000000" font-family="sans-serif" font-size="11" lengthAdjust="spacingAndGlyphs" textLength="59" x="58.5" y="497.5542">getName()</text><ellipse cx="49.5" cy="507.1484" fill="#84BE84" rx="3" ry="3" style="stroke: #038048; stroke-width: 1.0;"/><text fill="#000000" font-family="sans-serif" font-size="11" lengthAdjust="spacingAndGlyphs" textLength="77" x="58.5" y="510.3589">getWeapons()</text><polygon fill="#4177AF" points="49.5,515.9531,45.5,521.9531,53.5,521.9531" style="stroke: #1963A0; stroke-width: 1.0;"/><text fill="#000000" font-family="sans-serif" font-size="11" lengthAdjust="spacingAndGlyphs" textLength="46" x="58.5" y="523.1636">Enemy()</text><polygon fill="#4177AF" points="49.5,528.7578,45.5,534.7578,53.5,534.7578" style="stroke: #1963A0; stroke-width: 1.0;"/><text fill="#000000" font-family="sans-serif" font-size="11" lengthAdjust="spacingAndGlyphs" textLength="46" x="58.5" y="535.9683">Enemy()</text><polygon fill="#4177AF" points="49.5,541.5625,45.5,547.5625,53.5,547.5625" style="stroke: #1963A0; stroke-width: 1.0;"/><text fill="#000000" font-family="sans-serif" font-size="11" lengthAdjust="spacingAndGlyphs" textLength="42" x="58.5" y="548.7729">attack()</text><polygon fill="#4177AF" points="49.5,554.3672,45.5,560.3672,53.5,560.3672" style="stroke: #1963A0; stroke-width: 1.0;"/><text fill="#000000" font-family="sans-serif" font-size="11" lengthAdjust="spacingAndGlyphs" textLength="85" x="58.5" y="561.5776">changeHealth()</text><polygon fill="#4177AF" points="49.5,567.1719,45.5,573.1719,53.5,573.1719" style="stroke: #1963A0; stroke-width: 1.0;"/><text fill="#000000" font-family="sans-serif" font-size="11" lengthAdjust="spacingAndGlyphs" textLength="73" x="58.5" y="574.3823">hasWeapon()</text><polygon fill="#4177AF" points="49.5,579.9766,45.5,585.9766,53.5,585.9766" style="stroke: #1963A0; stroke-width: 1.0;"/><text fill="#000000" font-family="sans-serif" font-size="11" lengthAdjust="spacingAndGlyphs" textLength="47" x="58.5" y="587.187">isDead()</text><polygon fill="#4177AF" points="49.5,592.7813,45.5,598.7813,53.5,598.7813" style="stroke: #1963A0; stroke-width: 1.0;"/><text fill="#000000" font-family="sans-serif" font-size="11" font-style="italic" lengthAdjust="spacingAndGlyphs" textLength="78" x="58.5" y="599.9917">newInstance()</text><!--MD5=[af3626fbf6c32b7c87e51930b976dd28]
class in.ashwanik.pdp.abstract_factory.Game--><rect fill="#FEFECE" filter="url(#fldedpk7aw2aw)" height="99.2188" id="in.ashwanik.pdp.abstract_factory.Game" style="stroke: #A80036; stroke-width: 1.5;" width="222" x="38" y="132.9063"/><ellipse cx="126.75" cy="148.9063" fill="#ADD1B2" rx="11" ry="11" style="stroke: #A80036; stroke-width: 1.0;"/><path d="M129.0938,144.5781 L129.2656,144.6563 C129.4844,144.3438 129.6875,144.25 129.9844,144.25 C130.2813,144.25 130.5625,144.3906 130.7188,144.6563 C130.8125,144.8125 130.8281,144.9375 130.8281,145.375 L130.8281,146.7969 C130.8281,147.2188 130.7969,147.4063 130.6875,147.5625 C130.5156,147.7813 130.25,147.9219 129.9844,147.9219 C129.7656,147.9219 129.5313,147.8125 129.3906,147.6719 C129.25,147.5469 129.2188,147.4219 129.1563,147.0156 C129.0625,146.6094 128.8906,146.3906 128.4063,146.1094 C127.9375,145.8594 127.3281,145.7031 126.75,145.7031 C125.0156,145.7031 123.7656,147.0156 123.7656,148.7969 L123.7656,149.8906 C123.7656,151.5938 125.0625,152.6875 127.1094,152.6875 C127.875,152.6875 128.5625,152.5625 128.9844,152.2969 C129.1719,152.2031 129.1719,152.2031 129.625,151.7188 C129.8125,151.5313 130.0156,151.4531 130.2344,151.4531 C130.7031,151.4531 131.0938,151.8438 131.0938,152.2969 C131.0938,152.6875 130.7656,153.1406 130.1875,153.5469 C129.4375,154.0938 128.2813,154.3906 127.0625,154.3906 C124.1719,154.3906 122.0625,152.5 122.0625,149.9219 L122.0625,148.7969 C122.0625,146.0781 124.0625,144 126.6875,144 C127.5625,144 128.1563,144.1406 129.0938,144.5781 Z "/><text fill="#000000" font-family="sans-serif" font-size="12" lengthAdjust="spacingAndGlyphs" textLength="36" x="147.25" y="153.0605">Game</text><line style="stroke: #A80036; stroke-width: 1.5;" x1="39" x2="259" y1="164.9063" y2="164.9063"/><rect fill="none" height="6" style="stroke: #C82930; stroke-width: 1.0;" width="6" x="46" y="172.9063"/><text fill="#000000" font-family="sans-serif" font-size="11" lengthAdjust="spacingAndGlyphs" textLength="196" x="58" y="179.1167">collectibles : List&lt;CollectibleItem&gt;</text><line style="stroke: #A80036; stroke-width: 1.5;" x1="39" x2="259" y1="185.7109" y2="185.7109"/><ellipse cx="49" cy="196.7109" fill="#84BE84" rx="3" ry="3" style="stroke: #038048; stroke-width: 1.0;"/><text fill="#000000" font-family="sans-serif" font-size="11" lengthAdjust="spacingAndGlyphs" textLength="91" x="58" y="199.9214">getCollectibles()</text><ellipse cx="49" cy="209.5156" fill="#84BE84" rx="3" ry="3" style="stroke: #038048; stroke-width: 1.0;"/><text fill="#000000" font-family="sans-serif" font-size="11" lengthAdjust="spacingAndGlyphs" textLength="64" x="58" y="212.7261">getEnemy()</text><polygon fill="#4177AF" points="49,218.3203,45,224.3203,53,224.3203" style="stroke: #1963A0; stroke-width: 1.0;"/><text fill="#000000" font-family="sans-serif" font-size="11" lengthAdjust="spacingAndGlyphs" textLength="42" x="58" y="225.5308">Game()</text><!--MD5=[97948fd202864084d7b31dcd1604fdf3]
class in.ashwanik.pdp.abstract_factory.Game.ArenaFactory--><rect fill="#FEFECE" filter="url(#fldedpk7aw2aw)" height="60.8047" id="in.ashwanik.pdp.abstract_factory.Game.ArenaFactory" style="stroke: #A80036; stroke-width: 1.5;" width="155" x="244.5" y="443.4063"/><ellipse cx="259.5" cy="459.4063" fill="#ADD1B2" rx="11" ry="11" style="stroke: #A80036; stroke-width: 1.0;"/><path d="M261.8438,455.0781 L262.0156,455.1563 C262.2344,454.8438 262.4375,454.75 262.7344,454.75 C263.0313,454.75 263.3125,454.8906 263.4688,455.1563 C263.5625,455.3125 263.5781,455.4375 263.5781,455.875 L263.5781,457.2969 C263.5781,457.7188 263.5469,457.9063 263.4375,458.0625 C263.2656,458.2813 263,458.4219 262.7344,458.4219 C262.5156,458.4219 262.2813,458.3125 262.1406,458.1719 C262,458.0469 261.9688,457.9219 261.9063,457.5156 C261.8125,457.1094 261.6406,456.8906 261.1563,456.6094 C260.6875,456.3594 260.0781,456.2031 259.5,456.2031 C257.7656,456.2031 256.5156,457.5156 256.5156,459.2969 L256.5156,460.3906 C256.5156,462.0938 257.8125,463.1875 259.8594,463.1875 C260.625,463.1875 261.3125,463.0625 261.7344,462.7969 C261.9219,462.7031 261.9219,462.7031 262.375,462.2188 C262.5625,462.0313 262.7656,461.9531 262.9844,461.9531 C263.4531,461.9531 263.8438,462.3438 263.8438,462.7969 C263.8438,463.1875 263.5156,463.6406 262.9375,464.0469 C262.1875,464.5938 261.0313,464.8906 259.8125,464.8906 C256.9219,464.8906 254.8125,463 254.8125,460.4219 L254.8125,459.2969 C254.8125,456.5781 256.8125,454.5 259.4375,454.5 C260.3125,454.5 260.9063,454.6406 261.8438,455.0781 Z "/><text fill="#000000" font-family="sans-serif" font-size="12" lengthAdjust="spacingAndGlyphs" textLength="123" x="273.5" y="463.5605">Game.ArenaFactory</text><line style="stroke: #A80036; stroke-width: 1.5;" x1="245.5" x2="398.5" y1="475.4063" y2="475.4063"/><line style="stroke: #A80036; stroke-width: 1.5;" x1="245.5" x2="398.5" y1="483.4063" y2="483.4063"/><polygon fill="#4177AF" points="255.5,490.4063,251.5,496.4063,259.5,496.4063" style="stroke: #1963A0; stroke-width: 1.0;"/><text fill="#000000" font-family="sans-serif" font-size="11" lengthAdjust="spacingAndGlyphs" text-decoration="underline" textLength="59" x="264.5" y="497.6167">getArena()</text><!--MD5=[5db7797de55074ca86e6e6ef06286090]
class in.ashwanik.pdp.abstract_factory.Item--><rect fill="#FEFECE" filter="url(#fldedpk7aw2aw)" height="112.0234" id="in.ashwanik.pdp.abstract_factory.Item" style="stroke: #A80036; stroke-width: 1.5;" width="135" x="635.5" y="126.4063"/><ellipse cx="685.25" cy="142.4063" fill="#ADD1B2" rx="11" ry="11" style="stroke: #A80036; stroke-width: 1.0;"/><path d="M687.5938,138.0781 L687.7656,138.1563 C687.9844,137.8438 688.1875,137.75 688.4844,137.75 C688.7813,137.75 689.0625,137.8906 689.2188,138.1563 C689.3125,138.3125 689.3281,138.4375 689.3281,138.875 L689.3281,140.2969 C689.3281,140.7188 689.2969,140.9063 689.1875,141.0625 C689.0156,141.2813 688.75,141.4219 688.4844,141.4219 C688.2656,141.4219 688.0313,141.3125 687.8906,141.1719 C687.75,141.0469 687.7188,140.9219 687.6563,140.5156 C687.5625,140.1094 687.3906,139.8906 686.9063,139.6094 C686.4375,139.3594 685.8281,139.2031 685.25,139.2031 C683.5156,139.2031 682.2656,140.5156 682.2656,142.2969 L682.2656,143.3906 C682.2656,145.0938 683.5625,146.1875 685.6094,146.1875 C686.375,146.1875 687.0625,146.0625 687.4844,145.7969 C687.6719,145.7031 687.6719,145.7031 688.125,145.2188 C688.3125,145.0313 688.5156,144.9531 688.7344,144.9531 C689.2031,144.9531 689.5938,145.3438 689.5938,145.7969 C689.5938,146.1875 689.2656,146.6406 688.6875,147.0469 C687.9375,147.5938 686.7813,147.8906 685.5625,147.8906 C682.6719,147.8906 680.5625,146 680.5625,143.4219 L680.5625,142.2969 C680.5625,139.5781 682.5625,137.5 685.1875,137.5 C686.0625,137.5 686.6563,137.6406 687.5938,138.0781 Z "/><text fill="#000000" font-family="sans-serif" font-size="12" lengthAdjust="spacingAndGlyphs" textLength="27" x="705.75" y="146.5605">Item</text><line style="stroke: #A80036; stroke-width: 1.5;" x1="636.5" x2="769.5" y1="158.4063" y2="158.4063"/><rect fill="none" height="6" style="stroke: #C82930; stroke-width: 1.0;" width="6" x="643.5" y="166.4063"/><text fill="#000000" font-family="sans-serif" font-size="11" lengthAdjust="spacingAndGlyphs" textLength="109" x="655.5" y="172.6167">description : String</text><rect fill="none" height="6" style="stroke: #C82930; stroke-width: 1.0;" width="6" x="643.5" y="179.2109"/><text fill="#000000" font-family="sans-serif" font-size="11" lengthAdjust="spacingAndGlyphs" textLength="78" x="655.5" y="185.4214">name : String</text><line style="stroke: #A80036; stroke-width: 1.5;" x1="636.5" x2="769.5" y1="192.0156" y2="192.0156"/><ellipse cx="646.5" cy="203.0156" fill="#84BE84" rx="3" ry="3" style="stroke: #038048; stroke-width: 1.0;"/><text fill="#000000" font-family="sans-serif" font-size="11" lengthAdjust="spacingAndGlyphs" textLength="90" x="655.5" y="206.2261">getDescription()</text><ellipse cx="646.5" cy="215.8203" fill="#84BE84" rx="3" ry="3" style="stroke: #038048; stroke-width: 1.0;"/><text fill="#000000" font-family="sans-serif" font-size="11" lengthAdjust="spacingAndGlyphs" textLength="59" x="655.5" y="219.0308">getName()</text><polygon fill="#4177AF" points="646.5,224.625,642.5,230.625,650.5,230.625" style="stroke: #1963A0; stroke-width: 1.0;"/><text fill="#000000" font-family="sans-serif" font-size="11" lengthAdjust="spacingAndGlyphs" textLength="33" x="655.5" y="231.8354">Item()</text><!--MD5=[1ef55bf659f4a6d6e2052960d1c4f472]
class in.ashwanik.pdp.abstract_factory.LongSword--><rect fill="#FEFECE" filter="url(#fldedpk7aw2aw)" height="60.8047" id="in.ashwanik.pdp.abstract_factory.LongSword" style="stroke: #A80036; stroke-width: 1.5;" width="100" x="414" y="853.9063"/><ellipse cx="429" cy="869.9063" fill="#ADD1B2" rx="11" ry="11" style="stroke: #A80036; stroke-width: 1.0;"/><path d="M431.3438,865.5781 L431.5156,865.6563 C431.7344,865.3438 431.9375,865.25 432.2344,865.25 C432.5313,865.25 432.8125,865.3906 432.9688,865.6563 C433.0625,865.8125 433.0781,865.9375 433.0781,866.375 L433.0781,867.7969 C433.0781,868.2188 433.0469,868.4063 432.9375,868.5625 C432.7656,868.7813 432.5,868.9219 432.2344,868.9219 C432.0156,868.9219 431.7813,868.8125 431.6406,868.6719 C431.5,868.5469 431.4688,868.4219 431.4063,868.0156 C431.3125,867.6094 431.1406,867.3906 430.6563,867.1094 C430.1875,866.8594 429.5781,866.7031 429,866.7031 C427.2656,866.7031 426.0156,868.0156 426.0156,869.7969 L426.0156,870.8906 C426.0156,872.5938 427.3125,873.6875 429.3594,873.6875 C430.125,873.6875 430.8125,873.5625 431.2344,873.2969 C431.4219,873.2031 431.4219,873.2031 431.875,872.7188 C432.0625,872.5313 432.2656,872.4531 432.4844,872.4531 C432.9531,872.4531 433.3438,872.8438 433.3438,873.2969 C433.3438,873.6875 433.0156,874.1406 432.4375,874.5469 C431.6875,875.0938 430.5313,875.3906 429.3125,875.3906 C426.4219,875.3906 424.3125,873.5 424.3125,870.9219 L424.3125,869.7969 C424.3125,867.0781 426.3125,865 428.9375,865 C429.8125,865 430.4063,865.1406 431.3438,865.5781 Z "/><text fill="#000000" font-family="sans-serif" font-size="12" lengthAdjust="spacingAndGlyphs" textLength="68" x="443" y="874.0605">LongSword</text><line style="stroke: #A80036; stroke-width: 1.5;" x1="415" x2="513" y1="885.9063" y2="885.9063"/><line style="stroke: #A80036; stroke-width: 1.5;" x1="415" x2="513" y1="893.9063" y2="893.9063"/><polygon fill="#4177AF" points="425,900.9063,421,906.9063,429,906.9063" style="stroke: #1963A0; stroke-width: 1.0;"/><text fill="#000000" font-family="sans-serif" font-size="11" lengthAdjust="spacingAndGlyphs" textLength="71" x="434" y="908.1167">LongSword()</text><!--MD5=[0729cf6c80774253baa9b859da215ef8]
class in.ashwanik.pdp.abstract_factory.Mace--><rect fill="#FEFECE" filter="url(#fldedpk7aw2aw)" height="60.8047" id="in.ashwanik.pdp.abstract_factory.Mace" style="stroke: #A80036; stroke-width: 1.5;" width="65" x="549.5" y="853.9063"/><ellipse cx="564.5" cy="869.9063" fill="#ADD1B2" rx="11" ry="11" style="stroke: #A80036; stroke-width: 1.0;"/><path d="M566.8438,865.5781 L567.0156,865.6563 C567.2344,865.3438 567.4375,865.25 567.7344,865.25 C568.0313,865.25 568.3125,865.3906 568.4688,865.6563 C568.5625,865.8125 568.5781,865.9375 568.5781,866.375 L568.5781,867.7969 C568.5781,868.2188 568.5469,868.4063 568.4375,868.5625 C568.2656,868.7813 568,868.9219 567.7344,868.9219 C567.5156,868.9219 567.2813,868.8125 567.1406,868.6719 C567,868.5469 566.9688,868.4219 566.9063,868.0156 C566.8125,867.6094 566.6406,867.3906 566.1563,867.1094 C565.6875,866.8594 565.0781,866.7031 564.5,866.7031 C562.7656,866.7031 561.5156,868.0156 561.5156,869.7969 L561.5156,870.8906 C561.5156,872.5938 562.8125,873.6875 564.8594,873.6875 C565.625,873.6875 566.3125,873.5625 566.7344,873.2969 C566.9219,873.2031 566.9219,873.2031 567.375,872.7188 C567.5625,872.5313 567.7656,872.4531 567.9844,872.4531 C568.4531,872.4531 568.8438,872.8438 568.8438,873.2969 C568.8438,873.6875 568.5156,874.1406 567.9375,874.5469 C567.1875,875.0938 566.0313,875.3906 564.8125,875.3906 C561.9219,875.3906 559.8125,873.5 559.8125,870.9219 L559.8125,869.7969 C559.8125,867.0781 561.8125,865 564.4375,865 C565.3125,865 565.9063,865.1406 566.8438,865.5781 Z "/><text fill="#000000" font-family="sans-serif" font-size="12" lengthAdjust="spacingAndGlyphs" textLength="33" x="578.5" y="874.0605">Mace</text><line style="stroke: #A80036; stroke-width: 1.5;" x1="550.5" x2="613.5" y1="885.9063" y2="885.9063"/><line style="stroke: #A80036; stroke-width: 1.5;" x1="550.5" x2="613.5" y1="893.9063" y2="893.9063"/><polygon fill="#4177AF" points="560.5,900.9063,556.5,906.9063,564.5,906.9063" style="stroke: #1963A0; stroke-width: 1.0;"/><text fill="#000000" font-family="sans-serif" font-size="11" lengthAdjust="spacingAndGlyphs" textLength="37" x="569.5" y="908.1167">Mace()</text><!--MD5=[e191e0be596e116c2c803108ca1b4b92]
class in.ashwanik.pdp.abstract_factory.MedievalArena--><rect fill="#FEFECE" filter="url(#fldedpk7aw2aw)" height="73.6094" id="in.ashwanik.pdp.abstract_factory.MedievalArena" style="stroke: #A80036; stroke-width: 1.5;" width="135" x="762.5" y="436.9063"/><ellipse cx="782.9" cy="452.9063" fill="#ADD1B2" rx="11" ry="11" style="stroke: #A80036; stroke-width: 1.0;"/><path d="M785.2438,448.5781 L785.4156,448.6563 C785.6344,448.3438 785.8375,448.25 786.1344,448.25 C786.4313,448.25 786.7125,448.3906 786.8688,448.6563 C786.9625,448.8125 786.9781,448.9375 786.9781,449.375 L786.9781,450.7969 C786.9781,451.2188 786.9469,451.4063 786.8375,451.5625 C786.6656,451.7813 786.4,451.9219 786.1344,451.9219 C785.9156,451.9219 785.6813,451.8125 785.5406,451.6719 C785.4,451.5469 785.3688,451.4219 785.3063,451.0156 C785.2125,450.6094 785.0406,450.3906 784.5563,450.1094 C784.0875,449.8594 783.4781,449.7031 782.9,449.7031 C781.1656,449.7031 779.9156,451.0156 779.9156,452.7969 L779.9156,453.8906 C779.9156,455.5938 781.2125,456.6875 783.2594,456.6875 C784.025,456.6875 784.7125,456.5625 785.1344,456.2969 C785.3219,456.2031 785.3219,456.2031 785.775,455.7188 C785.9625,455.5313 786.1656,455.4531 786.3844,455.4531 C786.8531,455.4531 787.2438,455.8438 787.2438,456.2969 C787.2438,456.6875 786.9156,457.1406 786.3375,457.5469 C785.5875,458.0938 784.4313,458.3906 783.2125,458.3906 C780.3219,458.3906 778.2125,456.5 778.2125,453.9219 L778.2125,452.7969 C778.2125,450.0781 780.2125,448 782.8375,448 C783.7125,448 784.3063,448.1406 785.2438,448.5781 Z "/><text fill="#000000" font-family="sans-serif" font-size="12" lengthAdjust="spacingAndGlyphs" textLength="91" x="798.1" y="457.0605">MedievalArena</text><line style="stroke: #A80036; stroke-width: 1.5;" x1="763.5" x2="896.5" y1="468.9063" y2="468.9063"/><line style="stroke: #A80036; stroke-width: 1.5;" x1="763.5" x2="896.5" y1="476.9063" y2="476.9063"/><ellipse cx="773.5" cy="487.9063" fill="#84BE84" rx="3" ry="3" style="stroke: #038048; stroke-width: 1.0;"/><text fill="#000000" font-family="sans-serif" font-size="11" lengthAdjust="spacingAndGlyphs" textLength="109" x="782.5" y="491.1167">createCollectibles()</text><ellipse cx="773.5" cy="500.7109" fill="#84BE84" rx="3" ry="3" style="stroke: #038048; stroke-width: 1.0;"/><text fill="#000000" font-family="sans-serif" font-size="11" lengthAdjust="spacingAndGlyphs" textLength="82" x="782.5" y="503.9214">createEnemy()</text><!--MD5=[5ee135ae7022b24c574d471565189b38]
class in.ashwanik.pdp.abstract_factory.MedievalCollectibles--><rect fill="#FEFECE" filter="url(#fldedpk7aw2aw)" height="60.8047" id="in.ashwanik.pdp.abstract_factory.MedievalCollectibles" style="stroke: #A80036; stroke-width: 1.5;" width="157" x="1118.5" y="443.4063"/><ellipse cx="1133.5" cy="459.4063" fill="#ADD1B2" rx="11" ry="11" style="stroke: #A80036; stroke-width: 1.0;"/><path d="M1135.8438,455.0781 L1136.0156,455.1563 C1136.2344,454.8438 1136.4375,454.75 1136.7344,454.75 C1137.0313,454.75 1137.3125,454.8906 1137.4688,455.1563 C1137.5625,455.3125 1137.5781,455.4375 1137.5781,455.875 L1137.5781,457.2969 C1137.5781,457.7188 1137.5469,457.9063 1137.4375,458.0625 C1137.2656,458.2813 1137,458.4219 1136.7344,458.4219 C1136.5156,458.4219 1136.2813,458.3125 1136.1406,458.1719 C1136,458.0469 1135.9688,457.9219 1135.9063,457.5156 C1135.8125,457.1094 1135.6406,456.8906 1135.1563,456.6094 C1134.6875,456.3594 1134.0781,456.2031 1133.5,456.2031 C1131.7656,456.2031 1130.5156,457.5156 1130.5156,459.2969 L1130.5156,460.3906 C1130.5156,462.0938 1131.8125,463.1875 1133.8594,463.1875 C1134.625,463.1875 1135.3125,463.0625 1135.7344,462.7969 C1135.9219,462.7031 1135.9219,462.7031 1136.375,462.2188 C1136.5625,462.0313 1136.7656,461.9531 1136.9844,461.9531 C1137.4531,461.9531 1137.8438,462.3438 1137.8438,462.7969 C1137.8438,463.1875 1137.5156,463.6406 1136.9375,464.0469 C1136.1875,464.5938 1135.0313,464.8906 1133.8125,464.8906 C1130.9219,464.8906 1128.8125,463 1128.8125,460.4219 L1128.8125,459.2969 C1128.8125,456.5781 1130.8125,454.5 1133.4375,454.5 C1134.3125,454.5 1134.9063,454.6406 1135.8438,455.0781 Z "/><text fill="#000000" font-family="sans-serif" font-size="12" lengthAdjust="spacingAndGlyphs" textLength="125" x="1147.5" y="463.5605">MedievalCollectibles</text><line style="stroke: #A80036; stroke-width: 1.5;" x1="1119.5" x2="1274.5" y1="475.4063" y2="475.4063"/><line style="stroke: #A80036; stroke-width: 1.5;" x1="1119.5" x2="1274.5" y1="483.4063" y2="483.4063"/><ellipse cx="1129.5" cy="494.4063" fill="#84BE84" rx="3" ry="3" style="stroke: #038048; stroke-width: 1.0;"/><text fill="#000000" font-family="sans-serif" font-size="11" lengthAdjust="spacingAndGlyphs" textLength="58" x="1138.5" y="497.6167">getItems()</text><!--MD5=[8707554f6dc9dd169245124d9b33e524]
class in.ashwanik.pdp.abstract_factory.Orc--><rect fill="#FEFECE" filter="url(#fldedpk7aw2aw)" height="99.2188" id="in.ashwanik.pdp.abstract_factory.Orc" style="stroke: #A80036; stroke-width: 1.5;" width="105" x="53.5" y="680.9063"/><ellipse cx="91.9" cy="696.9063" fill="#ADD1B2" rx="11" ry="11" style="stroke: #A80036; stroke-width: 1.0;"/><path d="M94.2438,692.5781 L94.4156,692.6563 C94.6344,692.3438 94.8375,692.25 95.1344,692.25 C95.4313,692.25 95.7125,692.3906 95.8688,692.6563 C95.9625,692.8125 95.9781,692.9375 95.9781,693.375 L95.9781,694.7969 C95.9781,695.2188 95.9469,695.4063 95.8375,695.5625 C95.6656,695.7813 95.4,695.9219 95.1344,695.9219 C94.9156,695.9219 94.6813,695.8125 94.5406,695.6719 C94.4,695.5469 94.3688,695.4219 94.3063,695.0156 C94.2125,694.6094 94.0406,694.3906 93.5563,694.1094 C93.0875,693.8594 92.4781,693.7031 91.9,693.7031 C90.1656,693.7031 88.9156,695.0156 88.9156,696.7969 L88.9156,697.8906 C88.9156,699.5938 90.2125,700.6875 92.2594,700.6875 C93.025,700.6875 93.7125,700.5625 94.1344,700.2969 C94.3219,700.2031 94.3219,700.2031 94.775,699.7188 C94.9625,699.5313 95.1656,699.4531 95.3844,699.4531 C95.8531,699.4531 96.2438,699.8438 96.2438,700.2969 C96.2438,700.6875 95.9156,701.1406 95.3375,701.5469 C94.5875,702.0938 93.4313,702.3906 92.2125,702.3906 C89.3219,702.3906 87.2125,700.5 87.2125,697.9219 L87.2125,696.7969 C87.2125,694.0781 89.2125,692 91.8375,692 C92.7125,692 93.3063,692.1406 94.2438,692.5781 Z "/><text fill="#000000" font-family="sans-serif" font-size="12" lengthAdjust="spacingAndGlyphs" textLength="21" x="111.1" y="701.0605">Orc</text><line style="stroke: #A80036; stroke-width: 1.5;" x1="54.5" x2="157.5" y1="712.9063" y2="712.9063"/><polygon fill="none" points="64.5,719.9063,60.5,725.9063,68.5,725.9063" style="stroke: #1963A0; stroke-width: 1.0;"/><text fill="#000000" font-family="sans-serif" font-size="11" lengthAdjust="spacingAndGlyphs" text-decoration="underline" textLength="70" x="73.5" y="727.1167">ORC : String</text><line style="stroke: #A80036; stroke-width: 1.5;" x1="54.5" x2="157.5" y1="733.7109" y2="733.7109"/><polygon fill="#4177AF" points="64.5,740.7109,60.5,746.7109,68.5,746.7109" style="stroke: #1963A0; stroke-width: 1.0;"/><text fill="#000000" font-family="sans-serif" font-size="11" lengthAdjust="spacingAndGlyphs" textLength="28" x="73.5" y="747.9214">Orc()</text><polygon fill="#4177AF" points="64.5,753.5156,60.5,759.5156,68.5,759.5156" style="stroke: #1963A0; stroke-width: 1.0;"/><text fill="#000000" font-family="sans-serif" font-size="11" lengthAdjust="spacingAndGlyphs" textLength="28" x="73.5" y="760.7261">Orc()</text><polygon fill="#4177AF" points="64.5,766.3203,60.5,772.3203,68.5,772.3203" style="stroke: #1963A0; stroke-width: 1.0;"/><text fill="#000000" font-family="sans-serif" font-size="11" lengthAdjust="spacingAndGlyphs" textLength="79" x="73.5" y="773.5308">newInstance()</text><!--MD5=[2ec8b56a0cb80a5ac5fc60ef020df04a]
class in.ashwanik.pdp.abstract_factory.SpikeHammer--><rect fill="#FEFECE" filter="url(#fldedpk7aw2aw)" height="60.8047" id="in.ashwanik.pdp.abstract_factory.SpikeHammer" style="stroke: #A80036; stroke-width: 1.5;" width="118" x="650" y="853.9063"/><ellipse cx="665" cy="869.9063" fill="#ADD1B2" rx="11" ry="11" style="stroke: #A80036; stroke-width: 1.0;"/><path d="M667.3438,865.5781 L667.5156,865.6563 C667.7344,865.3438 667.9375,865.25 668.2344,865.25 C668.5313,865.25 668.8125,865.3906 668.9688,865.6563 C669.0625,865.8125 669.0781,865.9375 669.0781,866.375 L669.0781,867.7969 C669.0781,868.2188 669.0469,868.4063 668.9375,868.5625 C668.7656,868.7813 668.5,868.9219 668.2344,868.9219 C668.0156,868.9219 667.7813,868.8125 667.6406,868.6719 C667.5,868.5469 667.4688,868.4219 667.4063,868.0156 C667.3125,867.6094 667.1406,867.3906 666.6563,867.1094 C666.1875,866.8594 665.5781,866.7031 665,866.7031 C663.2656,866.7031 662.0156,868.0156 662.0156,869.7969 L662.0156,870.8906 C662.0156,872.5938 663.3125,873.6875 665.3594,873.6875 C666.125,873.6875 666.8125,873.5625 667.2344,873.2969 C667.4219,873.2031 667.4219,873.2031 667.875,872.7188 C668.0625,872.5313 668.2656,872.4531 668.4844,872.4531 C668.9531,872.4531 669.3438,872.8438 669.3438,873.2969 C669.3438,873.6875 669.0156,874.1406 668.4375,874.5469 C667.6875,875.0938 666.5313,875.3906 665.3125,875.3906 C662.4219,875.3906 660.3125,873.5 660.3125,870.9219 L660.3125,869.7969 C660.3125,867.0781 662.3125,865 664.9375,865 C665.8125,865 666.4063,865.1406 667.3438,865.5781 Z "/><text fill="#000000" font-family="sans-serif" font-size="12" lengthAdjust="spacingAndGlyphs" textLength="86" x="679" y="874.0605">SpikeHammer</text><line style="stroke: #A80036; stroke-width: 1.5;" x1="651" x2="767" y1="885.9063" y2="885.9063"/><line style="stroke: #A80036; stroke-width: 1.5;" x1="651" x2="767" y1="893.9063" y2="893.9063"/><polygon fill="#4177AF" points="661,900.9063,657,906.9063,665,906.9063" style="stroke: #1963A0; stroke-width: 1.0;"/><text fill="#000000" font-family="sans-serif" font-size="11" lengthAdjust="spacingAndGlyphs" textLength="88" x="670" y="908.1167">SpikeHammer()</text><!--MD5=[cfee543e066fd13d59173b95a10dd1e1]
class in.ashwanik.pdp.abstract_factory.Uruk--><rect fill="#FEFECE" filter="url(#fldedpk7aw2aw)" height="99.2188" id="in.ashwanik.pdp.abstract_factory.Uruk" style="stroke: #A80036; stroke-width: 1.5;" width="105" x="193.5" y="680.9063"/><ellipse cx="228.3" cy="696.9063" fill="#ADD1B2" rx="11" ry="11" style="stroke: #A80036; stroke-width: 1.0;"/><path d="M230.6438,692.5781 L230.8156,692.6563 C231.0344,692.3438 231.2375,692.25 231.5344,692.25 C231.8313,692.25 232.1125,692.3906 232.2688,692.6563 C232.3625,692.8125 232.3781,692.9375 232.3781,693.375 L232.3781,694.7969 C232.3781,695.2188 232.3469,695.4063 232.2375,695.5625 C232.0656,695.7813 231.8,695.9219 231.5344,695.9219 C231.3156,695.9219 231.0813,695.8125 230.9406,695.6719 C230.8,695.5469 230.7688,695.4219 230.7063,695.0156 C230.6125,694.6094 230.4406,694.3906 229.9563,694.1094 C229.4875,693.8594 228.8781,693.7031 228.3,693.7031 C226.5656,693.7031 225.3156,695.0156 225.3156,696.7969 L225.3156,697.8906 C225.3156,699.5938 226.6125,700.6875 228.6594,700.6875 C229.425,700.6875 230.1125,700.5625 230.5344,700.2969 C230.7219,700.2031 230.7219,700.2031 231.175,699.7188 C231.3625,699.5313 231.5656,699.4531 231.7844,699.4531 C232.2531,699.4531 232.6438,699.8438 232.6438,700.2969 C232.6438,700.6875 232.3156,701.1406 231.7375,701.5469 C230.9875,702.0938 229.8313,702.3906 228.6125,702.3906 C225.7219,702.3906 223.6125,700.5 223.6125,697.9219 L223.6125,696.7969 C223.6125,694.0781 225.6125,692 228.2375,692 C229.1125,692 229.7063,692.1406 230.6438,692.5781 Z "/><text fill="#000000" font-family="sans-serif" font-size="12" lengthAdjust="spacingAndGlyphs" textLength="29" x="246.7" y="701.0605">Uruk</text><line style="stroke: #A80036; stroke-width: 1.5;" x1="194.5" x2="297.5" y1="712.9063" y2="712.9063"/><polygon fill="none" points="204.5,719.9063,200.5,725.9063,208.5,725.9063" style="stroke: #1963A0; stroke-width: 1.0;"/><text fill="#000000" font-family="sans-serif" font-size="11" lengthAdjust="spacingAndGlyphs" text-decoration="underline" textLength="76" x="213.5" y="727.1167">URUK : String</text><line style="stroke: #A80036; stroke-width: 1.5;" x1="194.5" x2="297.5" y1="733.7109" y2="733.7109"/><ellipse cx="204.5" cy="744.7109" fill="#84BE84" rx="3" ry="3" style="stroke: #038048; stroke-width: 1.0;"/><text fill="#000000" font-family="sans-serif" font-size="11" lengthAdjust="spacingAndGlyphs" textLength="79" x="213.5" y="747.9214">newInstance()</text><polygon fill="#4177AF" points="204.5,753.5156,200.5,759.5156,208.5,759.5156" style="stroke: #1963A0; stroke-width: 1.0;"/><text fill="#000000" font-family="sans-serif" font-size="11" lengthAdjust="spacingAndGlyphs" textLength="34" x="213.5" y="760.7261">Uruk()</text><polygon fill="#4177AF" points="204.5,766.3203,200.5,772.3203,208.5,772.3203" style="stroke: #1963A0; stroke-width: 1.0;"/><text fill="#000000" font-family="sans-serif" font-size="11" lengthAdjust="spacingAndGlyphs" textLength="34" x="213.5" y="773.5308">Uruk()</text><!--MD5=[08b7c1cb97e1aca73ffa4d6f41651825]
class in.ashwanik.pdp.abstract_factory.Weapon--><rect fill="#FEFECE" filter="url(#fldedpk7aw2aw)" height="124.8281" id="in.ashwanik.pdp.abstract_factory.Weapon" style="stroke: #A80036; stroke-width: 1.5;" width="155" x="418.5" y="667.9063"/><ellipse cx="466.25" cy="683.9063" fill="#ADD1B2" rx="11" ry="11" style="stroke: #A80036; stroke-width: 1.0;"/><path d="M468.5938,679.5781 L468.7656,679.6563 C468.9844,679.3438 469.1875,679.25 469.4844,679.25 C469.7813,679.25 470.0625,679.3906 470.2188,679.6563 C470.3125,679.8125 470.3281,679.9375 470.3281,680.375 L470.3281,681.7969 C470.3281,682.2188 470.2969,682.4063 470.1875,682.5625 C470.0156,682.7813 469.75,682.9219 469.4844,682.9219 C469.2656,682.9219 469.0313,682.8125 468.8906,682.6719 C468.75,682.5469 468.7188,682.4219 468.6563,682.0156 C468.5625,681.6094 468.3906,681.3906 467.9063,681.1094 C467.4375,680.8594 466.8281,680.7031 466.25,680.7031 C464.5156,680.7031 463.2656,682.0156 463.2656,683.7969 L463.2656,684.8906 C463.2656,686.5938 464.5625,687.6875 466.6094,687.6875 C467.375,687.6875 468.0625,687.5625 468.4844,687.2969 C468.6719,687.2031 468.6719,687.2031 469.125,686.7188 C469.3125,686.5313 469.5156,686.4531 469.7344,686.4531 C470.2031,686.4531 470.5938,686.8438 470.5938,687.2969 C470.5938,687.6875 470.2656,688.1406 469.6875,688.5469 C468.9375,689.0938 467.7813,689.3906 466.5625,689.3906 C463.6719,689.3906 461.5625,687.5 461.5625,684.9219 L461.5625,683.7969 C461.5625,681.0781 463.5625,679 466.1875,679 C467.0625,679 467.6563,679.1406 468.5938,679.5781 Z "/><text fill="#000000" font-family="sans-serif" font-size="12" lengthAdjust="spacingAndGlyphs" textLength="51" x="486.75" y="688.0605">Weapon</text><line style="stroke: #A80036; stroke-width: 1.5;" x1="419.5" x2="572.5" y1="699.9063" y2="699.9063"/><rect fill="none" height="6" style="stroke: #C82930; stroke-width: 1.0;" width="6" x="426.5" y="707.9063"/><text fill="#000000" font-family="sans-serif" font-size="11" lengthAdjust="spacingAndGlyphs" textLength="129" x="438.5" y="714.1167">maximumDamage : int</text><rect fill="none" height="6" style="stroke: #C82930; stroke-width: 1.0;" width="6" x="426.5" y="720.7109"/><text fill="#000000" font-family="sans-serif" font-size="11" lengthAdjust="spacingAndGlyphs" textLength="126" x="438.5" y="726.9214">minimumDamage : int</text><line style="stroke: #A80036; stroke-width: 1.5;" x1="419.5" x2="572.5" y1="733.5156" y2="733.5156"/><ellipse cx="429.5" cy="744.5156" fill="#84BE84" rx="3" ry="3" style="stroke: #038048; stroke-width: 1.0;"/><text fill="#000000" font-family="sans-serif" font-size="11" lengthAdjust="spacingAndGlyphs" textLength="127" x="438.5" y="747.7261">getMaximumDamage()</text><ellipse cx="429.5" cy="757.3203" fill="#84BE84" rx="3" ry="3" style="stroke: #038048; stroke-width: 1.0;"/><text fill="#000000" font-family="sans-serif" font-size="11" lengthAdjust="spacingAndGlyphs" textLength="124" x="438.5" y="760.5308">getMinimumDamage()</text><ellipse cx="429.5" cy="770.125" fill="#84BE84" rx="3" ry="3" style="stroke: #038048; stroke-width: 1.0;"/><text fill="#000000" font-family="sans-serif" font-size="11" lengthAdjust="spacingAndGlyphs" textLength="53" x="438.5" y="773.3354">toString()</text><polygon fill="#4177AF" points="429.5,778.9297,425.5,784.9297,433.5,784.9297" style="stroke: #1963A0; stroke-width: 1.0;"/><text fill="#000000" font-family="sans-serif" font-size="11" lengthAdjust="spacingAndGlyphs" textLength="52" x="438.5" y="786.1401">Weapon()</text><!--MD5=[6082a5a15e65e9a661bf0fc5ade4abd2]
reverse link in.ashwanik.pdp.abstract_factory.Arena to in.ashwanik.pdp.abstract_factory.AncientArena--><path d="M828.851,234.7722 C803.469,265.0182 771.471,304.3923 745,340.9063 C722.123,372.4633 698.281,409.9533 681.691,436.9003 " fill="none" id="in.ashwanik.pdp.abstract_factory.Arena&lt;-in.ashwanik.pdp.abstract_factory.AncientArena" style="stroke: #A80036; stroke-width: 1.0; stroke-dasharray: 7.0,7.0;"/><polygon fill="none" points="823.569,230.1783,841.825,219.4193,834.263,239.2133,823.569,230.1783" style="stroke: #A80036; stroke-width: 1.0;"/><!--MD5=[ef53417da2a082ff03441d0688ee5543]
reverse link in.ashwanik.pdp.abstract_factory.Collectibles to in.ashwanik.pdp.abstract_factory.AncientCollectibles--><path d="M1093.65,232.1582 C1072.2,292.4643 1036.34,393.2533 1018.6,443.1103 " fill="none" id="in.ashwanik.pdp.abstract_factory.Collectibles&lt;-in.ashwanik.pdp.abstract_factory.AncientCollectibles" style="stroke: #A80036; stroke-width: 1.0; stroke-dasharray: 7.0,7.0;"/><polygon fill="none" points="1087.16,229.5243,1100.46,213.0272,1100.35,234.2162,1087.16,229.5243" style="stroke: #A80036; stroke-width: 1.0;"/><!--MD5=[cf9e93ab22c1513104cf79f7407f848b]
reverse link in.ashwanik.pdp.abstract_factory.Item to in.ashwanik.pdp.abstract_factory.CollectibleItem--><path d="M641.829,254.2453 C619.886,280.7813 595.515,311.6083 575,340.9063 C554.703,369.8932 534.253,404.2352 519.246,430.6242 " fill="none" id="in.ashwanik.pdp.abstract_factory.Item&lt;-in.ashwanik.pdp.abstract_factory.CollectibleItem" style="stroke: #A80036; stroke-width: 1.0;"/><polygon fill="none" points="636.578,249.6113,654.77,238.7463,647.325,258.5843,636.578,249.6113" style="stroke: #A80036; stroke-width: 1.0;"/><!--MD5=[6f42891935c1007047534235a3dfc4df]
reverse link in.ashwanik.pdp.abstract_factory.Weapon to in.ashwanik.pdp.abstract_factory.Dagger--><path d="M418.086,807.3222 C401.166,823.8083 384.241,840.2993 370.495,853.6931 " fill="none" id="in.ashwanik.pdp.abstract_factory.Weapon&lt;-in.ashwanik.pdp.abstract_factory.Dagger" style="stroke: #A80036; stroke-width: 1.0;"/><polygon fill="none" points="413.339,802.1743,432.549,793.2303,423.109,812.2013,413.339,802.1743" style="stroke: #A80036; stroke-width: 1.0;"/><!--MD5=[1ebd5ab5781e63293f6a5e0437a11ad1]
reverse link in.ashwanik.pdp.abstract_factory.Game to in.ashwanik.pdp.abstract_factory.Enemy--><path d="M143.647,245.3953 C141.231,273.3773 138.277,307.5733 135.402,340.8652 " fill="none" id="in.ashwanik.pdp.abstract_factory.Game&lt;-in.ashwanik.pdp.abstract_factory.Enemy" style="stroke: #A80036; stroke-width: 1.0;"/><polygon fill="#FFFFFF" points="144.787,232.1883,140.2856,237.8218,143.7544,244.1437,148.2559,238.5102,144.787,232.1883" style="stroke: #A80036; stroke-width: 1.0;"/><text fill="#000000" font-family="sans-serif" font-size="13" lengthAdjust="spacingAndGlyphs" textLength="44" x="140" y="306.9731">enemy</text><!--MD5=[1e889ac0bdc3e4d25b9f6938fa96b3d1]
reverse link in.ashwanik.pdp.abstract_factory.Game to in.ashwanik.pdp.abstract_factory.Game.ArenaFactory--><path d="M185.88,245.1213 C222.374,306.1922 276.675,397.0593 304.37,443.4043 " fill="none" id="in.ashwanik.pdp.abstract_factory.Game&lt;-in.ashwanik.pdp.abstract_factory.Game.ArenaFactory" style="stroke: #A80036; stroke-width: 1.0;"/><ellipse cx="182.255" cy="239.0554" fill="#FFFFFF" rx="8" ry="8" style="stroke: #A80036; stroke-width: 1.0;"/><line style="stroke: #A80036; stroke-width: 1.0;" x1="186.3589" x2="178.151" y1="245.9225" y2="232.1883"/><line style="stroke: #A80036; stroke-width: 1.0;" x1="175.3878" x2="189.1221" y1="243.1593" y2="234.9514"/><!--MD5=[4aeed4fb87d8477c4e2258bb1d324429]
reverse link in.ashwanik.pdp.abstract_factory.Weapon to in.ashwanik.pdp.abstract_factory.LongSword--><path d="M478.815,813.0342 C475.753,827.5793 472.749,841.8473 470.255,853.6931 " fill="none" id="in.ashwanik.pdp.abstract_factory.Weapon&lt;-in.ashwanik.pdp.abstract_factory.LongSword" style="stroke: #A80036; stroke-width: 1.0;"/><polygon fill="none" points="472.014,811.3593,482.984,793.2303,485.714,814.2433,472.014,811.3593" style="stroke: #A80036; stroke-width: 1.0;"/><!--MD5=[22deba4ccdcf60a11fa48e7e4977eee1]
reverse link in.ashwanik.pdp.abstract_factory.Weapon to in.ashwanik.pdp.abstract_factory.Mace--><path d="M541.061,811.0493 C549.677,826.2773 558.182,841.3093 565.189,853.6931 " fill="none" id="in.ashwanik.pdp.abstract_factory.Weapon&lt;-in.ashwanik.pdp.abstract_factory.Mace" style="stroke: #A80036; stroke-width: 1.0;"/><polygon fill="none" points="534.736,814.0843,530.979,793.2303,546.921,807.1903,534.736,814.0843" style="stroke: #A80036; stroke-width: 1.0;"/><!--MD5=[5c60df1e2c7ec0aa9b9521605e7f711b]
reverse link in.ashwanik.pdp.abstract_factory.Arena to in.ashwanik.pdp.abstract_factory.MedievalArena--><path d="M864.68,239.4182 C856.021,297.7162 842.718,387.2853 835.359,436.8273 " fill="none" id="in.ashwanik.pdp.abstract_factory.Arena&lt;-in.ashwanik.pdp.abstract_factory.MedievalArena" style="stroke: #A80036; stroke-width: 1.0; stroke-dasharray: 7.0,7.0;"/><polygon fill="none" points="857.778,238.2413,867.641,219.4863,871.627,240.2972,857.778,238.2413" style="stroke: #A80036; stroke-width: 1.0;"/><!--MD5=[9636a295c9db40fcbf3c5aad6a37427a]
reverse link in.ashwanik.pdp.abstract_factory.Collectibles to in.ashwanik.pdp.abstract_factory.MedievalCollectibles--><path d="M1125.6,232.5522 C1143.53,292.9032 1173.37,393.3613 1188.15,443.1103 " fill="none" id="in.ashwanik.pdp.abstract_factory.Collectibles&lt;-in.ashwanik.pdp.abstract_factory.MedievalCollectibles" style="stroke: #A80036; stroke-width: 1.0; stroke-dasharray: 7.0,7.0;"/><polygon fill="none" points="1118.78,234.1922,1119.8,213.0272,1132.2,230.2062,1118.78,234.1922" style="stroke: #A80036; stroke-width: 1.0;"/><!--MD5=[0962713db771e855ddc9294b21604de0]
reverse link in.ashwanik.pdp.abstract_factory.Enemy to in.ashwanik.pdp.abstract_factory.Orc--><path d="M113.245,626.9713 C111.875,646.3333 110.562,664.8983 109.439,680.7773 " fill="none" id="in.ashwanik.pdp.abstract_factory.Enemy&lt;-in.ashwanik.pdp.abstract_factory.Orc" style="stroke: #A80036; stroke-width: 1.0;"/><polygon fill="none" points="106.264,626.4583,114.657,607.0013,120.229,627.4453,106.264,626.4583" style="stroke: #A80036; stroke-width: 1.0;"/><!--MD5=[0c1850ce22e8cbbb5642be6728210394]
reverse link in.ashwanik.pdp.abstract_factory.Weapon to in.ashwanik.pdp.abstract_factory.SpikeHammer--><path d="M590.143,798.5883 C617.198,817.8943 645.331,837.9713 667.431,853.7419 " fill="none" id="in.ashwanik.pdp.abstract_factory.Weapon&lt;-in.ashwanik.pdp.abstract_factory.SpikeHammer" style="stroke: #A80036; stroke-width: 1.0;"/><polygon fill="none" points="585.714,804.0273,573.5,786.7113,593.846,792.6313,585.714,804.0273" style="stroke: #A80036; stroke-width: 1.0;"/><!--MD5=[ae4a13044e0417564f7b7ff362f877ee]
reverse link in.ashwanik.pdp.abstract_factory.Enemy to in.ashwanik.pdp.abstract_factory.Uruk--><path d="M196.02,625.1443 C205.617,645.1643 214.838,664.3992 222.689,680.7773 " fill="none" id="in.ashwanik.pdp.abstract_factory.Enemy&lt;-in.ashwanik.pdp.abstract_factory.Uruk" style="stroke: #A80036; stroke-width: 1.0;"/><polygon fill="none" points="189.656,628.0623,187.323,607.0013,202.28,622.0103,189.656,628.0623" style="stroke: #A80036; stroke-width: 1.0;"/><!--MD5=[5c9f27d040596bd8e4557d79f3a38a4f]
reverse link in.ashwanik.pdp.abstract_factory.CollectibleItem to in.ashwanik.pdp.abstract_factory.Weapon--><path d="M496,537.1003 C496,576.8393 496,628.1573 496,667.7833 " fill="none" id="in.ashwanik.pdp.abstract_factory.CollectibleItem&lt;-in.ashwanik.pdp.abstract_factory.Weapon" style="stroke: #A80036; stroke-width: 1.0;"/><polygon fill="none" points="489,536.9323,496,516.9313,503,536.9313,489,536.9323" style="stroke: #A80036; stroke-width: 1.0;"/><!--MD5=[f2ad3b2872fa3936251ac8c3aebf9971]
@startuml
title __ABSTRACT_FACTORY__\n

  namespace in.ashwanik.pdp.abstract_factory {
    class in.ashwanik.pdp.abstract_factory.AncientArena {
        + createCollectibles()
        + createEnemy()
    }
  }
  

  namespace in.ashwanik.pdp.abstract_factory {
    class in.ashwanik.pdp.abstract_factory.AncientCollectibles {
        + getItems()
    }
  }
  

  namespace in.ashwanik.pdp.abstract_factory {
    interface in.ashwanik.pdp.abstract_factory.Arena {
        {abstract} + createCollectibles()
        {abstract} + createEnemy()
    }
  }
  

  namespace in.ashwanik.pdp.abstract_factory {
    enum ArenaType {
      ANCIENT
      MEDIEVAL
    }
  }
  

  namespace in.ashwanik.pdp.abstract_factory {
    class in.ashwanik.pdp.abstract_factory.Armoury {
        {static} - armoury : Armoury
        {static} - random : Random
        - weapons : List<Weapon>
        {static} ~ fill()
        {static} ~ getRandomWeapon()
        {static} ~ getWeapons()
        ~ numberOfWeapons()
        - Armoury()
        {static} - get()
    }
  }
  

  namespace in.ashwanik.pdp.abstract_factory {
    class in.ashwanik.pdp.abstract_factory.CollectibleItem {
        - weight : int
        + getWeight()
        ~ CollectibleItem()
    }
  }
  

  namespace in.ashwanik.pdp.abstract_factory {
    interface in.ashwanik.pdp.abstract_factory.Collectibles {
        {abstract} + getItems()
    }
  }
  

  namespace in.ashwanik.pdp.abstract_factory {
    class in.ashwanik.pdp.abstract_factory.Dagger {
        ~ Dagger()
    }
  }
  

  namespace in.ashwanik.pdp.abstract_factory {
    abstract class in.ashwanik.pdp.abstract_factory.Enemy {
        - description : String
        - experience : int
        - health : int
        - name : String
        - weapons : List<Weapon>
        + getDescription()
        + getExperience()
        + getHealth()
        + getName()
        + getWeapons()
        ~ Enemy()
        ~ Enemy()
        ~ attack()
        ~ changeHealth()
        ~ hasWeapon()
        ~ isDead()
        {abstract} ~ newInstance()
    }
  }
  

  namespace in.ashwanik.pdp.abstract_factory {
    class in.ashwanik.pdp.abstract_factory.Game {
        - collectibles : List<CollectibleItem>
        + getCollectibles()
        + getEnemy()
        ~ Game()
    }
  }
  

  namespace in.ashwanik.pdp.abstract_factory {
    class in.ashwanik.pdp.abstract_factory.Game.ArenaFactory {
        {static} ~ getArena()
    }
  }
  

  namespace in.ashwanik.pdp.abstract_factory {
    class in.ashwanik.pdp.abstract_factory.Item {
        - description : String
        - name : String
        + getDescription()
        + getName()
        ~ Item()
    }
  }
  

  namespace in.ashwanik.pdp.abstract_factory {
    class in.ashwanik.pdp.abstract_factory.LongSword {
        ~ LongSword()
    }
  }
  

  namespace in.ashwanik.pdp.abstract_factory {
    class in.ashwanik.pdp.abstract_factory.Mace {
        ~ Mace()
    }
  }
  

  namespace in.ashwanik.pdp.abstract_factory {
    class in.ashwanik.pdp.abstract_factory.MedievalArena {
        + createCollectibles()
        + createEnemy()
    }
  }
  

  namespace in.ashwanik.pdp.abstract_factory {
    class in.ashwanik.pdp.abstract_factory.MedievalCollectibles {
        + getItems()
    }
  }
  

  namespace in.ashwanik.pdp.abstract_factory {
    class in.ashwanik.pdp.abstract_factory.Orc {
        {static} ~ ORC : String
        ~ Orc()
        ~ Orc()
        ~ newInstance()
    }
  }
  

  namespace in.ashwanik.pdp.abstract_factory {
    class in.ashwanik.pdp.abstract_factory.SpikeHammer {
        ~ SpikeHammer()
    }
  }
  

  namespace in.ashwanik.pdp.abstract_factory {
    class in.ashwanik.pdp.abstract_factory.Uruk {
        {static} ~ URUK : String
        + newInstance()
        ~ Uruk()
        ~ Uruk()
    }
  }
  

  namespace in.ashwanik.pdp.abstract_factory {
    class in.ashwanik.pdp.abstract_factory.Weapon {
        - maximumDamage : int
        - minimumDamage : int
        + getMaximumDamage()
        + getMinimumDamage()
        + toString()
        ~ Weapon()
    }
  }
  

  in.ashwanik.pdp.abstract_factory.AncientArena .up.|> in.ashwanik.pdp.abstract_factory.Arena
  in.ashwanik.pdp.abstract_factory.AncientCollectibles .up.|> in.ashwanik.pdp.abstract_factory.Collectibles
  in.ashwanik.pdp.abstract_factory.CollectibleItem -up-|> in.ashwanik.pdp.abstract_factory.Item
  in.ashwanik.pdp.abstract_factory.Dagger -up-|> in.ashwanik.pdp.abstract_factory.Weapon
  in.ashwanik.pdp.abstract_factory.Game o- - in.ashwanik.pdp.abstract_factory.Enemy : enemy
  in.ashwanik.pdp.abstract_factory.Game +-down- in.ashwanik.pdp.abstract_factory.Game.ArenaFactory
  in.ashwanik.pdp.abstract_factory.LongSword -up-|> in.ashwanik.pdp.abstract_factory.Weapon
  in.ashwanik.pdp.abstract_factory.Mace -up-|> in.ashwanik.pdp.abstract_factory.Weapon
  in.ashwanik.pdp.abstract_factory.MedievalArena .up.|> in.ashwanik.pdp.abstract_factory.Arena
  in.ashwanik.pdp.abstract_factory.MedievalCollectibles .up.|> in.ashwanik.pdp.abstract_factory.Collectibles
  in.ashwanik.pdp.abstract_factory.Orc -up-|> in.ashwanik.pdp.abstract_factory.Enemy
  in.ashwanik.pdp.abstract_factory.SpikeHammer -up-|> in.ashwanik.pdp.abstract_factory.Weapon
  in.ashwanik.pdp.abstract_factory.Uruk -up-|> in.ashwanik.pdp.abstract_factory.Enemy
  in.ashwanik.pdp.abstract_factory.Weapon -up-|> in.ashwanik.pdp.abstract_factory.CollectibleItem
@enduml

PlantUML version 1.2019.10(Fri Sep 13 20:53:03 UTC 2019)
(GPL source distribution)
Java Runtime: Java(TM) SE Runtime Environment
JVM: Java HotSpot(TM) 64-Bit Server VM
Java Version: 1.7.0_25-b15
Operating System: Linux
Default Encoding: UTF-8
Language: en
Country: US
--></g></svg>