<?xml version="1.0" encoding="UTF-8" standalone="no"?>
<svg xmlns="http://www.w3.org/2000/svg" xmlns:xlink="http://www.w3.org/1999/xlink" contentScriptType="application/ecmascript" contentStyleType="text/css" height="735px" preserveAspectRatio="none" style="width:335px;height:735px;" version="1.1" viewBox="0 0 335 735" width="335px" zoomAndPan="magnify"><defs><filter height="300%" id="f18rzguczvln0q" width="300%" x="-1" y="-1"><feGaussianBlur result="blurOut" stdDeviation="2.0"/><feColorMatrix in="blurOut" result="blurOut2" type="matrix" values="0 0 0 0 0 0 0 0 0 0 0 0 0 0 0 0 0 0 .4 0"/><feOffset dx="4.0" dy="4.0" in="blurOut2" result="blurOut3"/><feBlend in="SourceGraphic" in2="blurOut3" mode="normal"/></filter></defs><g><text fill="#000000" font-family="sans-serif" font-size="18" lengthAdjust="spacingAndGlyphs" text-decoration="underline" textLength="85" x="131" y="16.708">ADAPTER</text><text fill="#000000" font-family="sans-serif" font-size="18" lengthAdjust="spacingAndGlyphs" textLength="0" x="176.5" y="37.6611"/><!--MD5=[31dc01edfdaf163b138404c4c41f586d]
cluster in.ashwanik.pdp.adapter--><polygon fill="#FFFFFF" filter="url(#f18rzguczvln0q)" points="22,65.9063,222,65.9063,229,88.2031,313,88.2031,313,723.9063,22,723.9063,22,65.9063" style="stroke: #000000; stroke-width: 1.5;"/><line style="stroke: #000000; stroke-width: 1.5;" x1="22" x2="229" y1="88.2031" y2="88.2031"/><text fill="#000000" font-family="sans-serif" font-size="14" font-weight="bold" lengthAdjust="spacingAndGlyphs" textLength="194" x="26" y="80.9014">in.ashwanik.pdp.adapter</text><!--MD5=[53e3139b9a9726021ece53e87378c64c]
class in.ashwanik.pdp.adapter.DocumentWriter--><rect fill="#FEFECE" filter="url(#f18rzguczvln0q)" height="73.6094" id="in.ashwanik.pdp.adapter.DocumentWriter" style="stroke: #A80036; stroke-width: 1.5;" width="133" x="163.5" y="100.9063"/><ellipse cx="178.5" cy="116.9063" fill="#ADD1B2" rx="11" ry="11" style="stroke: #A80036; stroke-width: 1.0;"/><path d="M180.8438,112.5781 L181.0156,112.6563 C181.2344,112.3438 181.4375,112.25 181.7344,112.25 C182.0313,112.25 182.3125,112.3906 182.4688,112.6563 C182.5625,112.8125 182.5781,112.9375 182.5781,113.375 L182.5781,114.7969 C182.5781,115.2188 182.5469,115.4063 182.4375,115.5625 C182.2656,115.7813 182,115.9219 181.7344,115.9219 C181.5156,115.9219 181.2813,115.8125 181.1406,115.6719 C181,115.5469 180.9688,115.4219 180.9063,115.0156 C180.8125,114.6094 180.6406,114.3906 180.1563,114.1094 C179.6875,113.8594 179.0781,113.7031 178.5,113.7031 C176.7656,113.7031 175.5156,115.0156 175.5156,116.7969 L175.5156,117.8906 C175.5156,119.5938 176.8125,120.6875 178.8594,120.6875 C179.625,120.6875 180.3125,120.5625 180.7344,120.2969 C180.9219,120.2031 180.9219,120.2031 181.375,119.7188 C181.5625,119.5313 181.7656,119.4531 181.9844,119.4531 C182.4531,119.4531 182.8438,119.8438 182.8438,120.2969 C182.8438,120.6875 182.5156,121.1406 181.9375,121.5469 C181.1875,122.0938 180.0313,122.3906 178.8125,122.3906 C175.9219,122.3906 173.8125,120.5 173.8125,117.9219 L173.8125,116.7969 C173.8125,114.0781 175.8125,112 178.4375,112 C179.3125,112 179.9063,112.1406 180.8438,112.5781 Z "/><text fill="#000000" font-family="sans-serif" font-size="12" lengthAdjust="spacingAndGlyphs" textLength="101" x="192.5" y="121.0605">DocumentWriter</text><line style="stroke: #A80036; stroke-width: 1.5;" x1="164.5" x2="295.5" y1="132.9063" y2="132.9063"/><line style="stroke: #A80036; stroke-width: 1.5;" x1="164.5" x2="295.5" y1="140.9063" y2="140.9063"/><ellipse cx="174.5" cy="151.9063" fill="#84BE84" rx="3" ry="3" style="stroke: #038048; stroke-width: 1.0;"/><text fill="#000000" font-family="sans-serif" font-size="11" lengthAdjust="spacingAndGlyphs" textLength="98" x="183.5" y="155.1167">DocumentWriter()</text><ellipse cx="174.5" cy="164.7109" fill="#84BE84" rx="3" ry="3" style="stroke: #038048; stroke-width: 1.0;"/><text fill="#000000" font-family="sans-serif" font-size="11" lengthAdjust="spacingAndGlyphs" textLength="35" x="183.5" y="167.9214">save()</text><!--MD5=[b68950fc9b1932e294a91346cd769829]
class in.ashwanik.pdp.adapter.FileWriter--><rect fill="#FEFECE" filter="url(#f18rzguczvln0q)" height="60.8047" id="in.ashwanik.pdp.adapter.FileWriter" style="stroke: #A80036; stroke-width: 1.5;" width="90" x="38" y="107.4063"/><ellipse cx="53" cy="123.4063" fill="#ADD1B2" rx="11" ry="11" style="stroke: #A80036; stroke-width: 1.0;"/><path d="M55.3438,119.0781 L55.5156,119.1563 C55.7344,118.8438 55.9375,118.75 56.2344,118.75 C56.5313,118.75 56.8125,118.8906 56.9688,119.1563 C57.0625,119.3125 57.0781,119.4375 57.0781,119.875 L57.0781,121.2969 C57.0781,121.7188 57.0469,121.9063 56.9375,122.0625 C56.7656,122.2813 56.5,122.4219 56.2344,122.4219 C56.0156,122.4219 55.7813,122.3125 55.6406,122.1719 C55.5,122.0469 55.4688,121.9219 55.4063,121.5156 C55.3125,121.1094 55.1406,120.8906 54.6563,120.6094 C54.1875,120.3594 53.5781,120.2031 53,120.2031 C51.2656,120.2031 50.0156,121.5156 50.0156,123.2969 L50.0156,124.3906 C50.0156,126.0938 51.3125,127.1875 53.3594,127.1875 C54.125,127.1875 54.8125,127.0625 55.2344,126.7969 C55.4219,126.7031 55.4219,126.7031 55.875,126.2188 C56.0625,126.0313 56.2656,125.9531 56.4844,125.9531 C56.9531,125.9531 57.3438,126.3438 57.3438,126.7969 C57.3438,127.1875 57.0156,127.6406 56.4375,128.0469 C55.6875,128.5938 54.5313,128.8906 53.3125,128.8906 C50.4219,128.8906 48.3125,127 48.3125,124.4219 L48.3125,123.2969 C48.3125,120.5781 50.3125,118.5 52.9375,118.5 C53.8125,118.5 54.4063,118.6406 55.3438,119.0781 Z "/><text fill="#000000" font-family="sans-serif" font-size="12" lengthAdjust="spacingAndGlyphs" textLength="58" x="67" y="127.5605">FileWriter</text><line style="stroke: #A80036; stroke-width: 1.5;" x1="39" x2="127" y1="139.4063" y2="139.4063"/><line style="stroke: #A80036; stroke-width: 1.5;" x1="39" x2="127" y1="147.4063" y2="147.4063"/><ellipse cx="49" cy="158.4063" fill="#84BE84" rx="3" ry="3" style="stroke: #038048; stroke-width: 1.0;"/><text fill="#000000" font-family="sans-serif" font-size="11" lengthAdjust="spacingAndGlyphs" textLength="36" x="58" y="161.6167">write()</text><!--MD5=[ca8437a24b517aa3828106a16f052cc4]
class in.ashwanik.pdp.adapter.JsonWriter--><rect fill="#FEFECE" filter="url(#f18rzguczvln0q)" height="60.8047" id="in.ashwanik.pdp.adapter.JsonWriter" style="stroke: #A80036; stroke-width: 1.5;" width="96" x="156" y="251.9063"/><ellipse cx="171" cy="267.9063" fill="#B4A7E5" rx="11" ry="11" style="stroke: #A80036; stroke-width: 1.0;"/><path d="M171.9531,264.6875 L171.9531,271.2031 L173.6719,271.2031 C174.125,271.2031 174.2656,271.2344 174.4375,271.3594 C174.6719,271.5313 174.7813,271.7813 174.7813,272.0625 C174.7813,272.625 174.4219,272.9063 173.6719,272.9063 L168.5313,272.9063 C168.125,272.9063 167.9219,272.8594 167.7656,272.7344 C167.5469,272.5781 167.4063,272.3125 167.4063,272.0625 C167.4063,271.7656 167.5625,271.4844 167.8125,271.3281 C167.9688,271.2188 168.0938,271.2031 168.5313,271.2031 L170.25,271.2031 L170.25,264.6875 L168.5313,264.6875 C168.1094,264.6875 167.9219,264.6563 167.7656,264.5469 C167.5469,264.375 167.4063,264.125 167.4063,263.8438 C167.4063,263.5625 167.5625,263.2656 167.8125,263.1094 C167.9688,263.0156 168.0938,263 168.5313,263 L173.6719,263 C174.125,263 174.2656,263.0313 174.4375,263.1406 C174.6719,263.3125 174.7813,263.5781 174.7813,263.8438 C174.7813,264.1406 174.6406,264.4219 174.375,264.5781 C174.25,264.6563 174.0625,264.6875 173.6719,264.6875 Z "/><text fill="#000000" font-family="sans-serif" font-size="12" font-style="italic" lengthAdjust="spacingAndGlyphs" textLength="64" x="185" y="272.0605">JsonWriter</text><line style="stroke: #A80036; stroke-width: 1.5;" x1="157" x2="251" y1="283.9063" y2="283.9063"/><line style="stroke: #A80036; stroke-width: 1.5;" x1="157" x2="251" y1="291.9063" y2="291.9063"/><ellipse cx="167" cy="302.9063" fill="#84BE84" rx="3" ry="3" style="stroke: #038048; stroke-width: 1.0;"/><text fill="#000000" font-family="sans-serif" font-size="11" font-style="italic" lengthAdjust="spacingAndGlyphs" textLength="36" x="176" y="306.1167">write()</text><!--MD5=[b89e95e70e87bfbb3612d994518b2d52]
class in.ashwanik.pdp.adapter.YamlToJsonDocumentAdapter--><rect fill="#FEFECE" filter="url(#f18rzguczvln0q)" height="73.6094" id="in.ashwanik.pdp.adapter.YamlToJsonDocumentAdapter" style="stroke: #A80036; stroke-width: 1.5;" width="216" x="81" y="373.9063"/><ellipse cx="96" cy="389.9063" fill="#ADD1B2" rx="11" ry="11" style="stroke: #A80036; stroke-width: 1.0;"/><path d="M98.3438,385.5781 L98.5156,385.6563 C98.7344,385.3438 98.9375,385.25 99.2344,385.25 C99.5313,385.25 99.8125,385.3906 99.9688,385.6563 C100.0625,385.8125 100.0781,385.9375 100.0781,386.375 L100.0781,387.7969 C100.0781,388.2188 100.0469,388.4063 99.9375,388.5625 C99.7656,388.7813 99.5,388.9219 99.2344,388.9219 C99.0156,388.9219 98.7813,388.8125 98.6406,388.6719 C98.5,388.5469 98.4688,388.4219 98.4063,388.0156 C98.3125,387.6094 98.1406,387.3906 97.6563,387.1094 C97.1875,386.8594 96.5781,386.7031 96,386.7031 C94.2656,386.7031 93.0156,388.0156 93.0156,389.7969 L93.0156,390.8906 C93.0156,392.5938 94.3125,393.6875 96.3594,393.6875 C97.125,393.6875 97.8125,393.5625 98.2344,393.2969 C98.4219,393.2031 98.4219,393.2031 98.875,392.7188 C99.0625,392.5313 99.2656,392.4531 99.4844,392.4531 C99.9531,392.4531 100.3438,392.8438 100.3438,393.2969 C100.3438,393.6875 100.0156,394.1406 99.4375,394.5469 C98.6875,395.0938 97.5313,395.3906 96.3125,395.3906 C93.4219,395.3906 91.3125,393.5 91.3125,390.9219 L91.3125,389.7969 C91.3125,387.0781 93.3125,385 95.9375,385 C96.8125,385 97.4063,385.1406 98.3438,385.5781 Z "/><text fill="#000000" font-family="sans-serif" font-size="12" lengthAdjust="spacingAndGlyphs" textLength="184" x="110" y="394.0605">YamlToJsonDocumentAdapter</text><line style="stroke: #A80036; stroke-width: 1.5;" x1="82" x2="296" y1="405.9063" y2="405.9063"/><line style="stroke: #A80036; stroke-width: 1.5;" x1="82" x2="296" y1="413.9063" y2="413.9063"/><ellipse cx="92" cy="424.9063" fill="#84BE84" rx="3" ry="3" style="stroke: #038048; stroke-width: 1.0;"/><text fill="#000000" font-family="sans-serif" font-size="11" lengthAdjust="spacingAndGlyphs" textLength="175" x="101" y="428.1167">YamlToJsonDocumentAdapter()</text><ellipse cx="92" cy="437.7109" fill="#84BE84" rx="3" ry="3" style="stroke: #038048; stroke-width: 1.0;"/><text fill="#000000" font-family="sans-serif" font-size="11" lengthAdjust="spacingAndGlyphs" textLength="36" x="101" y="440.9214">write()</text><!--MD5=[4dd2cd6ae25f38d6adcc6568f0118bbe]
class in.ashwanik.pdp.adapter.YamlWriter--><rect fill="#FEFECE" filter="url(#f18rzguczvln0q)" height="60.8047" id="in.ashwanik.pdp.adapter.YamlWriter" style="stroke: #A80036; stroke-width: 1.5;" width="99" x="139.5" y="524.9063"/><ellipse cx="154.5" cy="540.9063" fill="#B4A7E5" rx="11" ry="11" style="stroke: #A80036; stroke-width: 1.0;"/><path d="M155.4531,537.6875 L155.4531,544.2031 L157.1719,544.2031 C157.625,544.2031 157.7656,544.2344 157.9375,544.3594 C158.1719,544.5313 158.2813,544.7813 158.2813,545.0625 C158.2813,545.625 157.9219,545.9063 157.1719,545.9063 L152.0313,545.9063 C151.625,545.9063 151.4219,545.8594 151.2656,545.7344 C151.0469,545.5781 150.9063,545.3125 150.9063,545.0625 C150.9063,544.7656 151.0625,544.4844 151.3125,544.3281 C151.4688,544.2188 151.5938,544.2031 152.0313,544.2031 L153.75,544.2031 L153.75,537.6875 L152.0313,537.6875 C151.6094,537.6875 151.4219,537.6563 151.2656,537.5469 C151.0469,537.375 150.9063,537.125 150.9063,536.8438 C150.9063,536.5625 151.0625,536.2656 151.3125,536.1094 C151.4688,536.0156 151.5938,536 152.0313,536 L157.1719,536 C157.625,536 157.7656,536.0313 157.9375,536.1406 C158.1719,536.3125 158.2813,536.5781 158.2813,536.8438 C158.2813,537.1406 158.1406,537.4219 157.875,537.5781 C157.75,537.6563 157.5625,537.6875 157.1719,537.6875 Z "/><text fill="#000000" font-family="sans-serif" font-size="12" font-style="italic" lengthAdjust="spacingAndGlyphs" textLength="67" x="168.5" y="545.0605">YamlWriter</text><line style="stroke: #A80036; stroke-width: 1.5;" x1="140.5" x2="237.5" y1="556.9063" y2="556.9063"/><line style="stroke: #A80036; stroke-width: 1.5;" x1="140.5" x2="237.5" y1="564.9063" y2="564.9063"/><ellipse cx="150.5" cy="575.9063" fill="#84BE84" rx="3" ry="3" style="stroke: #038048; stroke-width: 1.0;"/><text fill="#000000" font-family="sans-serif" font-size="11" font-style="italic" lengthAdjust="spacingAndGlyphs" textLength="36" x="159.5" y="579.1167">write()</text><!--MD5=[6afcb7033095a7a1f474551fa9eb8d0f]
class in.ashwanik.pdp.adapter.YamlWriterImpl--><rect fill="#FEFECE" filter="url(#f18rzguczvln0q)" height="60.8047" id="in.ashwanik.pdp.adapter.YamlWriterImpl" style="stroke: #A80036; stroke-width: 1.5;" width="123" x="127.5" y="646.9063"/><ellipse cx="142.5" cy="662.9063" fill="#ADD1B2" rx="11" ry="11" style="stroke: #A80036; stroke-width: 1.0;"/><path d="M144.8438,658.5781 L145.0156,658.6563 C145.2344,658.3438 145.4375,658.25 145.7344,658.25 C146.0313,658.25 146.3125,658.3906 146.4688,658.6563 C146.5625,658.8125 146.5781,658.9375 146.5781,659.375 L146.5781,660.7969 C146.5781,661.2188 146.5469,661.4063 146.4375,661.5625 C146.2656,661.7813 146,661.9219 145.7344,661.9219 C145.5156,661.9219 145.2813,661.8125 145.1406,661.6719 C145,661.5469 144.9688,661.4219 144.9063,661.0156 C144.8125,660.6094 144.6406,660.3906 144.1563,660.1094 C143.6875,659.8594 143.0781,659.7031 142.5,659.7031 C140.7656,659.7031 139.5156,661.0156 139.5156,662.7969 L139.5156,663.8906 C139.5156,665.5938 140.8125,666.6875 142.8594,666.6875 C143.625,666.6875 144.3125,666.5625 144.7344,666.2969 C144.9219,666.2031 144.9219,666.2031 145.375,665.7188 C145.5625,665.5313 145.7656,665.4531 145.9844,665.4531 C146.4531,665.4531 146.8438,665.8438 146.8438,666.2969 C146.8438,666.6875 146.5156,667.1406 145.9375,667.5469 C145.1875,668.0938 144.0313,668.3906 142.8125,668.3906 C139.9219,668.3906 137.8125,666.5 137.8125,663.9219 L137.8125,662.7969 C137.8125,660.0781 139.8125,658 142.4375,658 C143.3125,658 143.9063,658.1406 144.8438,658.5781 Z "/><text fill="#000000" font-family="sans-serif" font-size="12" lengthAdjust="spacingAndGlyphs" textLength="91" x="156.5" y="667.0605">YamlWriterImpl</text><line style="stroke: #A80036; stroke-width: 1.5;" x1="128.5" x2="249.5" y1="678.9063" y2="678.9063"/><line style="stroke: #A80036; stroke-width: 1.5;" x1="128.5" x2="249.5" y1="686.9063" y2="686.9063"/><ellipse cx="138.5" cy="697.9063" fill="#84BE84" rx="3" ry="3" style="stroke: #038048; stroke-width: 1.0;"/><text fill="#000000" font-family="sans-serif" font-size="11" lengthAdjust="spacingAndGlyphs" textLength="36" x="147.5" y="701.1167">write()</text><!--MD5=[788cdb973fa2dbf6c1ac03aabe5f2f54]
reverse link in.ashwanik.pdp.adapter.DocumentWriter to in.ashwanik.pdp.adapter.JsonWriter--><path d="M220.986,188.3122 C217.122,209.4902 212.737,233.5183 209.391,251.8583 " fill="none" id="in.ashwanik.pdp.adapter.DocumentWriter&lt;-in.ashwanik.pdp.adapter.JsonWriter" style="stroke: #A80036; stroke-width: 1.0;"/><polygon fill="#FFFFFF" points="223.372,175.2333,218.3602,180.418,221.2185,187.0384,226.2303,181.8537,223.372,175.2333" style="stroke: #A80036; stroke-width: 1.0;"/><text fill="#000000" font-family="sans-serif" font-size="13" lengthAdjust="spacingAndGlyphs" textLength="63" x="218" y="217.9731">jsonWriter</text><!--MD5=[c37f8744da49534e79b9a6dbc7ef84e6]
reverse link in.ashwanik.pdp.adapter.JsonWriter to in.ashwanik.pdp.adapter.YamlToJsonDocumentAdapter--><path d="M198.096,333.2003 C196.495,346.7023 194.792,361.0623 193.298,373.6613 " fill="none" id="in.ashwanik.pdp.adapter.JsonWriter&lt;-in.ashwanik.pdp.adapter.YamlToJsonDocumentAdapter" style="stroke: #A80036; stroke-width: 1.0; stroke-dasharray: 7.0,7.0;"/><polygon fill="none" points="191.177,332.1013,200.483,313.0653,205.079,333.7503,191.177,332.1013" style="stroke: #A80036; stroke-width: 1.0;"/><!--MD5=[e9e64a4713c14bc8771c26ac3aed5e48]
reverse link in.ashwanik.pdp.adapter.YamlToJsonDocumentAdapter to in.ashwanik.pdp.adapter.YamlWriter--><path d="M189,461.3123 C189,482.4903 189,506.5182 189,524.8583 " fill="none" id="in.ashwanik.pdp.adapter.YamlToJsonDocumentAdapter&lt;-in.ashwanik.pdp.adapter.YamlWriter" style="stroke: #A80036; stroke-width: 1.0;"/><polygon fill="#FFFFFF" points="189,448.2333,185,454.2333,189,460.2333,193,454.2333,189,448.2333" style="stroke: #A80036; stroke-width: 1.0;"/><text fill="#000000" font-family="sans-serif" font-size="13" lengthAdjust="spacingAndGlyphs" textLength="68" x="190" y="490.9731">yamlWriter</text><!--MD5=[5cea6f4c683d227c1b522dd4e516bc3d]
reverse link in.ashwanik.pdp.adapter.YamlWriter to in.ashwanik.pdp.adapter.YamlWriterImpl--><path d="M189,606.5293 C189,620.1853 189,634.5443 189,646.6687 " fill="none" id="in.ashwanik.pdp.adapter.YamlWriter&lt;-in.ashwanik.pdp.adapter.YamlWriterImpl" style="stroke: #A80036; stroke-width: 1.0; stroke-dasharray: 7.0,7.0;"/><polygon fill="none" points="182,606.0693,189,586.0693,196,606.0693,182,606.0693" style="stroke: #A80036; stroke-width: 1.0;"/><!--MD5=[810273c8d20541d10e6f7bda4abb5ac8]
@startuml
title __ADAPTER__\n

  namespace in.ashwanik.pdp.adapter {
    class in.ashwanik.pdp.adapter.DocumentWriter {
        + DocumentWriter()
        + save()
    }
  }
  

  namespace in.ashwanik.pdp.adapter {
    class in.ashwanik.pdp.adapter.FileWriter {
        + write()
    }
  }
  

  namespace in.ashwanik.pdp.adapter {
    interface in.ashwanik.pdp.adapter.JsonWriter {
        {abstract} + write()
    }
  }
  

  namespace in.ashwanik.pdp.adapter {
    class in.ashwanik.pdp.adapter.YamlToJsonDocumentAdapter {
        + YamlToJsonDocumentAdapter()
        + write()
    }
  }
  

  namespace in.ashwanik.pdp.adapter {
    interface in.ashwanik.pdp.adapter.YamlWriter {
        {abstract} + write()
    }
  }
  

  namespace in.ashwanik.pdp.adapter {
    class in.ashwanik.pdp.adapter.YamlWriterImpl {
        + write()
    }
  }
  

  in.ashwanik.pdp.adapter.DocumentWriter o- - in.ashwanik.pdp.adapter.JsonWriter : jsonWriter
  in.ashwanik.pdp.adapter.YamlToJsonDocumentAdapter .up.|> in.ashwanik.pdp.adapter.JsonWriter
  in.ashwanik.pdp.adapter.YamlToJsonDocumentAdapter o- - in.ashwanik.pdp.adapter.YamlWriter : yamlWriter
  in.ashwanik.pdp.adapter.YamlWriterImpl .up.|> in.ashwanik.pdp.adapter.YamlWriter
@enduml

PlantUML version 1.2019.10(Fri Sep 13 20:53:03 UTC 2019)
(GPL source distribution)
Java Runtime: Java(TM) SE Runtime Environment
JVM: Java HotSpot(TM) 64-Bit Server VM
Java Version: 1.7.0_25-b15
Operating System: Linux
Default Encoding: UTF-8
Language: en
Country: US
--></g></svg>