<?xml version="1.0" encoding="UTF-8" standalone="no"?>
<svg xmlns="http://www.w3.org/2000/svg" xmlns:xlink="http://www.w3.org/1999/xlink" contentScriptType="application/ecmascript" contentStyleType="text/css" height="514px" preserveAspectRatio="none" style="width:857px;height:514px;" version="1.1" viewBox="0 0 857 514" width="857px" zoomAndPan="magnify"><defs><filter height="300%" id="fb1als1lqpduy" width="300%" x="-1" y="-1"><feGaussianBlur result="blurOut" stdDeviation="2.0"/><feColorMatrix in="blurOut" result="blurOut2" type="matrix" values="0 0 0 0 0 0 0 0 0 0 0 0 0 0 0 0 0 0 .4 0"/><feOffset dx="4.0" dy="4.0" in="blurOut2" result="blurOut3"/><feBlend in="SourceGraphic" in2="blurOut3" mode="normal"/></filter></defs><g><text fill="#000000" font-family="sans-serif" font-size="18" lengthAdjust="spacingAndGlyphs" text-decoration="underline" textLength="70" x="399.5" y="16.708">BRIDGE</text><text fill="#000000" font-family="sans-serif" font-size="18" lengthAdjust="spacingAndGlyphs" textLength="0" x="437.5" y="37.6611"/><!--MD5=[b34e66f6286f84aabb06822aeefa85d2]
cluster in.ashwanik.pdp.bridge--><polygon fill="#FFFFFF" filter="url(#fb1als1lqpduy)" points="22,65.9063,212,65.9063,219,88.2031,835,88.2031,835,502.9063,22,502.9063,22,65.9063" style="stroke: #000000; stroke-width: 1.5;"/><line style="stroke: #000000; stroke-width: 1.5;" x1="22" x2="219" y1="88.2031" y2="88.2031"/><text fill="#000000" font-family="sans-serif" font-size="14" font-weight="bold" lengthAdjust="spacingAndGlyphs" textLength="184" x="26" y="80.9014">in.ashwanik.pdp.bridge</text><!--MD5=[b6a5a984fe5350b5b19d74a52519dcbc]
class in.ashwanik.pdp.bridge.BaseEntity--><rect fill="#FEFECE" filter="url(#fb1als1lqpduy)" height="163.2422" id="in.ashwanik.pdp.bridge.BaseEntity" style="stroke: #A80036; stroke-width: 1.5;" width="198" x="38" y="100.9063"/><ellipse cx="99.75" cy="116.9063" fill="#ADD1B2" rx="11" ry="11" style="stroke: #A80036; stroke-width: 1.0;"/><path d="M102.0938,112.5781 L102.2656,112.6563 C102.4844,112.3438 102.6875,112.25 102.9844,112.25 C103.2813,112.25 103.5625,112.3906 103.7188,112.6563 C103.8125,112.8125 103.8281,112.9375 103.8281,113.375 L103.8281,114.7969 C103.8281,115.2188 103.7969,115.4063 103.6875,115.5625 C103.5156,115.7813 103.25,115.9219 102.9844,115.9219 C102.7656,115.9219 102.5313,115.8125 102.3906,115.6719 C102.25,115.5469 102.2188,115.4219 102.1563,115.0156 C102.0625,114.6094 101.8906,114.3906 101.4063,114.1094 C100.9375,113.8594 100.3281,113.7031 99.75,113.7031 C98.0156,113.7031 96.7656,115.0156 96.7656,116.7969 L96.7656,117.8906 C96.7656,119.5938 98.0625,120.6875 100.1094,120.6875 C100.875,120.6875 101.5625,120.5625 101.9844,120.2969 C102.1719,120.2031 102.1719,120.2031 102.625,119.7188 C102.8125,119.5313 103.0156,119.4531 103.2344,119.4531 C103.7031,119.4531 104.0938,119.8438 104.0938,120.2969 C104.0938,120.6875 103.7656,121.1406 103.1875,121.5469 C102.4375,122.0938 101.2813,122.3906 100.0625,122.3906 C97.1719,122.3906 95.0625,120.5 95.0625,117.9219 L95.0625,116.7969 C95.0625,114.0781 97.0625,112 99.6875,112 C100.5625,112 101.1563,112.1406 102.0938,112.5781 Z "/><text fill="#000000" font-family="sans-serif" font-size="12" lengthAdjust="spacingAndGlyphs" textLength="66" x="120.25" y="121.0605">BaseEntity</text><line style="stroke: #A80036; stroke-width: 1.5;" x1="39" x2="235" y1="132.9063" y2="132.9063"/><rect fill="none" height="6" style="stroke: #C82930; stroke-width: 1.0;" width="6" x="46" y="140.9063"/><text fill="#000000" font-family="sans-serif" font-size="11" lengthAdjust="spacingAndGlyphs" textLength="166" x="58" y="147.1167">createdTime : LocalDateTime</text><rect fill="none" height="6" style="stroke: #C82930; stroke-width: 1.0;" width="6" x="46" y="153.7109"/><text fill="#000000" font-family="sans-serif" font-size="11" lengthAdjust="spacingAndGlyphs" textLength="46" x="58" y="159.9214">id : long</text><rect fill="none" height="6" style="stroke: #C82930; stroke-width: 1.0;" width="6" x="46" y="166.5156"/><text fill="#000000" font-family="sans-serif" font-size="11" lengthAdjust="spacingAndGlyphs" textLength="172" x="58" y="172.7261">modifiedTime : LocalDateTime</text><line style="stroke: #A80036; stroke-width: 1.5;" x1="39" x2="235" y1="179.3203" y2="179.3203"/><ellipse cx="49" cy="190.3203" fill="#84BE84" rx="3" ry="3" style="stroke: #038048; stroke-width: 1.0;"/><text fill="#000000" font-family="sans-serif" font-size="11" lengthAdjust="spacingAndGlyphs" textLength="99" x="58" y="193.5308">getCreatedTime()</text><ellipse cx="49" cy="203.125" fill="#84BE84" rx="3" ry="3" style="stroke: #038048; stroke-width: 1.0;"/><text fill="#000000" font-family="sans-serif" font-size="11" lengthAdjust="spacingAndGlyphs" textLength="36" x="58" y="206.3354">getId()</text><ellipse cx="49" cy="215.9297" fill="#84BE84" rx="3" ry="3" style="stroke: #038048; stroke-width: 1.0;"/><text fill="#000000" font-family="sans-serif" font-size="11" lengthAdjust="spacingAndGlyphs" textLength="101" x="58" y="219.1401">getModifiedTime()</text><ellipse cx="49" cy="228.7344" fill="#84BE84" rx="3" ry="3" style="stroke: #038048; stroke-width: 1.0;"/><text fill="#000000" font-family="sans-serif" font-size="11" lengthAdjust="spacingAndGlyphs" textLength="99" x="58" y="231.9448">setCreatedTime()</text><ellipse cx="49" cy="241.5391" fill="#84BE84" rx="3" ry="3" style="stroke: #038048; stroke-width: 1.0;"/><text fill="#000000" font-family="sans-serif" font-size="11" lengthAdjust="spacingAndGlyphs" textLength="36" x="58" y="244.7495">setId()</text><ellipse cx="49" cy="254.3438" fill="#84BE84" rx="3" ry="3" style="stroke: #038048; stroke-width: 1.0;"/><text fill="#000000" font-family="sans-serif" font-size="11" lengthAdjust="spacingAndGlyphs" textLength="101" x="58" y="257.5542">setModifiedTime()</text><!--MD5=[8127578413192b6efb6418a31059bc49]
class in.ashwanik.pdp.bridge.Customer--><rect fill="#FEFECE" filter="url(#fb1als1lqpduy)" height="163.2422" id="in.ashwanik.pdp.bridge.Customer" style="stroke: #A80036; stroke-width: 1.5;" width="128" x="38" y="323.9063"/><ellipse cx="69.2" cy="339.9063" fill="#ADD1B2" rx="11" ry="11" style="stroke: #A80036; stroke-width: 1.0;"/><path d="M71.5438,335.5781 L71.7156,335.6563 C71.9344,335.3438 72.1375,335.25 72.4344,335.25 C72.7313,335.25 73.0125,335.3906 73.1688,335.6563 C73.2625,335.8125 73.2781,335.9375 73.2781,336.375 L73.2781,337.7969 C73.2781,338.2188 73.2469,338.4063 73.1375,338.5625 C72.9656,338.7813 72.7,338.9219 72.4344,338.9219 C72.2156,338.9219 71.9813,338.8125 71.8406,338.6719 C71.7,338.5469 71.6688,338.4219 71.6063,338.0156 C71.5125,337.6094 71.3406,337.3906 70.8563,337.1094 C70.3875,336.8594 69.7781,336.7031 69.2,336.7031 C67.4656,336.7031 66.2156,338.0156 66.2156,339.7969 L66.2156,340.8906 C66.2156,342.5938 67.5125,343.6875 69.5594,343.6875 C70.325,343.6875 71.0125,343.5625 71.4344,343.2969 C71.6219,343.2031 71.6219,343.2031 72.075,342.7188 C72.2625,342.5313 72.4656,342.4531 72.6844,342.4531 C73.1531,342.4531 73.5438,342.8438 73.5438,343.2969 C73.5438,343.6875 73.2156,344.1406 72.6375,344.5469 C71.8875,345.0938 70.7313,345.3906 69.5125,345.3906 C66.6219,345.3906 64.5125,343.5 64.5125,340.9219 L64.5125,339.7969 C64.5125,337.0781 66.5125,335 69.1375,335 C70.0125,335 70.6063,335.1406 71.5438,335.5781 Z "/><text fill="#000000" font-family="sans-serif" font-size="12" lengthAdjust="spacingAndGlyphs" textLength="60" x="86.8" y="344.0605">Customer</text><line style="stroke: #A80036; stroke-width: 1.5;" x1="39" x2="165" y1="355.9063" y2="355.9063"/><rect fill="none" height="6" style="stroke: #C82930; stroke-width: 1.0;" width="6" x="46" y="363.9063"/><text fill="#000000" font-family="sans-serif" font-size="11" lengthAdjust="spacingAndGlyphs" textLength="77" x="58" y="370.1167">email : String</text><rect fill="none" height="6" style="stroke: #C82930; stroke-width: 1.0;" width="6" x="46" y="376.7109"/><text fill="#000000" font-family="sans-serif" font-size="11" lengthAdjust="spacingAndGlyphs" textLength="102" x="58" y="382.9214">firstName : String</text><rect fill="none" height="6" style="stroke: #C82930; stroke-width: 1.0;" width="6" x="46" y="389.5156"/><text fill="#000000" font-family="sans-serif" font-size="11" lengthAdjust="spacingAndGlyphs" textLength="100" x="58" y="395.7261">lastName : String</text><line style="stroke: #A80036; stroke-width: 1.5;" x1="39" x2="165" y1="402.3203" y2="402.3203"/><ellipse cx="49" cy="413.3203" fill="#84BE84" rx="3" ry="3" style="stroke: #038048; stroke-width: 1.0;"/><text fill="#000000" font-family="sans-serif" font-size="11" lengthAdjust="spacingAndGlyphs" textLength="57" x="58" y="416.5308">getEmail()</text><ellipse cx="49" cy="426.125" fill="#84BE84" rx="3" ry="3" style="stroke: #038048; stroke-width: 1.0;"/><text fill="#000000" font-family="sans-serif" font-size="11" lengthAdjust="spacingAndGlyphs" textLength="84" x="58" y="429.3354">getFirstName()</text><ellipse cx="49" cy="438.9297" fill="#84BE84" rx="3" ry="3" style="stroke: #038048; stroke-width: 1.0;"/><text fill="#000000" font-family="sans-serif" font-size="11" lengthAdjust="spacingAndGlyphs" textLength="83" x="58" y="442.1401">getLastName()</text><ellipse cx="49" cy="451.7344" fill="#84BE84" rx="3" ry="3" style="stroke: #038048; stroke-width: 1.0;"/><text fill="#000000" font-family="sans-serif" font-size="11" lengthAdjust="spacingAndGlyphs" textLength="57" x="58" y="454.9448">setEmail()</text><ellipse cx="49" cy="464.5391" fill="#84BE84" rx="3" ry="3" style="stroke: #038048; stroke-width: 1.0;"/><text fill="#000000" font-family="sans-serif" font-size="11" lengthAdjust="spacingAndGlyphs" textLength="84" x="58" y="467.7495">setFirstName()</text><ellipse cx="49" cy="477.3438" fill="#84BE84" rx="3" ry="3" style="stroke: #038048; stroke-width: 1.0;"/><text fill="#000000" font-family="sans-serif" font-size="11" lengthAdjust="spacingAndGlyphs" textLength="83" x="58" y="480.5542">setLastName()</text><!--MD5=[45253618ca29907275cab7b16e28f2db]
class in.ashwanik.pdp.bridge.CustomerRepository--><rect fill="#FEFECE" filter="url(#fb1als1lqpduy)" height="86.4141" id="in.ashwanik.pdp.bridge.CustomerRepository" style="stroke: #A80036; stroke-width: 1.5;" width="157" x="278.5" y="139.4063"/><ellipse cx="293.5" cy="155.4063" fill="#B4A7E5" rx="11" ry="11" style="stroke: #A80036; stroke-width: 1.0;"/><path d="M294.4531,152.1875 L294.4531,158.7031 L296.1719,158.7031 C296.625,158.7031 296.7656,158.7344 296.9375,158.8594 C297.1719,159.0313 297.2813,159.2813 297.2813,159.5625 C297.2813,160.125 296.9219,160.4063 296.1719,160.4063 L291.0313,160.4063 C290.625,160.4063 290.4219,160.3594 290.2656,160.2344 C290.0469,160.0781 289.9063,159.8125 289.9063,159.5625 C289.9063,159.2656 290.0625,158.9844 290.3125,158.8281 C290.4688,158.7188 290.5938,158.7031 291.0313,158.7031 L292.75,158.7031 L292.75,152.1875 L291.0313,152.1875 C290.6094,152.1875 290.4219,152.1563 290.2656,152.0469 C290.0469,151.875 289.9063,151.625 289.9063,151.3438 C289.9063,151.0625 290.0625,150.7656 290.3125,150.6094 C290.4688,150.5156 290.5938,150.5 291.0313,150.5 L296.1719,150.5 C296.625,150.5 296.7656,150.5313 296.9375,150.6406 C297.1719,150.8125 297.2813,151.0781 297.2813,151.3438 C297.2813,151.6406 297.1406,151.9219 296.875,152.0781 C296.75,152.1563 296.5625,152.1875 296.1719,152.1875 Z "/><text fill="#000000" font-family="sans-serif" font-size="12" font-style="italic" lengthAdjust="spacingAndGlyphs" textLength="125" x="307.5" y="159.5605">CustomerRepository</text><line style="stroke: #A80036; stroke-width: 1.5;" x1="279.5" x2="434.5" y1="171.4063" y2="171.4063"/><line style="stroke: #A80036; stroke-width: 1.5;" x1="279.5" x2="434.5" y1="179.4063" y2="179.4063"/><ellipse cx="289.5" cy="190.4063" fill="#84BE84" rx="3" ry="3" style="stroke: #038048; stroke-width: 1.0;"/><text fill="#000000" font-family="sans-serif" font-size="11" font-style="italic" lengthAdjust="spacingAndGlyphs" textLength="44" x="298.5" y="193.6167">create()</text><ellipse cx="289.5" cy="203.2109" fill="#84BE84" rx="3" ry="3" style="stroke: #038048; stroke-width: 1.0;"/><text fill="#000000" font-family="sans-serif" font-size="11" font-style="italic" lengthAdjust="spacingAndGlyphs" textLength="26" x="298.5" y="206.4214">get()</text><ellipse cx="289.5" cy="216.0156" fill="#84BE84" rx="3" ry="3" style="stroke: #038048; stroke-width: 1.0;"/><text fill="#000000" font-family="sans-serif" font-size="11" font-style="italic" lengthAdjust="spacingAndGlyphs" textLength="47" x="298.5" y="219.2261">update()</text><!--MD5=[746fde128aa94c885d1b07c0828bcc8a]
class in.ashwanik.pdp.bridge.CustomerRepositoryImpl--><rect fill="#FEFECE" filter="url(#fb1als1lqpduy)" height="112.0234" id="in.ashwanik.pdp.bridge.CustomerRepositoryImpl" style="stroke: #A80036; stroke-width: 1.5;" width="312" x="201" y="349.4063"/><ellipse cx="277.25" cy="365.4063" fill="#ADD1B2" rx="11" ry="11" style="stroke: #A80036; stroke-width: 1.0;"/><path d="M279.5938,361.0781 L279.7656,361.1563 C279.9844,360.8438 280.1875,360.75 280.4844,360.75 C280.7813,360.75 281.0625,360.8906 281.2188,361.1563 C281.3125,361.3125 281.3281,361.4375 281.3281,361.875 L281.3281,363.2969 C281.3281,363.7188 281.2969,363.9063 281.1875,364.0625 C281.0156,364.2813 280.75,364.4219 280.4844,364.4219 C280.2656,364.4219 280.0313,364.3125 279.8906,364.1719 C279.75,364.0469 279.7188,363.9219 279.6563,363.5156 C279.5625,363.1094 279.3906,362.8906 278.9063,362.6094 C278.4375,362.3594 277.8281,362.2031 277.25,362.2031 C275.5156,362.2031 274.2656,363.5156 274.2656,365.2969 L274.2656,366.3906 C274.2656,368.0938 275.5625,369.1875 277.6094,369.1875 C278.375,369.1875 279.0625,369.0625 279.4844,368.7969 C279.6719,368.7031 279.6719,368.7031 280.125,368.2188 C280.3125,368.0313 280.5156,367.9531 280.7344,367.9531 C281.2031,367.9531 281.5938,368.3438 281.5938,368.7969 C281.5938,369.1875 281.2656,369.6406 280.6875,370.0469 C279.9375,370.5938 278.7813,370.8906 277.5625,370.8906 C274.6719,370.8906 272.5625,369 272.5625,366.4219 L272.5625,365.2969 C272.5625,362.5781 274.5625,360.5 277.1875,360.5 C278.0625,360.5 278.6563,360.6406 279.5938,361.0781 Z "/><text fill="#000000" font-family="sans-serif" font-size="12" lengthAdjust="spacingAndGlyphs" textLength="151" x="297.75" y="369.5605">CustomerRepositoryImpl</text><line style="stroke: #A80036; stroke-width: 1.5;" x1="202" x2="512" y1="381.4063" y2="381.4063"/><rect fill="none" height="6" style="stroke: #C82930; stroke-width: 1.0;" width="6" x="209" y="389.4063"/><text fill="#000000" font-family="sans-serif" font-size="11" lengthAdjust="spacingAndGlyphs" textLength="286" x="221" y="395.6167">customerDataProvider : DataProvider&lt;Customer&gt;</text><line style="stroke: #A80036; stroke-width: 1.5;" x1="202" x2="512" y1="402.2109" y2="402.2109"/><ellipse cx="212" cy="413.2109" fill="#84BE84" rx="3" ry="3" style="stroke: #038048; stroke-width: 1.0;"/><text fill="#000000" font-family="sans-serif" font-size="11" lengthAdjust="spacingAndGlyphs" textLength="44" x="221" y="416.4214">create()</text><ellipse cx="212" cy="426.0156" fill="#84BE84" rx="3" ry="3" style="stroke: #038048; stroke-width: 1.0;"/><text fill="#000000" font-family="sans-serif" font-size="11" lengthAdjust="spacingAndGlyphs" textLength="26" x="221" y="429.2261">get()</text><ellipse cx="212" cy="438.8203" fill="#84BE84" rx="3" ry="3" style="stroke: #038048; stroke-width: 1.0;"/><text fill="#000000" font-family="sans-serif" font-size="11" lengthAdjust="spacingAndGlyphs" textLength="47" x="221" y="442.0308">update()</text><polygon fill="#4177AF" points="212,447.625,208,453.625,216,453.625" style="stroke: #1963A0; stroke-width: 1.0;"/><text fill="#000000" font-family="sans-serif" font-size="11" lengthAdjust="spacingAndGlyphs" textLength="148" x="221" y="454.8354">CustomerRepositoryImpl()</text><!--MD5=[926f7546fc611eecdbd681922707babb]
class in.ashwanik.pdp.bridge.DataProvider--><rect fill="#FEFECE" filter="url(#fb1als1lqpduy)" height="86.4141" id="in.ashwanik.pdp.bridge.DataProvider" style="stroke: #A80036; stroke-width: 1.5;" width="112" x="627" y="139.4063"/><ellipse cx="642" cy="155.4063" fill="#B4A7E5" rx="11" ry="11" style="stroke: #A80036; stroke-width: 1.0;"/><path d="M642.9531,152.1875 L642.9531,158.7031 L644.6719,158.7031 C645.125,158.7031 645.2656,158.7344 645.4375,158.8594 C645.6719,159.0313 645.7813,159.2813 645.7813,159.5625 C645.7813,160.125 645.4219,160.4063 644.6719,160.4063 L639.5313,160.4063 C639.125,160.4063 638.9219,160.3594 638.7656,160.2344 C638.5469,160.0781 638.4063,159.8125 638.4063,159.5625 C638.4063,159.2656 638.5625,158.9844 638.8125,158.8281 C638.9688,158.7188 639.0938,158.7031 639.5313,158.7031 L641.25,158.7031 L641.25,152.1875 L639.5313,152.1875 C639.1094,152.1875 638.9219,152.1563 638.7656,152.0469 C638.5469,151.875 638.4063,151.625 638.4063,151.3438 C638.4063,151.0625 638.5625,150.7656 638.8125,150.6094 C638.9688,150.5156 639.0938,150.5 639.5313,150.5 L644.6719,150.5 C645.125,150.5 645.2656,150.5313 645.4375,150.6406 C645.6719,150.8125 645.7813,151.0781 645.7813,151.3438 C645.7813,151.6406 645.6406,151.9219 645.375,152.0781 C645.25,152.1563 645.0625,152.1875 644.6719,152.1875 Z "/><text fill="#000000" font-family="sans-serif" font-size="12" font-style="italic" lengthAdjust="spacingAndGlyphs" textLength="80" x="656" y="159.5605">DataProvider</text><line style="stroke: #A80036; stroke-width: 1.5;" x1="628" x2="738" y1="171.4063" y2="171.4063"/><line style="stroke: #A80036; stroke-width: 1.5;" x1="628" x2="738" y1="179.4063" y2="179.4063"/><ellipse cx="638" cy="190.4063" fill="#84BE84" rx="3" ry="3" style="stroke: #038048; stroke-width: 1.0;"/><text fill="#000000" font-family="sans-serif" font-size="11" font-style="italic" lengthAdjust="spacingAndGlyphs" textLength="44" x="647" y="193.6167">create()</text><ellipse cx="638" cy="203.2109" fill="#84BE84" rx="3" ry="3" style="stroke: #038048; stroke-width: 1.0;"/><text fill="#000000" font-family="sans-serif" font-size="11" font-style="italic" lengthAdjust="spacingAndGlyphs" textLength="26" x="647" y="206.4214">get()</text><ellipse cx="638" cy="216.0156" fill="#84BE84" rx="3" ry="3" style="stroke: #038048; stroke-width: 1.0;"/><text fill="#000000" font-family="sans-serif" font-size="11" font-style="italic" lengthAdjust="spacingAndGlyphs" textLength="47" x="647" y="219.2261">update()</text><!--MD5=[d001eda6bc035fd5c5157948da8ae615]
class in.ashwanik.pdp.bridge.MySqlProvider--><rect fill="#FEFECE" filter="url(#fb1als1lqpduy)" height="86.4141" id="in.ashwanik.pdp.bridge.MySqlProvider" style="stroke: #A80036; stroke-width: 1.5;" width="118" x="548" y="362.4063"/><ellipse cx="563" cy="378.4063" fill="#ADD1B2" rx="11" ry="11" style="stroke: #A80036; stroke-width: 1.0;"/><path d="M565.3438,374.0781 L565.5156,374.1563 C565.7344,373.8438 565.9375,373.75 566.2344,373.75 C566.5313,373.75 566.8125,373.8906 566.9688,374.1563 C567.0625,374.3125 567.0781,374.4375 567.0781,374.875 L567.0781,376.2969 C567.0781,376.7188 567.0469,376.9063 566.9375,377.0625 C566.7656,377.2813 566.5,377.4219 566.2344,377.4219 C566.0156,377.4219 565.7813,377.3125 565.6406,377.1719 C565.5,377.0469 565.4688,376.9219 565.4063,376.5156 C565.3125,376.1094 565.1406,375.8906 564.6563,375.6094 C564.1875,375.3594 563.5781,375.2031 563,375.2031 C561.2656,375.2031 560.0156,376.5156 560.0156,378.2969 L560.0156,379.3906 C560.0156,381.0938 561.3125,382.1875 563.3594,382.1875 C564.125,382.1875 564.8125,382.0625 565.2344,381.7969 C565.4219,381.7031 565.4219,381.7031 565.875,381.2188 C566.0625,381.0313 566.2656,380.9531 566.4844,380.9531 C566.9531,380.9531 567.3438,381.3438 567.3438,381.7969 C567.3438,382.1875 567.0156,382.6406 566.4375,383.0469 C565.6875,383.5938 564.5313,383.8906 563.3125,383.8906 C560.4219,383.8906 558.3125,382 558.3125,379.4219 L558.3125,378.2969 C558.3125,375.5781 560.3125,373.5 562.9375,373.5 C563.8125,373.5 564.4063,373.6406 565.3438,374.0781 Z "/><text fill="#000000" font-family="sans-serif" font-size="12" lengthAdjust="spacingAndGlyphs" textLength="86" x="577" y="382.5605">MySqlProvider</text><line style="stroke: #A80036; stroke-width: 1.5;" x1="549" x2="665" y1="394.4063" y2="394.4063"/><line style="stroke: #A80036; stroke-width: 1.5;" x1="549" x2="665" y1="402.4063" y2="402.4063"/><ellipse cx="559" cy="413.4063" fill="#84BE84" rx="3" ry="3" style="stroke: #038048; stroke-width: 1.0;"/><text fill="#000000" font-family="sans-serif" font-size="11" lengthAdjust="spacingAndGlyphs" textLength="44" x="568" y="416.6167">create()</text><ellipse cx="559" cy="426.2109" fill="#84BE84" rx="3" ry="3" style="stroke: #038048; stroke-width: 1.0;"/><text fill="#000000" font-family="sans-serif" font-size="11" lengthAdjust="spacingAndGlyphs" textLength="26" x="568" y="429.4214">get()</text><ellipse cx="559" cy="439.0156" fill="#84BE84" rx="3" ry="3" style="stroke: #038048; stroke-width: 1.0;"/><text fill="#000000" font-family="sans-serif" font-size="11" lengthAdjust="spacingAndGlyphs" textLength="47" x="568" y="442.2261">update()</text><!--MD5=[288de996e39828396ed2df2bb8e3d2b0]
class in.ashwanik.pdp.bridge.RedisProvider--><rect fill="#FEFECE" filter="url(#fb1als1lqpduy)" height="86.4141" id="in.ashwanik.pdp.bridge.RedisProvider" style="stroke: #A80036; stroke-width: 1.5;" width="117" x="701.5" y="362.4063"/><ellipse cx="716.5" cy="378.4063" fill="#ADD1B2" rx="11" ry="11" style="stroke: #A80036; stroke-width: 1.0;"/><path d="M718.8438,374.0781 L719.0156,374.1563 C719.2344,373.8438 719.4375,373.75 719.7344,373.75 C720.0313,373.75 720.3125,373.8906 720.4688,374.1563 C720.5625,374.3125 720.5781,374.4375 720.5781,374.875 L720.5781,376.2969 C720.5781,376.7188 720.5469,376.9063 720.4375,377.0625 C720.2656,377.2813 720,377.4219 719.7344,377.4219 C719.5156,377.4219 719.2813,377.3125 719.1406,377.1719 C719,377.0469 718.9688,376.9219 718.9063,376.5156 C718.8125,376.1094 718.6406,375.8906 718.1563,375.6094 C717.6875,375.3594 717.0781,375.2031 716.5,375.2031 C714.7656,375.2031 713.5156,376.5156 713.5156,378.2969 L713.5156,379.3906 C713.5156,381.0938 714.8125,382.1875 716.8594,382.1875 C717.625,382.1875 718.3125,382.0625 718.7344,381.7969 C718.9219,381.7031 718.9219,381.7031 719.375,381.2188 C719.5625,381.0313 719.7656,380.9531 719.9844,380.9531 C720.4531,380.9531 720.8438,381.3438 720.8438,381.7969 C720.8438,382.1875 720.5156,382.6406 719.9375,383.0469 C719.1875,383.5938 718.0313,383.8906 716.8125,383.8906 C713.9219,383.8906 711.8125,382 711.8125,379.4219 L711.8125,378.2969 C711.8125,375.5781 713.8125,373.5 716.4375,373.5 C717.3125,373.5 717.9063,373.6406 718.8438,374.0781 Z "/><text fill="#000000" font-family="sans-serif" font-size="12" lengthAdjust="spacingAndGlyphs" textLength="85" x="730.5" y="382.5605">RedisProvider</text><line style="stroke: #A80036; stroke-width: 1.5;" x1="702.5" x2="817.5" y1="394.4063" y2="394.4063"/><line style="stroke: #A80036; stroke-width: 1.5;" x1="702.5" x2="817.5" y1="402.4063" y2="402.4063"/><ellipse cx="712.5" cy="413.4063" fill="#84BE84" rx="3" ry="3" style="stroke: #038048; stroke-width: 1.0;"/><text fill="#000000" font-family="sans-serif" font-size="11" lengthAdjust="spacingAndGlyphs" textLength="44" x="721.5" y="416.6167">create()</text><ellipse cx="712.5" cy="426.2109" fill="#84BE84" rx="3" ry="3" style="stroke: #038048; stroke-width: 1.0;"/><text fill="#000000" font-family="sans-serif" font-size="11" lengthAdjust="spacingAndGlyphs" textLength="26" x="721.5" y="429.4214">get()</text><ellipse cx="712.5" cy="439.0156" fill="#84BE84" rx="3" ry="3" style="stroke: #038048; stroke-width: 1.0;"/><text fill="#000000" font-family="sans-serif" font-size="11" lengthAdjust="spacingAndGlyphs" textLength="47" x="721.5" y="442.2261">update()</text><!--MD5=[b55772a659d60834d5cca79db6c03aeb]
reverse link in.ashwanik.pdp.bridge.BaseEntity to in.ashwanik.pdp.bridge.Customer--><path d="M121.051,284.1153 C118.939,297.4473 116.798,310.9702 114.75,323.9013 " fill="none" id="in.ashwanik.pdp.bridge.BaseEntity&lt;-in.ashwanik.pdp.bridge.Customer" style="stroke: #A80036; stroke-width: 1.0;"/><polygon fill="none" points="114.173,282.7893,124.216,264.1303,128.001,284.9793,114.173,282.7893" style="stroke: #A80036; stroke-width: 1.0;"/><!--MD5=[b0fe05804d6af4c2a105121d388c88ae]
reverse link in.ashwanik.pdp.bridge.CustomerRepository to in.ashwanik.pdp.bridge.CustomerRepositoryImpl--><path d="M357,245.7083 C357,278.2243 357,317.6653 357,349.0933 " fill="none" id="in.ashwanik.pdp.bridge.CustomerRepository&lt;-in.ashwanik.pdp.bridge.CustomerRepositoryImpl" style="stroke: #A80036; stroke-width: 1.0; stroke-dasharray: 7.0,7.0;"/><polygon fill="none" points="350,245.4953,357,225.4953,364,245.4953,350,245.4953" style="stroke: #A80036; stroke-width: 1.0;"/><!--MD5=[66c5ced1bc57b97bc0df8061e5d16ee8]
reverse link in.ashwanik.pdp.bridge.DataProvider to in.ashwanik.pdp.bridge.MySqlProvider--><path d="M661.958,244.5953 C649.105,281.9693 632.996,328.8113 621.549,362.0983 " fill="none" id="in.ashwanik.pdp.bridge.DataProvider&lt;-in.ashwanik.pdp.bridge.MySqlProvider" style="stroke: #A80036; stroke-width: 1.0; stroke-dasharray: 7.0,7.0;"/><polygon fill="none" points="655.403,242.1313,668.526,225.4953,668.642,246.6843,655.403,242.1313" style="stroke: #A80036; stroke-width: 1.0;"/><!--MD5=[ea3e3e2b54a7b59f3242d97ae6b2130b]
reverse link in.ashwanik.pdp.bridge.DataProvider to in.ashwanik.pdp.bridge.RedisProvider--><path d="M704.319,244.5953 C717.341,281.9693 733.662,328.8113 745.259,362.0983 " fill="none" id="in.ashwanik.pdp.bridge.DataProvider&lt;-in.ashwanik.pdp.bridge.RedisProvider" style="stroke: #A80036; stroke-width: 1.0; stroke-dasharray: 7.0,7.0;"/><polygon fill="none" points="697.635,246.6843,697.664,225.4953,710.855,242.0783,697.635,246.6843" style="stroke: #A80036; stroke-width: 1.0;"/><!--MD5=[1704ab27ed81e334f97882b1f91d8757]
@startuml
title __BRIDGE__\n

  namespace in.ashwanik.pdp.bridge {
    class in.ashwanik.pdp.bridge.BaseEntity {
        - createdTime : LocalDateTime
        - id : long
        - modifiedTime : LocalDateTime
        + getCreatedTime()
        + getId()
        + getModifiedTime()
        + setCreatedTime()
        + setId()
        + setModifiedTime()
    }
  }
  

  namespace in.ashwanik.pdp.bridge {
    class in.ashwanik.pdp.bridge.Customer {
        - email : String
        - firstName : String
        - lastName : String
        + getEmail()
        + getFirstName()
        + getLastName()
        + setEmail()
        + setFirstName()
        + setLastName()
    }
  }
  

  namespace in.ashwanik.pdp.bridge {
    interface in.ashwanik.pdp.bridge.CustomerRepository {
        {abstract} + create()
        {abstract} + get()
        {abstract} + update()
    }
  }
  

  namespace in.ashwanik.pdp.bridge {
    class in.ashwanik.pdp.bridge.CustomerRepositoryImpl {
        - customerDataProvider : DataProvider<Customer>
        + create()
        + get()
        + update()
        ~ CustomerRepositoryImpl()
    }
  }
  

  namespace in.ashwanik.pdp.bridge {
    interface in.ashwanik.pdp.bridge.DataProvider {
        {abstract} + create()
        {abstract} + get()
        {abstract} + update()
    }
  }
  

  namespace in.ashwanik.pdp.bridge {
    class in.ashwanik.pdp.bridge.MySqlProvider {
        + create()
        + get()
        + update()
    }
  }
  

  namespace in.ashwanik.pdp.bridge {
    class in.ashwanik.pdp.bridge.RedisProvider {
        + create()
        + get()
        + update()
    }
  }
  

  in.ashwanik.pdp.bridge.Customer -up-|> in.ashwanik.pdp.bridge.BaseEntity
  in.ashwanik.pdp.bridge.CustomerRepositoryImpl .up.|> in.ashwanik.pdp.bridge.CustomerRepository
  in.ashwanik.pdp.bridge.MySqlProvider .up.|> in.ashwanik.pdp.bridge.DataProvider
  in.ashwanik.pdp.bridge.RedisProvider .up.|> in.ashwanik.pdp.bridge.DataProvider
@enduml

PlantUML version 1.2019.11(Sun Sep 22 10:02:15 UTC 2019)
(GPL source distribution)
Java Runtime: Java(TM) SE Runtime Environment
JVM: Java HotSpot(TM) 64-Bit Server VM
Java Version: 1.7.0_25-b15
Operating System: Linux
Default Encoding: UTF-8
Language: en
Country: US
--></g></svg>