<?xml version="1.0" encoding="UTF-8" standalone="no"?>
<svg xmlns="http://www.w3.org/2000/svg" xmlns:xlink="http://www.w3.org/1999/xlink" contentScriptType="application/ecmascript" contentStyleType="text/css" height="782px" preserveAspectRatio="none" style="width:822px;height:782px;" version="1.1" viewBox="0 0 822 782" width="822px" zoomAndPan="magnify"><defs><filter height="300%" id="f1y0zmb08dhxc6" width="300%" x="-1" y="-1"><feGaussianBlur result="blurOut" stdDeviation="2.0"/><feColorMatrix in="blurOut" result="blurOut2" type="matrix" values="0 0 0 0 0 0 0 0 0 0 0 0 0 0 0 0 0 0 .4 0"/><feOffset dx="4.0" dy="4.0" in="blurOut2" result="blurOut3"/><feBlend in="SourceGraphic" in2="blurOut3" mode="normal"/></filter></defs><g><text fill="#000000" font-family="sans-serif" font-size="18" lengthAdjust="spacingAndGlyphs" text-decoration="underline" textLength="84" x="375" y="16.708">BUILDER'</text><text fill="#000000" font-family="sans-serif" font-size="18" lengthAdjust="spacingAndGlyphs" textLength="0" x="420" y="37.6611"/><!--cluster in.ashwanik.pdp.builder--><polygon fill="#FFFFFF" filter="url(#f1y0zmb08dhxc6)" points="22,65.9063,216,65.9063,223,88.2031,324,88.2031,324,622.9063,22,622.9063,22,65.9063" style="stroke: #000000; stroke-width: 1.5;"/><line style="stroke: #000000; stroke-width: 1.5;" x1="22" x2="223" y1="88.2031" y2="88.2031"/><text fill="#000000" font-family="sans-serif" font-size="14" font-weight="bold" lengthAdjust="spacingAndGlyphs" textLength="188" x="26" y="80.9014">in.ashwanik.pdp.builder</text><!--cluster in.ashwanik.pdp.common.githubjobs--><polygon fill="#FFFFFF" filter="url(#f1y0zmb08dhxc6)" points="191,671.9063,485,671.9063,492,694.2031,495,694.2031,495,770.9063,191,770.9063,191,671.9063" style="stroke: #000000; stroke-width: 1.5;"/><line style="stroke: #000000; stroke-width: 1.5;" x1="191" x2="492" y1="694.2031" y2="694.2031"/><text fill="#000000" font-family="sans-serif" font-size="14" font-weight="bold" lengthAdjust="spacingAndGlyphs" textLength="288" x="195" y="686.9014">in.ashwanik.pdp.common.githubjobs</text><!--cluster in.ashwanik.pdp.common.http--><polygon fill="#FFFFFF" filter="url(#f1y0zmb08dhxc6)" points="547,389.4063,790,389.4063,797,411.7031,800,411.7031,800,488.4063,547,488.4063,547,389.4063" style="stroke: #000000; stroke-width: 1.5;"/><line style="stroke: #000000; stroke-width: 1.5;" x1="547" x2="797" y1="411.7031" y2="411.7031"/><text fill="#000000" font-family="sans-serif" font-size="14" font-weight="bold" lengthAdjust="spacingAndGlyphs" textLength="237" x="551" y="404.4014">in.ashwanik.pdp.common.http</text><!--class in.ashwanik.pdp.builder.GithubJobClient--><rect fill="#FEFECE" filter="url(#f1y0zmb08dhxc6)" height="112.0234" id="in.ashwanik.pdp.builder.GithubJobClient" style="stroke: #A80036; stroke-width: 1.5;" width="183" x="124.5" y="100.9063"/><ellipse cx="164.7" cy="116.9063" fill="#ADD1B2" rx="11" ry="11" style="stroke: #A80036; stroke-width: 1.0;"/><path d="M167.0438,112.5781 L167.2156,112.6563 C167.4344,112.3438 167.6375,112.25 167.9344,112.25 C168.2313,112.25 168.5125,112.3906 168.6688,112.6563 C168.7625,112.8125 168.7781,112.9375 168.7781,113.375 L168.7781,114.7969 C168.7781,115.2188 168.7469,115.4063 168.6375,115.5625 C168.4656,115.7813 168.2,115.9219 167.9344,115.9219 C167.7156,115.9219 167.4813,115.8125 167.3406,115.6719 C167.2,115.5469 167.1688,115.4219 167.1063,115.0156 C167.0125,114.6094 166.8406,114.3906 166.3563,114.1094 C165.8875,113.8594 165.2781,113.7031 164.7,113.7031 C162.9656,113.7031 161.7156,115.0156 161.7156,116.7969 L161.7156,117.8906 C161.7156,119.5938 163.0125,120.6875 165.0594,120.6875 C165.825,120.6875 166.5125,120.5625 166.9344,120.2969 C167.1219,120.2031 167.1219,120.2031 167.575,119.7188 C167.7625,119.5313 167.9656,119.4531 168.1844,119.4531 C168.6531,119.4531 169.0438,119.8438 169.0438,120.2969 C169.0438,120.6875 168.7156,121.1406 168.1375,121.5469 C167.3875,122.0938 166.2313,122.3906 165.0125,122.3906 C162.1219,122.3906 160.0125,120.5 160.0125,117.9219 L160.0125,116.7969 C160.0125,114.0781 162.0125,112 164.6375,112 C165.5125,112 166.1063,112.1406 167.0438,112.5781 Z "/><text fill="#000000" font-family="sans-serif" font-size="12" lengthAdjust="spacingAndGlyphs" textLength="95" x="184.3" y="121.0605">GithubJobClient</text><line style="stroke: #A80036; stroke-width: 1.5;" x1="125.5" x2="306.5" y1="132.9063" y2="132.9063"/><polygon fill="none" points="135.5,139.9063,131.5,145.9063,139.5,145.9063" style="stroke: #1963A0; stroke-width: 1.0;"/><text fill="#000000" font-family="sans-serif" font-size="11" lengthAdjust="spacingAndGlyphs" text-decoration="underline" textLength="157" x="144.5" y="147.1167">DEFAULT_TIMEOUT : Integer</text><rect fill="none" height="6" style="stroke: #C82930; stroke-width: 1.0;" width="6" x="132.5" y="153.7109"/><text fill="#000000" font-family="sans-serif" font-size="11" lengthAdjust="spacingAndGlyphs" textLength="90" x="144.5" y="159.9214">baseUrl : String</text><line style="stroke: #A80036; stroke-width: 1.5;" x1="125.5" x2="306.5" y1="166.5156" y2="166.5156"/><ellipse cx="135.5" cy="177.5156" fill="#84BE84" rx="3" ry="3" style="stroke: #038048; stroke-width: 1.0;"/><text fill="#000000" font-family="sans-serif" font-size="11" lengthAdjust="spacingAndGlyphs" text-decoration="underline" textLength="47" x="144.5" y="180.7261">builder()</text><ellipse cx="135.5" cy="190.3203" fill="#84BE84" rx="3" ry="3" style="stroke: #038048; stroke-width: 1.0;"/><text fill="#000000" font-family="sans-serif" font-size="11" lengthAdjust="spacingAndGlyphs" textLength="50" x="144.5" y="193.5308">getJobs()</text><rect fill="#F24D5C" height="6" style="stroke: #C82930; stroke-width: 1.0;" width="6" x="132.5" y="200.125"/><text fill="#000000" font-family="sans-serif" font-size="11" lengthAdjust="spacingAndGlyphs" textLength="94" x="144.5" y="206.3354">GithubJobClient()</text><!--class in.ashwanik.pdp.builder.GithubJobClient.GithubJobClientBuilder--><rect fill="#FEFECE" filter="url(#f1y0zmb08dhxc6)" height="316.8984" id="in.ashwanik.pdp.builder.GithubJobClient.GithubJobClientBuilder" style="stroke: #A80036; stroke-width: 1.5;" width="269" x="38.5" y="289.9063"/><ellipse cx="53.5" cy="305.9063" fill="#ADD1B2" rx="11" ry="11" style="stroke: #A80036; stroke-width: 1.0;"/><path d="M55.8438,301.5781 L56.0156,301.6563 C56.2344,301.3438 56.4375,301.25 56.7344,301.25 C57.0313,301.25 57.3125,301.3906 57.4688,301.6563 C57.5625,301.8125 57.5781,301.9375 57.5781,302.375 L57.5781,303.7969 C57.5781,304.2188 57.5469,304.4063 57.4375,304.5625 C57.2656,304.7813 57,304.9219 56.7344,304.9219 C56.5156,304.9219 56.2813,304.8125 56.1406,304.6719 C56,304.5469 55.9688,304.4219 55.9063,304.0156 C55.8125,303.6094 55.6406,303.3906 55.1563,303.1094 C54.6875,302.8594 54.0781,302.7031 53.5,302.7031 C51.7656,302.7031 50.5156,304.0156 50.5156,305.7969 L50.5156,306.8906 C50.5156,308.5938 51.8125,309.6875 53.8594,309.6875 C54.625,309.6875 55.3125,309.5625 55.7344,309.2969 C55.9219,309.2031 55.9219,309.2031 56.375,308.7188 C56.5625,308.5313 56.7656,308.4531 56.9844,308.4531 C57.4531,308.4531 57.8438,308.8438 57.8438,309.2969 C57.8438,309.6875 57.5156,310.1406 56.9375,310.5469 C56.1875,311.0938 55.0313,311.3906 53.8125,311.3906 C50.9219,311.3906 48.8125,309.5 48.8125,306.9219 L48.8125,305.7969 C48.8125,303.0781 50.8125,301 53.4375,301 C54.3125,301 54.9063,301.1406 55.8438,301.5781 Z "/><text fill="#000000" font-family="sans-serif" font-size="12" lengthAdjust="spacingAndGlyphs" textLength="237" x="67.5" y="310.0605">GithubJobClient.GithubJobClientBuilder</text><line style="stroke: #A80036; stroke-width: 1.5;" x1="39.5" x2="306.5" y1="321.9063" y2="321.9063"/><rect fill="none" height="6" style="stroke: #C82930; stroke-width: 1.0;" width="6" x="46.5" y="329.9063"/><text fill="#000000" font-family="sans-serif" font-size="11" lengthAdjust="spacingAndGlyphs" text-decoration="underline" textLength="90" x="58.5" y="336.1167">POOL_SIZE : int</text><rect fill="none" height="6" style="stroke: #C82930; stroke-width: 1.0;" width="6" x="46.5" y="342.7109"/><text fill="#000000" font-family="sans-serif" font-size="11" lengthAdjust="spacingAndGlyphs" text-decoration="underline" textLength="76" x="58.5" y="348.9214">TIMEOUT : int</text><rect fill="none" height="6" style="stroke: #C82930; stroke-width: 1.0;" width="6" x="46.5" y="355.5156"/><text fill="#000000" font-family="sans-serif" font-size="11" lengthAdjust="spacingAndGlyphs" textLength="90" x="58.5" y="361.7261">baseUrl : String</text><rect fill="none" height="6" style="stroke: #C82930; stroke-width: 1.0;" width="6" x="46.5" y="368.3203"/><text fill="#000000" font-family="sans-serif" font-size="11" lengthAdjust="spacingAndGlyphs" textLength="142" x="58.5" y="374.5308">connectTimeout : Integer</text><rect fill="none" height="6" style="stroke: #C82930; stroke-width: 1.0;" width="6" x="46.5" y="381.125"/><text fill="#000000" font-family="sans-serif" font-size="11" lengthAdjust="spacingAndGlyphs" textLength="136" x="58.5" y="387.3354">httpClient : OkHttpClient</text><rect fill="none" height="6" style="stroke: #C82930; stroke-width: 1.0;" width="6" x="46.5" y="393.9297"/><text fill="#000000" font-family="sans-serif" font-size="11" lengthAdjust="spacingAndGlyphs" textLength="216" x="58.5" y="400.1401">httpClientConnectionPoolSize : Integer</text><rect fill="none" height="6" style="stroke: #C82930; stroke-width: 1.0;" width="6" x="46.5" y="406.7344"/><text fill="#000000" font-family="sans-serif" font-size="11" lengthAdjust="spacingAndGlyphs" textLength="124" x="58.5" y="412.9448">readTimeout : Integer</text><rect fill="none" height="6" style="stroke: #C82930; stroke-width: 1.0;" width="6" x="46.5" y="419.5391"/><text fill="#000000" font-family="sans-serif" font-size="11" lengthAdjust="spacingAndGlyphs" textLength="126" x="58.5" y="425.7495">writeTimeout : Integer</text><line style="stroke: #A80036; stroke-width: 1.5;" x1="39.5" x2="306.5" y1="432.3438" y2="432.3438"/><ellipse cx="49.5" cy="443.3438" fill="#84BE84" rx="3" ry="3" style="stroke: #038048; stroke-width: 1.0;"/><text fill="#000000" font-family="sans-serif" font-size="11" lengthAdjust="spacingAndGlyphs" textLength="52" x="58.5" y="446.5542">baseUrl()</text><ellipse cx="49.5" cy="456.1484" fill="#84BE84" rx="3" ry="3" style="stroke: #038048; stroke-width: 1.0;"/><text fill="#000000" font-family="sans-serif" font-size="11" lengthAdjust="spacingAndGlyphs" textLength="35" x="58.5" y="459.3589">build()</text><ellipse cx="49.5" cy="468.9531" fill="#84BE84" rx="3" ry="3" style="stroke: #038048; stroke-width: 1.0;"/><text fill="#000000" font-family="sans-serif" font-size="11" lengthAdjust="spacingAndGlyphs" textLength="86" x="58.5" y="472.1636">clientContract()</text><ellipse cx="49.5" cy="481.7578" fill="#84BE84" rx="3" ry="3" style="stroke: #038048; stroke-width: 1.0;"/><text fill="#000000" font-family="sans-serif" font-size="11" lengthAdjust="spacingAndGlyphs" textLength="98" x="58.5" y="484.9683">connectTimeout()</text><ellipse cx="49.5" cy="494.5625" fill="#84BE84" rx="3" ry="3" style="stroke: #038048; stroke-width: 1.0;"/><text fill="#000000" font-family="sans-serif" font-size="11" lengthAdjust="spacingAndGlyphs" textLength="62" x="58.5" y="497.7729">httpClient()</text><ellipse cx="49.5" cy="507.3672" fill="#84BE84" rx="3" ry="3" style="stroke: #038048; stroke-width: 1.0;"/><text fill="#000000" font-family="sans-serif" font-size="11" lengthAdjust="spacingAndGlyphs" textLength="172" x="58.5" y="510.5776">httpClientConnectionPoolSize()</text><ellipse cx="49.5" cy="520.1719" fill="#84BE84" rx="3" ry="3" style="stroke: #038048; stroke-width: 1.0;"/><text fill="#000000" font-family="sans-serif" font-size="11" lengthAdjust="spacingAndGlyphs" textLength="80" x="58.5" y="523.3823">readTimeout()</text><ellipse cx="49.5" cy="532.9766" fill="#84BE84" rx="3" ry="3" style="stroke: #038048; stroke-width: 1.0;"/><text fill="#000000" font-family="sans-serif" font-size="11" lengthAdjust="spacingAndGlyphs" textLength="82" x="58.5" y="536.187">writeTimeout()</text><rect fill="#F24D5C" height="6" style="stroke: #C82930; stroke-width: 1.0;" width="6" x="46.5" y="542.7813"/><text fill="#000000" font-family="sans-serif" font-size="11" lengthAdjust="spacingAndGlyphs" textLength="134" x="58.5" y="548.9917">GithubJobClientBuilder()</text><rect fill="#F24D5C" height="6" style="stroke: #C82930; stroke-width: 1.0;" width="6" x="46.5" y="555.5859"/><text fill="#000000" font-family="sans-serif" font-size="11" lengthAdjust="spacingAndGlyphs" textLength="90" x="58.5" y="561.7964">buildHttpClient()</text><rect fill="#F24D5C" height="6" style="stroke: #C82930; stroke-width: 1.0;" width="6" x="46.5" y="568.3906"/><text fill="#000000" font-family="sans-serif" font-size="11" lengthAdjust="spacingAndGlyphs" textLength="117" x="58.5" y="574.6011">isClientPropertySet()</text><rect fill="#F24D5C" height="6" style="stroke: #C82930; stroke-width: 1.0;" width="6" x="46.5" y="581.1953"/><text fill="#000000" font-family="sans-serif" font-size="11" lengthAdjust="spacingAndGlyphs" textLength="128" x="58.5" y="587.4058">setHttpClientDefaults()</text><rect fill="#F24D5C" height="6" style="stroke: #C82930; stroke-width: 1.0;" width="6" x="46.5" y="594"/><text fill="#000000" font-family="sans-serif" font-size="11" lengthAdjust="spacingAndGlyphs" textLength="52" x="58.5" y="600.2104">validate()</text><!--class in.ashwanik.pdp.common.githubjobs.GithubJobClientContract--><rect fill="#FEFECE" filter="url(#f1y0zmb08dhxc6)" height="48" id="in.ashwanik.pdp.common.githubjobs.GithubJobClientContract" style="stroke: #A80036; stroke-width: 1.5;" width="181" x="229.5" y="706.9063"/><ellipse cx="244.5" cy="722.9063" fill="#ADD1B2" rx="11" ry="11" style="stroke: #A80036; stroke-width: 1.0;"/><path d="M246.8438,718.5781 L247.0156,718.6563 C247.2344,718.3438 247.4375,718.25 247.7344,718.25 C248.0313,718.25 248.3125,718.3906 248.4688,718.6563 C248.5625,718.8125 248.5781,718.9375 248.5781,719.375 L248.5781,720.7969 C248.5781,721.2188 248.5469,721.4063 248.4375,721.5625 C248.2656,721.7813 248,721.9219 247.7344,721.9219 C247.5156,721.9219 247.2813,721.8125 247.1406,721.6719 C247,721.5469 246.9688,721.4219 246.9063,721.0156 C246.8125,720.6094 246.6406,720.3906 246.1563,720.1094 C245.6875,719.8594 245.0781,719.7031 244.5,719.7031 C242.7656,719.7031 241.5156,721.0156 241.5156,722.7969 L241.5156,723.8906 C241.5156,725.5938 242.8125,726.6875 244.8594,726.6875 C245.625,726.6875 246.3125,726.5625 246.7344,726.2969 C246.9219,726.2031 246.9219,726.2031 247.375,725.7188 C247.5625,725.5313 247.7656,725.4531 247.9844,725.4531 C248.4531,725.4531 248.8438,725.8438 248.8438,726.2969 C248.8438,726.6875 248.5156,727.1406 247.9375,727.5469 C247.1875,728.0938 246.0313,728.3906 244.8125,728.3906 C241.9219,728.3906 239.8125,726.5 239.8125,723.9219 L239.8125,722.7969 C239.8125,720.0781 241.8125,718 244.4375,718 C245.3125,718 245.9063,718.1406 246.8438,718.5781 Z "/><text fill="#000000" font-family="sans-serif" font-size="12" lengthAdjust="spacingAndGlyphs" textLength="149" x="258.5" y="727.0605">GithubJobClientContract</text><line style="stroke: #A80036; stroke-width: 1.5;" x1="230.5" x2="409.5" y1="738.9063" y2="738.9063"/><line style="stroke: #A80036; stroke-width: 1.5;" x1="230.5" x2="409.5" y1="746.9063" y2="746.9063"/><!--class in.ashwanik.pdp.common.http.RestClient--><rect fill="#FEFECE" filter="url(#f1y0zmb08dhxc6)" height="48" id="in.ashwanik.pdp.common.http.RestClient" style="stroke: #A80036; stroke-width: 1.5;" width="95" x="565.5" y="424.4063"/><ellipse cx="580.5" cy="440.4063" fill="#ADD1B2" rx="11" ry="11" style="stroke: #A80036; stroke-width: 1.0;"/><path d="M582.8438,436.0781 L583.0156,436.1563 C583.2344,435.8438 583.4375,435.75 583.7344,435.75 C584.0313,435.75 584.3125,435.8906 584.4688,436.1563 C584.5625,436.3125 584.5781,436.4375 584.5781,436.875 L584.5781,438.2969 C584.5781,438.7188 584.5469,438.9063 584.4375,439.0625 C584.2656,439.2813 584,439.4219 583.7344,439.4219 C583.5156,439.4219 583.2813,439.3125 583.1406,439.1719 C583,439.0469 582.9688,438.9219 582.9063,438.5156 C582.8125,438.1094 582.6406,437.8906 582.1563,437.6094 C581.6875,437.3594 581.0781,437.2031 580.5,437.2031 C578.7656,437.2031 577.5156,438.5156 577.5156,440.2969 L577.5156,441.3906 C577.5156,443.0938 578.8125,444.1875 580.8594,444.1875 C581.625,444.1875 582.3125,444.0625 582.7344,443.7969 C582.9219,443.7031 582.9219,443.7031 583.375,443.2188 C583.5625,443.0313 583.7656,442.9531 583.9844,442.9531 C584.4531,442.9531 584.8438,443.3438 584.8438,443.7969 C584.8438,444.1875 584.5156,444.6406 583.9375,445.0469 C583.1875,445.5938 582.0313,445.8906 580.8125,445.8906 C577.9219,445.8906 575.8125,444 575.8125,441.4219 L575.8125,440.2969 C575.8125,437.5781 577.8125,435.5 580.4375,435.5 C581.3125,435.5 581.9063,435.6406 582.8438,436.0781 Z "/><text fill="#000000" font-family="sans-serif" font-size="12" lengthAdjust="spacingAndGlyphs" textLength="63" x="594.5" y="444.5605">RestClient</text><line style="stroke: #A80036; stroke-width: 1.5;" x1="566.5" x2="659.5" y1="456.4063" y2="456.4063"/><line style="stroke: #A80036; stroke-width: 1.5;" x1="566.5" x2="659.5" y1="464.4063" y2="464.4063"/><!--reverse link in.ashwanik.pdp.builder.GithubJobClient to in.ashwanik.pdp.common.githubjobs.GithubJobClientContract--><path d="M282.794,223.0643 C299.347,242.9283 315.151,265.9073 325,289.9063 C384.12,433.9693 349.104,483.3373 356,638.9063 C356.335,646.4543 357.696,648.5433 356,655.9063 C351.863,673.8663 342.754,692.5159 334.735,706.6 " fill="none" id="in.ashwanik.pdp.builder.GithubJobClient&lt;-in.ashwanik.pdp.common.githubjobs.GithubJobClientContract" style="stroke: #A80036; stroke-width: 1.0;"/><polygon fill="#FFFFFF" points="274.096,212.9713,274.9827,220.1276,281.9296,222.0616,281.0429,214.9052,274.096,212.9713" style="stroke: #A80036; stroke-width: 1.0;"/><text fill="#000000" font-family="sans-serif" font-size="13" lengthAdjust="spacingAndGlyphs" textLength="150" x="361" y="452.9731">githubJobClientContract</text><!--reverse link in.ashwanik.pdp.builder.GithubJobClient to in.ashwanik.pdp.common.http.RestClient--><path d="M320.401,179.8953 C389.31,198.9963 477.678,232.8352 538,289.9063 C577.71,327.4763 598.708,390.3653 607.639,424.1923 " fill="none" id="in.ashwanik.pdp.builder.GithubJobClient&lt;-in.ashwanik.pdp.common.http.RestClient" style="stroke: #A80036; stroke-width: 1.0;"/><polygon fill="#FFFFFF" points="307.771,176.4973,312.5258,181.9187,319.359,179.6148,314.6042,174.1934,307.771,176.4973" style="stroke: #A80036; stroke-width: 1.0;"/><text fill="#000000" font-family="sans-serif" font-size="13" lengthAdjust="spacingAndGlyphs" textLength="61" x="494" y="255.9731">restClient</text><!--reverse link in.ashwanik.pdp.builder.GithubJobClient to in.ashwanik.pdp.builder.GithubJobClient.GithubJobClientBuilder--><path d="M205.593,227.9723 C202.789,246.8483 199.639,268.0583 196.431,289.6573 " fill="none" id="in.ashwanik.pdp.builder.GithubJobClient&lt;-in.ashwanik.pdp.builder.GithubJobClient.GithubJobClientBuilder" style="stroke: #A80036; stroke-width: 1.0;"/><ellipse cx="206.6354" cy="220.9534" fill="#FFFFFF" rx="8" ry="8" style="stroke: #A80036; stroke-width: 1.0;"/><line style="stroke: #A80036; stroke-width: 1.0;" x1="205.4598" x2="207.811" y1="228.8665" y2="213.0403"/><line style="stroke: #A80036; stroke-width: 1.0;" x1="198.7222" x2="214.5485" y1="219.7778" y2="222.129"/><!--reverse link in.ashwanik.pdp.builder.GithubJobClient.GithubJobClientBuilder to in.ashwanik.pdp.common.githubjobs.GithubJobClientContract--><path d="M240.665,618.7503 C247.131,631.5333 253.929,644.0563 261,655.9063 C271.861,674.1083 286.757,692.7562 298.864,706.7788 " fill="none" id="in.ashwanik.pdp.builder.GithubJobClient.GithubJobClientBuilder&lt;-in.ashwanik.pdp.common.githubjobs.GithubJobClientContract" style="stroke: #A80036; stroke-width: 1.0;"/><polygon fill="#FFFFFF" points="234.822,606.9503,233.8998,614.1021,240.1469,617.7041,241.0691,610.5522,234.822,606.9503" style="stroke: #A80036; stroke-width: 1.0;"/><text fill="#000000" font-family="sans-serif" font-size="13" lengthAdjust="spacingAndGlyphs" textLength="89" x="262" y="651.9731">clientContract</text><!--
@startuml
title __BUILDER'__\n

  namespace in.ashwanik.pdp.builder {
    class in.ashwanik.pdp.builder.GithubJobClient {
        {static} ~ DEFAULT_TIMEOUT : Integer
        - baseUrl : String
        {static} + builder()
        + getJobs()
        - GithubJobClient()
    }
  }
  

  namespace in.ashwanik.pdp.builder {
    class in.ashwanik.pdp.builder.GithubJobClient.GithubJobClientBuilder {
        {static} - POOL_SIZE : int
        {static} - TIMEOUT : int
        - baseUrl : String
        - connectTimeout : Integer
        - httpClient : OkHttpClient
        - httpClientConnectionPoolSize : Integer
        - readTimeout : Integer
        - writeTimeout : Integer
        + baseUrl()
        + build()
        + clientContract()
        + connectTimeout()
        + httpClient()
        + httpClientConnectionPoolSize()
        + readTimeout()
        + writeTimeout()
        - GithubJobClientBuilder()
        - buildHttpClient()
        - isClientPropertySet()
        - setHttpClientDefaults()
        - validate()
    }
  }
  

  in.ashwanik.pdp.builder.GithubJobClient o- - in.ashwanik.pdp.common.githubjobs.GithubJobClientContract : githubJobClientContract
  in.ashwanik.pdp.builder.GithubJobClient o- - in.ashwanik.pdp.common.http.RestClient : restClient
  in.ashwanik.pdp.builder.GithubJobClient +-down- in.ashwanik.pdp.builder.GithubJobClient.GithubJobClientBuilder
  in.ashwanik.pdp.builder.GithubJobClient.GithubJobClientBuilder o- - in.ashwanik.pdp.common.githubjobs.GithubJobClientContract : clientContract
@enduml

PlantUML version 1.2019.10beta5(Unknown compile time)
(GPL source distribution)
Java Runtime: Java(TM) SE Runtime Environment
JVM: Java HotSpot(TM) 64-Bit Server VM
Java Version: 1.7.0_25-b15
Operating System: Linux
Default Encoding: UTF-8
Language: en
Country: US
--></g></svg>