<?xml version="1.0" encoding="UTF-8" standalone="no"?>
<svg xmlns="http://www.w3.org/2000/svg" xmlns:xlink="http://www.w3.org/1999/xlink" contentScriptType="application/ecmascript" contentStyleType="text/css" height="506px" preserveAspectRatio="none" style="width:1108px;height:506px;" version="1.1" viewBox="0 0 1108 506" width="1108px" zoomAndPan="magnify"><defs><filter height="300%" id="f1858kzgovmr5x" width="300%" x="-1" y="-1"><feGaussianBlur result="blurOut" stdDeviation="2.0"/><feColorMatrix in="blurOut" result="blurOut2" type="matrix" values="0 0 0 0 0 0 0 0 0 0 0 0 0 0 0 0 0 0 .4 0"/><feOffset dx="4.0" dy="4.0" in="blurOut2" result="blurOut3"/><feBlend in="SourceGraphic" in2="blurOut3" mode="normal"/></filter></defs><g><text fill="#000000" font-family="sans-serif" font-size="18" lengthAdjust="spacingAndGlyphs" text-decoration="underline" textLength="99" x="510.5" y="16.708">COMMAND</text><text fill="#000000" font-family="sans-serif" font-size="18" lengthAdjust="spacingAndGlyphs" textLength="0" x="563" y="37.6611"/><!--MD5=[650e37739281c22cb77155d769be018d]
cluster in.ashwanik.pdp.command--><polygon fill="#FFFFFF" filter="url(#f1858kzgovmr5x)" points="22,65.9063,237,65.9063,244,88.2031,1086,88.2031,1086,494.9063,22,494.9063,22,65.9063" style="stroke: #000000; stroke-width: 1.5;"/><line style="stroke: #000000; stroke-width: 1.5;" x1="22" x2="244" y1="88.2031" y2="88.2031"/><text fill="#000000" font-family="sans-serif" font-size="14" font-weight="bold" lengthAdjust="spacingAndGlyphs" textLength="209" x="26" y="80.9014">in.ashwanik.pdp.command</text><!--MD5=[f4a178a891e076f0cbf95a3d65a09d3c]
class in.ashwanik.pdp.command.Command--><rect fill="#FEFECE" filter="url(#f1858kzgovmr5x)" height="124.8281" id="in.ashwanik.pdp.command.Command" style="stroke: #A80036; stroke-width: 1.5;" width="116" x="321" y="119.9063"/><ellipse cx="345.9" cy="135.9063" fill="#A9DCDF" rx="11" ry="11" style="stroke: #A80036; stroke-width: 1.0;"/><path d="M347.4781,137.7188 L343.4313,137.7188 L343.0406,138.7031 L343.4313,138.7031 C343.8844,138.7031 344.025,138.7344 344.1969,138.8594 C344.4156,139.0313 344.5406,139.2813 344.5406,139.5625 C344.5406,139.8438 344.4,140.1406 344.1344,140.2813 C344.0094,140.375 343.7906,140.4063 343.4313,140.4063 L341.1656,140.4063 C340.4156,140.4063 340.0406,140.125 340.0406,139.5625 C340.0406,139.2656 340.1969,138.9844 340.4469,138.8281 C340.6031,138.7188 340.7594,138.7031 341.1813,138.7031 L343.8219,132.1875 L342.7438,132.1875 C342.3063,132.1875 342.1344,132.1563 341.9625,132.0469 C341.7438,131.875 341.6031,131.625 341.6031,131.3438 C341.6031,131.0625 341.7594,130.7813 342.0094,130.6094 C342.1656,130.5156 342.2906,130.5 342.7438,130.5 L346.4156,130.5 L349.8063,138.7031 C350.275,138.7031 350.4313,138.7344 350.6031,138.875 C350.8219,139.0313 350.9625,139.2813 350.9625,139.5625 C350.9625,139.8438 350.8063,140.1406 350.5563,140.2813 C350.4156,140.375 350.1969,140.4063 349.8375,140.4063 L347.4781,140.4063 C347.0563,140.4063 346.8531,140.3594 346.7125,140.2344 C346.4938,140.0781 346.3531,139.8281 346.3531,139.5625 C346.3531,139.2656 346.5094,138.9844 346.7594,138.8281 C346.9156,138.7188 347.025,138.7031 347.4781,138.7031 L347.8688,138.7031 Z M346.775,136.0156 L345.4469,132.75 L344.1031,136.0156 Z "/><text fill="#000000" font-family="sans-serif" font-size="12" font-style="italic" lengthAdjust="spacingAndGlyphs" textLength="62" x="362.1" y="140.0605">Command</text><line style="stroke: #A80036; stroke-width: 1.5;" x1="322" x2="436" y1="151.9063" y2="151.9063"/><line style="stroke: #A80036; stroke-width: 1.5;" x1="322" x2="436" y1="159.9063" y2="159.9063"/><ellipse cx="332" cy="170.9063" fill="#84BE84" rx="3" ry="3" style="stroke: #038048; stroke-width: 1.0;"/><text fill="#000000" font-family="sans-serif" font-size="11" lengthAdjust="spacingAndGlyphs" textLength="46" x="341" y="174.1167">equals()</text><ellipse cx="332" cy="183.7109" fill="#84BE84" rx="3" ry="3" style="stroke: #038048; stroke-width: 1.0;"/><text fill="#000000" font-family="sans-serif" font-size="11" lengthAdjust="spacingAndGlyphs" textLength="65" x="341" y="186.9214">hashCode()</text><ellipse cx="332" cy="196.5156" fill="#84BE84" rx="3" ry="3" style="stroke: #038048; stroke-width: 1.0;"/><text fill="#000000" font-family="sans-serif" font-size="11" lengthAdjust="spacingAndGlyphs" textLength="53" x="341" y="199.7261">toString()</text><polygon fill="#4177AF" points="332,205.3203,328,211.3203,336,211.3203" style="stroke: #1963A0; stroke-width: 1.0;"/><text fill="#000000" font-family="sans-serif" font-size="11" lengthAdjust="spacingAndGlyphs" textLength="66" x="341" y="212.5308">Command()</text><polygon fill="#4177AF" points="332,218.125,328,224.125,336,224.125" style="stroke: #1963A0; stroke-width: 1.0;"/><text fill="#000000" font-family="sans-serif" font-size="11" font-style="italic" lengthAdjust="spacingAndGlyphs" textLength="53" x="341" y="225.3354">execute()</text><polygon fill="#4177AF" points="332,230.9297,328,236.9297,336,236.9297" style="stroke: #1963A0; stroke-width: 1.0;"/><text fill="#000000" font-family="sans-serif" font-size="11" lengthAdjust="spacingAndGlyphs" textLength="90" x="341" y="238.1401">getDescription()</text><!--MD5=[e194ca5f36f92f32525950df2ed454f1]
class in.ashwanik.pdp.command.CommandDetail--><rect fill="#FEFECE" filter="url(#f1858kzgovmr5x)" height="124.8281" id="in.ashwanik.pdp.command.CommandDetail" style="stroke: #A80036; stroke-width: 1.5;" width="130" x="38" y="347.4063"/><ellipse cx="53" cy="363.4063" fill="#ADD1B2" rx="11" ry="11" style="stroke: #A80036; stroke-width: 1.0;"/><path d="M55.3438,359.0781 L55.5156,359.1563 C55.7344,358.8438 55.9375,358.75 56.2344,358.75 C56.5313,358.75 56.8125,358.8906 56.9688,359.1563 C57.0625,359.3125 57.0781,359.4375 57.0781,359.875 L57.0781,361.2969 C57.0781,361.7188 57.0469,361.9063 56.9375,362.0625 C56.7656,362.2813 56.5,362.4219 56.2344,362.4219 C56.0156,362.4219 55.7813,362.3125 55.6406,362.1719 C55.5,362.0469 55.4688,361.9219 55.4063,361.5156 C55.3125,361.1094 55.1406,360.8906 54.6563,360.6094 C54.1875,360.3594 53.5781,360.2031 53,360.2031 C51.2656,360.2031 50.0156,361.5156 50.0156,363.2969 L50.0156,364.3906 C50.0156,366.0938 51.3125,367.1875 53.3594,367.1875 C54.125,367.1875 54.8125,367.0625 55.2344,366.7969 C55.4219,366.7031 55.4219,366.7031 55.875,366.2188 C56.0625,366.0313 56.2656,365.9531 56.4844,365.9531 C56.9531,365.9531 57.3438,366.3438 57.3438,366.7969 C57.3438,367.1875 57.0156,367.6406 56.4375,368.0469 C55.6875,368.5938 54.5313,368.8906 53.3125,368.8906 C50.4219,368.8906 48.3125,367 48.3125,364.4219 L48.3125,363.2969 C48.3125,360.5781 50.3125,358.5 52.9375,358.5 C53.8125,358.5 54.4063,358.6406 55.3438,359.0781 Z "/><text fill="#000000" font-family="sans-serif" font-size="12" lengthAdjust="spacingAndGlyphs" textLength="98" x="67" y="367.5605">CommandDetail</text><line style="stroke: #A80036; stroke-width: 1.5;" x1="39" x2="167" y1="379.4063" y2="379.4063"/><rect fill="none" height="6" style="stroke: #C82930; stroke-width: 1.0;" width="6" x="46" y="387.4063"/><text fill="#000000" font-family="sans-serif" font-size="11" lengthAdjust="spacingAndGlyphs" textLength="67" x="58" y="393.6167">info : String</text><rect fill="none" height="6" style="stroke: #C82930; stroke-width: 1.0;" width="6" x="46" y="400.2109"/><text fill="#000000" font-family="sans-serif" font-size="11" lengthAdjust="spacingAndGlyphs" textLength="78" x="58" y="406.4214">name : String</text><line style="stroke: #A80036; stroke-width: 1.5;" x1="39" x2="167" y1="413.0156" y2="413.0156"/><ellipse cx="49" cy="424.0156" fill="#84BE84" rx="3" ry="3" style="stroke: #038048; stroke-width: 1.0;"/><text fill="#000000" font-family="sans-serif" font-size="11" lengthAdjust="spacingAndGlyphs" textLength="47" x="58" y="427.2261">getInfo()</text><ellipse cx="49" cy="436.8203" fill="#84BE84" rx="3" ry="3" style="stroke: #038048; stroke-width: 1.0;"/><text fill="#000000" font-family="sans-serif" font-size="11" lengthAdjust="spacingAndGlyphs" textLength="59" x="58" y="440.0308">getName()</text><ellipse cx="49" cy="449.625" fill="#84BE84" rx="3" ry="3" style="stroke: #038048; stroke-width: 1.0;"/><text fill="#000000" font-family="sans-serif" font-size="11" lengthAdjust="spacingAndGlyphs" textLength="53" x="58" y="452.8354">toString()</text><polygon fill="#4177AF" points="49,458.4297,45,464.4297,53,464.4297" style="stroke: #1963A0; stroke-width: 1.0;"/><text fill="#000000" font-family="sans-serif" font-size="11" lengthAdjust="spacingAndGlyphs" textLength="98" x="58" y="465.6401">CommandDetail()</text><!--MD5=[f5cc3eeefdbd636f754dd79c63b61803]
class in.ashwanik.pdp.command.CommandExecutor--><rect fill="#FEFECE" filter="url(#f1858kzgovmr5x)" height="73.6094" id="in.ashwanik.pdp.command.CommandExecutor" style="stroke: #A80036; stroke-width: 1.5;" width="149" x="620.5" y="145.4063"/><ellipse cx="635.5" cy="161.4063" fill="#ADD1B2" rx="11" ry="11" style="stroke: #A80036; stroke-width: 1.0;"/><path d="M637.8438,157.0781 L638.0156,157.1563 C638.2344,156.8438 638.4375,156.75 638.7344,156.75 C639.0313,156.75 639.3125,156.8906 639.4688,157.1563 C639.5625,157.3125 639.5781,157.4375 639.5781,157.875 L639.5781,159.2969 C639.5781,159.7188 639.5469,159.9063 639.4375,160.0625 C639.2656,160.2813 639,160.4219 638.7344,160.4219 C638.5156,160.4219 638.2813,160.3125 638.1406,160.1719 C638,160.0469 637.9688,159.9219 637.9063,159.5156 C637.8125,159.1094 637.6406,158.8906 637.1563,158.6094 C636.6875,158.3594 636.0781,158.2031 635.5,158.2031 C633.7656,158.2031 632.5156,159.5156 632.5156,161.2969 L632.5156,162.3906 C632.5156,164.0938 633.8125,165.1875 635.8594,165.1875 C636.625,165.1875 637.3125,165.0625 637.7344,164.7969 C637.9219,164.7031 637.9219,164.7031 638.375,164.2188 C638.5625,164.0313 638.7656,163.9531 638.9844,163.9531 C639.4531,163.9531 639.8438,164.3438 639.8438,164.7969 C639.8438,165.1875 639.5156,165.6406 638.9375,166.0469 C638.1875,166.5938 637.0313,166.8906 635.8125,166.8906 C632.9219,166.8906 630.8125,165 630.8125,162.4219 L630.8125,161.2969 C630.8125,158.5781 632.8125,156.5 635.4375,156.5 C636.3125,156.5 636.9063,156.6406 637.8438,157.0781 Z "/><text fill="#000000" font-family="sans-serif" font-size="12" lengthAdjust="spacingAndGlyphs" textLength="117" x="649.5" y="165.5605">CommandExecutor</text><line style="stroke: #A80036; stroke-width: 1.5;" x1="621.5" x2="768.5" y1="177.4063" y2="177.4063"/><line style="stroke: #A80036; stroke-width: 1.5;" x1="621.5" x2="768.5" y1="185.4063" y2="185.4063"/><polygon fill="#4177AF" points="631.5,192.4063,627.5,198.4063,635.5,198.4063" style="stroke: #1963A0; stroke-width: 1.0;"/><text fill="#000000" font-family="sans-serif" font-size="11" lengthAdjust="spacingAndGlyphs" text-decoration="underline" textLength="52" x="640.5" y="199.6167">execute()</text><rect fill="#F24D5C" height="6" style="stroke: #C82930; stroke-width: 1.0;" width="6" x="628.5" y="206.2109"/><text fill="#000000" font-family="sans-serif" font-size="11" lengthAdjust="spacingAndGlyphs" text-decoration="underline" textLength="84" x="640.5" y="212.4214">getCommand()</text><!--MD5=[ea2df942d831b80b21f5b9addc31a168]
class in.ashwanik.pdp.command.CommandList--><rect fill="#FEFECE" filter="url(#f1858kzgovmr5x)" height="163.2422" id="in.ashwanik.pdp.command.CommandList" style="stroke: #A80036; stroke-width: 1.5;" width="265" x="804.5" y="100.9063"/><ellipse cx="891.25" cy="116.9063" fill="#ADD1B2" rx="11" ry="11" style="stroke: #A80036; stroke-width: 1.0;"/><path d="M893.5938,112.5781 L893.7656,112.6563 C893.9844,112.3438 894.1875,112.25 894.4844,112.25 C894.7813,112.25 895.0625,112.3906 895.2188,112.6563 C895.3125,112.8125 895.3281,112.9375 895.3281,113.375 L895.3281,114.7969 C895.3281,115.2188 895.2969,115.4063 895.1875,115.5625 C895.0156,115.7813 894.75,115.9219 894.4844,115.9219 C894.2656,115.9219 894.0313,115.8125 893.8906,115.6719 C893.75,115.5469 893.7188,115.4219 893.6563,115.0156 C893.5625,114.6094 893.3906,114.3906 892.9063,114.1094 C892.4375,113.8594 891.8281,113.7031 891.25,113.7031 C889.5156,113.7031 888.2656,115.0156 888.2656,116.7969 L888.2656,117.8906 C888.2656,119.5938 889.5625,120.6875 891.6094,120.6875 C892.375,120.6875 893.0625,120.5625 893.4844,120.2969 C893.6719,120.2031 893.6719,120.2031 894.125,119.7188 C894.3125,119.5313 894.5156,119.4531 894.7344,119.4531 C895.2031,119.4531 895.5938,119.8438 895.5938,120.2969 C895.5938,120.6875 895.2656,121.1406 894.6875,121.5469 C893.9375,122.0938 892.7813,122.3906 891.5625,122.3906 C888.6719,122.3906 886.5625,120.5 886.5625,117.9219 L886.5625,116.7969 C886.5625,114.0781 888.5625,112 891.1875,112 C892.0625,112 892.6563,112.1406 893.5938,112.5781 Z "/><text fill="#000000" font-family="sans-serif" font-size="12" lengthAdjust="spacingAndGlyphs" textLength="83" x="911.75" y="121.0605">CommandList</text><line style="stroke: #A80036; stroke-width: 1.5;" x1="805.5" x2="1068.5" y1="132.9063" y2="132.9063"/><rect fill="none" height="6" style="stroke: #C82930; stroke-width: 1.0;" width="6" x="812.5" y="140.9063"/><text fill="#000000" font-family="sans-serif" font-size="11" lengthAdjust="spacingAndGlyphs" textLength="239" x="824.5" y="147.1167">commandsMap : Map&lt;String, Command&gt;</text><rect fill="none" height="6" style="stroke: #C82930; stroke-width: 1.0;" width="6" x="812.5" y="153.7109"/><text fill="#000000" font-family="sans-serif" font-size="11" lengthAdjust="spacingAndGlyphs" text-decoration="underline" textLength="107" x="824.5" y="159.9214">list : CommandList</text><line style="stroke: #A80036; stroke-width: 1.5;" x1="805.5" x2="1068.5" y1="166.5156" y2="166.5156"/><polygon fill="#4177AF" points="815.5,173.5156,811.5,179.5156,819.5,179.5156" style="stroke: #1963A0; stroke-width: 1.0;"/><text fill="#000000" font-family="sans-serif" font-size="11" lengthAdjust="spacingAndGlyphs" text-decoration="underline" textLength="26" x="824.5" y="180.7261">get()</text><polygon fill="#4177AF" points="815.5,186.3203,811.5,192.3203,819.5,192.3203" style="stroke: #1963A0; stroke-width: 1.0;"/><text fill="#000000" font-family="sans-serif" font-size="11" lengthAdjust="spacingAndGlyphs" textLength="84" x="824.5" y="193.5308">getCommand()</text><polygon fill="#4177AF" points="815.5,199.125,811.5,205.125,819.5,205.125" style="stroke: #1963A0; stroke-width: 1.0;"/><text fill="#000000" font-family="sans-serif" font-size="11" lengthAdjust="spacingAndGlyphs" textLength="91" x="824.5" y="206.3354">getCommands()</text><polygon fill="#4177AF" points="815.5,211.9297,811.5,217.9297,819.5,217.9297" style="stroke: #1963A0; stroke-width: 1.0;"/><text fill="#000000" font-family="sans-serif" font-size="11" lengthAdjust="spacingAndGlyphs" text-decoration="underline" textLength="51" x="824.5" y="219.1401">getHelp()</text><polygon fill="#4177AF" points="815.5,224.7344,811.5,230.7344,819.5,230.7344" style="stroke: #1963A0; stroke-width: 1.0;"/><text fill="#000000" font-family="sans-serif" font-size="11" lengthAdjust="spacingAndGlyphs" text-decoration="underline" textLength="90" x="824.5" y="231.9448">initCommands()</text><rect fill="#F24D5C" height="6" style="stroke: #C82930; stroke-width: 1.0;" width="6" x="812.5" y="238.5391"/><text fill="#000000" font-family="sans-serif" font-size="11" lengthAdjust="spacingAndGlyphs" textLength="86" x="824.5" y="244.7495">CommandList()</text><rect fill="#F24D5C" height="6" style="stroke: #C82930; stroke-width: 1.0;" width="6" x="812.5" y="251.3438"/><text fill="#000000" font-family="sans-serif" font-size="11" lengthAdjust="spacingAndGlyphs" textLength="87" x="824.5" y="257.5542">addCommand()</text><!--MD5=[5e9b8403ed66f51fa287ee31ca66d240]
class in.ashwanik.pdp.command.Game--><rect fill="#FEFECE" filter="url(#f1858kzgovmr5x)" height="137.6328" id="in.ashwanik.pdp.command.Game" style="stroke: #A80036; stroke-width: 1.5;" width="124" x="719" y="340.9063"/><ellipse cx="759.2" cy="356.9063" fill="#ADD1B2" rx="11" ry="11" style="stroke: #A80036; stroke-width: 1.0;"/><path d="M761.5438,352.5781 L761.7156,352.6563 C761.9344,352.3438 762.1375,352.25 762.4344,352.25 C762.7313,352.25 763.0125,352.3906 763.1688,352.6563 C763.2625,352.8125 763.2781,352.9375 763.2781,353.375 L763.2781,354.7969 C763.2781,355.2188 763.2469,355.4063 763.1375,355.5625 C762.9656,355.7813 762.7,355.9219 762.4344,355.9219 C762.2156,355.9219 761.9813,355.8125 761.8406,355.6719 C761.7,355.5469 761.6688,355.4219 761.6063,355.0156 C761.5125,354.6094 761.3406,354.3906 760.8563,354.1094 C760.3875,353.8594 759.7781,353.7031 759.2,353.7031 C757.4656,353.7031 756.2156,355.0156 756.2156,356.7969 L756.2156,357.8906 C756.2156,359.5938 757.5125,360.6875 759.5594,360.6875 C760.325,360.6875 761.0125,360.5625 761.4344,360.2969 C761.6219,360.2031 761.6219,360.2031 762.075,359.7188 C762.2625,359.5313 762.4656,359.4531 762.6844,359.4531 C763.1531,359.4531 763.5438,359.8438 763.5438,360.2969 C763.5438,360.6875 763.2156,361.1406 762.6375,361.5469 C761.8875,362.0938 760.7313,362.3906 759.5125,362.3906 C756.6219,362.3906 754.5125,360.5 754.5125,357.9219 L754.5125,356.7969 C754.5125,354.0781 756.5125,352 759.1375,352 C760.0125,352 760.6063,352.1406 761.5438,352.5781 Z "/><text fill="#000000" font-family="sans-serif" font-size="12" lengthAdjust="spacingAndGlyphs" textLength="36" x="778.8" y="361.0605">Game</text><line style="stroke: #A80036; stroke-width: 1.5;" x1="720" x2="842" y1="372.9063" y2="372.9063"/><rect fill="none" height="6" style="stroke: #C82930; stroke-width: 1.0;" width="6" x="727" y="380.9063"/><text fill="#000000" font-family="sans-serif" font-size="11" lengthAdjust="spacingAndGlyphs" textLength="98" x="739" y="387.1167">started : boolean</text><line style="stroke: #A80036; stroke-width: 1.5;" x1="720" x2="842" y1="393.7109" y2="393.7109"/><ellipse cx="730" cy="404.7109" fill="#84BE84" rx="3" ry="3" style="stroke: #038048; stroke-width: 1.0;"/><text fill="#000000" font-family="sans-serif" font-size="11" lengthAdjust="spacingAndGlyphs" textLength="32" x="739" y="407.9214">help()</text><ellipse cx="730" cy="417.5156" fill="#84BE84" rx="3" ry="3" style="stroke: #038048; stroke-width: 1.0;"/><text fill="#000000" font-family="sans-serif" font-size="11" lengthAdjust="spacingAndGlyphs" textLength="60" x="739" y="420.7261">isStarted()</text><ellipse cx="730" cy="430.3203" fill="#84BE84" rx="3" ry="3" style="stroke: #038048; stroke-width: 1.0;"/><text fill="#000000" font-family="sans-serif" font-size="11" lengthAdjust="spacingAndGlyphs" textLength="65" x="739" y="433.5308">newGame()</text><ellipse cx="730" cy="443.125" fill="#84BE84" rx="3" ry="3" style="stroke: #038048; stroke-width: 1.0;"/><text fill="#000000" font-family="sans-serif" font-size="11" lengthAdjust="spacingAndGlyphs" textLength="29" x="739" y="446.3354">quit()</text><ellipse cx="730" cy="455.9297" fill="#84BE84" rx="3" ry="3" style="stroke: #038048; stroke-width: 1.0;"/><text fill="#000000" font-family="sans-serif" font-size="11" lengthAdjust="spacingAndGlyphs" textLength="35" x="739" y="459.1401">start()</text><polygon fill="#4177AF" points="730,464.7344,726,470.7344,734,470.7344" style="stroke: #1963A0; stroke-width: 1.0;"/><text fill="#000000" font-family="sans-serif" font-size="11" lengthAdjust="spacingAndGlyphs" textLength="42" x="739" y="471.9448">Game()</text><!--MD5=[277751ea701d99a37fad5fc50dc60ece]
class in.ashwanik.pdp.command.Help--><rect fill="#FEFECE" filter="url(#f1858kzgovmr5x)" height="86.4141" id="in.ashwanik.pdp.command.Help" style="stroke: #A80036; stroke-width: 1.5;" width="94" x="203" y="366.9063"/><ellipse cx="233.3" cy="382.9063" fill="#ADD1B2" rx="11" ry="11" style="stroke: #A80036; stroke-width: 1.0;"/><path d="M235.6438,378.5781 L235.8156,378.6563 C236.0344,378.3438 236.2375,378.25 236.5344,378.25 C236.8313,378.25 237.1125,378.3906 237.2688,378.6563 C237.3625,378.8125 237.3781,378.9375 237.3781,379.375 L237.3781,380.7969 C237.3781,381.2188 237.3469,381.4063 237.2375,381.5625 C237.0656,381.7813 236.8,381.9219 236.5344,381.9219 C236.3156,381.9219 236.0813,381.8125 235.9406,381.6719 C235.8,381.5469 235.7688,381.4219 235.7063,381.0156 C235.6125,380.6094 235.4406,380.3906 234.9563,380.1094 C234.4875,379.8594 233.8781,379.7031 233.3,379.7031 C231.5656,379.7031 230.3156,381.0156 230.3156,382.7969 L230.3156,383.8906 C230.3156,385.5938 231.6125,386.6875 233.6594,386.6875 C234.425,386.6875 235.1125,386.5625 235.5344,386.2969 C235.7219,386.2031 235.7219,386.2031 236.175,385.7188 C236.3625,385.5313 236.5656,385.4531 236.7844,385.4531 C237.2531,385.4531 237.6438,385.8438 237.6438,386.2969 C237.6438,386.6875 237.3156,387.1406 236.7375,387.5469 C235.9875,388.0938 234.8313,388.3906 233.6125,388.3906 C230.7219,388.3906 228.6125,386.5 228.6125,383.9219 L228.6125,382.7969 C228.6125,380.0781 230.6125,378 233.2375,378 C234.1125,378 234.7063,378.1406 235.6438,378.5781 Z "/><text fill="#000000" font-family="sans-serif" font-size="12" lengthAdjust="spacingAndGlyphs" textLength="28" x="250.7" y="387.0605">Help</text><line style="stroke: #A80036; stroke-width: 1.5;" x1="204" x2="296" y1="398.9063" y2="398.9063"/><rect fill="none" height="6" style="stroke: #C82930; stroke-width: 1.0;" width="6" x="211" y="406.9063"/><text fill="#000000" font-family="sans-serif" font-size="11" lengthAdjust="spacingAndGlyphs" text-decoration="underline" textLength="68" x="223" y="413.1167">log : Logger</text><line style="stroke: #A80036; stroke-width: 1.5;" x1="204" x2="296" y1="419.7109" y2="419.7109"/><polygon fill="#4177AF" points="214,426.7109,210,432.7109,218,432.7109" style="stroke: #1963A0; stroke-width: 1.0;"/><text fill="#000000" font-family="sans-serif" font-size="11" lengthAdjust="spacingAndGlyphs" textLength="33" x="223" y="433.9214">Help()</text><polygon fill="#4177AF" points="214,439.5156,210,445.5156,218,445.5156" style="stroke: #1963A0; stroke-width: 1.0;"/><text fill="#000000" font-family="sans-serif" font-size="11" lengthAdjust="spacingAndGlyphs" textLength="52" x="223" y="446.7261">execute()</text><!--MD5=[6abf89385c3da8e448a6c1959609e4d3]
class in.ashwanik.pdp.command.IssuedCommand--><rect fill="#FEFECE" filter="url(#f1858kzgovmr5x)" height="124.8281" id="in.ashwanik.pdp.command.IssuedCommand" style="stroke: #A80036; stroke-width: 1.5;" width="191" x="878.5" y="347.4063"/><ellipse cx="918.7" cy="363.4063" fill="#ADD1B2" rx="11" ry="11" style="stroke: #A80036; stroke-width: 1.0;"/><path d="M921.0438,359.0781 L921.2156,359.1563 C921.4344,358.8438 921.6375,358.75 921.9344,358.75 C922.2313,358.75 922.5125,358.8906 922.6688,359.1563 C922.7625,359.3125 922.7781,359.4375 922.7781,359.875 L922.7781,361.2969 C922.7781,361.7188 922.7469,361.9063 922.6375,362.0625 C922.4656,362.2813 922.2,362.4219 921.9344,362.4219 C921.7156,362.4219 921.4813,362.3125 921.3406,362.1719 C921.2,362.0469 921.1688,361.9219 921.1063,361.5156 C921.0125,361.1094 920.8406,360.8906 920.3563,360.6094 C919.8875,360.3594 919.2781,360.2031 918.7,360.2031 C916.9656,360.2031 915.7156,361.5156 915.7156,363.2969 L915.7156,364.3906 C915.7156,366.0938 917.0125,367.1875 919.0594,367.1875 C919.825,367.1875 920.5125,367.0625 920.9344,366.7969 C921.1219,366.7031 921.1219,366.7031 921.575,366.2188 C921.7625,366.0313 921.9656,365.9531 922.1844,365.9531 C922.6531,365.9531 923.0438,366.3438 923.0438,366.7969 C923.0438,367.1875 922.7156,367.6406 922.1375,368.0469 C921.3875,368.5938 920.2313,368.8906 919.0125,368.8906 C916.1219,368.8906 914.0125,367 914.0125,364.4219 L914.0125,363.2969 C914.0125,360.5781 916.0125,358.5 918.6375,358.5 C919.5125,358.5 920.1063,358.6406 921.0438,359.0781 Z "/><text fill="#000000" font-family="sans-serif" font-size="12" lengthAdjust="spacingAndGlyphs" textLength="103" x="938.3" y="367.5605">IssuedCommand</text><line style="stroke: #A80036; stroke-width: 1.5;" x1="879.5" x2="1068.5" y1="379.4063" y2="379.4063"/><rect fill="none" height="6" style="stroke: #C82930; stroke-width: 1.0;" width="6" x="886.5" y="387.4063"/><text fill="#000000" font-family="sans-serif" font-size="11" lengthAdjust="spacingAndGlyphs" textLength="165" x="898.5" y="393.6167">stringRepresentation : String</text><rect fill="none" height="6" style="stroke: #C82930; stroke-width: 1.0;" width="6" x="886.5" y="400.2109"/><text fill="#000000" font-family="sans-serif" font-size="11" lengthAdjust="spacingAndGlyphs" textLength="122" x="898.5" y="406.4214">tokens : List&lt;String&gt;</text><line style="stroke: #A80036; stroke-width: 1.5;" x1="879.5" x2="1068.5" y1="413.0156" y2="413.0156"/><ellipse cx="889.5" cy="424.0156" fill="#84BE84" rx="3" ry="3" style="stroke: #038048; stroke-width: 1.0;"/><text fill="#000000" font-family="sans-serif" font-size="11" lengthAdjust="spacingAndGlyphs" textLength="84" x="898.5" y="427.2261">getCommand()</text><polygon fill="#4177AF" points="889.5,432.8203,885.5,438.8203,893.5,438.8203" style="stroke: #1963A0; stroke-width: 1.0;"/><text fill="#000000" font-family="sans-serif" font-size="11" lengthAdjust="spacingAndGlyphs" textLength="104" x="898.5" y="440.0308">IssuedCommand()</text><polygon fill="#4177AF" points="889.5,445.625,885.5,451.625,893.5,451.625" style="stroke: #1963A0; stroke-width: 1.0;"/><text fill="#000000" font-family="sans-serif" font-size="11" lengthAdjust="spacingAndGlyphs" textLength="63" x="898.5" y="452.8354">addToken()</text><polygon fill="#4177AF" points="889.5,458.4297,885.5,464.4297,893.5,464.4297" style="stroke: #1963A0; stroke-width: 1.0;"/><text fill="#000000" font-family="sans-serif" font-size="11" lengthAdjust="spacingAndGlyphs" textLength="52" x="898.5" y="465.6401">getArgs()</text><!--MD5=[cf92cdf36b866b2ac318bd90531e9699]
class in.ashwanik.pdp.command.New--><rect fill="#FEFECE" filter="url(#f1858kzgovmr5x)" height="86.4141" id="in.ashwanik.pdp.command.New" style="stroke: #A80036; stroke-width: 1.5;" width="94" x="332" y="366.9063"/><ellipse cx="363.2" cy="382.9063" fill="#ADD1B2" rx="11" ry="11" style="stroke: #A80036; stroke-width: 1.0;"/><path d="M365.5438,378.5781 L365.7156,378.6563 C365.9344,378.3438 366.1375,378.25 366.4344,378.25 C366.7313,378.25 367.0125,378.3906 367.1688,378.6563 C367.2625,378.8125 367.2781,378.9375 367.2781,379.375 L367.2781,380.7969 C367.2781,381.2188 367.2469,381.4063 367.1375,381.5625 C366.9656,381.7813 366.7,381.9219 366.4344,381.9219 C366.2156,381.9219 365.9813,381.8125 365.8406,381.6719 C365.7,381.5469 365.6688,381.4219 365.6063,381.0156 C365.5125,380.6094 365.3406,380.3906 364.8563,380.1094 C364.3875,379.8594 363.7781,379.7031 363.2,379.7031 C361.4656,379.7031 360.2156,381.0156 360.2156,382.7969 L360.2156,383.8906 C360.2156,385.5938 361.5125,386.6875 363.5594,386.6875 C364.325,386.6875 365.0125,386.5625 365.4344,386.2969 C365.6219,386.2031 365.6219,386.2031 366.075,385.7188 C366.2625,385.5313 366.4656,385.4531 366.6844,385.4531 C367.1531,385.4531 367.5438,385.8438 367.5438,386.2969 C367.5438,386.6875 367.2156,387.1406 366.6375,387.5469 C365.8875,388.0938 364.7313,388.3906 363.5125,388.3906 C360.6219,388.3906 358.5125,386.5 358.5125,383.9219 L358.5125,382.7969 C358.5125,380.0781 360.5125,378 363.1375,378 C364.0125,378 364.6063,378.1406 365.5438,378.5781 Z "/><text fill="#000000" font-family="sans-serif" font-size="12" lengthAdjust="spacingAndGlyphs" textLength="26" x="380.8" y="387.0605">New</text><line style="stroke: #A80036; stroke-width: 1.5;" x1="333" x2="425" y1="398.9063" y2="398.9063"/><rect fill="none" height="6" style="stroke: #C82930; stroke-width: 1.0;" width="6" x="340" y="406.9063"/><text fill="#000000" font-family="sans-serif" font-size="11" lengthAdjust="spacingAndGlyphs" text-decoration="underline" textLength="68" x="352" y="413.1167">log : Logger</text><line style="stroke: #A80036; stroke-width: 1.5;" x1="333" x2="425" y1="419.7109" y2="419.7109"/><polygon fill="#4177AF" points="343,426.7109,339,432.7109,347,432.7109" style="stroke: #1963A0; stroke-width: 1.0;"/><text fill="#000000" font-family="sans-serif" font-size="11" lengthAdjust="spacingAndGlyphs" textLength="32" x="352" y="433.9214">New()</text><polygon fill="#4177AF" points="343,439.5156,339,445.5156,347,445.5156" style="stroke: #1963A0; stroke-width: 1.0;"/><text fill="#000000" font-family="sans-serif" font-size="11" lengthAdjust="spacingAndGlyphs" textLength="52" x="352" y="446.7261">execute()</text><!--MD5=[b5fc0bfb2c031affddfb363d22dd20dd]
class in.ashwanik.pdp.command.Quit--><rect fill="#FEFECE" filter="url(#f1858kzgovmr5x)" height="86.4141" id="in.ashwanik.pdp.command.Quit" style="stroke: #A80036; stroke-width: 1.5;" width="94" x="461" y="366.9063"/><ellipse cx="492.65" cy="382.9063" fill="#ADD1B2" rx="11" ry="11" style="stroke: #A80036; stroke-width: 1.0;"/><path d="M494.9938,378.5781 L495.1656,378.6563 C495.3844,378.3438 495.5875,378.25 495.8844,378.25 C496.1813,378.25 496.4625,378.3906 496.6188,378.6563 C496.7125,378.8125 496.7281,378.9375 496.7281,379.375 L496.7281,380.7969 C496.7281,381.2188 496.6969,381.4063 496.5875,381.5625 C496.4156,381.7813 496.15,381.9219 495.8844,381.9219 C495.6656,381.9219 495.4313,381.8125 495.2906,381.6719 C495.15,381.5469 495.1188,381.4219 495.0563,381.0156 C494.9625,380.6094 494.7906,380.3906 494.3063,380.1094 C493.8375,379.8594 493.2281,379.7031 492.65,379.7031 C490.9156,379.7031 489.6656,381.0156 489.6656,382.7969 L489.6656,383.8906 C489.6656,385.5938 490.9625,386.6875 493.0094,386.6875 C493.775,386.6875 494.4625,386.5625 494.8844,386.2969 C495.0719,386.2031 495.0719,386.2031 495.525,385.7188 C495.7125,385.5313 495.9156,385.4531 496.1344,385.4531 C496.6031,385.4531 496.9938,385.8438 496.9938,386.2969 C496.9938,386.6875 496.6656,387.1406 496.0875,387.5469 C495.3375,388.0938 494.1813,388.3906 492.9625,388.3906 C490.0719,388.3906 487.9625,386.5 487.9625,383.9219 L487.9625,382.7969 C487.9625,380.0781 489.9625,378 492.5875,378 C493.4625,378 494.0563,378.1406 494.9938,378.5781 Z "/><text fill="#000000" font-family="sans-serif" font-size="12" lengthAdjust="spacingAndGlyphs" textLength="25" x="510.35" y="387.0605">Quit</text><line style="stroke: #A80036; stroke-width: 1.5;" x1="462" x2="554" y1="398.9063" y2="398.9063"/><rect fill="none" height="6" style="stroke: #C82930; stroke-width: 1.0;" width="6" x="469" y="406.9063"/><text fill="#000000" font-family="sans-serif" font-size="11" lengthAdjust="spacingAndGlyphs" text-decoration="underline" textLength="68" x="481" y="413.1167">log : Logger</text><line style="stroke: #A80036; stroke-width: 1.5;" x1="462" x2="554" y1="419.7109" y2="419.7109"/><polygon fill="#4177AF" points="472,426.7109,468,432.7109,476,432.7109" style="stroke: #1963A0; stroke-width: 1.0;"/><text fill="#000000" font-family="sans-serif" font-size="11" lengthAdjust="spacingAndGlyphs" textLength="31" x="481" y="433.9214">Quit()</text><polygon fill="#4177AF" points="472,439.5156,468,445.5156,476,445.5156" style="stroke: #1963A0; stroke-width: 1.0;"/><text fill="#000000" font-family="sans-serif" font-size="11" lengthAdjust="spacingAndGlyphs" textLength="52" x="481" y="446.7261">execute()</text><!--MD5=[efb55e46ed7f40ffd28b50f226f84025]
class in.ashwanik.pdp.command.Start--><rect fill="#FEFECE" filter="url(#f1858kzgovmr5x)" height="86.4141" id="in.ashwanik.pdp.command.Start" style="stroke: #A80036; stroke-width: 1.5;" width="94" x="590" y="366.9063"/><ellipse cx="618.95" cy="382.9063" fill="#ADD1B2" rx="11" ry="11" style="stroke: #A80036; stroke-width: 1.0;"/><path d="M621.2938,378.5781 L621.4656,378.6563 C621.6844,378.3438 621.8875,378.25 622.1844,378.25 C622.4813,378.25 622.7625,378.3906 622.9188,378.6563 C623.0125,378.8125 623.0281,378.9375 623.0281,379.375 L623.0281,380.7969 C623.0281,381.2188 622.9969,381.4063 622.8875,381.5625 C622.7156,381.7813 622.45,381.9219 622.1844,381.9219 C621.9656,381.9219 621.7313,381.8125 621.5906,381.6719 C621.45,381.5469 621.4188,381.4219 621.3563,381.0156 C621.2625,380.6094 621.0906,380.3906 620.6063,380.1094 C620.1375,379.8594 619.5281,379.7031 618.95,379.7031 C617.2156,379.7031 615.9656,381.0156 615.9656,382.7969 L615.9656,383.8906 C615.9656,385.5938 617.2625,386.6875 619.3094,386.6875 C620.075,386.6875 620.7625,386.5625 621.1844,386.2969 C621.3719,386.2031 621.3719,386.2031 621.825,385.7188 C622.0125,385.5313 622.2156,385.4531 622.4344,385.4531 C622.9031,385.4531 623.2938,385.8438 623.2938,386.2969 C623.2938,386.6875 622.9656,387.1406 622.3875,387.5469 C621.6375,388.0938 620.4813,388.3906 619.2625,388.3906 C616.3719,388.3906 614.2625,386.5 614.2625,383.9219 L614.2625,382.7969 C614.2625,380.0781 616.2625,378 618.8875,378 C619.7625,378 620.3563,378.1406 621.2938,378.5781 Z "/><text fill="#000000" font-family="sans-serif" font-size="12" lengthAdjust="spacingAndGlyphs" textLength="31" x="636.05" y="387.0605">Start</text><line style="stroke: #A80036; stroke-width: 1.5;" x1="591" x2="683" y1="398.9063" y2="398.9063"/><rect fill="none" height="6" style="stroke: #C82930; stroke-width: 1.0;" width="6" x="598" y="406.9063"/><text fill="#000000" font-family="sans-serif" font-size="11" lengthAdjust="spacingAndGlyphs" text-decoration="underline" textLength="68" x="610" y="413.1167">log : Logger</text><line style="stroke: #A80036; stroke-width: 1.5;" x1="591" x2="683" y1="419.7109" y2="419.7109"/><polygon fill="#4177AF" points="601,426.7109,597,432.7109,605,432.7109" style="stroke: #1963A0; stroke-width: 1.0;"/><text fill="#000000" font-family="sans-serif" font-size="11" lengthAdjust="spacingAndGlyphs" textLength="36" x="610" y="433.9214">Start()</text><polygon fill="#4177AF" points="601,439.5156,597,445.5156,605,445.5156" style="stroke: #1963A0; stroke-width: 1.0;"/><text fill="#000000" font-family="sans-serif" font-size="11" lengthAdjust="spacingAndGlyphs" textLength="52" x="610" y="446.7261">execute()</text><!--MD5=[a3a88804d8f23068088d247f0fc2c6b8]
reverse link in.ashwanik.pdp.command.Command to in.ashwanik.pdp.command.CommandDetail--><path d="M309.851,230.5523 C283.093,249.5123 252.571,272.0373 226,293.9063 C205.798,310.5333 184.688,329.5902 165.774,347.3463 " fill="none" id="in.ashwanik.pdp.command.Command&lt;-in.ashwanik.pdp.command.CommandDetail" style="stroke: #A80036; stroke-width: 1.0;"/><polygon fill="#FFFFFF" points="320.676,222.9293,313.4672,223.1128,310.864,229.8376,318.0728,229.6541,320.676,222.9293" style="stroke: #A80036; stroke-width: 1.0;"/><text fill="#000000" font-family="sans-serif" font-size="13" lengthAdjust="spacingAndGlyphs" textLength="70" x="227" y="306.9731">description</text><!--MD5=[2968ebb60c5c4e7c3c019985bc2ae993]
reverse link in.ashwanik.pdp.command.Command to in.ashwanik.pdp.command.Help--><path d="M333.58,262.8043 C313.574,297.7753 290.876,337.4523 274.188,366.6242 " fill="none" id="in.ashwanik.pdp.command.Command&lt;-in.ashwanik.pdp.command.Help" style="stroke: #A80036; stroke-width: 1.0;"/><polygon fill="none" points="327.743,258.9093,343.75,245.0253,339.895,265.8613,327.743,258.9093" style="stroke: #A80036; stroke-width: 1.0;"/><!--MD5=[86e84df1b081c53852ac83e6e4786e05]
reverse link in.ashwanik.pdp.command.Command to in.ashwanik.pdp.command.New--><path d="M379,265.2173 C379,299.5902 379,338.1213 379,366.6242 " fill="none" id="in.ashwanik.pdp.command.Command&lt;-in.ashwanik.pdp.command.New" style="stroke: #A80036; stroke-width: 1.0;"/><polygon fill="none" points="372,265.0253,379,245.0253,386,265.0253,372,265.0253" style="stroke: #A80036; stroke-width: 1.0;"/><!--MD5=[7765b90fdacd098fe3e908f577c3a792]
reverse link in.ashwanik.pdp.command.Command to in.ashwanik.pdp.command.Quit--><path d="M424.42,262.8043 C444.426,297.7753 467.124,337.4523 483.812,366.6242 " fill="none" id="in.ashwanik.pdp.command.Command&lt;-in.ashwanik.pdp.command.Quit" style="stroke: #A80036; stroke-width: 1.0;"/><polygon fill="none" points="418.105,265.8613,414.25,245.0253,430.257,258.9093,418.105,265.8613" style="stroke: #A80036; stroke-width: 1.0;"/><!--MD5=[00328be8f71bd1a94bef5ef378923a53]
reverse link in.ashwanik.pdp.command.Command to in.ashwanik.pdp.command.Start--><path d="M453.003,239.6862 C490.025,268.7823 534.938,305.5323 573,340.9063 C581.669,348.9633 590.598,357.9543 598.934,366.6923 " fill="none" id="in.ashwanik.pdp.command.Command&lt;-in.ashwanik.pdp.command.Start" style="stroke: #A80036; stroke-width: 1.0;"/><polygon fill="none" points="448.594,245.1253,437.134,227.3023,457.208,234.0883,448.594,245.1253" style="stroke: #A80036; stroke-width: 1.0;"/><!--MD5=[fa61e7b4e5246979cc6645750c5965df]
link in.ashwanik.pdp.command.CommandExecutor to in.ashwanik.pdp.command.CommandList--><!--MD5=[34de6cd7cee81979ea6207ba309d2652]
link in.ashwanik.pdp.command.CommandExecutor to in.ashwanik.pdp.command.Game--><!--MD5=[cae19f6fbd4cf0077072bdf28d45891e]
link in.ashwanik.pdp.command.Game to in.ashwanik.pdp.command.IssuedCommand--><!--MD5=[942281e854f0d143fd715f798d8601bd]
@startuml
title __COMMAND__\n

  namespace in.ashwanik.pdp.command {
    abstract class in.ashwanik.pdp.command.Command {
        + equals()
        + hashCode()
        + toString()
        ~ Command()
        {abstract} ~ execute()
        ~ getDescription()
    }
  }
  

  namespace in.ashwanik.pdp.command {
    class in.ashwanik.pdp.command.CommandDetail {
        - info : String
        - name : String
        + getInfo()
        + getName()
        + toString()
        ~ CommandDetail()
    }
  }
  

  namespace in.ashwanik.pdp.command {
    class in.ashwanik.pdp.command.CommandExecutor {
        {static} ~ execute()
        {static} - getCommand()
    }
  }
  

  namespace in.ashwanik.pdp.command {
    class in.ashwanik.pdp.command.CommandList {
        - commandsMap : Map<String, Command>
        {static} - list : CommandList
        {static} ~ get()
        ~ getCommand()
        ~ getCommands()
        {static} ~ getHelp()
        {static} ~ initCommands()
        - CommandList()
        - addCommand()
    }
  }
  

  namespace in.ashwanik.pdp.command {
    class in.ashwanik.pdp.command.Game {
        - started : boolean
        + help()
        + isStarted()
        + newGame()
        + quit()
        + start()
        ~ Game()
    }
  }
  

  namespace in.ashwanik.pdp.command {
    class in.ashwanik.pdp.command.Help {
        {static} - log : Logger
        ~ Help()
        ~ execute()
    }
  }
  

  namespace in.ashwanik.pdp.command {
    class in.ashwanik.pdp.command.IssuedCommand {
        - stringRepresentation : String
        - tokens : List<String>
        + getCommand()
        ~ IssuedCommand()
        ~ addToken()
        ~ getArgs()
    }
  }
  

  namespace in.ashwanik.pdp.command {
    class in.ashwanik.pdp.command.New {
        {static} - log : Logger
        ~ New()
        ~ execute()
    }
  }
  

  namespace in.ashwanik.pdp.command {
    class in.ashwanik.pdp.command.Quit {
        {static} - log : Logger
        ~ Quit()
        ~ execute()
    }
  }
  

  namespace in.ashwanik.pdp.command {
    class in.ashwanik.pdp.command.Start {
        {static} - log : Logger
        ~ Start()
        ~ execute()
    }
  }
  

  in.ashwanik.pdp.command.Command o- - in.ashwanik.pdp.command.CommandDetail : description
  in.ashwanik.pdp.command.Help -up-|> in.ashwanik.pdp.command.Command
  in.ashwanik.pdp.command.New -up-|> in.ashwanik.pdp.command.Command
  in.ashwanik.pdp.command.Quit -up-|> in.ashwanik.pdp.command.Command
  in.ashwanik.pdp.command.Start -up-|> in.ashwanik.pdp.command.Command
@enduml

PlantUML version 1.2019.11(Sun Sep 22 10:02:15 UTC 2019)
(GPL source distribution)
Java Runtime: Java(TM) SE Runtime Environment
JVM: Java HotSpot(TM) 64-Bit Server VM
Java Version: 1.7.0_25-b15
Operating System: Linux
Default Encoding: UTF-8
Language: en
Country: US
--></g></svg>