<?xml version="1.0" encoding="UTF-8" standalone="no"?>
<svg xmlns="http://www.w3.org/2000/svg" xmlns:xlink="http://www.w3.org/1999/xlink" contentScriptType="application/ecmascript" contentStyleType="text/css" height="480px" preserveAspectRatio="none" style="width:482px;height:480px;" version="1.1" viewBox="0 0 482 480" width="482px" zoomAndPan="magnify"><defs><filter height="300%" id="f12w5x0u3kdg7p" width="300%" x="-1" y="-1"><feGaussianBlur result="blurOut" stdDeviation="2.0"/><feColorMatrix in="blurOut" result="blurOut2" type="matrix" values="0 0 0 0 0 0 0 0 0 0 0 0 0 0 0 0 0 0 .4 0"/><feOffset dx="4.0" dy="4.0" in="blurOut2" result="blurOut3"/><feBlend in="SourceGraphic" in2="blurOut3" mode="normal"/></filter></defs><g><text fill="#000000" font-family="sans-serif" font-size="18" lengthAdjust="spacingAndGlyphs" text-decoration="underline" textLength="108" x="193" y="16.708">COMPOSITE</text><text fill="#000000" font-family="sans-serif" font-size="18" lengthAdjust="spacingAndGlyphs" textLength="0" x="250" y="37.6611"/><!--MD5=[6caf42f666a74125c2016b64f7923a93]
cluster in.ashwanik.pdp.composite--><polygon fill="#FFFFFF" filter="url(#f12w5x0u3kdg7p)" points="22,65.9063,243,65.9063,250,88.2031,460,88.2031,460,468.9063,22,468.9063,22,65.9063" style="stroke: #000000; stroke-width: 1.5;"/><line style="stroke: #000000; stroke-width: 1.5;" x1="22" x2="250" y1="88.2031" y2="88.2031"/><text fill="#000000" font-family="sans-serif" font-size="14" font-weight="bold" lengthAdjust="spacingAndGlyphs" textLength="215" x="26" y="80.9014">in.ashwanik.pdp.composite</text><!--MD5=[b2a68116c9e5005a08a71d0df5bb95cd]
class in.ashwanik.pdp.composite.Directory--><rect fill="#FEFECE" filter="url(#f12w5x0u3kdg7p)" height="124.8281" id="in.ashwanik.pdp.composite.Directory" style="stroke: #A80036; stroke-width: 1.5;" width="145" x="38.5" y="327.9063"/><ellipse cx="79.15" cy="343.9063" fill="#ADD1B2" rx="11" ry="11" style="stroke: #A80036; stroke-width: 1.0;"/><path d="M81.4938,339.5781 L81.6656,339.6563 C81.8844,339.3438 82.0875,339.25 82.3844,339.25 C82.6813,339.25 82.9625,339.3906 83.1188,339.6563 C83.2125,339.8125 83.2281,339.9375 83.2281,340.375 L83.2281,341.7969 C83.2281,342.2188 83.1969,342.4063 83.0875,342.5625 C82.9156,342.7813 82.65,342.9219 82.3844,342.9219 C82.1656,342.9219 81.9313,342.8125 81.7906,342.6719 C81.65,342.5469 81.6188,342.4219 81.5563,342.0156 C81.4625,341.6094 81.2906,341.3906 80.8063,341.1094 C80.3375,340.8594 79.7281,340.7031 79.15,340.7031 C77.4156,340.7031 76.1656,342.0156 76.1656,343.7969 L76.1656,344.8906 C76.1656,346.5938 77.4625,347.6875 79.5094,347.6875 C80.275,347.6875 80.9625,347.5625 81.3844,347.2969 C81.5719,347.2031 81.5719,347.2031 82.025,346.7188 C82.2125,346.5313 82.4156,346.4531 82.6344,346.4531 C83.1031,346.4531 83.4938,346.8438 83.4938,347.2969 C83.4938,347.6875 83.1656,348.1406 82.5875,348.5469 C81.8375,349.0938 80.6813,349.3906 79.4625,349.3906 C76.5719,349.3906 74.4625,347.5 74.4625,344.9219 L74.4625,343.7969 C74.4625,341.0781 76.4625,339 79.0875,339 C79.9625,339 80.5563,339.1406 81.4938,339.5781 Z "/><text fill="#000000" font-family="sans-serif" font-size="12" lengthAdjust="spacingAndGlyphs" textLength="56" x="98.85" y="348.0605">Directory</text><line style="stroke: #A80036; stroke-width: 1.5;" x1="39.5" x2="182.5" y1="359.9063" y2="359.9063"/><rect fill="none" height="6" style="stroke: #C82930; stroke-width: 1.0;" width="6" x="46.5" y="367.9063"/><text fill="#000000" font-family="sans-serif" font-size="11" lengthAdjust="spacingAndGlyphs" textLength="119" x="58.5" y="374.1167">entries : List&lt;Entry&gt;</text><line style="stroke: #A80036; stroke-width: 1.5;" x1="39.5" x2="182.5" y1="380.7109" y2="380.7109"/><polygon fill="#4177AF" points="49.5,387.7109,45.5,393.7109,53.5,393.7109" style="stroke: #1963A0; stroke-width: 1.0;"/><text fill="#000000" font-family="sans-serif" font-size="11" lengthAdjust="spacingAndGlyphs" textLength="59" x="58.5" y="394.9214">Directory()</text><polygon fill="#4177AF" points="49.5,400.5156,45.5,406.5156,53.5,406.5156" style="stroke: #1963A0; stroke-width: 1.0;"/><text fill="#000000" font-family="sans-serif" font-size="11" lengthAdjust="spacingAndGlyphs" textLength="58" x="58.5" y="407.7261">addEntry()</text><polygon fill="#4177AF" points="49.5,413.3203,45.5,419.3203,53.5,419.3203" style="stroke: #1963A0; stroke-width: 1.0;"/><text fill="#000000" font-family="sans-serif" font-size="11" lengthAdjust="spacingAndGlyphs" textLength="43" x="58.5" y="420.5308">delete()</text><polygon fill="#4177AF" points="49.5,426.125,45.5,432.125,53.5,432.125" style="stroke: #1963A0; stroke-width: 1.0;"/><text fill="#000000" font-family="sans-serif" font-size="11" lengthAdjust="spacingAndGlyphs" textLength="29" x="58.5" y="433.3354">find()</text><polygon fill="#4177AF" points="49.5,438.9297,45.5,444.9297,53.5,444.9297" style="stroke: #1963A0; stroke-width: 1.0;"/><text fill="#000000" font-family="sans-serif" font-size="11" lengthAdjust="spacingAndGlyphs" textLength="69" x="58.5" y="446.1401">isDirectory()</text><!--MD5=[aa8a748f36e8bcb830290e8c7d5d3cd2]
class in.ashwanik.pdp.composite.Entry--><rect fill="#FEFECE" filter="url(#f12w5x0u3kdg7p)" height="112.0234" id="in.ashwanik.pdp.composite.Entry" style="stroke: #A80036; stroke-width: 1.5;" width="104" x="284" y="119.9063"/><ellipse cx="316.55" cy="135.9063" fill="#A9DCDF" rx="11" ry="11" style="stroke: #A80036; stroke-width: 1.0;"/><path d="M318.1281,137.7188 L314.0813,137.7188 L313.6906,138.7031 L314.0813,138.7031 C314.5344,138.7031 314.675,138.7344 314.8469,138.8594 C315.0656,139.0313 315.1906,139.2813 315.1906,139.5625 C315.1906,139.8438 315.05,140.1406 314.7844,140.2813 C314.6594,140.375 314.4406,140.4063 314.0813,140.4063 L311.8156,140.4063 C311.0656,140.4063 310.6906,140.125 310.6906,139.5625 C310.6906,139.2656 310.8469,138.9844 311.0969,138.8281 C311.2531,138.7188 311.4094,138.7031 311.8313,138.7031 L314.4719,132.1875 L313.3938,132.1875 C312.9563,132.1875 312.7844,132.1563 312.6125,132.0469 C312.3938,131.875 312.2531,131.625 312.2531,131.3438 C312.2531,131.0625 312.4094,130.7813 312.6594,130.6094 C312.8156,130.5156 312.9406,130.5 313.3938,130.5 L317.0656,130.5 L320.4563,138.7031 C320.925,138.7031 321.0813,138.7344 321.2531,138.875 C321.4719,139.0313 321.6125,139.2813 321.6125,139.5625 C321.6125,139.8438 321.4563,140.1406 321.2063,140.2813 C321.0656,140.375 320.8469,140.4063 320.4875,140.4063 L318.1281,140.4063 C317.7063,140.4063 317.5031,140.3594 317.3625,140.2344 C317.1438,140.0781 317.0031,139.8281 317.0031,139.5625 C317.0031,139.2656 317.1594,138.9844 317.4094,138.8281 C317.5656,138.7188 317.675,138.7031 318.1281,138.7031 L318.5188,138.7031 Z M317.425,136.0156 L316.0969,132.75 L314.7531,136.0156 Z "/><text fill="#000000" font-family="sans-serif" font-size="12" font-style="italic" lengthAdjust="spacingAndGlyphs" textLength="33" x="334.45" y="140.0605">Entry</text><line style="stroke: #A80036; stroke-width: 1.5;" x1="285" x2="387" y1="151.9063" y2="151.9063"/><rect fill="none" height="6" style="stroke: #C82930; stroke-width: 1.0;" width="6" x="292" y="159.9063"/><text fill="#000000" font-family="sans-serif" font-size="11" lengthAdjust="spacingAndGlyphs" textLength="78" x="304" y="166.1167">name : String</text><line style="stroke: #A80036; stroke-width: 1.5;" x1="285" x2="387" y1="172.7109" y2="172.7109"/><ellipse cx="295" cy="183.7109" fill="#84BE84" rx="3" ry="3" style="stroke: #038048; stroke-width: 1.0;"/><text fill="#000000" font-family="sans-serif" font-size="11" lengthAdjust="spacingAndGlyphs" textLength="59" x="304" y="186.9214">getName()</text><polygon fill="#4177AF" points="295,192.5156,291,198.5156,299,198.5156" style="stroke: #1963A0; stroke-width: 1.0;"/><text fill="#000000" font-family="sans-serif" font-size="11" lengthAdjust="spacingAndGlyphs" textLength="37" x="304" y="199.7261">Entry()</text><polygon fill="#4177AF" points="295,205.3203,291,211.3203,299,211.3203" style="stroke: #1963A0; stroke-width: 1.0;"/><text fill="#000000" font-family="sans-serif" font-size="11" font-style="italic" lengthAdjust="spacingAndGlyphs" textLength="43" x="304" y="212.5308">delete()</text><polygon fill="#4177AF" points="295,218.125,291,224.125,299,224.125" style="stroke: #1963A0; stroke-width: 1.0;"/><text fill="#000000" font-family="sans-serif" font-size="11" font-style="italic" lengthAdjust="spacingAndGlyphs" textLength="69" x="304" y="225.3354">isDirectory()</text><!--MD5=[82af1cba721babd805e9599ea9e70dc9]
class in.ashwanik.pdp.composite.File--><rect fill="#FEFECE" filter="url(#f12w5x0u3kdg7p)" height="86.4141" id="in.ashwanik.pdp.composite.File" style="stroke: #A80036; stroke-width: 1.5;" width="95" x="218.5" y="347.4063"/><ellipse cx="252.4" cy="363.4063" fill="#ADD1B2" rx="11" ry="11" style="stroke: #A80036; stroke-width: 1.0;"/><path d="M254.7438,359.0781 L254.9156,359.1563 C255.1344,358.8438 255.3375,358.75 255.6344,358.75 C255.9313,358.75 256.2125,358.8906 256.3688,359.1563 C256.4625,359.3125 256.4781,359.4375 256.4781,359.875 L256.4781,361.2969 C256.4781,361.7188 256.4469,361.9063 256.3375,362.0625 C256.1656,362.2813 255.9,362.4219 255.6344,362.4219 C255.4156,362.4219 255.1813,362.3125 255.0406,362.1719 C254.9,362.0469 254.8688,361.9219 254.8063,361.5156 C254.7125,361.1094 254.5406,360.8906 254.0563,360.6094 C253.5875,360.3594 252.9781,360.2031 252.4,360.2031 C250.6656,360.2031 249.4156,361.5156 249.4156,363.2969 L249.4156,364.3906 C249.4156,366.0938 250.7125,367.1875 252.7594,367.1875 C253.525,367.1875 254.2125,367.0625 254.6344,366.7969 C254.8219,366.7031 254.8219,366.7031 255.275,366.2188 C255.4625,366.0313 255.6656,365.9531 255.8844,365.9531 C256.3531,365.9531 256.7438,366.3438 256.7438,366.7969 C256.7438,367.1875 256.4156,367.6406 255.8375,368.0469 C255.0875,368.5938 253.9313,368.8906 252.7125,368.8906 C249.8219,368.8906 247.7125,367 247.7125,364.4219 L247.7125,363.2969 C247.7125,360.5781 249.7125,358.5 252.3375,358.5 C253.2125,358.5 253.8063,358.6406 254.7438,359.0781 Z "/><text fill="#000000" font-family="sans-serif" font-size="12" lengthAdjust="spacingAndGlyphs" textLength="21" x="270.6" y="367.5605">File</text><line style="stroke: #A80036; stroke-width: 1.5;" x1="219.5" x2="312.5" y1="379.4063" y2="379.4063"/><line style="stroke: #A80036; stroke-width: 1.5;" x1="219.5" x2="312.5" y1="387.4063" y2="387.4063"/><polygon fill="#4177AF" points="229.5,394.4063,225.5,400.4063,233.5,400.4063" style="stroke: #1963A0; stroke-width: 1.0;"/><text fill="#000000" font-family="sans-serif" font-size="11" lengthAdjust="spacingAndGlyphs" textLength="27" x="238.5" y="401.6167">File()</text><polygon fill="#4177AF" points="229.5,407.2109,225.5,413.2109,233.5,413.2109" style="stroke: #1963A0; stroke-width: 1.0;"/><text fill="#000000" font-family="sans-serif" font-size="11" lengthAdjust="spacingAndGlyphs" textLength="43" x="238.5" y="414.4214">delete()</text><polygon fill="#4177AF" points="229.5,420.0156,225.5,426.0156,233.5,426.0156" style="stroke: #1963A0; stroke-width: 1.0;"/><text fill="#000000" font-family="sans-serif" font-size="11" lengthAdjust="spacingAndGlyphs" textLength="69" x="238.5" y="427.2261">isDirectory()</text><!--MD5=[b95716ab2327e88e29660517cecaa013]
class in.ashwanik.pdp.composite.FileSystem--><rect fill="#FEFECE" filter="url(#f12w5x0u3kdg7p)" height="150.4375" id="in.ashwanik.pdp.composite.FileSystem" style="stroke: #A80036; stroke-width: 1.5;" width="153" x="76.5" y="100.9063"/><ellipse cx="116.25" cy="116.9063" fill="#ADD1B2" rx="11" ry="11" style="stroke: #A80036; stroke-width: 1.0;"/><path d="M118.5938,112.5781 L118.7656,112.6563 C118.9844,112.3438 119.1875,112.25 119.4844,112.25 C119.7813,112.25 120.0625,112.3906 120.2188,112.6563 C120.3125,112.8125 120.3281,112.9375 120.3281,113.375 L120.3281,114.7969 C120.3281,115.2188 120.2969,115.4063 120.1875,115.5625 C120.0156,115.7813 119.75,115.9219 119.4844,115.9219 C119.2656,115.9219 119.0313,115.8125 118.8906,115.6719 C118.75,115.5469 118.7188,115.4219 118.6563,115.0156 C118.5625,114.6094 118.3906,114.3906 117.9063,114.1094 C117.4375,113.8594 116.8281,113.7031 116.25,113.7031 C114.5156,113.7031 113.2656,115.0156 113.2656,116.7969 L113.2656,117.8906 C113.2656,119.5938 114.5625,120.6875 116.6094,120.6875 C117.375,120.6875 118.0625,120.5625 118.4844,120.2969 C118.6719,120.2031 118.6719,120.2031 119.125,119.7188 C119.3125,119.5313 119.5156,119.4531 119.7344,119.4531 C120.2031,119.4531 120.5938,119.8438 120.5938,120.2969 C120.5938,120.6875 120.2656,121.1406 119.6875,121.5469 C118.9375,122.0938 117.7813,122.3906 116.5625,122.3906 C113.6719,122.3906 111.5625,120.5 111.5625,117.9219 L111.5625,116.7969 C111.5625,114.0781 113.5625,112 116.1875,112 C117.0625,112 117.6563,112.1406 118.5938,112.5781 Z "/><text fill="#000000" font-family="sans-serif" font-size="12" lengthAdjust="spacingAndGlyphs" textLength="66" x="135.75" y="121.0605">FileSystem</text><line style="stroke: #A80036; stroke-width: 1.5;" x1="77.5" x2="228.5" y1="132.9063" y2="132.9063"/><rect fill="none" height="6" style="stroke: #C82930; stroke-width: 1.0;" width="6" x="84.5" y="140.9063"/><text fill="#000000" font-family="sans-serif" font-size="11" lengthAdjust="spacingAndGlyphs" textLength="119" x="96.5" y="147.1167">entries : List&lt;Entry&gt;</text><rect fill="none" height="6" style="stroke: #C82930; stroke-width: 1.0;" width="6" x="84.5" y="153.7109"/><text fill="#000000" font-family="sans-serif" font-size="11" lengthAdjust="spacingAndGlyphs" textLength="78" x="96.5" y="159.9214">name : String</text><line style="stroke: #A80036; stroke-width: 1.5;" x1="77.5" x2="228.5" y1="166.5156" y2="166.5156"/><ellipse cx="87.5" cy="177.5156" fill="#84BE84" rx="3" ry="3" style="stroke: #038048; stroke-width: 1.0;"/><text fill="#000000" font-family="sans-serif" font-size="11" lengthAdjust="spacingAndGlyphs" textLength="59" x="96.5" y="180.7261">getName()</text><polygon fill="#4177AF" points="87.5,186.3203,83.5,192.3203,91.5,192.3203" style="stroke: #1963A0; stroke-width: 1.0;"/><text fill="#000000" font-family="sans-serif" font-size="11" lengthAdjust="spacingAndGlyphs" textLength="70" x="96.5" y="193.5308">FileSystem()</text><polygon fill="#4177AF" points="87.5,199.125,83.5,205.125,91.5,205.125" style="stroke: #1963A0; stroke-width: 1.0;"/><text fill="#000000" font-family="sans-serif" font-size="11" lengthAdjust="spacingAndGlyphs" textLength="29" x="96.5" y="206.3354">add()</text><polygon fill="#4177AF" points="87.5,211.9297,83.5,217.9297,91.5,217.9297" style="stroke: #1963A0; stroke-width: 1.0;"/><text fill="#000000" font-family="sans-serif" font-size="11" lengthAdjust="spacingAndGlyphs" textLength="43" x="96.5" y="219.1401">delete()</text><polygon fill="#4177AF" points="87.5,224.7344,83.5,230.7344,91.5,230.7344" style="stroke: #1963A0; stroke-width: 1.0;"/><text fill="#000000" font-family="sans-serif" font-size="11" lengthAdjust="spacingAndGlyphs" textLength="127" x="96.5" y="231.9448">numberOfDirectories()</text><polygon fill="#4177AF" points="87.5,237.5391,83.5,243.5391,91.5,243.5391" style="stroke: #1963A0; stroke-width: 1.0;"/><text fill="#000000" font-family="sans-serif" font-size="11" lengthAdjust="spacingAndGlyphs" textLength="91" x="96.5" y="244.7495">numberOfFiles()</text><!--MD5=[f87d15bd7ab0e8effd5c3cbab31908a6]
class in.ashwanik.pdp.composite.Shortcut--><rect fill="#FEFECE" filter="url(#f12w5x0u3kdg7p)" height="86.4141" id="in.ashwanik.pdp.composite.Shortcut" style="stroke: #A80036; stroke-width: 1.5;" width="95" x="348.5" y="347.4063"/><ellipse cx="367.55" cy="363.4063" fill="#ADD1B2" rx="11" ry="11" style="stroke: #A80036; stroke-width: 1.0;"/><path d="M369.8938,359.0781 L370.0656,359.1563 C370.2844,358.8438 370.4875,358.75 370.7844,358.75 C371.0813,358.75 371.3625,358.8906 371.5188,359.1563 C371.6125,359.3125 371.6281,359.4375 371.6281,359.875 L371.6281,361.2969 C371.6281,361.7188 371.5969,361.9063 371.4875,362.0625 C371.3156,362.2813 371.05,362.4219 370.7844,362.4219 C370.5656,362.4219 370.3313,362.3125 370.1906,362.1719 C370.05,362.0469 370.0188,361.9219 369.9563,361.5156 C369.8625,361.1094 369.6906,360.8906 369.2063,360.6094 C368.7375,360.3594 368.1281,360.2031 367.55,360.2031 C365.8156,360.2031 364.5656,361.5156 364.5656,363.2969 L364.5656,364.3906 C364.5656,366.0938 365.8625,367.1875 367.9094,367.1875 C368.675,367.1875 369.3625,367.0625 369.7844,366.7969 C369.9719,366.7031 369.9719,366.7031 370.425,366.2188 C370.6125,366.0313 370.8156,365.9531 371.0344,365.9531 C371.5031,365.9531 371.8938,366.3438 371.8938,366.7969 C371.8938,367.1875 371.5656,367.6406 370.9875,368.0469 C370.2375,368.5938 369.0813,368.8906 367.8625,368.8906 C364.9719,368.8906 362.8625,367 362.8625,364.4219 L362.8625,363.2969 C362.8625,360.5781 364.8625,358.5 367.4875,358.5 C368.3625,358.5 368.9563,358.6406 369.8938,359.0781 Z "/><text fill="#000000" font-family="sans-serif" font-size="12" lengthAdjust="spacingAndGlyphs" textLength="54" x="382.45" y="367.5605">Shortcut</text><line style="stroke: #A80036; stroke-width: 1.5;" x1="349.5" x2="442.5" y1="379.4063" y2="379.4063"/><line style="stroke: #A80036; stroke-width: 1.5;" x1="349.5" x2="442.5" y1="387.4063" y2="387.4063"/><polygon fill="#4177AF" points="359.5,394.4063,355.5,400.4063,363.5,400.4063" style="stroke: #1963A0; stroke-width: 1.0;"/><text fill="#000000" font-family="sans-serif" font-size="11" lengthAdjust="spacingAndGlyphs" textLength="56" x="368.5" y="401.6167">Shortcut()</text><polygon fill="#4177AF" points="359.5,407.2109,355.5,413.2109,363.5,413.2109" style="stroke: #1963A0; stroke-width: 1.0;"/><text fill="#000000" font-family="sans-serif" font-size="11" lengthAdjust="spacingAndGlyphs" textLength="43" x="368.5" y="414.4214">delete()</text><polygon fill="#4177AF" points="359.5,420.0156,355.5,426.0156,363.5,426.0156" style="stroke: #1963A0; stroke-width: 1.0;"/><text fill="#000000" font-family="sans-serif" font-size="11" lengthAdjust="spacingAndGlyphs" textLength="69" x="368.5" y="427.2261">isDirectory()</text><!--MD5=[37ab878a0b2df959e7bb9fc34e2adbb6]
reverse link in.ashwanik.pdp.composite.Entry to in.ashwanik.pdp.composite.Directory--><path d="M268.976,240.2063 C239.632,267.9203 205.325,300.3212 176.193,327.8353 " fill="none" id="in.ashwanik.pdp.composite.Entry&lt;-in.ashwanik.pdp.composite.Directory" style="stroke: #A80036; stroke-width: 1.0;"/><polygon fill="none" points="264.468,234.8353,283.815,226.1923,274.081,245.0133,264.468,234.8353" style="stroke: #A80036; stroke-width: 1.0;"/><!--MD5=[2e5444861c97de7954eafaa46953f248]
reverse link in.ashwanik.pdp.composite.Entry to in.ashwanik.pdp.composite.File--><path d="M311.5,251.2813 C300.891,283.4853 288.865,319.9953 279.842,347.3873 " fill="none" id="in.ashwanik.pdp.composite.Entry&lt;-in.ashwanik.pdp.composite.File" style="stroke: #A80036; stroke-width: 1.0;"/><polygon fill="none" points="304.976,248.7123,317.882,231.9063,318.273,253.0923,304.976,248.7123" style="stroke: #A80036; stroke-width: 1.0;"/><!--MD5=[2b958333d42e6e7e20d6d905ebef3c7b]
reverse link in.ashwanik.pdp.composite.Entry to in.ashwanik.pdp.composite.Shortcut--><path d="M338.935,252.0713 C340.79,267.4462 343.645,283.3653 348,297.9063 C353.044,314.7473 361.26,332.1033 369.481,347.1113 " fill="none" id="in.ashwanik.pdp.composite.Entry&lt;-in.ashwanik.pdp.composite.Shortcut" style="stroke: #A80036; stroke-width: 1.0;"/><polygon fill="none" points="331.95,252.5573,337.006,231.9793,345.886,251.2183,331.95,252.5573" style="stroke: #A80036; stroke-width: 1.0;"/><!--MD5=[6c936cd61d35ce70f63a2657d70ba9b0]
reverse link in.ashwanik.pdp.composite.Shortcut to in.ashwanik.pdp.composite.Entry--><path d="M380.59,334.8273 C371.668,303.2303 360.471,263.5753 351.53,231.9063 " fill="none" id="in.ashwanik.pdp.composite.Shortcut&lt;-in.ashwanik.pdp.composite.Entry" style="stroke: #A80036; stroke-width: 1.0;"/><polygon fill="#FFFFFF" points="384.136,347.3873,386.355,340.5261,380.8751,335.8388,378.6561,342.7,384.136,347.3873" style="stroke: #A80036; stroke-width: 1.0;"/><text fill="#000000" font-family="sans-serif" font-size="13" lengthAdjust="spacingAndGlyphs" textLength="33" x="370" y="293.9731">entry</text><!--MD5=[9695c6da044ac3c8518164c48f340cf8]
@startuml
title __COMPOSITE__\n

  namespace in.ashwanik.pdp.composite {
    class in.ashwanik.pdp.composite.Directory {
        - entries : List<Entry>
        ~ Directory()
        ~ addEntry()
        ~ delete()
        ~ find()
        ~ isDirectory()
    }
  }
  

  namespace in.ashwanik.pdp.composite {
    abstract class in.ashwanik.pdp.composite.Entry {
        - name : String
        + getName()
        ~ Entry()
        {abstract} ~ delete()
        {abstract} ~ isDirectory()
    }
  }
  

  namespace in.ashwanik.pdp.composite {
    class in.ashwanik.pdp.composite.File {
        ~ File()
        ~ delete()
        ~ isDirectory()
    }
  }
  

  namespace in.ashwanik.pdp.composite {
    class in.ashwanik.pdp.composite.FileSystem {
        - entries : List<Entry>
        - name : String
        + getName()
        ~ FileSystem()
        ~ add()
        ~ delete()
        ~ numberOfDirectories()
        ~ numberOfFiles()
    }
  }
  

  namespace in.ashwanik.pdp.composite {
    class in.ashwanik.pdp.composite.Shortcut {
        ~ Shortcut()
        ~ delete()
        ~ isDirectory()
    }
  }
  

  in.ashwanik.pdp.composite.Directory -up-|> in.ashwanik.pdp.composite.Entry
  in.ashwanik.pdp.composite.File -up-|> in.ashwanik.pdp.composite.Entry
  in.ashwanik.pdp.composite.Shortcut -up-|> in.ashwanik.pdp.composite.Entry
  in.ashwanik.pdp.composite.Shortcut o- - in.ashwanik.pdp.composite.Entry : entry
@enduml

PlantUML version 1.2019.11(Sun Sep 22 10:02:15 UTC 2019)
(GPL source distribution)
Java Runtime: Java(TM) SE Runtime Environment
JVM: Java HotSpot(TM) 64-Bit Server VM
Java Version: 1.7.0_25-b15
Operating System: Linux
Default Encoding: UTF-8
Language: en
Country: US
--></g></svg>