<?xml version="1.0" encoding="UTF-8" standalone="no"?>
<svg xmlns="http://www.w3.org/2000/svg" xmlns:xlink="http://www.w3.org/1999/xlink" contentScriptType="application/ecmascript" contentStyleType="text/css" height="426px" preserveAspectRatio="none" style="width:374px;height:426px;" version="1.1" viewBox="0 0 374 426" width="374px" zoomAndPan="magnify"><defs><filter height="300%" id="f1v9qjh8o0hfj9" width="300%" x="-1" y="-1"><feGaussianBlur result="blurOut" stdDeviation="2.0"/><feColorMatrix in="blurOut" result="blurOut2" type="matrix" values="0 0 0 0 0 0 0 0 0 0 0 0 0 0 0 0 0 0 .4 0"/><feOffset dx="4.0" dy="4.0" in="blurOut2" result="blurOut3"/><feBlend in="SourceGraphic" in2="blurOut3" mode="normal"/></filter></defs><g><text fill="#000000" font-family="sans-serif" font-size="18" lengthAdjust="spacingAndGlyphs" text-decoration="underline" textLength="40" x="173" y="16.708">COR</text><text fill="#000000" font-family="sans-serif" font-size="18" lengthAdjust="spacingAndGlyphs" textLength="0" x="196" y="37.6611"/><!--cluster in.ashwanik.pdp.cor--><polygon fill="#FFFFFF" filter="url(#f1v9qjh8o0hfj9)" points="22,65.9063,187,65.9063,194,88.2031,352,88.2031,352,414.9063,22,414.9063,22,65.9063" style="stroke: #000000; stroke-width: 1.5;"/><line style="stroke: #000000; stroke-width: 1.5;" x1="22" x2="194" y1="88.2031" y2="88.2031"/><text fill="#000000" font-family="sans-serif" font-size="14" font-weight="bold" lengthAdjust="spacingAndGlyphs" textLength="159" x="26" y="80.9014">in.ashwanik.pdp.cor</text><!--class in.ashwanik.pdp.cor.AbstractLogger--><rect fill="#FEFECE" filter="url(#f1v9qjh8o0hfj9)" height="163.2422" id="in.ashwanik.pdp.cor.AbstractLogger" style="stroke: #A80036; stroke-width: 1.5;" width="196" x="38" y="100.9063"/><ellipse cx="83.75" cy="116.9063" fill="#A9DCDF" rx="11" ry="11" style="stroke: #A80036; stroke-width: 1.0;"/><path d="M85.3281,118.7188 L81.2813,118.7188 L80.8906,119.7031 L81.2813,119.7031 C81.7344,119.7031 81.875,119.7344 82.0469,119.8594 C82.2656,120.0313 82.3906,120.2813 82.3906,120.5625 C82.3906,120.8438 82.25,121.1406 81.9844,121.2813 C81.8594,121.375 81.6406,121.4063 81.2813,121.4063 L79.0156,121.4063 C78.2656,121.4063 77.8906,121.125 77.8906,120.5625 C77.8906,120.2656 78.0469,119.9844 78.2969,119.8281 C78.4531,119.7188 78.6094,119.7031 79.0313,119.7031 L81.6719,113.1875 L80.5938,113.1875 C80.1563,113.1875 79.9844,113.1563 79.8125,113.0469 C79.5938,112.875 79.4531,112.625 79.4531,112.3438 C79.4531,112.0625 79.6094,111.7813 79.8594,111.6094 C80.0156,111.5156 80.1406,111.5 80.5938,111.5 L84.2656,111.5 L87.6563,119.7031 C88.125,119.7031 88.2813,119.7344 88.4531,119.875 C88.6719,120.0313 88.8125,120.2813 88.8125,120.5625 C88.8125,120.8438 88.6563,121.1406 88.4063,121.2813 C88.2656,121.375 88.0469,121.4063 87.6875,121.4063 L85.3281,121.4063 C84.9063,121.4063 84.7031,121.3594 84.5625,121.2344 C84.3438,121.0781 84.2031,120.8281 84.2031,120.5625 C84.2031,120.2656 84.3594,119.9844 84.6094,119.8281 C84.7656,119.7188 84.875,119.7031 85.3281,119.7031 L85.7188,119.7031 Z M84.625,117.0156 L83.2969,113.75 L81.9531,117.0156 Z "/><text fill="#000000" font-family="sans-serif" font-size="12" font-style="italic" lengthAdjust="spacingAndGlyphs" textLength="96" x="104.25" y="121.0605">AbstractLogger</text><line style="stroke: #A80036; stroke-width: 1.5;" x1="39" x2="233" y1="132.9063" y2="132.9063"/><polygon fill="none" points="49,138.9063,53,142.9063,49,146.9063,45,142.9063" style="stroke: #B38D22; stroke-width: 1.0;"/><text fill="#000000" font-family="sans-serif" font-size="11" lengthAdjust="spacingAndGlyphs" textLength="170" x="58" y="147.1167">outputStream : OutputStream</text><polygon fill="none" points="49,152.7109,45,158.7109,53,158.7109" style="stroke: #1963A0; stroke-width: 1.0;"/><text fill="#000000" font-family="sans-serif" font-size="11" lengthAdjust="spacingAndGlyphs" text-decoration="underline" textLength="66" x="58" y="159.9214">DEBUG : int</text><polygon fill="none" points="49,165.5156,45,171.5156,53,171.5156" style="stroke: #1963A0; stroke-width: 1.0;"/><text fill="#000000" font-family="sans-serif" font-size="11" lengthAdjust="spacingAndGlyphs" text-decoration="underline" textLength="63" x="58" y="172.7261">ERROR : int</text><polygon fill="none" points="49,178.3203,45,184.3203,53,184.3203" style="stroke: #1963A0; stroke-width: 1.0;"/><text fill="#000000" font-family="sans-serif" font-size="11" lengthAdjust="spacingAndGlyphs" text-decoration="underline" textLength="52" x="58" y="185.5308">INFO : int</text><polygon fill="none" points="49,191.125,45,197.125,53,197.125" style="stroke: #1963A0; stroke-width: 1.0;"/><text fill="#000000" font-family="sans-serif" font-size="11" lengthAdjust="spacingAndGlyphs" textLength="52" x="58" y="198.3354">level : int</text><line style="stroke: #A80036; stroke-width: 1.5;" x1="39" x2="233" y1="204.9297" y2="204.9297"/><polygon fill="#4177AF" points="49,211.9297,45,217.9297,53,217.9297" style="stroke: #1963A0; stroke-width: 1.0;"/><text fill="#000000" font-family="sans-serif" font-size="11" lengthAdjust="spacingAndGlyphs" textLength="94" x="58" y="219.1401">AbstractLogger()</text><polygon fill="#4177AF" points="49,224.7344,45,230.7344,53,230.7344" style="stroke: #1963A0; stroke-width: 1.0;"/><text fill="#000000" font-family="sans-serif" font-size="11" lengthAdjust="spacingAndGlyphs" textLength="76" x="58" y="231.9448">logMessage()</text><polygon fill="#4177AF" points="49,237.5391,45,243.5391,53,243.5391" style="stroke: #1963A0; stroke-width: 1.0;"/><text fill="#000000" font-family="sans-serif" font-size="11" lengthAdjust="spacingAndGlyphs" textLength="90" x="58" y="244.7495">setNextLogger()</text><polygon fill="#4177AF" points="49,250.3438,45,256.3438,53,256.3438" style="stroke: #1963A0; stroke-width: 1.0;"/><text fill="#000000" font-family="sans-serif" font-size="11" font-style="italic" lengthAdjust="spacingAndGlyphs" textLength="36" x="58" y="257.5542">write()</text><!--class in.ashwanik.pdp.cor.ConsoleLogger--><rect fill="#FEFECE" filter="url(#f1v9qjh8o0hfj9)" height="73.6094" id="in.ashwanik.pdp.cor.ConsoleLogger" style="stroke: #A80036; stroke-width: 1.5;" width="125" x="47.5" y="324.9063"/><ellipse cx="62.5" cy="340.9063" fill="#ADD1B2" rx="11" ry="11" style="stroke: #A80036; stroke-width: 1.0;"/><path d="M64.8438,336.5781 L65.0156,336.6563 C65.2344,336.3438 65.4375,336.25 65.7344,336.25 C66.0313,336.25 66.3125,336.3906 66.4688,336.6563 C66.5625,336.8125 66.5781,336.9375 66.5781,337.375 L66.5781,338.7969 C66.5781,339.2188 66.5469,339.4063 66.4375,339.5625 C66.2656,339.7813 66,339.9219 65.7344,339.9219 C65.5156,339.9219 65.2813,339.8125 65.1406,339.6719 C65,339.5469 64.9688,339.4219 64.9063,339.0156 C64.8125,338.6094 64.6406,338.3906 64.1563,338.1094 C63.6875,337.8594 63.0781,337.7031 62.5,337.7031 C60.7656,337.7031 59.5156,339.0156 59.5156,340.7969 L59.5156,341.8906 C59.5156,343.5938 60.8125,344.6875 62.8594,344.6875 C63.625,344.6875 64.3125,344.5625 64.7344,344.2969 C64.9219,344.2031 64.9219,344.2031 65.375,343.7188 C65.5625,343.5313 65.7656,343.4531 65.9844,343.4531 C66.4531,343.4531 66.8438,343.8438 66.8438,344.2969 C66.8438,344.6875 66.5156,345.1406 65.9375,345.5469 C65.1875,346.0938 64.0313,346.3906 62.8125,346.3906 C59.9219,346.3906 57.8125,344.5 57.8125,341.9219 L57.8125,340.7969 C57.8125,338.0781 59.8125,336 62.4375,336 C63.3125,336 63.9063,336.1406 64.8438,336.5781 Z "/><text fill="#000000" font-family="sans-serif" font-size="12" lengthAdjust="spacingAndGlyphs" textLength="93" x="76.5" y="345.0605">ConsoleLogger</text><line style="stroke: #A80036; stroke-width: 1.5;" x1="48.5" x2="171.5" y1="356.9063" y2="356.9063"/><line style="stroke: #A80036; stroke-width: 1.5;" x1="48.5" x2="171.5" y1="364.9063" y2="364.9063"/><polygon fill="#4177AF" points="58.5,371.9063,54.5,377.9063,62.5,377.9063" style="stroke: #1963A0; stroke-width: 1.0;"/><text fill="#000000" font-family="sans-serif" font-size="11" lengthAdjust="spacingAndGlyphs" textLength="93" x="67.5" y="379.1167">ConsoleLogger()</text><polygon fill="#4177AF" points="58.5,384.7109,54.5,390.7109,62.5,390.7109" style="stroke: #1963A0; stroke-width: 1.0;"/><text fill="#000000" font-family="sans-serif" font-size="11" lengthAdjust="spacingAndGlyphs" textLength="36" x="67.5" y="391.9214">write()</text><!--class in.ashwanik.pdp.cor.FileLogger--><rect fill="#FEFECE" filter="url(#f1v9qjh8o0hfj9)" height="73.6094" id="in.ashwanik.pdp.cor.FileLogger" style="stroke: #A80036; stroke-width: 1.5;" width="96" x="208" y="324.9063"/><ellipse cx="223" cy="340.9063" fill="#ADD1B2" rx="11" ry="11" style="stroke: #A80036; stroke-width: 1.0;"/><path d="M225.3438,336.5781 L225.5156,336.6563 C225.7344,336.3438 225.9375,336.25 226.2344,336.25 C226.5313,336.25 226.8125,336.3906 226.9688,336.6563 C227.0625,336.8125 227.0781,336.9375 227.0781,337.375 L227.0781,338.7969 C227.0781,339.2188 227.0469,339.4063 226.9375,339.5625 C226.7656,339.7813 226.5,339.9219 226.2344,339.9219 C226.0156,339.9219 225.7813,339.8125 225.6406,339.6719 C225.5,339.5469 225.4688,339.4219 225.4063,339.0156 C225.3125,338.6094 225.1406,338.3906 224.6563,338.1094 C224.1875,337.8594 223.5781,337.7031 223,337.7031 C221.2656,337.7031 220.0156,339.0156 220.0156,340.7969 L220.0156,341.8906 C220.0156,343.5938 221.3125,344.6875 223.3594,344.6875 C224.125,344.6875 224.8125,344.5625 225.2344,344.2969 C225.4219,344.2031 225.4219,344.2031 225.875,343.7188 C226.0625,343.5313 226.2656,343.4531 226.4844,343.4531 C226.9531,343.4531 227.3438,343.8438 227.3438,344.2969 C227.3438,344.6875 227.0156,345.1406 226.4375,345.5469 C225.6875,346.0938 224.5313,346.3906 223.3125,346.3906 C220.4219,346.3906 218.3125,344.5 218.3125,341.9219 L218.3125,340.7969 C218.3125,338.0781 220.3125,336 222.9375,336 C223.8125,336 224.4063,336.1406 225.3438,336.5781 Z "/><text fill="#000000" font-family="sans-serif" font-size="12" lengthAdjust="spacingAndGlyphs" textLength="64" x="237" y="345.0605">FileLogger</text><line style="stroke: #A80036; stroke-width: 1.5;" x1="209" x2="303" y1="356.9063" y2="356.9063"/><line style="stroke: #A80036; stroke-width: 1.5;" x1="209" x2="303" y1="364.9063" y2="364.9063"/><polygon fill="#4177AF" points="219,371.9063,215,377.9063,223,377.9063" style="stroke: #1963A0; stroke-width: 1.0;"/><text fill="#000000" font-family="sans-serif" font-size="11" lengthAdjust="spacingAndGlyphs" textLength="66" x="228" y="379.1167">FileLogger()</text><polygon fill="#4177AF" points="219,384.7109,215,390.7109,223,390.7109" style="stroke: #1963A0; stroke-width: 1.0;"/><text fill="#000000" font-family="sans-serif" font-size="11" lengthAdjust="spacingAndGlyphs" textLength="36" x="228" y="391.9214">write()</text><!--reverse link in.ashwanik.pdp.cor.AbstractLogger to in.ashwanik.pdp.cor.AbstractLogger--><path d="M246.864,164.3062 C260.246,167.5752 269,173.6083 269,182.4063 C269,193.7813 254.367,200.5353 234.017,202.6683 " fill="none" id="in.ashwanik.pdp.cor.AbstractLogger&lt;-in.ashwanik.pdp.cor.AbstractLogger" style="stroke: #A80036; stroke-width: 1.0;"/><polygon fill="#FFFFFF" points="234.017,162.1443,239.2701,167.0844,245.8506,164.1354,240.5975,159.1953,234.017,162.1443" style="stroke: #A80036; stroke-width: 1.0;"/><text fill="#000000" font-family="sans-serif" font-size="13" lengthAdjust="spacingAndGlyphs" textLength="72" x="275" y="186.9731">nextLogger</text><!--reverse link in.ashwanik.pdp.cor.AbstractLogger to in.ashwanik.pdp.cor.ConsoleLogger--><path d="M121.257,284.0563 C119.127,298.5993 117.06,312.7083 115.291,324.7823 " fill="none" id="in.ashwanik.pdp.cor.AbstractLogger&lt;-in.ashwanik.pdp.cor.ConsoleLogger" style="stroke: #A80036; stroke-width: 1.0;"/><polygon fill="none" points="114.354,282.8803,124.179,264.1063,128.207,284.9093,114.354,282.8803" style="stroke: #A80036; stroke-width: 1.0;"/><!--reverse link in.ashwanik.pdp.cor.AbstractLogger to in.ashwanik.pdp.cor.FileLogger--><path d="M202.03,281.0762 C212.57,296.6653 222.859,311.8853 231.578,324.7823 " fill="none" id="in.ashwanik.pdp.cor.AbstractLogger&lt;-in.ashwanik.pdp.cor.FileLogger" style="stroke: #A80036; stroke-width: 1.0;"/><polygon fill="none" points="195.96,284.5952,190.557,264.1063,207.558,276.7543,195.96,284.5952" style="stroke: #A80036; stroke-width: 1.0;"/><!--
@startuml
title __COR__\n

  namespace in.ashwanik.pdp.cor {
    abstract class in.ashwanik.pdp.cor.AbstractLogger {
        # outputStream : OutputStream
        {static} ~ DEBUG : int
        {static} ~ ERROR : int
        {static} ~ INFO : int
        ~ level : int
        ~ AbstractLogger()
        ~ logMessage()
        ~ setNextLogger()
        {abstract} ~ write()
    }
  }
  

  namespace in.ashwanik.pdp.cor {
    class in.ashwanik.pdp.cor.ConsoleLogger {
        ~ ConsoleLogger()
        ~ write()
    }
  }
  

  namespace in.ashwanik.pdp.cor {
    class in.ashwanik.pdp.cor.FileLogger {
        ~ FileLogger()
        ~ write()
    }
  }
  

  in.ashwanik.pdp.cor.AbstractLogger o- - in.ashwanik.pdp.cor.AbstractLogger : nextLogger
  in.ashwanik.pdp.cor.ConsoleLogger -up-|> in.ashwanik.pdp.cor.AbstractLogger
  in.ashwanik.pdp.cor.FileLogger -up-|> in.ashwanik.pdp.cor.AbstractLogger
@enduml

PlantUML version 1.2019.10beta5(Unknown compile time)
(GPL source distribution)
Java Runtime: Java(TM) SE Runtime Environment
JVM: Java HotSpot(TM) 64-Bit Server VM
Java Version: 1.7.0_25-b15
Operating System: Linux
Default Encoding: UTF-8
Language: en
Country: US
--></g></svg>