<?xml version="1.0" encoding="UTF-8" standalone="no"?>
<svg xmlns="http://www.w3.org/2000/svg" xmlns:xlink="http://www.w3.org/1999/xlink" contentScriptType="application/ecmascript" contentStyleType="text/css" height="362px" preserveAspectRatio="none" style="width:348px;height:362px;" version="1.1" viewBox="0 0 348 362" width="348px" zoomAndPan="magnify"><defs><filter height="300%" id="f1i5ytfdwlwzoh" width="300%" x="-1" y="-1"><feGaussianBlur result="blurOut" stdDeviation="2.0"/><feColorMatrix in="blurOut" result="blurOut2" type="matrix" values="0 0 0 0 0 0 0 0 0 0 0 0 0 0 0 0 0 0 .4 0"/><feOffset dx="4.0" dy="4.0" in="blurOut2" result="blurOut3"/><feBlend in="SourceGraphic" in2="blurOut3" mode="normal"/></filter></defs><g><text fill="#000000" font-family="sans-serif" font-size="18" lengthAdjust="spacingAndGlyphs" text-decoration="underline" textLength="116" x="122" y="16.708">DECORATOR</text><text fill="#000000" font-family="sans-serif" font-size="18" lengthAdjust="spacingAndGlyphs" textLength="0" x="183" y="37.6611"/><!--cluster in.ashwanik.pdp.decorator--><polygon fill="#FFFFFF" filter="url(#f1i5ytfdwlwzoh)" points="23,65.9063,240,65.9063,247,88.2031,301,88.2031,301,202.9063,23,202.9063,23,65.9063" style="stroke: #000000; stroke-width: 1.5;"/><line style="stroke: #000000; stroke-width: 1.5;" x1="23" x2="247" y1="88.2031" y2="88.2031"/><text fill="#000000" font-family="sans-serif" font-size="14" font-weight="bold" lengthAdjust="spacingAndGlyphs" textLength="211" x="27" y="80.9014">in.ashwanik.pdp.decorator</text><!--cluster in.ashwanik.pdp.common.githubjobs--><polygon fill="#FFFFFF" filter="url(#f1i5ytfdwlwzoh)" points="22,251.9063,316,251.9063,323,274.2031,326,274.2031,326,350.9063,22,350.9063,22,251.9063" style="stroke: #000000; stroke-width: 1.5;"/><line style="stroke: #000000; stroke-width: 1.5;" x1="22" x2="323" y1="274.2031" y2="274.2031"/><text fill="#000000" font-family="sans-serif" font-size="14" font-weight="bold" lengthAdjust="spacingAndGlyphs" textLength="288" x="26" y="266.9014">in.ashwanik.pdp.common.githubjobs</text><!--class in.ashwanik.pdp.decorator.CacheGithubJobClientContract--><rect fill="#FEFECE" filter="url(#f1i5ytfdwlwzoh)" height="86.4141" id="in.ashwanik.pdp.decorator.CacheGithubJobClientContract" style="stroke: #A80036; stroke-width: 1.5;" width="246" x="39" y="100.9063"/><ellipse cx="65.7" cy="116.9063" fill="#ADD1B2" rx="11" ry="11" style="stroke: #A80036; stroke-width: 1.0;"/><path d="M68.0438,112.5781 L68.2156,112.6563 C68.4344,112.3438 68.6375,112.25 68.9344,112.25 C69.2313,112.25 69.5125,112.3906 69.6688,112.6563 C69.7625,112.8125 69.7781,112.9375 69.7781,113.375 L69.7781,114.7969 C69.7781,115.2188 69.7469,115.4063 69.6375,115.5625 C69.4656,115.7813 69.2,115.9219 68.9344,115.9219 C68.7156,115.9219 68.4813,115.8125 68.3406,115.6719 C68.2,115.5469 68.1688,115.4219 68.1063,115.0156 C68.0125,114.6094 67.8406,114.3906 67.3563,114.1094 C66.8875,113.8594 66.2781,113.7031 65.7,113.7031 C63.9656,113.7031 62.7156,115.0156 62.7156,116.7969 L62.7156,117.8906 C62.7156,119.5938 64.0125,120.6875 66.0594,120.6875 C66.825,120.6875 67.5125,120.5625 67.9344,120.2969 C68.1219,120.2031 68.1219,120.2031 68.575,119.7188 C68.7625,119.5313 68.9656,119.4531 69.1844,119.4531 C69.6531,119.4531 70.0438,119.8438 70.0438,120.2969 C70.0438,120.6875 69.7156,121.1406 69.1375,121.5469 C68.3875,122.0938 67.2313,122.3906 66.0125,122.3906 C63.1219,122.3906 61.0125,120.5 61.0125,117.9219 L61.0125,116.7969 C61.0125,114.0781 63.0125,112 65.6375,112 C66.5125,112 67.1063,112.1406 68.0438,112.5781 Z "/><text fill="#000000" font-family="sans-serif" font-size="12" lengthAdjust="spacingAndGlyphs" textLength="188" x="82.3" y="121.0605">CacheGithubJobClientContract</text><line style="stroke: #A80036; stroke-width: 1.5;" x1="40" x2="284" y1="132.9063" y2="132.9063"/><rect fill="none" height="6" style="stroke: #C82930; stroke-width: 1.0;" width="6" x="47" y="140.9063"/><text fill="#000000" font-family="sans-serif" font-size="11" lengthAdjust="spacingAndGlyphs" textLength="220" x="59" y="147.1167">cache : Map&lt;String, List&lt;GithubJob&gt;&gt;</text><line style="stroke: #A80036; stroke-width: 1.5;" x1="40" x2="284" y1="153.7109" y2="153.7109"/><ellipse cx="50" cy="164.7109" fill="#84BE84" rx="3" ry="3" style="stroke: #038048; stroke-width: 1.0;"/><text fill="#000000" font-family="sans-serif" font-size="11" lengthAdjust="spacingAndGlyphs" textLength="177" x="59" y="167.9214">CacheGithubJobClientContract()</text><ellipse cx="50" cy="177.5156" fill="#84BE84" rx="3" ry="3" style="stroke: #038048; stroke-width: 1.0;"/><text fill="#000000" font-family="sans-serif" font-size="11" lengthAdjust="spacingAndGlyphs" textLength="50" x="59" y="180.7261">getJobs()</text><!--class in.ashwanik.pdp.common.githubjobs.GithubJobClientContract--><rect fill="#FEFECE" filter="url(#f1i5ytfdwlwzoh)" height="48" id="in.ashwanik.pdp.common.githubjobs.GithubJobClientContract" style="stroke: #A80036; stroke-width: 1.5;" width="181" x="54.5" y="286.9063"/><ellipse cx="69.5" cy="302.9063" fill="#ADD1B2" rx="11" ry="11" style="stroke: #A80036; stroke-width: 1.0;"/><path d="M71.8438,298.5781 L72.0156,298.6563 C72.2344,298.3438 72.4375,298.25 72.7344,298.25 C73.0313,298.25 73.3125,298.3906 73.4688,298.6563 C73.5625,298.8125 73.5781,298.9375 73.5781,299.375 L73.5781,300.7969 C73.5781,301.2188 73.5469,301.4063 73.4375,301.5625 C73.2656,301.7813 73,301.9219 72.7344,301.9219 C72.5156,301.9219 72.2813,301.8125 72.1406,301.6719 C72,301.5469 71.9688,301.4219 71.9063,301.0156 C71.8125,300.6094 71.6406,300.3906 71.1563,300.1094 C70.6875,299.8594 70.0781,299.7031 69.5,299.7031 C67.7656,299.7031 66.5156,301.0156 66.5156,302.7969 L66.5156,303.8906 C66.5156,305.5938 67.8125,306.6875 69.8594,306.6875 C70.625,306.6875 71.3125,306.5625 71.7344,306.2969 C71.9219,306.2031 71.9219,306.2031 72.375,305.7188 C72.5625,305.5313 72.7656,305.4531 72.9844,305.4531 C73.4531,305.4531 73.8438,305.8438 73.8438,306.2969 C73.8438,306.6875 73.5156,307.1406 72.9375,307.5469 C72.1875,308.0938 71.0313,308.3906 69.8125,308.3906 C66.9219,308.3906 64.8125,306.5 64.8125,303.9219 L64.8125,302.7969 C64.8125,300.0781 66.8125,298 69.4375,298 C70.3125,298 70.9063,298.1406 71.8438,298.5781 Z "/><text fill="#000000" font-family="sans-serif" font-size="12" lengthAdjust="spacingAndGlyphs" textLength="149" x="83.5" y="307.0605">GithubJobClientContract</text><line style="stroke: #A80036; stroke-width: 1.5;" x1="55.5" x2="234.5" y1="318.9063" y2="318.9063"/><line style="stroke: #A80036; stroke-width: 1.5;" x1="55.5" x2="234.5" y1="326.9063" y2="326.9063"/><!--reverse link in.ashwanik.pdp.common.githubjobs.GithubJobClientContract to in.ashwanik.pdp.decorator.CacheGithubJobClientContract--><path d="M161.861,267.7819 C165.232,257.5163 168.267,246.4513 170,235.9063 C172.598,220.1003 171.901,202.6013 170.104,187.2063 " fill="none" id="in.ashwanik.pdp.common.githubjobs.GithubJobClientContract&lt;-in.ashwanik.pdp.decorator.CacheGithubJobClientContract" style="stroke: #A80036; stroke-width: 1.0; stroke-dasharray: 7.0,7.0;"/><polygon fill="none" points="168.387,270.3192,155,286.7447,155.222,265.5563,168.387,270.3192" style="stroke: #A80036; stroke-width: 1.0;"/><!--reverse link in.ashwanik.pdp.decorator.CacheGithubJobClientContract to in.ashwanik.pdp.common.githubjobs.GithubJobClientContract--><path d="M116.267,198.6463 C112.518,205.1603 109.294,211.9733 107,218.9063 C99.2007,242.4742 112.428,268.5385 125.364,286.7101 " fill="none" id="in.ashwanik.pdp.decorator.CacheGithubJobClientContract&lt;-in.ashwanik.pdp.common.githubjobs.GithubJobClientContract" style="stroke: #A80036; stroke-width: 1.0;"/><polygon fill="#FFFFFF" points="123.494,187.2803,116.8991,190.1969,117.0549,197.4064,123.6498,194.4897,123.494,187.2803" style="stroke: #A80036; stroke-width: 1.0;"/><text fill="#000000" font-family="sans-serif" font-size="13" lengthAdjust="spacingAndGlyphs" textLength="53" x="108" y="231.9731">contract</text><!--
@startuml
title __DECORATOR__\n

  namespace in.ashwanik.pdp.decorator {
    class in.ashwanik.pdp.decorator.CacheGithubJobClientContract {
        - cache : Map<String, List<GithubJob>>
        + CacheGithubJobClientContract()
        + getJobs()
    }
  }
  

  in.ashwanik.pdp.decorator.CacheGithubJobClientContract .up.|> in.ashwanik.pdp.common.githubjobs.GithubJobClientContract
  in.ashwanik.pdp.decorator.CacheGithubJobClientContract o- - in.ashwanik.pdp.common.githubjobs.GithubJobClientContract : contract
@enduml

PlantUML version 1.2019.10beta5(Unknown compile time)
(GPL source distribution)
Java Runtime: Java(TM) SE Runtime Environment
JVM: Java HotSpot(TM) 64-Bit Server VM
Java Version: 1.7.0_25-b15
Operating System: Linux
Default Encoding: UTF-8
Language: en
Country: US
--></g></svg>