<?xml version="1.0" encoding="UTF-8" standalone="no"?>
<svg xmlns="http://www.w3.org/2000/svg" xmlns:xlink="http://www.w3.org/1999/xlink" contentScriptType="application/ecmascript" contentStyleType="text/css" height="429px" preserveAspectRatio="none" style="width:525px;height:429px;" version="1.1" viewBox="0 0 525 429" width="525px" zoomAndPan="magnify"><defs><filter height="300%" id="fb3lz24km72ly" width="300%" x="-1" y="-1"><feGaussianBlur result="blurOut" stdDeviation="2.0"/><feColorMatrix in="blurOut" result="blurOut2" type="matrix" values="0 0 0 0 0 0 0 0 0 0 0 0 0 0 0 0 0 0 .4 0"/><feOffset dx="4.0" dy="4.0" in="blurOut2" result="blurOut3"/><feBlend in="SourceGraphic" in2="blurOut3" mode="normal"/></filter></defs><g><text fill="#000000" font-family="sans-serif" font-size="18" lengthAdjust="spacingAndGlyphs" text-decoration="underline" textLength="216" x="160.5" y="16.708">DEPENDECY_INJECTION</text><text fill="#000000" font-family="sans-serif" font-size="18" lengthAdjust="spacingAndGlyphs" textLength="0" x="271.5" y="37.6611"/><!--MD5=[c3f3526fffa1f81e2b5d061b10c310f9]
cluster in.ashwanik.pdp.dependecy_injection--><polygon fill="#FFFFFF" filter="url(#fb3lz24km72ly)" points="22,65.9063,323,65.9063,330,88.2031,503,88.2031,503,417.9063,22,417.9063,22,65.9063" style="stroke: #000000; stroke-width: 1.5;"/><line style="stroke: #000000; stroke-width: 1.5;" x1="22" x2="330" y1="88.2031" y2="88.2031"/><text fill="#000000" font-family="sans-serif" font-size="14" font-weight="bold" lengthAdjust="spacingAndGlyphs" textLength="295" x="26" y="80.9014">in.ashwanik.pdp.dependecy_injection</text><!--MD5=[0bca5531bf29a4522de274da710169c3]
class in.ashwanik.pdp.dependecy_injection.App--><rect fill="#FEFECE" filter="url(#fb3lz24km72ly)" height="60.8047" id="in.ashwanik.pdp.dependecy_injection.App" style="stroke: #A80036; stroke-width: 1.5;" width="79" x="205.5" y="132.9063"/><ellipse cx="230.85" cy="148.9063" fill="#ADD1B2" rx="11" ry="11" style="stroke: #A80036; stroke-width: 1.0;"/><path d="M233.1938,144.5781 L233.3656,144.6563 C233.5844,144.3438 233.7875,144.25 234.0844,144.25 C234.3813,144.25 234.6625,144.3906 234.8188,144.6563 C234.9125,144.8125 234.9281,144.9375 234.9281,145.375 L234.9281,146.7969 C234.9281,147.2188 234.8969,147.4063 234.7875,147.5625 C234.6156,147.7813 234.35,147.9219 234.0844,147.9219 C233.8656,147.9219 233.6313,147.8125 233.4906,147.6719 C233.35,147.5469 233.3188,147.4219 233.2563,147.0156 C233.1625,146.6094 232.9906,146.3906 232.5063,146.1094 C232.0375,145.8594 231.4281,145.7031 230.85,145.7031 C229.1156,145.7031 227.8656,147.0156 227.8656,148.7969 L227.8656,149.8906 C227.8656,151.5938 229.1625,152.6875 231.2094,152.6875 C231.975,152.6875 232.6625,152.5625 233.0844,152.2969 C233.2719,152.2031 233.2719,152.2031 233.725,151.7188 C233.9125,151.5313 234.1156,151.4531 234.3344,151.4531 C234.8031,151.4531 235.1938,151.8438 235.1938,152.2969 C235.1938,152.6875 234.8656,153.1406 234.2875,153.5469 C233.5375,154.0938 232.3813,154.3906 231.1625,154.3906 C228.2719,154.3906 226.1625,152.5 226.1625,149.9219 L226.1625,148.7969 C226.1625,146.0781 228.1625,144 230.7875,144 C231.6625,144 232.2563,144.1406 233.1938,144.5781 Z "/><text fill="#000000" font-family="sans-serif" font-size="12" lengthAdjust="spacingAndGlyphs" textLength="24" x="247.15" y="153.0605">App</text><line style="stroke: #A80036; stroke-width: 1.5;" x1="206.5" x2="283.5" y1="164.9063" y2="164.9063"/><line style="stroke: #A80036; stroke-width: 1.5;" x1="206.5" x2="283.5" y1="172.9063" y2="172.9063"/><ellipse cx="216.5" cy="183.9063" fill="#84BE84" rx="3" ry="3" style="stroke: #038048; stroke-width: 1.0;"/><text fill="#000000" font-family="sans-serif" font-size="11" lengthAdjust="spacingAndGlyphs" textLength="53" x="225.5" y="187.1167">initialize()</text><!--MD5=[35bc65f2957ede1955b9bbb13eeba56e]
class in.ashwanik.pdp.dependecy_injection.DbConnection--><rect fill="#FEFECE" filter="url(#fb3lz24km72ly)" height="124.8281" id="in.ashwanik.pdp.dependecy_injection.DbConnection" style="stroke: #A80036; stroke-width: 1.5;" width="167" x="319.5" y="100.9063"/><ellipse cx="355.65" cy="116.9063" fill="#ADD1B2" rx="11" ry="11" style="stroke: #A80036; stroke-width: 1.0;"/><path d="M357.9938,112.5781 L358.1656,112.6563 C358.3844,112.3438 358.5875,112.25 358.8844,112.25 C359.1813,112.25 359.4625,112.3906 359.6188,112.6563 C359.7125,112.8125 359.7281,112.9375 359.7281,113.375 L359.7281,114.7969 C359.7281,115.2188 359.6969,115.4063 359.5875,115.5625 C359.4156,115.7813 359.15,115.9219 358.8844,115.9219 C358.6656,115.9219 358.4313,115.8125 358.2906,115.6719 C358.15,115.5469 358.1188,115.4219 358.0563,115.0156 C357.9625,114.6094 357.7906,114.3906 357.3063,114.1094 C356.8375,113.8594 356.2281,113.7031 355.65,113.7031 C353.9156,113.7031 352.6656,115.0156 352.6656,116.7969 L352.6656,117.8906 C352.6656,119.5938 353.9625,120.6875 356.0094,120.6875 C356.775,120.6875 357.4625,120.5625 357.8844,120.2969 C358.0719,120.2031 358.0719,120.2031 358.525,119.7188 C358.7125,119.5313 358.9156,119.4531 359.1344,119.4531 C359.6031,119.4531 359.9938,119.8438 359.9938,120.2969 C359.9938,120.6875 359.6656,121.1406 359.0875,121.5469 C358.3375,122.0938 357.1813,122.3906 355.9625,122.3906 C353.0719,122.3906 350.9625,120.5 350.9625,117.9219 L350.9625,116.7969 C350.9625,114.0781 352.9625,112 355.5875,112 C356.4625,112 357.0563,112.1406 357.9938,112.5781 Z "/><text fill="#000000" font-family="sans-serif" font-size="12" lengthAdjust="spacingAndGlyphs" textLength="88" x="374.35" y="121.0605">DbConnection</text><line style="stroke: #A80036; stroke-width: 1.5;" x1="320.5" x2="485.5" y1="132.9063" y2="132.9063"/><rect fill="none" height="6" style="stroke: #C82930; stroke-width: 1.0;" width="6" x="327.5" y="140.9063"/><text fill="#000000" font-family="sans-serif" font-size="11" lengthAdjust="spacingAndGlyphs" textLength="141" x="339.5" y="147.1167">connectionString : String</text><rect fill="none" height="6" style="stroke: #C82930; stroke-width: 1.0;" width="6" x="327.5" y="153.7109"/><text fill="#000000" font-family="sans-serif" font-size="11" lengthAdjust="spacingAndGlyphs" textLength="71" x="339.5" y="159.9214">host : String</text><line style="stroke: #A80036; stroke-width: 1.5;" x1="320.5" x2="485.5" y1="166.5156" y2="166.5156"/><ellipse cx="330.5" cy="177.5156" fill="#84BE84" rx="3" ry="3" style="stroke: #038048; stroke-width: 1.0;"/><text fill="#000000" font-family="sans-serif" font-size="11" lengthAdjust="spacingAndGlyphs" textLength="123" x="339.5" y="180.7261">getConnectionString()</text><ellipse cx="330.5" cy="190.3203" fill="#84BE84" rx="3" ry="3" style="stroke: #038048; stroke-width: 1.0;"/><text fill="#000000" font-family="sans-serif" font-size="11" lengthAdjust="spacingAndGlyphs" textLength="52" x="339.5" y="193.5308">getHost()</text><ellipse cx="330.5" cy="203.125" fill="#84BE84" rx="3" ry="3" style="stroke: #038048; stroke-width: 1.0;"/><text fill="#000000" font-family="sans-serif" font-size="11" lengthAdjust="spacingAndGlyphs" textLength="123" x="339.5" y="206.3354">setConnectionString()</text><ellipse cx="330.5" cy="215.9297" fill="#84BE84" rx="3" ry="3" style="stroke: #038048; stroke-width: 1.0;"/><text fill="#000000" font-family="sans-serif" font-size="11" lengthAdjust="spacingAndGlyphs" textLength="52" x="339.5" y="219.1401">setHost()</text><!--MD5=[a0d8a5e586538f12a49dbfc8eea48c9e]
class in.ashwanik.pdp.dependecy_injection.FileDownloader--><rect fill="#FEFECE" filter="url(#fb3lz24km72ly)" height="99.2188" id="in.ashwanik.pdp.dependecy_injection.FileDownloader" style="stroke: #A80036; stroke-width: 1.5;" width="176" x="311" y="302.9063"/><ellipse cx="348.05" cy="318.9063" fill="#ADD1B2" rx="11" ry="11" style="stroke: #A80036; stroke-width: 1.0;"/><path d="M350.3938,314.5781 L350.5656,314.6563 C350.7844,314.3438 350.9875,314.25 351.2844,314.25 C351.5813,314.25 351.8625,314.3906 352.0188,314.6563 C352.1125,314.8125 352.1281,314.9375 352.1281,315.375 L352.1281,316.7969 C352.1281,317.2188 352.0969,317.4063 351.9875,317.5625 C351.8156,317.7813 351.55,317.9219 351.2844,317.9219 C351.0656,317.9219 350.8313,317.8125 350.6906,317.6719 C350.55,317.5469 350.5188,317.4219 350.4563,317.0156 C350.3625,316.6094 350.1906,316.3906 349.7063,316.1094 C349.2375,315.8594 348.6281,315.7031 348.05,315.7031 C346.3156,315.7031 345.0656,317.0156 345.0656,318.7969 L345.0656,319.8906 C345.0656,321.5938 346.3625,322.6875 348.4094,322.6875 C349.175,322.6875 349.8625,322.5625 350.2844,322.2969 C350.4719,322.2031 350.4719,322.2031 350.925,321.7188 C351.1125,321.5313 351.3156,321.4531 351.5344,321.4531 C352.0031,321.4531 352.3938,321.8438 352.3938,322.2969 C352.3938,322.6875 352.0656,323.1406 351.4875,323.5469 C350.7375,324.0938 349.5813,324.3906 348.3625,324.3906 C345.4719,324.3906 343.3625,322.5 343.3625,319.9219 L343.3625,318.7969 C343.3625,316.0781 345.3625,314 347.9875,314 C348.8625,314 349.4563,314.1406 350.3938,314.5781 Z "/><text fill="#000000" font-family="sans-serif" font-size="12" lengthAdjust="spacingAndGlyphs" textLength="95" x="366.95" y="323.0605">FileDownloader</text><line style="stroke: #A80036; stroke-width: 1.5;" x1="312" x2="486" y1="334.9063" y2="334.9063"/><rect fill="none" height="6" style="stroke: #C82930; stroke-width: 1.0;" width="6" x="319" y="342.9063"/><text fill="#000000" font-family="sans-serif" font-size="11" lengthAdjust="spacingAndGlyphs" textLength="150" x="331" y="349.1167">okHttpClient : OkHttpClient</text><line style="stroke: #A80036; stroke-width: 1.5;" x1="312" x2="486" y1="355.7109" y2="355.7109"/><ellipse cx="322" cy="366.7109" fill="#84BE84" rx="3" ry="3" style="stroke: #038048; stroke-width: 1.0;"/><text fill="#000000" font-family="sans-serif" font-size="11" lengthAdjust="spacingAndGlyphs" textLength="94" x="331" y="369.9214">FileDownloader()</text><ellipse cx="322" cy="379.5156" fill="#84BE84" rx="3" ry="3" style="stroke: #038048; stroke-width: 1.0;"/><text fill="#000000" font-family="sans-serif" font-size="11" lengthAdjust="spacingAndGlyphs" textLength="81" x="331" y="382.7261">downloadFile()</text><ellipse cx="322" cy="392.3203" fill="#84BE84" rx="3" ry="3" style="stroke: #038048; stroke-width: 1.0;"/><text fill="#000000" font-family="sans-serif" font-size="11" lengthAdjust="spacingAndGlyphs" textLength="96" x="331" y="395.5308">getOkHttpClient()</text><!--MD5=[001f253b92698c23d065f7cbb7a7b0b4]
class in.ashwanik.pdp.dependecy_injection.Injector--><rect fill="#FEFECE" filter="url(#fb3lz24km72ly)" height="86.4141" id="in.ashwanik.pdp.dependecy_injection.Injector" style="stroke: #A80036; stroke-width: 1.5;" width="122" x="48" y="120.4063"/><ellipse cx="82.35" cy="136.4063" fill="#ADD1B2" rx="11" ry="11" style="stroke: #A80036; stroke-width: 1.0;"/><path d="M84.6938,132.0781 L84.8656,132.1563 C85.0844,131.8438 85.2875,131.75 85.5844,131.75 C85.8813,131.75 86.1625,131.8906 86.3188,132.1563 C86.4125,132.3125 86.4281,132.4375 86.4281,132.875 L86.4281,134.2969 C86.4281,134.7188 86.3969,134.9063 86.2875,135.0625 C86.1156,135.2813 85.85,135.4219 85.5844,135.4219 C85.3656,135.4219 85.1313,135.3125 84.9906,135.1719 C84.85,135.0469 84.8188,134.9219 84.7563,134.5156 C84.6625,134.1094 84.4906,133.8906 84.0063,133.6094 C83.5375,133.3594 82.9281,133.2031 82.35,133.2031 C80.6156,133.2031 79.3656,134.5156 79.3656,136.2969 L79.3656,137.3906 C79.3656,139.0938 80.6625,140.1875 82.7094,140.1875 C83.475,140.1875 84.1625,140.0625 84.5844,139.7969 C84.7719,139.7031 84.7719,139.7031 85.225,139.2188 C85.4125,139.0313 85.6156,138.9531 85.8344,138.9531 C86.3031,138.9531 86.6938,139.3438 86.6938,139.7969 C86.6938,140.1875 86.3656,140.6406 85.7875,141.0469 C85.0375,141.5938 83.8813,141.8906 82.6625,141.8906 C79.7719,141.8906 77.6625,140 77.6625,137.4219 L77.6625,136.2969 C77.6625,133.5781 79.6625,131.5 82.2875,131.5 C83.1625,131.5 83.7563,131.6406 84.6938,132.0781 Z "/><text fill="#000000" font-family="sans-serif" font-size="12" lengthAdjust="spacingAndGlyphs" textLength="47" x="100.65" y="140.5605">Injector</text><line style="stroke: #A80036; stroke-width: 1.5;" x1="49" x2="169" y1="152.4063" y2="152.4063"/><rect fill="none" height="6" style="stroke: #C82930; stroke-width: 1.0;" width="6" x="56" y="160.4063"/><text fill="#000000" font-family="sans-serif" font-size="11" lengthAdjust="spacingAndGlyphs" text-decoration="underline" textLength="96" x="68" y="166.6167">injector : Injector</text><line style="stroke: #A80036; stroke-width: 1.5;" x1="49" x2="169" y1="173.2109" y2="173.2109"/><ellipse cx="59" cy="184.2109" fill="#84BE84" rx="3" ry="3" style="stroke: #038048; stroke-width: 1.0;"/><text fill="#000000" font-family="sans-serif" font-size="11" lengthAdjust="spacingAndGlyphs" text-decoration="underline" textLength="26" x="68" y="187.4214">get()</text><ellipse cx="59" cy="197.0156" fill="#84BE84" rx="3" ry="3" style="stroke: #038048; stroke-width: 1.0;"/><text fill="#000000" font-family="sans-serif" font-size="11" lengthAdjust="spacingAndGlyphs" text-decoration="underline" textLength="53" x="68" y="200.2261">register()</text><!--MD5=[7f87df6fc6e3090d70d533f55450a710]
class in.ashwanik.pdp.dependecy_injection.Linker--><rect fill="#FEFECE" filter="url(#fb3lz24km72ly)" height="86.4141" id="in.ashwanik.pdp.dependecy_injection.Linker" style="stroke: #A80036; stroke-width: 1.5;" width="238" x="38" y="309.4063"/><ellipse cx="134.25" cy="325.4063" fill="#ADD1B2" rx="11" ry="11" style="stroke: #A80036; stroke-width: 1.0;"/><path d="M136.5938,321.0781 L136.7656,321.1563 C136.9844,320.8438 137.1875,320.75 137.4844,320.75 C137.7813,320.75 138.0625,320.8906 138.2188,321.1563 C138.3125,321.3125 138.3281,321.4375 138.3281,321.875 L138.3281,323.2969 C138.3281,323.7188 138.2969,323.9063 138.1875,324.0625 C138.0156,324.2813 137.75,324.4219 137.4844,324.4219 C137.2656,324.4219 137.0313,324.3125 136.8906,324.1719 C136.75,324.0469 136.7188,323.9219 136.6563,323.5156 C136.5625,323.1094 136.3906,322.8906 135.9063,322.6094 C135.4375,322.3594 134.8281,322.2031 134.25,322.2031 C132.5156,322.2031 131.2656,323.5156 131.2656,325.2969 L131.2656,326.3906 C131.2656,328.0938 132.5625,329.1875 134.6094,329.1875 C135.375,329.1875 136.0625,329.0625 136.4844,328.7969 C136.6719,328.7031 136.6719,328.7031 137.125,328.2188 C137.3125,328.0313 137.5156,327.9531 137.7344,327.9531 C138.2031,327.9531 138.5938,328.3438 138.5938,328.7969 C138.5938,329.1875 138.2656,329.6406 137.6875,330.0469 C136.9375,330.5938 135.7813,330.8906 134.5625,330.8906 C131.6719,330.8906 129.5625,329 129.5625,326.4219 L129.5625,325.2969 C129.5625,322.5781 131.5625,320.5 134.1875,320.5 C135.0625,320.5 135.6563,320.6406 136.5938,321.0781 Z "/><text fill="#000000" font-family="sans-serif" font-size="12" lengthAdjust="spacingAndGlyphs" textLength="37" x="154.75" y="329.5605">Linker</text><line style="stroke: #A80036; stroke-width: 1.5;" x1="39" x2="275" y1="341.4063" y2="341.4063"/><rect fill="none" height="6" style="stroke: #C82930; stroke-width: 1.0;" width="6" x="46" y="349.4063"/><text fill="#000000" font-family="sans-serif" font-size="11" lengthAdjust="spacingAndGlyphs" textLength="212" x="58" y="355.6167">registered : Map&lt;Class&lt;?&gt;, Object&gt;</text><line style="stroke: #A80036; stroke-width: 1.5;" x1="39" x2="275" y1="362.2109" y2="362.2109"/><ellipse cx="49" cy="373.2109" fill="#84BE84" rx="3" ry="3" style="stroke: #038048; stroke-width: 1.0;"/><text fill="#000000" font-family="sans-serif" font-size="11" lengthAdjust="spacingAndGlyphs" textLength="53" x="58" y="376.4214">register()</text><ellipse cx="49" cy="386.0156" fill="#84BE84" rx="3" ry="3" style="stroke: #038048; stroke-width: 1.0;"/><text fill="#000000" font-family="sans-serif" font-size="11" lengthAdjust="spacingAndGlyphs" textLength="50" x="58" y="389.2261">resolve()</text><!--MD5=[e1bf9635c7b356fc87715c4d7edc7821]
reverse link in.ashwanik.pdp.dependecy_injection.Injector to in.ashwanik.pdp.dependecy_injection.Linker--><path d="M123.152,219.5413 C130.504,248.1823 139.348,282.6353 146.151,309.1413 " fill="none" id="in.ashwanik.pdp.dependecy_injection.Injector&lt;-in.ashwanik.pdp.dependecy_injection.Linker" style="stroke: #A80036; stroke-width: 1.0;"/><polygon fill="#FFFFFF" points="119.892,206.8393,117.509,213.6452,122.875,218.4626,125.2579,211.6566,119.892,206.8393" style="stroke: #A80036; stroke-width: 1.0;"/><text fill="#000000" font-family="sans-serif" font-size="13" lengthAdjust="spacingAndGlyphs" textLength="34" x="136" y="268.9731">linker</text><!--MD5=[9eaf3714d223376aa9d99c8d5b86711a]
link in.ashwanik.pdp.dependecy_injection.App to in.ashwanik.pdp.dependecy_injection.DbConnection--><!--MD5=[80c16173cf397008c940efeab98a61a7]
link in.ashwanik.pdp.dependecy_injection.App to in.ashwanik.pdp.dependecy_injection.FileDownloader--><!--MD5=[0592eb6ea71be26063b474e030fd4cd2]
@startuml
title __DEPENDECY_INJECTION__\n

  namespace in.ashwanik.pdp.dependecy_injection {
    class in.ashwanik.pdp.dependecy_injection.App {
        + initialize()
    }
  }
  

  namespace in.ashwanik.pdp.dependecy_injection {
    class in.ashwanik.pdp.dependecy_injection.DbConnection {
        - connectionString : String
        - host : String
        + getConnectionString()
        + getHost()
        + setConnectionString()
        + setHost()
    }
  }
  

  namespace in.ashwanik.pdp.dependecy_injection {
    class in.ashwanik.pdp.dependecy_injection.FileDownloader {
        - okHttpClient : OkHttpClient
        + FileDownloader()
        + downloadFile()
        + getOkHttpClient()
    }
  }
  

  namespace in.ashwanik.pdp.dependecy_injection {
    class in.ashwanik.pdp.dependecy_injection.Injector {
        {static} - injector : Injector
        {static} + get()
        {static} + register()
    }
  }
  

  namespace in.ashwanik.pdp.dependecy_injection {
    class in.ashwanik.pdp.dependecy_injection.Linker {
        - registered : Map<Class<?>, Object>
        + register()
        + resolve()
    }
  }
  

  in.ashwanik.pdp.dependecy_injection.Injector o- - in.ashwanik.pdp.dependecy_injection.Linker : linker
@enduml

PlantUML version 1.2019.10(Fri Sep 13 20:53:03 UTC 2019)
(GPL source distribution)
Java Runtime: Java(TM) SE Runtime Environment
JVM: Java HotSpot(TM) 64-Bit Server VM
Java Version: 1.7.0_25-b15
Operating System: Linux
Default Encoding: UTF-8
Language: en
Country: US
--></g></svg>