<?xml version="1.0" encoding="UTF-8" standalone="no"?>
<svg xmlns="http://www.w3.org/2000/svg" xmlns:xlink="http://www.w3.org/1999/xlink" contentScriptType="application/ecmascript" contentStyleType="text/css" height="584px" preserveAspectRatio="none" style="width:563px;height:584px;" version="1.1" viewBox="0 0 563 584" width="563px" zoomAndPan="magnify"><defs><filter height="300%" id="fmsxk80wsk6vr" width="300%" x="-1" y="-1"><feGaussianBlur result="blurOut" stdDeviation="2.0"/><feColorMatrix in="blurOut" result="blurOut2" type="matrix" values="0 0 0 0 0 0 0 0 0 0 0 0 0 0 0 0 0 0 .4 0"/><feOffset dx="4.0" dy="4.0" in="blurOut2" result="blurOut3"/><feBlend in="SourceGraphic" in2="blurOut3" mode="normal"/></filter></defs><g><text fill="#000000" font-family="sans-serif" font-size="18" lengthAdjust="spacingAndGlyphs" text-decoration="underline" textLength="72" x="251.5" y="16.708">FACADE</text><text fill="#000000" font-family="sans-serif" font-size="18" lengthAdjust="spacingAndGlyphs" textLength="0" x="290.5" y="37.6611"/><!--MD5=[e7177534b34eaef78ede6f7d98f325a9]
cluster in.ashwanik.pdp.facade--><polygon fill="#FFFFFF" filter="url(#fmsxk80wsk6vr)" points="22,65.9063,214,65.9063,221,88.2031,541,88.2031,541,572.9063,22,572.9063,22,65.9063" style="stroke: #000000; stroke-width: 1.5;"/><line style="stroke: #000000; stroke-width: 1.5;" x1="22" x2="221" y1="88.2031" y2="88.2031"/><text fill="#000000" font-family="sans-serif" font-size="14" font-weight="bold" lengthAdjust="spacingAndGlyphs" textLength="186" x="26" y="80.9014">in.ashwanik.pdp.facade</text><!--MD5=[b6adf7befe273d723443ae5c3c5a06cc]
class in.ashwanik.pdp.facade.AuthClient--><rect fill="#FEFECE" filter="url(#fmsxk80wsk6vr)" height="60.8047" id="in.ashwanik.pdp.facade.AuthClient" style="stroke: #A80036; stroke-width: 1.5;" width="96" x="404" y="373.9063"/><ellipse cx="419" cy="389.9063" fill="#B4A7E5" rx="11" ry="11" style="stroke: #A80036; stroke-width: 1.0;"/><path d="M419.9531,386.6875 L419.9531,393.2031 L421.6719,393.2031 C422.125,393.2031 422.2656,393.2344 422.4375,393.3594 C422.6719,393.5313 422.7813,393.7813 422.7813,394.0625 C422.7813,394.625 422.4219,394.9063 421.6719,394.9063 L416.5313,394.9063 C416.125,394.9063 415.9219,394.8594 415.7656,394.7344 C415.5469,394.5781 415.4063,394.3125 415.4063,394.0625 C415.4063,393.7656 415.5625,393.4844 415.8125,393.3281 C415.9688,393.2188 416.0938,393.2031 416.5313,393.2031 L418.25,393.2031 L418.25,386.6875 L416.5313,386.6875 C416.1094,386.6875 415.9219,386.6563 415.7656,386.5469 C415.5469,386.375 415.4063,386.125 415.4063,385.8438 C415.4063,385.5625 415.5625,385.2656 415.8125,385.1094 C415.9688,385.0156 416.0938,385 416.5313,385 L421.6719,385 C422.125,385 422.2656,385.0313 422.4375,385.1406 C422.6719,385.3125 422.7813,385.5781 422.7813,385.8438 C422.7813,386.1406 422.6406,386.4219 422.375,386.5781 C422.25,386.6563 422.0625,386.6875 421.6719,386.6875 Z "/><text fill="#000000" font-family="sans-serif" font-size="12" font-style="italic" lengthAdjust="spacingAndGlyphs" textLength="64" x="433" y="394.0605">AuthClient</text><line style="stroke: #A80036; stroke-width: 1.5;" x1="405" x2="499" y1="405.9063" y2="405.9063"/><line style="stroke: #A80036; stroke-width: 1.5;" x1="405" x2="499" y1="413.9063" y2="413.9063"/><ellipse cx="415" cy="424.9063" fill="#84BE84" rx="3" ry="3" style="stroke: #038048; stroke-width: 1.0;"/><text fill="#000000" font-family="sans-serif" font-size="11" font-style="italic" lengthAdjust="spacingAndGlyphs" textLength="61" x="424" y="428.1167">authorize()</text><!--MD5=[6786c41d94ac0464db34a3e018c63fa0]
class in.ashwanik.pdp.facade.AuthClientImpl--><rect fill="#FEFECE" filter="url(#fmsxk80wsk6vr)" height="60.8047" id="in.ashwanik.pdp.facade.AuthClientImpl" style="stroke: #A80036; stroke-width: 1.5;" width="121" x="403.5" y="495.9063"/><ellipse cx="418.5" cy="511.9063" fill="#ADD1B2" rx="11" ry="11" style="stroke: #A80036; stroke-width: 1.0;"/><path d="M420.8438,507.5781 L421.0156,507.6563 C421.2344,507.3438 421.4375,507.25 421.7344,507.25 C422.0313,507.25 422.3125,507.3906 422.4688,507.6563 C422.5625,507.8125 422.5781,507.9375 422.5781,508.375 L422.5781,509.7969 C422.5781,510.2188 422.5469,510.4063 422.4375,510.5625 C422.2656,510.7813 422,510.9219 421.7344,510.9219 C421.5156,510.9219 421.2813,510.8125 421.1406,510.6719 C421,510.5469 420.9688,510.4219 420.9063,510.0156 C420.8125,509.6094 420.6406,509.3906 420.1563,509.1094 C419.6875,508.8594 419.0781,508.7031 418.5,508.7031 C416.7656,508.7031 415.5156,510.0156 415.5156,511.7969 L415.5156,512.8906 C415.5156,514.5938 416.8125,515.6875 418.8594,515.6875 C419.625,515.6875 420.3125,515.5625 420.7344,515.2969 C420.9219,515.2031 420.9219,515.2031 421.375,514.7188 C421.5625,514.5313 421.7656,514.4531 421.9844,514.4531 C422.4531,514.4531 422.8438,514.8438 422.8438,515.2969 C422.8438,515.6875 422.5156,516.1406 421.9375,516.5469 C421.1875,517.0938 420.0313,517.3906 418.8125,517.3906 C415.9219,517.3906 413.8125,515.5 413.8125,512.9219 L413.8125,511.7969 C413.8125,509.0781 415.8125,507 418.4375,507 C419.3125,507 419.9063,507.1406 420.8438,507.5781 Z "/><text fill="#000000" font-family="sans-serif" font-size="12" lengthAdjust="spacingAndGlyphs" textLength="89" x="432.5" y="516.0605">AuthClientImpl</text><line style="stroke: #A80036; stroke-width: 1.5;" x1="404.5" x2="523.5" y1="527.9063" y2="527.9063"/><line style="stroke: #A80036; stroke-width: 1.5;" x1="404.5" x2="523.5" y1="535.9063" y2="535.9063"/><ellipse cx="414.5" cy="546.9063" fill="#84BE84" rx="3" ry="3" style="stroke: #038048; stroke-width: 1.0;"/><text fill="#000000" font-family="sans-serif" font-size="11" lengthAdjust="spacingAndGlyphs" textLength="60" x="423.5" y="550.1167">authorize()</text><!--MD5=[2849fbb1209484eefab7750e2a871dd9]
class in.ashwanik.pdp.facade.DownloadClient--><rect fill="#FEFECE" filter="url(#fmsxk80wsk6vr)" height="60.8047" id="in.ashwanik.pdp.facade.DownloadClient" style="stroke: #A80036; stroke-width: 1.5;" width="129" x="227.5" y="373.9063"/><ellipse cx="242.5" cy="389.9063" fill="#B4A7E5" rx="11" ry="11" style="stroke: #A80036; stroke-width: 1.0;"/><path d="M243.4531,386.6875 L243.4531,393.2031 L245.1719,393.2031 C245.625,393.2031 245.7656,393.2344 245.9375,393.3594 C246.1719,393.5313 246.2813,393.7813 246.2813,394.0625 C246.2813,394.625 245.9219,394.9063 245.1719,394.9063 L240.0313,394.9063 C239.625,394.9063 239.4219,394.8594 239.2656,394.7344 C239.0469,394.5781 238.9063,394.3125 238.9063,394.0625 C238.9063,393.7656 239.0625,393.4844 239.3125,393.3281 C239.4688,393.2188 239.5938,393.2031 240.0313,393.2031 L241.75,393.2031 L241.75,386.6875 L240.0313,386.6875 C239.6094,386.6875 239.4219,386.6563 239.2656,386.5469 C239.0469,386.375 238.9063,386.125 238.9063,385.8438 C238.9063,385.5625 239.0625,385.2656 239.3125,385.1094 C239.4688,385.0156 239.5938,385 240.0313,385 L245.1719,385 C245.625,385 245.7656,385.0313 245.9375,385.1406 C246.1719,385.3125 246.2813,385.5781 246.2813,385.8438 C246.2813,386.1406 246.1406,386.4219 245.875,386.5781 C245.75,386.6563 245.5625,386.6875 245.1719,386.6875 Z "/><text fill="#000000" font-family="sans-serif" font-size="12" font-style="italic" lengthAdjust="spacingAndGlyphs" textLength="97" x="256.5" y="394.0605">DownloadClient</text><line style="stroke: #A80036; stroke-width: 1.5;" x1="228.5" x2="355.5" y1="405.9063" y2="405.9063"/><line style="stroke: #A80036; stroke-width: 1.5;" x1="228.5" x2="355.5" y1="413.9063" y2="413.9063"/><ellipse cx="238.5" cy="424.9063" fill="#84BE84" rx="3" ry="3" style="stroke: #038048; stroke-width: 1.0;"/><text fill="#000000" font-family="sans-serif" font-size="11" font-style="italic" lengthAdjust="spacingAndGlyphs" textLength="62" x="247.5" y="428.1167">download()</text><!--MD5=[351200beb8de4c290114f98439c14c94]
class in.ashwanik.pdp.facade.DownloadClientImpl--><rect fill="#FEFECE" filter="url(#fmsxk80wsk6vr)" height="60.8047" id="in.ashwanik.pdp.facade.DownloadClientImpl" style="stroke: #A80036; stroke-width: 1.5;" width="153" x="215.5" y="495.9063"/><ellipse cx="230.5" cy="511.9063" fill="#ADD1B2" rx="11" ry="11" style="stroke: #A80036; stroke-width: 1.0;"/><path d="M232.8438,507.5781 L233.0156,507.6563 C233.2344,507.3438 233.4375,507.25 233.7344,507.25 C234.0313,507.25 234.3125,507.3906 234.4688,507.6563 C234.5625,507.8125 234.5781,507.9375 234.5781,508.375 L234.5781,509.7969 C234.5781,510.2188 234.5469,510.4063 234.4375,510.5625 C234.2656,510.7813 234,510.9219 233.7344,510.9219 C233.5156,510.9219 233.2813,510.8125 233.1406,510.6719 C233,510.5469 232.9688,510.4219 232.9063,510.0156 C232.8125,509.6094 232.6406,509.3906 232.1563,509.1094 C231.6875,508.8594 231.0781,508.7031 230.5,508.7031 C228.7656,508.7031 227.5156,510.0156 227.5156,511.7969 L227.5156,512.8906 C227.5156,514.5938 228.8125,515.6875 230.8594,515.6875 C231.625,515.6875 232.3125,515.5625 232.7344,515.2969 C232.9219,515.2031 232.9219,515.2031 233.375,514.7188 C233.5625,514.5313 233.7656,514.4531 233.9844,514.4531 C234.4531,514.4531 234.8438,514.8438 234.8438,515.2969 C234.8438,515.6875 234.5156,516.1406 233.9375,516.5469 C233.1875,517.0938 232.0313,517.3906 230.8125,517.3906 C227.9219,517.3906 225.8125,515.5 225.8125,512.9219 L225.8125,511.7969 C225.8125,509.0781 227.8125,507 230.4375,507 C231.3125,507 231.9063,507.1406 232.8438,507.5781 Z "/><text fill="#000000" font-family="sans-serif" font-size="12" lengthAdjust="spacingAndGlyphs" textLength="121" x="244.5" y="516.0605">DownloadClientImpl</text><line style="stroke: #A80036; stroke-width: 1.5;" x1="216.5" x2="367.5" y1="527.9063" y2="527.9063"/><line style="stroke: #A80036; stroke-width: 1.5;" x1="216.5" x2="367.5" y1="535.9063" y2="535.9063"/><ellipse cx="226.5" cy="546.9063" fill="#84BE84" rx="3" ry="3" style="stroke: #038048; stroke-width: 1.0;"/><text fill="#000000" font-family="sans-serif" font-size="11" lengthAdjust="spacingAndGlyphs" textLength="62" x="235.5" y="550.1167">download()</text><!--MD5=[83f6515a505b16f02e91c94ad970bd69]
class in.ashwanik.pdp.facade.DownloaderFacade--><rect fill="#FEFECE" filter="url(#fmsxk80wsk6vr)" height="60.8047" id="in.ashwanik.pdp.facade.DownloaderFacade" style="stroke: #A80036; stroke-width: 1.5;" width="153" x="215.5" y="100.9063"/><ellipse cx="230.5" cy="116.9063" fill="#B4A7E5" rx="11" ry="11" style="stroke: #A80036; stroke-width: 1.0;"/><path d="M231.4531,113.6875 L231.4531,120.2031 L233.1719,120.2031 C233.625,120.2031 233.7656,120.2344 233.9375,120.3594 C234.1719,120.5313 234.2813,120.7813 234.2813,121.0625 C234.2813,121.625 233.9219,121.9063 233.1719,121.9063 L228.0313,121.9063 C227.625,121.9063 227.4219,121.8594 227.2656,121.7344 C227.0469,121.5781 226.9063,121.3125 226.9063,121.0625 C226.9063,120.7656 227.0625,120.4844 227.3125,120.3281 C227.4688,120.2188 227.5938,120.2031 228.0313,120.2031 L229.75,120.2031 L229.75,113.6875 L228.0313,113.6875 C227.6094,113.6875 227.4219,113.6563 227.2656,113.5469 C227.0469,113.375 226.9063,113.125 226.9063,112.8438 C226.9063,112.5625 227.0625,112.2656 227.3125,112.1094 C227.4688,112.0156 227.5938,112 228.0313,112 L233.1719,112 C233.625,112 233.7656,112.0313 233.9375,112.1406 C234.1719,112.3125 234.2813,112.5781 234.2813,112.8438 C234.2813,113.1406 234.1406,113.4219 233.875,113.5781 C233.75,113.6563 233.5625,113.6875 233.1719,113.6875 Z "/><text fill="#000000" font-family="sans-serif" font-size="12" font-style="italic" lengthAdjust="spacingAndGlyphs" textLength="121" x="244.5" y="121.0605">DownloaderFacade</text><line style="stroke: #A80036; stroke-width: 1.5;" x1="216.5" x2="367.5" y1="132.9063" y2="132.9063"/><line style="stroke: #A80036; stroke-width: 1.5;" x1="216.5" x2="367.5" y1="140.9063" y2="140.9063"/><ellipse cx="226.5" cy="151.9063" fill="#84BE84" rx="3" ry="3" style="stroke: #038048; stroke-width: 1.0;"/><text fill="#000000" font-family="sans-serif" font-size="11" font-style="italic" lengthAdjust="spacingAndGlyphs" textLength="62" x="235.5" y="155.1167">download()</text><!--MD5=[57acea983e0d29fb47d6532af743b1fc]
class in.ashwanik.pdp.facade.DownloaderFacadeImpl--><rect fill="#FEFECE" filter="url(#fmsxk80wsk6vr)" height="73.6094" id="in.ashwanik.pdp.facade.DownloaderFacadeImpl" style="stroke: #A80036; stroke-width: 1.5;" width="177" x="203.5" y="222.9063"/><ellipse cx="218.5" cy="238.9063" fill="#ADD1B2" rx="11" ry="11" style="stroke: #A80036; stroke-width: 1.0;"/><path d="M220.8438,234.5781 L221.0156,234.6563 C221.2344,234.3438 221.4375,234.25 221.7344,234.25 C222.0313,234.25 222.3125,234.3906 222.4688,234.6563 C222.5625,234.8125 222.5781,234.9375 222.5781,235.375 L222.5781,236.7969 C222.5781,237.2188 222.5469,237.4063 222.4375,237.5625 C222.2656,237.7813 222,237.9219 221.7344,237.9219 C221.5156,237.9219 221.2813,237.8125 221.1406,237.6719 C221,237.5469 220.9688,237.4219 220.9063,237.0156 C220.8125,236.6094 220.6406,236.3906 220.1563,236.1094 C219.6875,235.8594 219.0781,235.7031 218.5,235.7031 C216.7656,235.7031 215.5156,237.0156 215.5156,238.7969 L215.5156,239.8906 C215.5156,241.5938 216.8125,242.6875 218.8594,242.6875 C219.625,242.6875 220.3125,242.5625 220.7344,242.2969 C220.9219,242.2031 220.9219,242.2031 221.375,241.7188 C221.5625,241.5313 221.7656,241.4531 221.9844,241.4531 C222.4531,241.4531 222.8438,241.8438 222.8438,242.2969 C222.8438,242.6875 222.5156,243.1406 221.9375,243.5469 C221.1875,244.0938 220.0313,244.3906 218.8125,244.3906 C215.9219,244.3906 213.8125,242.5 213.8125,239.9219 L213.8125,238.7969 C213.8125,236.0781 215.8125,234 218.4375,234 C219.3125,234 219.9063,234.1406 220.8438,234.5781 Z "/><text fill="#000000" font-family="sans-serif" font-size="12" lengthAdjust="spacingAndGlyphs" textLength="145" x="232.5" y="243.0605">DownloaderFacadeImpl</text><line style="stroke: #A80036; stroke-width: 1.5;" x1="204.5" x2="379.5" y1="254.9063" y2="254.9063"/><line style="stroke: #A80036; stroke-width: 1.5;" x1="204.5" x2="379.5" y1="262.9063" y2="262.9063"/><ellipse cx="214.5" cy="273.9063" fill="#84BE84" rx="3" ry="3" style="stroke: #038048; stroke-width: 1.0;"/><text fill="#000000" font-family="sans-serif" font-size="11" lengthAdjust="spacingAndGlyphs" textLength="139" x="223.5" y="277.1167">DownloaderFacadeImpl()</text><ellipse cx="214.5" cy="286.7109" fill="#84BE84" rx="3" ry="3" style="stroke: #038048; stroke-width: 1.0;"/><text fill="#000000" font-family="sans-serif" font-size="11" lengthAdjust="spacingAndGlyphs" textLength="62" x="223.5" y="289.9214">download()</text><!--MD5=[0bb37934689d5d4ffe96f403cf4833c5]
class in.ashwanik.pdp.facade.StorageClient--><rect fill="#FEFECE" filter="url(#fmsxk80wsk6vr)" height="60.8047" id="in.ashwanik.pdp.facade.StorageClient" style="stroke: #A80036; stroke-width: 1.5;" width="117" x="68.5" y="373.9063"/><ellipse cx="83.5" cy="389.9063" fill="#B4A7E5" rx="11" ry="11" style="stroke: #A80036; stroke-width: 1.0;"/><path d="M84.4531,386.6875 L84.4531,393.2031 L86.1719,393.2031 C86.625,393.2031 86.7656,393.2344 86.9375,393.3594 C87.1719,393.5313 87.2813,393.7813 87.2813,394.0625 C87.2813,394.625 86.9219,394.9063 86.1719,394.9063 L81.0313,394.9063 C80.625,394.9063 80.4219,394.8594 80.2656,394.7344 C80.0469,394.5781 79.9063,394.3125 79.9063,394.0625 C79.9063,393.7656 80.0625,393.4844 80.3125,393.3281 C80.4688,393.2188 80.5938,393.2031 81.0313,393.2031 L82.75,393.2031 L82.75,386.6875 L81.0313,386.6875 C80.6094,386.6875 80.4219,386.6563 80.2656,386.5469 C80.0469,386.375 79.9063,386.125 79.9063,385.8438 C79.9063,385.5625 80.0625,385.2656 80.3125,385.1094 C80.4688,385.0156 80.5938,385 81.0313,385 L86.1719,385 C86.625,385 86.7656,385.0313 86.9375,385.1406 C87.1719,385.3125 87.2813,385.5781 87.2813,385.8438 C87.2813,386.1406 87.1406,386.4219 86.875,386.5781 C86.75,386.6563 86.5625,386.6875 86.1719,386.6875 Z "/><text fill="#000000" font-family="sans-serif" font-size="12" font-style="italic" lengthAdjust="spacingAndGlyphs" textLength="85" x="97.5" y="394.0605">StorageClient</text><line style="stroke: #A80036; stroke-width: 1.5;" x1="69.5" x2="184.5" y1="405.9063" y2="405.9063"/><line style="stroke: #A80036; stroke-width: 1.5;" x1="69.5" x2="184.5" y1="413.9063" y2="413.9063"/><ellipse cx="79.5" cy="424.9063" fill="#84BE84" rx="3" ry="3" style="stroke: #038048; stroke-width: 1.0;"/><text fill="#000000" font-family="sans-serif" font-size="11" font-style="italic" lengthAdjust="spacingAndGlyphs" textLength="37" x="88.5" y="428.1167">store()</text><!--MD5=[cabad5631404ab94f4adcdb2564a9efd]
class in.ashwanik.pdp.facade.StorageClientImpl--><rect fill="#FEFECE" filter="url(#fmsxk80wsk6vr)" height="60.8047" id="in.ashwanik.pdp.facade.StorageClientImpl" style="stroke: #A80036; stroke-width: 1.5;" width="142" x="38" y="495.9063"/><ellipse cx="53" cy="511.9063" fill="#ADD1B2" rx="11" ry="11" style="stroke: #A80036; stroke-width: 1.0;"/><path d="M55.3438,507.5781 L55.5156,507.6563 C55.7344,507.3438 55.9375,507.25 56.2344,507.25 C56.5313,507.25 56.8125,507.3906 56.9688,507.6563 C57.0625,507.8125 57.0781,507.9375 57.0781,508.375 L57.0781,509.7969 C57.0781,510.2188 57.0469,510.4063 56.9375,510.5625 C56.7656,510.7813 56.5,510.9219 56.2344,510.9219 C56.0156,510.9219 55.7813,510.8125 55.6406,510.6719 C55.5,510.5469 55.4688,510.4219 55.4063,510.0156 C55.3125,509.6094 55.1406,509.3906 54.6563,509.1094 C54.1875,508.8594 53.5781,508.7031 53,508.7031 C51.2656,508.7031 50.0156,510.0156 50.0156,511.7969 L50.0156,512.8906 C50.0156,514.5938 51.3125,515.6875 53.3594,515.6875 C54.125,515.6875 54.8125,515.5625 55.2344,515.2969 C55.4219,515.2031 55.4219,515.2031 55.875,514.7188 C56.0625,514.5313 56.2656,514.4531 56.4844,514.4531 C56.9531,514.4531 57.3438,514.8438 57.3438,515.2969 C57.3438,515.6875 57.0156,516.1406 56.4375,516.5469 C55.6875,517.0938 54.5313,517.3906 53.3125,517.3906 C50.4219,517.3906 48.3125,515.5 48.3125,512.9219 L48.3125,511.7969 C48.3125,509.0781 50.3125,507 52.9375,507 C53.8125,507 54.4063,507.1406 55.3438,507.5781 Z "/><text fill="#000000" font-family="sans-serif" font-size="12" lengthAdjust="spacingAndGlyphs" textLength="110" x="67" y="516.0605">StorageClientImpl</text><line style="stroke: #A80036; stroke-width: 1.5;" x1="39" x2="179" y1="527.9063" y2="527.9063"/><line style="stroke: #A80036; stroke-width: 1.5;" x1="39" x2="179" y1="535.9063" y2="535.9063"/><ellipse cx="49" cy="546.9063" fill="#84BE84" rx="3" ry="3" style="stroke: #038048; stroke-width: 1.0;"/><text fill="#000000" font-family="sans-serif" font-size="11" lengthAdjust="spacingAndGlyphs" textLength="38" x="58" y="550.1167">store()</text><!--MD5=[47cd8dce53d767880a4d0d9e3f64c6d8]
reverse link in.ashwanik.pdp.facade.AuthClient to in.ashwanik.pdp.facade.AuthClientImpl--><path d="M456.964,455.0422 C458.344,468.8433 459.799,483.3993 461.026,495.6687 " fill="none" id="in.ashwanik.pdp.facade.AuthClient&lt;-in.ashwanik.pdp.facade.AuthClientImpl" style="stroke: #A80036; stroke-width: 1.0; stroke-dasharray: 7.0,7.0;"/><polygon fill="none" points="449.991,455.6663,454.966,435.0693,463.922,454.2732,449.991,455.6663" style="stroke: #A80036; stroke-width: 1.0;"/><!--MD5=[f203f894026a340facbafb5b48fa07be]
reverse link in.ashwanik.pdp.facade.DownloadClient to in.ashwanik.pdp.facade.DownloadClientImpl--><path d="M292,455.5293 C292,469.1853 292,483.5443 292,495.6687 " fill="none" id="in.ashwanik.pdp.facade.DownloadClient&lt;-in.ashwanik.pdp.facade.DownloadClientImpl" style="stroke: #A80036; stroke-width: 1.0; stroke-dasharray: 7.0,7.0;"/><polygon fill="none" points="285,455.0693,292,435.0693,299,455.0693,285,455.0693" style="stroke: #A80036; stroke-width: 1.0;"/><!--MD5=[2e6673900fed60d954809fbe5d1e6dcc]
reverse link in.ashwanik.pdp.facade.DownloaderFacade to in.ashwanik.pdp.facade.DownloaderFacadeImpl--><path d="M292,182.2002 C292,195.7023 292,210.0623 292,222.6613 " fill="none" id="in.ashwanik.pdp.facade.DownloaderFacade&lt;-in.ashwanik.pdp.facade.DownloaderFacadeImpl" style="stroke: #A80036; stroke-width: 1.0; stroke-dasharray: 7.0,7.0;"/><polygon fill="none" points="285,182.0653,292,162.0653,299,182.0653,285,182.0653" style="stroke: #A80036; stroke-width: 1.0;"/><!--MD5=[4e24b63a72b95e937490199b59775641]
reverse link in.ashwanik.pdp.facade.DownloaderFacadeImpl to in.ashwanik.pdp.facade.AuthClient--><path d="M367.935,304.3253 C377.815,311.3213 387.457,318.9123 396,326.9063 C410.663,340.6263 424.068,358.6432 434.085,373.7463 " fill="none" id="in.ashwanik.pdp.facade.DownloaderFacadeImpl&lt;-in.ashwanik.pdp.facade.AuthClient" style="stroke: #A80036; stroke-width: 1.0;"/><polygon fill="#FFFFFF" points="357.161,296.9763,359.8644,303.6614,367.0751,303.7373,364.3717,297.0521,357.161,296.9763" style="stroke: #A80036; stroke-width: 1.0;"/><text fill="#000000" font-family="sans-serif" font-size="13" lengthAdjust="spacingAndGlyphs" textLength="65" x="412" y="339.9731">authClient</text><!--MD5=[0f43b708209e77300c37b7fd88fb0222]
reverse link in.ashwanik.pdp.facade.DownloaderFacadeImpl to in.ashwanik.pdp.facade.DownloadClient--><path d="M292,310.3123 C292,331.4903 292,355.5182 292,373.8583 " fill="none" id="in.ashwanik.pdp.facade.DownloaderFacadeImpl&lt;-in.ashwanik.pdp.facade.DownloadClient" style="stroke: #A80036; stroke-width: 1.0;"/><polygon fill="#FFFFFF" points="292,297.2333,288,303.2333,292,309.2333,296,303.2333,292,297.2333" style="stroke: #A80036; stroke-width: 1.0;"/><text fill="#000000" font-family="sans-serif" font-size="13" lengthAdjust="spacingAndGlyphs" textLength="96" x="293" y="339.9731">downloadClient</text><!--MD5=[cc2b6c5086d413dce34d4a710e70c410]
reverse link in.ashwanik.pdp.facade.DownloaderFacadeImpl to in.ashwanik.pdp.facade.StorageClient--><path d="M224.854,304.7413 C215.24,311.8163 205.678,319.3193 197,326.9063 C180.737,341.1253 164.34,358.8233 151.507,373.6142 " fill="none" id="in.ashwanik.pdp.facade.DownloaderFacadeImpl&lt;-in.ashwanik.pdp.facade.StorageClient" style="stroke: #A80036; stroke-width: 1.0;"/><polygon fill="#FFFFFF" points="235.686,296.9533,228.4794,297.2077,225.9425,303.9579,233.1491,303.7034,235.686,296.9533" style="stroke: #A80036; stroke-width: 1.0;"/><text fill="#000000" font-family="sans-serif" font-size="13" lengthAdjust="spacingAndGlyphs" textLength="85" x="198" y="339.9731">storageClient</text><!--MD5=[5946cb2783df7802825f79ccb5b93198]
reverse link in.ashwanik.pdp.facade.StorageClient to in.ashwanik.pdp.facade.StorageClientImpl--><path d="M119.555,455.0422 C117.484,468.8433 115.301,483.3993 113.461,495.6687 " fill="none" id="in.ashwanik.pdp.facade.StorageClient&lt;-in.ashwanik.pdp.facade.StorageClientImpl" style="stroke: #A80036; stroke-width: 1.0; stroke-dasharray: 7.0,7.0;"/><polygon fill="none" points="112.661,453.8093,122.551,435.0693,126.506,455.8863,112.661,453.8093" style="stroke: #A80036; stroke-width: 1.0;"/><!--MD5=[36713551b55f9ef27ded2a3610ff6f3e]
@startuml
title __FACADE__\n

  namespace in.ashwanik.pdp.facade {
    interface in.ashwanik.pdp.facade.AuthClient {
        {abstract} + authorize()
    }
  }
  

  namespace in.ashwanik.pdp.facade {
    class in.ashwanik.pdp.facade.AuthClientImpl {
        + authorize()
    }
  }
  

  namespace in.ashwanik.pdp.facade {
    interface in.ashwanik.pdp.facade.DownloadClient {
        {abstract} + download()
    }
  }
  

  namespace in.ashwanik.pdp.facade {
    class in.ashwanik.pdp.facade.DownloadClientImpl {
        + download()
    }
  }
  

  namespace in.ashwanik.pdp.facade {
    interface in.ashwanik.pdp.facade.DownloaderFacade {
        {abstract} + download()
    }
  }
  

  namespace in.ashwanik.pdp.facade {
    class in.ashwanik.pdp.facade.DownloaderFacadeImpl {
        + DownloaderFacadeImpl()
        + download()
    }
  }
  

  namespace in.ashwanik.pdp.facade {
    interface in.ashwanik.pdp.facade.StorageClient {
        {abstract} + store()
    }
  }
  

  namespace in.ashwanik.pdp.facade {
    class in.ashwanik.pdp.facade.StorageClientImpl {
        + store()
    }
  }
  

  in.ashwanik.pdp.facade.AuthClientImpl .up.|> in.ashwanik.pdp.facade.AuthClient
  in.ashwanik.pdp.facade.DownloadClientImpl .up.|> in.ashwanik.pdp.facade.DownloadClient
  in.ashwanik.pdp.facade.DownloaderFacadeImpl .up.|> in.ashwanik.pdp.facade.DownloaderFacade
  in.ashwanik.pdp.facade.DownloaderFacadeImpl o- - in.ashwanik.pdp.facade.AuthClient : authClient
  in.ashwanik.pdp.facade.DownloaderFacadeImpl o- - in.ashwanik.pdp.facade.DownloadClient : downloadClient
  in.ashwanik.pdp.facade.DownloaderFacadeImpl o- - in.ashwanik.pdp.facade.StorageClient : storageClient
  in.ashwanik.pdp.facade.StorageClientImpl .up.|> in.ashwanik.pdp.facade.StorageClient
@enduml

PlantUML version 1.2019.11(Sun Sep 22 10:02:15 UTC 2019)
(GPL source distribution)
Java Runtime: Java(TM) SE Runtime Environment
JVM: Java HotSpot(TM) 64-Bit Server VM
Java Version: 1.7.0_25-b15
Operating System: Linux
Default Encoding: UTF-8
Language: en
Country: US
--></g></svg>