<?xml version="1.0" encoding="UTF-8" standalone="no"?>
<svg xmlns="http://www.w3.org/2000/svg" xmlns:xlink="http://www.w3.org/1999/xlink" contentScriptType="application/ecmascript" contentStyleType="text/css" height="570px" preserveAspectRatio="none" style="width:895px;height:570px;" version="1.1" viewBox="0 0 895 570" width="895px" zoomAndPan="magnify"><defs><filter height="300%" id="fmann6pe4yduv" width="300%" x="-1" y="-1"><feGaussianBlur result="blurOut" stdDeviation="2.0"/><feColorMatrix in="blurOut" result="blurOut2" type="matrix" values="0 0 0 0 0 0 0 0 0 0 0 0 0 0 0 0 0 0 .4 0"/><feOffset dx="4.0" dy="4.0" in="blurOut2" result="blurOut3"/><feBlend in="SourceGraphic" in2="blurOut3" mode="normal"/></filter></defs><g><text fill="#000000" font-family="sans-serif" font-size="18" lengthAdjust="spacingAndGlyphs" text-decoration="underline" textLength="86" x="410.5" y="16.708">FACTORY</text><text fill="#000000" font-family="sans-serif" font-size="18" lengthAdjust="spacingAndGlyphs" textLength="0" x="456.5" y="37.6611"/><!--cluster in.ashwanik.pdp.factory--><polygon fill="#FFFFFF" filter="url(#fmann6pe4yduv)" points="22,65.9063,217,65.9063,224,88.2031,873,88.2031,873,558.9063,22,558.9063,22,65.9063" style="stroke: #000000; stroke-width: 1.5;"/><line style="stroke: #000000; stroke-width: 1.5;" x1="22" x2="224" y1="88.2031" y2="88.2031"/><text fill="#000000" font-family="sans-serif" font-size="14" font-weight="bold" lengthAdjust="spacingAndGlyphs" textLength="189" x="26" y="80.9014">in.ashwanik.pdp.factory_method</text><!--class in.ashwanik.pdp.factory.AuthenticationConfig--><rect fill="#FEFECE" filter="url(#fmann6pe4yduv)" height="163.2422" id="in.ashwanik.pdp.factory_method.AuthenticationConfig" style="stroke: #A80036; stroke-width: 1.5;" width="163" x="38.5" y="379.9063"/><ellipse cx="53.5" cy="395.9063" fill="#ADD1B2" rx="11" ry="11" style="stroke: #A80036; stroke-width: 1.0;"/><path d="M55.8438,391.5781 L56.0156,391.6563 C56.2344,391.3438 56.4375,391.25 56.7344,391.25 C57.0313,391.25 57.3125,391.3906 57.4688,391.6563 C57.5625,391.8125 57.5781,391.9375 57.5781,392.375 L57.5781,393.7969 C57.5781,394.2188 57.5469,394.4063 57.4375,394.5625 C57.2656,394.7813 57,394.9219 56.7344,394.9219 C56.5156,394.9219 56.2813,394.8125 56.1406,394.6719 C56,394.5469 55.9688,394.4219 55.9063,394.0156 C55.8125,393.6094 55.6406,393.3906 55.1563,393.1094 C54.6875,392.8594 54.0781,392.7031 53.5,392.7031 C51.7656,392.7031 50.5156,394.0156 50.5156,395.7969 L50.5156,396.8906 C50.5156,398.5938 51.8125,399.6875 53.8594,399.6875 C54.625,399.6875 55.3125,399.5625 55.7344,399.2969 C55.9219,399.2031 55.9219,399.2031 56.375,398.7188 C56.5625,398.5313 56.7656,398.4531 56.9844,398.4531 C57.4531,398.4531 57.8438,398.8438 57.8438,399.2969 C57.8438,399.6875 57.5156,400.1406 56.9375,400.5469 C56.1875,401.0938 55.0313,401.3906 53.8125,401.3906 C50.9219,401.3906 48.8125,399.5 48.8125,396.9219 L48.8125,395.7969 C48.8125,393.0781 50.8125,391 53.4375,391 C54.3125,391 54.9063,391.1406 55.8438,391.5781 Z "/><text fill="#000000" font-family="sans-serif" font-size="12" lengthAdjust="spacingAndGlyphs" textLength="131" x="67.5" y="400.0605">AuthenticationConfig</text><line style="stroke: #A80036; stroke-width: 1.5;" x1="39.5" x2="200.5" y1="411.9063" y2="411.9063"/><rect fill="none" height="6" style="stroke: #C82930; stroke-width: 1.0;" width="6" x="46.5" y="419.9063"/><text fill="#000000" font-family="sans-serif" font-size="11" lengthAdjust="spacingAndGlyphs" textLength="117" x="58.5" y="426.1167">applicationId : String</text><rect fill="none" height="6" style="stroke: #C82930; stroke-width: 1.0;" width="6" x="46.5" y="432.7109"/><text fill="#000000" font-family="sans-serif" font-size="11" lengthAdjust="spacingAndGlyphs" textLength="86" x="58.5" y="438.9214">clientId : String</text><rect fill="none" height="6" style="stroke: #C82930; stroke-width: 1.0;" width="6" x="46.5" y="445.5156"/><text fill="#000000" font-family="sans-serif" font-size="11" lengthAdjust="spacingAndGlyphs" textLength="113" x="58.5" y="451.7261">clientSecret : String</text><line style="stroke: #A80036; stroke-width: 1.5;" x1="39.5" x2="200.5" y1="458.3203" y2="458.3203"/><ellipse cx="49.5" cy="469.3203" fill="#84BE84" rx="3" ry="3" style="stroke: #038048; stroke-width: 1.0;"/><text fill="#000000" font-family="sans-serif" font-size="11" lengthAdjust="spacingAndGlyphs" textLength="97" x="58.5" y="472.5308">getApplicationId()</text><ellipse cx="49.5" cy="482.125" fill="#84BE84" rx="3" ry="3" style="stroke: #038048; stroke-width: 1.0;"/><text fill="#000000" font-family="sans-serif" font-size="11" lengthAdjust="spacingAndGlyphs" textLength="68" x="58.5" y="485.3354">getClientId()</text><ellipse cx="49.5" cy="494.9297" fill="#84BE84" rx="3" ry="3" style="stroke: #038048; stroke-width: 1.0;"/><text fill="#000000" font-family="sans-serif" font-size="11" lengthAdjust="spacingAndGlyphs" textLength="95" x="58.5" y="498.1401">getClientSecret()</text><ellipse cx="49.5" cy="507.7344" fill="#84BE84" rx="3" ry="3" style="stroke: #038048; stroke-width: 1.0;"/><text fill="#000000" font-family="sans-serif" font-size="11" lengthAdjust="spacingAndGlyphs" textLength="97" x="58.5" y="510.9448">setApplicationId()</text><ellipse cx="49.5" cy="520.5391" fill="#84BE84" rx="3" ry="3" style="stroke: #038048; stroke-width: 1.0;"/><text fill="#000000" font-family="sans-serif" font-size="11" lengthAdjust="spacingAndGlyphs" textLength="68" x="58.5" y="523.7495">setClientId()</text><ellipse cx="49.5" cy="533.3438" fill="#84BE84" rx="3" ry="3" style="stroke: #038048; stroke-width: 1.0;"/><text fill="#000000" font-family="sans-serif" font-size="11" lengthAdjust="spacingAndGlyphs" textLength="95" x="58.5" y="536.5542">setClientSecret()</text><!--class in.ashwanik.pdp.factory.ClientType--><rect fill="#FEFECE" filter="url(#fmann6pe4yduv)" height="86.4141" id="in.ashwanik.pdp.factory_method.ClientType" style="stroke: #A80036; stroke-width: 1.5;" width="96" x="554" y="158.9063"/><ellipse cx="569" cy="174.9063" fill="#EB937F" rx="11" ry="11" style="stroke: #A80036; stroke-width: 1.0;"/><path d="M567.2969,175.7813 L567.2969,178.2031 L571.6563,178.2031 L571.6563,177.3281 C571.6563,176.8438 571.6875,176.7031 571.7969,176.5469 C571.9688,176.2969 572.2344,176.1875 572.5,176.1875 C572.7813,176.1875 573.0625,176.3438 573.2344,176.5938 C573.3125,176.75 573.3438,176.8906 573.3438,177.3281 L573.3438,179.9063 L565.3438,179.9063 C564.9531,179.9063 564.7188,179.8594 564.5781,179.7344 C564.3594,179.5781 564.2188,179.3281 564.2188,179.0625 C564.2188,178.7656 564.375,178.5 564.625,178.3281 C564.7813,178.2188 564.9375,178.2031 565.3438,178.2031 L565.5938,178.2031 L565.5938,171.6875 L565.3438,171.6875 C564.9219,171.6875 564.7344,171.6563 564.5781,171.5469 C564.3594,171.375 564.2188,171.125 564.2188,170.8438 C564.2188,170.5625 564.375,170.2656 564.625,170.1094 C564.7813,170.0156 564.9063,170 565.3438,170 L572.9688,170 L572.9688,172.5469 C572.9688,173.0156 572.9375,173.1563 572.8281,173.3281 C572.6563,173.5469 572.3906,173.6875 572.125,173.6875 C571.8438,173.6875 571.5625,173.5313 571.3906,173.2813 C571.3125,173.125 571.2813,172.9531 571.2813,172.5469 L571.2813,171.6875 L567.2969,171.6875 L567.2969,174.0938 L568.75,174.0938 L568.75,173.9688 C568.75,173.5156 568.7813,173.3594 568.8906,173.1875 C569.0625,172.9688 569.3281,172.8281 569.5781,172.8281 C570.0313,172.8281 570.3438,173.1406 570.4063,173.6094 C570.4219,173.7656 570.4219,173.8125 570.4219,173.9688 L570.4219,175.8906 C570.4219,176.3438 570.3906,176.5 570.2656,176.6563 C570.1094,176.875 569.8438,177.0156 569.5938,177.0156 C569.2969,177.0156 569.0156,176.8594 568.8594,176.6094 C568.7813,176.4531 568.75,176.2969 568.75,175.8906 L568.75,175.7813 Z "/><text fill="#000000" font-family="sans-serif" font-size="12" lengthAdjust="spacingAndGlyphs" textLength="64" x="583" y="179.0605">ClientType</text><line style="stroke: #A80036; stroke-width: 1.5;" x1="555" x2="649" y1="190.9063" y2="190.9063"/><text fill="#000000" font-family="sans-serif" font-size="11" lengthAdjust="spacingAndGlyphs" textLength="40" x="560" y="205.1167">JABBER</text><text fill="#000000" font-family="sans-serif" font-size="11" lengthAdjust="spacingAndGlyphs" textLength="83" x="560" y="217.9214">MATTER_MOST</text><text fill="#000000" font-family="sans-serif" font-size="11" lengthAdjust="spacingAndGlyphs" textLength="36" x="560" y="230.7261">SLACK</text><line style="stroke: #A80036; stroke-width: 1.5;" x1="555" x2="649" y1="237.3203" y2="237.3203"/><!--class in.ashwanik.pdp.factory.JabberClient--><rect fill="#FEFECE" filter="url(#fmann6pe4yduv)" height="73.6094" id="in.ashwanik.pdp.factory_method.JabberClient" style="stroke: #A80036; stroke-width: 1.5;" width="107" x="236.5" y="424.4063"/><ellipse cx="251.5" cy="440.4063" fill="#ADD1B2" rx="11" ry="11" style="stroke: #A80036; stroke-width: 1.0;"/><path d="M253.8438,436.0781 L254.0156,436.1563 C254.2344,435.8438 254.4375,435.75 254.7344,435.75 C255.0313,435.75 255.3125,435.8906 255.4688,436.1563 C255.5625,436.3125 255.5781,436.4375 255.5781,436.875 L255.5781,438.2969 C255.5781,438.7188 255.5469,438.9063 255.4375,439.0625 C255.2656,439.2813 255,439.4219 254.7344,439.4219 C254.5156,439.4219 254.2813,439.3125 254.1406,439.1719 C254,439.0469 253.9688,438.9219 253.9063,438.5156 C253.8125,438.1094 253.6406,437.8906 253.1563,437.6094 C252.6875,437.3594 252.0781,437.2031 251.5,437.2031 C249.7656,437.2031 248.5156,438.5156 248.5156,440.2969 L248.5156,441.3906 C248.5156,443.0938 249.8125,444.1875 251.8594,444.1875 C252.625,444.1875 253.3125,444.0625 253.7344,443.7969 C253.9219,443.7031 253.9219,443.7031 254.375,443.2188 C254.5625,443.0313 254.7656,442.9531 254.9844,442.9531 C255.4531,442.9531 255.8438,443.3438 255.8438,443.7969 C255.8438,444.1875 255.5156,444.6406 254.9375,445.0469 C254.1875,445.5938 253.0313,445.8906 251.8125,445.8906 C248.9219,445.8906 246.8125,444 246.8125,441.4219 L246.8125,440.2969 C246.8125,437.5781 248.8125,435.5 251.4375,435.5 C252.3125,435.5 252.9063,435.6406 253.8438,436.0781 Z "/><text fill="#000000" font-family="sans-serif" font-size="12" lengthAdjust="spacingAndGlyphs" textLength="75" x="265.5" y="444.5605">JabberClient</text><line style="stroke: #A80036; stroke-width: 1.5;" x1="237.5" x2="342.5" y1="456.4063" y2="456.4063"/><line style="stroke: #A80036; stroke-width: 1.5;" x1="237.5" x2="342.5" y1="464.4063" y2="464.4063"/><ellipse cx="247.5" cy="475.4063" fill="#84BE84" rx="3" ry="3" style="stroke: #038048; stroke-width: 1.0;"/><text fill="#000000" font-family="sans-serif" font-size="11" lengthAdjust="spacingAndGlyphs" textLength="76" x="256.5" y="478.6167">JabberClient()</text><ellipse cx="247.5" cy="488.2109" fill="#84BE84" rx="3" ry="3" style="stroke: #038048; stroke-width: 1.0;"/><text fill="#000000" font-family="sans-serif" font-size="11" lengthAdjust="spacingAndGlyphs" textLength="36" x="256.5" y="491.4214">send()</text><!--class in.ashwanik.pdp.factory.MatterMostClient--><rect fill="#FEFECE" filter="url(#fmann6pe4yduv)" height="73.6094" id="in.ashwanik.pdp.factory_method.MatterMostClient" style="stroke: #A80036; stroke-width: 1.5;" width="138" x="379" y="424.4063"/><ellipse cx="394" cy="440.4063" fill="#ADD1B2" rx="11" ry="11" style="stroke: #A80036; stroke-width: 1.0;"/><path d="M396.3438,436.0781 L396.5156,436.1563 C396.7344,435.8438 396.9375,435.75 397.2344,435.75 C397.5313,435.75 397.8125,435.8906 397.9688,436.1563 C398.0625,436.3125 398.0781,436.4375 398.0781,436.875 L398.0781,438.2969 C398.0781,438.7188 398.0469,438.9063 397.9375,439.0625 C397.7656,439.2813 397.5,439.4219 397.2344,439.4219 C397.0156,439.4219 396.7813,439.3125 396.6406,439.1719 C396.5,439.0469 396.4688,438.9219 396.4063,438.5156 C396.3125,438.1094 396.1406,437.8906 395.6563,437.6094 C395.1875,437.3594 394.5781,437.2031 394,437.2031 C392.2656,437.2031 391.0156,438.5156 391.0156,440.2969 L391.0156,441.3906 C391.0156,443.0938 392.3125,444.1875 394.3594,444.1875 C395.125,444.1875 395.8125,444.0625 396.2344,443.7969 C396.4219,443.7031 396.4219,443.7031 396.875,443.2188 C397.0625,443.0313 397.2656,442.9531 397.4844,442.9531 C397.9531,442.9531 398.3438,443.3438 398.3438,443.7969 C398.3438,444.1875 398.0156,444.6406 397.4375,445.0469 C396.6875,445.5938 395.5313,445.8906 394.3125,445.8906 C391.4219,445.8906 389.3125,444 389.3125,441.4219 L389.3125,440.2969 C389.3125,437.5781 391.3125,435.5 393.9375,435.5 C394.8125,435.5 395.4063,435.6406 396.3438,436.0781 Z "/><text fill="#000000" font-family="sans-serif" font-size="12" lengthAdjust="spacingAndGlyphs" textLength="106" x="408" y="444.5605">MatterMostClient</text><line style="stroke: #A80036; stroke-width: 1.5;" x1="380" x2="516" y1="456.4063" y2="456.4063"/><line style="stroke: #A80036; stroke-width: 1.5;" x1="380" x2="516" y1="464.4063" y2="464.4063"/><ellipse cx="390" cy="475.4063" fill="#84BE84" rx="3" ry="3" style="stroke: #038048; stroke-width: 1.0;"/><text fill="#000000" font-family="sans-serif" font-size="11" lengthAdjust="spacingAndGlyphs" textLength="103" x="399" y="478.6167">MatterMostClient()</text><ellipse cx="390" cy="488.2109" fill="#84BE84" rx="3" ry="3" style="stroke: #038048; stroke-width: 1.0;"/><text fill="#000000" font-family="sans-serif" font-size="11" lengthAdjust="spacingAndGlyphs" textLength="36" x="399" y="491.4214">send()</text><!--class in.ashwanik.pdp.factory.Message--><rect fill="#FEFECE" filter="url(#fmann6pe4yduv)" height="201.6563" id="in.ashwanik.pdp.factory_method.Message" style="stroke: #A80036; stroke-width: 1.5;" width="172" x="685" y="100.9063"/><ellipse cx="738.75" cy="116.9063" fill="#ADD1B2" rx="11" ry="11" style="stroke: #A80036; stroke-width: 1.0;"/><path d="M741.0938,112.5781 L741.2656,112.6563 C741.4844,112.3438 741.6875,112.25 741.9844,112.25 C742.2813,112.25 742.5625,112.3906 742.7188,112.6563 C742.8125,112.8125 742.8281,112.9375 742.8281,113.375 L742.8281,114.7969 C742.8281,115.2188 742.7969,115.4063 742.6875,115.5625 C742.5156,115.7813 742.25,115.9219 741.9844,115.9219 C741.7656,115.9219 741.5313,115.8125 741.3906,115.6719 C741.25,115.5469 741.2188,115.4219 741.1563,115.0156 C741.0625,114.6094 740.8906,114.3906 740.4063,114.1094 C739.9375,113.8594 739.3281,113.7031 738.75,113.7031 C737.0156,113.7031 735.7656,115.0156 735.7656,116.7969 L735.7656,117.8906 C735.7656,119.5938 737.0625,120.6875 739.1094,120.6875 C739.875,120.6875 740.5625,120.5625 740.9844,120.2969 C741.1719,120.2031 741.1719,120.2031 741.625,119.7188 C741.8125,119.5313 742.0156,119.4531 742.2344,119.4531 C742.7031,119.4531 743.0938,119.8438 743.0938,120.2969 C743.0938,120.6875 742.7656,121.1406 742.1875,121.5469 C741.4375,122.0938 740.2813,122.3906 739.0625,122.3906 C736.1719,122.3906 734.0625,120.5 734.0625,117.9219 L734.0625,116.7969 C734.0625,114.0781 736.0625,112 738.6875,112 C739.5625,112 740.1563,112.1406 741.0938,112.5781 Z "/><text fill="#000000" font-family="sans-serif" font-size="12" lengthAdjust="spacingAndGlyphs" textLength="56" x="759.25" y="121.0605">Message</text><line style="stroke: #A80036; stroke-width: 1.5;" x1="686" x2="856" y1="132.9063" y2="132.9063"/><rect fill="none" height="6" style="stroke: #C82930; stroke-width: 1.0;" width="6" x="693" y="140.9063"/><text fill="#000000" font-family="sans-serif" font-size="11" lengthAdjust="spacingAndGlyphs" textLength="73" x="705" y="147.1167">from : String</text><rect fill="none" height="6" style="stroke: #C82930; stroke-width: 1.0;" width="6" x="693" y="153.7109"/><text fill="#000000" font-family="sans-serif" font-size="11" lengthAdjust="spacingAndGlyphs" textLength="146" x="705" y="159.9214">sentDate : LocalDateTime</text><rect fill="none" height="6" style="stroke: #C82930; stroke-width: 1.0;" width="6" x="693" y="166.5156"/><text fill="#000000" font-family="sans-serif" font-size="11" lengthAdjust="spacingAndGlyphs" textLength="67" x="705" y="172.7261">text : String</text><rect fill="none" height="6" style="stroke: #C82930; stroke-width: 1.0;" width="6" x="693" y="179.3203"/><text fill="#000000" font-family="sans-serif" font-size="11" lengthAdjust="spacingAndGlyphs" textLength="57" x="705" y="185.5308">to : String</text><line style="stroke: #A80036; stroke-width: 1.5;" x1="686" x2="856" y1="192.125" y2="192.125"/><ellipse cx="696" cy="203.125" fill="#84BE84" rx="3" ry="3" style="stroke: #038048; stroke-width: 1.0;"/><text fill="#000000" font-family="sans-serif" font-size="11" lengthAdjust="spacingAndGlyphs" textLength="55" x="705" y="206.3354">getFrom()</text><ellipse cx="696" cy="215.9297" fill="#84BE84" rx="3" ry="3" style="stroke: #038048; stroke-width: 1.0;"/><text fill="#000000" font-family="sans-serif" font-size="11" lengthAdjust="spacingAndGlyphs" textLength="78" x="705" y="219.1401">getSentDate()</text><ellipse cx="696" cy="228.7344" fill="#84BE84" rx="3" ry="3" style="stroke: #038048; stroke-width: 1.0;"/><text fill="#000000" font-family="sans-serif" font-size="11" lengthAdjust="spacingAndGlyphs" textLength="50" x="705" y="231.9448">getText()</text><ellipse cx="696" cy="241.5391" fill="#84BE84" rx="3" ry="3" style="stroke: #038048; stroke-width: 1.0;"/><text fill="#000000" font-family="sans-serif" font-size="11" lengthAdjust="spacingAndGlyphs" textLength="40" x="705" y="244.7495">getTo()</text><ellipse cx="696" cy="254.3438" fill="#84BE84" rx="3" ry="3" style="stroke: #038048; stroke-width: 1.0;"/><text fill="#000000" font-family="sans-serif" font-size="11" lengthAdjust="spacingAndGlyphs" textLength="55" x="705" y="257.5542">setFrom()</text><ellipse cx="696" cy="267.1484" fill="#84BE84" rx="3" ry="3" style="stroke: #038048; stroke-width: 1.0;"/><text fill="#000000" font-family="sans-serif" font-size="11" lengthAdjust="spacingAndGlyphs" textLength="78" x="705" y="270.3589">setSentDate()</text><ellipse cx="696" cy="279.9531" fill="#84BE84" rx="3" ry="3" style="stroke: #038048; stroke-width: 1.0;"/><text fill="#000000" font-family="sans-serif" font-size="11" lengthAdjust="spacingAndGlyphs" textLength="50" x="705" y="283.1636">setText()</text><ellipse cx="696" cy="292.7578" fill="#84BE84" rx="3" ry="3" style="stroke: #038048; stroke-width: 1.0;"/><text fill="#000000" font-family="sans-serif" font-size="11" lengthAdjust="spacingAndGlyphs" textLength="40" x="705" y="295.9683">setTo()</text><!--class in.ashwanik.pdp.factory.MessageClient--><rect fill="#FEFECE" filter="url(#fmann6pe4yduv)" height="86.4141" id="in.ashwanik.pdp.factory_method.MessageClient" style="stroke: #A80036; stroke-width: 1.5;" width="162" x="271" y="158.9063"/><ellipse cx="304.45" cy="174.9063" fill="#A9DCDF" rx="11" ry="11" style="stroke: #A80036; stroke-width: 1.0;"/><path d="M306.0281,176.7188 L301.9813,176.7188 L301.5906,177.7031 L301.9813,177.7031 C302.4344,177.7031 302.575,177.7344 302.7469,177.8594 C302.9656,178.0313 303.0906,178.2813 303.0906,178.5625 C303.0906,178.8438 302.95,179.1406 302.6844,179.2813 C302.5594,179.375 302.3406,179.4063 301.9813,179.4063 L299.7156,179.4063 C298.9656,179.4063 298.5906,179.125 298.5906,178.5625 C298.5906,178.2656 298.7469,177.9844 298.9969,177.8281 C299.1531,177.7188 299.3094,177.7031 299.7313,177.7031 L302.3719,171.1875 L301.2938,171.1875 C300.8563,171.1875 300.6844,171.1563 300.5125,171.0469 C300.2938,170.875 300.1531,170.625 300.1531,170.3438 C300.1531,170.0625 300.3094,169.7813 300.5594,169.6094 C300.7156,169.5156 300.8406,169.5 301.2938,169.5 L304.9656,169.5 L308.3563,177.7031 C308.825,177.7031 308.9813,177.7344 309.1531,177.875 C309.3719,178.0313 309.5125,178.2813 309.5125,178.5625 C309.5125,178.8438 309.3563,179.1406 309.1063,179.2813 C308.9656,179.375 308.7469,179.4063 308.3875,179.4063 L306.0281,179.4063 C305.6063,179.4063 305.4031,179.3594 305.2625,179.2344 C305.0438,179.0781 304.9031,178.8281 304.9031,178.5625 C304.9031,178.2656 305.0594,177.9844 305.3094,177.8281 C305.4656,177.7188 305.575,177.7031 306.0281,177.7031 L306.4188,177.7031 Z M305.325,175.0156 L303.9969,171.75 L302.6531,175.0156 Z "/><text fill="#000000" font-family="sans-serif" font-size="12" font-style="italic" lengthAdjust="spacingAndGlyphs" textLength="89" x="322.55" y="179.0605">MessageClient</text><line style="stroke: #A80036; stroke-width: 1.5;" x1="272" x2="432" y1="190.9063" y2="190.9063"/><polygon fill="none" points="282,196.9063,286,200.9063,282,204.9063,278,200.9063" style="stroke: #B38D22; stroke-width: 1.0;"/><text fill="#000000" font-family="sans-serif" font-size="11" lengthAdjust="spacingAndGlyphs" textLength="136" x="291" y="205.1167">httpClient : OkHttpClient</text><line style="stroke: #A80036; stroke-width: 1.5;" x1="272" x2="432" y1="211.7109" y2="211.7109"/><ellipse cx="282" cy="222.7109" fill="#84BE84" rx="3" ry="3" style="stroke: #038048; stroke-width: 1.0;"/><text fill="#000000" font-family="sans-serif" font-size="11" lengthAdjust="spacingAndGlyphs" textLength="91" x="291" y="225.9214">MessageClient()</text><ellipse cx="282" cy="235.5156" fill="#84BE84" rx="3" ry="3" style="stroke: #038048; stroke-width: 1.0;"/><text fill="#000000" font-family="sans-serif" font-size="11" font-style="italic" lengthAdjust="spacingAndGlyphs" textLength="35" x="291" y="238.7261">send()</text><!--class in.ashwanik.pdp.factory.MessageClientFactory--><rect fill="#FEFECE" filter="url(#fmann6pe4yduv)" height="60.8047" id="in.ashwanik.pdp.factory_method.MessageClientFactory" style="stroke: #A80036; stroke-width: 1.5;" width="169" x="687.5" y="430.9063"/><ellipse cx="702.5" cy="446.9063" fill="#ADD1B2" rx="11" ry="11" style="stroke: #A80036; stroke-width: 1.0;"/><path d="M704.8438,442.5781 L705.0156,442.6563 C705.2344,442.3438 705.4375,442.25 705.7344,442.25 C706.0313,442.25 706.3125,442.3906 706.4688,442.6563 C706.5625,442.8125 706.5781,442.9375 706.5781,443.375 L706.5781,444.7969 C706.5781,445.2188 706.5469,445.4063 706.4375,445.5625 C706.2656,445.7813 706,445.9219 705.7344,445.9219 C705.5156,445.9219 705.2813,445.8125 705.1406,445.6719 C705,445.5469 704.9688,445.4219 704.9063,445.0156 C704.8125,444.6094 704.6406,444.3906 704.1563,444.1094 C703.6875,443.8594 703.0781,443.7031 702.5,443.7031 C700.7656,443.7031 699.5156,445.0156 699.5156,446.7969 L699.5156,447.8906 C699.5156,449.5938 700.8125,450.6875 702.8594,450.6875 C703.625,450.6875 704.3125,450.5625 704.7344,450.2969 C704.9219,450.2031 704.9219,450.2031 705.375,449.7188 C705.5625,449.5313 705.7656,449.4531 705.9844,449.4531 C706.4531,449.4531 706.8438,449.8438 706.8438,450.2969 C706.8438,450.6875 706.5156,451.1406 705.9375,451.5469 C705.1875,452.0938 704.0313,452.3906 702.8125,452.3906 C699.9219,452.3906 697.8125,450.5 697.8125,447.9219 L697.8125,446.7969 C697.8125,444.0781 699.8125,442 702.4375,442 C703.3125,442 703.9063,442.1406 704.8438,442.5781 Z "/><text fill="#000000" font-family="sans-serif" font-size="12" lengthAdjust="spacingAndGlyphs" textLength="137" x="716.5" y="451.0605">MessageClientFactory</text><line style="stroke: #A80036; stroke-width: 1.5;" x1="688.5" x2="855.5" y1="462.9063" y2="462.9063"/><line style="stroke: #A80036; stroke-width: 1.5;" x1="688.5" x2="855.5" y1="470.9063" y2="470.9063"/><ellipse cx="698.5" cy="481.9063" fill="#84BE84" rx="3" ry="3" style="stroke: #038048; stroke-width: 1.0;"/><text fill="#000000" font-family="sans-serif" font-size="11" lengthAdjust="spacingAndGlyphs" text-decoration="underline" textLength="58" x="707.5" y="485.1167">getClient()</text><!--class in.ashwanik.pdp.factory.SlackClient--><rect fill="#FEFECE" filter="url(#fmann6pe4yduv)" height="73.6094" id="in.ashwanik.pdp.factory_method.SlackClient" style="stroke: #A80036; stroke-width: 1.5;" width="100" x="552" y="424.4063"/><ellipse cx="567" cy="440.4063" fill="#ADD1B2" rx="11" ry="11" style="stroke: #A80036; stroke-width: 1.0;"/><path d="M569.3438,436.0781 L569.5156,436.1563 C569.7344,435.8438 569.9375,435.75 570.2344,435.75 C570.5313,435.75 570.8125,435.8906 570.9688,436.1563 C571.0625,436.3125 571.0781,436.4375 571.0781,436.875 L571.0781,438.2969 C571.0781,438.7188 571.0469,438.9063 570.9375,439.0625 C570.7656,439.2813 570.5,439.4219 570.2344,439.4219 C570.0156,439.4219 569.7813,439.3125 569.6406,439.1719 C569.5,439.0469 569.4688,438.9219 569.4063,438.5156 C569.3125,438.1094 569.1406,437.8906 568.6563,437.6094 C568.1875,437.3594 567.5781,437.2031 567,437.2031 C565.2656,437.2031 564.0156,438.5156 564.0156,440.2969 L564.0156,441.3906 C564.0156,443.0938 565.3125,444.1875 567.3594,444.1875 C568.125,444.1875 568.8125,444.0625 569.2344,443.7969 C569.4219,443.7031 569.4219,443.7031 569.875,443.2188 C570.0625,443.0313 570.2656,442.9531 570.4844,442.9531 C570.9531,442.9531 571.3438,443.3438 571.3438,443.7969 C571.3438,444.1875 571.0156,444.6406 570.4375,445.0469 C569.6875,445.5938 568.5313,445.8906 567.3125,445.8906 C564.4219,445.8906 562.3125,444 562.3125,441.4219 L562.3125,440.2969 C562.3125,437.5781 564.3125,435.5 566.9375,435.5 C567.8125,435.5 568.4063,435.6406 569.3438,436.0781 Z "/><text fill="#000000" font-family="sans-serif" font-size="12" lengthAdjust="spacingAndGlyphs" textLength="68" x="581" y="444.5605">SlackClient</text><line style="stroke: #A80036; stroke-width: 1.5;" x1="553" x2="651" y1="456.4063" y2="456.4063"/><line style="stroke: #A80036; stroke-width: 1.5;" x1="553" x2="651" y1="464.4063" y2="464.4063"/><ellipse cx="563" cy="475.4063" fill="#84BE84" rx="3" ry="3" style="stroke: #038048; stroke-width: 1.0;"/><text fill="#000000" font-family="sans-serif" font-size="11" lengthAdjust="spacingAndGlyphs" textLength="70" x="572" y="478.6167">SlackClient()</text><ellipse cx="563" cy="488.2109" fill="#84BE84" rx="3" ry="3" style="stroke: #038048; stroke-width: 1.0;"/><text fill="#000000" font-family="sans-serif" font-size="11" lengthAdjust="spacingAndGlyphs" textLength="36" x="572" y="491.4214">send()</text><!--reverse link in.ashwanik.pdp.factory.MessageClient to in.ashwanik.pdp.factory.JabberClient--><path d="M337.07,264.9153 C325.062,314.7873 308.608,383.1242 298.672,424.3893 " fill="none" id="in.ashwanik.pdp.factory_method.MessageClient&lt;-in.ashwanik.pdp.factory_method.JabberClient" style="stroke: #A80036; stroke-width: 1.0;"/><polygon fill="none" points="330.344,262.9443,341.831,245.1393,343.955,266.2213,330.344,262.9443" style="stroke: #A80036; stroke-width: 1.0;"/><!--reverse link in.ashwanik.pdp.factory.MessageClient to in.ashwanik.pdp.factory.MatterMostClient--><path d="M374.746,263.9183 C393.37,313.8723 419.085,382.8493 434.572,424.3893 " fill="none" id="in.ashwanik.pdp.factory_method.MessageClient&lt;-in.ashwanik.pdp.factory_method.MatterMostClient" style="stroke: #A80036; stroke-width: 1.0;"/><polygon fill="none" points="368.173,266.3243,367.745,245.1393,381.291,261.4333,368.173,266.3243" style="stroke: #A80036; stroke-width: 1.0;"/><!--reverse link in.ashwanik.pdp.factory.MessageClient to in.ashwanik.pdp.factory.AuthenticationConfig--><path d="M266.023,252.4792 C234.258,274.0303 199.957,301.5523 175,332.9063 C163.89,346.8633 154.608,363.4053 147.024,379.8713 " fill="none" id="in.ashwanik.pdp.factory_method.MessageClient&lt;-in.ashwanik.pdp.factory_method.AuthenticationConfig" style="stroke: #A80036; stroke-width: 1.0;"/><polygon fill="#FFFFFF" points="277.133,245.1083,269.9219,245.0922,267.1336,251.7424,274.3447,251.7585,277.133,245.1083" style="stroke: #A80036; stroke-width: 1.0;"/><text fill="#000000" font-family="sans-serif" font-size="13" lengthAdjust="spacingAndGlyphs" textLength="132" x="176" y="345.9731">authenticationConfig</text><!--reverse link in.ashwanik.pdp.factory.MessageClient to in.ashwanik.pdp.factory.SlackClient--><path d="M413.37,259.1173 C449.691,293.1493 496.063,337.9503 535,379.9063 C547.987,393.9003 561.592,409.9573 573.123,424.0313 " fill="none" id="in.ashwanik.pdp.factory_method.MessageClient&lt;-in.ashwanik.pdp.factory_method.SlackClient" style="stroke: #A80036; stroke-width: 1.0;"/><polygon fill="none" points="408.328,263.9873,398.47,245.2313,417.873,253.7453,408.328,263.9873" style="stroke: #A80036; stroke-width: 1.0;"/><!--link in.ashwanik.pdp.factory.ClientType to in.ashwanik.pdp.factory.Message--><!--link in.ashwanik.pdp.factory.ClientType to in.ashwanik.pdp.factory.MessageClientFactory--><!--
@startuml
title __FACTORY__\n

  namespace in.ashwanik.pdp.factory {
    class in.ashwanik.pdp.factory.AuthenticationConfig {
        - applicationId : String
        - clientId : String
        - clientSecret : String
        + getApplicationId()
        + getClientId()
        + getClientSecret()
        + setApplicationId()
        + setClientId()
        + setClientSecret()
    }
  }
  

  namespace in.ashwanik.pdp.factory {
    enum ClientType {
      JABBER
      MATTER_MOST
      SLACK
    }
  }
  

  namespace in.ashwanik.pdp.factory {
    class in.ashwanik.pdp.factory.JabberClient {
        + JabberClient()
        + send()
    }
  }
  

  namespace in.ashwanik.pdp.factory {
    class in.ashwanik.pdp.factory.MatterMostClient {
        + MatterMostClient()
        + send()
    }
  }
  

  namespace in.ashwanik.pdp.factory {
    class in.ashwanik.pdp.factory.Message {
        - from : String
        - sentDate : LocalDateTime
        - text : String
        - to : String
        + getFrom()
        + getSentDate()
        + getText()
        + getTo()
        + setFrom()
        + setSentDate()
        + setText()
        + setTo()
    }
  }
  

  namespace in.ashwanik.pdp.factory {
    abstract class in.ashwanik.pdp.factory.MessageClient {
        # httpClient : OkHttpClient
        + MessageClient()
        {abstract} + send()
    }
  }
  

  namespace in.ashwanik.pdp.factory {
    class in.ashwanik.pdp.factory.MessageClientFactory {
        {static} + getClient()
    }
  }
  

  namespace in.ashwanik.pdp.factory {
    class in.ashwanik.pdp.factory.SlackClient {
        + SlackClient()
        + send()
    }
  }
  

  in.ashwanik.pdp.factory.JabberClient -up-|> in.ashwanik.pdp.factory.MessageClient
  in.ashwanik.pdp.factory.MatterMostClient -up-|> in.ashwanik.pdp.factory.MessageClient
  in.ashwanik.pdp.factory.MessageClient o- - in.ashwanik.pdp.factory.AuthenticationConfig : authenticationConfig
  in.ashwanik.pdp.factory.SlackClient -up-|> in.ashwanik.pdp.factory.MessageClient
@enduml

PlantUML version 1.2019.10beta5(Unknown compile time)
(GPL source distribution)
Java Runtime: Java(TM) SE Runtime Environment
JVM: Java HotSpot(TM) 64-Bit Server VM
Java Version: 1.7.0_25-b15
Operating System: Linux
Default Encoding: UTF-8
Language: en
Country: US
--></g></svg>