<?xml version="1.0" encoding="UTF-8" standalone="no"?>
<svg xmlns="http://www.w3.org/2000/svg" xmlns:xlink="http://www.w3.org/1999/xlink" contentScriptType="application/ecmascript" contentStyleType="text/css" height="628px" preserveAspectRatio="none" style="width:710px;height:628px;" version="1.1" viewBox="0 0 710 628" width="710px" zoomAndPan="magnify"><defs><filter height="300%" id="fwhk91dhpkh3" width="300%" x="-1" y="-1"><feGaussianBlur result="blurOut" stdDeviation="2.0"/><feColorMatrix in="blurOut" result="blurOut2" type="matrix" values="0 0 0 0 0 0 0 0 0 0 0 0 0 0 0 0 0 0 .4 0"/><feOffset dx="4.0" dy="4.0" in="blurOut2" result="blurOut3"/><feBlend in="SourceGraphic" in2="blurOut3" mode="normal"/></filter></defs><g><text fill="#000000" font-family="sans-serif" font-size="18" lengthAdjust="spacingAndGlyphs" text-decoration="underline" textLength="108" x="307" y="16.708">FLYWEIGHT</text><text fill="#000000" font-family="sans-serif" font-size="18" lengthAdjust="spacingAndGlyphs" textLength="0" x="364" y="37.6611"/><!--MD5=[2d47eb7d9c2c552da5c1afd459b868ff]
cluster in.ashwanik.pdp.flyweight--><polygon fill="#FFFFFF" filter="url(#fwhk91dhpkh3)" points="22,65.9063,234,65.9063,241,88.2031,688,88.2031,688,616.9063,22,616.9063,22,65.9063" style="stroke: #000000; stroke-width: 1.5;"/><line style="stroke: #000000; stroke-width: 1.5;" x1="22" x2="241" y1="88.2031" y2="88.2031"/><text fill="#000000" font-family="sans-serif" font-size="14" font-weight="bold" lengthAdjust="spacingAndGlyphs" textLength="206" x="26" y="80.9014">in.ashwanik.pdp.flyweight</text><!--MD5=[03dc5d51110ce724549895863489ad07]
class in.ashwanik.pdp.flyweight.MountainMesh--><rect fill="#FEFECE" filter="url(#fwhk91dhpkh3)" height="60.8047" id="in.ashwanik.pdp.flyweight.MountainMesh" style="stroke: #A80036; stroke-width: 1.5;" width="123" x="38.5" y="539.9063"/><ellipse cx="53.5" cy="555.9063" fill="#ADD1B2" rx="11" ry="11" style="stroke: #A80036; stroke-width: 1.0;"/><path d="M55.8438,551.5781 L56.0156,551.6563 C56.2344,551.3438 56.4375,551.25 56.7344,551.25 C57.0313,551.25 57.3125,551.3906 57.4688,551.6563 C57.5625,551.8125 57.5781,551.9375 57.5781,552.375 L57.5781,553.7969 C57.5781,554.2188 57.5469,554.4063 57.4375,554.5625 C57.2656,554.7813 57,554.9219 56.7344,554.9219 C56.5156,554.9219 56.2813,554.8125 56.1406,554.6719 C56,554.5469 55.9688,554.4219 55.9063,554.0156 C55.8125,553.6094 55.6406,553.3906 55.1563,553.1094 C54.6875,552.8594 54.0781,552.7031 53.5,552.7031 C51.7656,552.7031 50.5156,554.0156 50.5156,555.7969 L50.5156,556.8906 C50.5156,558.5938 51.8125,559.6875 53.8594,559.6875 C54.625,559.6875 55.3125,559.5625 55.7344,559.2969 C55.9219,559.2031 55.9219,559.2031 56.375,558.7188 C56.5625,558.5313 56.7656,558.4531 56.9844,558.4531 C57.4531,558.4531 57.8438,558.8438 57.8438,559.2969 C57.8438,559.6875 57.5156,560.1406 56.9375,560.5469 C56.1875,561.0938 55.0313,561.3906 53.8125,561.3906 C50.9219,561.3906 48.8125,559.5 48.8125,556.9219 L48.8125,555.7969 C48.8125,553.0781 50.8125,551 53.4375,551 C54.3125,551 54.9063,551.1406 55.8438,551.5781 Z "/><text fill="#000000" font-family="sans-serif" font-size="12" lengthAdjust="spacingAndGlyphs" textLength="91" x="67.5" y="560.0605">MountainMesh</text><line style="stroke: #A80036; stroke-width: 1.5;" x1="39.5" x2="160.5" y1="571.9063" y2="571.9063"/><line style="stroke: #A80036; stroke-width: 1.5;" x1="39.5" x2="160.5" y1="579.9063" y2="579.9063"/><polygon fill="#4177AF" points="49.5,586.9063,45.5,592.9063,53.5,592.9063" style="stroke: #1963A0; stroke-width: 1.0;"/><text fill="#000000" font-family="sans-serif" font-size="11" lengthAdjust="spacingAndGlyphs" textLength="36" x="58.5" y="594.1167">draw()</text><!--MD5=[5fbc5938c3806afc22103f99a8ca2a51]
class in.ashwanik.pdp.flyweight.Point--><rect fill="#FEFECE" filter="url(#fwhk91dhpkh3)" height="112.0234" id="in.ashwanik.pdp.flyweight.Point" style="stroke: #A80036; stroke-width: 1.5;" width="64" x="183" y="366.9063"/><ellipse cx="198" cy="382.9063" fill="#ADD1B2" rx="11" ry="11" style="stroke: #A80036; stroke-width: 1.0;"/><path d="M200.3438,378.5781 L200.5156,378.6563 C200.7344,378.3438 200.9375,378.25 201.2344,378.25 C201.5313,378.25 201.8125,378.3906 201.9688,378.6563 C202.0625,378.8125 202.0781,378.9375 202.0781,379.375 L202.0781,380.7969 C202.0781,381.2188 202.0469,381.4063 201.9375,381.5625 C201.7656,381.7813 201.5,381.9219 201.2344,381.9219 C201.0156,381.9219 200.7813,381.8125 200.6406,381.6719 C200.5,381.5469 200.4688,381.4219 200.4063,381.0156 C200.3125,380.6094 200.1406,380.3906 199.6563,380.1094 C199.1875,379.8594 198.5781,379.7031 198,379.7031 C196.2656,379.7031 195.0156,381.0156 195.0156,382.7969 L195.0156,383.8906 C195.0156,385.5938 196.3125,386.6875 198.3594,386.6875 C199.125,386.6875 199.8125,386.5625 200.2344,386.2969 C200.4219,386.2031 200.4219,386.2031 200.875,385.7188 C201.0625,385.5313 201.2656,385.4531 201.4844,385.4531 C201.9531,385.4531 202.3438,385.8438 202.3438,386.2969 C202.3438,386.6875 202.0156,387.1406 201.4375,387.5469 C200.6875,388.0938 199.5313,388.3906 198.3125,388.3906 C195.4219,388.3906 193.3125,386.5 193.3125,383.9219 L193.3125,382.7969 C193.3125,380.0781 195.3125,378 197.9375,378 C198.8125,378 199.4063,378.1406 200.3438,378.5781 Z "/><text fill="#000000" font-family="sans-serif" font-size="12" lengthAdjust="spacingAndGlyphs" textLength="32" x="212" y="387.0605">Point</text><line style="stroke: #A80036; stroke-width: 1.5;" x1="184" x2="246" y1="398.9063" y2="398.9063"/><rect fill="none" height="6" style="stroke: #C82930; stroke-width: 1.0;" width="6" x="191" y="406.9063"/><text fill="#000000" font-family="sans-serif" font-size="11" lengthAdjust="spacingAndGlyphs" textLength="32" x="203" y="413.1167">x : int</text><rect fill="none" height="6" style="stroke: #C82930; stroke-width: 1.0;" width="6" x="191" y="419.7109"/><text fill="#000000" font-family="sans-serif" font-size="11" lengthAdjust="spacingAndGlyphs" textLength="32" x="203" y="425.9214">y : int</text><line style="stroke: #A80036; stroke-width: 1.5;" x1="184" x2="246" y1="432.5156" y2="432.5156"/><ellipse cx="194" cy="443.5156" fill="#84BE84" rx="3" ry="3" style="stroke: #038048; stroke-width: 1.0;"/><text fill="#000000" font-family="sans-serif" font-size="11" lengthAdjust="spacingAndGlyphs" textLength="36" x="203" y="446.7261">Point()</text><ellipse cx="194" cy="456.3203" fill="#84BE84" rx="3" ry="3" style="stroke: #038048; stroke-width: 1.0;"/><text fill="#000000" font-family="sans-serif" font-size="11" lengthAdjust="spacingAndGlyphs" textLength="33" x="203" y="459.5308">getX()</text><ellipse cx="194" cy="469.125" fill="#84BE84" rx="3" ry="3" style="stroke: #038048; stroke-width: 1.0;"/><text fill="#000000" font-family="sans-serif" font-size="11" lengthAdjust="spacingAndGlyphs" textLength="33" x="203" y="472.3354">getY()</text><!--MD5=[c896d48599d7a0ffac493cd4245a5da4]
class in.ashwanik.pdp.flyweight.SandMesh--><rect fill="#FEFECE" filter="url(#fwhk91dhpkh3)" height="60.8047" id="in.ashwanik.pdp.flyweight.SandMesh" style="stroke: #A80036; stroke-width: 1.5;" width="97" x="196.5" y="539.9063"/><ellipse cx="211.5" cy="555.9063" fill="#ADD1B2" rx="11" ry="11" style="stroke: #A80036; stroke-width: 1.0;"/><path d="M213.8438,551.5781 L214.0156,551.6563 C214.2344,551.3438 214.4375,551.25 214.7344,551.25 C215.0313,551.25 215.3125,551.3906 215.4688,551.6563 C215.5625,551.8125 215.5781,551.9375 215.5781,552.375 L215.5781,553.7969 C215.5781,554.2188 215.5469,554.4063 215.4375,554.5625 C215.2656,554.7813 215,554.9219 214.7344,554.9219 C214.5156,554.9219 214.2813,554.8125 214.1406,554.6719 C214,554.5469 213.9688,554.4219 213.9063,554.0156 C213.8125,553.6094 213.6406,553.3906 213.1563,553.1094 C212.6875,552.8594 212.0781,552.7031 211.5,552.7031 C209.7656,552.7031 208.5156,554.0156 208.5156,555.7969 L208.5156,556.8906 C208.5156,558.5938 209.8125,559.6875 211.8594,559.6875 C212.625,559.6875 213.3125,559.5625 213.7344,559.2969 C213.9219,559.2031 213.9219,559.2031 214.375,558.7188 C214.5625,558.5313 214.7656,558.4531 214.9844,558.4531 C215.4531,558.4531 215.8438,558.8438 215.8438,559.2969 C215.8438,559.6875 215.5156,560.1406 214.9375,560.5469 C214.1875,561.0938 213.0313,561.3906 211.8125,561.3906 C208.9219,561.3906 206.8125,559.5 206.8125,556.9219 L206.8125,555.7969 C206.8125,553.0781 208.8125,551 211.4375,551 C212.3125,551 212.9063,551.1406 213.8438,551.5781 Z "/><text fill="#000000" font-family="sans-serif" font-size="12" lengthAdjust="spacingAndGlyphs" textLength="65" x="225.5" y="560.0605">SandMesh</text><line style="stroke: #A80036; stroke-width: 1.5;" x1="197.5" x2="292.5" y1="571.9063" y2="571.9063"/><line style="stroke: #A80036; stroke-width: 1.5;" x1="197.5" x2="292.5" y1="579.9063" y2="579.9063"/><polygon fill="#4177AF" points="207.5,586.9063,203.5,592.9063,211.5,592.9063" style="stroke: #1963A0; stroke-width: 1.0;"/><text fill="#000000" font-family="sans-serif" font-size="11" lengthAdjust="spacingAndGlyphs" textLength="36" x="216.5" y="594.1167">draw()</text><!--MD5=[f7a56293c32d4ce917c09cb42418c9c1]
class in.ashwanik.pdp.flyweight.TerrainMeshClient--><rect fill="#FEFECE" filter="url(#fwhk91dhpkh3)" height="112.0234" id="in.ashwanik.pdp.flyweight.TerrainMeshClient" style="stroke: #A80036; stroke-width: 1.5;" width="310" x="173" y="139.4063"/><ellipse cx="267.75" cy="155.4063" fill="#ADD1B2" rx="11" ry="11" style="stroke: #A80036; stroke-width: 1.0;"/><path d="M270.0938,151.0781 L270.2656,151.1563 C270.4844,150.8438 270.6875,150.75 270.9844,150.75 C271.2813,150.75 271.5625,150.8906 271.7188,151.1563 C271.8125,151.3125 271.8281,151.4375 271.8281,151.875 L271.8281,153.2969 C271.8281,153.7188 271.7969,153.9063 271.6875,154.0625 C271.5156,154.2813 271.25,154.4219 270.9844,154.4219 C270.7656,154.4219 270.5313,154.3125 270.3906,154.1719 C270.25,154.0469 270.2188,153.9219 270.1563,153.5156 C270.0625,153.1094 269.8906,152.8906 269.4063,152.6094 C268.9375,152.3594 268.3281,152.2031 267.75,152.2031 C266.0156,152.2031 264.7656,153.5156 264.7656,155.2969 L264.7656,156.3906 C264.7656,158.0938 266.0625,159.1875 268.1094,159.1875 C268.875,159.1875 269.5625,159.0625 269.9844,158.7969 C270.1719,158.7031 270.1719,158.7031 270.625,158.2188 C270.8125,158.0313 271.0156,157.9531 271.2344,157.9531 C271.7031,157.9531 272.0938,158.3438 272.0938,158.7969 C272.0938,159.1875 271.7656,159.6406 271.1875,160.0469 C270.4375,160.5938 269.2813,160.8906 268.0625,160.8906 C265.1719,160.8906 263.0625,159 263.0625,156.4219 L263.0625,155.2969 C263.0625,152.5781 265.0625,150.5 267.6875,150.5 C268.5625,150.5 269.1563,150.6406 270.0938,151.0781 Z "/><text fill="#000000" font-family="sans-serif" font-size="12" lengthAdjust="spacingAndGlyphs" textLength="112" x="288.25" y="159.5605">TerrainMeshClient</text><line style="stroke: #A80036; stroke-width: 1.5;" x1="174" x2="482" y1="171.4063" y2="171.4063"/><rect fill="none" height="6" style="stroke: #C82930; stroke-width: 1.0;" width="6" x="181" y="179.4063"/><text fill="#000000" font-family="sans-serif" font-size="11" lengthAdjust="spacingAndGlyphs" text-decoration="underline" textLength="163" x="193" y="185.6167">instance : TerrainMeshClient</text><rect fill="none" height="6" style="stroke: #C82930; stroke-width: 1.0;" width="6" x="181" y="192.2109"/><text fill="#000000" font-family="sans-serif" font-size="11" lengthAdjust="spacingAndGlyphs" textLength="284" x="193" y="198.4214">meshMap : EnumMap&lt;TerrainType, TerranMesh&gt;</text><line style="stroke: #A80036; stroke-width: 1.5;" x1="174" x2="482" y1="205.0156" y2="205.0156"/><ellipse cx="184" cy="216.0156" fill="#84BE84" rx="3" ry="3" style="stroke: #038048; stroke-width: 1.0;"/><text fill="#000000" font-family="sans-serif" font-size="11" lengthAdjust="spacingAndGlyphs" text-decoration="underline" textLength="74" x="193" y="219.2261">getInstance()</text><ellipse cx="184" cy="228.8203" fill="#84BE84" rx="3" ry="3" style="stroke: #038048; stroke-width: 1.0;"/><text fill="#000000" font-family="sans-serif" font-size="11" lengthAdjust="spacingAndGlyphs" textLength="56" x="193" y="232.0308">getMesh()</text><rect fill="#F24D5C" height="6" style="stroke: #C82930; stroke-width: 1.0;" width="6" x="181" y="238.625"/><text fill="#000000" font-family="sans-serif" font-size="11" lengthAdjust="spacingAndGlyphs" textLength="111" x="193" y="244.8354">TerrainMeshClient()</text><!--MD5=[1a22a8d6d212ba047b74411a1bb6e035]
class in.ashwanik.pdp.flyweight.TerrainSystem--><rect fill="#FEFECE" filter="url(#fwhk91dhpkh3)" height="188.8516" id="in.ashwanik.pdp.flyweight.TerrainSystem" style="stroke: #A80036; stroke-width: 1.5;" width="153" x="518.5" y="100.9063"/><ellipse cx="547.9" cy="116.9063" fill="#ADD1B2" rx="11" ry="11" style="stroke: #A80036; stroke-width: 1.0;"/><path d="M550.2438,112.5781 L550.4156,112.6563 C550.6344,112.3438 550.8375,112.25 551.1344,112.25 C551.4313,112.25 551.7125,112.3906 551.8688,112.6563 C551.9625,112.8125 551.9781,112.9375 551.9781,113.375 L551.9781,114.7969 C551.9781,115.2188 551.9469,115.4063 551.8375,115.5625 C551.6656,115.7813 551.4,115.9219 551.1344,115.9219 C550.9156,115.9219 550.6813,115.8125 550.5406,115.6719 C550.4,115.5469 550.3688,115.4219 550.3063,115.0156 C550.2125,114.6094 550.0406,114.3906 549.5563,114.1094 C549.0875,113.8594 548.4781,113.7031 547.9,113.7031 C546.1656,113.7031 544.9156,115.0156 544.9156,116.7969 L544.9156,117.8906 C544.9156,119.5938 546.2125,120.6875 548.2594,120.6875 C549.025,120.6875 549.7125,120.5625 550.1344,120.2969 C550.3219,120.2031 550.3219,120.2031 550.775,119.7188 C550.9625,119.5313 551.1656,119.4531 551.3844,119.4531 C551.8531,119.4531 552.2438,119.8438 552.2438,120.2969 C552.2438,120.6875 551.9156,121.1406 551.3375,121.5469 C550.5875,122.0938 549.4313,122.3906 548.2125,122.3906 C545.3219,122.3906 543.2125,120.5 543.2125,117.9219 L543.2125,116.7969 C543.2125,114.0781 545.2125,112 547.8375,112 C548.7125,112 549.3063,112.1406 550.2438,112.5781 Z "/><text fill="#000000" font-family="sans-serif" font-size="12" lengthAdjust="spacingAndGlyphs" textLength="89" x="565.1" y="121.0605">TerrainSystem</text><line style="stroke: #A80036; stroke-width: 1.5;" x1="519.5" x2="670.5" y1="132.9063" y2="132.9063"/><rect fill="none" height="6" style="stroke: #C82930; stroke-width: 1.0;" width="6" x="526.5" y="140.9063"/><text fill="#000000" font-family="sans-serif" font-size="11" lengthAdjust="spacingAndGlyphs" textLength="67" x="538.5" y="147.1167">column : int</text><rect fill="none" height="6" style="stroke: #C82930; stroke-width: 1.0;" width="6" x="526.5" y="153.7109"/><text fill="#000000" font-family="sans-serif" font-size="11" lengthAdjust="spacingAndGlyphs" textLength="110" x="538.5" y="159.9214">currentColumn : int</text><rect fill="none" height="6" style="stroke: #C82930; stroke-width: 1.0;" width="6" x="526.5" y="166.5156"/><text fill="#000000" font-family="sans-serif" font-size="11" lengthAdjust="spacingAndGlyphs" textLength="90" x="538.5" y="172.7261">currentRow : int</text><rect fill="none" height="6" style="stroke: #C82930; stroke-width: 1.0;" width="6" x="526.5" y="179.3203"/><text fill="#000000" font-family="sans-serif" font-size="11" lengthAdjust="spacingAndGlyphs" textLength="110" x="538.5" y="185.5308">numberOfTiles : int</text><rect fill="none" height="6" style="stroke: #C82930; stroke-width: 1.0;" width="6" x="526.5" y="192.125"/><text fill="#000000" font-family="sans-serif" font-size="11" lengthAdjust="spacingAndGlyphs" textLength="47" x="538.5" y="198.3354">row : int</text><rect fill="none" height="6" style="stroke: #C82930; stroke-width: 1.0;" width="6" x="526.5" y="204.9297"/><text fill="#000000" font-family="sans-serif" font-size="11" lengthAdjust="spacingAndGlyphs" textLength="127" x="538.5" y="211.1401">terrain : TerrainTile[][]</text><line style="stroke: #A80036; stroke-width: 1.5;" x1="519.5" x2="670.5" y1="217.7344" y2="217.7344"/><ellipse cx="529.5" cy="228.7344" fill="#84BE84" rx="3" ry="3" style="stroke: #038048; stroke-width: 1.0;"/><text fill="#000000" font-family="sans-serif" font-size="11" lengthAdjust="spacingAndGlyphs" textLength="111" x="538.5" y="231.9448">getNumberOfTiles()</text><polygon fill="#4177AF" points="529.5,237.5391,525.5,243.5391,533.5,243.5391" style="stroke: #1963A0; stroke-width: 1.0;"/><text fill="#000000" font-family="sans-serif" font-size="11" lengthAdjust="spacingAndGlyphs" textLength="92" x="538.5" y="244.7495">TerrainSystem()</text><polygon fill="#4177AF" points="529.5,250.3438,525.5,256.3438,533.5,256.3438" style="stroke: #1963A0; stroke-width: 1.0;"/><text fill="#000000" font-family="sans-serif" font-size="11" lengthAdjust="spacingAndGlyphs" textLength="49" x="538.5" y="257.5542">addTile()</text><polygon fill="#4177AF" points="529.5,263.1484,525.5,269.1484,533.5,269.1484" style="stroke: #1963A0; stroke-width: 1.0;"/><text fill="#000000" font-family="sans-serif" font-size="11" lengthAdjust="spacingAndGlyphs" textLength="49" x="538.5" y="270.3589">addTile()</text><polygon fill="#4177AF" points="529.5,275.9531,525.5,281.9531,533.5,281.9531" style="stroke: #1963A0; stroke-width: 1.0;"/><text fill="#000000" font-family="sans-serif" font-size="11" lengthAdjust="spacingAndGlyphs" textLength="36" x="538.5" y="283.1636">draw()</text><!--MD5=[f58b7a3c50af6e31e0db8b21811ab69e]
class in.ashwanik.pdp.flyweight.TerrainTile--><rect fill="#FEFECE" filter="url(#fwhk91dhpkh3)" height="99.2188" id="in.ashwanik.pdp.flyweight.TerrainTile" style="stroke: #A80036; stroke-width: 1.5;" width="99" x="38.5" y="145.9063"/><ellipse cx="54.4" cy="161.9063" fill="#ADD1B2" rx="11" ry="11" style="stroke: #A80036; stroke-width: 1.0;"/><path d="M56.7438,157.5781 L56.9156,157.6563 C57.1344,157.3438 57.3375,157.25 57.6344,157.25 C57.9313,157.25 58.2125,157.3906 58.3688,157.6563 C58.4625,157.8125 58.4781,157.9375 58.4781,158.375 L58.4781,159.7969 C58.4781,160.2188 58.4469,160.4063 58.3375,160.5625 C58.1656,160.7813 57.9,160.9219 57.6344,160.9219 C57.4156,160.9219 57.1813,160.8125 57.0406,160.6719 C56.9,160.5469 56.8688,160.4219 56.8063,160.0156 C56.7125,159.6094 56.5406,159.3906 56.0563,159.1094 C55.5875,158.8594 54.9781,158.7031 54.4,158.7031 C52.6656,158.7031 51.4156,160.0156 51.4156,161.7969 L51.4156,162.8906 C51.4156,164.5938 52.7125,165.6875 54.7594,165.6875 C55.525,165.6875 56.2125,165.5625 56.6344,165.2969 C56.8219,165.2031 56.8219,165.2031 57.275,164.7188 C57.4625,164.5313 57.6656,164.4531 57.8844,164.4531 C58.3531,164.4531 58.7438,164.8438 58.7438,165.2969 C58.7438,165.6875 58.4156,166.1406 57.8375,166.5469 C57.0875,167.0938 55.9313,167.3906 54.7125,167.3906 C51.8219,167.3906 49.7125,165.5 49.7125,162.9219 L49.7125,161.7969 C49.7125,159.0781 51.7125,157 54.3375,157 C55.2125,157 55.8063,157.1406 56.7438,157.5781 Z "/><text fill="#000000" font-family="sans-serif" font-size="12" lengthAdjust="spacingAndGlyphs" textLength="65" x="68.6" y="166.0605">TerrainTile</text><line style="stroke: #A80036; stroke-width: 1.5;" x1="39.5" x2="136.5" y1="177.9063" y2="177.9063"/><line style="stroke: #A80036; stroke-width: 1.5;" x1="39.5" x2="136.5" y1="185.9063" y2="185.9063"/><ellipse cx="49.5" cy="196.9063" fill="#84BE84" rx="3" ry="3" style="stroke: #038048; stroke-width: 1.0;"/><text fill="#000000" font-family="sans-serif" font-size="11" lengthAdjust="spacingAndGlyphs" textLength="69" x="58.5" y="200.1167">TerrainTile()</text><ellipse cx="49.5" cy="209.7109" fill="#84BE84" rx="3" ry="3" style="stroke: #038048; stroke-width: 1.0;"/><text fill="#000000" font-family="sans-serif" font-size="11" lengthAdjust="spacingAndGlyphs" textLength="73" x="58.5" y="212.9214">getLocation()</text><ellipse cx="49.5" cy="222.5156" fill="#84BE84" rx="3" ry="3" style="stroke: #038048; stroke-width: 1.0;"/><text fill="#000000" font-family="sans-serif" font-size="11" lengthAdjust="spacingAndGlyphs" textLength="56" x="58.5" y="225.7261">getMesh()</text><polygon fill="#4177AF" points="49.5,231.3203,45.5,237.3203,53.5,237.3203" style="stroke: #1963A0; stroke-width: 1.0;"/><text fill="#000000" font-family="sans-serif" font-size="11" lengthAdjust="spacingAndGlyphs" textLength="36" x="58.5" y="238.5308">draw()</text><!--MD5=[c256ab2b2c983f2aad54a1d99e65732c]
class in.ashwanik.pdp.flyweight.TerrainType--><rect fill="#FEFECE" filter="url(#fwhk91dhpkh3)" height="86.4141" id="in.ashwanik.pdp.flyweight.TerrainType" style="stroke: #A80036; stroke-width: 1.5;" width="105" x="282.5" y="379.9063"/><ellipse cx="297.5" cy="395.9063" fill="#EB937F" rx="11" ry="11" style="stroke: #A80036; stroke-width: 1.0;"/><path d="M295.7969,396.7813 L295.7969,399.2031 L300.1563,399.2031 L300.1563,398.3281 C300.1563,397.8438 300.1875,397.7031 300.2969,397.5469 C300.4688,397.2969 300.7344,397.1875 301,397.1875 C301.2813,397.1875 301.5625,397.3438 301.7344,397.5938 C301.8125,397.75 301.8438,397.8906 301.8438,398.3281 L301.8438,400.9063 L293.8438,400.9063 C293.4531,400.9063 293.2188,400.8594 293.0781,400.7344 C292.8594,400.5781 292.7188,400.3281 292.7188,400.0625 C292.7188,399.7656 292.875,399.5 293.125,399.3281 C293.2813,399.2188 293.4375,399.2031 293.8438,399.2031 L294.0938,399.2031 L294.0938,392.6875 L293.8438,392.6875 C293.4219,392.6875 293.2344,392.6563 293.0781,392.5469 C292.8594,392.375 292.7188,392.125 292.7188,391.8438 C292.7188,391.5625 292.875,391.2656 293.125,391.1094 C293.2813,391.0156 293.4063,391 293.8438,391 L301.4688,391 L301.4688,393.5469 C301.4688,394.0156 301.4375,394.1563 301.3281,394.3281 C301.1563,394.5469 300.8906,394.6875 300.625,394.6875 C300.3438,394.6875 300.0625,394.5313 299.8906,394.2813 C299.8125,394.125 299.7813,393.9531 299.7813,393.5469 L299.7813,392.6875 L295.7969,392.6875 L295.7969,395.0938 L297.25,395.0938 L297.25,394.9688 C297.25,394.5156 297.2813,394.3594 297.3906,394.1875 C297.5625,393.9688 297.8281,393.8281 298.0781,393.8281 C298.5313,393.8281 298.8438,394.1406 298.9063,394.6094 C298.9219,394.7656 298.9219,394.8125 298.9219,394.9688 L298.9219,396.8906 C298.9219,397.3438 298.8906,397.5 298.7656,397.6563 C298.6094,397.875 298.3438,398.0156 298.0938,398.0156 C297.7969,398.0156 297.5156,397.8594 297.3594,397.6094 C297.2813,397.4531 297.25,397.2969 297.25,396.8906 L297.25,396.7813 Z "/><text fill="#000000" font-family="sans-serif" font-size="12" lengthAdjust="spacingAndGlyphs" textLength="73" x="311.5" y="400.0605">TerrainType</text><line style="stroke: #A80036; stroke-width: 1.5;" x1="283.5" x2="386.5" y1="411.9063" y2="411.9063"/><text fill="#000000" font-family="sans-serif" font-size="11" lengthAdjust="spacingAndGlyphs" textLength="59" x="288.5" y="426.1167">MOUNTAIN</text><text fill="#000000" font-family="sans-serif" font-size="11" lengthAdjust="spacingAndGlyphs" textLength="31" x="288.5" y="438.9214">SAND</text><text fill="#000000" font-family="sans-serif" font-size="11" lengthAdjust="spacingAndGlyphs" textLength="37" x="288.5" y="451.7261">WATER</text><line style="stroke: #A80036; stroke-width: 1.5;" x1="283.5" x2="386.5" y1="458.3203" y2="458.3203"/><!--MD5=[13381c0f8f18b040ca83c69111890e75]
class in.ashwanik.pdp.flyweight.TerranMesh--><rect fill="#FEFECE" filter="url(#fwhk91dhpkh3)" height="60.8047" id="in.ashwanik.pdp.flyweight.TerranMesh" style="stroke: #A80036; stroke-width: 1.5;" width="105" x="42.5" y="392.4063"/><ellipse cx="57.5" cy="408.4063" fill="#A9DCDF" rx="11" ry="11" style="stroke: #A80036; stroke-width: 1.0;"/><path d="M59.0781,410.2188 L55.0313,410.2188 L54.6406,411.2031 L55.0313,411.2031 C55.4844,411.2031 55.625,411.2344 55.7969,411.3594 C56.0156,411.5313 56.1406,411.7813 56.1406,412.0625 C56.1406,412.3438 56,412.6406 55.7344,412.7813 C55.6094,412.875 55.3906,412.9063 55.0313,412.9063 L52.7656,412.9063 C52.0156,412.9063 51.6406,412.625 51.6406,412.0625 C51.6406,411.7656 51.7969,411.4844 52.0469,411.3281 C52.2031,411.2188 52.3594,411.2031 52.7813,411.2031 L55.4219,404.6875 L54.3438,404.6875 C53.9063,404.6875 53.7344,404.6563 53.5625,404.5469 C53.3438,404.375 53.2031,404.125 53.2031,403.8438 C53.2031,403.5625 53.3594,403.2813 53.6094,403.1094 C53.7656,403.0156 53.8906,403 54.3438,403 L58.0156,403 L61.4063,411.2031 C61.875,411.2031 62.0313,411.2344 62.2031,411.375 C62.4219,411.5313 62.5625,411.7813 62.5625,412.0625 C62.5625,412.3438 62.4063,412.6406 62.1563,412.7813 C62.0156,412.875 61.7969,412.9063 61.4375,412.9063 L59.0781,412.9063 C58.6563,412.9063 58.4531,412.8594 58.3125,412.7344 C58.0938,412.5781 57.9531,412.3281 57.9531,412.0625 C57.9531,411.7656 58.1094,411.4844 58.3594,411.3281 C58.5156,411.2188 58.625,411.2031 59.0781,411.2031 L59.4688,411.2031 Z M58.375,408.5156 L57.0469,405.25 L55.7031,408.5156 Z "/><text fill="#000000" font-family="sans-serif" font-size="12" font-style="italic" lengthAdjust="spacingAndGlyphs" textLength="73" x="71.5" y="412.5605">TerranMesh</text><line style="stroke: #A80036; stroke-width: 1.5;" x1="43.5" x2="146.5" y1="424.4063" y2="424.4063"/><line style="stroke: #A80036; stroke-width: 1.5;" x1="43.5" x2="146.5" y1="432.4063" y2="432.4063"/><polygon fill="#4177AF" points="53.5,439.4063,49.5,445.4063,57.5,445.4063" style="stroke: #1963A0; stroke-width: 1.0;"/><text fill="#000000" font-family="sans-serif" font-size="11" font-style="italic" lengthAdjust="spacingAndGlyphs" textLength="36" x="62.5" y="446.6167">draw()</text><!--MD5=[6dbf58a2e333c09923a352c58cd188d4]
class in.ashwanik.pdp.flyweight.WaterMesh--><rect fill="#FEFECE" filter="url(#fwhk91dhpkh3)" height="60.8047" id="in.ashwanik.pdp.flyweight.WaterMesh" style="stroke: #A80036; stroke-width: 1.5;" width="102" x="329" y="539.9063"/><ellipse cx="344" cy="555.9063" fill="#ADD1B2" rx="11" ry="11" style="stroke: #A80036; stroke-width: 1.0;"/><path d="M346.3438,551.5781 L346.5156,551.6563 C346.7344,551.3438 346.9375,551.25 347.2344,551.25 C347.5313,551.25 347.8125,551.3906 347.9688,551.6563 C348.0625,551.8125 348.0781,551.9375 348.0781,552.375 L348.0781,553.7969 C348.0781,554.2188 348.0469,554.4063 347.9375,554.5625 C347.7656,554.7813 347.5,554.9219 347.2344,554.9219 C347.0156,554.9219 346.7813,554.8125 346.6406,554.6719 C346.5,554.5469 346.4688,554.4219 346.4063,554.0156 C346.3125,553.6094 346.1406,553.3906 345.6563,553.1094 C345.1875,552.8594 344.5781,552.7031 344,552.7031 C342.2656,552.7031 341.0156,554.0156 341.0156,555.7969 L341.0156,556.8906 C341.0156,558.5938 342.3125,559.6875 344.3594,559.6875 C345.125,559.6875 345.8125,559.5625 346.2344,559.2969 C346.4219,559.2031 346.4219,559.2031 346.875,558.7188 C347.0625,558.5313 347.2656,558.4531 347.4844,558.4531 C347.9531,558.4531 348.3438,558.8438 348.3438,559.2969 C348.3438,559.6875 348.0156,560.1406 347.4375,560.5469 C346.6875,561.0938 345.5313,561.3906 344.3125,561.3906 C341.4219,561.3906 339.3125,559.5 339.3125,556.9219 L339.3125,555.7969 C339.3125,553.0781 341.3125,551 343.9375,551 C344.8125,551 345.4063,551.1406 346.3438,551.5781 Z "/><text fill="#000000" font-family="sans-serif" font-size="12" lengthAdjust="spacingAndGlyphs" textLength="70" x="358" y="560.0605">WaterMesh</text><line style="stroke: #A80036; stroke-width: 1.5;" x1="330" x2="430" y1="571.9063" y2="571.9063"/><line style="stroke: #A80036; stroke-width: 1.5;" x1="330" x2="430" y1="579.9063" y2="579.9063"/><polygon fill="#4177AF" points="340,586.9063,336,592.9063,344,592.9063" style="stroke: #1963A0; stroke-width: 1.0;"/><text fill="#000000" font-family="sans-serif" font-size="11" lengthAdjust="spacingAndGlyphs" textLength="36" x="349" y="594.1167">draw()</text><!--MD5=[12df8af3e063852b3bdef01728364f7c]
reverse link in.ashwanik.pdp.flyweight.TerranMesh to in.ashwanik.pdp.flyweight.MountainMesh--><path d="M96.7188,473.9243 C97.4743,495.9083 98.3355,520.9703 98.986,539.8999 " fill="none" id="in.ashwanik.pdp.flyweight.TerranMesh&lt;-in.ashwanik.pdp.flyweight.MountainMesh" style="stroke: #A80036; stroke-width: 1.0;"/><polygon fill="none" points="89.715,473.9303,96.0239,453.7012,103.7067,473.4493,89.715,473.9303" style="stroke: #A80036; stroke-width: 1.0;"/><!--MD5=[5a9dfed88470b561e750916ea97b1e1a]
reverse link in.ashwanik.pdp.flyweight.TerranMesh to in.ashwanik.pdp.flyweight.SandMesh--><path d="M140.315,467.8613 C164.354,491.1803 193.245,519.2043 214.581,539.8999 " fill="none" id="in.ashwanik.pdp.flyweight.TerranMesh&lt;-in.ashwanik.pdp.flyweight.SandMesh" style="stroke: #A80036; stroke-width: 1.0;"/><polygon fill="none" points="135.199,472.6513,125.717,453.7012,144.946,462.6023,135.199,472.6513" style="stroke: #A80036; stroke-width: 1.0;"/><!--MD5=[6a6782144a561f7e423e465395f2bccb]
reverse link in.ashwanik.pdp.flyweight.TerrainTile to in.ashwanik.pdp.flyweight.Point--><path d="M121.994,256.7663 C141.228,290.9183 165.107,333.3163 183.852,366.6003 " fill="none" id="in.ashwanik.pdp.flyweight.TerrainTile&lt;-in.ashwanik.pdp.flyweight.Point" style="stroke: #A80036; stroke-width: 1.0;"/><polygon fill="#FFFFFF" points="115.401,245.0593,114.8597,252.25,121.2891,255.5154,121.8304,248.3246,115.401,245.0593" style="stroke: #A80036; stroke-width: 1.0;"/><text fill="#000000" font-family="sans-serif" font-size="13" lengthAdjust="spacingAndGlyphs" textLength="50" x="168" y="332.9731">location</text><!--MD5=[d59f509c17239e6f766ade05167e3d15]
reverse link in.ashwanik.pdp.flyweight.TerrainTile to in.ashwanik.pdp.flyweight.TerranMesh--><path d="M89.9167,258.1523 C91.2718,301.8043 93.028,358.3813 94.0815,392.3183 " fill="none" id="in.ashwanik.pdp.flyweight.TerrainTile&lt;-in.ashwanik.pdp.flyweight.TerranMesh" style="stroke: #A80036; stroke-width: 1.0;"/><polygon fill="#FFFFFF" points="89.5103,245.0593,85.6982,251.1803,89.8822,257.0535,93.6943,250.9324,89.5103,245.0593" style="stroke: #A80036; stroke-width: 1.0;"/><text fill="#000000" font-family="sans-serif" font-size="13" lengthAdjust="spacingAndGlyphs" textLength="36" x="94" y="332.9731">mesh</text><!--MD5=[0084729842bdd2071ad70e0a80183076]
reverse link in.ashwanik.pdp.flyweight.TerranMesh to in.ashwanik.pdp.flyweight.WaterMesh--><path d="M145.035,465.7943 C151.569,470.4883 158.318,474.9833 165,478.9063 C225.646,514.5103 246.224,512.5273 311,539.9063 C316.76,542.3409 322.786,544.8996 328.775,547.4503 " fill="none" id="in.ashwanik.pdp.flyweight.TerranMesh&lt;-in.ashwanik.pdp.flyweight.WaterMesh" style="stroke: #A80036; stroke-width: 1.0;"/><polygon fill="none" points="140.614,471.2263,128.922,453.5543,149.082,460.0783,140.614,471.2263" style="stroke: #A80036; stroke-width: 1.0;"/><!--MD5=[6162fa72e77234c147ccfa3b61a6bb78]
link in.ashwanik.pdp.flyweight.TerrainMeshClient to in.ashwanik.pdp.flyweight.TerrainSystem--><!--MD5=[f27a01a2d22f0424d67cefee8ddbe5f2]
link in.ashwanik.pdp.flyweight.TerrainMeshClient to in.ashwanik.pdp.flyweight.TerrainType--><!--MD5=[7274ee50acd0bb57c607014e4b69c0d9]
@startuml
title __FLYWEIGHT__\n

  namespace in.ashwanik.pdp.flyweight {
    class in.ashwanik.pdp.flyweight.MountainMesh {
        ~ draw()
    }
  }
  

  namespace in.ashwanik.pdp.flyweight {
    class in.ashwanik.pdp.flyweight.Point {
        - x : int
        - y : int
        + Point()
        + getX()
        + getY()
    }
  }
  

  namespace in.ashwanik.pdp.flyweight {
    class in.ashwanik.pdp.flyweight.SandMesh {
        ~ draw()
    }
  }
  

  namespace in.ashwanik.pdp.flyweight {
    class in.ashwanik.pdp.flyweight.TerrainMeshClient {
        {static} - instance : TerrainMeshClient
        - meshMap : EnumMap<TerrainType, TerranMesh>
        {static} + getInstance()
        + getMesh()
        - TerrainMeshClient()
    }
  }
  

  namespace in.ashwanik.pdp.flyweight {
    class in.ashwanik.pdp.flyweight.TerrainSystem {
        - column : int
        - currentColumn : int
        - currentRow : int
        - numberOfTiles : int
        - row : int
        - terrain : TerrainTile[][]
        + getNumberOfTiles()
        ~ TerrainSystem()
        ~ addTile()
        ~ addTile()
        ~ draw()
    }
  }
  

  namespace in.ashwanik.pdp.flyweight {
    class in.ashwanik.pdp.flyweight.TerrainTile {
        + TerrainTile()
        + getLocation()
        + getMesh()
        ~ draw()
    }
  }
  

  namespace in.ashwanik.pdp.flyweight {
    enum TerrainType {
      MOUNTAIN
      SAND
      WATER
    }
  }
  

  namespace in.ashwanik.pdp.flyweight {
    abstract class in.ashwanik.pdp.flyweight.TerranMesh {
        {abstract} ~ draw()
    }
  }
  

  namespace in.ashwanik.pdp.flyweight {
    class in.ashwanik.pdp.flyweight.WaterMesh {
        ~ draw()
    }
  }
  

  in.ashwanik.pdp.flyweight.MountainMesh -up-|> in.ashwanik.pdp.flyweight.TerranMesh
  in.ashwanik.pdp.flyweight.SandMesh -up-|> in.ashwanik.pdp.flyweight.TerranMesh
  in.ashwanik.pdp.flyweight.TerrainTile o- - in.ashwanik.pdp.flyweight.Point : location
  in.ashwanik.pdp.flyweight.TerrainTile o- - in.ashwanik.pdp.flyweight.TerranMesh : mesh
  in.ashwanik.pdp.flyweight.WaterMesh -up-|> in.ashwanik.pdp.flyweight.TerranMesh
@enduml

PlantUML version 1.2019.11(Sun Sep 22 10:02:15 UTC 2019)
(GPL source distribution)
Java Runtime: Java(TM) SE Runtime Environment
JVM: Java HotSpot(TM) 64-Bit Server VM
Java Version: 1.7.0_25-b15
Operating System: Linux
Default Encoding: UTF-8
Language: en
Country: US
--></g></svg>