<?xml version="1.0" encoding="UTF-8" standalone="no"?>
<svg xmlns="http://www.w3.org/2000/svg" xmlns:xlink="http://www.w3.org/1999/xlink" contentScriptType="application/ecmascript" contentStyleType="text/css" height="438px" preserveAspectRatio="none" style="width:440px;height:438px;" version="1.1" viewBox="0 0 440 438" width="440px" zoomAndPan="magnify"><defs><filter height="300%" id="fj7bsl5d3gq9w" width="300%" x="-1" y="-1"><feGaussianBlur result="blurOut" stdDeviation="2.0"/><feColorMatrix in="blurOut" result="blurOut2" type="matrix" values="0 0 0 0 0 0 0 0 0 0 0 0 0 0 0 0 0 0 .4 0"/><feOffset dx="4.0" dy="4.0" in="blurOut2" result="blurOut3"/><feBlend in="SourceGraphic" in2="blurOut3" mode="normal"/></filter></defs><g><text fill="#000000" font-family="sans-serif" font-size="18" lengthAdjust="spacingAndGlyphs" text-decoration="underline" textLength="111" x="170.5" y="16.708">GAME_LOOP</text><text fill="#000000" font-family="sans-serif" font-size="18" lengthAdjust="spacingAndGlyphs" textLength="0" x="229" y="37.6611"/><!--cluster in.ashwanik.pdp.game_loop--><polygon fill="#FFFFFF" filter="url(#fj7bsl5d3gq9w)" points="22,65.9063,245,65.9063,252,88.2031,418,88.2031,418,426.9063,22,426.9063,22,65.9063" style="stroke: #000000; stroke-width: 1.5;"/><line style="stroke: #000000; stroke-width: 1.5;" x1="22" x2="252" y1="88.2031" y2="88.2031"/><text fill="#000000" font-family="sans-serif" font-size="14" font-weight="bold" lengthAdjust="spacingAndGlyphs" textLength="217" x="26" y="80.9014">in.ashwanik.pdp.game_loop</text><!--class in.ashwanik.pdp.game_loop.Game--><rect fill="#FEFECE" filter="url(#fj7bsl5d3gq9w)" height="137.6328" id="in.ashwanik.pdp.game_loop.Game" style="stroke: #A80036; stroke-width: 1.5;" width="221" x="38.5" y="100.9063"/><ellipse cx="126.75" cy="116.9063" fill="#ADD1B2" rx="11" ry="11" style="stroke: #A80036; stroke-width: 1.0;"/><path d="M129.0938,112.5781 L129.2656,112.6563 C129.4844,112.3438 129.6875,112.25 129.9844,112.25 C130.2813,112.25 130.5625,112.3906 130.7188,112.6563 C130.8125,112.8125 130.8281,112.9375 130.8281,113.375 L130.8281,114.7969 C130.8281,115.2188 130.7969,115.4063 130.6875,115.5625 C130.5156,115.7813 130.25,115.9219 129.9844,115.9219 C129.7656,115.9219 129.5313,115.8125 129.3906,115.6719 C129.25,115.5469 129.2188,115.4219 129.1563,115.0156 C129.0625,114.6094 128.8906,114.3906 128.4063,114.1094 C127.9375,113.8594 127.3281,113.7031 126.75,113.7031 C125.0156,113.7031 123.7656,115.0156 123.7656,116.7969 L123.7656,117.8906 C123.7656,119.5938 125.0625,120.6875 127.1094,120.6875 C127.875,120.6875 128.5625,120.5625 128.9844,120.2969 C129.1719,120.2031 129.1719,120.2031 129.625,119.7188 C129.8125,119.5313 130.0156,119.4531 130.2344,119.4531 C130.7031,119.4531 131.0938,119.8438 131.0938,120.2969 C131.0938,120.6875 130.7656,121.1406 130.1875,121.5469 C129.4375,122.0938 128.2813,122.3906 127.0625,122.3906 C124.1719,122.3906 122.0625,120.5 122.0625,117.9219 L122.0625,116.7969 C122.0625,114.0781 124.0625,112 126.6875,112 C127.5625,112 128.1563,112.1406 129.0938,112.5781 Z "/><text fill="#000000" font-family="sans-serif" font-size="12" lengthAdjust="spacingAndGlyphs" textLength="36" x="147.25" y="121.0605">Game</text><line style="stroke: #A80036; stroke-width: 1.5;" x1="39.5" x2="258.5" y1="132.9063" y2="132.9063"/><rect fill="none" height="6" style="stroke: #C82930; stroke-width: 1.0;" width="6" x="46.5" y="140.9063"/><text fill="#000000" font-family="sans-serif" font-size="11" lengthAdjust="spacingAndGlyphs" textLength="146" x="58.5" y="147.1167">currentMonsterCount : int</text><rect fill="none" height="6" style="stroke: #C82930; stroke-width: 1.0;" width="6" x="46.5" y="153.7109"/><text fill="#000000" font-family="sans-serif" font-size="11" lengthAdjust="spacingAndGlyphs" textLength="195" x="58.5" y="159.9214">gameObjects : List&lt;GameObject&gt;</text><rect fill="none" height="6" style="stroke: #C82930; stroke-width: 1.0;" width="6" x="46.5" y="166.5156"/><text fill="#000000" font-family="sans-serif" font-size="11" lengthAdjust="spacingAndGlyphs" text-decoration="underline" textLength="68" x="58.5" y="172.7261">log : Logger</text><rect fill="none" height="6" style="stroke: #C82930; stroke-width: 1.0;" width="6" x="46.5" y="179.3203"/><text fill="#000000" font-family="sans-serif" font-size="11" lengthAdjust="spacingAndGlyphs" textLength="154" x="58.5" y="185.5308">monsterCountToFinish : int</text><line style="stroke: #A80036; stroke-width: 1.5;" x1="39.5" x2="258.5" y1="192.125" y2="192.125"/><ellipse cx="49.5" cy="203.125" fill="#84BE84" rx="3" ry="3" style="stroke: #038048; stroke-width: 1.0;"/><text fill="#000000" font-family="sans-serif" font-size="11" lengthAdjust="spacingAndGlyphs" textLength="42" x="58.5" y="206.3354">Game()</text><ellipse cx="49.5" cy="215.9297" fill="#84BE84" rx="3" ry="3" style="stroke: #038048; stroke-width: 1.0;"/><text fill="#000000" font-family="sans-serif" font-size="11" lengthAdjust="spacingAndGlyphs" textLength="148" x="58.5" y="219.1401">getCurrentMonsterCount()</text><ellipse cx="49.5" cy="228.7344" fill="#84BE84" rx="3" ry="3" style="stroke: #038048; stroke-width: 1.0;"/><text fill="#000000" font-family="sans-serif" font-size="11" lengthAdjust="spacingAndGlyphs" textLength="31" x="58.5" y="231.9448">play()</text><!--class in.ashwanik.pdp.game_loop.GameObject--><rect fill="#FEFECE" filter="url(#fj7bsl5d3gq9w)" height="73.6094" id="in.ashwanik.pdp.game_loop.GameObject" style="stroke: #A80036; stroke-width: 1.5;" width="107" x="294.5" y="132.9063"/><ellipse cx="309.5" cy="148.9063" fill="#A9DCDF" rx="11" ry="11" style="stroke: #A80036; stroke-width: 1.0;"/><path d="M311.0781,150.7188 L307.0313,150.7188 L306.6406,151.7031 L307.0313,151.7031 C307.4844,151.7031 307.625,151.7344 307.7969,151.8594 C308.0156,152.0313 308.1406,152.2813 308.1406,152.5625 C308.1406,152.8438 308,153.1406 307.7344,153.2813 C307.6094,153.375 307.3906,153.4063 307.0313,153.4063 L304.7656,153.4063 C304.0156,153.4063 303.6406,153.125 303.6406,152.5625 C303.6406,152.2656 303.7969,151.9844 304.0469,151.8281 C304.2031,151.7188 304.3594,151.7031 304.7813,151.7031 L307.4219,145.1875 L306.3438,145.1875 C305.9063,145.1875 305.7344,145.1563 305.5625,145.0469 C305.3438,144.875 305.2031,144.625 305.2031,144.3438 C305.2031,144.0625 305.3594,143.7813 305.6094,143.6094 C305.7656,143.5156 305.8906,143.5 306.3438,143.5 L310.0156,143.5 L313.4063,151.7031 C313.875,151.7031 314.0313,151.7344 314.2031,151.875 C314.4219,152.0313 314.5625,152.2813 314.5625,152.5625 C314.5625,152.8438 314.4063,153.1406 314.1563,153.2813 C314.0156,153.375 313.7969,153.4063 313.4375,153.4063 L311.0781,153.4063 C310.6563,153.4063 310.4531,153.3594 310.3125,153.2344 C310.0938,153.0781 309.9531,152.8281 309.9531,152.5625 C309.9531,152.2656 310.1094,151.9844 310.3594,151.8281 C310.5156,151.7188 310.625,151.7031 311.0781,151.7031 L311.4688,151.7031 Z M310.375,149.0156 L309.0469,145.75 L307.7031,149.0156 Z "/><text fill="#000000" font-family="sans-serif" font-size="12" font-style="italic" lengthAdjust="spacingAndGlyphs" textLength="75" x="323.5" y="153.0605">GameObject</text><line style="stroke: #A80036; stroke-width: 1.5;" x1="295.5" x2="400.5" y1="164.9063" y2="164.9063"/><line style="stroke: #A80036; stroke-width: 1.5;" x1="295.5" x2="400.5" y1="172.9063" y2="172.9063"/><ellipse cx="305.5" cy="183.9063" fill="#84BE84" rx="3" ry="3" style="stroke: #038048; stroke-width: 1.0;"/><text fill="#000000" font-family="sans-serif" font-size="11" font-style="italic" lengthAdjust="spacingAndGlyphs" textLength="52" x="314.5" y="187.1167">isActive()</text><ellipse cx="305.5" cy="196.7109" fill="#84BE84" rx="3" ry="3" style="stroke: #038048; stroke-width: 1.0;"/><text fill="#000000" font-family="sans-serif" font-size="11" font-style="italic" lengthAdjust="spacingAndGlyphs" textLength="47" x="314.5" y="199.9214">update()</text><!--class in.ashwanik.pdp.game_loop.Monster--><rect fill="#FEFECE" filter="url(#fj7bsl5d3gq9w)" height="112.0234" id="in.ashwanik.pdp.game_loop.Monster" style="stroke: #A80036; stroke-width: 1.5;" width="138" x="264" y="298.9063"/><ellipse cx="303.75" cy="314.9063" fill="#ADD1B2" rx="11" ry="11" style="stroke: #A80036; stroke-width: 1.0;"/><path d="M306.0938,310.5781 L306.2656,310.6563 C306.4844,310.3438 306.6875,310.25 306.9844,310.25 C307.2813,310.25 307.5625,310.3906 307.7188,310.6563 C307.8125,310.8125 307.8281,310.9375 307.8281,311.375 L307.8281,312.7969 C307.8281,313.2188 307.7969,313.4063 307.6875,313.5625 C307.5156,313.7813 307.25,313.9219 306.9844,313.9219 C306.7656,313.9219 306.5313,313.8125 306.3906,313.6719 C306.25,313.5469 306.2188,313.4219 306.1563,313.0156 C306.0625,312.6094 305.8906,312.3906 305.4063,312.1094 C304.9375,311.8594 304.3281,311.7031 303.75,311.7031 C302.0156,311.7031 300.7656,313.0156 300.7656,314.7969 L300.7656,315.8906 C300.7656,317.5938 302.0625,318.6875 304.1094,318.6875 C304.875,318.6875 305.5625,318.5625 305.9844,318.2969 C306.1719,318.2031 306.1719,318.2031 306.625,317.7188 C306.8125,317.5313 307.0156,317.4531 307.2344,317.4531 C307.7031,317.4531 308.0938,317.8438 308.0938,318.2969 C308.0938,318.6875 307.7656,319.1406 307.1875,319.5469 C306.4375,320.0938 305.2813,320.3906 304.0625,320.3906 C301.1719,320.3906 299.0625,318.5 299.0625,315.9219 L299.0625,314.7969 C299.0625,312.0781 301.0625,310 303.6875,310 C304.5625,310 305.1563,310.1406 306.0938,310.5781 Z "/><text fill="#000000" font-family="sans-serif" font-size="12" lengthAdjust="spacingAndGlyphs" textLength="51" x="323.25" y="319.0605">Monster</text><line style="stroke: #A80036; stroke-width: 1.5;" x1="265" x2="401" y1="330.9063" y2="330.9063"/><rect fill="none" height="6" style="stroke: #C82930; stroke-width: 1.0;" width="6" x="272" y="338.9063"/><text fill="#000000" font-family="sans-serif" font-size="11" lengthAdjust="spacingAndGlyphs" textLength="103" x="284" y="345.1167">currentMoves : int</text><rect fill="none" height="6" style="stroke: #C82930; stroke-width: 1.0;" width="6" x="272" y="351.7109"/><text fill="#000000" font-family="sans-serif" font-size="11" lengthAdjust="spacingAndGlyphs" textLength="112" x="284" y="357.9214">dieMovesCount : int</text><line style="stroke: #A80036; stroke-width: 1.5;" x1="265" x2="401" y1="364.5156" y2="364.5156"/><ellipse cx="275" cy="375.5156" fill="#84BE84" rx="3" ry="3" style="stroke: #038048; stroke-width: 1.0;"/><text fill="#000000" font-family="sans-serif" font-size="11" lengthAdjust="spacingAndGlyphs" textLength="54" x="284" y="378.7261">Monster()</text><ellipse cx="275" cy="388.3203" fill="#84BE84" rx="3" ry="3" style="stroke: #038048; stroke-width: 1.0;"/><text fill="#000000" font-family="sans-serif" font-size="11" lengthAdjust="spacingAndGlyphs" textLength="51" x="284" y="391.5308">isActive()</text><ellipse cx="275" cy="401.125" fill="#84BE84" rx="3" ry="3" style="stroke: #038048; stroke-width: 1.0;"/><text fill="#000000" font-family="sans-serif" font-size="11" lengthAdjust="spacingAndGlyphs" textLength="47" x="284" y="404.3354">update()</text><!--reverse link in.ashwanik.pdp.game_loop.GameObject to in.ashwanik.pdp.game_loop.Monster--><path d="M343.387,227.1823 C341.523,249.9223 339.379,276.0873 337.524,298.7152 " fill="none" id="in.ashwanik.pdp.game_loop.GameObject&lt;-in.ashwanik.pdp.game_loop.Monster" style="stroke: #A80036; stroke-width: 1.0;"/><polygon fill="none" points="336.426,226.4223,345.036,207.0613,350.379,227.5663,336.426,226.4223" style="stroke: #A80036; stroke-width: 1.0;"/><!--
@startuml
title __GAME_LOOP__\n

  namespace in.ashwanik.pdp.game_loop {
    class in.ashwanik.pdp.game_loop.Game {
        - currentMonsterCount : int
        - gameObjects : List<GameObject>
        {static} - log : Logger
        - monsterCountToFinish : int
        + Game()
        + getCurrentMonsterCount()
        + play()
    }
  }
  

  namespace in.ashwanik.pdp.game_loop {
    abstract class in.ashwanik.pdp.game_loop.GameObject {
        {abstract} + isActive()
        {abstract} + update()
    }
  }
  

  namespace in.ashwanik.pdp.game_loop {
    class in.ashwanik.pdp.game_loop.Monster {
        - currentMoves : int
        - dieMovesCount : int
        + Monster()
        + isActive()
        + update()
    }
  }
  

  in.ashwanik.pdp.game_loop.Monster -up-|> in.ashwanik.pdp.game_loop.GameObject
@enduml

PlantUML version 1.2019.10beta5(Unknown compile time)
(GPL source distribution)
Java Runtime: Java(TM) SE Runtime Environment
JVM: Java HotSpot(TM) 64-Bit Server VM
Java Version: 1.7.0_25-b15
Operating System: Linux
Default Encoding: UTF-8
Language: en
Country: US
--></g></svg>