<?xml version="1.0" encoding="UTF-8" standalone="no"?>
<svg xmlns="http://www.w3.org/2000/svg" xmlns:xlink="http://www.w3.org/1999/xlink" contentScriptType="application/ecmascript" contentStyleType="text/css" height="574px" preserveAspectRatio="none" style="width:1124px;height:574px;" version="1.1" viewBox="0 0 1124 574" width="1124px" zoomAndPan="magnify"><defs><filter height="300%" id="f1dipekiyllhq8" width="300%" x="-1" y="-1"><feGaussianBlur result="blurOut" stdDeviation="2.0"/><feColorMatrix in="blurOut" result="blurOut2" type="matrix" values="0 0 0 0 0 0 0 0 0 0 0 0 0 0 0 0 0 0 .4 0"/><feOffset dx="4.0" dy="4.0" in="blurOut2" result="blurOut3"/><feBlend in="SourceGraphic" in2="blurOut3" mode="normal"/></filter></defs><g><text fill="#000000" font-family="sans-serif" font-size="18" lengthAdjust="spacingAndGlyphs" text-decoration="underline" textLength="93" x="519" y="16.708">ITERATOR</text><text fill="#000000" font-family="sans-serif" font-size="18" lengthAdjust="spacingAndGlyphs" textLength="0" x="568.5" y="37.6611"/><!--cluster in.ashwanik.pdp.iterator--><polygon fill="#FFFFFF" filter="url(#f1dipekiyllhq8)" points="22,197.9063,220,197.9063,227,220.2031,829,220.2031,829,562.9063,22,562.9063,22,197.9063" style="stroke: #000000; stroke-width: 1.5;"/><line style="stroke: #000000; stroke-width: 1.5;" x1="22" x2="227" y1="220.2031" y2="220.2031"/><text fill="#000000" font-family="sans-serif" font-size="14" font-weight="bold" lengthAdjust="spacingAndGlyphs" textLength="192" x="26" y="212.9014">in.ashwanik.pdp.iterator</text><!--cluster in.ashwanik.pdp.common.githubjobs--><polygon fill="#FFFFFF" filter="url(#f1dipekiyllhq8)" points="142,65.9063,436,65.9063,443,88.2031,446,88.2031,446,164.9063,142,164.9063,142,65.9063" style="stroke: #000000; stroke-width: 1.5;"/><line style="stroke: #000000; stroke-width: 1.5;" x1="142" x2="443" y1="88.2031" y2="88.2031"/><text fill="#000000" font-family="sans-serif" font-size="14" font-weight="bold" lengthAdjust="spacingAndGlyphs" textLength="288" x="146" y="80.9014">in.ashwanik.pdp.common.githubjobs</text><!--cluster in.ashwanik.pdp.builder--><polygon fill="#FFFFFF" filter="url(#f1dipekiyllhq8)" points="853,431.9063,1047,431.9063,1054,454.2031,1057,454.2031,1057,530.9063,853,530.9063,853,431.9063" style="stroke: #000000; stroke-width: 1.5;"/><line style="stroke: #000000; stroke-width: 1.5;" x1="853" x2="1054" y1="454.2031" y2="454.2031"/><text fill="#000000" font-family="sans-serif" font-size="14" font-weight="bold" lengthAdjust="spacingAndGlyphs" textLength="188" x="857" y="446.9014">in.ashwanik.pdp.builder</text><!--cluster java.lang--><polygon fill="#FFFFFF" filter="url(#f1dipekiyllhq8)" points="600,65.9063,675,65.9063,682,88.2031,712,88.2031,712,164.9063,600,164.9063,600,65.9063" style="stroke: #000000; stroke-width: 1.5;"/><line style="stroke: #000000; stroke-width: 1.5;" x1="600" x2="682" y1="88.2031" y2="88.2031"/><text fill="#000000" font-family="sans-serif" font-size="14" font-weight="bold" lengthAdjust="spacingAndGlyphs" textLength="69" x="604" y="80.9014">java.lang</text><!--cluster java.util--><polygon fill="#FFFFFF" filter="url(#f1dipekiyllhq8)" points="736,65.9063,802,65.9063,809,88.2031,848,88.2031,848,164.9063,736,164.9063,736,65.9063" style="stroke: #000000; stroke-width: 1.5;"/><line style="stroke: #000000; stroke-width: 1.5;" x1="736" x2="809" y1="88.2031" y2="88.2031"/><text fill="#000000" font-family="sans-serif" font-size="14" font-weight="bold" lengthAdjust="spacingAndGlyphs" textLength="60" x="740" y="80.9014">java.util</text><!--class in.ashwanik.pdp.iterator.DefaultGithubJobClientContract--><rect fill="#FEFECE" filter="url(#f1dipekiyllhq8)" height="60.8047" id="in.ashwanik.pdp.iterator.DefaultGithubJobClientContract" style="stroke: #A80036; stroke-width: 1.5;" width="226" x="181" y="264.9063"/><ellipse cx="196" cy="280.9063" fill="#ADD1B2" rx="11" ry="11" style="stroke: #A80036; stroke-width: 1.0;"/><path d="M198.3438,276.5781 L198.5156,276.6563 C198.7344,276.3438 198.9375,276.25 199.2344,276.25 C199.5313,276.25 199.8125,276.3906 199.9688,276.6563 C200.0625,276.8125 200.0781,276.9375 200.0781,277.375 L200.0781,278.7969 C200.0781,279.2188 200.0469,279.4063 199.9375,279.5625 C199.7656,279.7813 199.5,279.9219 199.2344,279.9219 C199.0156,279.9219 198.7813,279.8125 198.6406,279.6719 C198.5,279.5469 198.4688,279.4219 198.4063,279.0156 C198.3125,278.6094 198.1406,278.3906 197.6563,278.1094 C197.1875,277.8594 196.5781,277.7031 196,277.7031 C194.2656,277.7031 193.0156,279.0156 193.0156,280.7969 L193.0156,281.8906 C193.0156,283.5938 194.3125,284.6875 196.3594,284.6875 C197.125,284.6875 197.8125,284.5625 198.2344,284.2969 C198.4219,284.2031 198.4219,284.2031 198.875,283.7188 C199.0625,283.5313 199.2656,283.4531 199.4844,283.4531 C199.9531,283.4531 200.3438,283.8438 200.3438,284.2969 C200.3438,284.6875 200.0156,285.1406 199.4375,285.5469 C198.6875,286.0938 197.5313,286.3906 196.3125,286.3906 C193.4219,286.3906 191.3125,284.5 191.3125,281.9219 L191.3125,280.7969 C191.3125,278.0781 193.3125,276 195.9375,276 C196.8125,276 197.4063,276.1406 198.3438,276.5781 Z "/><text fill="#000000" font-family="sans-serif" font-size="12" lengthAdjust="spacingAndGlyphs" textLength="194" x="210" y="285.0605">DefaultGithubJobClientContract</text><line style="stroke: #A80036; stroke-width: 1.5;" x1="182" x2="406" y1="296.9063" y2="296.9063"/><line style="stroke: #A80036; stroke-width: 1.5;" x1="182" x2="406" y1="304.9063" y2="304.9063"/><ellipse cx="192" cy="315.9063" fill="#84BE84" rx="3" ry="3" style="stroke: #038048; stroke-width: 1.0;"/><text fill="#000000" font-family="sans-serif" font-size="11" lengthAdjust="spacingAndGlyphs" textLength="50" x="201" y="319.1167">getJobs()</text><!--class in.ashwanik.pdp.iterator.GithubJobRepository--><rect fill="#FEFECE" filter="url(#f1dipekiyllhq8)" height="73.6094" id="in.ashwanik.pdp.iterator.GithubJobRepository" style="stroke: #A80036; stroke-width: 1.5;" width="158" x="442" y="258.4063"/><ellipse cx="457" cy="274.4063" fill="#ADD1B2" rx="11" ry="11" style="stroke: #A80036; stroke-width: 1.0;"/><path d="M459.3438,270.0781 L459.5156,270.1563 C459.7344,269.8438 459.9375,269.75 460.2344,269.75 C460.5313,269.75 460.8125,269.8906 460.9688,270.1563 C461.0625,270.3125 461.0781,270.4375 461.0781,270.875 L461.0781,272.2969 C461.0781,272.7188 461.0469,272.9063 460.9375,273.0625 C460.7656,273.2813 460.5,273.4219 460.2344,273.4219 C460.0156,273.4219 459.7813,273.3125 459.6406,273.1719 C459.5,273.0469 459.4688,272.9219 459.4063,272.5156 C459.3125,272.1094 459.1406,271.8906 458.6563,271.6094 C458.1875,271.3594 457.5781,271.2031 457,271.2031 C455.2656,271.2031 454.0156,272.5156 454.0156,274.2969 L454.0156,275.3906 C454.0156,277.0938 455.3125,278.1875 457.3594,278.1875 C458.125,278.1875 458.8125,278.0625 459.2344,277.7969 C459.4219,277.7031 459.4219,277.7031 459.875,277.2188 C460.0625,277.0313 460.2656,276.9531 460.4844,276.9531 C460.9531,276.9531 461.3438,277.3438 461.3438,277.7969 C461.3438,278.1875 461.0156,278.6406 460.4375,279.0469 C459.6875,279.5938 458.5313,279.8906 457.3125,279.8906 C454.4219,279.8906 452.3125,278 452.3125,275.4219 L452.3125,274.2969 C452.3125,271.5781 454.3125,269.5 456.9375,269.5 C457.8125,269.5 458.4063,269.6406 459.3438,270.0781 Z "/><text fill="#000000" font-family="sans-serif" font-size="12" lengthAdjust="spacingAndGlyphs" textLength="126" x="471" y="278.5605">GithubJobRepository</text><line style="stroke: #A80036; stroke-width: 1.5;" x1="443" x2="599" y1="290.4063" y2="290.4063"/><line style="stroke: #A80036; stroke-width: 1.5;" x1="443" x2="599" y1="298.4063" y2="298.4063"/><ellipse cx="453" cy="309.4063" fill="#84BE84" rx="3" ry="3" style="stroke: #038048; stroke-width: 1.0;"/><text fill="#000000" font-family="sans-serif" font-size="11" lengthAdjust="spacingAndGlyphs" textLength="122" x="462" y="312.6167">GithubJobRepository()</text><ellipse cx="453" cy="322.2109" fill="#84BE84" rx="3" ry="3" style="stroke: #038048; stroke-width: 1.0;"/><text fill="#000000" font-family="sans-serif" font-size="11" lengthAdjust="spacingAndGlyphs" textLength="50" x="462" y="325.4214">getJobs()</text><!--class in.ashwanik.pdp.iterator.GithubPagedResult--><rect fill="#FEFECE" filter="url(#f1dipekiyllhq8)" height="124.8281" id="in.ashwanik.pdp.iterator.GithubPagedResult" style="stroke: #A80036; stroke-width: 1.5;" width="177" x="635.5" y="232.9063"/><ellipse cx="661.75" cy="248.9063" fill="#ADD1B2" rx="11" ry="11" style="stroke: #A80036; stroke-width: 1.0;"/><path d="M664.0938,244.5781 L664.2656,244.6563 C664.4844,244.3438 664.6875,244.25 664.9844,244.25 C665.2813,244.25 665.5625,244.3906 665.7188,244.6563 C665.8125,244.8125 665.8281,244.9375 665.8281,245.375 L665.8281,246.7969 C665.8281,247.2188 665.7969,247.4063 665.6875,247.5625 C665.5156,247.7813 665.25,247.9219 664.9844,247.9219 C664.7656,247.9219 664.5313,247.8125 664.3906,247.6719 C664.25,247.5469 664.2188,247.4219 664.1563,247.0156 C664.0625,246.6094 663.8906,246.3906 663.4063,246.1094 C662.9375,245.8594 662.3281,245.7031 661.75,245.7031 C660.0156,245.7031 658.7656,247.0156 658.7656,248.7969 L658.7656,249.8906 C658.7656,251.5938 660.0625,252.6875 662.1094,252.6875 C662.875,252.6875 663.5625,252.5625 663.9844,252.2969 C664.1719,252.2031 664.1719,252.2031 664.625,251.7188 C664.8125,251.5313 665.0156,251.4531 665.2344,251.4531 C665.7031,251.4531 666.0938,251.8438 666.0938,252.2969 C666.0938,252.6875 665.7656,253.1406 665.1875,253.5469 C664.4375,254.0938 663.2813,254.3906 662.0625,254.3906 C659.1719,254.3906 657.0625,252.5 657.0625,249.9219 L657.0625,248.7969 C657.0625,246.0781 659.0625,244 661.6875,244 C662.5625,244 663.1563,244.1406 664.0938,244.5781 Z "/><text fill="#000000" font-family="sans-serif" font-size="12" lengthAdjust="spacingAndGlyphs" textLength="120" x="678.25" y="253.0605">GithubPagedResult</text><line style="stroke: #A80036; stroke-width: 1.5;" x1="636.5" x2="811.5" y1="264.9063" y2="264.9063"/><rect fill="none" height="6" style="stroke: #C82930; stroke-width: 1.0;" width="6" x="643.5" y="272.9063"/><text fill="#000000" font-family="sans-serif" font-size="11" lengthAdjust="spacingAndGlyphs" textLength="56" x="655.5" y="279.1167">index : int</text><rect fill="none" height="6" style="stroke: #C82930; stroke-width: 1.0;" width="6" x="643.5" y="285.7109"/><text fill="#000000" font-family="sans-serif" font-size="11" lengthAdjust="spacingAndGlyphs" textLength="151" x="655.5" y="291.9214">nextPage : Function&lt;P, P&gt;</text><line style="stroke: #A80036; stroke-width: 1.5;" x1="636.5" x2="811.5" y1="298.5156" y2="298.5156"/><ellipse cx="646.5" cy="309.5156" fill="#84BE84" rx="3" ry="3" style="stroke: #038048; stroke-width: 1.0;"/><text fill="#000000" font-family="sans-serif" font-size="11" lengthAdjust="spacingAndGlyphs" textLength="115" x="655.5" y="312.7261">GithubPagedResult()</text><ellipse cx="646.5" cy="322.3203" fill="#84BE84" rx="3" ry="3" style="stroke: #038048; stroke-width: 1.0;"/><text fill="#000000" font-family="sans-serif" font-size="11" lengthAdjust="spacingAndGlyphs" textLength="54" x="655.5" y="325.5308">hasNext()</text><ellipse cx="646.5" cy="335.125" fill="#84BE84" rx="3" ry="3" style="stroke: #038048; stroke-width: 1.0;"/><text fill="#000000" font-family="sans-serif" font-size="11" lengthAdjust="spacingAndGlyphs" textLength="50" x="655.5" y="338.3354">iterator()</text><ellipse cx="646.5" cy="347.9297" fill="#84BE84" rx="3" ry="3" style="stroke: #038048; stroke-width: 1.0;"/><text fill="#000000" font-family="sans-serif" font-size="11" lengthAdjust="spacingAndGlyphs" textLength="32" x="655.5" y="351.1401">next()</text><!--class in.ashwanik.pdp.iterator.SearchFilter--><rect fill="#FEFECE" filter="url(#f1dipekiyllhq8)" height="99.2188" id="in.ashwanik.pdp.iterator.SearchFilter" style="stroke: #A80036; stroke-width: 1.5;" width="107" x="38.5" y="245.9063"/><ellipse cx="53.5" cy="261.9063" fill="#ADD1B2" rx="11" ry="11" style="stroke: #A80036; stroke-width: 1.0;"/><path d="M55.8438,257.5781 L56.0156,257.6563 C56.2344,257.3438 56.4375,257.25 56.7344,257.25 C57.0313,257.25 57.3125,257.3906 57.4688,257.6563 C57.5625,257.8125 57.5781,257.9375 57.5781,258.375 L57.5781,259.7969 C57.5781,260.2188 57.5469,260.4063 57.4375,260.5625 C57.2656,260.7813 57,260.9219 56.7344,260.9219 C56.5156,260.9219 56.2813,260.8125 56.1406,260.6719 C56,260.5469 55.9688,260.4219 55.9063,260.0156 C55.8125,259.6094 55.6406,259.3906 55.1563,259.1094 C54.6875,258.8594 54.0781,258.7031 53.5,258.7031 C51.7656,258.7031 50.5156,260.0156 50.5156,261.7969 L50.5156,262.8906 C50.5156,264.5938 51.8125,265.6875 53.8594,265.6875 C54.625,265.6875 55.3125,265.5625 55.7344,265.2969 C55.9219,265.2031 55.9219,265.2031 56.375,264.7188 C56.5625,264.5313 56.7656,264.4531 56.9844,264.4531 C57.4531,264.4531 57.8438,264.8438 57.8438,265.2969 C57.8438,265.6875 57.5156,266.1406 56.9375,266.5469 C56.1875,267.0938 55.0313,267.3906 53.8125,267.3906 C50.9219,267.3906 48.8125,265.5 48.8125,262.9219 L48.8125,261.7969 C48.8125,259.0781 50.8125,257 53.4375,257 C54.3125,257 54.9063,257.1406 55.8438,257.5781 Z "/><text fill="#000000" font-family="sans-serif" font-size="12" lengthAdjust="spacingAndGlyphs" textLength="75" x="67.5" y="266.0605">SearchFilter</text><line style="stroke: #A80036; stroke-width: 1.5;" x1="39.5" x2="144.5" y1="277.9063" y2="277.9063"/><rect fill="none" height="6" style="stroke: #C82930; stroke-width: 1.0;" width="6" x="46.5" y="285.9063"/><text fill="#000000" font-family="sans-serif" font-size="11" lengthAdjust="spacingAndGlyphs" textLength="54" x="58.5" y="292.1167">page : int</text><line style="stroke: #A80036; stroke-width: 1.5;" x1="39.5" x2="144.5" y1="298.7109" y2="298.7109"/><ellipse cx="49.5" cy="309.7109" fill="#84BE84" rx="3" ry="3" style="stroke: #038048; stroke-width: 1.0;"/><text fill="#000000" font-family="sans-serif" font-size="11" lengthAdjust="spacingAndGlyphs" text-decoration="underline" textLength="47" x="58.5" y="312.9214">builder()</text><ellipse cx="49.5" cy="322.5156" fill="#84BE84" rx="3" ry="3" style="stroke: #038048; stroke-width: 1.0;"/><text fill="#000000" font-family="sans-serif" font-size="11" lengthAdjust="spacingAndGlyphs" textLength="54" x="58.5" y="325.7261">getPage()</text><polygon fill="#4177AF" points="49.5,331.3203,45.5,337.3203,53.5,337.3203" style="stroke: #1963A0; stroke-width: 1.0;"/><text fill="#000000" font-family="sans-serif" font-size="11" lengthAdjust="spacingAndGlyphs" textLength="76" x="58.5" y="338.5308">SearchFilter()</text><!--class in.ashwanik.pdp.iterator.SearchFilter.SearchFilterBuilder--><rect fill="#FEFECE" filter="url(#f1dipekiyllhq8)" height="112.0234" id="in.ashwanik.pdp.iterator.SearchFilter.SearchFilterBuilder" style="stroke: #A80036; stroke-width: 1.5;" width="229" x="38.5" y="434.9063"/><ellipse cx="53.5" cy="450.9063" fill="#ADD1B2" rx="11" ry="11" style="stroke: #A80036; stroke-width: 1.0;"/><path d="M55.8438,446.5781 L56.0156,446.6563 C56.2344,446.3438 56.4375,446.25 56.7344,446.25 C57.0313,446.25 57.3125,446.3906 57.4688,446.6563 C57.5625,446.8125 57.5781,446.9375 57.5781,447.375 L57.5781,448.7969 C57.5781,449.2188 57.5469,449.4063 57.4375,449.5625 C57.2656,449.7813 57,449.9219 56.7344,449.9219 C56.5156,449.9219 56.2813,449.8125 56.1406,449.6719 C56,449.5469 55.9688,449.4219 55.9063,449.0156 C55.8125,448.6094 55.6406,448.3906 55.1563,448.1094 C54.6875,447.8594 54.0781,447.7031 53.5,447.7031 C51.7656,447.7031 50.5156,449.0156 50.5156,450.7969 L50.5156,451.8906 C50.5156,453.5938 51.8125,454.6875 53.8594,454.6875 C54.625,454.6875 55.3125,454.5625 55.7344,454.2969 C55.9219,454.2031 55.9219,454.2031 56.375,453.7188 C56.5625,453.5313 56.7656,453.4531 56.9844,453.4531 C57.4531,453.4531 57.8438,453.8438 57.8438,454.2969 C57.8438,454.6875 57.5156,455.1406 56.9375,455.5469 C56.1875,456.0938 55.0313,456.3906 53.8125,456.3906 C50.9219,456.3906 48.8125,454.5 48.8125,451.9219 L48.8125,450.7969 C48.8125,448.0781 50.8125,446 53.4375,446 C54.3125,446 54.9063,446.1406 55.8438,446.5781 Z "/><text fill="#000000" font-family="sans-serif" font-size="12" lengthAdjust="spacingAndGlyphs" textLength="197" x="67.5" y="455.0605">SearchFilter.SearchFilterBuilder</text><line style="stroke: #A80036; stroke-width: 1.5;" x1="39.5" x2="266.5" y1="466.9063" y2="466.9063"/><rect fill="none" height="6" style="stroke: #C82930; stroke-width: 1.0;" width="6" x="46.5" y="474.9063"/><text fill="#000000" font-family="sans-serif" font-size="11" lengthAdjust="spacingAndGlyphs" textLength="54" x="58.5" y="481.1167">page : int</text><line style="stroke: #A80036; stroke-width: 1.5;" x1="39.5" x2="266.5" y1="487.7109" y2="487.7109"/><ellipse cx="49.5" cy="498.7109" fill="#84BE84" rx="3" ry="3" style="stroke: #038048; stroke-width: 1.0;"/><text fill="#000000" font-family="sans-serif" font-size="11" lengthAdjust="spacingAndGlyphs" textLength="35" x="58.5" y="501.9214">build()</text><ellipse cx="49.5" cy="511.5156" fill="#84BE84" rx="3" ry="3" style="stroke: #038048; stroke-width: 1.0;"/><text fill="#000000" font-family="sans-serif" font-size="11" lengthAdjust="spacingAndGlyphs" textLength="36" x="58.5" y="514.7261">page()</text><ellipse cx="49.5" cy="524.3203" fill="#84BE84" rx="3" ry="3" style="stroke: #038048; stroke-width: 1.0;"/><text fill="#000000" font-family="sans-serif" font-size="11" lengthAdjust="spacingAndGlyphs" textLength="53" x="58.5" y="527.5308">toString()</text><polygon fill="#4177AF" points="49.5,533.125,45.5,539.125,53.5,539.125" style="stroke: #1963A0; stroke-width: 1.0;"/><text fill="#000000" font-family="sans-serif" font-size="11" lengthAdjust="spacingAndGlyphs" textLength="116" x="58.5" y="540.3354">SearchFilterBuilder()</text><!--class in.ashwanik.pdp.common.githubjobs.GithubJobClientContract--><rect fill="#FEFECE" filter="url(#f1dipekiyllhq8)" height="48" id="in.ashwanik.pdp.common.githubjobs.GithubJobClientContract" style="stroke: #A80036; stroke-width: 1.5;" width="181" x="203.5" y="100.9063"/><ellipse cx="218.5" cy="116.9063" fill="#ADD1B2" rx="11" ry="11" style="stroke: #A80036; stroke-width: 1.0;"/><path d="M220.8438,112.5781 L221.0156,112.6563 C221.2344,112.3438 221.4375,112.25 221.7344,112.25 C222.0313,112.25 222.3125,112.3906 222.4688,112.6563 C222.5625,112.8125 222.5781,112.9375 222.5781,113.375 L222.5781,114.7969 C222.5781,115.2188 222.5469,115.4063 222.4375,115.5625 C222.2656,115.7813 222,115.9219 221.7344,115.9219 C221.5156,115.9219 221.2813,115.8125 221.1406,115.6719 C221,115.5469 220.9688,115.4219 220.9063,115.0156 C220.8125,114.6094 220.6406,114.3906 220.1563,114.1094 C219.6875,113.8594 219.0781,113.7031 218.5,113.7031 C216.7656,113.7031 215.5156,115.0156 215.5156,116.7969 L215.5156,117.8906 C215.5156,119.5938 216.8125,120.6875 218.8594,120.6875 C219.625,120.6875 220.3125,120.5625 220.7344,120.2969 C220.9219,120.2031 220.9219,120.2031 221.375,119.7188 C221.5625,119.5313 221.7656,119.4531 221.9844,119.4531 C222.4531,119.4531 222.8438,119.8438 222.8438,120.2969 C222.8438,120.6875 222.5156,121.1406 221.9375,121.5469 C221.1875,122.0938 220.0313,122.3906 218.8125,122.3906 C215.9219,122.3906 213.8125,120.5 213.8125,117.9219 L213.8125,116.7969 C213.8125,114.0781 215.8125,112 218.4375,112 C219.3125,112 219.9063,112.1406 220.8438,112.5781 Z "/><text fill="#000000" font-family="sans-serif" font-size="12" lengthAdjust="spacingAndGlyphs" textLength="149" x="232.5" y="121.0605">GithubJobClientContract</text><line style="stroke: #A80036; stroke-width: 1.5;" x1="204.5" x2="383.5" y1="132.9063" y2="132.9063"/><line style="stroke: #A80036; stroke-width: 1.5;" x1="204.5" x2="383.5" y1="140.9063" y2="140.9063"/><!--class in.ashwanik.pdp.builder.GithubJobClient--><rect fill="#FEFECE" filter="url(#f1dipekiyllhq8)" height="48" id="in.ashwanik.pdp.builder.GithubJobClient" style="stroke: #A80036; stroke-width: 1.5;" width="127" x="869.5" y="466.9063"/><ellipse cx="884.5" cy="482.9063" fill="#ADD1B2" rx="11" ry="11" style="stroke: #A80036; stroke-width: 1.0;"/><path d="M886.8438,478.5781 L887.0156,478.6563 C887.2344,478.3438 887.4375,478.25 887.7344,478.25 C888.0313,478.25 888.3125,478.3906 888.4688,478.6563 C888.5625,478.8125 888.5781,478.9375 888.5781,479.375 L888.5781,480.7969 C888.5781,481.2188 888.5469,481.4063 888.4375,481.5625 C888.2656,481.7813 888,481.9219 887.7344,481.9219 C887.5156,481.9219 887.2813,481.8125 887.1406,481.6719 C887,481.5469 886.9688,481.4219 886.9063,481.0156 C886.8125,480.6094 886.6406,480.3906 886.1563,480.1094 C885.6875,479.8594 885.0781,479.7031 884.5,479.7031 C882.7656,479.7031 881.5156,481.0156 881.5156,482.7969 L881.5156,483.8906 C881.5156,485.5938 882.8125,486.6875 884.8594,486.6875 C885.625,486.6875 886.3125,486.5625 886.7344,486.2969 C886.9219,486.2031 886.9219,486.2031 887.375,485.7188 C887.5625,485.5313 887.7656,485.4531 887.9844,485.4531 C888.4531,485.4531 888.8438,485.8438 888.8438,486.2969 C888.8438,486.6875 888.5156,487.1406 887.9375,487.5469 C887.1875,488.0938 886.0313,488.3906 884.8125,488.3906 C881.9219,488.3906 879.8125,486.5 879.8125,483.9219 L879.8125,482.7969 C879.8125,480.0781 881.8125,478 884.4375,478 C885.3125,478 885.9063,478.1406 886.8438,478.5781 Z "/><text fill="#000000" font-family="sans-serif" font-size="12" lengthAdjust="spacingAndGlyphs" textLength="95" x="898.5" y="487.0605">GithubJobClient</text><line style="stroke: #A80036; stroke-width: 1.5;" x1="870.5" x2="995.5" y1="498.9063" y2="498.9063"/><line style="stroke: #A80036; stroke-width: 1.5;" x1="870.5" x2="995.5" y1="506.9063" y2="506.9063"/><!--class java.lang.Iterable--><rect fill="#FEFECE" filter="url(#f1dipekiyllhq8)" height="48" id="java.lang.Iterable" style="stroke: #A80036; stroke-width: 1.5;" width="80" x="616" y="100.9063"/><ellipse cx="631" cy="116.9063" fill="#ADD1B2" rx="11" ry="11" style="stroke: #A80036; stroke-width: 1.0;"/><path d="M633.3438,112.5781 L633.5156,112.6563 C633.7344,112.3438 633.9375,112.25 634.2344,112.25 C634.5313,112.25 634.8125,112.3906 634.9688,112.6563 C635.0625,112.8125 635.0781,112.9375 635.0781,113.375 L635.0781,114.7969 C635.0781,115.2188 635.0469,115.4063 634.9375,115.5625 C634.7656,115.7813 634.5,115.9219 634.2344,115.9219 C634.0156,115.9219 633.7813,115.8125 633.6406,115.6719 C633.5,115.5469 633.4688,115.4219 633.4063,115.0156 C633.3125,114.6094 633.1406,114.3906 632.6563,114.1094 C632.1875,113.8594 631.5781,113.7031 631,113.7031 C629.2656,113.7031 628.0156,115.0156 628.0156,116.7969 L628.0156,117.8906 C628.0156,119.5938 629.3125,120.6875 631.3594,120.6875 C632.125,120.6875 632.8125,120.5625 633.2344,120.2969 C633.4219,120.2031 633.4219,120.2031 633.875,119.7188 C634.0625,119.5313 634.2656,119.4531 634.4844,119.4531 C634.9531,119.4531 635.3438,119.8438 635.3438,120.2969 C635.3438,120.6875 635.0156,121.1406 634.4375,121.5469 C633.6875,122.0938 632.5313,122.3906 631.3125,122.3906 C628.4219,122.3906 626.3125,120.5 626.3125,117.9219 L626.3125,116.7969 C626.3125,114.0781 628.3125,112 630.9375,112 C631.8125,112 632.4063,112.1406 633.3438,112.5781 Z "/><text fill="#000000" font-family="sans-serif" font-size="12" lengthAdjust="spacingAndGlyphs" textLength="48" x="645" y="121.0605">Iterable</text><line style="stroke: #A80036; stroke-width: 1.5;" x1="617" x2="695" y1="132.9063" y2="132.9063"/><line style="stroke: #A80036; stroke-width: 1.5;" x1="617" x2="695" y1="140.9063" y2="140.9063"/><!--class java.util.Iterator--><rect fill="#FEFECE" filter="url(#f1dipekiyllhq8)" height="48" id="java.util.Iterator" style="stroke: #A80036; stroke-width: 1.5;" width="79" x="752.5" y="100.9063"/><ellipse cx="767.5" cy="116.9063" fill="#ADD1B2" rx="11" ry="11" style="stroke: #A80036; stroke-width: 1.0;"/><path d="M769.8438,112.5781 L770.0156,112.6563 C770.2344,112.3438 770.4375,112.25 770.7344,112.25 C771.0313,112.25 771.3125,112.3906 771.4688,112.6563 C771.5625,112.8125 771.5781,112.9375 771.5781,113.375 L771.5781,114.7969 C771.5781,115.2188 771.5469,115.4063 771.4375,115.5625 C771.2656,115.7813 771,115.9219 770.7344,115.9219 C770.5156,115.9219 770.2813,115.8125 770.1406,115.6719 C770,115.5469 769.9688,115.4219 769.9063,115.0156 C769.8125,114.6094 769.6406,114.3906 769.1563,114.1094 C768.6875,113.8594 768.0781,113.7031 767.5,113.7031 C765.7656,113.7031 764.5156,115.0156 764.5156,116.7969 L764.5156,117.8906 C764.5156,119.5938 765.8125,120.6875 767.8594,120.6875 C768.625,120.6875 769.3125,120.5625 769.7344,120.2969 C769.9219,120.2031 769.9219,120.2031 770.375,119.7188 C770.5625,119.5313 770.7656,119.4531 770.9844,119.4531 C771.4531,119.4531 771.8438,119.8438 771.8438,120.2969 C771.8438,120.6875 771.5156,121.1406 770.9375,121.5469 C770.1875,122.0938 769.0313,122.3906 767.8125,122.3906 C764.9219,122.3906 762.8125,120.5 762.8125,117.9219 L762.8125,116.7969 C762.8125,114.0781 764.8125,112 767.4375,112 C768.3125,112 768.9063,112.1406 769.8438,112.5781 Z "/><text fill="#000000" font-family="sans-serif" font-size="12" lengthAdjust="spacingAndGlyphs" textLength="47" x="781.5" y="121.0605">Iterator</text><line style="stroke: #A80036; stroke-width: 1.5;" x1="753.5" x2="830.5" y1="132.9063" y2="132.9063"/><line style="stroke: #A80036; stroke-width: 1.5;" x1="753.5" x2="830.5" y1="140.9063" y2="140.9063"/><!--class P--><rect fill="#FEFECE" filter="url(#f1dipekiyllhq8)" height="48" id="P" style="stroke: #A80036; stroke-width: 1.5;" width="40" x="1073" y="466.9063"/><ellipse cx="1088" cy="482.9063" fill="#ADD1B2" rx="11" ry="11" style="stroke: #A80036; stroke-width: 1.0;"/><path d="M1090.3438,478.5781 L1090.5156,478.6563 C1090.7344,478.3438 1090.9375,478.25 1091.2344,478.25 C1091.5313,478.25 1091.8125,478.3906 1091.9688,478.6563 C1092.0625,478.8125 1092.0781,478.9375 1092.0781,479.375 L1092.0781,480.7969 C1092.0781,481.2188 1092.0469,481.4063 1091.9375,481.5625 C1091.7656,481.7813 1091.5,481.9219 1091.2344,481.9219 C1091.0156,481.9219 1090.7813,481.8125 1090.6406,481.6719 C1090.5,481.5469 1090.4688,481.4219 1090.4063,481.0156 C1090.3125,480.6094 1090.1406,480.3906 1089.6563,480.1094 C1089.1875,479.8594 1088.5781,479.7031 1088,479.7031 C1086.2656,479.7031 1085.0156,481.0156 1085.0156,482.7969 L1085.0156,483.8906 C1085.0156,485.5938 1086.3125,486.6875 1088.3594,486.6875 C1089.125,486.6875 1089.8125,486.5625 1090.2344,486.2969 C1090.4219,486.2031 1090.4219,486.2031 1090.875,485.7188 C1091.0625,485.5313 1091.2656,485.4531 1091.4844,485.4531 C1091.9531,485.4531 1092.3438,485.8438 1092.3438,486.2969 C1092.3438,486.6875 1092.0156,487.1406 1091.4375,487.5469 C1090.6875,488.0938 1089.5313,488.3906 1088.3125,488.3906 C1085.4219,488.3906 1083.3125,486.5 1083.3125,483.9219 L1083.3125,482.7969 C1083.3125,480.0781 1085.3125,478 1087.9375,478 C1088.8125,478 1089.4063,478.1406 1090.3438,478.5781 Z "/><text fill="#000000" font-family="sans-serif" font-size="12" lengthAdjust="spacingAndGlyphs" textLength="8" x="1102" y="487.0605">P</text><line style="stroke: #A80036; stroke-width: 1.5;" x1="1074" x2="1112" y1="498.9063" y2="498.9063"/><line style="stroke: #A80036; stroke-width: 1.5;" x1="1074" x2="1112" y1="506.9063" y2="506.9063"/><!--reverse link in.ashwanik.pdp.common.githubjobs.GithubJobClientContract to in.ashwanik.pdp.iterator.DefaultGithubJobClientContract--><path d="M294,169.3313 C294,199.3073 294,238.3763 294,264.8133 " fill="none" id="in.ashwanik.pdp.common.githubjobs.GithubJobClientContract&lt;-in.ashwanik.pdp.iterator.DefaultGithubJobClientContract" style="stroke: #A80036; stroke-width: 1.0; stroke-dasharray: 7.0,7.0;"/><polygon fill="none" points="287,168.9823,294,148.9823,301,168.9823,287,168.9823" style="stroke: #A80036; stroke-width: 1.0;"/><!--reverse link in.ashwanik.pdp.iterator.GithubJobRepository to in.ashwanik.pdp.builder.GithubJobClient--><path d="M583.789,339.5293 C594.909,346.1973 606.588,352.6153 618,357.9063 C707.145,399.2343 739.864,382.5603 829,423.9063 C854.607,435.7843 881.457,452.9603 901.46,466.8133 " fill="none" id="in.ashwanik.pdp.iterator.GithubJobRepository&lt;-in.ashwanik.pdp.builder.GithubJobClient" style="stroke: #A80036; stroke-width: 1.0;"/><polygon fill="#FFFFFF" points="572.438,332.5263,575.4443,339.0808,582.6509,338.8267,579.6446,332.2722,572.438,332.5263" style="stroke: #A80036; stroke-width: 1.0;"/><text fill="#000000" font-family="sans-serif" font-size="13" lengthAdjust="spacingAndGlyphs" textLength="55" x="778" y="400.9731">jobClient</text><!--reverse link java.lang.Iterable to in.ashwanik.pdp.iterator.GithubPagedResult--><path d="M672.861,167.6862 C680.792,187.3393 690.409,211.1683 699.152,232.8352 " fill="none" id="java.lang.Iterable&lt;-in.ashwanik.pdp.iterator.GithubPagedResult" style="stroke: #A80036; stroke-width: 1.0; stroke-dasharray: 7.0,7.0;"/><polygon fill="none" points="666.306,170.1483,665.313,148.9823,679.289,164.9093,666.306,170.1483" style="stroke: #A80036; stroke-width: 1.0;"/><!--reverse link java.util.Iterator to in.ashwanik.pdp.iterator.GithubPagedResult--><path d="M775.139,167.6862 C767.208,187.3393 757.591,211.1683 748.848,232.8352 " fill="none" id="java.util.Iterator&lt;-in.ashwanik.pdp.iterator.GithubPagedResult" style="stroke: #A80036; stroke-width: 1.0; stroke-dasharray: 7.0,7.0;"/><polygon fill="none" points="768.711,164.9093,782.687,148.9823,781.694,170.1483,768.711,164.9093" style="stroke: #A80036; stroke-width: 1.0;"/><!--reverse link in.ashwanik.pdp.iterator.GithubPagedResult to P--><path d="M825.123,333.0873 C882.205,355.7133 953.751,387.3642 1013,423.9063 C1034.91,437.4222 1057.31,456.4323 1072.81,470.5813 " fill="none" id="in.ashwanik.pdp.iterator.GithubPagedResult&lt;-P" style="stroke: #A80036; stroke-width: 1.0;"/><polygon fill="#FFFFFF" points="812.802,328.2543,816.9269,334.1691,823.9732,332.6365,819.8484,326.7216,812.802,328.2543" style="stroke: #A80036; stroke-width: 1.0;"/><text fill="#000000" font-family="sans-serif" font-size="13" lengthAdjust="spacingAndGlyphs" textLength="94" x="976" y="400.9731">pageCollection</text><!--reverse link in.ashwanik.pdp.iterator.SearchFilter to in.ashwanik.pdp.iterator.SearchFilter.SearchFilterBuilder--><path d="M111.984,359.7983 C119.597,383.9462 128.205,411.2543 135.563,434.5943 " fill="none" id="in.ashwanik.pdp.iterator.SearchFilter&lt;-in.ashwanik.pdp.iterator.SearchFilter.SearchFilterBuilder" style="stroke: #A80036; stroke-width: 1.0;"/><ellipse cx="109.7984" cy="352.8641" fill="#FFFFFF" rx="8" ry="8" style="stroke: #A80036; stroke-width: 1.0;"/><line style="stroke: #A80036; stroke-width: 1.0;" x1="112.2037" x2="107.393" y1="360.4939" y2="345.2343"/><line style="stroke: #A80036; stroke-width: 1.0;" x1="102.1685" x2="117.4282" y1="355.2694" y2="350.4587"/><!--
@startuml
title __ITERATOR__\n

  namespace in.ashwanik.pdp.iterator {
    class in.ashwanik.pdp.iterator.DefaultGithubJobClientContract {
        + getJobs()
    }
  }
  

  namespace in.ashwanik.pdp.iterator {
    class in.ashwanik.pdp.iterator.GithubJobRepository {
        + GithubJobRepository()
        + getJobs()
    }
  }
  

  namespace in.ashwanik.pdp.iterator {
    class in.ashwanik.pdp.iterator.GithubPagedResult {
        - index : int
        - nextPage : Function<P, P>
        + GithubPagedResult()
        + hasNext()
        + iterator()
        + next()
    }
  }
  

  namespace in.ashwanik.pdp.iterator {
    class in.ashwanik.pdp.iterator.SearchFilter {
        - page : int
        {static} + builder()
        + getPage()
        ~ SearchFilter()
    }
  }
  

  namespace in.ashwanik.pdp.iterator {
    class in.ashwanik.pdp.iterator.SearchFilter.SearchFilterBuilder {
        - page : int
        + build()
        + page()
        + toString()
        ~ SearchFilterBuilder()
    }
  }
  

  in.ashwanik.pdp.iterator.DefaultGithubJobClientContract .up.|> in.ashwanik.pdp.common.githubjobs.GithubJobClientContract
  in.ashwanik.pdp.iterator.GithubJobRepository o- - in.ashwanik.pdp.builder.GithubJobClient : jobClient
  in.ashwanik.pdp.iterator.GithubPagedResult .up.|> java.lang.Iterable
  in.ashwanik.pdp.iterator.GithubPagedResult .up.|> java.util.Iterator
  in.ashwanik.pdp.iterator.GithubPagedResult o- - P : pageCollection
  in.ashwanik.pdp.iterator.SearchFilter +-down- in.ashwanik.pdp.iterator.SearchFilter.SearchFilterBuilder
@enduml

PlantUML version 1.2019.10beta5(Unknown compile time)
(GPL source distribution)
Java Runtime: Java(TM) SE Runtime Environment
JVM: Java HotSpot(TM) 64-Bit Server VM
Java Version: 1.7.0_25-b15
Operating System: Linux
Default Encoding: UTF-8
Language: en
Country: US
--></g></svg>