<?xml version="1.0" encoding="UTF-8" standalone="no"?>
<svg xmlns="http://www.w3.org/2000/svg" xmlns:xlink="http://www.w3.org/1999/xlink" contentScriptType="application/ecmascript" contentStyleType="text/css" height="845px" preserveAspectRatio="none" style="width:458px;height:845px;" version="1.1" viewBox="0 0 458 845" width="458px" zoomAndPan="magnify"><defs><filter height="300%" id="f1m54kfmio6x91" width="300%" x="-1" y="-1"><feGaussianBlur result="blurOut" stdDeviation="2.0"/><feColorMatrix in="blurOut" result="blurOut2" type="matrix" values="0 0 0 0 0 0 0 0 0 0 0 0 0 0 0 0 0 0 .4 0"/><feOffset dx="4.0" dy="4.0" in="blurOut2" result="blurOut3"/><feBlend in="SourceGraphic" in2="blurOut3" mode="normal"/></filter></defs><g><text fill="#000000" font-family="sans-serif" font-size="18" lengthAdjust="spacingAndGlyphs" text-decoration="underline" textLength="98" x="186" y="16.708">MEDIATOR</text><text fill="#000000" font-family="sans-serif" font-size="18" lengthAdjust="spacingAndGlyphs" textLength="0" x="238" y="37.6611"/><!--MD5=[e7191723353a1ee8065f904e4e5b364b]
cluster in.ashwanik.pdp.mediator--><polygon fill="#FFFFFF" filter="url(#f1m54kfmio6x91)" points="22,65.9063,231,65.9063,238,88.2031,436,88.2031,436,833.9063,22,833.9063,22,65.9063" style="stroke: #000000; stroke-width: 1.5;"/><line style="stroke: #000000; stroke-width: 1.5;" x1="22" x2="238" y1="88.2031" y2="88.2031"/><text fill="#000000" font-family="sans-serif" font-size="14" font-weight="bold" lengthAdjust="spacingAndGlyphs" textLength="203" x="26" y="80.9014">in.ashwanik.pdp.mediator</text><!--MD5=[0ca6ba81be8135ddfd69bf6d63a9ed57]
class in.ashwanik.pdp.mediator.FileSubscriber--><rect fill="#FEFECE" filter="url(#f1m54kfmio6x91)" height="124.8281" id="in.ashwanik.pdp.mediator.FileSubscriber" style="stroke: #A80036; stroke-width: 1.5;" width="196" x="43" y="452.9063"/><ellipse cx="92.75" cy="468.9063" fill="#ADD1B2" rx="11" ry="11" style="stroke: #A80036; stroke-width: 1.0;"/><path d="M95.0938,464.5781 L95.2656,464.6563 C95.4844,464.3438 95.6875,464.25 95.9844,464.25 C96.2813,464.25 96.5625,464.3906 96.7188,464.6563 C96.8125,464.8125 96.8281,464.9375 96.8281,465.375 L96.8281,466.7969 C96.8281,467.2188 96.7969,467.4063 96.6875,467.5625 C96.5156,467.7813 96.25,467.9219 95.9844,467.9219 C95.7656,467.9219 95.5313,467.8125 95.3906,467.6719 C95.25,467.5469 95.2188,467.4219 95.1563,467.0156 C95.0625,466.6094 94.8906,466.3906 94.4063,466.1094 C93.9375,465.8594 93.3281,465.7031 92.75,465.7031 C91.0156,465.7031 89.7656,467.0156 89.7656,468.7969 L89.7656,469.8906 C89.7656,471.5938 91.0625,472.6875 93.1094,472.6875 C93.875,472.6875 94.5625,472.5625 94.9844,472.2969 C95.1719,472.2031 95.1719,472.2031 95.625,471.7188 C95.8125,471.5313 96.0156,471.4531 96.2344,471.4531 C96.7031,471.4531 97.0938,471.8438 97.0938,472.2969 C97.0938,472.6875 96.7656,473.1406 96.1875,473.5469 C95.4375,474.0938 94.2813,474.3906 93.0625,474.3906 C90.1719,474.3906 88.0625,472.5 88.0625,469.9219 L88.0625,468.7969 C88.0625,466.0781 90.0625,464 92.6875,464 C93.5625,464 94.1563,464.1406 95.0938,464.5781 Z "/><text fill="#000000" font-family="sans-serif" font-size="12" lengthAdjust="spacingAndGlyphs" textLength="88" x="113.25" y="473.0605">FileSubscriber</text><line style="stroke: #A80036; stroke-width: 1.5;" x1="44" x2="238" y1="484.9063" y2="484.9063"/><rect fill="none" height="6" style="stroke: #C82930; stroke-width: 1.0;" width="6" x="51" y="492.9063"/><text fill="#000000" font-family="sans-serif" font-size="11" lengthAdjust="spacingAndGlyphs" text-decoration="underline" textLength="68" x="63" y="499.1167">log : Logger</text><rect fill="none" height="6" style="stroke: #C82930; stroke-width: 1.0;" width="6" x="51" y="505.7109"/><text fill="#000000" font-family="sans-serif" font-size="11" lengthAdjust="spacingAndGlyphs" textLength="78" x="63" y="511.9214">name : String</text><rect fill="none" height="6" style="stroke: #C82930; stroke-width: 1.0;" width="6" x="51" y="518.5156"/><text fill="#000000" font-family="sans-serif" font-size="11" lengthAdjust="spacingAndGlyphs" textLength="170" x="63" y="524.7261">outputStream : OutputStream</text><line style="stroke: #A80036; stroke-width: 1.5;" x1="44" x2="238" y1="531.3203" y2="531.3203"/><ellipse cx="54" cy="542.3203" fill="#84BE84" rx="3" ry="3" style="stroke: #038048; stroke-width: 1.0;"/><text fill="#000000" font-family="sans-serif" font-size="11" lengthAdjust="spacingAndGlyphs" textLength="59" x="63" y="545.5308">getName()</text><ellipse cx="54" cy="555.125" fill="#84BE84" rx="3" ry="3" style="stroke: #038048; stroke-width: 1.0;"/><text fill="#000000" font-family="sans-serif" font-size="11" lengthAdjust="spacingAndGlyphs" textLength="49" x="63" y="558.3354">receive()</text><polygon fill="#4177AF" points="54,563.9297,50,569.9297,58,569.9297" style="stroke: #1963A0; stroke-width: 1.0;"/><text fill="#000000" font-family="sans-serif" font-size="11" lengthAdjust="spacingAndGlyphs" textLength="89" x="63" y="571.1401">FileSubscriber()</text><!--MD5=[224b9ddc7361d8a7826b028c2ac18955]
class in.ashwanik.pdp.mediator.Message--><rect fill="#FEFECE" filter="url(#f1m54kfmio6x91)" height="291.2891" id="in.ashwanik.pdp.mediator.Message" style="stroke: #A80036; stroke-width: 1.5;" width="126" x="38" y="100.9063"/><ellipse cx="70.1" cy="116.9063" fill="#ADD1B2" rx="11" ry="11" style="stroke: #A80036; stroke-width: 1.0;"/><path d="M72.4438,112.5781 L72.6156,112.6563 C72.8344,112.3438 73.0375,112.25 73.3344,112.25 C73.6313,112.25 73.9125,112.3906 74.0688,112.6563 C74.1625,112.8125 74.1781,112.9375 74.1781,113.375 L74.1781,114.7969 C74.1781,115.2188 74.1469,115.4063 74.0375,115.5625 C73.8656,115.7813 73.6,115.9219 73.3344,115.9219 C73.1156,115.9219 72.8813,115.8125 72.7406,115.6719 C72.6,115.5469 72.5688,115.4219 72.5063,115.0156 C72.4125,114.6094 72.2406,114.3906 71.7563,114.1094 C71.2875,113.8594 70.6781,113.7031 70.1,113.7031 C68.3656,113.7031 67.1156,115.0156 67.1156,116.7969 L67.1156,117.8906 C67.1156,119.5938 68.4125,120.6875 70.4594,120.6875 C71.225,120.6875 71.9125,120.5625 72.3344,120.2969 C72.5219,120.2031 72.5219,120.2031 72.975,119.7188 C73.1625,119.5313 73.3656,119.4531 73.5844,119.4531 C74.0531,119.4531 74.4438,119.8438 74.4438,120.2969 C74.4438,120.6875 74.1156,121.1406 73.5375,121.5469 C72.7875,122.0938 71.6313,122.3906 70.4125,122.3906 C67.5219,122.3906 65.4125,120.5 65.4125,117.9219 L65.4125,116.7969 C65.4125,114.0781 67.4125,112 70.0375,112 C70.9125,112 71.5063,112.1406 72.4438,112.5781 Z "/><text fill="#000000" font-family="sans-serif" font-size="12" lengthAdjust="spacingAndGlyphs" textLength="56" x="87.9" y="121.0605">Message</text><line style="stroke: #A80036; stroke-width: 1.5;" x1="39" x2="163" y1="132.9063" y2="132.9063"/><rect fill="none" height="6" style="stroke: #C82930; stroke-width: 1.0;" width="6" x="46" y="140.9063"/><text fill="#000000" font-family="sans-serif" font-size="11" lengthAdjust="spacingAndGlyphs" textLength="90" x="58" y="147.1167">payload : String</text><rect fill="none" height="6" style="stroke: #C82930; stroke-width: 1.0;" width="6" x="46" y="153.7109"/><text fill="#000000" font-family="sans-serif" font-size="11" lengthAdjust="spacingAndGlyphs" textLength="100" x="58" y="159.9214">receivedOn : long</text><rect fill="none" height="6" style="stroke: #C82930; stroke-width: 1.0;" width="6" x="46" y="166.5156"/><text fill="#000000" font-family="sans-serif" font-size="11" lengthAdjust="spacingAndGlyphs" textLength="92" x="58" y="172.7261">receiver : String</text><rect fill="none" height="6" style="stroke: #C82930; stroke-width: 1.0;" width="6" x="46" y="179.3203"/><text fill="#000000" font-family="sans-serif" font-size="11" lengthAdjust="spacingAndGlyphs" textLength="86" x="58" y="185.5308">sender : String</text><rect fill="none" height="6" style="stroke: #C82930; stroke-width: 1.0;" width="6" x="46" y="192.125"/><text fill="#000000" font-family="sans-serif" font-size="11" lengthAdjust="spacingAndGlyphs" textLength="77" x="58" y="198.3354">sentOn : long</text><rect fill="none" height="6" style="stroke: #C82930; stroke-width: 1.0;" width="6" x="46" y="204.9297"/><text fill="#000000" font-family="sans-serif" font-size="11" lengthAdjust="spacingAndGlyphs" textLength="73" x="58" y="211.1401">topic : String</text><line style="stroke: #A80036; stroke-width: 1.5;" x1="39" x2="163" y1="217.7344" y2="217.7344"/><ellipse cx="49" cy="228.7344" fill="#84BE84" rx="3" ry="3" style="stroke: #038048; stroke-width: 1.0;"/><text fill="#000000" font-family="sans-serif" font-size="11" lengthAdjust="spacingAndGlyphs" textLength="70" x="58" y="231.9448">getPayload()</text><ellipse cx="49" cy="241.5391" fill="#84BE84" rx="3" ry="3" style="stroke: #038048; stroke-width: 1.0;"/><text fill="#000000" font-family="sans-serif" font-size="11" lengthAdjust="spacingAndGlyphs" textLength="92" x="58" y="244.7495">getReceivedOn()</text><ellipse cx="49" cy="254.3438" fill="#84BE84" rx="3" ry="3" style="stroke: #038048; stroke-width: 1.0;"/><text fill="#000000" font-family="sans-serif" font-size="11" lengthAdjust="spacingAndGlyphs" textLength="74" x="58" y="257.5542">getReceiver()</text><ellipse cx="49" cy="267.1484" fill="#84BE84" rx="3" ry="3" style="stroke: #038048; stroke-width: 1.0;"/><text fill="#000000" font-family="sans-serif" font-size="11" lengthAdjust="spacingAndGlyphs" textLength="67" x="58" y="270.3589">getSender()</text><ellipse cx="49" cy="279.9531" fill="#84BE84" rx="3" ry="3" style="stroke: #038048; stroke-width: 1.0;"/><text fill="#000000" font-family="sans-serif" font-size="11" lengthAdjust="spacingAndGlyphs" textLength="68" x="58" y="283.1636">getSentOn()</text><ellipse cx="49" cy="292.7578" fill="#84BE84" rx="3" ry="3" style="stroke: #038048; stroke-width: 1.0;"/><text fill="#000000" font-family="sans-serif" font-size="11" lengthAdjust="spacingAndGlyphs" textLength="56" x="58" y="295.9683">getTopic()</text><ellipse cx="49" cy="305.5625" fill="#84BE84" rx="3" ry="3" style="stroke: #038048; stroke-width: 1.0;"/><text fill="#000000" font-family="sans-serif" font-size="11" lengthAdjust="spacingAndGlyphs" textLength="70" x="58" y="308.7729">setPayload()</text><ellipse cx="49" cy="318.3672" fill="#84BE84" rx="3" ry="3" style="stroke: #038048; stroke-width: 1.0;"/><text fill="#000000" font-family="sans-serif" font-size="11" lengthAdjust="spacingAndGlyphs" textLength="92" x="58" y="321.5776">setReceivedOn()</text><ellipse cx="49" cy="331.1719" fill="#84BE84" rx="3" ry="3" style="stroke: #038048; stroke-width: 1.0;"/><text fill="#000000" font-family="sans-serif" font-size="11" lengthAdjust="spacingAndGlyphs" textLength="74" x="58" y="334.3823">setReceiver()</text><ellipse cx="49" cy="343.9766" fill="#84BE84" rx="3" ry="3" style="stroke: #038048; stroke-width: 1.0;"/><text fill="#000000" font-family="sans-serif" font-size="11" lengthAdjust="spacingAndGlyphs" textLength="67" x="58" y="347.187">setSender()</text><ellipse cx="49" cy="356.7813" fill="#84BE84" rx="3" ry="3" style="stroke: #038048; stroke-width: 1.0;"/><text fill="#000000" font-family="sans-serif" font-size="11" lengthAdjust="spacingAndGlyphs" textLength="68" x="58" y="359.9917">setSentOn()</text><ellipse cx="49" cy="369.5859" fill="#84BE84" rx="3" ry="3" style="stroke: #038048; stroke-width: 1.0;"/><text fill="#000000" font-family="sans-serif" font-size="11" lengthAdjust="spacingAndGlyphs" textLength="56" x="58" y="372.7964">setTopic()</text><polygon fill="#4177AF" points="49,378.3906,45,384.3906,53,384.3906" style="stroke: #1963A0; stroke-width: 1.0;"/><text fill="#000000" font-family="sans-serif" font-size="11" lengthAdjust="spacingAndGlyphs" textLength="58" x="58" y="385.6011">getBytes()</text><!--MD5=[7e74d5ef10367e81779004d8638e1d44]
class in.ashwanik.pdp.mediator.MessageMediator--><rect fill="#FEFECE" filter="url(#f1m54kfmio6x91)" height="163.2422" id="in.ashwanik.pdp.mediator.MessageMediator" style="stroke: #A80036; stroke-width: 1.5;" width="381" x="38.5" y="654.9063"/><ellipse cx="169.25" cy="670.9063" fill="#ADD1B2" rx="11" ry="11" style="stroke: #A80036; stroke-width: 1.0;"/><path d="M171.5938,666.5781 L171.7656,666.6563 C171.9844,666.3438 172.1875,666.25 172.4844,666.25 C172.7813,666.25 173.0625,666.3906 173.2188,666.6563 C173.3125,666.8125 173.3281,666.9375 173.3281,667.375 L173.3281,668.7969 C173.3281,669.2188 173.2969,669.4063 173.1875,669.5625 C173.0156,669.7813 172.75,669.9219 172.4844,669.9219 C172.2656,669.9219 172.0313,669.8125 171.8906,669.6719 C171.75,669.5469 171.7188,669.4219 171.6563,669.0156 C171.5625,668.6094 171.3906,668.3906 170.9063,668.1094 C170.4375,667.8594 169.8281,667.7031 169.25,667.7031 C167.5156,667.7031 166.2656,669.0156 166.2656,670.7969 L166.2656,671.8906 C166.2656,673.5938 167.5625,674.6875 169.6094,674.6875 C170.375,674.6875 171.0625,674.5625 171.4844,674.2969 C171.6719,674.2031 171.6719,674.2031 172.125,673.7188 C172.3125,673.5313 172.5156,673.4531 172.7344,673.4531 C173.2031,673.4531 173.5938,673.8438 173.5938,674.2969 C173.5938,674.6875 173.2656,675.1406 172.6875,675.5469 C171.9375,676.0938 170.7813,676.3906 169.5625,676.3906 C166.6719,676.3906 164.5625,674.5 164.5625,671.9219 L164.5625,670.7969 C164.5625,668.0781 166.5625,666 169.1875,666 C170.0625,666 170.6563,666.1406 171.5938,666.5781 Z "/><text fill="#000000" font-family="sans-serif" font-size="12" lengthAdjust="spacingAndGlyphs" textLength="111" x="189.75" y="675.0605">MessageMediator</text><line style="stroke: #A80036; stroke-width: 1.5;" x1="39.5" x2="418.5" y1="686.9063" y2="686.9063"/><rect fill="none" height="6" style="stroke: #C82930; stroke-width: 1.0;" width="6" x="46.5" y="694.9063"/><text fill="#000000" font-family="sans-serif" font-size="11" lengthAdjust="spacingAndGlyphs" text-decoration="underline" textLength="68" x="58.5" y="701.1167">log : Logger</text><rect fill="none" height="6" style="stroke: #C82930; stroke-width: 1.0;" width="6" x="46.5" y="707.7109"/><text fill="#000000" font-family="sans-serif" font-size="11" lengthAdjust="spacingAndGlyphs" textLength="355" x="58.5" y="713.9214">subscribers : ConcurrentHashMap&lt;String, List&lt;Subscriber&gt;&gt;</text><line style="stroke: #A80036; stroke-width: 1.5;" x1="39.5" x2="418.5" y1="720.5156" y2="720.5156"/><polygon fill="#4177AF" points="49.5,727.5156,45.5,733.5156,53.5,733.5156" style="stroke: #1963A0; stroke-width: 1.0;"/><text fill="#000000" font-family="sans-serif" font-size="11" lengthAdjust="spacingAndGlyphs" textLength="108" x="58.5" y="734.7261">MessageMediator()</text><polygon fill="#4177AF" points="49.5,740.3203,45.5,746.3203,53.5,746.3203" style="stroke: #1963A0; stroke-width: 1.0;"/><text fill="#000000" font-family="sans-serif" font-size="11" lengthAdjust="spacingAndGlyphs" textLength="91" x="58.5" y="747.5308">addSubscriber()</text><polygon fill="#4177AF" points="49.5,753.125,45.5,759.125,53.5,759.125" style="stroke: #1963A0; stroke-width: 1.0;"/><text fill="#000000" font-family="sans-serif" font-size="11" lengthAdjust="spacingAndGlyphs" textLength="113" x="58.5" y="760.3354">removeSubscriber()</text><polygon fill="#4177AF" points="49.5,765.9297,45.5,771.9297,53.5,771.9297" style="stroke: #1963A0; stroke-width: 1.0;"/><text fill="#000000" font-family="sans-serif" font-size="11" lengthAdjust="spacingAndGlyphs" textLength="36" x="58.5" y="773.1401">send()</text><rect fill="#F24D5C" height="6" style="stroke: #C82930; stroke-width: 1.0;" width="6" x="46.5" y="779.7344"/><text fill="#000000" font-family="sans-serif" font-size="11" lengthAdjust="spacingAndGlyphs" textLength="143" x="58.5" y="785.9448">getSubscribersForTopic()</text><rect fill="#F24D5C" height="6" style="stroke: #C82930; stroke-width: 1.0;" width="6" x="46.5" y="792.5391"/><text fill="#000000" font-family="sans-serif" font-size="11" lengthAdjust="spacingAndGlyphs" textLength="81" x="58.5" y="798.7495">keyNotEmpty()</text><rect fill="#F24D5C" height="6" style="stroke: #C82930; stroke-width: 1.0;" width="6" x="46.5" y="805.3438"/><text fill="#000000" font-family="sans-serif" font-size="11" lengthAdjust="spacingAndGlyphs" textLength="82" x="58.5" y="811.5542">objectNotNull()</text><!--MD5=[d76e2c83e7cf1c5434958c5dfefa5573]
class in.ashwanik.pdp.mediator.MessagePublisher--><rect fill="#FEFECE" filter="url(#f1m54kfmio6x91)" height="99.2188" id="in.ashwanik.pdp.mediator.MessagePublisher" style="stroke: #A80036; stroke-width: 1.5;" width="146" x="274" y="465.9063"/><ellipse cx="289" cy="481.9063" fill="#ADD1B2" rx="11" ry="11" style="stroke: #A80036; stroke-width: 1.0;"/><path d="M291.3438,477.5781 L291.5156,477.6563 C291.7344,477.3438 291.9375,477.25 292.2344,477.25 C292.5313,477.25 292.8125,477.3906 292.9688,477.6563 C293.0625,477.8125 293.0781,477.9375 293.0781,478.375 L293.0781,479.7969 C293.0781,480.2188 293.0469,480.4063 292.9375,480.5625 C292.7656,480.7813 292.5,480.9219 292.2344,480.9219 C292.0156,480.9219 291.7813,480.8125 291.6406,480.6719 C291.5,480.5469 291.4688,480.4219 291.4063,480.0156 C291.3125,479.6094 291.1406,479.3906 290.6563,479.1094 C290.1875,478.8594 289.5781,478.7031 289,478.7031 C287.2656,478.7031 286.0156,480.0156 286.0156,481.7969 L286.0156,482.8906 C286.0156,484.5938 287.3125,485.6875 289.3594,485.6875 C290.125,485.6875 290.8125,485.5625 291.2344,485.2969 C291.4219,485.2031 291.4219,485.2031 291.875,484.7188 C292.0625,484.5313 292.2656,484.4531 292.4844,484.4531 C292.9531,484.4531 293.3438,484.8438 293.3438,485.2969 C293.3438,485.6875 293.0156,486.1406 292.4375,486.5469 C291.6875,487.0938 290.5313,487.3906 289.3125,487.3906 C286.4219,487.3906 284.3125,485.5 284.3125,482.9219 L284.3125,481.7969 C284.3125,479.0781 286.3125,477 288.9375,477 C289.8125,477 290.4063,477.1406 291.3438,477.5781 Z "/><text fill="#000000" font-family="sans-serif" font-size="12" lengthAdjust="spacingAndGlyphs" textLength="114" x="303" y="486.0605">MessagePublisher</text><line style="stroke: #A80036; stroke-width: 1.5;" x1="275" x2="419" y1="497.9063" y2="497.9063"/><rect fill="none" height="6" style="stroke: #C82930; stroke-width: 1.0;" width="6" x="282" y="505.9063"/><text fill="#000000" font-family="sans-serif" font-size="11" lengthAdjust="spacingAndGlyphs" textLength="78" x="294" y="512.1167">name : String</text><line style="stroke: #A80036; stroke-width: 1.5;" x1="275" x2="419" y1="518.7109" y2="518.7109"/><ellipse cx="285" cy="529.7109" fill="#84BE84" rx="3" ry="3" style="stroke: #038048; stroke-width: 1.0;"/><text fill="#000000" font-family="sans-serif" font-size="11" lengthAdjust="spacingAndGlyphs" textLength="59" x="294" y="532.9214">getName()</text><ellipse cx="285" cy="542.5156" fill="#84BE84" rx="3" ry="3" style="stroke: #038048; stroke-width: 1.0;"/><text fill="#000000" font-family="sans-serif" font-size="11" lengthAdjust="spacingAndGlyphs" textLength="49" x="294" y="545.7261">publish()</text><polygon fill="#4177AF" points="285,551.3203,281,557.3203,289,557.3203" style="stroke: #1963A0; stroke-width: 1.0;"/><text fill="#000000" font-family="sans-serif" font-size="11" lengthAdjust="spacingAndGlyphs" textLength="112" x="294" y="558.5308">MessagePublisher()</text><!--MD5=[d8b4db99e2ad3203462c66dc493c8645]
class in.ashwanik.pdp.mediator.Publisher--><rect fill="#FEFECE" filter="url(#f1m54kfmio6x91)" height="73.6094" id="in.ashwanik.pdp.mediator.Publisher" style="stroke: #A80036; stroke-width: 1.5;" width="88" x="332" y="209.4063"/><ellipse cx="347" cy="225.4063" fill="#B4A7E5" rx="11" ry="11" style="stroke: #A80036; stroke-width: 1.0;"/><path d="M347.9531,222.1875 L347.9531,228.7031 L349.6719,228.7031 C350.125,228.7031 350.2656,228.7344 350.4375,228.8594 C350.6719,229.0313 350.7813,229.2813 350.7813,229.5625 C350.7813,230.125 350.4219,230.4063 349.6719,230.4063 L344.5313,230.4063 C344.125,230.4063 343.9219,230.3594 343.7656,230.2344 C343.5469,230.0781 343.4063,229.8125 343.4063,229.5625 C343.4063,229.2656 343.5625,228.9844 343.8125,228.8281 C343.9688,228.7188 344.0938,228.7031 344.5313,228.7031 L346.25,228.7031 L346.25,222.1875 L344.5313,222.1875 C344.1094,222.1875 343.9219,222.1563 343.7656,222.0469 C343.5469,221.875 343.4063,221.625 343.4063,221.3438 C343.4063,221.0625 343.5625,220.7656 343.8125,220.6094 C343.9688,220.5156 344.0938,220.5 344.5313,220.5 L349.6719,220.5 C350.125,220.5 350.2656,220.5313 350.4375,220.6406 C350.6719,220.8125 350.7813,221.0781 350.7813,221.3438 C350.7813,221.6406 350.6406,221.9219 350.375,222.0781 C350.25,222.1563 350.0625,222.1875 349.6719,222.1875 Z "/><text fill="#000000" font-family="sans-serif" font-size="12" font-style="italic" lengthAdjust="spacingAndGlyphs" textLength="56" x="361" y="229.5605">Publisher</text><line style="stroke: #A80036; stroke-width: 1.5;" x1="333" x2="419" y1="241.4063" y2="241.4063"/><line style="stroke: #A80036; stroke-width: 1.5;" x1="333" x2="419" y1="249.4063" y2="249.4063"/><ellipse cx="343" cy="260.4063" fill="#84BE84" rx="3" ry="3" style="stroke: #038048; stroke-width: 1.0;"/><text fill="#000000" font-family="sans-serif" font-size="11" font-style="italic" lengthAdjust="spacingAndGlyphs" textLength="59" x="352" y="263.6167">getName()</text><ellipse cx="343" cy="273.2109" fill="#84BE84" rx="3" ry="3" style="stroke: #038048; stroke-width: 1.0;"/><text fill="#000000" font-family="sans-serif" font-size="11" font-style="italic" lengthAdjust="spacingAndGlyphs" textLength="48" x="352" y="276.4214">publish()</text><!--MD5=[3e8cdb5f68a9dba0c5835178e22d8844]
class in.ashwanik.pdp.mediator.Subscriber--><rect fill="#FEFECE" filter="url(#f1m54kfmio6x91)" height="73.6094" id="in.ashwanik.pdp.mediator.Subscriber" style="stroke: #A80036; stroke-width: 1.5;" width="98" x="199" y="209.4063"/><ellipse cx="214" cy="225.4063" fill="#B4A7E5" rx="11" ry="11" style="stroke: #A80036; stroke-width: 1.0;"/><path d="M214.9531,222.1875 L214.9531,228.7031 L216.6719,228.7031 C217.125,228.7031 217.2656,228.7344 217.4375,228.8594 C217.6719,229.0313 217.7813,229.2813 217.7813,229.5625 C217.7813,230.125 217.4219,230.4063 216.6719,230.4063 L211.5313,230.4063 C211.125,230.4063 210.9219,230.3594 210.7656,230.2344 C210.5469,230.0781 210.4063,229.8125 210.4063,229.5625 C210.4063,229.2656 210.5625,228.9844 210.8125,228.8281 C210.9688,228.7188 211.0938,228.7031 211.5313,228.7031 L213.25,228.7031 L213.25,222.1875 L211.5313,222.1875 C211.1094,222.1875 210.9219,222.1563 210.7656,222.0469 C210.5469,221.875 210.4063,221.625 210.4063,221.3438 C210.4063,221.0625 210.5625,220.7656 210.8125,220.6094 C210.9688,220.5156 211.0938,220.5 211.5313,220.5 L216.6719,220.5 C217.125,220.5 217.2656,220.5313 217.4375,220.6406 C217.6719,220.8125 217.7813,221.0781 217.7813,221.3438 C217.7813,221.6406 217.6406,221.9219 217.375,222.0781 C217.25,222.1563 217.0625,222.1875 216.6719,222.1875 Z "/><text fill="#000000" font-family="sans-serif" font-size="12" font-style="italic" lengthAdjust="spacingAndGlyphs" textLength="66" x="228" y="229.5605">Subscriber</text><line style="stroke: #A80036; stroke-width: 1.5;" x1="200" x2="296" y1="241.4063" y2="241.4063"/><line style="stroke: #A80036; stroke-width: 1.5;" x1="200" x2="296" y1="249.4063" y2="249.4063"/><ellipse cx="210" cy="260.4063" fill="#84BE84" rx="3" ry="3" style="stroke: #038048; stroke-width: 1.0;"/><text fill="#000000" font-family="sans-serif" font-size="11" font-style="italic" lengthAdjust="spacingAndGlyphs" textLength="59" x="219" y="263.6167">getName()</text><ellipse cx="210" cy="273.2109" fill="#84BE84" rx="3" ry="3" style="stroke: #038048; stroke-width: 1.0;"/><text fill="#000000" font-family="sans-serif" font-size="11" font-style="italic" lengthAdjust="spacingAndGlyphs" textLength="50" x="219" y="276.4214">receive()</text><!--MD5=[6651ac1d137fa961ad6668abe0db8035]
reverse link in.ashwanik.pdp.mediator.Subscriber to in.ashwanik.pdp.mediator.FileSubscriber--><path d="M226.057,302.1603 C208.525,345.9083 183.957,407.2143 165.73,452.6963 " fill="none" id="in.ashwanik.pdp.mediator.Subscriber&lt;-in.ashwanik.pdp.mediator.FileSubscriber" style="stroke: #A80036; stroke-width: 1.0; stroke-dasharray: 7.0,7.0;"/><polygon fill="none" points="219.632,299.3763,233.57,283.4153,232.627,304.5843,219.632,299.3763" style="stroke: #A80036; stroke-width: 1.0;"/><!--MD5=[3661ec31e83a935d8a10b9e4e7c6e87c]
reverse link in.ashwanik.pdp.mediator.Publisher to in.ashwanik.pdp.mediator.MessagePublisher--><path d="M369.897,303.5943 C364.676,351.6683 357.237,420.1523 352.271,465.8783 " fill="none" id="in.ashwanik.pdp.mediator.Publisher&lt;-in.ashwanik.pdp.mediator.MessagePublisher" style="stroke: #A80036; stroke-width: 1.0; stroke-dasharray: 7.0,7.0;"/><polygon fill="none" points="362.97,302.5422,372.089,283.4153,376.888,304.0543,362.97,302.5422" style="stroke: #A80036; stroke-width: 1.0;"/><!--MD5=[a110523cc05b4c4bb1eaceb6a5adcc29]
reverse link in.ashwanik.pdp.mediator.MessagePublisher to in.ashwanik.pdp.mediator.MessageMediator--><path d="M314.62,576.5013 C301.619,600.6302 286.436,628.8083 272.496,654.6803 " fill="none" id="in.ashwanik.pdp.mediator.MessagePublisher&lt;-in.ashwanik.pdp.mediator.MessageMediator" style="stroke: #A80036; stroke-width: 1.0;"/><polygon fill="#FFFFFF" points="320.812,565.0093,314.4444,568.3936,315.1193,575.573,321.4869,572.1887,320.812,565.0093" style="stroke: #A80036; stroke-width: 1.0;"/><text fill="#000000" font-family="sans-serif" font-size="13" lengthAdjust="spacingAndGlyphs" textLength="115" x="296" y="620.9731">messageMediator</text><!--MD5=[c1e0b12cfb492f6448c765a437c0cc0f]
@startuml
title __MEDIATOR__\n

  namespace in.ashwanik.pdp.mediator {
    class in.ashwanik.pdp.mediator.FileSubscriber {
        {static} - log : Logger
        - name : String
        - outputStream : OutputStream
        + getName()
        + receive()
        ~ FileSubscriber()
    }
  }
  

  namespace in.ashwanik.pdp.mediator {
    class in.ashwanik.pdp.mediator.Message {
        - payload : String
        - receivedOn : long
        - receiver : String
        - sender : String
        - sentOn : long
        - topic : String
        + getPayload()
        + getReceivedOn()
        + getReceiver()
        + getSender()
        + getSentOn()
        + getTopic()
        + setPayload()
        + setReceivedOn()
        + setReceiver()
        + setSender()
        + setSentOn()
        + setTopic()
        ~ getBytes()
    }
  }
  

  namespace in.ashwanik.pdp.mediator {
    class in.ashwanik.pdp.mediator.MessageMediator {
        {static} - log : Logger
        - subscribers : ConcurrentHashMap<String, List<Subscriber>>
        ~ MessageMediator()
        ~ addSubscriber()
        ~ removeSubscriber()
        ~ send()
        - getSubscribersForTopic()
        - keyNotEmpty()
        - objectNotNull()
    }
  }
  

  namespace in.ashwanik.pdp.mediator {
    class in.ashwanik.pdp.mediator.MessagePublisher {
        - name : String
        + getName()
        + publish()
        ~ MessagePublisher()
    }
  }
  

  namespace in.ashwanik.pdp.mediator {
    interface in.ashwanik.pdp.mediator.Publisher {
        {abstract} + getName()
        {abstract} + publish()
    }
  }
  

  namespace in.ashwanik.pdp.mediator {
    interface in.ashwanik.pdp.mediator.Subscriber {
        {abstract} + getName()
        {abstract} + receive()
    }
  }
  

  in.ashwanik.pdp.mediator.FileSubscriber .up.|> in.ashwanik.pdp.mediator.Subscriber
  in.ashwanik.pdp.mediator.MessagePublisher .up.|> in.ashwanik.pdp.mediator.Publisher
  in.ashwanik.pdp.mediator.MessagePublisher o- - in.ashwanik.pdp.mediator.MessageMediator : messageMediator
@enduml

PlantUML version 1.2019.11(Sun Sep 22 10:02:15 UTC 2019)
(GPL source distribution)
Java Runtime: Java(TM) SE Runtime Environment
JVM: Java HotSpot(TM) 64-Bit Server VM
Java Version: 1.7.0_25-b15
Operating System: Linux
Default Encoding: UTF-8
Language: en
Country: US
--></g></svg>