<?xml version="1.0" encoding="UTF-8" standalone="no"?>
<svg xmlns="http://www.w3.org/2000/svg" xmlns:xlink="http://www.w3.org/1999/xlink" contentScriptType="application/ecmascript" contentStyleType="text/css" height="416px" preserveAspectRatio="none" style="width:660px;height:416px;" version="1.1" viewBox="0 0 660 416" width="660px" zoomAndPan="magnify"><defs><filter height="300%" id="figblcwns0u4t" width="300%" x="-1" y="-1"><feGaussianBlur result="blurOut" stdDeviation="2.0"/><feColorMatrix in="blurOut" result="blurOut2" type="matrix" values="0 0 0 0 0 0 0 0 0 0 0 0 0 0 0 0 0 0 .4 0"/><feOffset dx="4.0" dy="4.0" in="blurOut2" result="blurOut3"/><feBlend in="SourceGraphic" in2="blurOut3" mode="normal"/></filter></defs><g><text fill="#000000" font-family="sans-serif" font-size="18" lengthAdjust="spacingAndGlyphs" text-decoration="underline" textLength="94" x="289" y="16.708">MEMENTO</text><text fill="#000000" font-family="sans-serif" font-size="18" lengthAdjust="spacingAndGlyphs" textLength="0" x="339" y="37.6611"/><!--MD5=[b6679dfaf8d821082d5e8140be5b15a6]
cluster in.ashwanik.pdp.memento--><polygon fill="#FFFFFF" filter="url(#figblcwns0u4t)" points="22,65.9063,235,65.9063,242,88.2031,638,88.2031,638,404.9063,22,404.9063,22,65.9063" style="stroke: #000000; stroke-width: 1.5;"/><line style="stroke: #000000; stroke-width: 1.5;" x1="22" x2="242" y1="88.2031" y2="88.2031"/><text fill="#000000" font-family="sans-serif" font-size="14" font-weight="bold" lengthAdjust="spacingAndGlyphs" textLength="207" x="26" y="80.9014">in.ashwanik.pdp.memento</text><!--MD5=[548ebba5fb039e2927dcf6078d217bd3]
class in.ashwanik.pdp.memento.Caretaker--><rect fill="#FEFECE" filter="url(#figblcwns0u4t)" height="86.4141" id="in.ashwanik.pdp.memento.Caretaker" style="stroke: #A80036; stroke-width: 1.5;" width="237" x="195.5" y="107.4063"/><ellipse cx="278.75" cy="123.4063" fill="#ADD1B2" rx="11" ry="11" style="stroke: #A80036; stroke-width: 1.0;"/><path d="M281.0938,119.0781 L281.2656,119.1563 C281.4844,118.8438 281.6875,118.75 281.9844,118.75 C282.2813,118.75 282.5625,118.8906 282.7188,119.1563 C282.8125,119.3125 282.8281,119.4375 282.8281,119.875 L282.8281,121.2969 C282.8281,121.7188 282.7969,121.9063 282.6875,122.0625 C282.5156,122.2813 282.25,122.4219 281.9844,122.4219 C281.7656,122.4219 281.5313,122.3125 281.3906,122.1719 C281.25,122.0469 281.2188,121.9219 281.1563,121.5156 C281.0625,121.1094 280.8906,120.8906 280.4063,120.6094 C279.9375,120.3594 279.3281,120.2031 278.75,120.2031 C277.0156,120.2031 275.7656,121.5156 275.7656,123.2969 L275.7656,124.3906 C275.7656,126.0938 277.0625,127.1875 279.1094,127.1875 C279.875,127.1875 280.5625,127.0625 280.9844,126.7969 C281.1719,126.7031 281.1719,126.7031 281.625,126.2188 C281.8125,126.0313 282.0156,125.9531 282.2344,125.9531 C282.7031,125.9531 283.0938,126.3438 283.0938,126.7969 C283.0938,127.1875 282.7656,127.6406 282.1875,128.0469 C281.4375,128.5938 280.2813,128.8906 279.0625,128.8906 C276.1719,128.8906 274.0625,127 274.0625,124.4219 L274.0625,123.2969 C274.0625,120.5781 276.0625,118.5 278.6875,118.5 C279.5625,118.5 280.1563,118.6406 281.0938,119.0781 Z "/><text fill="#000000" font-family="sans-serif" font-size="12" lengthAdjust="spacingAndGlyphs" textLength="62" x="299.25" y="127.5605">Caretaker</text><line style="stroke: #A80036; stroke-width: 1.5;" x1="196.5" x2="431.5" y1="139.4063" y2="139.4063"/><rect fill="none" height="6" style="stroke: #C82930; stroke-width: 1.0;" width="6" x="203.5" y="147.4063"/><text fill="#000000" font-family="sans-serif" font-size="11" lengthAdjust="spacingAndGlyphs" textLength="211" x="215.5" y="153.6167">states : Deque&lt;DocumentMemento&gt;</text><line style="stroke: #A80036; stroke-width: 1.5;" x1="196.5" x2="431.5" y1="160.2109" y2="160.2109"/><polygon fill="#4177AF" points="206.5,167.2109,202.5,173.2109,210.5,173.2109" style="stroke: #1963A0; stroke-width: 1.0;"/><text fill="#000000" font-family="sans-serif" font-size="11" lengthAdjust="spacingAndGlyphs" textLength="29" x="215.5" y="174.4214">add()</text><polygon fill="#4177AF" points="206.5,180.0156,202.5,186.0156,210.5,186.0156" style="stroke: #1963A0; stroke-width: 1.0;"/><text fill="#000000" font-family="sans-serif" font-size="11" lengthAdjust="spacingAndGlyphs" textLength="26" x="215.5" y="187.2261">get()</text><!--MD5=[d28e8c0fed43270809c1f227494635a6]
class in.ashwanik.pdp.memento.Document--><rect fill="#FEFECE" filter="url(#figblcwns0u4t)" height="112.0234" id="in.ashwanik.pdp.memento.Document" style="stroke: #A80036; stroke-width: 1.5;" width="186" x="38" y="276.9063"/><ellipse cx="94.75" cy="292.9063" fill="#ADD1B2" rx="11" ry="11" style="stroke: #A80036; stroke-width: 1.0;"/><path d="M97.0938,288.5781 L97.2656,288.6563 C97.4844,288.3438 97.6875,288.25 97.9844,288.25 C98.2813,288.25 98.5625,288.3906 98.7188,288.6563 C98.8125,288.8125 98.8281,288.9375 98.8281,289.375 L98.8281,290.7969 C98.8281,291.2188 98.7969,291.4063 98.6875,291.5625 C98.5156,291.7813 98.25,291.9219 97.9844,291.9219 C97.7656,291.9219 97.5313,291.8125 97.3906,291.6719 C97.25,291.5469 97.2188,291.4219 97.1563,291.0156 C97.0625,290.6094 96.8906,290.3906 96.4063,290.1094 C95.9375,289.8594 95.3281,289.7031 94.75,289.7031 C93.0156,289.7031 91.7656,291.0156 91.7656,292.7969 L91.7656,293.8906 C91.7656,295.5938 93.0625,296.6875 95.1094,296.6875 C95.875,296.6875 96.5625,296.5625 96.9844,296.2969 C97.1719,296.2031 97.1719,296.2031 97.625,295.7188 C97.8125,295.5313 98.0156,295.4531 98.2344,295.4531 C98.7031,295.4531 99.0938,295.8438 99.0938,296.2969 C99.0938,296.6875 98.7656,297.1406 98.1875,297.5469 C97.4375,298.0938 96.2813,298.3906 95.0625,298.3906 C92.1719,298.3906 90.0625,296.5 90.0625,293.9219 L90.0625,292.7969 C90.0625,290.0781 92.0625,288 94.6875,288 C95.5625,288 96.1563,288.1406 97.0938,288.5781 Z "/><text fill="#000000" font-family="sans-serif" font-size="12" lengthAdjust="spacingAndGlyphs" textLength="64" x="115.25" y="297.0605">Document</text><line style="stroke: #A80036; stroke-width: 1.5;" x1="39" x2="223" y1="308.9063" y2="308.9063"/><rect fill="none" height="6" style="stroke: #C82930; stroke-width: 1.0;" width="6" x="46" y="316.9063"/><text fill="#000000" font-family="sans-serif" font-size="11" lengthAdjust="spacingAndGlyphs" textLength="160" x="58" y="323.1167">parts : List&lt;DocumentPart&gt;</text><line style="stroke: #A80036; stroke-width: 1.5;" x1="39" x2="223" y1="329.7109" y2="329.7109"/><ellipse cx="49" cy="340.7109" fill="#84BE84" rx="3" ry="3" style="stroke: #038048; stroke-width: 1.0;"/><text fill="#000000" font-family="sans-serif" font-size="11" lengthAdjust="spacingAndGlyphs" textLength="56" x="58" y="343.9214">getParts()</text><ellipse cx="49" cy="353.5156" fill="#84BE84" rx="3" ry="3" style="stroke: #038048; stroke-width: 1.0;"/><text fill="#000000" font-family="sans-serif" font-size="11" lengthAdjust="spacingAndGlyphs" textLength="56" x="58" y="356.7261">setParts()</text><polygon fill="#4177AF" points="49,362.3203,45,368.3203,53,368.3203" style="stroke: #1963A0; stroke-width: 1.0;"/><text fill="#000000" font-family="sans-serif" font-size="11" lengthAdjust="spacingAndGlyphs" textLength="65" x="58" y="369.5308">Document()</text><polygon fill="#4177AF" points="49,375.125,45,381.125,53,381.125" style="stroke: #1963A0; stroke-width: 1.0;"/><text fill="#000000" font-family="sans-serif" font-size="11" lengthAdjust="spacingAndGlyphs" textLength="29" x="58" y="382.3354">add()</text><!--MD5=[4376fe2bb7c530b575f1aca14cc488f1]
class in.ashwanik.pdp.memento.DocumentMemento--><rect fill="#FEFECE" filter="url(#figblcwns0u4t)" height="86.4141" id="in.ashwanik.pdp.memento.DocumentMemento" style="stroke: #A80036; stroke-width: 1.5;" width="154" x="468" y="107.4063"/><ellipse cx="483" cy="123.4063" fill="#ADD1B2" rx="11" ry="11" style="stroke: #A80036; stroke-width: 1.0;"/><path d="M485.3438,119.0781 L485.5156,119.1563 C485.7344,118.8438 485.9375,118.75 486.2344,118.75 C486.5313,118.75 486.8125,118.8906 486.9688,119.1563 C487.0625,119.3125 487.0781,119.4375 487.0781,119.875 L487.0781,121.2969 C487.0781,121.7188 487.0469,121.9063 486.9375,122.0625 C486.7656,122.2813 486.5,122.4219 486.2344,122.4219 C486.0156,122.4219 485.7813,122.3125 485.6406,122.1719 C485.5,122.0469 485.4688,121.9219 485.4063,121.5156 C485.3125,121.1094 485.1406,120.8906 484.6563,120.6094 C484.1875,120.3594 483.5781,120.2031 483,120.2031 C481.2656,120.2031 480.0156,121.5156 480.0156,123.2969 L480.0156,124.3906 C480.0156,126.0938 481.3125,127.1875 483.3594,127.1875 C484.125,127.1875 484.8125,127.0625 485.2344,126.7969 C485.4219,126.7031 485.4219,126.7031 485.875,126.2188 C486.0625,126.0313 486.2656,125.9531 486.4844,125.9531 C486.9531,125.9531 487.3438,126.3438 487.3438,126.7969 C487.3438,127.1875 487.0156,127.6406 486.4375,128.0469 C485.6875,128.5938 484.5313,128.8906 483.3125,128.8906 C480.4219,128.8906 478.3125,127 478.3125,124.4219 L478.3125,123.2969 C478.3125,120.5781 480.3125,118.5 482.9375,118.5 C483.8125,118.5 484.4063,118.6406 485.3438,119.0781 Z "/><text fill="#000000" font-family="sans-serif" font-size="12" lengthAdjust="spacingAndGlyphs" textLength="122" x="497" y="127.5605">DocumentMemento</text><line style="stroke: #A80036; stroke-width: 1.5;" x1="469" x2="621" y1="139.4063" y2="139.4063"/><rect fill="none" height="6" style="stroke: #C82930; stroke-width: 1.0;" width="6" x="476" y="147.4063"/><text fill="#000000" font-family="sans-serif" font-size="11" lengthAdjust="spacingAndGlyphs" textLength="102" x="488" y="153.6167">document : String</text><line style="stroke: #A80036; stroke-width: 1.5;" x1="469" x2="621" y1="160.2109" y2="160.2109"/><ellipse cx="479" cy="171.2109" fill="#84BE84" rx="3" ry="3" style="stroke: #038048; stroke-width: 1.0;"/><text fill="#000000" font-family="sans-serif" font-size="11" lengthAdjust="spacingAndGlyphs" textLength="83" x="488" y="174.4214">getDocument()</text><polygon fill="#4177AF" points="479,180.0156,475,186.0156,483,186.0156" style="stroke: #1963A0; stroke-width: 1.0;"/><text fill="#000000" font-family="sans-serif" font-size="11" lengthAdjust="spacingAndGlyphs" textLength="117" x="488" y="187.2261">DocumentMemento()</text><!--MD5=[56a338e8fec8a6205bb62258c374a813]
class in.ashwanik.pdp.memento.DocumentPart--><rect fill="#FEFECE" filter="url(#figblcwns0u4t)" height="99.2188" id="in.ashwanik.pdp.memento.DocumentPart" style="stroke: #A80036; stroke-width: 1.5;" width="122" x="259" y="283.4063"/><ellipse cx="274" cy="299.4063" fill="#ADD1B2" rx="11" ry="11" style="stroke: #A80036; stroke-width: 1.0;"/><path d="M276.3438,295.0781 L276.5156,295.1563 C276.7344,294.8438 276.9375,294.75 277.2344,294.75 C277.5313,294.75 277.8125,294.8906 277.9688,295.1563 C278.0625,295.3125 278.0781,295.4375 278.0781,295.875 L278.0781,297.2969 C278.0781,297.7188 278.0469,297.9063 277.9375,298.0625 C277.7656,298.2813 277.5,298.4219 277.2344,298.4219 C277.0156,298.4219 276.7813,298.3125 276.6406,298.1719 C276.5,298.0469 276.4688,297.9219 276.4063,297.5156 C276.3125,297.1094 276.1406,296.8906 275.6563,296.6094 C275.1875,296.3594 274.5781,296.2031 274,296.2031 C272.2656,296.2031 271.0156,297.5156 271.0156,299.2969 L271.0156,300.3906 C271.0156,302.0938 272.3125,303.1875 274.3594,303.1875 C275.125,303.1875 275.8125,303.0625 276.2344,302.7969 C276.4219,302.7031 276.4219,302.7031 276.875,302.2188 C277.0625,302.0313 277.2656,301.9531 277.4844,301.9531 C277.9531,301.9531 278.3438,302.3438 278.3438,302.7969 C278.3438,303.1875 278.0156,303.6406 277.4375,304.0469 C276.6875,304.5938 275.5313,304.8906 274.3125,304.8906 C271.4219,304.8906 269.3125,303 269.3125,300.4219 L269.3125,299.2969 C269.3125,296.5781 271.3125,294.5 273.9375,294.5 C274.8125,294.5 275.4063,294.6406 276.3438,295.0781 Z "/><text fill="#000000" font-family="sans-serif" font-size="12" lengthAdjust="spacingAndGlyphs" textLength="90" x="288" y="303.5605">DocumentPart</text><line style="stroke: #A80036; stroke-width: 1.5;" x1="260" x2="380" y1="315.4063" y2="315.4063"/><rect fill="none" height="6" style="stroke: #C82930; stroke-width: 1.0;" width="6" x="267" y="323.4063"/><text fill="#000000" font-family="sans-serif" font-size="11" lengthAdjust="spacingAndGlyphs" textLength="67" x="279" y="329.6167">text : String</text><line style="stroke: #A80036; stroke-width: 1.5;" x1="260" x2="380" y1="336.2109" y2="336.2109"/><ellipse cx="270" cy="347.2109" fill="#84BE84" rx="3" ry="3" style="stroke: #038048; stroke-width: 1.0;"/><text fill="#000000" font-family="sans-serif" font-size="11" lengthAdjust="spacingAndGlyphs" textLength="88" x="279" y="350.4214">DocumentPart()</text><ellipse cx="270" cy="360.0156" fill="#84BE84" rx="3" ry="3" style="stroke: #038048; stroke-width: 1.0;"/><text fill="#000000" font-family="sans-serif" font-size="11" lengthAdjust="spacingAndGlyphs" textLength="50" x="279" y="363.2261">getText()</text><ellipse cx="270" cy="372.8203" fill="#84BE84" rx="3" ry="3" style="stroke: #038048; stroke-width: 1.0;"/><text fill="#000000" font-family="sans-serif" font-size="11" lengthAdjust="spacingAndGlyphs" textLength="50" x="279" y="376.0308">setText()</text><!--MD5=[8e660df86d89d317b52f21e4dce51b22]
class in.ashwanik.pdp.memento.Originator--><rect fill="#FEFECE" filter="url(#figblcwns0u4t)" height="99.2188" id="in.ashwanik.pdp.memento.Originator" style="stroke: #A80036; stroke-width: 1.5;" width="122" x="38" y="100.9063"/><ellipse cx="65.6" cy="116.9063" fill="#ADD1B2" rx="11" ry="11" style="stroke: #A80036; stroke-width: 1.0;"/><path d="M67.9438,112.5781 L68.1156,112.6563 C68.3344,112.3438 68.5375,112.25 68.8344,112.25 C69.1313,112.25 69.4125,112.3906 69.5688,112.6563 C69.6625,112.8125 69.6781,112.9375 69.6781,113.375 L69.6781,114.7969 C69.6781,115.2188 69.6469,115.4063 69.5375,115.5625 C69.3656,115.7813 69.1,115.9219 68.8344,115.9219 C68.6156,115.9219 68.3813,115.8125 68.2406,115.6719 C68.1,115.5469 68.0688,115.4219 68.0063,115.0156 C67.9125,114.6094 67.7406,114.3906 67.2563,114.1094 C66.7875,113.8594 66.1781,113.7031 65.6,113.7031 C63.8656,113.7031 62.6156,115.0156 62.6156,116.7969 L62.6156,117.8906 C62.6156,119.5938 63.9125,120.6875 65.9594,120.6875 C66.725,120.6875 67.4125,120.5625 67.8344,120.2969 C68.0219,120.2031 68.0219,120.2031 68.475,119.7188 C68.6625,119.5313 68.8656,119.4531 69.0844,119.4531 C69.5531,119.4531 69.9438,119.8438 69.9438,120.2969 C69.9438,120.6875 69.6156,121.1406 69.0375,121.5469 C68.2875,122.0938 67.1313,122.3906 65.9125,122.3906 C63.0219,122.3906 60.9125,120.5 60.9125,117.9219 L60.9125,116.7969 C60.9125,114.0781 62.9125,112 65.5375,112 C66.4125,112 67.0063,112.1406 67.9438,112.5781 Z "/><text fill="#000000" font-family="sans-serif" font-size="12" lengthAdjust="spacingAndGlyphs" textLength="62" x="82.4" y="121.0605">Originator</text><line style="stroke: #A80036; stroke-width: 1.5;" x1="39" x2="159" y1="132.9063" y2="132.9063"/><line style="stroke: #A80036; stroke-width: 1.5;" x1="39" x2="159" y1="140.9063" y2="140.9063"/><ellipse cx="49" cy="151.9063" fill="#84BE84" rx="3" ry="3" style="stroke: #038048; stroke-width: 1.0;"/><text fill="#000000" font-family="sans-serif" font-size="11" lengthAdjust="spacingAndGlyphs" textLength="96" x="58" y="155.1167">createMemento()</text><ellipse cx="49" cy="164.7109" fill="#84BE84" rx="3" ry="3" style="stroke: #038048; stroke-width: 1.0;"/><text fill="#000000" font-family="sans-serif" font-size="11" lengthAdjust="spacingAndGlyphs" textLength="56" x="58" y="167.9214">getState()</text><ellipse cx="49" cy="177.5156" fill="#84BE84" rx="3" ry="3" style="stroke: #038048; stroke-width: 1.0;"/><text fill="#000000" font-family="sans-serif" font-size="11" lengthAdjust="spacingAndGlyphs" textLength="78" x="58" y="180.7261">setMemento()</text><ellipse cx="49" cy="190.3203" fill="#84BE84" rx="3" ry="3" style="stroke: #038048; stroke-width: 1.0;"/><text fill="#000000" font-family="sans-serif" font-size="11" lengthAdjust="spacingAndGlyphs" textLength="56" x="58" y="193.5308">setState()</text><!--MD5=[aa3fc79f7fc5a401425035b3212ecb5c]
reverse link in.ashwanik.pdp.memento.Originator to in.ashwanik.pdp.memento.Document--><path d="M109.936,213.0943 C113.592,233.7133 117.641,256.5503 121.204,276.6482 " fill="none" id="in.ashwanik.pdp.memento.Originator&lt;-in.ashwanik.pdp.memento.Document" style="stroke: #A80036; stroke-width: 1.0;"/><polygon fill="#FFFFFF" points="107.66,200.2523,104.7692,206.8585,109.7554,212.0679,112.6462,205.4616,107.66,200.2523" style="stroke: #A80036; stroke-width: 1.0;"/><text fill="#000000" font-family="sans-serif" font-size="13" lengthAdjust="spacingAndGlyphs" textLength="33" x="116" y="242.9731">state</text><!--MD5=[a1d53e62106739f6fffefd66ab767d9f]
link in.ashwanik.pdp.memento.Caretaker to in.ashwanik.pdp.memento.DocumentMemento--><!--MD5=[bebfca1bdc2fbabc91334bb7e4427b41]
link in.ashwanik.pdp.memento.Caretaker to in.ashwanik.pdp.memento.DocumentPart--><!--MD5=[ef69923b25898e3bcfdd3b8167baca7d]
@startuml
title __MEMENTO__\n

  namespace in.ashwanik.pdp.memento {
    class in.ashwanik.pdp.memento.Caretaker {
        - states : Deque<DocumentMemento>
        ~ add()
        ~ get()
    }
  }
  

  namespace in.ashwanik.pdp.memento {
    class in.ashwanik.pdp.memento.Document {
        - parts : List<DocumentPart>
        + getParts()
        + setParts()
        ~ Document()
        ~ add()
    }
  }
  

  namespace in.ashwanik.pdp.memento {
    class in.ashwanik.pdp.memento.DocumentMemento {
        - document : String
        + getDocument()
        ~ DocumentMemento()
    }
  }
  

  namespace in.ashwanik.pdp.memento {
    class in.ashwanik.pdp.memento.DocumentPart {
        - text : String
        + DocumentPart()
        + getText()
        + setText()
    }
  }
  

  namespace in.ashwanik.pdp.memento {
    class in.ashwanik.pdp.memento.Originator {
        + createMemento()
        + getState()
        + setMemento()
        + setState()
    }
  }
  

  in.ashwanik.pdp.memento.Originator o- - in.ashwanik.pdp.memento.Document : state
@enduml

PlantUML version 1.2019.11(Sun Sep 22 10:02:15 UTC 2019)
(GPL source distribution)
Java Runtime: Java(TM) SE Runtime Environment
JVM: Java HotSpot(TM) 64-Bit Server VM
Java Version: 1.7.0_25-b15
Operating System: Linux
Default Encoding: UTF-8
Language: en
Country: US
--></g></svg>