<?xml version="1.0" encoding="UTF-8" standalone="no"?>
<svg xmlns="http://www.w3.org/2000/svg" xmlns:xlink="http://www.w3.org/1999/xlink" contentScriptType="application/ecmascript" contentStyleType="text/css" height="663px" preserveAspectRatio="none" style="width:311px;height:663px;" version="1.1" viewBox="0 0 311 663" width="311px" zoomAndPan="magnify"><defs><filter height="300%" id="f5c7e01vnw4kp" width="300%" x="-1" y="-1"><feGaussianBlur result="blurOut" stdDeviation="2.0"/><feColorMatrix in="blurOut" result="blurOut2" type="matrix" values="0 0 0 0 0 0 0 0 0 0 0 0 0 0 0 0 0 0 .4 0"/><feOffset dx="4.0" dy="4.0" in="blurOut2" result="blurOut3"/><feBlend in="SourceGraphic" in2="blurOut3" mode="normal"/></filter></defs><g><text fill="#000000" font-family="sans-serif" font-size="18" lengthAdjust="spacingAndGlyphs" text-decoration="underline" textLength="122" x="100.5" y="16.708">NULL OBJECT</text><text fill="#000000" font-family="sans-serif" font-size="18" lengthAdjust="spacingAndGlyphs" textLength="0" x="164.5" y="37.6611"/><!--MD5=[597200cce7aa7eef6e840bd8bdafccd7]
cluster in.ashwanik.pdp.null_object--><polygon fill="#FFFFFF" filter="url(#f5c7e01vnw4kp)" points="22,65.9063,245,65.9063,252,88.2031,289,88.2031,289,651.9063,22,651.9063,22,65.9063" style="stroke: #000000; stroke-width: 1.5;"/><line style="stroke: #000000; stroke-width: 1.5;" x1="22" x2="252" y1="88.2031" y2="88.2031"/><text fill="#000000" font-family="sans-serif" font-size="14" font-weight="bold" lengthAdjust="spacingAndGlyphs" textLength="217" x="26" y="80.9014">in.ashwanik.pdp.null_object</text><!--MD5=[fffede9abcb0e26024b120b02f53e512]
class in.ashwanik.pdp.null_object.Cache--><rect fill="#FEFECE" filter="url(#f5c7e01vnw4kp)" height="73.6094" id="in.ashwanik.pdp.null_object.Cache" style="stroke: #A80036; stroke-width: 1.5;" width="71" x="119.5" y="263.9063"/><ellipse cx="134.5" cy="279.9063" fill="#B4A7E5" rx="11" ry="11" style="stroke: #A80036; stroke-width: 1.0;"/><path d="M135.4531,276.6875 L135.4531,283.2031 L137.1719,283.2031 C137.625,283.2031 137.7656,283.2344 137.9375,283.3594 C138.1719,283.5313 138.2813,283.7813 138.2813,284.0625 C138.2813,284.625 137.9219,284.9063 137.1719,284.9063 L132.0313,284.9063 C131.625,284.9063 131.4219,284.8594 131.2656,284.7344 C131.0469,284.5781 130.9063,284.3125 130.9063,284.0625 C130.9063,283.7656 131.0625,283.4844 131.3125,283.3281 C131.4688,283.2188 131.5938,283.2031 132.0313,283.2031 L133.75,283.2031 L133.75,276.6875 L132.0313,276.6875 C131.6094,276.6875 131.4219,276.6563 131.2656,276.5469 C131.0469,276.375 130.9063,276.125 130.9063,275.8438 C130.9063,275.5625 131.0625,275.2656 131.3125,275.1094 C131.4688,275.0156 131.5938,275 132.0313,275 L137.1719,275 C137.625,275 137.7656,275.0313 137.9375,275.1406 C138.1719,275.3125 138.2813,275.5781 138.2813,275.8438 C138.2813,276.1406 138.1406,276.4219 137.875,276.5781 C137.75,276.6563 137.5625,276.6875 137.1719,276.6875 Z "/><text fill="#000000" font-family="sans-serif" font-size="12" font-style="italic" lengthAdjust="spacingAndGlyphs" textLength="39" x="148.5" y="284.0605">Cache</text><line style="stroke: #A80036; stroke-width: 1.5;" x1="120.5" x2="189.5" y1="295.9063" y2="295.9063"/><line style="stroke: #A80036; stroke-width: 1.5;" x1="120.5" x2="189.5" y1="303.9063" y2="303.9063"/><ellipse cx="130.5" cy="314.9063" fill="#84BE84" rx="3" ry="3" style="stroke: #038048; stroke-width: 1.0;"/><text fill="#000000" font-family="sans-serif" font-size="11" font-style="italic" lengthAdjust="spacingAndGlyphs" textLength="26" x="139.5" y="318.1167">get()</text><ellipse cx="130.5" cy="327.7109" fill="#84BE84" rx="3" ry="3" style="stroke: #038048; stroke-width: 1.0;"/><text fill="#000000" font-family="sans-serif" font-size="11" font-style="italic" lengthAdjust="spacingAndGlyphs" textLength="26" x="139.5" y="330.9214">put()</text><!--MD5=[954d64e1547f8d909a1be35e6f98081a]
class in.ashwanik.pdp.null_object.CacheService--><rect fill="#FEFECE" filter="url(#f5c7e01vnw4kp)" height="86.4141" id="in.ashwanik.pdp.null_object.CacheService" style="stroke: #A80036; stroke-width: 1.5;" width="116" x="97" y="100.9063"/><ellipse cx="112" cy="116.9063" fill="#ADD1B2" rx="11" ry="11" style="stroke: #A80036; stroke-width: 1.0;"/><path d="M114.3438,112.5781 L114.5156,112.6563 C114.7344,112.3438 114.9375,112.25 115.2344,112.25 C115.5313,112.25 115.8125,112.3906 115.9688,112.6563 C116.0625,112.8125 116.0781,112.9375 116.0781,113.375 L116.0781,114.7969 C116.0781,115.2188 116.0469,115.4063 115.9375,115.5625 C115.7656,115.7813 115.5,115.9219 115.2344,115.9219 C115.0156,115.9219 114.7813,115.8125 114.6406,115.6719 C114.5,115.5469 114.4688,115.4219 114.4063,115.0156 C114.3125,114.6094 114.1406,114.3906 113.6563,114.1094 C113.1875,113.8594 112.5781,113.7031 112,113.7031 C110.2656,113.7031 109.0156,115.0156 109.0156,116.7969 L109.0156,117.8906 C109.0156,119.5938 110.3125,120.6875 112.3594,120.6875 C113.125,120.6875 113.8125,120.5625 114.2344,120.2969 C114.4219,120.2031 114.4219,120.2031 114.875,119.7188 C115.0625,119.5313 115.2656,119.4531 115.4844,119.4531 C115.9531,119.4531 116.3438,119.8438 116.3438,120.2969 C116.3438,120.6875 116.0156,121.1406 115.4375,121.5469 C114.6875,122.0938 113.5313,122.3906 112.3125,122.3906 C109.4219,122.3906 107.3125,120.5 107.3125,117.9219 L107.3125,116.7969 C107.3125,114.0781 109.3125,112 111.9375,112 C112.8125,112 113.4063,112.1406 114.3438,112.5781 Z "/><text fill="#000000" font-family="sans-serif" font-size="12" lengthAdjust="spacingAndGlyphs" textLength="84" x="126" y="121.0605">CacheService</text><line style="stroke: #A80036; stroke-width: 1.5;" x1="98" x2="212" y1="132.9063" y2="132.9063"/><line style="stroke: #A80036; stroke-width: 1.5;" x1="98" x2="212" y1="140.9063" y2="140.9063"/><ellipse cx="108" cy="151.9063" fill="#84BE84" rx="3" ry="3" style="stroke: #038048; stroke-width: 1.0;"/><text fill="#000000" font-family="sans-serif" font-size="11" lengthAdjust="spacingAndGlyphs" textLength="85" x="117" y="155.1167">CacheService()</text><polygon fill="#4177AF" points="108,160.7109,104,166.7109,112,166.7109" style="stroke: #1963A0; stroke-width: 1.0;"/><text fill="#000000" font-family="sans-serif" font-size="11" lengthAdjust="spacingAndGlyphs" textLength="26" x="117" y="167.9214">get()</text><polygon fill="#4177AF" points="108,173.5156,104,179.5156,112,179.5156" style="stroke: #1963A0; stroke-width: 1.0;"/><text fill="#000000" font-family="sans-serif" font-size="11" lengthAdjust="spacingAndGlyphs" textLength="26" x="117" y="180.7261">put()</text><!--MD5=[32b7c94c00d2a0c95857a43c578cbcff]
class in.ashwanik.pdp.null_object.NullCache--><rect fill="#FEFECE" filter="url(#f5c7e01vnw4kp)" height="73.6094" id="in.ashwanik.pdp.null_object.NullCache" style="stroke: #A80036; stroke-width: 1.5;" width="94" x="38" y="404.9063"/><ellipse cx="53" cy="420.9063" fill="#ADD1B2" rx="11" ry="11" style="stroke: #A80036; stroke-width: 1.0;"/><path d="M55.3438,416.5781 L55.5156,416.6563 C55.7344,416.3438 55.9375,416.25 56.2344,416.25 C56.5313,416.25 56.8125,416.3906 56.9688,416.6563 C57.0625,416.8125 57.0781,416.9375 57.0781,417.375 L57.0781,418.7969 C57.0781,419.2188 57.0469,419.4063 56.9375,419.5625 C56.7656,419.7813 56.5,419.9219 56.2344,419.9219 C56.0156,419.9219 55.7813,419.8125 55.6406,419.6719 C55.5,419.5469 55.4688,419.4219 55.4063,419.0156 C55.3125,418.6094 55.1406,418.3906 54.6563,418.1094 C54.1875,417.8594 53.5781,417.7031 53,417.7031 C51.2656,417.7031 50.0156,419.0156 50.0156,420.7969 L50.0156,421.8906 C50.0156,423.5938 51.3125,424.6875 53.3594,424.6875 C54.125,424.6875 54.8125,424.5625 55.2344,424.2969 C55.4219,424.2031 55.4219,424.2031 55.875,423.7188 C56.0625,423.5313 56.2656,423.4531 56.4844,423.4531 C56.9531,423.4531 57.3438,423.8438 57.3438,424.2969 C57.3438,424.6875 57.0156,425.1406 56.4375,425.5469 C55.6875,426.0938 54.5313,426.3906 53.3125,426.3906 C50.4219,426.3906 48.3125,424.5 48.3125,421.9219 L48.3125,420.7969 C48.3125,418.0781 50.3125,416 52.9375,416 C53.8125,416 54.4063,416.1406 55.3438,416.5781 Z "/><text fill="#000000" font-family="sans-serif" font-size="12" lengthAdjust="spacingAndGlyphs" textLength="62" x="67" y="425.0605">NullCache</text><line style="stroke: #A80036; stroke-width: 1.5;" x1="39" x2="131" y1="436.9063" y2="436.9063"/><line style="stroke: #A80036; stroke-width: 1.5;" x1="39" x2="131" y1="444.9063" y2="444.9063"/><ellipse cx="49" cy="455.9063" fill="#84BE84" rx="3" ry="3" style="stroke: #038048; stroke-width: 1.0;"/><text fill="#000000" font-family="sans-serif" font-size="11" lengthAdjust="spacingAndGlyphs" textLength="26" x="58" y="459.1167">get()</text><ellipse cx="49" cy="468.7109" fill="#84BE84" rx="3" ry="3" style="stroke: #038048; stroke-width: 1.0;"/><text fill="#000000" font-family="sans-serif" font-size="11" lengthAdjust="spacingAndGlyphs" textLength="26" x="58" y="471.9214">put()</text><!--MD5=[331f0dfa92a02e99c3261d7abc18ef94]
class in.ashwanik.pdp.null_object.RedisCache--><rect fill="#FEFECE" filter="url(#f5c7e01vnw4kp)" height="86.4141" id="in.ashwanik.pdp.null_object.RedisCache" style="stroke: #A80036; stroke-width: 1.5;" width="105" x="167.5" y="398.9063"/><ellipse cx="182.5" cy="414.9063" fill="#ADD1B2" rx="11" ry="11" style="stroke: #A80036; stroke-width: 1.0;"/><path d="M184.8438,410.5781 L185.0156,410.6563 C185.2344,410.3438 185.4375,410.25 185.7344,410.25 C186.0313,410.25 186.3125,410.3906 186.4688,410.6563 C186.5625,410.8125 186.5781,410.9375 186.5781,411.375 L186.5781,412.7969 C186.5781,413.2188 186.5469,413.4063 186.4375,413.5625 C186.2656,413.7813 186,413.9219 185.7344,413.9219 C185.5156,413.9219 185.2813,413.8125 185.1406,413.6719 C185,413.5469 184.9688,413.4219 184.9063,413.0156 C184.8125,412.6094 184.6406,412.3906 184.1563,412.1094 C183.6875,411.8594 183.0781,411.7031 182.5,411.7031 C180.7656,411.7031 179.5156,413.0156 179.5156,414.7969 L179.5156,415.8906 C179.5156,417.5938 180.8125,418.6875 182.8594,418.6875 C183.625,418.6875 184.3125,418.5625 184.7344,418.2969 C184.9219,418.2031 184.9219,418.2031 185.375,417.7188 C185.5625,417.5313 185.7656,417.4531 185.9844,417.4531 C186.4531,417.4531 186.8438,417.8438 186.8438,418.2969 C186.8438,418.6875 186.5156,419.1406 185.9375,419.5469 C185.1875,420.0938 184.0313,420.3906 182.8125,420.3906 C179.9219,420.3906 177.8125,418.5 177.8125,415.9219 L177.8125,414.7969 C177.8125,412.0781 179.8125,410 182.4375,410 C183.3125,410 183.9063,410.1406 184.8438,410.5781 Z "/><text fill="#000000" font-family="sans-serif" font-size="12" lengthAdjust="spacingAndGlyphs" textLength="73" x="196.5" y="419.0605">RedisCache</text><line style="stroke: #A80036; stroke-width: 1.5;" x1="168.5" x2="271.5" y1="430.9063" y2="430.9063"/><line style="stroke: #A80036; stroke-width: 1.5;" x1="168.5" x2="271.5" y1="438.9063" y2="438.9063"/><ellipse cx="178.5" cy="449.9063" fill="#84BE84" rx="3" ry="3" style="stroke: #038048; stroke-width: 1.0;"/><text fill="#000000" font-family="sans-serif" font-size="11" lengthAdjust="spacingAndGlyphs" textLength="74" x="187.5" y="453.1167">RedisCache()</text><ellipse cx="178.5" cy="462.7109" fill="#84BE84" rx="3" ry="3" style="stroke: #038048; stroke-width: 1.0;"/><text fill="#000000" font-family="sans-serif" font-size="11" lengthAdjust="spacingAndGlyphs" textLength="26" x="187.5" y="465.9214">get()</text><ellipse cx="178.5" cy="475.5156" fill="#84BE84" rx="3" ry="3" style="stroke: #038048; stroke-width: 1.0;"/><text fill="#000000" font-family="sans-serif" font-size="11" lengthAdjust="spacingAndGlyphs" textLength="26" x="187.5" y="478.7261">put()</text><!--MD5=[3a8b17715075b484910b254a563e7fb5]
class in.ashwanik.pdp.null_object.RedisClient--><rect fill="#FEFECE" filter="url(#f5c7e01vnw4kp)" height="73.6094" id="in.ashwanik.pdp.null_object.RedisClient" style="stroke: #A80036; stroke-width: 1.5;" width="100" x="154" y="561.9063"/><ellipse cx="169" cy="577.9063" fill="#B4A7E5" rx="11" ry="11" style="stroke: #A80036; stroke-width: 1.0;"/><path d="M169.9531,574.6875 L169.9531,581.2031 L171.6719,581.2031 C172.125,581.2031 172.2656,581.2344 172.4375,581.3594 C172.6719,581.5313 172.7813,581.7813 172.7813,582.0625 C172.7813,582.625 172.4219,582.9063 171.6719,582.9063 L166.5313,582.9063 C166.125,582.9063 165.9219,582.8594 165.7656,582.7344 C165.5469,582.5781 165.4063,582.3125 165.4063,582.0625 C165.4063,581.7656 165.5625,581.4844 165.8125,581.3281 C165.9688,581.2188 166.0938,581.2031 166.5313,581.2031 L168.25,581.2031 L168.25,574.6875 L166.5313,574.6875 C166.1094,574.6875 165.9219,574.6563 165.7656,574.5469 C165.5469,574.375 165.4063,574.125 165.4063,573.8438 C165.4063,573.5625 165.5625,573.2656 165.8125,573.1094 C165.9688,573.0156 166.0938,573 166.5313,573 L171.6719,573 C172.125,573 172.2656,573.0313 172.4375,573.1406 C172.6719,573.3125 172.7813,573.5781 172.7813,573.8438 C172.7813,574.1406 172.6406,574.4219 172.375,574.5781 C172.25,574.6563 172.0625,574.6875 171.6719,574.6875 Z "/><text fill="#000000" font-family="sans-serif" font-size="12" font-style="italic" lengthAdjust="spacingAndGlyphs" textLength="68" x="183" y="582.0605">RedisClient</text><line style="stroke: #A80036; stroke-width: 1.5;" x1="155" x2="253" y1="593.9063" y2="593.9063"/><line style="stroke: #A80036; stroke-width: 1.5;" x1="155" x2="253" y1="601.9063" y2="601.9063"/><ellipse cx="165" cy="612.9063" fill="#84BE84" rx="3" ry="3" style="stroke: #038048; stroke-width: 1.0;"/><text fill="#000000" font-family="sans-serif" font-size="11" font-style="italic" lengthAdjust="spacingAndGlyphs" textLength="26" x="174" y="616.1167">get()</text><ellipse cx="165" cy="625.7109" fill="#84BE84" rx="3" ry="3" style="stroke: #038048; stroke-width: 1.0;"/><text fill="#000000" font-family="sans-serif" font-size="11" font-style="italic" lengthAdjust="spacingAndGlyphs" textLength="35" x="174" y="628.9214">save()</text><!--MD5=[ebb2b4ab5e8c5c3c07d1314e1e218e86]
reverse link in.ashwanik.pdp.null_object.CacheService to in.ashwanik.pdp.null_object.Cache--><path d="M155,200.3393 C155,221.3923 155,244.8153 155,263.6513 " fill="none" id="in.ashwanik.pdp.null_object.CacheService&lt;-in.ashwanik.pdp.null_object.Cache" style="stroke: #A80036; stroke-width: 1.0;"/><polygon fill="#FFFFFF" points="155,187.2602,151,193.2602,155,199.2602,159,193.2602,155,187.2602" style="stroke: #A80036; stroke-width: 1.0;"/><text fill="#000000" font-family="sans-serif" font-size="13" lengthAdjust="spacingAndGlyphs" textLength="38" x="156" y="229.9731">cache</text><!--MD5=[b3be6868feaac076248691ed341610d6]
reverse link in.ashwanik.pdp.null_object.Cache to in.ashwanik.pdp.null_object.NullCache--><path d="M127.752,356.0123 C119.58,372.2403 110.815,389.6463 103.3609,404.4463 " fill="none" id="in.ashwanik.pdp.null_object.Cache&lt;-in.ashwanik.pdp.null_object.NullCache" style="stroke: #A80036; stroke-width: 1.0; stroke-dasharray: 7.0,7.0;"/><polygon fill="none" points="121.543,352.7783,136.791,338.0643,134.047,359.0753,121.543,352.7783" style="stroke: #A80036; stroke-width: 1.0;"/><!--MD5=[6c6763e9ef0f64b5a8071528ade7df1c]
reverse link in.ashwanik.pdp.null_object.Cache to in.ashwanik.pdp.null_object.RedisCache--><path d="M180.518,356.4753 C187.092,370.5343 194.067,385.4483 200.295,398.7673 " fill="none" id="in.ashwanik.pdp.null_object.Cache&lt;-in.ashwanik.pdp.null_object.RedisCache" style="stroke: #A80036; stroke-width: 1.0; stroke-dasharray: 7.0,7.0;"/><polygon fill="none" points="174.039,359.1463,171.908,338.0643,186.721,353.2163,174.039,359.1463" style="stroke: #A80036; stroke-width: 1.0;"/><!--MD5=[63cb58d536594d19782bb284544cbaff]
reverse link in.ashwanik.pdp.null_object.RedisCache to in.ashwanik.pdp.null_object.RedisClient--><path d="M214.278,498.3393 C212.105,519.3923 209.687,542.8153 207.742,561.6513 " fill="none" id="in.ashwanik.pdp.null_object.RedisCache&lt;-in.ashwanik.pdp.null_object.RedisClient" style="stroke: #A80036; stroke-width: 1.0;"/><polygon fill="#FFFFFF" points="215.628,485.2603,211.0327,490.8175,214.3951,497.1967,218.9904,491.6395,215.628,485.2603" style="stroke: #A80036; stroke-width: 1.0;"/><text fill="#000000" font-family="sans-serif" font-size="13" lengthAdjust="spacingAndGlyphs" textLength="67" x="213" y="527.9731">redisClient</text><!--MD5=[0e76a8fe7236327a35ed7f7d88bea744]
@startuml
title __NULL OBJECT__\n

  namespace in.ashwanik.pdp.null_object {
    interface in.ashwanik.pdp.null_object.Cache {
        {abstract} + get()
        {abstract} + put()
    }
  }
  

  namespace in.ashwanik.pdp.null_object {
    class in.ashwanik.pdp.null_object.CacheService {
        + CacheService()
        ~ get()
        ~ put()
    }
  }
  

  namespace in.ashwanik.pdp.null_object {
    class in.ashwanik.pdp.null_object.NullCache {
        + get()
        + put()
    }
  }
  

  namespace in.ashwanik.pdp.null_object {
    class in.ashwanik.pdp.null_object.RedisCache {
        + RedisCache()
        + get()
        + put()
    }
  }
  

  namespace in.ashwanik.pdp.null_object {
    interface in.ashwanik.pdp.null_object.RedisClient {
        {abstract} + get()
        {abstract} + save()
    }
  }
  

  in.ashwanik.pdp.null_object.CacheService o- - in.ashwanik.pdp.null_object.Cache : cache
  in.ashwanik.pdp.null_object.NullCache .up.|> in.ashwanik.pdp.null_object.Cache
  in.ashwanik.pdp.null_object.RedisCache .up.|> in.ashwanik.pdp.null_object.Cache
  in.ashwanik.pdp.null_object.RedisCache o- - in.ashwanik.pdp.null_object.RedisClient : redisClient
@enduml

PlantUML version 1.2019.11(Sun Sep 22 10:02:15 UTC 2019)
(GPL source distribution)
Java Runtime: Java(TM) SE Runtime Environment
JVM: Java HotSpot(TM) 64-Bit Server VM
Java Version: 1.7.0_25-b15
Operating System: Linux
Default Encoding: UTF-8
Language: en
Country: US
--></g></svg>