<?xml version="1.0" encoding="UTF-8" standalone="no"?>
<svg xmlns="http://www.w3.org/2000/svg" xmlns:xlink="http://www.w3.org/1999/xlink" contentScriptType="application/ecmascript" contentStyleType="text/css" height="544px" preserveAspectRatio="none" style="width:787px;height:544px;" version="1.1" viewBox="0 0 787 544" width="787px" zoomAndPan="magnify"><defs><filter height="300%" id="f1m8igcwhf5iyi" width="300%" x="-1" y="-1"><feGaussianBlur result="blurOut" stdDeviation="2.0"/><feColorMatrix in="blurOut" result="blurOut2" type="matrix" values="0 0 0 0 0 0 0 0 0 0 0 0 0 0 0 0 0 0 .4 0"/><feOffset dx="4.0" dy="4.0" in="blurOut2" result="blurOut3"/><feBlend in="SourceGraphic" in2="blurOut3" mode="normal"/></filter></defs><g><text fill="#000000" font-family="sans-serif" font-size="18" lengthAdjust="spacingAndGlyphs" text-decoration="underline" textLength="123" x="338" y="16.708">OBJECT POOL</text><text fill="#000000" font-family="sans-serif" font-size="18" lengthAdjust="spacingAndGlyphs" textLength="0" x="402.5" y="37.6611"/><!--MD5=[fb9e457d743991d77e736cabcb0e4e77]
cluster in.ashwanik.pdp.object_pool--><polygon fill="#FFFFFF" filter="url(#f1m8igcwhf5iyi)" points="22,65.9063,251,65.9063,258,88.2031,765,88.2031,765,532.9063,22,532.9063,22,65.9063" style="stroke: #000000; stroke-width: 1.5;"/><line style="stroke: #000000; stroke-width: 1.5;" x1="22" x2="258" y1="88.2031" y2="88.2031"/><text fill="#000000" font-family="sans-serif" font-size="14" font-weight="bold" lengthAdjust="spacingAndGlyphs" textLength="223" x="26" y="80.9014">in.ashwanik.pdp.object_pool</text><!--MD5=[564793a3c08aed61bf7ca4bdef9ebcd0]
class in.ashwanik.pdp.object_pool.GameObject--><rect fill="#FEFECE" filter="url(#f1m8igcwhf5iyi)" height="163.2422" id="in.ashwanik.pdp.object_pool.GameObject" style="stroke: #A80036; stroke-width: 1.5;" width="116" x="546" y="353.9063"/><ellipse cx="564.6" cy="369.9063" fill="#ADD1B2" rx="11" ry="11" style="stroke: #A80036; stroke-width: 1.0;"/><path d="M566.9438,365.5781 L567.1156,365.6563 C567.3344,365.3438 567.5375,365.25 567.8344,365.25 C568.1313,365.25 568.4125,365.3906 568.5688,365.6563 C568.6625,365.8125 568.6781,365.9375 568.6781,366.375 L568.6781,367.7969 C568.6781,368.2188 568.6469,368.4063 568.5375,368.5625 C568.3656,368.7813 568.1,368.9219 567.8344,368.9219 C567.6156,368.9219 567.3813,368.8125 567.2406,368.6719 C567.1,368.5469 567.0688,368.4219 567.0063,368.0156 C566.9125,367.6094 566.7406,367.3906 566.2563,367.1094 C565.7875,366.8594 565.1781,366.7031 564.6,366.7031 C562.8656,366.7031 561.6156,368.0156 561.6156,369.7969 L561.6156,370.8906 C561.6156,372.5938 562.9125,373.6875 564.9594,373.6875 C565.725,373.6875 566.4125,373.5625 566.8344,373.2969 C567.0219,373.2031 567.0219,373.2031 567.475,372.7188 C567.6625,372.5313 567.8656,372.4531 568.0844,372.4531 C568.5531,372.4531 568.9438,372.8438 568.9438,373.2969 C568.9438,373.6875 568.6156,374.1406 568.0375,374.5469 C567.2875,375.0938 566.1313,375.3906 564.9125,375.3906 C562.0219,375.3906 559.9125,373.5 559.9125,370.9219 L559.9125,369.7969 C559.9125,367.0781 561.9125,365 564.5375,365 C565.4125,365 566.0063,365.1406 566.9438,365.5781 Z "/><text fill="#000000" font-family="sans-serif" font-size="12" lengthAdjust="spacingAndGlyphs" textLength="76" x="579.4" y="374.0605">GameObject</text><line style="stroke: #A80036; stroke-width: 1.5;" x1="547" x2="661" y1="385.9063" y2="385.9063"/><rect fill="none" height="6" style="stroke: #C82930; stroke-width: 1.0;" width="6" x="554" y="393.9063"/><text fill="#000000" font-family="sans-serif" font-size="11" lengthAdjust="spacingAndGlyphs" textLength="90" x="566" y="400.1167">active : boolean</text><rect fill="none" height="6" style="stroke: #C82930; stroke-width: 1.0;" width="6" x="554" y="406.7109"/><text fill="#000000" font-family="sans-serif" font-size="11" lengthAdjust="spacingAndGlyphs" textLength="78" x="566" y="412.9214">name : String</text><line style="stroke: #A80036; stroke-width: 1.5;" x1="547" x2="661" y1="419.5156" y2="419.5156"/><ellipse cx="557" cy="430.5156" fill="#84BE84" rx="3" ry="3" style="stroke: #038048; stroke-width: 1.0;"/><text fill="#000000" font-family="sans-serif" font-size="11" lengthAdjust="spacingAndGlyphs" textLength="59" x="566" y="433.7261">getName()</text><ellipse cx="557" cy="443.3203" fill="#84BE84" rx="3" ry="3" style="stroke: #038048; stroke-width: 1.0;"/><text fill="#000000" font-family="sans-serif" font-size="11" lengthAdjust="spacingAndGlyphs" textLength="51" x="566" y="446.5308">isActive()</text><ellipse cx="557" cy="456.125" fill="#84BE84" rx="3" ry="3" style="stroke: #038048; stroke-width: 1.0;"/><text fill="#000000" font-family="sans-serif" font-size="11" lengthAdjust="spacingAndGlyphs" textLength="59" x="566" y="459.3354">setActive()</text><ellipse cx="557" cy="468.9297" fill="#84BE84" rx="3" ry="3" style="stroke: #038048; stroke-width: 1.0;"/><text fill="#000000" font-family="sans-serif" font-size="11" lengthAdjust="spacingAndGlyphs" textLength="59" x="566" y="472.1401">setName()</text><polygon fill="#4177AF" points="557,477.7344,553,483.7344,561,483.7344" style="stroke: #1963A0; stroke-width: 1.0;"/><text fill="#000000" font-family="sans-serif" font-size="11" lengthAdjust="spacingAndGlyphs" textLength="78" x="566" y="484.9448">GameObject()</text><polygon fill="#4177AF" points="557,490.5391,553,496.5391,561,496.5391" style="stroke: #1963A0; stroke-width: 1.0;"/><text fill="#000000" font-family="sans-serif" font-size="11" lengthAdjust="spacingAndGlyphs" textLength="78" x="566" y="497.7495">GameObject()</text><polygon fill="#4177AF" points="557,503.3438,553,509.3438,561,509.3438" style="stroke: #1963A0; stroke-width: 1.0;"/><text fill="#000000" font-family="sans-serif" font-size="11" lengthAdjust="spacingAndGlyphs" textLength="51" x="566" y="510.5542">destroy()</text><!--MD5=[8201e7d8b189e26568a379016c586886]
class in.ashwanik.pdp.object_pool.ObjectPool--><rect fill="#FEFECE" filter="url(#f1m8igcwhf5iyi)" height="176.0469" id="in.ashwanik.pdp.object_pool.ObjectPool" style="stroke: #A80036; stroke-width: 1.5;" width="289" x="459.5" y="100.9063"/><ellipse cx="566.25" cy="116.9063" fill="#ADD1B2" rx="11" ry="11" style="stroke: #A80036; stroke-width: 1.0;"/><path d="M568.5938,112.5781 L568.7656,112.6563 C568.9844,112.3438 569.1875,112.25 569.4844,112.25 C569.7813,112.25 570.0625,112.3906 570.2188,112.6563 C570.3125,112.8125 570.3281,112.9375 570.3281,113.375 L570.3281,114.7969 C570.3281,115.2188 570.2969,115.4063 570.1875,115.5625 C570.0156,115.7813 569.75,115.9219 569.4844,115.9219 C569.2656,115.9219 569.0313,115.8125 568.8906,115.6719 C568.75,115.5469 568.7188,115.4219 568.6563,115.0156 C568.5625,114.6094 568.3906,114.3906 567.9063,114.1094 C567.4375,113.8594 566.8281,113.7031 566.25,113.7031 C564.5156,113.7031 563.2656,115.0156 563.2656,116.7969 L563.2656,117.8906 C563.2656,119.5938 564.5625,120.6875 566.6094,120.6875 C567.375,120.6875 568.0625,120.5625 568.4844,120.2969 C568.6719,120.2031 568.6719,120.2031 569.125,119.7188 C569.3125,119.5313 569.5156,119.4531 569.7344,119.4531 C570.2031,119.4531 570.5938,119.8438 570.5938,120.2969 C570.5938,120.6875 570.2656,121.1406 569.6875,121.5469 C568.9375,122.0938 567.7813,122.3906 566.5625,122.3906 C563.6719,122.3906 561.5625,120.5 561.5625,117.9219 L561.5625,116.7969 C561.5625,114.0781 563.5625,112 566.1875,112 C567.0625,112 567.6563,112.1406 568.5938,112.5781 Z "/><text fill="#000000" font-family="sans-serif" font-size="12" lengthAdjust="spacingAndGlyphs" textLength="67" x="586.75" y="121.0605">ObjectPool</text><line style="stroke: #A80036; stroke-width: 1.5;" x1="460.5" x2="747.5" y1="132.9063" y2="132.9063"/><rect fill="none" height="6" style="stroke: #C82930; stroke-width: 1.0;" width="6" x="467.5" y="140.9063"/><text fill="#000000" font-family="sans-serif" font-size="11" lengthAdjust="spacingAndGlyphs" textLength="210" x="479.5" y="147.1167">allGameObjects : List&lt;GameObject&gt;</text><rect fill="none" height="6" style="stroke: #C82930; stroke-width: 1.0;" width="6" x="467.5" y="153.7109"/><text fill="#000000" font-family="sans-serif" font-size="11" lengthAdjust="spacingAndGlyphs" textLength="263" x="479.5" y="159.9214">availableGameObjects : Deque&lt;GameObject&gt;</text><rect fill="none" height="6" style="stroke: #C82930; stroke-width: 1.0;" width="6" x="467.5" y="166.5156"/><text fill="#000000" font-family="sans-serif" font-size="11" lengthAdjust="spacingAndGlyphs" textLength="210" x="479.5" y="172.7261">initAction : Consumer&lt;GameObject&gt;</text><line style="stroke: #A80036; stroke-width: 1.5;" x1="460.5" x2="747.5" y1="179.3203" y2="179.3203"/><polygon fill="#4177AF" points="470.5,186.3203,466.5,192.3203,474.5,192.3203" style="stroke: #1963A0; stroke-width: 1.0;"/><text fill="#000000" font-family="sans-serif" font-size="11" lengthAdjust="spacingAndGlyphs" textLength="68" x="479.5" y="193.5308">ObjectPool()</text><polygon fill="#4177AF" points="470.5,199.125,466.5,205.125,474.5,205.125" style="stroke: #1963A0; stroke-width: 1.0;"/><text fill="#000000" font-family="sans-serif" font-size="11" lengthAdjust="spacingAndGlyphs" textLength="36" x="479.5" y="206.3354">clear()</text><polygon fill="#4177AF" points="470.5,211.9297,466.5,217.9297,474.5,217.9297" style="stroke: #1963A0; stroke-width: 1.0;"/><text fill="#000000" font-family="sans-serif" font-size="11" lengthAdjust="spacingAndGlyphs" textLength="51" x="479.5" y="219.1401">destroy()</text><polygon fill="#4177AF" points="470.5,224.7344,466.5,230.7344,474.5,230.7344" style="stroke: #1963A0; stroke-width: 1.0;"/><text fill="#000000" font-family="sans-serif" font-size="11" lengthAdjust="spacingAndGlyphs" textLength="38" x="479.5" y="231.9448">reset()</text><polygon fill="#4177AF" points="470.5,237.5391,466.5,243.5391,474.5,243.5391" style="stroke: #1963A0; stroke-width: 1.0;"/><text fill="#000000" font-family="sans-serif" font-size="11" lengthAdjust="spacingAndGlyphs" textLength="45" x="479.5" y="244.7495">spawn()</text><rect fill="#F24D5C" height="6" style="stroke: #C82930; stroke-width: 1.0;" width="6" x="467.5" y="251.3438"/><text fill="#000000" font-family="sans-serif" font-size="11" lengthAdjust="spacingAndGlyphs" textLength="96" x="479.5" y="257.5542">getGameObject()</text><rect fill="#F24D5C" height="6" style="stroke: #C82930; stroke-width: 1.0;" width="6" x="467.5" y="264.1484"/><text fill="#000000" font-family="sans-serif" font-size="11" lengthAdjust="spacingAndGlyphs" textLength="59" x="479.5" y="270.3589">setActive()</text><!--MD5=[8742e51898c082d7b90013ce015e4888]
class in.ashwanik.pdp.object_pool.ObjectPoolManager--><rect fill="#FEFECE" filter="url(#f1m8igcwhf5iyi)" height="163.2422" id="in.ashwanik.pdp.object_pool.ObjectPoolManager" style="stroke: #A80036; stroke-width: 1.5;" width="263" x="161.5" y="107.4063"/><ellipse cx="227.75" cy="123.4063" fill="#ADD1B2" rx="11" ry="11" style="stroke: #A80036; stroke-width: 1.0;"/><path d="M230.0938,119.0781 L230.2656,119.1563 C230.4844,118.8438 230.6875,118.75 230.9844,118.75 C231.2813,118.75 231.5625,118.8906 231.7188,119.1563 C231.8125,119.3125 231.8281,119.4375 231.8281,119.875 L231.8281,121.2969 C231.8281,121.7188 231.7969,121.9063 231.6875,122.0625 C231.5156,122.2813 231.25,122.4219 230.9844,122.4219 C230.7656,122.4219 230.5313,122.3125 230.3906,122.1719 C230.25,122.0469 230.2188,121.9219 230.1563,121.5156 C230.0625,121.1094 229.8906,120.8906 229.4063,120.6094 C228.9375,120.3594 228.3281,120.2031 227.75,120.2031 C226.0156,120.2031 224.7656,121.5156 224.7656,123.2969 L224.7656,124.3906 C224.7656,126.0938 226.0625,127.1875 228.1094,127.1875 C228.875,127.1875 229.5625,127.0625 229.9844,126.7969 C230.1719,126.7031 230.1719,126.7031 230.625,126.2188 C230.8125,126.0313 231.0156,125.9531 231.2344,125.9531 C231.7031,125.9531 232.0938,126.3438 232.0938,126.7969 C232.0938,127.1875 231.7656,127.6406 231.1875,128.0469 C230.4375,128.5938 229.2813,128.8906 228.0625,128.8906 C225.1719,128.8906 223.0625,127 223.0625,124.4219 L223.0625,123.2969 C223.0625,120.5781 225.0625,118.5 227.6875,118.5 C228.5625,118.5 229.1563,118.6406 230.0938,119.0781 Z "/><text fill="#000000" font-family="sans-serif" font-size="12" lengthAdjust="spacingAndGlyphs" textLength="122" x="248.25" y="127.5605">ObjectPoolManager</text><line style="stroke: #A80036; stroke-width: 1.5;" x1="162.5" x2="423.5" y1="139.4063" y2="139.4063"/><rect fill="none" height="6" style="stroke: #C82930; stroke-width: 1.0;" width="6" x="169.5" y="147.4063"/><text fill="#000000" font-family="sans-serif" font-size="11" lengthAdjust="spacingAndGlyphs" text-decoration="underline" textLength="169" x="181.5" y="153.6167">instance : ObjectPoolManager</text><rect fill="none" height="6" style="stroke: #C82930; stroke-width: 1.0;" width="6" x="169.5" y="160.2109"/><text fill="#000000" font-family="sans-serif" font-size="11" lengthAdjust="spacingAndGlyphs" textLength="237" x="181.5" y="166.4214">objectPools : Map&lt;PoolType, ObjectPool&gt;</text><line style="stroke: #A80036; stroke-width: 1.5;" x1="162.5" x2="423.5" y1="173.0156" y2="173.0156"/><ellipse cx="172.5" cy="184.0156" fill="#84BE84" rx="3" ry="3" style="stroke: #038048; stroke-width: 1.0;"/><text fill="#000000" font-family="sans-serif" font-size="11" lengthAdjust="spacingAndGlyphs" text-decoration="underline" textLength="74" x="181.5" y="187.2261">getInstance()</text><polygon fill="#4177AF" points="172.5,192.8203,168.5,198.8203,176.5,198.8203" style="stroke: #1963A0; stroke-width: 1.0;"/><text fill="#000000" font-family="sans-serif" font-size="11" lengthAdjust="spacingAndGlyphs" textLength="68" x="181.5" y="200.0308">createPool()</text><polygon fill="#4177AF" points="172.5,205.625,168.5,211.625,176.5,211.625" style="stroke: #1963A0; stroke-width: 1.0;"/><text fill="#000000" font-family="sans-serif" font-size="11" lengthAdjust="spacingAndGlyphs" textLength="51" x="181.5" y="212.8354">destroy()</text><polygon fill="#4177AF" points="172.5,218.4297,168.5,224.4297,176.5,224.4297" style="stroke: #1963A0; stroke-width: 1.0;"/><text fill="#000000" font-family="sans-serif" font-size="11" lengthAdjust="spacingAndGlyphs" textLength="50" x="181.5" y="225.6401">getPool()</text><polygon fill="#4177AF" points="172.5,231.2344,168.5,237.2344,176.5,237.2344" style="stroke: #1963A0; stroke-width: 1.0;"/><text fill="#000000" font-family="sans-serif" font-size="11" lengthAdjust="spacingAndGlyphs" textLength="38" x="181.5" y="238.4448">reset()</text><polygon fill="#4177AF" points="172.5,244.0391,168.5,250.0391,176.5,250.0391" style="stroke: #1963A0; stroke-width: 1.0;"/><text fill="#000000" font-family="sans-serif" font-size="11" lengthAdjust="spacingAndGlyphs" textLength="45" x="181.5" y="251.2495">spawn()</text><rect fill="#F24D5C" height="6" style="stroke: #C82930; stroke-width: 1.0;" width="6" x="169.5" y="257.8438"/><text fill="#000000" font-family="sans-serif" font-size="11" lengthAdjust="spacingAndGlyphs" textLength="117" x="181.5" y="264.0542">ObjectPoolManager()</text><!--MD5=[b4ef13905efc5c2c7ac544d6952169a8]
class in.ashwanik.pdp.object_pool.PoolType--><rect fill="#FEFECE" filter="url(#f1m8igcwhf5iyi)" height="73.6094" id="in.ashwanik.pdp.object_pool.PoolType" style="stroke: #A80036; stroke-width: 1.5;" width="88" x="38" y="151.9063"/><ellipse cx="53" cy="167.9063" fill="#EB937F" rx="11" ry="11" style="stroke: #A80036; stroke-width: 1.0;"/><path d="M51.2969,168.7813 L51.2969,171.2031 L55.6563,171.2031 L55.6563,170.3281 C55.6563,169.8438 55.6875,169.7031 55.7969,169.5469 C55.9688,169.2969 56.2344,169.1875 56.5,169.1875 C56.7813,169.1875 57.0625,169.3438 57.2344,169.5938 C57.3125,169.75 57.3438,169.8906 57.3438,170.3281 L57.3438,172.9063 L49.3438,172.9063 C48.9531,172.9063 48.7188,172.8594 48.5781,172.7344 C48.3594,172.5781 48.2188,172.3281 48.2188,172.0625 C48.2188,171.7656 48.375,171.5 48.625,171.3281 C48.7813,171.2188 48.9375,171.2031 49.3438,171.2031 L49.5938,171.2031 L49.5938,164.6875 L49.3438,164.6875 C48.9219,164.6875 48.7344,164.6563 48.5781,164.5469 C48.3594,164.375 48.2188,164.125 48.2188,163.8438 C48.2188,163.5625 48.375,163.2656 48.625,163.1094 C48.7813,163.0156 48.9063,163 49.3438,163 L56.9688,163 L56.9688,165.5469 C56.9688,166.0156 56.9375,166.1563 56.8281,166.3281 C56.6563,166.5469 56.3906,166.6875 56.125,166.6875 C55.8438,166.6875 55.5625,166.5313 55.3906,166.2813 C55.3125,166.125 55.2813,165.9531 55.2813,165.5469 L55.2813,164.6875 L51.2969,164.6875 L51.2969,167.0938 L52.75,167.0938 L52.75,166.9688 C52.75,166.5156 52.7813,166.3594 52.8906,166.1875 C53.0625,165.9688 53.3281,165.8281 53.5781,165.8281 C54.0313,165.8281 54.3438,166.1406 54.4063,166.6094 C54.4219,166.7656 54.4219,166.8125 54.4219,166.9688 L54.4219,168.8906 C54.4219,169.3438 54.3906,169.5 54.2656,169.6563 C54.1094,169.875 53.8438,170.0156 53.5938,170.0156 C53.2969,170.0156 53.0156,169.8594 52.8594,169.6094 C52.7813,169.4531 52.75,169.2969 52.75,168.8906 L52.75,168.7813 Z "/><text fill="#000000" font-family="sans-serif" font-size="12" lengthAdjust="spacingAndGlyphs" textLength="56" x="67" y="172.0605">PoolType</text><line style="stroke: #A80036; stroke-width: 1.5;" x1="39" x2="125" y1="183.9063" y2="183.9063"/><text fill="#000000" font-family="sans-serif" font-size="11" lengthAdjust="spacingAndGlyphs" textLength="31" x="44" y="198.1167">CUBE</text><text fill="#000000" font-family="sans-serif" font-size="11" lengthAdjust="spacingAndGlyphs" textLength="54" x="44" y="210.9214">CYLINDER</text><line style="stroke: #A80036; stroke-width: 1.5;" x1="39" x2="125" y1="217.5156" y2="217.5156"/><!--MD5=[6e2854b1c3037f164b9a8c782bc6fc56]
reverse link in.ashwanik.pdp.object_pool.ObjectPool to in.ashwanik.pdp.object_pool.GameObject--><path d="M604,290.1753 C604,311.3373 604,333.4063 604,353.7353 " fill="none" id="in.ashwanik.pdp.object_pool.ObjectPool&lt;-in.ashwanik.pdp.object_pool.GameObject" style="stroke: #A80036; stroke-width: 1.0;"/><polygon fill="#FFFFFF" points="604,277.1413,600,283.1413,604,289.1413,608,283.1413,604,277.1413" style="stroke: #A80036; stroke-width: 1.0;"/><text fill="#000000" font-family="sans-serif" font-size="13" lengthAdjust="spacingAndGlyphs" textLength="107" x="605" y="319.9731">poolGameObject</text><!--MD5=[fea2f1590ff42fa7c70f12d501c43e47]
@startuml
title __OBJECT POOL__\n

  namespace in.ashwanik.pdp.object_pool {
    class in.ashwanik.pdp.object_pool.GameObject {
        - active : boolean
        - name : String
        + getName()
        + isActive()
        + setActive()
        + setName()
        ~ GameObject()
        ~ GameObject()
        ~ destroy()
    }
  }
  

  namespace in.ashwanik.pdp.object_pool {
    class in.ashwanik.pdp.object_pool.ObjectPool {
        - allGameObjects : List<GameObject>
        - availableGameObjects : Deque<GameObject>
        - initAction : Consumer<GameObject>
        ~ ObjectPool()
        ~ clear()
        ~ destroy()
        ~ reset()
        ~ spawn()
        - getGameObject()
        - setActive()
    }
  }
  

  namespace in.ashwanik.pdp.object_pool {
    class in.ashwanik.pdp.object_pool.ObjectPoolManager {
        {static} - instance : ObjectPoolManager
        - objectPools : Map<PoolType, ObjectPool>
        {static} + getInstance()
        ~ createPool()
        ~ destroy()
        ~ getPool()
        ~ reset()
        ~ spawn()
        - ObjectPoolManager()
    }
  }
  

  namespace in.ashwanik.pdp.object_pool {
    enum PoolType {
      CUBE
      CYLINDER
    }
  }
  

  in.ashwanik.pdp.object_pool.ObjectPool o- - in.ashwanik.pdp.object_pool.GameObject : poolGameObject
@enduml

PlantUML version 1.2019.11(Sun Sep 22 10:02:15 UTC 2019)
(GPL source distribution)
Java Runtime: Java(TM) SE Runtime Environment
JVM: Java HotSpot(TM) 64-Bit Server VM
Java Version: 1.7.0_25-b15
Operating System: Linux
Default Encoding: UTF-8
Language: en
Country: US
--></g></svg>