<?xml version="1.0" encoding="UTF-8" standalone="no"?>
<svg xmlns="http://www.w3.org/2000/svg" xmlns:xlink="http://www.w3.org/1999/xlink" contentScriptType="application/ecmascript" contentStyleType="text/css" height="416px" preserveAspectRatio="none" style="width:1028px;height:416px;" version="1.1" viewBox="0 0 1028 416" width="1028px" zoomAndPan="magnify"><defs><filter height="300%" id="f14rlb7an9r3f8" width="300%" x="-1" y="-1"><feGaussianBlur result="blurOut" stdDeviation="2.0"/><feColorMatrix in="blurOut" result="blurOut2" type="matrix" values="0 0 0 0 0 0 0 0 0 0 0 0 0 0 0 0 0 0 .4 0"/><feOffset dx="4.0" dy="4.0" in="blurOut2" result="blurOut3"/><feBlend in="SourceGraphic" in2="blurOut3" mode="normal"/></filter></defs><g><text fill="#000000" font-family="sans-serif" font-size="18" lengthAdjust="spacingAndGlyphs" text-decoration="underline" textLength="97" x="469.5" y="16.708">OBSERVER</text><text fill="#000000" font-family="sans-serif" font-size="18" lengthAdjust="spacingAndGlyphs" textLength="0" x="521" y="37.6611"/><!--cluster in.ashwanik.pdp.observer--><polygon fill="#FFFFFF" filter="url(#f14rlb7an9r3f8)" points="22,65.9063,233,65.9063,240,88.2031,962,88.2031,962,404.9063,22,404.9063,22,65.9063" style="stroke: #000000; stroke-width: 1.5;"/><line style="stroke: #000000; stroke-width: 1.5;" x1="22" x2="240" y1="88.2031" y2="88.2031"/><text fill="#000000" font-family="sans-serif" font-size="14" font-weight="bold" lengthAdjust="spacingAndGlyphs" textLength="205" x="26" y="80.9014">in.ashwanik.pdp.observer</text><!--class in.ashwanik.pdp.observer.Achievement--><rect fill="#FEFECE" filter="url(#f14rlb7an9r3f8)" height="86.4141" id="in.ashwanik.pdp.observer.Achievement" style="stroke: #A80036; stroke-width: 1.5;" width="112" x="582" y="113.9063"/><ellipse cx="597" cy="129.9063" fill="#ADD1B2" rx="11" ry="11" style="stroke: #A80036; stroke-width: 1.0;"/><path d="M599.3438,125.5781 L599.5156,125.6563 C599.7344,125.3438 599.9375,125.25 600.2344,125.25 C600.5313,125.25 600.8125,125.3906 600.9688,125.6563 C601.0625,125.8125 601.0781,125.9375 601.0781,126.375 L601.0781,127.7969 C601.0781,128.2188 601.0469,128.4063 600.9375,128.5625 C600.7656,128.7813 600.5,128.9219 600.2344,128.9219 C600.0156,128.9219 599.7813,128.8125 599.6406,128.6719 C599.5,128.5469 599.4688,128.4219 599.4063,128.0156 C599.3125,127.6094 599.1406,127.3906 598.6563,127.1094 C598.1875,126.8594 597.5781,126.7031 597,126.7031 C595.2656,126.7031 594.0156,128.0156 594.0156,129.7969 L594.0156,130.8906 C594.0156,132.5938 595.3125,133.6875 597.3594,133.6875 C598.125,133.6875 598.8125,133.5625 599.2344,133.2969 C599.4219,133.2031 599.4219,133.2031 599.875,132.7188 C600.0625,132.5313 600.2656,132.4531 600.4844,132.4531 C600.9531,132.4531 601.3438,132.8438 601.3438,133.2969 C601.3438,133.6875 601.0156,134.1406 600.4375,134.5469 C599.6875,135.0938 598.5313,135.3906 597.3125,135.3906 C594.4219,135.3906 592.3125,133.5 592.3125,130.9219 L592.3125,129.7969 C592.3125,127.0781 594.3125,125 596.9375,125 C597.8125,125 598.4063,125.1406 599.3438,125.5781 Z "/><text fill="#000000" font-family="sans-serif" font-size="12" lengthAdjust="spacingAndGlyphs" textLength="80" x="611" y="134.0605">Achievement</text><line style="stroke: #A80036; stroke-width: 1.5;" x1="583" x2="693" y1="145.9063" y2="145.9063"/><rect fill="none" height="6" style="stroke: #C82930; stroke-width: 1.0;" width="6" x="590" y="153.9063"/><text fill="#000000" font-family="sans-serif" font-size="11" lengthAdjust="spacingAndGlyphs" textLength="78" x="602" y="160.1167">name : String</text><line style="stroke: #A80036; stroke-width: 1.5;" x1="583" x2="693" y1="166.7109" y2="166.7109"/><ellipse cx="593" cy="177.7109" fill="#84BE84" rx="3" ry="3" style="stroke: #038048; stroke-width: 1.0;"/><text fill="#000000" font-family="sans-serif" font-size="11" lengthAdjust="spacingAndGlyphs" textLength="80" x="602" y="180.9214">Achievement()</text><ellipse cx="593" cy="190.5156" fill="#84BE84" rx="3" ry="3" style="stroke: #038048; stroke-width: 1.0;"/><text fill="#000000" font-family="sans-serif" font-size="11" lengthAdjust="spacingAndGlyphs" textLength="59" x="602" y="193.7261">getName()</text><!--class in.ashwanik.pdp.observer.Achievements--><rect fill="#FEFECE" filter="url(#f14rlb7an9r3f8)" height="99.2188" id="in.ashwanik.pdp.observer.Achievements" style="stroke: #A80036; stroke-width: 1.5;" width="240" x="408" y="289.9063"/><ellipse cx="480.25" cy="305.9063" fill="#ADD1B2" rx="11" ry="11" style="stroke: #A80036; stroke-width: 1.0;"/><path d="M482.5938,301.5781 L482.7656,301.6563 C482.9844,301.3438 483.1875,301.25 483.4844,301.25 C483.7813,301.25 484.0625,301.3906 484.2188,301.6563 C484.3125,301.8125 484.3281,301.9375 484.3281,302.375 L484.3281,303.7969 C484.3281,304.2188 484.2969,304.4063 484.1875,304.5625 C484.0156,304.7813 483.75,304.9219 483.4844,304.9219 C483.2656,304.9219 483.0313,304.8125 482.8906,304.6719 C482.75,304.5469 482.7188,304.4219 482.6563,304.0156 C482.5625,303.6094 482.3906,303.3906 481.9063,303.1094 C481.4375,302.8594 480.8281,302.7031 480.25,302.7031 C478.5156,302.7031 477.2656,304.0156 477.2656,305.7969 L477.2656,306.8906 C477.2656,308.5938 478.5625,309.6875 480.6094,309.6875 C481.375,309.6875 482.0625,309.5625 482.4844,309.2969 C482.6719,309.2031 482.6719,309.2031 483.125,308.7188 C483.3125,308.5313 483.5156,308.4531 483.7344,308.4531 C484.2031,308.4531 484.5938,308.8438 484.5938,309.2969 C484.5938,309.6875 484.2656,310.1406 483.6875,310.5469 C482.9375,311.0938 481.7813,311.3906 480.5625,311.3906 C477.6719,311.3906 475.5625,309.5 475.5625,306.9219 L475.5625,305.7969 C475.5625,303.0781 477.5625,301 480.1875,301 C481.0625,301 481.6563,301.1406 482.5938,301.5781 Z "/><text fill="#000000" font-family="sans-serif" font-size="12" lengthAdjust="spacingAndGlyphs" textLength="87" x="500.75" y="310.0605">Achievements</text><line style="stroke: #A80036; stroke-width: 1.5;" x1="409" x2="647" y1="321.9063" y2="321.9063"/><rect fill="none" height="6" style="stroke: #C82930; stroke-width: 1.0;" width="6" x="416" y="329.9063"/><text fill="#000000" font-family="sans-serif" font-size="11" lengthAdjust="spacingAndGlyphs" textLength="214" x="428" y="336.1167">achievementList : List&lt;Achievement&gt;</text><line style="stroke: #A80036; stroke-width: 1.5;" x1="409" x2="647" y1="342.7109" y2="342.7109"/><ellipse cx="419" cy="353.7109" fill="#84BE84" rx="3" ry="3" style="stroke: #038048; stroke-width: 1.0;"/><text fill="#000000" font-family="sans-serif" font-size="11" lengthAdjust="spacingAndGlyphs" textLength="87" x="428" y="356.9214">Achievements()</text><ellipse cx="419" cy="366.5156" fill="#84BE84" rx="3" ry="3" style="stroke: #038048; stroke-width: 1.0;"/><text fill="#000000" font-family="sans-serif" font-size="11" lengthAdjust="spacingAndGlyphs" textLength="118" x="428" y="369.7261">getAchievementList()</text><ellipse cx="419" cy="379.3203" fill="#84BE84" rx="3" ry="3" style="stroke: #038048; stroke-width: 1.0;"/><text fill="#000000" font-family="sans-serif" font-size="11" lengthAdjust="spacingAndGlyphs" textLength="54" x="428" y="382.5308">onNotify()</text><!--class in.ashwanik.pdp.observer.Event--><rect fill="#FEFECE" filter="url(#f14rlb7an9r3f8)" height="73.6094" id="in.ashwanik.pdp.observer.Event" style="stroke: #A80036; stroke-width: 1.5;" width="96" x="850" y="119.9063"/><ellipse cx="878.05" cy="135.9063" fill="#ADD1B2" rx="11" ry="11" style="stroke: #A80036; stroke-width: 1.0;"/><path d="M880.3938,131.5781 L880.5656,131.6563 C880.7844,131.3438 880.9875,131.25 881.2844,131.25 C881.5813,131.25 881.8625,131.3906 882.0188,131.6563 C882.1125,131.8125 882.1281,131.9375 882.1281,132.375 L882.1281,133.7969 C882.1281,134.2188 882.0969,134.4063 881.9875,134.5625 C881.8156,134.7813 881.55,134.9219 881.2844,134.9219 C881.0656,134.9219 880.8313,134.8125 880.6906,134.6719 C880.55,134.5469 880.5188,134.4219 880.4563,134.0156 C880.3625,133.6094 880.1906,133.3906 879.7063,133.1094 C879.2375,132.8594 878.6281,132.7031 878.05,132.7031 C876.3156,132.7031 875.0656,134.0156 875.0656,135.7969 L875.0656,136.8906 C875.0656,138.5938 876.3625,139.6875 878.4094,139.6875 C879.175,139.6875 879.8625,139.5625 880.2844,139.2969 C880.4719,139.2031 880.4719,139.2031 880.925,138.7188 C881.1125,138.5313 881.3156,138.4531 881.5344,138.4531 C882.0031,138.4531 882.3938,138.8438 882.3938,139.2969 C882.3938,139.6875 882.0656,140.1406 881.4875,140.5469 C880.7375,141.0938 879.5813,141.3906 878.3625,141.3906 C875.4719,141.3906 873.3625,139.5 873.3625,136.9219 L873.3625,135.7969 C873.3625,133.0781 875.3625,131 877.9875,131 C878.8625,131 879.4563,131.1406 880.3938,131.5781 Z "/><text fill="#000000" font-family="sans-serif" font-size="12" lengthAdjust="spacingAndGlyphs" textLength="35" x="894.95" y="140.0605">Event</text><line style="stroke: #A80036; stroke-width: 1.5;" x1="851" x2="945" y1="151.9063" y2="151.9063"/><line style="stroke: #A80036; stroke-width: 1.5;" x1="851" x2="945" y1="159.9063" y2="159.9063"/><ellipse cx="861" cy="170.9063" fill="#84BE84" rx="3" ry="3" style="stroke: #038048; stroke-width: 1.0;"/><text fill="#000000" font-family="sans-serif" font-size="11" lengthAdjust="spacingAndGlyphs" textLength="39" x="870" y="174.1167">Event()</text><ellipse cx="861" cy="183.7109" fill="#84BE84" rx="3" ry="3" style="stroke: #038048; stroke-width: 1.0;"/><text fill="#000000" font-family="sans-serif" font-size="11" lengthAdjust="spacingAndGlyphs" textLength="70" x="870" y="186.9214">getPayload()</text><!--class in.ashwanik.pdp.observer.Game--><rect fill="#FEFECE" filter="url(#f14rlb7an9r3f8)" height="112.0234" id="in.ashwanik.pdp.observer.Game" style="stroke: #A80036; stroke-width: 1.5;" width="147" x="399.5" y="100.9063"/><ellipse cx="450.75" cy="116.9063" fill="#ADD1B2" rx="11" ry="11" style="stroke: #A80036; stroke-width: 1.0;"/><path d="M453.0938,112.5781 L453.2656,112.6563 C453.4844,112.3438 453.6875,112.25 453.9844,112.25 C454.2813,112.25 454.5625,112.3906 454.7188,112.6563 C454.8125,112.8125 454.8281,112.9375 454.8281,113.375 L454.8281,114.7969 C454.8281,115.2188 454.7969,115.4063 454.6875,115.5625 C454.5156,115.7813 454.25,115.9219 453.9844,115.9219 C453.7656,115.9219 453.5313,115.8125 453.3906,115.6719 C453.25,115.5469 453.2188,115.4219 453.1563,115.0156 C453.0625,114.6094 452.8906,114.3906 452.4063,114.1094 C451.9375,113.8594 451.3281,113.7031 450.75,113.7031 C449.0156,113.7031 447.7656,115.0156 447.7656,116.7969 L447.7656,117.8906 C447.7656,119.5938 449.0625,120.6875 451.1094,120.6875 C451.875,120.6875 452.5625,120.5625 452.9844,120.2969 C453.1719,120.2031 453.1719,120.2031 453.625,119.7188 C453.8125,119.5313 454.0156,119.4531 454.2344,119.4531 C454.7031,119.4531 455.0938,119.8438 455.0938,120.2969 C455.0938,120.6875 454.7656,121.1406 454.1875,121.5469 C453.4375,122.0938 452.2813,122.3906 451.0625,122.3906 C448.1719,122.3906 446.0625,120.5 446.0625,117.9219 L446.0625,116.7969 C446.0625,114.0781 448.0625,112 450.6875,112 C451.5625,112 452.1563,112.1406 453.0938,112.5781 Z "/><text fill="#000000" font-family="sans-serif" font-size="12" lengthAdjust="spacingAndGlyphs" textLength="36" x="471.25" y="121.0605">Game</text><line style="stroke: #A80036; stroke-width: 1.5;" x1="400.5" x2="545.5" y1="132.9063" y2="132.9063"/><line style="stroke: #A80036; stroke-width: 1.5;" x1="400.5" x2="545.5" y1="140.9063" y2="140.9063"/><ellipse cx="410.5" cy="151.9063" fill="#84BE84" rx="3" ry="3" style="stroke: #038048; stroke-width: 1.0;"/><text fill="#000000" font-family="sans-serif" font-size="11" lengthAdjust="spacingAndGlyphs" textLength="42" x="419.5" y="155.1167">Game()</text><ellipse cx="410.5" cy="164.7109" fill="#84BE84" rx="3" ry="3" style="stroke: #038048; stroke-width: 1.0;"/><text fill="#000000" font-family="sans-serif" font-size="11" lengthAdjust="spacingAndGlyphs" textLength="105" x="419.5" y="167.9214">getAchievements()</text><ellipse cx="410.5" cy="177.5156" fill="#84BE84" rx="3" ry="3" style="stroke: #038048; stroke-width: 1.0;"/><text fill="#000000" font-family="sans-serif" font-size="11" lengthAdjust="spacingAndGlyphs" textLength="121" x="419.5" y="180.7261">getGameEntityStats()</text><ellipse cx="410.5" cy="190.3203" fill="#84BE84" rx="3" ry="3" style="stroke: #038048; stroke-width: 1.0;"/><text fill="#000000" font-family="sans-serif" font-size="11" lengthAdjust="spacingAndGlyphs" textLength="64" x="419.5" y="193.5308">getScorer()</text><ellipse cx="410.5" cy="203.125" fill="#84BE84" rx="3" ry="3" style="stroke: #038048; stroke-width: 1.0;"/><text fill="#000000" font-family="sans-serif" font-size="11" lengthAdjust="spacingAndGlyphs" textLength="31" x="419.5" y="206.3354">play()</text><!--class in.ashwanik.pdp.observer.GameEntity--><rect fill="#FEFECE" filter="url(#f14rlb7an9r3f8)" height="112.0234" id="in.ashwanik.pdp.observer.GameEntity" style="stroke: #A80036; stroke-width: 1.5;" width="104" x="38" y="100.9063"/><ellipse cx="53.45" cy="116.9063" fill="#ADD1B2" rx="11" ry="11" style="stroke: #A80036; stroke-width: 1.0;"/><path d="M55.7938,112.5781 L55.9656,112.6563 C56.1844,112.3438 56.3875,112.25 56.6844,112.25 C56.9813,112.25 57.2625,112.3906 57.4188,112.6563 C57.5125,112.8125 57.5281,112.9375 57.5281,113.375 L57.5281,114.7969 C57.5281,115.2188 57.4969,115.4063 57.3875,115.5625 C57.2156,115.7813 56.95,115.9219 56.6844,115.9219 C56.4656,115.9219 56.2313,115.8125 56.0906,115.6719 C55.95,115.5469 55.9188,115.4219 55.8563,115.0156 C55.7625,114.6094 55.5906,114.3906 55.1063,114.1094 C54.6375,113.8594 54.0281,113.7031 53.45,113.7031 C51.7156,113.7031 50.4656,115.0156 50.4656,116.7969 L50.4656,117.8906 C50.4656,119.5938 51.7625,120.6875 53.8094,120.6875 C54.575,120.6875 55.2625,120.5625 55.6844,120.2969 C55.8719,120.2031 55.8719,120.2031 56.325,119.7188 C56.5125,119.5313 56.7156,119.4531 56.9344,119.4531 C57.4031,119.4531 57.7938,119.8438 57.7938,120.2969 C57.7938,120.6875 57.4656,121.1406 56.8875,121.5469 C56.1375,122.0938 54.9813,122.3906 53.7625,122.3906 C50.8719,122.3906 48.7625,120.5 48.7625,117.9219 L48.7625,116.7969 C48.7625,114.0781 50.7625,112 53.3875,112 C54.2625,112 54.8563,112.1406 55.7938,112.5781 Z "/><text fill="#000000" font-family="sans-serif" font-size="12" lengthAdjust="spacingAndGlyphs" textLength="71" x="67.55" y="121.0605">GameEntity</text><line style="stroke: #A80036; stroke-width: 1.5;" x1="39" x2="141" y1="132.9063" y2="132.9063"/><rect fill="none" height="6" style="stroke: #C82930; stroke-width: 1.0;" width="6" x="46" y="140.9063"/><text fill="#000000" font-family="sans-serif" font-size="11" lengthAdjust="spacingAndGlyphs" textLength="69" x="58" y="147.1167">killPoint : int</text><rect fill="none" height="6" style="stroke: #C82930; stroke-width: 1.0;" width="6" x="46" y="153.7109"/><text fill="#000000" font-family="sans-serif" font-size="11" lengthAdjust="spacingAndGlyphs" textLength="78" x="58" y="159.9214">name : String</text><line style="stroke: #A80036; stroke-width: 1.5;" x1="39" x2="141" y1="166.5156" y2="166.5156"/><ellipse cx="49" cy="177.5156" fill="#84BE84" rx="3" ry="3" style="stroke: #038048; stroke-width: 1.0;"/><text fill="#000000" font-family="sans-serif" font-size="11" lengthAdjust="spacingAndGlyphs" textLength="73" x="58" y="180.7261">GameEntity()</text><ellipse cx="49" cy="190.3203" fill="#84BE84" rx="3" ry="3" style="stroke: #038048; stroke-width: 1.0;"/><text fill="#000000" font-family="sans-serif" font-size="11" lengthAdjust="spacingAndGlyphs" textLength="70" x="58" y="193.5308">getKillPoint()</text><ellipse cx="49" cy="203.125" fill="#84BE84" rx="3" ry="3" style="stroke: #038048; stroke-width: 1.0;"/><text fill="#000000" font-family="sans-serif" font-size="11" lengthAdjust="spacingAndGlyphs" textLength="59" x="58" y="206.3354">getName()</text><!--class in.ashwanik.pdp.observer.GameEntityStats--><rect fill="#FEFECE" filter="url(#f14rlb7an9r3f8)" height="60.8047" id="in.ashwanik.pdp.observer.GameEntityStats" style="stroke: #A80036; stroke-width: 1.5;" width="136" x="231" y="308.9063"/><ellipse cx="246" cy="324.9063" fill="#ADD1B2" rx="11" ry="11" style="stroke: #A80036; stroke-width: 1.0;"/><path d="M248.3438,320.5781 L248.5156,320.6563 C248.7344,320.3438 248.9375,320.25 249.2344,320.25 C249.5313,320.25 249.8125,320.3906 249.9688,320.6563 C250.0625,320.8125 250.0781,320.9375 250.0781,321.375 L250.0781,322.7969 C250.0781,323.2188 250.0469,323.4063 249.9375,323.5625 C249.7656,323.7813 249.5,323.9219 249.2344,323.9219 C249.0156,323.9219 248.7813,323.8125 248.6406,323.6719 C248.5,323.5469 248.4688,323.4219 248.4063,323.0156 C248.3125,322.6094 248.1406,322.3906 247.6563,322.1094 C247.1875,321.8594 246.5781,321.7031 246,321.7031 C244.2656,321.7031 243.0156,323.0156 243.0156,324.7969 L243.0156,325.8906 C243.0156,327.5938 244.3125,328.6875 246.3594,328.6875 C247.125,328.6875 247.8125,328.5625 248.2344,328.2969 C248.4219,328.2031 248.4219,328.2031 248.875,327.7188 C249.0625,327.5313 249.2656,327.4531 249.4844,327.4531 C249.9531,327.4531 250.3438,327.8438 250.3438,328.2969 C250.3438,328.6875 250.0156,329.1406 249.4375,329.5469 C248.6875,330.0938 247.5313,330.3906 246.3125,330.3906 C243.4219,330.3906 241.3125,328.5 241.3125,325.9219 L241.3125,324.7969 C241.3125,322.0781 243.3125,320 245.9375,320 C246.8125,320 247.4063,320.1406 248.3438,320.5781 Z "/><text fill="#000000" font-family="sans-serif" font-size="12" lengthAdjust="spacingAndGlyphs" textLength="104" x="260" y="329.0605">GameEntityStats</text><line style="stroke: #A80036; stroke-width: 1.5;" x1="232" x2="366" y1="340.9063" y2="340.9063"/><line style="stroke: #A80036; stroke-width: 1.5;" x1="232" x2="366" y1="348.9063" y2="348.9063"/><ellipse cx="242" cy="359.9063" fill="#84BE84" rx="3" ry="3" style="stroke: #038048; stroke-width: 1.0;"/><text fill="#000000" font-family="sans-serif" font-size="11" lengthAdjust="spacingAndGlyphs" textLength="77" x="251" y="363.1167">updateStats()</text><!--class in.ashwanik.pdp.observer.Observer--><rect fill="#FEFECE" filter="url(#f14rlb7an9r3f8)" height="60.8047" id="in.ashwanik.pdp.observer.Observer" style="stroke: #A80036; stroke-width: 1.5;" width="86" x="729" y="126.4063"/><ellipse cx="744" cy="142.4063" fill="#B4A7E5" rx="11" ry="11" style="stroke: #A80036; stroke-width: 1.0;"/><path d="M744.9531,139.1875 L744.9531,145.7031 L746.6719,145.7031 C747.125,145.7031 747.2656,145.7344 747.4375,145.8594 C747.6719,146.0313 747.7813,146.2813 747.7813,146.5625 C747.7813,147.125 747.4219,147.4063 746.6719,147.4063 L741.5313,147.4063 C741.125,147.4063 740.9219,147.3594 740.7656,147.2344 C740.5469,147.0781 740.4063,146.8125 740.4063,146.5625 C740.4063,146.2656 740.5625,145.9844 740.8125,145.8281 C740.9688,145.7188 741.0938,145.7031 741.5313,145.7031 L743.25,145.7031 L743.25,139.1875 L741.5313,139.1875 C741.1094,139.1875 740.9219,139.1563 740.7656,139.0469 C740.5469,138.875 740.4063,138.625 740.4063,138.3438 C740.4063,138.0625 740.5625,137.7656 740.8125,137.6094 C740.9688,137.5156 741.0938,137.5 741.5313,137.5 L746.6719,137.5 C747.125,137.5 747.2656,137.5313 747.4375,137.6406 C747.6719,137.8125 747.7813,138.0781 747.7813,138.3438 C747.7813,138.6406 747.6406,138.9219 747.375,139.0781 C747.25,139.1563 747.0625,139.1875 746.6719,139.1875 Z "/><text fill="#000000" font-family="sans-serif" font-size="12" font-style="italic" lengthAdjust="spacingAndGlyphs" textLength="54" x="758" y="146.5605">Observer</text><line style="stroke: #A80036; stroke-width: 1.5;" x1="730" x2="814" y1="158.4063" y2="158.4063"/><line style="stroke: #A80036; stroke-width: 1.5;" x1="730" x2="814" y1="166.4063" y2="166.4063"/><ellipse cx="740" cy="177.4063" fill="#84BE84" rx="3" ry="3" style="stroke: #038048; stroke-width: 1.0;"/><text fill="#000000" font-family="sans-serif" font-size="11" font-style="italic" lengthAdjust="spacingAndGlyphs" textLength="55" x="749" y="180.6167">onNotify()</text><!--class in.ashwanik.pdp.observer.Scorer--><rect fill="#FEFECE" filter="url(#f14rlb7an9r3f8)" height="86.4141" id="in.ashwanik.pdp.observer.Scorer" style="stroke: #A80036; stroke-width: 1.5;" width="85" x="686.5" y="296.4063"/><ellipse cx="706.9" cy="312.4063" fill="#ADD1B2" rx="11" ry="11" style="stroke: #A80036; stroke-width: 1.0;"/><path d="M709.2438,308.0781 L709.4156,308.1563 C709.6344,307.8438 709.8375,307.75 710.1344,307.75 C710.4313,307.75 710.7125,307.8906 710.8688,308.1563 C710.9625,308.3125 710.9781,308.4375 710.9781,308.875 L710.9781,310.2969 C710.9781,310.7188 710.9469,310.9063 710.8375,311.0625 C710.6656,311.2813 710.4,311.4219 710.1344,311.4219 C709.9156,311.4219 709.6813,311.3125 709.5406,311.1719 C709.4,311.0469 709.3688,310.9219 709.3063,310.5156 C709.2125,310.1094 709.0406,309.8906 708.5563,309.6094 C708.0875,309.3594 707.4781,309.2031 706.9,309.2031 C705.1656,309.2031 703.9156,310.5156 703.9156,312.2969 L703.9156,313.3906 C703.9156,315.0938 705.2125,316.1875 707.2594,316.1875 C708.025,316.1875 708.7125,316.0625 709.1344,315.7969 C709.3219,315.7031 709.3219,315.7031 709.775,315.2188 C709.9625,315.0313 710.1656,314.9531 710.3844,314.9531 C710.8531,314.9531 711.2438,315.3438 711.2438,315.7969 C711.2438,316.1875 710.9156,316.6406 710.3375,317.0469 C709.5875,317.5938 708.4313,317.8906 707.2125,317.8906 C704.3219,317.8906 702.2125,316 702.2125,313.4219 L702.2125,312.2969 C702.2125,309.5781 704.2125,307.5 706.8375,307.5 C707.7125,307.5 708.3063,307.6406 709.2438,308.0781 Z "/><text fill="#000000" font-family="sans-serif" font-size="12" lengthAdjust="spacingAndGlyphs" textLength="41" x="722.1" y="316.5605">Scorer</text><line style="stroke: #A80036; stroke-width: 1.5;" x1="687.5" x2="770.5" y1="328.4063" y2="328.4063"/><rect fill="none" height="6" style="stroke: #C82930; stroke-width: 1.0;" width="6" x="694.5" y="336.4063"/><text fill="#000000" font-family="sans-serif" font-size="11" lengthAdjust="spacingAndGlyphs" textLength="58" x="706.5" y="342.6167">score : int</text><line style="stroke: #A80036; stroke-width: 1.5;" x1="687.5" x2="770.5" y1="349.2109" y2="349.2109"/><ellipse cx="697.5" cy="360.2109" fill="#84BE84" rx="3" ry="3" style="stroke: #038048; stroke-width: 1.0;"/><text fill="#000000" font-family="sans-serif" font-size="11" lengthAdjust="spacingAndGlyphs" textLength="59" x="706.5" y="363.4214">getScore()</text><ellipse cx="697.5" cy="373.0156" fill="#84BE84" rx="3" ry="3" style="stroke: #038048; stroke-width: 1.0;"/><text fill="#000000" font-family="sans-serif" font-size="11" lengthAdjust="spacingAndGlyphs" textLength="54" x="706.5" y="376.2261">onNotify()</text><!--class in.ashwanik.pdp.observer.Subject--><rect fill="#FEFECE" filter="url(#f14rlb7an9r3f8)" height="112.0234" id="in.ashwanik.pdp.observer.Subject" style="stroke: #A80036; stroke-width: 1.5;" width="187" x="177.5" y="100.9063"/><ellipse cx="243.25" cy="116.9063" fill="#ADD1B2" rx="11" ry="11" style="stroke: #A80036; stroke-width: 1.0;"/><path d="M245.5938,112.5781 L245.7656,112.6563 C245.9844,112.3438 246.1875,112.25 246.4844,112.25 C246.7813,112.25 247.0625,112.3906 247.2188,112.6563 C247.3125,112.8125 247.3281,112.9375 247.3281,113.375 L247.3281,114.7969 C247.3281,115.2188 247.2969,115.4063 247.1875,115.5625 C247.0156,115.7813 246.75,115.9219 246.4844,115.9219 C246.2656,115.9219 246.0313,115.8125 245.8906,115.6719 C245.75,115.5469 245.7188,115.4219 245.6563,115.0156 C245.5625,114.6094 245.3906,114.3906 244.9063,114.1094 C244.4375,113.8594 243.8281,113.7031 243.25,113.7031 C241.5156,113.7031 240.2656,115.0156 240.2656,116.7969 L240.2656,117.8906 C240.2656,119.5938 241.5625,120.6875 243.6094,120.6875 C244.375,120.6875 245.0625,120.5625 245.4844,120.2969 C245.6719,120.2031 245.6719,120.2031 246.125,119.7188 C246.3125,119.5313 246.5156,119.4531 246.7344,119.4531 C247.2031,119.4531 247.5938,119.8438 247.5938,120.2969 C247.5938,120.6875 247.2656,121.1406 246.6875,121.5469 C245.9375,122.0938 244.7813,122.3906 243.5625,122.3906 C240.6719,122.3906 238.5625,120.5 238.5625,117.9219 L238.5625,116.7969 C238.5625,114.0781 240.5625,112 243.1875,112 C244.0625,112 244.6563,112.1406 245.5938,112.5781 Z "/><text fill="#000000" font-family="sans-serif" font-size="12" lengthAdjust="spacingAndGlyphs" textLength="47" x="263.75" y="121.0605">Subject</text><line style="stroke: #A80036; stroke-width: 1.5;" x1="178.5" x2="363.5" y1="132.9063" y2="132.9063"/><rect fill="none" height="6" style="stroke: #C82930; stroke-width: 1.0;" width="6" x="185.5" y="140.9063"/><text fill="#000000" font-family="sans-serif" font-size="11" lengthAdjust="spacingAndGlyphs" textLength="161" x="197.5" y="147.1167">observers : List&lt;Observer&gt;</text><line style="stroke: #A80036; stroke-width: 1.5;" x1="178.5" x2="363.5" y1="153.7109" y2="153.7109"/><ellipse cx="188.5" cy="164.7109" fill="#84BE84" rx="3" ry="3" style="stroke: #038048; stroke-width: 1.0;"/><text fill="#000000" font-family="sans-serif" font-size="11" lengthAdjust="spacingAndGlyphs" textLength="50" x="197.5" y="167.9214">Subject()</text><ellipse cx="188.5" cy="177.5156" fill="#84BE84" rx="3" ry="3" style="stroke: #038048; stroke-width: 1.0;"/><text fill="#000000" font-family="sans-serif" font-size="11" lengthAdjust="spacingAndGlyphs" textLength="82" x="197.5" y="180.7261">addObserver()</text><ellipse cx="188.5" cy="190.3203" fill="#84BE84" rx="3" ry="3" style="stroke: #038048; stroke-width: 1.0;"/><text fill="#000000" font-family="sans-serif" font-size="11" lengthAdjust="spacingAndGlyphs" textLength="104" x="197.5" y="193.5308">removeObserver()</text><ellipse cx="188.5" cy="203.125" fill="#84BE84" rx="3" ry="3" style="stroke: #038048; stroke-width: 1.0;"/><text fill="#000000" font-family="sans-serif" font-size="11" lengthAdjust="spacingAndGlyphs" textLength="47" x="197.5" y="206.3354">update()</text><!--class T--><rect fill="#FEFECE" filter="url(#f14rlb7an9r3f8)" height="48" id="T" style="stroke: #A80036; stroke-width: 1.5;" width="39" x="978.5" y="315.4063"/><ellipse cx="993.5" cy="331.4063" fill="#ADD1B2" rx="11" ry="11" style="stroke: #A80036; stroke-width: 1.0;"/><path d="M995.8438,327.0781 L996.0156,327.1563 C996.2344,326.8438 996.4375,326.75 996.7344,326.75 C997.0313,326.75 997.3125,326.8906 997.4688,327.1563 C997.5625,327.3125 997.5781,327.4375 997.5781,327.875 L997.5781,329.2969 C997.5781,329.7188 997.5469,329.9063 997.4375,330.0625 C997.2656,330.2813 997,330.4219 996.7344,330.4219 C996.5156,330.4219 996.2813,330.3125 996.1406,330.1719 C996,330.0469 995.9688,329.9219 995.9063,329.5156 C995.8125,329.1094 995.6406,328.8906 995.1563,328.6094 C994.6875,328.3594 994.0781,328.2031 993.5,328.2031 C991.7656,328.2031 990.5156,329.5156 990.5156,331.2969 L990.5156,332.3906 C990.5156,334.0938 991.8125,335.1875 993.8594,335.1875 C994.625,335.1875 995.3125,335.0625 995.7344,334.7969 C995.9219,334.7031 995.9219,334.7031 996.375,334.2188 C996.5625,334.0313 996.7656,333.9531 996.9844,333.9531 C997.4531,333.9531 997.8438,334.3438 997.8438,334.7969 C997.8438,335.1875 997.5156,335.6406 996.9375,336.0469 C996.1875,336.5938 995.0313,336.8906 993.8125,336.8906 C990.9219,336.8906 988.8125,335 988.8125,332.4219 L988.8125,331.2969 C988.8125,328.5781 990.8125,326.5 993.4375,326.5 C994.3125,326.5 994.9063,326.6406 995.8438,327.0781 Z "/><text fill="#000000" font-family="sans-serif" font-size="12" lengthAdjust="spacingAndGlyphs" textLength="7" x="1007.5" y="335.5605">T</text><line style="stroke: #A80036; stroke-width: 1.5;" x1="979.5" x2="1016.5" y1="347.4063" y2="347.4063"/><line style="stroke: #A80036; stroke-width: 1.5;" x1="979.5" x2="1016.5" y1="355.4063" y2="355.4063"/><!--reverse link in.ashwanik.pdp.observer.Observer to in.ashwanik.pdp.observer.Achievements--><path d="M765.256,207.5883 C760.55,225.9643 752.562,245.7443 739,259.9063 C735.173,263.9023 693.439,279.7252 648.085,296.1293 " fill="none" id="in.ashwanik.pdp.observer.Observer&lt;-in.ashwanik.pdp.observer.Achievements" style="stroke: #A80036; stroke-width: 1.0; stroke-dasharray: 7.0,7.0;"/><polygon fill="none" points="758.434,206.0073,769.295,187.8123,772.151,208.8093,758.434,206.0073" style="stroke: #A80036; stroke-width: 1.0;"/><!--reverse link in.ashwanik.pdp.observer.Event to T--><path d="M924.382,205.5253 C943.996,240.9283 969.904,287.6933 985.177,315.2613 " fill="none" id="in.ashwanik.pdp.observer.Event&lt;-T" style="stroke: #A80036; stroke-width: 1.0;"/><polygon fill="#FFFFFF" points="917.996,193.9993,917.4048,201.1861,923.8114,204.496,924.4026,197.3091,917.996,193.9993" style="stroke: #A80036; stroke-width: 1.0;"/><text fill="#000000" font-family="sans-serif" font-size="13" lengthAdjust="spacingAndGlyphs" textLength="50" x="954" y="255.9731">payload</text><!--reverse link in.ashwanik.pdp.observer.Game to in.ashwanik.pdp.observer.Achievements--><path d="M493.65,225.6753 C500.136,246.9623 507.166,270.0323 513.166,289.7243 " fill="none" id="in.ashwanik.pdp.observer.Game&lt;-in.ashwanik.pdp.observer.Achievements" style="stroke: #A80036; stroke-width: 1.0;"/><polygon fill="#FFFFFF" points="489.801,213.0433,487.7234,219.9486,493.2985,224.5222,495.3761,217.6169,489.801,213.0433" style="stroke: #A80036; stroke-width: 1.0;"/><text fill="#000000" font-family="sans-serif" font-size="13" lengthAdjust="spacingAndGlyphs" textLength="90" x="504" y="255.9731">achievements</text><!--reverse link in.ashwanik.pdp.observer.Game to in.ashwanik.pdp.observer.GameEntityStats--><path d="M403.574,222.2383 C396.536,229.1263 389.567,236.1023 383,242.9063 C362.452,264.1953 340.4,289.3633 324.049,308.5163 " fill="none" id="in.ashwanik.pdp.observer.Game&lt;-in.ashwanik.pdp.observer.GameEntityStats" style="stroke: #A80036; stroke-width: 1.0;"/><polygon fill="#FFFFFF" points="413.182,212.9243,406.0898,214.2284,404.5659,221.2766,411.6581,219.9725,413.182,212.9243" style="stroke: #A80036; stroke-width: 1.0;"/><text fill="#000000" font-family="sans-serif" font-size="13" lengthAdjust="spacingAndGlyphs" textLength="107" x="384" y="255.9731">gameEntityStats</text><!--reverse link in.ashwanik.pdp.observer.Game to in.ashwanik.pdp.observer.Scorer--><path d="M557.717,212.2133 C572.905,222.2563 588.505,232.7753 603,242.9063 C631.633,262.9193 638.159,268.8063 666,289.9063 C672.601,294.9083 679.568,300.2303 686.367,305.4473 " fill="none" id="in.ashwanik.pdp.observer.Game&lt;-in.ashwanik.pdp.observer.Scorer" style="stroke: #A80036; stroke-width: 1.0;"/><polygon fill="#FFFFFF" points="546.753,204.9973,549.566,211.6371,556.777,211.5942,553.964,204.9544,546.753,204.9973" style="stroke: #A80036; stroke-width: 1.0;"/><text fill="#000000" font-family="sans-serif" font-size="13" lengthAdjust="spacingAndGlyphs" textLength="40" x="627" y="255.9731">scorer</text><!--reverse link in.ashwanik.pdp.observer.Subject to in.ashwanik.pdp.observer.GameEntityStats--><path d="M280.977,233.1303 C282.278,242.1613 283.634,251.2463 285,259.9063 C287.545,276.0422 290.719,293.9813 293.4,308.6323 " fill="none" id="in.ashwanik.pdp.observer.Subject&lt;-in.ashwanik.pdp.observer.GameEntityStats" style="stroke: #A80036; stroke-width: 1.0;"/><polygon fill="none" points="274.002,233.7983,278.153,213.0193,287.866,231.8513,274.002,233.7983" style="stroke: #A80036; stroke-width: 1.0;"/><!--reverse link in.ashwanik.pdp.observer.Observer to in.ashwanik.pdp.observer.Scorer--><path d="M770.096,207.9713 C768.669,224.6733 766.212,243.2623 762,259.9063 C758.954,271.9453 754.353,284.5353 749.547,296.0182 " fill="none" id="in.ashwanik.pdp.observer.Observer&lt;-in.ashwanik.pdp.observer.Scorer" style="stroke: #A80036; stroke-width: 1.0; stroke-dasharray: 7.0,7.0;"/><polygon fill="none" points="763.128,207.2673,771.424,187.7693,777.097,208.1853,763.128,207.2673" style="stroke: #A80036; stroke-width: 1.0;"/><!--
@startuml
title __OBSERVER__\n

  namespace in.ashwanik.pdp.observer {
    class in.ashwanik.pdp.observer.Achievement {
        - name : String
        + Achievement()
        + getName()
    }
  }
  

  namespace in.ashwanik.pdp.observer {
    class in.ashwanik.pdp.observer.Achievements {
        - achievementList : List<Achievement>
        + Achievements()
        + getAchievementList()
        + onNotify()
    }
  }
  

  namespace in.ashwanik.pdp.observer {
    class in.ashwanik.pdp.observer.Event {
        + Event()
        + getPayload()
    }
  }
  

  namespace in.ashwanik.pdp.observer {
    class in.ashwanik.pdp.observer.Game {
        + Game()
        + getAchievements()
        + getGameEntityStats()
        + getScorer()
        + play()
    }
  }
  

  namespace in.ashwanik.pdp.observer {
    class in.ashwanik.pdp.observer.GameEntity {
        - killPoint : int
        - name : String
        + GameEntity()
        + getKillPoint()
        + getName()
    }
  }
  

  namespace in.ashwanik.pdp.observer {
    class in.ashwanik.pdp.observer.GameEntityStats {
        + updateStats()
    }
  }
  

  namespace in.ashwanik.pdp.observer {
    interface in.ashwanik.pdp.observer.Observer {
        {abstract} + onNotify()
    }
  }
  

  namespace in.ashwanik.pdp.observer {
    class in.ashwanik.pdp.observer.Scorer {
        - score : int
        + getScore()
        + onNotify()
    }
  }
  

  namespace in.ashwanik.pdp.observer {
    class in.ashwanik.pdp.observer.Subject {
        - observers : List<Observer>
        + Subject()
        + addObserver()
        + removeObserver()
        + update()
    }
  }
  

  in.ashwanik.pdp.observer.Achievements .up.|> in.ashwanik.pdp.observer.Observer
  in.ashwanik.pdp.observer.Event o- - T : payload
  in.ashwanik.pdp.observer.Game o- - in.ashwanik.pdp.observer.Achievements : achievements
  in.ashwanik.pdp.observer.Game o- - in.ashwanik.pdp.observer.GameEntityStats : gameEntityStats
  in.ashwanik.pdp.observer.Game o- - in.ashwanik.pdp.observer.Scorer : scorer
  in.ashwanik.pdp.observer.GameEntityStats -up-|> in.ashwanik.pdp.observer.Subject
  in.ashwanik.pdp.observer.Scorer .up.|> in.ashwanik.pdp.observer.Observer
@enduml

PlantUML version 1.2019.10beta5(Unknown compile time)
(GPL source distribution)
Java Runtime: Java(TM) SE Runtime Environment
JVM: Java HotSpot(TM) 64-Bit Server VM
Java Version: 1.7.0_25-b15
Operating System: Linux
Default Encoding: UTF-8
Language: en
Country: US
--></g></svg>