<?xml version="1.0" encoding="UTF-8" standalone="no"?>
<svg xmlns="http://www.w3.org/2000/svg" xmlns:xlink="http://www.w3.org/1999/xlink" contentScriptType="application/ecmascript" contentStyleType="text/css" height="833px" preserveAspectRatio="none" style="width:867px;height:833px;" version="1.1" viewBox="0 0 867 833" width="867px" zoomAndPan="magnify"><defs><filter height="300%" id="ftd5jqche08rt" width="300%" x="-1" y="-1"><feGaussianBlur result="blurOut" stdDeviation="2.0"/><feColorMatrix in="blurOut" result="blurOut2" type="matrix" values="0 0 0 0 0 0 0 0 0 0 0 0 0 0 0 0 0 0 .4 0"/><feOffset dx="4.0" dy="4.0" in="blurOut2" result="blurOut3"/><feBlend in="SourceGraphic" in2="blurOut3" mode="normal"/></filter></defs><g><text fill="#000000" font-family="sans-serif" font-size="18" lengthAdjust="spacingAndGlyphs" text-decoration="underline" textLength="110" x="384.5" y="16.708">PROTOTYPE</text><text fill="#000000" font-family="sans-serif" font-size="18" lengthAdjust="spacingAndGlyphs" textLength="0" x="442.5" y="37.6611"/><!--cluster in.ashwanik.pdp.prototype--><polygon fill="#FFFFFF" filter="url(#ftd5jqche08rt)" points="22,65.9063,239,65.9063,246,88.2031,845,88.2031,845,821.9063,22,821.9063,22,65.9063" style="stroke: #000000; stroke-width: 1.5;"/><line style="stroke: #000000; stroke-width: 1.5;" x1="22" x2="246" y1="88.2031" y2="88.2031"/><text fill="#000000" font-family="sans-serif" font-size="14" font-weight="bold" lengthAdjust="spacingAndGlyphs" textLength="211" x="26" y="80.9014">in.ashwanik.pdp.prototype</text><!--class in.ashwanik.pdp.prototype.Armoury--><rect fill="#FEFECE" filter="url(#ftd5jqche08rt)" height="163.2422" id="in.ashwanik.pdp.prototype.Armoury" style="stroke: #A80036; stroke-width: 1.5;" width="171" x="414.5" y="126.4063"/><ellipse cx="470.25" cy="142.4063" fill="#ADD1B2" rx="11" ry="11" style="stroke: #A80036; stroke-width: 1.0;"/><path d="M472.5938,138.0781 L472.7656,138.1563 C472.9844,137.8438 473.1875,137.75 473.4844,137.75 C473.7813,137.75 474.0625,137.8906 474.2188,138.1563 C474.3125,138.3125 474.3281,138.4375 474.3281,138.875 L474.3281,140.2969 C474.3281,140.7188 474.2969,140.9063 474.1875,141.0625 C474.0156,141.2813 473.75,141.4219 473.4844,141.4219 C473.2656,141.4219 473.0313,141.3125 472.8906,141.1719 C472.75,141.0469 472.7188,140.9219 472.6563,140.5156 C472.5625,140.1094 472.3906,139.8906 471.9063,139.6094 C471.4375,139.3594 470.8281,139.2031 470.25,139.2031 C468.5156,139.2031 467.2656,140.5156 467.2656,142.2969 L467.2656,143.3906 C467.2656,145.0938 468.5625,146.1875 470.6094,146.1875 C471.375,146.1875 472.0625,146.0625 472.4844,145.7969 C472.6719,145.7031 472.6719,145.7031 473.125,145.2188 C473.3125,145.0313 473.5156,144.9531 473.7344,144.9531 C474.2031,144.9531 474.5938,145.3438 474.5938,145.7969 C474.5938,146.1875 474.2656,146.6406 473.6875,147.0469 C472.9375,147.5938 471.7813,147.8906 470.5625,147.8906 C467.6719,147.8906 465.5625,146 465.5625,143.4219 L465.5625,142.2969 C465.5625,139.5781 467.5625,137.5 470.1875,137.5 C471.0625,137.5 471.6563,137.6406 472.5938,138.0781 Z "/><text fill="#000000" font-family="sans-serif" font-size="12" lengthAdjust="spacingAndGlyphs" textLength="51" x="490.75" y="146.5605">Armoury</text><line style="stroke: #A80036; stroke-width: 1.5;" x1="415.5" x2="584.5" y1="158.4063" y2="158.4063"/><rect fill="none" height="6" style="stroke: #C82930; stroke-width: 1.0;" width="6" x="422.5" y="166.4063"/><text fill="#000000" font-family="sans-serif" font-size="11" lengthAdjust="spacingAndGlyphs" text-decoration="underline" textLength="108" x="434.5" y="172.6167">armoury : Armoury</text><rect fill="none" height="6" style="stroke: #C82930; stroke-width: 1.0;" width="6" x="422.5" y="179.2109"/><text fill="#000000" font-family="sans-serif" font-size="11" lengthAdjust="spacingAndGlyphs" text-decoration="underline" textLength="102" x="434.5" y="185.4214">random : Random</text><rect fill="none" height="6" style="stroke: #C82930; stroke-width: 1.0;" width="6" x="422.5" y="192.0156"/><text fill="#000000" font-family="sans-serif" font-size="11" lengthAdjust="spacingAndGlyphs" textLength="145" x="434.5" y="198.2261">weapons : List&lt;Weapon&gt;</text><line style="stroke: #A80036; stroke-width: 1.5;" x1="415.5" x2="584.5" y1="204.8203" y2="204.8203"/><ellipse cx="425.5" cy="215.8203" fill="#84BE84" rx="3" ry="3" style="stroke: #038048; stroke-width: 1.0;"/><text fill="#000000" font-family="sans-serif" font-size="11" lengthAdjust="spacingAndGlyphs" text-decoration="underline" textLength="21" x="434.5" y="219.0308">fill()</text><ellipse cx="425.5" cy="228.625" fill="#84BE84" rx="3" ry="3" style="stroke: #038048; stroke-width: 1.0;"/><text fill="#000000" font-family="sans-serif" font-size="11" lengthAdjust="spacingAndGlyphs" text-decoration="underline" textLength="116" x="434.5" y="231.8354">getRandomWeapon()</text><ellipse cx="425.5" cy="241.4297" fill="#84BE84" rx="3" ry="3" style="stroke: #038048; stroke-width: 1.0;"/><text fill="#000000" font-family="sans-serif" font-size="11" lengthAdjust="spacingAndGlyphs" text-decoration="underline" textLength="77" x="434.5" y="244.6401">getWeapons()</text><ellipse cx="425.5" cy="254.2344" fill="#84BE84" rx="3" ry="3" style="stroke: #038048; stroke-width: 1.0;"/><text fill="#000000" font-family="sans-serif" font-size="11" lengthAdjust="spacingAndGlyphs" textLength="116" x="434.5" y="257.4448">numberOfWeapons()</text><rect fill="#F24D5C" height="6" style="stroke: #C82930; stroke-width: 1.0;" width="6" x="422.5" y="264.0391"/><text fill="#000000" font-family="sans-serif" font-size="11" lengthAdjust="spacingAndGlyphs" textLength="56" x="434.5" y="270.2495">Armoury()</text><rect fill="#F24D5C" height="6" style="stroke: #C82930; stroke-width: 1.0;" width="6" x="422.5" y="276.8438"/><text fill="#000000" font-family="sans-serif" font-size="11" lengthAdjust="spacingAndGlyphs" text-decoration="underline" textLength="26" x="434.5" y="283.0542">get()</text><!--class in.ashwanik.pdp.prototype.Character--><rect fill="#FEFECE" filter="url(#ftd5jqche08rt)" height="214.4609" id="in.ashwanik.pdp.prototype.Character" style="stroke: #A80036; stroke-width: 1.5;" width="171" x="208.5" y="100.9063"/><ellipse cx="258.75" cy="116.9063" fill="#ADD1B2" rx="11" ry="11" style="stroke: #A80036; stroke-width: 1.0;"/><path d="M261.0938,112.5781 L261.2656,112.6563 C261.4844,112.3438 261.6875,112.25 261.9844,112.25 C262.2813,112.25 262.5625,112.3906 262.7188,112.6563 C262.8125,112.8125 262.8281,112.9375 262.8281,113.375 L262.8281,114.7969 C262.8281,115.2188 262.7969,115.4063 262.6875,115.5625 C262.5156,115.7813 262.25,115.9219 261.9844,115.9219 C261.7656,115.9219 261.5313,115.8125 261.3906,115.6719 C261.25,115.5469 261.2188,115.4219 261.1563,115.0156 C261.0625,114.6094 260.8906,114.3906 260.4063,114.1094 C259.9375,113.8594 259.3281,113.7031 258.75,113.7031 C257.0156,113.7031 255.7656,115.0156 255.7656,116.7969 L255.7656,117.8906 C255.7656,119.5938 257.0625,120.6875 259.1094,120.6875 C259.875,120.6875 260.5625,120.5625 260.9844,120.2969 C261.1719,120.2031 261.1719,120.2031 261.625,119.7188 C261.8125,119.5313 262.0156,119.4531 262.2344,119.4531 C262.7031,119.4531 263.0938,119.8438 263.0938,120.2969 C263.0938,120.6875 262.7656,121.1406 262.1875,121.5469 C261.4375,122.0938 260.2813,122.3906 259.0625,122.3906 C256.1719,122.3906 254.0625,120.5 254.0625,117.9219 L254.0625,116.7969 C254.0625,114.0781 256.0625,112 258.6875,112 C259.5625,112 260.1563,112.1406 261.0938,112.5781 Z "/><text fill="#000000" font-family="sans-serif" font-size="12" lengthAdjust="spacingAndGlyphs" textLength="62" x="279.25" y="121.0605">Character</text><line style="stroke: #A80036; stroke-width: 1.5;" x1="209.5" x2="378.5" y1="132.9063" y2="132.9063"/><rect fill="none" height="6" style="stroke: #C82930; stroke-width: 1.0;" width="6" x="216.5" y="140.9063"/><text fill="#000000" font-family="sans-serif" font-size="11" lengthAdjust="spacingAndGlyphs" textLength="109" x="228.5" y="147.1167">description : String</text><rect fill="none" height="6" style="stroke: #C82930; stroke-width: 1.0;" width="6" x="216.5" y="153.7109"/><text fill="#000000" font-family="sans-serif" font-size="11" lengthAdjust="spacingAndGlyphs" textLength="61" x="228.5" y="159.9214">health : int</text><rect fill="none" height="6" style="stroke: #C82930; stroke-width: 1.0;" width="6" x="216.5" y="166.5156"/><text fill="#000000" font-family="sans-serif" font-size="11" lengthAdjust="spacingAndGlyphs" textLength="78" x="228.5" y="172.7261">name : String</text><rect fill="none" height="6" style="stroke: #C82930; stroke-width: 1.0;" width="6" x="216.5" y="179.3203"/><text fill="#000000" font-family="sans-serif" font-size="11" lengthAdjust="spacingAndGlyphs" textLength="145" x="228.5" y="185.5308">weapons : List&lt;Weapon&gt;</text><line style="stroke: #A80036; stroke-width: 1.5;" x1="209.5" x2="378.5" y1="192.125" y2="192.125"/><ellipse cx="219.5" cy="203.125" fill="#84BE84" rx="3" ry="3" style="stroke: #038048; stroke-width: 1.0;"/><text fill="#000000" font-family="sans-serif" font-size="11" lengthAdjust="spacingAndGlyphs" textLength="64" x="228.5" y="206.3354">Character()</text><ellipse cx="219.5" cy="215.9297" fill="#84BE84" rx="3" ry="3" style="stroke: #038048; stroke-width: 1.0;"/><text fill="#000000" font-family="sans-serif" font-size="11" lengthAdjust="spacingAndGlyphs" textLength="42" x="228.5" y="219.1401">attack()</text><ellipse cx="219.5" cy="228.7344" fill="#84BE84" rx="3" ry="3" style="stroke: #038048; stroke-width: 1.0;"/><text fill="#000000" font-family="sans-serif" font-size="11" lengthAdjust="spacingAndGlyphs" textLength="85" x="228.5" y="231.9448">changeHealth()</text><ellipse cx="219.5" cy="241.5391" fill="#84BE84" rx="3" ry="3" style="stroke: #038048; stroke-width: 1.0;"/><text fill="#000000" font-family="sans-serif" font-size="11" lengthAdjust="spacingAndGlyphs" textLength="90" x="228.5" y="244.7495">getDescription()</text><ellipse cx="219.5" cy="254.3438" fill="#84BE84" rx="3" ry="3" style="stroke: #038048; stroke-width: 1.0;"/><text fill="#000000" font-family="sans-serif" font-size="11" lengthAdjust="spacingAndGlyphs" textLength="62" x="228.5" y="257.5542">getHealth()</text><ellipse cx="219.5" cy="267.1484" fill="#84BE84" rx="3" ry="3" style="stroke: #038048; stroke-width: 1.0;"/><text fill="#000000" font-family="sans-serif" font-size="11" lengthAdjust="spacingAndGlyphs" textLength="59" x="228.5" y="270.3589">getName()</text><ellipse cx="219.5" cy="279.9531" fill="#84BE84" rx="3" ry="3" style="stroke: #038048; stroke-width: 1.0;"/><text fill="#000000" font-family="sans-serif" font-size="11" lengthAdjust="spacingAndGlyphs" textLength="77" x="228.5" y="283.1636">getWeapons()</text><ellipse cx="219.5" cy="292.7578" fill="#84BE84" rx="3" ry="3" style="stroke: #038048; stroke-width: 1.0;"/><text fill="#000000" font-family="sans-serif" font-size="11" lengthAdjust="spacingAndGlyphs" textLength="73" x="228.5" y="295.9683">hasWeapon()</text><ellipse cx="219.5" cy="305.5625" fill="#84BE84" rx="3" ry="3" style="stroke: #038048; stroke-width: 1.0;"/><text fill="#000000" font-family="sans-serif" font-size="11" lengthAdjust="spacingAndGlyphs" textLength="47" x="228.5" y="308.7729">isDead()</text><!--class in.ashwanik.pdp.prototype.CollectibleItem--><rect fill="#FEFECE" filter="url(#ftd5jqche08rt)" height="86.4141" id="in.ashwanik.pdp.prototype.CollectibleItem" style="stroke: #A80036; stroke-width: 1.5;" width="123" x="49.5" y="394.4063"/><ellipse cx="64.5" cy="410.4063" fill="#ADD1B2" rx="11" ry="11" style="stroke: #A80036; stroke-width: 1.0;"/><path d="M66.8438,406.0781 L67.0156,406.1563 C67.2344,405.8438 67.4375,405.75 67.7344,405.75 C68.0313,405.75 68.3125,405.8906 68.4688,406.1563 C68.5625,406.3125 68.5781,406.4375 68.5781,406.875 L68.5781,408.2969 C68.5781,408.7188 68.5469,408.9063 68.4375,409.0625 C68.2656,409.2813 68,409.4219 67.7344,409.4219 C67.5156,409.4219 67.2813,409.3125 67.1406,409.1719 C67,409.0469 66.9688,408.9219 66.9063,408.5156 C66.8125,408.1094 66.6406,407.8906 66.1563,407.6094 C65.6875,407.3594 65.0781,407.2031 64.5,407.2031 C62.7656,407.2031 61.5156,408.5156 61.5156,410.2969 L61.5156,411.3906 C61.5156,413.0938 62.8125,414.1875 64.8594,414.1875 C65.625,414.1875 66.3125,414.0625 66.7344,413.7969 C66.9219,413.7031 66.9219,413.7031 67.375,413.2188 C67.5625,413.0313 67.7656,412.9531 67.9844,412.9531 C68.4531,412.9531 68.8438,413.3438 68.8438,413.7969 C68.8438,414.1875 68.5156,414.6406 67.9375,415.0469 C67.1875,415.5938 66.0313,415.8906 64.8125,415.8906 C61.9219,415.8906 59.8125,414 59.8125,411.4219 L59.8125,410.2969 C59.8125,407.5781 61.8125,405.5 64.4375,405.5 C65.3125,405.5 65.9063,405.6406 66.8438,406.0781 Z "/><text fill="#000000" font-family="sans-serif" font-size="12" lengthAdjust="spacingAndGlyphs" textLength="91" x="78.5" y="414.5605">CollectibleItem</text><line style="stroke: #A80036; stroke-width: 1.5;" x1="50.5" x2="171.5" y1="426.4063" y2="426.4063"/><rect fill="none" height="6" style="stroke: #C82930; stroke-width: 1.0;" width="6" x="57.5" y="434.4063"/><text fill="#000000" font-family="sans-serif" font-size="11" lengthAdjust="spacingAndGlyphs" textLength="63" x="69.5" y="440.6167">weight : int</text><line style="stroke: #A80036; stroke-width: 1.5;" x1="50.5" x2="171.5" y1="447.2109" y2="447.2109"/><ellipse cx="60.5" cy="458.2109" fill="#84BE84" rx="3" ry="3" style="stroke: #038048; stroke-width: 1.0;"/><text fill="#000000" font-family="sans-serif" font-size="11" lengthAdjust="spacingAndGlyphs" textLength="91" x="69.5" y="461.4214">CollectibleItem()</text><ellipse cx="60.5" cy="471.0156" fill="#84BE84" rx="3" ry="3" style="stroke: #038048; stroke-width: 1.0;"/><text fill="#000000" font-family="sans-serif" font-size="11" lengthAdjust="spacingAndGlyphs" textLength="63" x="69.5" y="474.2261">getWeight()</text><!--class in.ashwanik.pdp.prototype.Dagger--><rect fill="#FEFECE" filter="url(#ftd5jqche08rt)" height="60.8047" id="in.ashwanik.pdp.prototype.Dagger" style="stroke: #A80036; stroke-width: 1.5;" width="78" x="38" y="744.9063"/><ellipse cx="53" cy="760.9063" fill="#ADD1B2" rx="11" ry="11" style="stroke: #A80036; stroke-width: 1.0;"/><path d="M55.3438,756.5781 L55.5156,756.6563 C55.7344,756.3438 55.9375,756.25 56.2344,756.25 C56.5313,756.25 56.8125,756.3906 56.9688,756.6563 C57.0625,756.8125 57.0781,756.9375 57.0781,757.375 L57.0781,758.7969 C57.0781,759.2188 57.0469,759.4063 56.9375,759.5625 C56.7656,759.7813 56.5,759.9219 56.2344,759.9219 C56.0156,759.9219 55.7813,759.8125 55.6406,759.6719 C55.5,759.5469 55.4688,759.4219 55.4063,759.0156 C55.3125,758.6094 55.1406,758.3906 54.6563,758.1094 C54.1875,757.8594 53.5781,757.7031 53,757.7031 C51.2656,757.7031 50.0156,759.0156 50.0156,760.7969 L50.0156,761.8906 C50.0156,763.5938 51.3125,764.6875 53.3594,764.6875 C54.125,764.6875 54.8125,764.5625 55.2344,764.2969 C55.4219,764.2031 55.4219,764.2031 55.875,763.7188 C56.0625,763.5313 56.2656,763.4531 56.4844,763.4531 C56.9531,763.4531 57.3438,763.8438 57.3438,764.2969 C57.3438,764.6875 57.0156,765.1406 56.4375,765.5469 C55.6875,766.0938 54.5313,766.3906 53.3125,766.3906 C50.4219,766.3906 48.3125,764.5 48.3125,761.9219 L48.3125,760.7969 C48.3125,758.0781 50.3125,756 52.9375,756 C53.8125,756 54.4063,756.1406 55.3438,756.5781 Z "/><text fill="#000000" font-family="sans-serif" font-size="12" lengthAdjust="spacingAndGlyphs" textLength="46" x="67" y="765.0605">Dagger</text><line style="stroke: #A80036; stroke-width: 1.5;" x1="39" x2="115" y1="776.9063" y2="776.9063"/><line style="stroke: #A80036; stroke-width: 1.5;" x1="39" x2="115" y1="784.9063" y2="784.9063"/><ellipse cx="49" cy="795.9063" fill="#84BE84" rx="3" ry="3" style="stroke: #038048; stroke-width: 1.0;"/><text fill="#000000" font-family="sans-serif" font-size="11" lengthAdjust="spacingAndGlyphs" textLength="49" x="58" y="799.1167">Dagger()</text><!--class in.ashwanik.pdp.prototype.DarkElf--><rect fill="#FEFECE" filter="url(#ftd5jqche08rt)" height="99.2188" id="in.ashwanik.pdp.prototype.DarkElf" style="stroke: #A80036; stroke-width: 1.5;" width="126" x="234" y="572.9063"/><ellipse cx="271.5" cy="588.9063" fill="#ADD1B2" rx="11" ry="11" style="stroke: #A80036; stroke-width: 1.0;"/><path d="M273.8438,584.5781 L274.0156,584.6563 C274.2344,584.3438 274.4375,584.25 274.7344,584.25 C275.0313,584.25 275.3125,584.3906 275.4688,584.6563 C275.5625,584.8125 275.5781,584.9375 275.5781,585.375 L275.5781,586.7969 C275.5781,587.2188 275.5469,587.4063 275.4375,587.5625 C275.2656,587.7813 275,587.9219 274.7344,587.9219 C274.5156,587.9219 274.2813,587.8125 274.1406,587.6719 C274,587.5469 273.9688,587.4219 273.9063,587.0156 C273.8125,586.6094 273.6406,586.3906 273.1563,586.1094 C272.6875,585.8594 272.0781,585.7031 271.5,585.7031 C269.7656,585.7031 268.5156,587.0156 268.5156,588.7969 L268.5156,589.8906 C268.5156,591.5938 269.8125,592.6875 271.8594,592.6875 C272.625,592.6875 273.3125,592.5625 273.7344,592.2969 C273.9219,592.2031 273.9219,592.2031 274.375,591.7188 C274.5625,591.5313 274.7656,591.4531 274.9844,591.4531 C275.4531,591.4531 275.8438,591.8438 275.8438,592.2969 C275.8438,592.6875 275.5156,593.1406 274.9375,593.5469 C274.1875,594.0938 273.0313,594.3906 271.8125,594.3906 C268.9219,594.3906 266.8125,592.5 266.8125,589.9219 L266.8125,588.7969 C266.8125,586.0781 268.8125,584 271.4375,584 C272.3125,584 272.9063,584.1406 273.8438,584.5781 Z "/><text fill="#000000" font-family="sans-serif" font-size="12" lengthAdjust="spacingAndGlyphs" textLength="44" x="290.5" y="593.0605">DarkElf</text><line style="stroke: #A80036; stroke-width: 1.5;" x1="235" x2="359" y1="604.9063" y2="604.9063"/><ellipse cx="245" cy="615.9063" fill="none" rx="3" ry="3" style="stroke: #038048; stroke-width: 1.0;"/><text fill="#000000" font-family="sans-serif" font-size="11" lengthAdjust="spacingAndGlyphs" text-decoration="underline" textLength="100" x="254" y="619.1167">DARK_ELF : String</text><line style="stroke: #A80036; stroke-width: 1.5;" x1="235" x2="359" y1="625.7109" y2="625.7109"/><ellipse cx="245" cy="636.7109" fill="#84BE84" rx="3" ry="3" style="stroke: #038048; stroke-width: 1.0;"/><text fill="#000000" font-family="sans-serif" font-size="11" lengthAdjust="spacingAndGlyphs" textLength="48" x="254" y="639.9214">DarkElf()</text><ellipse cx="245" cy="649.5156" fill="#84BE84" rx="3" ry="3" style="stroke: #038048; stroke-width: 1.0;"/><text fill="#000000" font-family="sans-serif" font-size="11" lengthAdjust="spacingAndGlyphs" textLength="48" x="254" y="652.7261">DarkElf()</text><ellipse cx="245" cy="662.3203" fill="#84BE84" rx="3" ry="3" style="stroke: #038048; stroke-width: 1.0;"/><text fill="#000000" font-family="sans-serif" font-size="11" lengthAdjust="spacingAndGlyphs" textLength="79" x="254" y="665.5308">newInstance()</text><!--class in.ashwanik.pdp.prototype.Enemy--><rect fill="#FEFECE" filter="url(#ftd5jqche08rt)" height="124.8281" id="in.ashwanik.pdp.prototype.Enemy" style="stroke: #A80036; stroke-width: 1.5;" width="114" x="245" y="374.9063"/><ellipse cx="278" cy="390.9063" fill="#A9DCDF" rx="11" ry="11" style="stroke: #A80036; stroke-width: 1.0;"/><path d="M279.5781,392.7188 L275.5313,392.7188 L275.1406,393.7031 L275.5313,393.7031 C275.9844,393.7031 276.125,393.7344 276.2969,393.8594 C276.5156,394.0313 276.6406,394.2813 276.6406,394.5625 C276.6406,394.8438 276.5,395.1406 276.2344,395.2813 C276.1094,395.375 275.8906,395.4063 275.5313,395.4063 L273.2656,395.4063 C272.5156,395.4063 272.1406,395.125 272.1406,394.5625 C272.1406,394.2656 272.2969,393.9844 272.5469,393.8281 C272.7031,393.7188 272.8594,393.7031 273.2813,393.7031 L275.9219,387.1875 L274.8438,387.1875 C274.4063,387.1875 274.2344,387.1563 274.0625,387.0469 C273.8438,386.875 273.7031,386.625 273.7031,386.3438 C273.7031,386.0625 273.8594,385.7813 274.1094,385.6094 C274.2656,385.5156 274.3906,385.5 274.8438,385.5 L278.5156,385.5 L281.9063,393.7031 C282.375,393.7031 282.5313,393.7344 282.7031,393.875 C282.9219,394.0313 283.0625,394.2813 283.0625,394.5625 C283.0625,394.8438 282.9063,395.1406 282.6563,395.2813 C282.5156,395.375 282.2969,395.4063 281.9375,395.4063 L279.5781,395.4063 C279.1563,395.4063 278.9531,395.3594 278.8125,395.2344 C278.5938,395.0781 278.4531,394.8281 278.4531,394.5625 C278.4531,394.2656 278.6094,393.9844 278.8594,393.8281 C279.0156,393.7188 279.125,393.7031 279.5781,393.7031 L279.9688,393.7031 Z M278.875,391.0156 L277.5469,387.75 L276.2031,391.0156 Z "/><text fill="#000000" font-family="sans-serif" font-size="12" font-style="italic" lengthAdjust="spacingAndGlyphs" textLength="42" x="296" y="395.0605">Enemy</text><line style="stroke: #A80036; stroke-width: 1.5;" x1="246" x2="358" y1="406.9063" y2="406.9063"/><rect fill="none" height="6" style="stroke: #C82930; stroke-width: 1.0;" width="6" x="253" y="414.9063"/><text fill="#000000" font-family="sans-serif" font-size="11" lengthAdjust="spacingAndGlyphs" textLength="88" x="265" y="421.1167">experience : int</text><line style="stroke: #A80036; stroke-width: 1.5;" x1="246" x2="358" y1="427.7109" y2="427.7109"/><ellipse cx="256" cy="438.7109" fill="#84BE84" rx="3" ry="3" style="stroke: #038048; stroke-width: 1.0;"/><text fill="#000000" font-family="sans-serif" font-size="11" lengthAdjust="spacingAndGlyphs" textLength="46" x="265" y="441.9214">Enemy()</text><ellipse cx="256" cy="451.5156" fill="#84BE84" rx="3" ry="3" style="stroke: #038048; stroke-width: 1.0;"/><text fill="#000000" font-family="sans-serif" font-size="11" lengthAdjust="spacingAndGlyphs" textLength="46" x="265" y="454.7261">Enemy()</text><ellipse cx="256" cy="464.3203" fill="#84BE84" rx="3" ry="3" style="stroke: #038048; stroke-width: 1.0;"/><text fill="#000000" font-family="sans-serif" font-size="11" lengthAdjust="spacingAndGlyphs" textLength="85" x="265" y="467.5308">changeHealth()</text><ellipse cx="256" cy="477.125" fill="#84BE84" rx="3" ry="3" style="stroke: #038048; stroke-width: 1.0;"/><text fill="#000000" font-family="sans-serif" font-size="11" lengthAdjust="spacingAndGlyphs" textLength="88" x="265" y="480.3354">getExperience()</text><ellipse cx="256" cy="489.9297" fill="#84BE84" rx="3" ry="3" style="stroke: #038048; stroke-width: 1.0;"/><text fill="#000000" font-family="sans-serif" font-size="11" font-style="italic" lengthAdjust="spacingAndGlyphs" textLength="78" x="265" y="493.1401">newInstance()</text><!--class in.ashwanik.pdp.prototype.EnemyFactory--><rect fill="#FEFECE" filter="url(#ftd5jqche08rt)" height="137.6328" id="in.ashwanik.pdp.prototype.EnemyFactory" style="stroke: #A80036; stroke-width: 1.5;" width="208" x="621" y="138.9063"/><ellipse cx="677.25" cy="154.9063" fill="#ADD1B2" rx="11" ry="11" style="stroke: #A80036; stroke-width: 1.0;"/><path d="M679.5938,150.5781 L679.7656,150.6563 C679.9844,150.3438 680.1875,150.25 680.4844,150.25 C680.7813,150.25 681.0625,150.3906 681.2188,150.6563 C681.3125,150.8125 681.3281,150.9375 681.3281,151.375 L681.3281,152.7969 C681.3281,153.2188 681.2969,153.4063 681.1875,153.5625 C681.0156,153.7813 680.75,153.9219 680.4844,153.9219 C680.2656,153.9219 680.0313,153.8125 679.8906,153.6719 C679.75,153.5469 679.7188,153.4219 679.6563,153.0156 C679.5625,152.6094 679.3906,152.3906 678.9063,152.1094 C678.4375,151.8594 677.8281,151.7031 677.25,151.7031 C675.5156,151.7031 674.2656,153.0156 674.2656,154.7969 L674.2656,155.8906 C674.2656,157.5938 675.5625,158.6875 677.6094,158.6875 C678.375,158.6875 679.0625,158.5625 679.4844,158.2969 C679.6719,158.2031 679.6719,158.2031 680.125,157.7188 C680.3125,157.5313 680.5156,157.4531 680.7344,157.4531 C681.2031,157.4531 681.5938,157.8438 681.5938,158.2969 C681.5938,158.6875 681.2656,159.1406 680.6875,159.5469 C679.9375,160.0938 678.7813,160.3906 677.5625,160.3906 C674.6719,160.3906 672.5625,158.5 672.5625,155.9219 L672.5625,154.7969 C672.5625,152.0781 674.5625,150 677.1875,150 C678.0625,150 678.6563,150.1406 679.5938,150.5781 Z "/><text fill="#000000" font-family="sans-serif" font-size="12" lengthAdjust="spacingAndGlyphs" textLength="87" x="697.75" y="159.0605">EnemyFactory</text><line style="stroke: #A80036; stroke-width: 1.5;" x1="622" x2="828" y1="170.9063" y2="170.9063"/><rect fill="none" height="6" style="stroke: #C82930; stroke-width: 1.0;" width="6" x="629" y="178.9063"/><text fill="#000000" font-family="sans-serif" font-size="11" lengthAdjust="spacingAndGlyphs" textLength="182" x="641" y="185.1167">enemies : Map&lt;String, Enemy&gt;</text><rect fill="none" height="6" style="stroke: #C82930; stroke-width: 1.0;" width="6" x="629" y="191.7109"/><text fill="#000000" font-family="sans-serif" font-size="11" lengthAdjust="spacingAndGlyphs" text-decoration="underline" textLength="126" x="641" y="197.9214">enemyTypes : String[]</text><rect fill="none" height="6" style="stroke: #C82930; stroke-width: 1.0;" width="6" x="629" y="204.5156"/><text fill="#000000" font-family="sans-serif" font-size="11" lengthAdjust="spacingAndGlyphs" text-decoration="underline" textLength="139" x="641" y="210.7261">instance : EnemyFactory</text><rect fill="none" height="6" style="stroke: #C82930; stroke-width: 1.0;" width="6" x="629" y="217.3203"/><text fill="#000000" font-family="sans-serif" font-size="11" lengthAdjust="spacingAndGlyphs" textLength="102" x="641" y="223.5308">random : Random</text><line style="stroke: #A80036; stroke-width: 1.5;" x1="622" x2="828" y1="230.125" y2="230.125"/><ellipse cx="632" cy="241.125" fill="#84BE84" rx="3" ry="3" style="stroke: #038048; stroke-width: 1.0;"/><text fill="#000000" font-family="sans-serif" font-size="11" lengthAdjust="spacingAndGlyphs" text-decoration="underline" textLength="110" x="641" y="244.3354">getRandomEnemy()</text><ellipse cx="632" cy="253.9297" fill="#84BE84" rx="3" ry="3" style="stroke: #038048; stroke-width: 1.0;"/><text fill="#000000" font-family="sans-serif" font-size="11" lengthAdjust="spacingAndGlyphs" text-decoration="underline" textLength="25" x="641" y="257.1401">init()</text><rect fill="#F24D5C" height="6" style="stroke: #C82930; stroke-width: 1.0;" width="6" x="629" y="263.7344"/><text fill="#000000" font-family="sans-serif" font-size="11" lengthAdjust="spacingAndGlyphs" textLength="87" x="641" y="269.9448">EnemyFactory()</text><!--class in.ashwanik.pdp.prototype.Game--><rect fill="#FEFECE" filter="url(#ftd5jqche08rt)" height="86.4141" id="in.ashwanik.pdp.prototype.Game" style="stroke: #A80036; stroke-width: 1.5;" width="193" x="403.5" y="394.4063"/><ellipse cx="477.75" cy="410.4063" fill="#ADD1B2" rx="11" ry="11" style="stroke: #A80036; stroke-width: 1.0;"/><path d="M480.0938,406.0781 L480.2656,406.1563 C480.4844,405.8438 480.6875,405.75 480.9844,405.75 C481.2813,405.75 481.5625,405.8906 481.7188,406.1563 C481.8125,406.3125 481.8281,406.4375 481.8281,406.875 L481.8281,408.2969 C481.8281,408.7188 481.7969,408.9063 481.6875,409.0625 C481.5156,409.2813 481.25,409.4219 480.9844,409.4219 C480.7656,409.4219 480.5313,409.3125 480.3906,409.1719 C480.25,409.0469 480.2188,408.9219 480.1563,408.5156 C480.0625,408.1094 479.8906,407.8906 479.4063,407.6094 C478.9375,407.3594 478.3281,407.2031 477.75,407.2031 C476.0156,407.2031 474.7656,408.5156 474.7656,410.2969 L474.7656,411.3906 C474.7656,413.0938 476.0625,414.1875 478.1094,414.1875 C478.875,414.1875 479.5625,414.0625 479.9844,413.7969 C480.1719,413.7031 480.1719,413.7031 480.625,413.2188 C480.8125,413.0313 481.0156,412.9531 481.2344,412.9531 C481.7031,412.9531 482.0938,413.3438 482.0938,413.7969 C482.0938,414.1875 481.7656,414.6406 481.1875,415.0469 C480.4375,415.5938 479.2813,415.8906 478.0625,415.8906 C475.1719,415.8906 473.0625,414 473.0625,411.4219 L473.0625,410.2969 C473.0625,407.5781 475.0625,405.5 477.6875,405.5 C478.5625,405.5 479.1563,405.6406 480.0938,406.0781 Z "/><text fill="#000000" font-family="sans-serif" font-size="12" lengthAdjust="spacingAndGlyphs" textLength="36" x="498.25" y="414.5605">Game</text><line style="stroke: #A80036; stroke-width: 1.5;" x1="404.5" x2="595.5" y1="426.4063" y2="426.4063"/><rect fill="none" height="6" style="stroke: #C82930; stroke-width: 1.0;" width="6" x="411.5" y="434.4063"/><text fill="#000000" font-family="sans-serif" font-size="11" lengthAdjust="spacingAndGlyphs" textLength="167" x="423.5" y="440.6167">characters : List&lt;Character&gt;</text><line style="stroke: #A80036; stroke-width: 1.5;" x1="404.5" x2="595.5" y1="447.2109" y2="447.2109"/><ellipse cx="414.5" cy="458.2109" fill="#84BE84" rx="3" ry="3" style="stroke: #038048; stroke-width: 1.0;"/><text fill="#000000" font-family="sans-serif" font-size="11" lengthAdjust="spacingAndGlyphs" textLength="42" x="423.5" y="461.4214">Game()</text><ellipse cx="414.5" cy="471.0156" fill="#84BE84" rx="3" ry="3" style="stroke: #038048; stroke-width: 1.0;"/><text fill="#000000" font-family="sans-serif" font-size="11" lengthAdjust="spacingAndGlyphs" textLength="89" x="423.5" y="474.2261">getCharacters()</text><!--class in.ashwanik.pdp.prototype.Item--><rect fill="#FEFECE" filter="url(#ftd5jqche08rt)" height="112.0234" id="in.ashwanik.pdp.prototype.Item" style="stroke: #A80036; stroke-width: 1.5;" width="135" x="38.5" y="151.9063"/><ellipse cx="88.25" cy="167.9063" fill="#ADD1B2" rx="11" ry="11" style="stroke: #A80036; stroke-width: 1.0;"/><path d="M90.5938,163.5781 L90.7656,163.6563 C90.9844,163.3438 91.1875,163.25 91.4844,163.25 C91.7813,163.25 92.0625,163.3906 92.2188,163.6563 C92.3125,163.8125 92.3281,163.9375 92.3281,164.375 L92.3281,165.7969 C92.3281,166.2188 92.2969,166.4063 92.1875,166.5625 C92.0156,166.7813 91.75,166.9219 91.4844,166.9219 C91.2656,166.9219 91.0313,166.8125 90.8906,166.6719 C90.75,166.5469 90.7188,166.4219 90.6563,166.0156 C90.5625,165.6094 90.3906,165.3906 89.9063,165.1094 C89.4375,164.8594 88.8281,164.7031 88.25,164.7031 C86.5156,164.7031 85.2656,166.0156 85.2656,167.7969 L85.2656,168.8906 C85.2656,170.5938 86.5625,171.6875 88.6094,171.6875 C89.375,171.6875 90.0625,171.5625 90.4844,171.2969 C90.6719,171.2031 90.6719,171.2031 91.125,170.7188 C91.3125,170.5313 91.5156,170.4531 91.7344,170.4531 C92.2031,170.4531 92.5938,170.8438 92.5938,171.2969 C92.5938,171.6875 92.2656,172.1406 91.6875,172.5469 C90.9375,173.0938 89.7813,173.3906 88.5625,173.3906 C85.6719,173.3906 83.5625,171.5 83.5625,168.9219 L83.5625,167.7969 C83.5625,165.0781 85.5625,163 88.1875,163 C89.0625,163 89.6563,163.1406 90.5938,163.5781 Z "/><text fill="#000000" font-family="sans-serif" font-size="12" lengthAdjust="spacingAndGlyphs" textLength="27" x="108.75" y="172.0605">Item</text><line style="stroke: #A80036; stroke-width: 1.5;" x1="39.5" x2="172.5" y1="183.9063" y2="183.9063"/><rect fill="none" height="6" style="stroke: #C82930; stroke-width: 1.0;" width="6" x="46.5" y="191.9063"/><text fill="#000000" font-family="sans-serif" font-size="11" lengthAdjust="spacingAndGlyphs" textLength="109" x="58.5" y="198.1167">description : String</text><rect fill="none" height="6" style="stroke: #C82930; stroke-width: 1.0;" width="6" x="46.5" y="204.7109"/><text fill="#000000" font-family="sans-serif" font-size="11" lengthAdjust="spacingAndGlyphs" textLength="78" x="58.5" y="210.9214">name : String</text><line style="stroke: #A80036; stroke-width: 1.5;" x1="39.5" x2="172.5" y1="217.5156" y2="217.5156"/><ellipse cx="49.5" cy="228.5156" fill="#84BE84" rx="3" ry="3" style="stroke: #038048; stroke-width: 1.0;"/><text fill="#000000" font-family="sans-serif" font-size="11" lengthAdjust="spacingAndGlyphs" textLength="33" x="58.5" y="231.7261">Item()</text><ellipse cx="49.5" cy="241.3203" fill="#84BE84" rx="3" ry="3" style="stroke: #038048; stroke-width: 1.0;"/><text fill="#000000" font-family="sans-serif" font-size="11" lengthAdjust="spacingAndGlyphs" textLength="90" x="58.5" y="244.5308">getDescription()</text><ellipse cx="49.5" cy="254.125" fill="#84BE84" rx="3" ry="3" style="stroke: #038048; stroke-width: 1.0;"/><text fill="#000000" font-family="sans-serif" font-size="11" lengthAdjust="spacingAndGlyphs" textLength="59" x="58.5" y="257.3354">getName()</text><!--class in.ashwanik.pdp.prototype.LongSword--><rect fill="#FEFECE" filter="url(#ftd5jqche08rt)" height="60.8047" id="in.ashwanik.pdp.prototype.LongSword" style="stroke: #A80036; stroke-width: 1.5;" width="100" x="151" y="744.9063"/><ellipse cx="166" cy="760.9063" fill="#ADD1B2" rx="11" ry="11" style="stroke: #A80036; stroke-width: 1.0;"/><path d="M168.3438,756.5781 L168.5156,756.6563 C168.7344,756.3438 168.9375,756.25 169.2344,756.25 C169.5313,756.25 169.8125,756.3906 169.9688,756.6563 C170.0625,756.8125 170.0781,756.9375 170.0781,757.375 L170.0781,758.7969 C170.0781,759.2188 170.0469,759.4063 169.9375,759.5625 C169.7656,759.7813 169.5,759.9219 169.2344,759.9219 C169.0156,759.9219 168.7813,759.8125 168.6406,759.6719 C168.5,759.5469 168.4688,759.4219 168.4063,759.0156 C168.3125,758.6094 168.1406,758.3906 167.6563,758.1094 C167.1875,757.8594 166.5781,757.7031 166,757.7031 C164.2656,757.7031 163.0156,759.0156 163.0156,760.7969 L163.0156,761.8906 C163.0156,763.5938 164.3125,764.6875 166.3594,764.6875 C167.125,764.6875 167.8125,764.5625 168.2344,764.2969 C168.4219,764.2031 168.4219,764.2031 168.875,763.7188 C169.0625,763.5313 169.2656,763.4531 169.4844,763.4531 C169.9531,763.4531 170.3438,763.8438 170.3438,764.2969 C170.3438,764.6875 170.0156,765.1406 169.4375,765.5469 C168.6875,766.0938 167.5313,766.3906 166.3125,766.3906 C163.4219,766.3906 161.3125,764.5 161.3125,761.9219 L161.3125,760.7969 C161.3125,758.0781 163.3125,756 165.9375,756 C166.8125,756 167.4063,756.1406 168.3438,756.5781 Z "/><text fill="#000000" font-family="sans-serif" font-size="12" lengthAdjust="spacingAndGlyphs" textLength="68" x="180" y="765.0605">LongSword</text><line style="stroke: #A80036; stroke-width: 1.5;" x1="152" x2="250" y1="776.9063" y2="776.9063"/><line style="stroke: #A80036; stroke-width: 1.5;" x1="152" x2="250" y1="784.9063" y2="784.9063"/><ellipse cx="162" cy="795.9063" fill="#84BE84" rx="3" ry="3" style="stroke: #038048; stroke-width: 1.0;"/><text fill="#000000" font-family="sans-serif" font-size="11" lengthAdjust="spacingAndGlyphs" textLength="71" x="171" y="799.1167">LongSword()</text><!--class in.ashwanik.pdp.prototype.Mace--><rect fill="#FEFECE" filter="url(#ftd5jqche08rt)" height="60.8047" id="in.ashwanik.pdp.prototype.Mace" style="stroke: #A80036; stroke-width: 1.5;" width="65" x="286.5" y="744.9063"/><ellipse cx="301.5" cy="760.9063" fill="#ADD1B2" rx="11" ry="11" style="stroke: #A80036; stroke-width: 1.0;"/><path d="M303.8438,756.5781 L304.0156,756.6563 C304.2344,756.3438 304.4375,756.25 304.7344,756.25 C305.0313,756.25 305.3125,756.3906 305.4688,756.6563 C305.5625,756.8125 305.5781,756.9375 305.5781,757.375 L305.5781,758.7969 C305.5781,759.2188 305.5469,759.4063 305.4375,759.5625 C305.2656,759.7813 305,759.9219 304.7344,759.9219 C304.5156,759.9219 304.2813,759.8125 304.1406,759.6719 C304,759.5469 303.9688,759.4219 303.9063,759.0156 C303.8125,758.6094 303.6406,758.3906 303.1563,758.1094 C302.6875,757.8594 302.0781,757.7031 301.5,757.7031 C299.7656,757.7031 298.5156,759.0156 298.5156,760.7969 L298.5156,761.8906 C298.5156,763.5938 299.8125,764.6875 301.8594,764.6875 C302.625,764.6875 303.3125,764.5625 303.7344,764.2969 C303.9219,764.2031 303.9219,764.2031 304.375,763.7188 C304.5625,763.5313 304.7656,763.4531 304.9844,763.4531 C305.4531,763.4531 305.8438,763.8438 305.8438,764.2969 C305.8438,764.6875 305.5156,765.1406 304.9375,765.5469 C304.1875,766.0938 303.0313,766.3906 301.8125,766.3906 C298.9219,766.3906 296.8125,764.5 296.8125,761.9219 L296.8125,760.7969 C296.8125,758.0781 298.8125,756 301.4375,756 C302.3125,756 302.9063,756.1406 303.8438,756.5781 Z "/><text fill="#000000" font-family="sans-serif" font-size="12" lengthAdjust="spacingAndGlyphs" textLength="33" x="315.5" y="765.0605">Mace</text><line style="stroke: #A80036; stroke-width: 1.5;" x1="287.5" x2="350.5" y1="776.9063" y2="776.9063"/><line style="stroke: #A80036; stroke-width: 1.5;" x1="287.5" x2="350.5" y1="784.9063" y2="784.9063"/><ellipse cx="297.5" cy="795.9063" fill="#84BE84" rx="3" ry="3" style="stroke: #038048; stroke-width: 1.0;"/><text fill="#000000" font-family="sans-serif" font-size="11" lengthAdjust="spacingAndGlyphs" textLength="37" x="306.5" y="799.1167">Mace()</text><!--class in.ashwanik.pdp.prototype.Orc--><rect fill="#FEFECE" filter="url(#ftd5jqche08rt)" height="99.2188" id="in.ashwanik.pdp.prototype.Orc" style="stroke: #A80036; stroke-width: 1.5;" width="105" x="395.5" y="572.9063"/><ellipse cx="433.9" cy="588.9063" fill="#ADD1B2" rx="11" ry="11" style="stroke: #A80036; stroke-width: 1.0;"/><path d="M436.2438,584.5781 L436.4156,584.6563 C436.6344,584.3438 436.8375,584.25 437.1344,584.25 C437.4313,584.25 437.7125,584.3906 437.8688,584.6563 C437.9625,584.8125 437.9781,584.9375 437.9781,585.375 L437.9781,586.7969 C437.9781,587.2188 437.9469,587.4063 437.8375,587.5625 C437.6656,587.7813 437.4,587.9219 437.1344,587.9219 C436.9156,587.9219 436.6813,587.8125 436.5406,587.6719 C436.4,587.5469 436.3688,587.4219 436.3063,587.0156 C436.2125,586.6094 436.0406,586.3906 435.5563,586.1094 C435.0875,585.8594 434.4781,585.7031 433.9,585.7031 C432.1656,585.7031 430.9156,587.0156 430.9156,588.7969 L430.9156,589.8906 C430.9156,591.5938 432.2125,592.6875 434.2594,592.6875 C435.025,592.6875 435.7125,592.5625 436.1344,592.2969 C436.3219,592.2031 436.3219,592.2031 436.775,591.7188 C436.9625,591.5313 437.1656,591.4531 437.3844,591.4531 C437.8531,591.4531 438.2438,591.8438 438.2438,592.2969 C438.2438,592.6875 437.9156,593.1406 437.3375,593.5469 C436.5875,594.0938 435.4313,594.3906 434.2125,594.3906 C431.3219,594.3906 429.2125,592.5 429.2125,589.9219 L429.2125,588.7969 C429.2125,586.0781 431.2125,584 433.8375,584 C434.7125,584 435.3063,584.1406 436.2438,584.5781 Z "/><text fill="#000000" font-family="sans-serif" font-size="12" lengthAdjust="spacingAndGlyphs" textLength="21" x="453.1" y="593.0605">Orc</text><line style="stroke: #A80036; stroke-width: 1.5;" x1="396.5" x2="499.5" y1="604.9063" y2="604.9063"/><ellipse cx="406.5" cy="615.9063" fill="none" rx="3" ry="3" style="stroke: #038048; stroke-width: 1.0;"/><text fill="#000000" font-family="sans-serif" font-size="11" lengthAdjust="spacingAndGlyphs" text-decoration="underline" textLength="70" x="415.5" y="619.1167">ORC : String</text><line style="stroke: #A80036; stroke-width: 1.5;" x1="396.5" x2="499.5" y1="625.7109" y2="625.7109"/><ellipse cx="406.5" cy="636.7109" fill="#84BE84" rx="3" ry="3" style="stroke: #038048; stroke-width: 1.0;"/><text fill="#000000" font-family="sans-serif" font-size="11" lengthAdjust="spacingAndGlyphs" textLength="28" x="415.5" y="639.9214">Orc()</text><ellipse cx="406.5" cy="649.5156" fill="#84BE84" rx="3" ry="3" style="stroke: #038048; stroke-width: 1.0;"/><text fill="#000000" font-family="sans-serif" font-size="11" lengthAdjust="spacingAndGlyphs" textLength="28" x="415.5" y="652.7261">Orc()</text><ellipse cx="406.5" cy="662.3203" fill="#84BE84" rx="3" ry="3" style="stroke: #038048; stroke-width: 1.0;"/><text fill="#000000" font-family="sans-serif" font-size="11" lengthAdjust="spacingAndGlyphs" textLength="79" x="415.5" y="665.5308">newInstance()</text><!--class in.ashwanik.pdp.prototype.SpikeHammer--><rect fill="#FEFECE" filter="url(#ftd5jqche08rt)" height="60.8047" id="in.ashwanik.pdp.prototype.SpikeHammer" style="stroke: #A80036; stroke-width: 1.5;" width="118" x="387" y="744.9063"/><ellipse cx="402" cy="760.9063" fill="#ADD1B2" rx="11" ry="11" style="stroke: #A80036; stroke-width: 1.0;"/><path d="M404.3438,756.5781 L404.5156,756.6563 C404.7344,756.3438 404.9375,756.25 405.2344,756.25 C405.5313,756.25 405.8125,756.3906 405.9688,756.6563 C406.0625,756.8125 406.0781,756.9375 406.0781,757.375 L406.0781,758.7969 C406.0781,759.2188 406.0469,759.4063 405.9375,759.5625 C405.7656,759.7813 405.5,759.9219 405.2344,759.9219 C405.0156,759.9219 404.7813,759.8125 404.6406,759.6719 C404.5,759.5469 404.4688,759.4219 404.4063,759.0156 C404.3125,758.6094 404.1406,758.3906 403.6563,758.1094 C403.1875,757.8594 402.5781,757.7031 402,757.7031 C400.2656,757.7031 399.0156,759.0156 399.0156,760.7969 L399.0156,761.8906 C399.0156,763.5938 400.3125,764.6875 402.3594,764.6875 C403.125,764.6875 403.8125,764.5625 404.2344,764.2969 C404.4219,764.2031 404.4219,764.2031 404.875,763.7188 C405.0625,763.5313 405.2656,763.4531 405.4844,763.4531 C405.9531,763.4531 406.3438,763.8438 406.3438,764.2969 C406.3438,764.6875 406.0156,765.1406 405.4375,765.5469 C404.6875,766.0938 403.5313,766.3906 402.3125,766.3906 C399.4219,766.3906 397.3125,764.5 397.3125,761.9219 L397.3125,760.7969 C397.3125,758.0781 399.3125,756 401.9375,756 C402.8125,756 403.4063,756.1406 404.3438,756.5781 Z "/><text fill="#000000" font-family="sans-serif" font-size="12" lengthAdjust="spacingAndGlyphs" textLength="86" x="416" y="765.0605">SpikeHammer</text><line style="stroke: #A80036; stroke-width: 1.5;" x1="388" x2="504" y1="776.9063" y2="776.9063"/><line style="stroke: #A80036; stroke-width: 1.5;" x1="388" x2="504" y1="784.9063" y2="784.9063"/><ellipse cx="398" cy="795.9063" fill="#84BE84" rx="3" ry="3" style="stroke: #038048; stroke-width: 1.0;"/><text fill="#000000" font-family="sans-serif" font-size="11" lengthAdjust="spacingAndGlyphs" textLength="88" x="407" y="799.1167">SpikeHammer()</text><!--class in.ashwanik.pdp.prototype.Uruk--><rect fill="#FEFECE" filter="url(#ftd5jqche08rt)" height="99.2188" id="in.ashwanik.pdp.prototype.Uruk" style="stroke: #A80036; stroke-width: 1.5;" width="105" x="535.5" y="572.9063"/><ellipse cx="570.3" cy="588.9063" fill="#ADD1B2" rx="11" ry="11" style="stroke: #A80036; stroke-width: 1.0;"/><path d="M572.6438,584.5781 L572.8156,584.6563 C573.0344,584.3438 573.2375,584.25 573.5344,584.25 C573.8313,584.25 574.1125,584.3906 574.2688,584.6563 C574.3625,584.8125 574.3781,584.9375 574.3781,585.375 L574.3781,586.7969 C574.3781,587.2188 574.3469,587.4063 574.2375,587.5625 C574.0656,587.7813 573.8,587.9219 573.5344,587.9219 C573.3156,587.9219 573.0813,587.8125 572.9406,587.6719 C572.8,587.5469 572.7688,587.4219 572.7063,587.0156 C572.6125,586.6094 572.4406,586.3906 571.9563,586.1094 C571.4875,585.8594 570.8781,585.7031 570.3,585.7031 C568.5656,585.7031 567.3156,587.0156 567.3156,588.7969 L567.3156,589.8906 C567.3156,591.5938 568.6125,592.6875 570.6594,592.6875 C571.425,592.6875 572.1125,592.5625 572.5344,592.2969 C572.7219,592.2031 572.7219,592.2031 573.175,591.7188 C573.3625,591.5313 573.5656,591.4531 573.7844,591.4531 C574.2531,591.4531 574.6438,591.8438 574.6438,592.2969 C574.6438,592.6875 574.3156,593.1406 573.7375,593.5469 C572.9875,594.0938 571.8313,594.3906 570.6125,594.3906 C567.7219,594.3906 565.6125,592.5 565.6125,589.9219 L565.6125,588.7969 C565.6125,586.0781 567.6125,584 570.2375,584 C571.1125,584 571.7063,584.1406 572.6438,584.5781 Z "/><text fill="#000000" font-family="sans-serif" font-size="12" lengthAdjust="spacingAndGlyphs" textLength="29" x="588.7" y="593.0605">Uruk</text><line style="stroke: #A80036; stroke-width: 1.5;" x1="536.5" x2="639.5" y1="604.9063" y2="604.9063"/><ellipse cx="546.5" cy="615.9063" fill="none" rx="3" ry="3" style="stroke: #038048; stroke-width: 1.0;"/><text fill="#000000" font-family="sans-serif" font-size="11" lengthAdjust="spacingAndGlyphs" text-decoration="underline" textLength="76" x="555.5" y="619.1167">URUK : String</text><line style="stroke: #A80036; stroke-width: 1.5;" x1="536.5" x2="639.5" y1="625.7109" y2="625.7109"/><ellipse cx="546.5" cy="636.7109" fill="#84BE84" rx="3" ry="3" style="stroke: #038048; stroke-width: 1.0;"/><text fill="#000000" font-family="sans-serif" font-size="11" lengthAdjust="spacingAndGlyphs" textLength="34" x="555.5" y="639.9214">Uruk()</text><ellipse cx="546.5" cy="649.5156" fill="#84BE84" rx="3" ry="3" style="stroke: #038048; stroke-width: 1.0;"/><text fill="#000000" font-family="sans-serif" font-size="11" lengthAdjust="spacingAndGlyphs" textLength="34" x="555.5" y="652.7261">Uruk()</text><ellipse cx="546.5" cy="662.3203" fill="#84BE84" rx="3" ry="3" style="stroke: #038048; stroke-width: 1.0;"/><text fill="#000000" font-family="sans-serif" font-size="11" lengthAdjust="spacingAndGlyphs" textLength="79" x="555.5" y="665.5308">newInstance()</text><!--class in.ashwanik.pdp.prototype.Weapon--><rect fill="#FEFECE" filter="url(#ftd5jqche08rt)" height="124.8281" id="in.ashwanik.pdp.prototype.Weapon" style="stroke: #A80036; stroke-width: 1.5;" width="155" x="43.5" y="559.9063"/><ellipse cx="91.25" cy="575.9063" fill="#ADD1B2" rx="11" ry="11" style="stroke: #A80036; stroke-width: 1.0;"/><path d="M93.5938,571.5781 L93.7656,571.6563 C93.9844,571.3438 94.1875,571.25 94.4844,571.25 C94.7813,571.25 95.0625,571.3906 95.2188,571.6563 C95.3125,571.8125 95.3281,571.9375 95.3281,572.375 L95.3281,573.7969 C95.3281,574.2188 95.2969,574.4063 95.1875,574.5625 C95.0156,574.7813 94.75,574.9219 94.4844,574.9219 C94.2656,574.9219 94.0313,574.8125 93.8906,574.6719 C93.75,574.5469 93.7188,574.4219 93.6563,574.0156 C93.5625,573.6094 93.3906,573.3906 92.9063,573.1094 C92.4375,572.8594 91.8281,572.7031 91.25,572.7031 C89.5156,572.7031 88.2656,574.0156 88.2656,575.7969 L88.2656,576.8906 C88.2656,578.5938 89.5625,579.6875 91.6094,579.6875 C92.375,579.6875 93.0625,579.5625 93.4844,579.2969 C93.6719,579.2031 93.6719,579.2031 94.125,578.7188 C94.3125,578.5313 94.5156,578.4531 94.7344,578.4531 C95.2031,578.4531 95.5938,578.8438 95.5938,579.2969 C95.5938,579.6875 95.2656,580.1406 94.6875,580.5469 C93.9375,581.0938 92.7813,581.3906 91.5625,581.3906 C88.6719,581.3906 86.5625,579.5 86.5625,576.9219 L86.5625,575.7969 C86.5625,573.0781 88.5625,571 91.1875,571 C92.0625,571 92.6563,571.1406 93.5938,571.5781 Z "/><text fill="#000000" font-family="sans-serif" font-size="12" lengthAdjust="spacingAndGlyphs" textLength="51" x="111.75" y="580.0605">Weapon</text><line style="stroke: #A80036; stroke-width: 1.5;" x1="44.5" x2="197.5" y1="591.9063" y2="591.9063"/><rect fill="none" height="6" style="stroke: #C82930; stroke-width: 1.0;" width="6" x="51.5" y="599.9063"/><text fill="#000000" font-family="sans-serif" font-size="11" lengthAdjust="spacingAndGlyphs" textLength="129" x="63.5" y="606.1167">maximumDamage : int</text><rect fill="none" height="6" style="stroke: #C82930; stroke-width: 1.0;" width="6" x="51.5" y="612.7109"/><text fill="#000000" font-family="sans-serif" font-size="11" lengthAdjust="spacingAndGlyphs" textLength="126" x="63.5" y="618.9214">minimumDamage : int</text><line style="stroke: #A80036; stroke-width: 1.5;" x1="44.5" x2="197.5" y1="625.5156" y2="625.5156"/><ellipse cx="54.5" cy="636.5156" fill="#84BE84" rx="3" ry="3" style="stroke: #038048; stroke-width: 1.0;"/><text fill="#000000" font-family="sans-serif" font-size="11" lengthAdjust="spacingAndGlyphs" textLength="52" x="63.5" y="639.7261">Weapon()</text><ellipse cx="54.5" cy="649.3203" fill="#84BE84" rx="3" ry="3" style="stroke: #038048; stroke-width: 1.0;"/><text fill="#000000" font-family="sans-serif" font-size="11" lengthAdjust="spacingAndGlyphs" textLength="127" x="63.5" y="652.5308">getMaximumDamage()</text><ellipse cx="54.5" cy="662.125" fill="#84BE84" rx="3" ry="3" style="stroke: #038048; stroke-width: 1.0;"/><text fill="#000000" font-family="sans-serif" font-size="11" lengthAdjust="spacingAndGlyphs" textLength="124" x="63.5" y="665.3354">getMinimumDamage()</text><ellipse cx="54.5" cy="674.9297" fill="#84BE84" rx="3" ry="3" style="stroke: #038048; stroke-width: 1.0;"/><text fill="#000000" font-family="sans-serif" font-size="11" lengthAdjust="spacingAndGlyphs" textLength="53" x="63.5" y="678.1401">toString()</text><!--reverse link in.ashwanik.pdp.prototype.Item to in.ashwanik.pdp.prototype.CollectibleItem--><path d="M107.654,284.1553 C108.459,320.7953 109.397,363.4773 110.075,394.3103 " fill="none" id="in.ashwanik.pdp.prototype.Item&lt;-in.ashwanik.pdp.prototype.CollectibleItem" style="stroke: #A80036; stroke-width: 1.0;"/><polygon fill="none" points="100.6516,284.1263,107.21,263.9773,114.648,283.8193,100.6516,284.1263" style="stroke: #A80036; stroke-width: 1.0;"/><!--reverse link in.ashwanik.pdp.prototype.Weapon to in.ashwanik.pdp.prototype.Dagger--><path d="M97.3073,704.7153 C93.1454,718.9983 89.0647,733.0023 85.6659,744.6664 " fill="none" id="in.ashwanik.pdp.prototype.Weapon&lt;-in.ashwanik.pdp.prototype.Dagger" style="stroke: #A80036; stroke-width: 1.0;"/><polygon fill="none" points="90.6609,702.5023,102.9766,685.2593,104.1019,706.4193,90.6609,702.5023" style="stroke: #A80036; stroke-width: 1.0;"/><!--reverse link in.ashwanik.pdp.prototype.Enemy to in.ashwanik.pdp.prototype.DarkElf--><path d="M299.762,520.3222 C299.273,538.2063 298.771,556.5843 298.331,572.6833 " fill="none" id="in.ashwanik.pdp.prototype.Enemy&lt;-in.ashwanik.pdp.prototype.DarkElf" style="stroke: #A80036; stroke-width: 1.0;"/><polygon fill="none" points="292.77,519.9083,300.314,500.1063,306.765,520.2903,292.77,519.9083" style="stroke: #A80036; stroke-width: 1.0;"/><!--reverse link in.ashwanik.pdp.prototype.Character to in.ashwanik.pdp.prototype.Enemy--><path d="M298.441,335.1933 C298.924,348.9223 299.398,362.4043 299.835,374.8273 " fill="none" id="in.ashwanik.pdp.prototype.Character&lt;-in.ashwanik.pdp.prototype.Enemy" style="stroke: #A80036; stroke-width: 1.0;"/><polygon fill="none" points="291.438,335.2303,297.731,314.9963,305.429,334.7383,291.438,335.2303" style="stroke: #A80036; stroke-width: 1.0;"/><!--reverse link in.ashwanik.pdp.prototype.Weapon to in.ashwanik.pdp.prototype.LongSword--><path d="M163.303,703.2543 C171.137,718.0413 178.853,732.6043 185.244,744.6664 " fill="none" id="in.ashwanik.pdp.prototype.Weapon&lt;-in.ashwanik.pdp.prototype.LongSword" style="stroke: #A80036; stroke-width: 1.0;"/><polygon fill="none" points="156.948,706.2093,153.77,685.2593,169.319,699.6553,156.948,706.2093" style="stroke: #A80036; stroke-width: 1.0;"/><!--reverse link in.ashwanik.pdp.prototype.Weapon to in.ashwanik.pdp.prototype.Mace--><path d="M214.629,694.8103 C240.436,714.4913 266.731,734.5453 286.472,749.5999 " fill="none" id="in.ashwanik.pdp.prototype.Weapon&lt;-in.ashwanik.pdp.prototype.Mace" style="stroke: #A80036; stroke-width: 1.0;"/><polygon fill="none" points="210.345,700.3463,198.687,682.6523,218.835,689.2143,210.345,700.3463" style="stroke: #A80036; stroke-width: 1.0;"/><!--reverse link in.ashwanik.pdp.prototype.Enemy to in.ashwanik.pdp.prototype.Orc--><path d="M363.892,515.9833 C379.233,535.2113 395.243,555.2793 409.128,572.6833 " fill="none" id="in.ashwanik.pdp.prototype.Enemy&lt;-in.ashwanik.pdp.prototype.Orc" style="stroke: #A80036; stroke-width: 1.0;"/><polygon fill="none" points="358.227,520.1063,351.225,500.1063,369.17,511.3753,358.227,520.1063" style="stroke: #A80036; stroke-width: 1.0;"/><!--reverse link in.ashwanik.pdp.prototype.Weapon to in.ashwanik.pdp.prototype.SpikeHammer--><path d="M216.706,683.9883 C255.499,701.1563 332.288,730.7742 386.866,751.7385 " fill="none" id="in.ashwanik.pdp.prototype.Weapon&lt;-in.ashwanik.pdp.prototype.SpikeHammer" style="stroke: #A80036; stroke-width: 1.0;"/><polygon fill="none" points="213.611,690.2683,198.531,675.3823,219.603,677.6153,213.611,690.2683" style="stroke: #A80036; stroke-width: 1.0;"/><!--reverse link in.ashwanik.pdp.prototype.Enemy to in.ashwanik.pdp.prototype.Uruk--><path d="M375.938,493.7763 C379.302,495.9023 382.665,497.9553 386,499.9063 C441.625,532.4453 463.876,524.9282 518,559.9063 C523.978,563.7693 529.969,568.1212 535.792,572.6803 " fill="none" id="in.ashwanik.pdp.prototype.Enemy&lt;-in.ashwanik.pdp.prototype.Uruk" style="stroke: #A80036; stroke-width: 1.0;"/><polygon fill="none" points="372.029,499.5833,359.241,482.6873,379.774,487.9213,372.029,499.5833" style="stroke: #A80036; stroke-width: 1.0;"/><!--reverse link in.ashwanik.pdp.prototype.CollectibleItem to in.ashwanik.pdp.prototype.Weapon--><path d="M114.417,500.9433 C115.456,519.9523 116.596,540.8203 117.632,559.7693 " fill="none" id="in.ashwanik.pdp.prototype.CollectibleItem&lt;-in.ashwanik.pdp.prototype.Weapon" style="stroke: #A80036; stroke-width: 1.0;"/><polygon fill="none" points="107.421,501.2023,113.319,480.8503,121.4,500.4383,107.421,501.2023" style="stroke: #A80036; stroke-width: 1.0;"/><!--link in.ashwanik.pdp.prototype.Armoury to in.ashwanik.pdp.prototype.EnemyFactory--><!--link in.ashwanik.pdp.prototype.Armoury to in.ashwanik.pdp.prototype.Game--><!--
@startuml
title __PROTOTYPE__\n

  namespace in.ashwanik.pdp.prototype {
    class in.ashwanik.pdp.prototype.Armoury {
        {static} - armoury : Armoury
        {static} - random : Random
        - weapons : List<Weapon>
        {static} + fill()
        {static} + getRandomWeapon()
        {static} + getWeapons()
        + numberOfWeapons()
        - Armoury()
        {static} - get()
    }
  }
  

  namespace in.ashwanik.pdp.prototype {
    class in.ashwanik.pdp.prototype.Character {
        - description : String
        - health : int
        - name : String
        - weapons : List<Weapon>
        + Character()
        + attack()
        + changeHealth()
        + getDescription()
        + getHealth()
        + getName()
        + getWeapons()
        + hasWeapon()
        + isDead()
    }
  }
  

  namespace in.ashwanik.pdp.prototype {
    class in.ashwanik.pdp.prototype.CollectibleItem {
        - weight : int
        + CollectibleItem()
        + getWeight()
    }
  }
  

  namespace in.ashwanik.pdp.prototype {
    class in.ashwanik.pdp.prototype.Dagger {
        + Dagger()
    }
  }
  

  namespace in.ashwanik.pdp.prototype {
    class in.ashwanik.pdp.prototype.DarkElf {
        {static} + DARK_ELF : String
        + DarkElf()
        + DarkElf()
        + newInstance()
    }
  }
  

  namespace in.ashwanik.pdp.prototype {
    abstract class in.ashwanik.pdp.prototype.Enemy {
        - experience : int
        + Enemy()
        + Enemy()
        + changeHealth()
        + getExperience()
        {abstract} + newInstance()
    }
  }
  

  namespace in.ashwanik.pdp.prototype {
    class in.ashwanik.pdp.prototype.EnemyFactory {
        - enemies : Map<String, Enemy>
        {static} - enemyTypes : String[]
        {static} - instance : EnemyFactory
        - random : Random
        {static} + getRandomEnemy()
        {static} + init()
        - EnemyFactory()
    }
  }
  

  namespace in.ashwanik.pdp.prototype {
    class in.ashwanik.pdp.prototype.Game {
        - characters : List<Character>
        + Game()
        + getCharacters()
    }
  }
  

  namespace in.ashwanik.pdp.prototype {
    class in.ashwanik.pdp.prototype.Item {
        - description : String
        - name : String
        + Item()
        + getDescription()
        + getName()
    }
  }
  

  namespace in.ashwanik.pdp.prototype {
    class in.ashwanik.pdp.prototype.LongSword {
        + LongSword()
    }
  }
  

  namespace in.ashwanik.pdp.prototype {
    class in.ashwanik.pdp.prototype.Mace {
        + Mace()
    }
  }
  

  namespace in.ashwanik.pdp.prototype {
    class in.ashwanik.pdp.prototype.Orc {
        {static} + ORC : String
        + Orc()
        + Orc()
        + newInstance()
    }
  }
  

  namespace in.ashwanik.pdp.prototype {
    class in.ashwanik.pdp.prototype.SpikeHammer {
        + SpikeHammer()
    }
  }
  

  namespace in.ashwanik.pdp.prototype {
    class in.ashwanik.pdp.prototype.Uruk {
        {static} + URUK : String
        + Uruk()
        + Uruk()
        + newInstance()
    }
  }
  

  namespace in.ashwanik.pdp.prototype {
    class in.ashwanik.pdp.prototype.Weapon {
        - maximumDamage : int
        - minimumDamage : int
        + Weapon()
        + getMaximumDamage()
        + getMinimumDamage()
        + toString()
    }
  }
  

  in.ashwanik.pdp.prototype.CollectibleItem -up-|> in.ashwanik.pdp.prototype.Item
  in.ashwanik.pdp.prototype.Dagger -up-|> in.ashwanik.pdp.prototype.Weapon
  in.ashwanik.pdp.prototype.DarkElf -up-|> in.ashwanik.pdp.prototype.Enemy
  in.ashwanik.pdp.prototype.Enemy -up-|> in.ashwanik.pdp.prototype.Character
  in.ashwanik.pdp.prototype.LongSword -up-|> in.ashwanik.pdp.prototype.Weapon
  in.ashwanik.pdp.prototype.Mace -up-|> in.ashwanik.pdp.prototype.Weapon
  in.ashwanik.pdp.prototype.Orc -up-|> in.ashwanik.pdp.prototype.Enemy
  in.ashwanik.pdp.prototype.SpikeHammer -up-|> in.ashwanik.pdp.prototype.Weapon
  in.ashwanik.pdp.prototype.Uruk -up-|> in.ashwanik.pdp.prototype.Enemy
  in.ashwanik.pdp.prototype.Weapon -up-|> in.ashwanik.pdp.prototype.CollectibleItem
@enduml

PlantUML version 1.2019.10beta5(Unknown compile time)
(GPL source distribution)
Java Runtime: Java(TM) SE Runtime Environment
JVM: Java HotSpot(TM) 64-Bit Server VM
Java Version: 1.7.0_25-b15
Operating System: Linux
Default Encoding: UTF-8
Language: en
Country: US
--></g></svg>