<?xml version="1.0" encoding="UTF-8" standalone="no"?>
<svg xmlns="http://www.w3.org/2000/svg" xmlns:xlink="http://www.w3.org/1999/xlink" contentScriptType="application/ecmascript" contentStyleType="text/css" height="740px" preserveAspectRatio="none" style="width:524px;height:740px;" version="1.1" viewBox="0 0 524 740" width="524px" zoomAndPan="magnify"><defs><filter height="300%" id="f1uucgcj2q0p23" width="300%" x="-1" y="-1"><feGaussianBlur result="blurOut" stdDeviation="2.0"/><feColorMatrix in="blurOut" result="blurOut2" type="matrix" values="0 0 0 0 0 0 0 0 0 0 0 0 0 0 0 0 0 0 .4 0"/><feOffset dx="4.0" dy="4.0" in="blurOut2" result="blurOut3"/><feBlend in="SourceGraphic" in2="blurOut3" mode="normal"/></filter></defs><g><text fill="#000000" font-family="sans-serif" font-size="18" lengthAdjust="spacingAndGlyphs" text-decoration="underline" textLength="63" x="236.5" y="16.708">PROXY</text><text fill="#000000" font-family="sans-serif" font-size="18" lengthAdjust="spacingAndGlyphs" textLength="0" x="271" y="37.6611"/><!--MD5=[f6a383f9b220773d9f4494da1c2014fd]
cluster in.ashwanik.pdp.proxy--><polygon fill="#FFFFFF" filter="url(#f1uucgcj2q0p23)" points="22,65.9063,206,65.9063,213,88.2031,502,88.2031,502,728.9063,22,728.9063,22,65.9063" style="stroke: #000000; stroke-width: 1.5;"/><line style="stroke: #000000; stroke-width: 1.5;" x1="22" x2="213" y1="88.2031" y2="88.2031"/><text fill="#000000" font-family="sans-serif" font-size="14" font-weight="bold" lengthAdjust="spacingAndGlyphs" textLength="178" x="26" y="80.9014">in.ashwanik.pdp.proxy</text><!--MD5=[2d141f89dadb7da20e264cb891b12910]
class in.ashwanik.pdp.proxy.DatabaseConnection--><rect fill="#FEFECE" filter="url(#f1uucgcj2q0p23)" height="73.6094" id="in.ashwanik.pdp.proxy.DatabaseConnection" style="stroke: #A80036; stroke-width: 1.5;" width="164" x="223" y="638.9063"/><ellipse cx="238" cy="654.9063" fill="#ADD1B2" rx="11" ry="11" style="stroke: #A80036; stroke-width: 1.0;"/><path d="M240.3438,650.5781 L240.5156,650.6563 C240.7344,650.3438 240.9375,650.25 241.2344,650.25 C241.5313,650.25 241.8125,650.3906 241.9688,650.6563 C242.0625,650.8125 242.0781,650.9375 242.0781,651.375 L242.0781,652.7969 C242.0781,653.2188 242.0469,653.4063 241.9375,653.5625 C241.7656,653.7813 241.5,653.9219 241.2344,653.9219 C241.0156,653.9219 240.7813,653.8125 240.6406,653.6719 C240.5,653.5469 240.4688,653.4219 240.4063,653.0156 C240.3125,652.6094 240.1406,652.3906 239.6563,652.1094 C239.1875,651.8594 238.5781,651.7031 238,651.7031 C236.2656,651.7031 235.0156,653.0156 235.0156,654.7969 L235.0156,655.8906 C235.0156,657.5938 236.3125,658.6875 238.3594,658.6875 C239.125,658.6875 239.8125,658.5625 240.2344,658.2969 C240.4219,658.2031 240.4219,658.2031 240.875,657.7188 C241.0625,657.5313 241.2656,657.4531 241.4844,657.4531 C241.9531,657.4531 242.3438,657.8438 242.3438,658.2969 C242.3438,658.6875 242.0156,659.1406 241.4375,659.5469 C240.6875,660.0938 239.5313,660.3906 238.3125,660.3906 C235.4219,660.3906 233.3125,658.5 233.3125,655.9219 L233.3125,654.7969 C233.3125,652.0781 235.3125,650 237.9375,650 C238.8125,650 239.4063,650.1406 240.3438,650.5781 Z "/><text fill="#000000" font-family="sans-serif" font-size="12" lengthAdjust="spacingAndGlyphs" textLength="132" x="252" y="659.0605">DatabaseConnection</text><line style="stroke: #A80036; stroke-width: 1.5;" x1="224" x2="386" y1="670.9063" y2="670.9063"/><line style="stroke: #A80036; stroke-width: 1.5;" x1="224" x2="386" y1="678.9063" y2="678.9063"/><ellipse cx="234" cy="689.9063" fill="#84BE84" rx="3" ry="3" style="stroke: #038048; stroke-width: 1.0;"/><text fill="#000000" font-family="sans-serif" font-size="11" lengthAdjust="spacingAndGlyphs" textLength="26" x="243" y="693.1167">get()</text><ellipse cx="234" cy="702.7109" fill="#84BE84" rx="3" ry="3" style="stroke: #038048; stroke-width: 1.0;"/><text fill="#000000" font-family="sans-serif" font-size="11" lengthAdjust="spacingAndGlyphs" textLength="46" x="243" y="705.9214">getList()</text><!--MD5=[398bad8ca56b088cea64378154c315c4]
class in.ashwanik.pdp.proxy.DbConnectionPool--><rect fill="#FEFECE" filter="url(#f1uucgcj2q0p23)" height="60.8047" id="in.ashwanik.pdp.proxy.DbConnectionPool" style="stroke: #A80036; stroke-width: 1.5;" width="147" x="177.5" y="151.9063"/><ellipse cx="192.5" cy="167.9063" fill="#ADD1B2" rx="11" ry="11" style="stroke: #A80036; stroke-width: 1.0;"/><path d="M194.8438,163.5781 L195.0156,163.6563 C195.2344,163.3438 195.4375,163.25 195.7344,163.25 C196.0313,163.25 196.3125,163.3906 196.4688,163.6563 C196.5625,163.8125 196.5781,163.9375 196.5781,164.375 L196.5781,165.7969 C196.5781,166.2188 196.5469,166.4063 196.4375,166.5625 C196.2656,166.7813 196,166.9219 195.7344,166.9219 C195.5156,166.9219 195.2813,166.8125 195.1406,166.6719 C195,166.5469 194.9688,166.4219 194.9063,166.0156 C194.8125,165.6094 194.6406,165.3906 194.1563,165.1094 C193.6875,164.8594 193.0781,164.7031 192.5,164.7031 C190.7656,164.7031 189.5156,166.0156 189.5156,167.7969 L189.5156,168.8906 C189.5156,170.5938 190.8125,171.6875 192.8594,171.6875 C193.625,171.6875 194.3125,171.5625 194.7344,171.2969 C194.9219,171.2031 194.9219,171.2031 195.375,170.7188 C195.5625,170.5313 195.7656,170.4531 195.9844,170.4531 C196.4531,170.4531 196.8438,170.8438 196.8438,171.2969 C196.8438,171.6875 196.5156,172.1406 195.9375,172.5469 C195.1875,173.0938 194.0313,173.3906 192.8125,173.3906 C189.9219,173.3906 187.8125,171.5 187.8125,168.9219 L187.8125,167.7969 C187.8125,165.0781 189.8125,163 192.4375,163 C193.3125,163 193.9063,163.1406 194.8438,163.5781 Z "/><text fill="#000000" font-family="sans-serif" font-size="12" lengthAdjust="spacingAndGlyphs" textLength="115" x="206.5" y="172.0605">DbConnectionPool</text><line style="stroke: #A80036; stroke-width: 1.5;" x1="178.5" x2="323.5" y1="183.9063" y2="183.9063"/><line style="stroke: #A80036; stroke-width: 1.5;" x1="178.5" x2="323.5" y1="191.9063" y2="191.9063"/><ellipse cx="188.5" cy="202.9063" fill="#84BE84" rx="3" ry="3" style="stroke: #038048; stroke-width: 1.0;"/><text fill="#000000" font-family="sans-serif" font-size="11" lengthAdjust="spacingAndGlyphs" text-decoration="underline" textLength="94" x="197.5" y="206.1167">newConnection()</text><!--MD5=[1b895ecedb1ced0e7ce60a2d4e77f961]
class in.ashwanik.pdp.proxy.User--><rect fill="#FEFECE" filter="url(#f1uucgcj2q0p23)" height="163.2422" id="in.ashwanik.pdp.proxy.User" style="stroke: #A80036; stroke-width: 1.5;" width="104" x="38" y="100.9063"/><ellipse cx="72.35" cy="116.9063" fill="#ADD1B2" rx="11" ry="11" style="stroke: #A80036; stroke-width: 1.0;"/><path d="M74.6938,112.5781 L74.8656,112.6563 C75.0844,112.3438 75.2875,112.25 75.5844,112.25 C75.8813,112.25 76.1625,112.3906 76.3188,112.6563 C76.4125,112.8125 76.4281,112.9375 76.4281,113.375 L76.4281,114.7969 C76.4281,115.2188 76.3969,115.4063 76.2875,115.5625 C76.1156,115.7813 75.85,115.9219 75.5844,115.9219 C75.3656,115.9219 75.1313,115.8125 74.9906,115.6719 C74.85,115.5469 74.8188,115.4219 74.7563,115.0156 C74.6625,114.6094 74.4906,114.3906 74.0063,114.1094 C73.5375,113.8594 72.9281,113.7031 72.35,113.7031 C70.6156,113.7031 69.3656,115.0156 69.3656,116.7969 L69.3656,117.8906 C69.3656,119.5938 70.6625,120.6875 72.7094,120.6875 C73.475,120.6875 74.1625,120.5625 74.5844,120.2969 C74.7719,120.2031 74.7719,120.2031 75.225,119.7188 C75.4125,119.5313 75.6156,119.4531 75.8344,119.4531 C76.3031,119.4531 76.6938,119.8438 76.6938,120.2969 C76.6938,120.6875 76.3656,121.1406 75.7875,121.5469 C75.0375,122.0938 73.8813,122.3906 72.6625,122.3906 C69.7719,122.3906 67.6625,120.5 67.6625,117.9219 L67.6625,116.7969 C67.6625,114.0781 69.6625,112 72.2875,112 C73.1625,112 73.7563,112.1406 74.6938,112.5781 Z "/><text fill="#000000" font-family="sans-serif" font-size="12" lengthAdjust="spacingAndGlyphs" textLength="29" x="90.65" y="121.0605">User</text><line style="stroke: #A80036; stroke-width: 1.5;" x1="39" x2="141" y1="132.9063" y2="132.9063"/><rect fill="none" height="6" style="stroke: #C82930; stroke-width: 1.0;" width="6" x="46" y="140.9063"/><text fill="#000000" font-family="sans-serif" font-size="11" lengthAdjust="spacingAndGlyphs" textLength="77" x="58" y="147.1167">email : String</text><rect fill="none" height="6" style="stroke: #C82930; stroke-width: 1.0;" width="6" x="46" y="153.7109"/><text fill="#000000" font-family="sans-serif" font-size="11" lengthAdjust="spacingAndGlyphs" textLength="46" x="58" y="159.9214">id : long</text><rect fill="none" height="6" style="stroke: #C82930; stroke-width: 1.0;" width="6" x="46" y="166.5156"/><text fill="#000000" font-family="sans-serif" font-size="11" lengthAdjust="spacingAndGlyphs" textLength="78" x="58" y="172.7261">name : String</text><line style="stroke: #A80036; stroke-width: 1.5;" x1="39" x2="141" y1="179.3203" y2="179.3203"/><ellipse cx="49" cy="190.3203" fill="#84BE84" rx="3" ry="3" style="stroke: #038048; stroke-width: 1.0;"/><text fill="#000000" font-family="sans-serif" font-size="11" lengthAdjust="spacingAndGlyphs" textLength="57" x="58" y="193.5308">getEmail()</text><ellipse cx="49" cy="203.125" fill="#84BE84" rx="3" ry="3" style="stroke: #038048; stroke-width: 1.0;"/><text fill="#000000" font-family="sans-serif" font-size="11" lengthAdjust="spacingAndGlyphs" textLength="36" x="58" y="206.3354">getId()</text><ellipse cx="49" cy="215.9297" fill="#84BE84" rx="3" ry="3" style="stroke: #038048; stroke-width: 1.0;"/><text fill="#000000" font-family="sans-serif" font-size="11" lengthAdjust="spacingAndGlyphs" textLength="59" x="58" y="219.1401">getName()</text><ellipse cx="49" cy="228.7344" fill="#84BE84" rx="3" ry="3" style="stroke: #038048; stroke-width: 1.0;"/><text fill="#000000" font-family="sans-serif" font-size="11" lengthAdjust="spacingAndGlyphs" textLength="57" x="58" y="231.9448">setEmail()</text><ellipse cx="49" cy="241.5391" fill="#84BE84" rx="3" ry="3" style="stroke: #038048; stroke-width: 1.0;"/><text fill="#000000" font-family="sans-serif" font-size="11" lengthAdjust="spacingAndGlyphs" textLength="36" x="58" y="244.7495">setId()</text><ellipse cx="49" cy="254.3438" fill="#84BE84" rx="3" ry="3" style="stroke: #038048; stroke-width: 1.0;"/><text fill="#000000" font-family="sans-serif" font-size="11" lengthAdjust="spacingAndGlyphs" textLength="59" x="58" y="257.5542">setName()</text><!--MD5=[f2d07dcb4e1988aa6f574cc8441c0881]
class in.ashwanik.pdp.proxy.UserRepository--><rect fill="#FEFECE" filter="url(#f1uucgcj2q0p23)" height="73.6094" id="in.ashwanik.pdp.proxy.UserRepository" style="stroke: #A80036; stroke-width: 1.5;" width="126" x="360" y="145.4063"/><ellipse cx="375" cy="161.4063" fill="#B4A7E5" rx="11" ry="11" style="stroke: #A80036; stroke-width: 1.0;"/><path d="M375.9531,158.1875 L375.9531,164.7031 L377.6719,164.7031 C378.125,164.7031 378.2656,164.7344 378.4375,164.8594 C378.6719,165.0313 378.7813,165.2813 378.7813,165.5625 C378.7813,166.125 378.4219,166.4063 377.6719,166.4063 L372.5313,166.4063 C372.125,166.4063 371.9219,166.3594 371.7656,166.2344 C371.5469,166.0781 371.4063,165.8125 371.4063,165.5625 C371.4063,165.2656 371.5625,164.9844 371.8125,164.8281 C371.9688,164.7188 372.0938,164.7031 372.5313,164.7031 L374.25,164.7031 L374.25,158.1875 L372.5313,158.1875 C372.1094,158.1875 371.9219,158.1563 371.7656,158.0469 C371.5469,157.875 371.4063,157.625 371.4063,157.3438 C371.4063,157.0625 371.5625,156.7656 371.8125,156.6094 C371.9688,156.5156 372.0938,156.5 372.5313,156.5 L377.6719,156.5 C378.125,156.5 378.2656,156.5313 378.4375,156.6406 C378.6719,156.8125 378.7813,157.0781 378.7813,157.3438 C378.7813,157.6406 378.6406,157.9219 378.375,158.0781 C378.25,158.1563 378.0625,158.1875 377.6719,158.1875 Z "/><text fill="#000000" font-family="sans-serif" font-size="12" font-style="italic" lengthAdjust="spacingAndGlyphs" textLength="94" x="389" y="165.5605">UserRepository</text><line style="stroke: #A80036; stroke-width: 1.5;" x1="361" x2="485" y1="177.4063" y2="177.4063"/><line style="stroke: #A80036; stroke-width: 1.5;" x1="361" x2="485" y1="185.4063" y2="185.4063"/><ellipse cx="371" cy="196.4063" fill="#84BE84" rx="3" ry="3" style="stroke: #038048; stroke-width: 1.0;"/><text fill="#000000" font-family="sans-serif" font-size="11" font-style="italic" lengthAdjust="spacingAndGlyphs" textLength="52" x="380" y="199.6167">getUser()</text><ellipse cx="371" cy="209.2109" fill="#84BE84" rx="3" ry="3" style="stroke: #038048; stroke-width: 1.0;"/><text fill="#000000" font-family="sans-serif" font-size="11" font-style="italic" lengthAdjust="spacingAndGlyphs" textLength="58" x="380" y="212.4214">getUsers()</text><!--MD5=[b2001e6689769914ea0f8a097cb93d17]
class in.ashwanik.pdp.proxy.UserRepositoryImpl--><rect fill="#FEFECE" filter="url(#f1uucgcj2q0p23)" height="86.4141" id="in.ashwanik.pdp.proxy.UserRepositoryImpl" style="stroke: #A80036; stroke-width: 1.5;" width="152" x="229" y="475.9063"/><ellipse cx="244" cy="491.9063" fill="#ADD1B2" rx="11" ry="11" style="stroke: #A80036; stroke-width: 1.0;"/><path d="M246.3438,487.5781 L246.5156,487.6563 C246.7344,487.3438 246.9375,487.25 247.2344,487.25 C247.5313,487.25 247.8125,487.3906 247.9688,487.6563 C248.0625,487.8125 248.0781,487.9375 248.0781,488.375 L248.0781,489.7969 C248.0781,490.2188 248.0469,490.4063 247.9375,490.5625 C247.7656,490.7813 247.5,490.9219 247.2344,490.9219 C247.0156,490.9219 246.7813,490.8125 246.6406,490.6719 C246.5,490.5469 246.4688,490.4219 246.4063,490.0156 C246.3125,489.6094 246.1406,489.3906 245.6563,489.1094 C245.1875,488.8594 244.5781,488.7031 244,488.7031 C242.2656,488.7031 241.0156,490.0156 241.0156,491.7969 L241.0156,492.8906 C241.0156,494.5938 242.3125,495.6875 244.3594,495.6875 C245.125,495.6875 245.8125,495.5625 246.2344,495.2969 C246.4219,495.2031 246.4219,495.2031 246.875,494.7188 C247.0625,494.5313 247.2656,494.4531 247.4844,494.4531 C247.9531,494.4531 248.3438,494.8438 248.3438,495.2969 C248.3438,495.6875 248.0156,496.1406 247.4375,496.5469 C246.6875,497.0938 245.5313,497.3906 244.3125,497.3906 C241.4219,497.3906 239.3125,495.5 239.3125,492.9219 L239.3125,491.7969 C239.3125,489.0781 241.3125,487 243.9375,487 C244.8125,487 245.4063,487.1406 246.3438,487.5781 Z "/><text fill="#000000" font-family="sans-serif" font-size="12" lengthAdjust="spacingAndGlyphs" textLength="120" x="258" y="496.0605">UserRepositoryImpl</text><line style="stroke: #A80036; stroke-width: 1.5;" x1="230" x2="380" y1="507.9063" y2="507.9063"/><line style="stroke: #A80036; stroke-width: 1.5;" x1="230" x2="380" y1="515.9063" y2="515.9063"/><ellipse cx="240" cy="526.9063" fill="#84BE84" rx="3" ry="3" style="stroke: #038048; stroke-width: 1.0;"/><text fill="#000000" font-family="sans-serif" font-size="11" lengthAdjust="spacingAndGlyphs" textLength="119" x="249" y="530.1167">UserRepositoryImpl()</text><ellipse cx="240" cy="539.7109" fill="#84BE84" rx="3" ry="3" style="stroke: #038048; stroke-width: 1.0;"/><text fill="#000000" font-family="sans-serif" font-size="11" lengthAdjust="spacingAndGlyphs" textLength="53" x="249" y="542.9214">getUser()</text><ellipse cx="240" cy="552.5156" fill="#84BE84" rx="3" ry="3" style="stroke: #038048; stroke-width: 1.0;"/><text fill="#000000" font-family="sans-serif" font-size="11" lengthAdjust="spacingAndGlyphs" textLength="60" x="249" y="555.7261">getUsers()</text><!--MD5=[1f164d581c02616fcf6c1867454a0922]
class in.ashwanik.pdp.proxy.UserRepositoryImplProxy--><rect fill="#FEFECE" filter="url(#f1uucgcj2q0p23)" height="73.6094" id="in.ashwanik.pdp.proxy.UserRepositoryImplProxy" style="stroke: #A80036; stroke-width: 1.5;" width="185" x="300.5" y="324.9063"/><ellipse cx="315.5" cy="340.9063" fill="#ADD1B2" rx="11" ry="11" style="stroke: #A80036; stroke-width: 1.0;"/><path d="M317.8438,336.5781 L318.0156,336.6563 C318.2344,336.3438 318.4375,336.25 318.7344,336.25 C319.0313,336.25 319.3125,336.3906 319.4688,336.6563 C319.5625,336.8125 319.5781,336.9375 319.5781,337.375 L319.5781,338.7969 C319.5781,339.2188 319.5469,339.4063 319.4375,339.5625 C319.2656,339.7813 319,339.9219 318.7344,339.9219 C318.5156,339.9219 318.2813,339.8125 318.1406,339.6719 C318,339.5469 317.9688,339.4219 317.9063,339.0156 C317.8125,338.6094 317.6406,338.3906 317.1563,338.1094 C316.6875,337.8594 316.0781,337.7031 315.5,337.7031 C313.7656,337.7031 312.5156,339.0156 312.5156,340.7969 L312.5156,341.8906 C312.5156,343.5938 313.8125,344.6875 315.8594,344.6875 C316.625,344.6875 317.3125,344.5625 317.7344,344.2969 C317.9219,344.2031 317.9219,344.2031 318.375,343.7188 C318.5625,343.5313 318.7656,343.4531 318.9844,343.4531 C319.4531,343.4531 319.8438,343.8438 319.8438,344.2969 C319.8438,344.6875 319.5156,345.1406 318.9375,345.5469 C318.1875,346.0938 317.0313,346.3906 315.8125,346.3906 C312.9219,346.3906 310.8125,344.5 310.8125,341.9219 L310.8125,340.7969 C310.8125,338.0781 312.8125,336 315.4375,336 C316.3125,336 316.9063,336.1406 317.8438,336.5781 Z "/><text fill="#000000" font-family="sans-serif" font-size="12" lengthAdjust="spacingAndGlyphs" textLength="153" x="329.5" y="345.0605">UserRepositoryImplProxy</text><line style="stroke: #A80036; stroke-width: 1.5;" x1="301.5" x2="484.5" y1="356.9063" y2="356.9063"/><line style="stroke: #A80036; stroke-width: 1.5;" x1="301.5" x2="484.5" y1="364.9063" y2="364.9063"/><ellipse cx="311.5" cy="375.9063" fill="#84BE84" rx="3" ry="3" style="stroke: #038048; stroke-width: 1.0;"/><text fill="#000000" font-family="sans-serif" font-size="11" lengthAdjust="spacingAndGlyphs" textLength="53" x="320.5" y="379.1167">getUser()</text><ellipse cx="311.5" cy="388.7109" fill="#84BE84" rx="3" ry="3" style="stroke: #038048; stroke-width: 1.0;"/><text fill="#000000" font-family="sans-serif" font-size="11" lengthAdjust="spacingAndGlyphs" textLength="60" x="320.5" y="391.9214">getUsers()</text><!--MD5=[01ad3d741388821180109e29381649db]
reverse link in.ashwanik.pdp.proxy.UserRepository to in.ashwanik.pdp.proxy.UserRepositoryImpl--><path d="M372.348,233.7113 C332.773,273.1543 284.241,321.8883 283,324.9063 C262.869,373.8763 275.704,435.3713 288.642,475.6103 " fill="none" id="in.ashwanik.pdp.proxy.UserRepository&lt;-in.ashwanik.pdp.proxy.UserRepositoryImpl" style="stroke: #A80036; stroke-width: 1.0; stroke-dasharray: 7.0,7.0;"/><polygon fill="none" points="367.577,228.5843,386.689,219.4343,377.455,238.5053,367.577,228.5843" style="stroke: #A80036; stroke-width: 1.0;"/><!--MD5=[0a1408571703189a59c783eb30294aea]
reverse link in.ashwanik.pdp.proxy.UserRepositoryImpl to in.ashwanik.pdp.proxy.DatabaseConnection--><path d="M305,575.3393 C305,596.3923 305,619.8153 305,638.6513 " fill="none" id="in.ashwanik.pdp.proxy.UserRepositoryImpl&lt;-in.ashwanik.pdp.proxy.DatabaseConnection" style="stroke: #A80036; stroke-width: 1.0;"/><polygon fill="#FFFFFF" points="305,562.2603,301,568.2603,305,574.2603,309,568.2603,305,562.2603" style="stroke: #A80036; stroke-width: 1.0;"/><text fill="#000000" font-family="sans-serif" font-size="13" lengthAdjust="spacingAndGlyphs" textLength="70" x="306" y="604.9731">connection</text><!--MD5=[d74cc0712f02510e8bf391d60599a05d]
reverse link in.ashwanik.pdp.proxy.UserRepository to in.ashwanik.pdp.proxy.UserRepositoryImplProxy--><path d="M413.467,239.8083 C408.776,267.5633 403.259,300.2093 399.135,324.6073 " fill="none" id="in.ashwanik.pdp.proxy.UserRepository&lt;-in.ashwanik.pdp.proxy.UserRepositoryImplProxy" style="stroke: #A80036; stroke-width: 1.0; stroke-dasharray: 7.0,7.0;"/><polygon fill="none" points="406.621,238.3083,416.857,219.7542,420.426,240.6413,406.621,238.3083" style="stroke: #A80036; stroke-width: 1.0;"/><!--MD5=[1eb7129ca26605cc7a0e5f4819aa9e96]
reverse link in.ashwanik.pdp.proxy.UserRepositoryImplProxy to in.ashwanik.pdp.proxy.UserRepositoryImpl--><path d="M365.853,410.7213 C354.052,431.5083 340.344,455.6523 328.93,475.7563 " fill="none" id="in.ashwanik.pdp.proxy.UserRepositoryImplProxy&lt;-in.ashwanik.pdp.proxy.UserRepositoryImpl" style="stroke: #A80036; stroke-width: 1.0;"/><polygon fill="#FFFFFF" points="372.368,399.2473,365.9271,402.4898,366.4429,409.6824,372.8838,406.4399,372.368,399.2473" style="stroke: #A80036; stroke-width: 1.0;"/><text fill="#000000" font-family="sans-serif" font-size="13" lengthAdjust="spacingAndGlyphs" textLength="95" x="355" y="441.9731">userRepository</text><!--MD5=[43258483a7aa1ddc453131432092ed70]
@startuml
title __PROXY__\n

  namespace in.ashwanik.pdp.proxy {
    class in.ashwanik.pdp.proxy.DatabaseConnection {
        + get()
        + getList()
    }
  }
  

  namespace in.ashwanik.pdp.proxy {
    class in.ashwanik.pdp.proxy.DbConnectionPool {
        {static} + newConnection()
    }
  }
  

  namespace in.ashwanik.pdp.proxy {
    class in.ashwanik.pdp.proxy.User {
        - email : String
        - id : long
        - name : String
        + getEmail()
        + getId()
        + getName()
        + setEmail()
        + setId()
        + setName()
    }
  }
  

  namespace in.ashwanik.pdp.proxy {
    interface in.ashwanik.pdp.proxy.UserRepository {
        {abstract} + getUser()
        {abstract} + getUsers()
    }
  }
  

  namespace in.ashwanik.pdp.proxy {
    class in.ashwanik.pdp.proxy.UserRepositoryImpl {
        + UserRepositoryImpl()
        + getUser()
        + getUsers()
    }
  }
  

  namespace in.ashwanik.pdp.proxy {
    class in.ashwanik.pdp.proxy.UserRepositoryImplProxy {
        + getUser()
        + getUsers()
    }
  }
  

  in.ashwanik.pdp.proxy.UserRepositoryImpl .up.|> in.ashwanik.pdp.proxy.UserRepository
  in.ashwanik.pdp.proxy.UserRepositoryImpl o- - in.ashwanik.pdp.proxy.DatabaseConnection : connection
  in.ashwanik.pdp.proxy.UserRepositoryImplProxy .up.|> in.ashwanik.pdp.proxy.UserRepository
  in.ashwanik.pdp.proxy.UserRepositoryImplProxy o- - in.ashwanik.pdp.proxy.UserRepositoryImpl : userRepository
@enduml

PlantUML version 1.2019.10(Fri Sep 13 20:53:03 UTC 2019)
(GPL source distribution)
Java Runtime: Java(TM) SE Runtime Environment
JVM: Java HotSpot(TM) 64-Bit Server VM
Java Version: 1.7.0_25-b15
Operating System: Linux
Default Encoding: UTF-8
Language: en
Country: US
--></g></svg>