<?xml version="1.0" encoding="UTF-8" standalone="no"?>
<svg xmlns="http://www.w3.org/2000/svg" xmlns:xlink="http://www.w3.org/1999/xlink" contentScriptType="application/ecmascript" contentStyleType="text/css" height="621px" preserveAspectRatio="none" style="width:917px;height:621px;" version="1.1" viewBox="0 0 917 621" width="917px" zoomAndPan="magnify"><defs><filter height="300%" id="f100k53wp92kys" width="300%" x="-1" y="-1"><feGaussianBlur result="blurOut" stdDeviation="2.0"/><feColorMatrix in="blurOut" result="blurOut2" type="matrix" values="0 0 0 0 0 0 0 0 0 0 0 0 0 0 0 0 0 0 .4 0"/><feOffset dx="4.0" dy="4.0" in="blurOut2" result="blurOut3"/><feBlend in="SourceGraphic" in2="blurOut3" mode="normal"/></filter></defs><g><text fill="#000000" font-family="sans-serif" font-size="18" lengthAdjust="spacingAndGlyphs" text-decoration="underline" textLength="83" x="421" y="16.708">PUB_SUB</text><text fill="#000000" font-family="sans-serif" font-size="18" lengthAdjust="spacingAndGlyphs" textLength="0" x="465.5" y="37.6611"/><!--cluster in.ashwanik.pdp.pub_sub--><polygon fill="#FFFFFF" filter="url(#f100k53wp92kys)" points="22,65.9063,227,65.9063,234,88.2031,848,88.2031,848,609.9063,22,609.9063,22,65.9063" style="stroke: #000000; stroke-width: 1.5;"/><line style="stroke: #000000; stroke-width: 1.5;" x1="22" x2="234" y1="88.2031" y2="88.2031"/><text fill="#000000" font-family="sans-serif" font-size="14" font-weight="bold" lengthAdjust="spacingAndGlyphs" textLength="199" x="26" y="80.9014">in.ashwanik.pdp.pub_sub</text><!--class in.ashwanik.pdp.pub_sub.Broker--><rect fill="#FEFECE" filter="url(#f100k53wp92kys)" height="137.6328" id="in.ashwanik.pdp.pub_sub.Broker" style="stroke: #A80036; stroke-width: 1.5;" width="381" x="38.5" y="455.9063"/><ellipse cx="204.25" cy="471.9063" fill="#ADD1B2" rx="11" ry="11" style="stroke: #A80036; stroke-width: 1.0;"/><path d="M206.5938,467.5781 L206.7656,467.6563 C206.9844,467.3438 207.1875,467.25 207.4844,467.25 C207.7813,467.25 208.0625,467.3906 208.2188,467.6563 C208.3125,467.8125 208.3281,467.9375 208.3281,468.375 L208.3281,469.7969 C208.3281,470.2188 208.2969,470.4063 208.1875,470.5625 C208.0156,470.7813 207.75,470.9219 207.4844,470.9219 C207.2656,470.9219 207.0313,470.8125 206.8906,470.6719 C206.75,470.5469 206.7188,470.4219 206.6563,470.0156 C206.5625,469.6094 206.3906,469.3906 205.9063,469.1094 C205.4375,468.8594 204.8281,468.7031 204.25,468.7031 C202.5156,468.7031 201.2656,470.0156 201.2656,471.7969 L201.2656,472.8906 C201.2656,474.5938 202.5625,475.6875 204.6094,475.6875 C205.375,475.6875 206.0625,475.5625 206.4844,475.2969 C206.6719,475.2031 206.6719,475.2031 207.125,474.7188 C207.3125,474.5313 207.5156,474.4531 207.7344,474.4531 C208.2031,474.4531 208.5938,474.8438 208.5938,475.2969 C208.5938,475.6875 208.2656,476.1406 207.6875,476.5469 C206.9375,477.0938 205.7813,477.3906 204.5625,477.3906 C201.6719,477.3906 199.5625,475.5 199.5625,472.9219 L199.5625,471.7969 C199.5625,469.0781 201.5625,467 204.1875,467 C205.0625,467 205.6563,467.1406 206.5938,467.5781 Z "/><text fill="#000000" font-family="sans-serif" font-size="12" lengthAdjust="spacingAndGlyphs" textLength="41" x="224.75" y="476.0605">Broker</text><line style="stroke: #A80036; stroke-width: 1.5;" x1="39.5" x2="418.5" y1="487.9063" y2="487.9063"/><rect fill="none" height="6" style="stroke: #C82930; stroke-width: 1.0;" width="6" x="46.5" y="495.9063"/><text fill="#000000" font-family="sans-serif" font-size="11" lengthAdjust="spacingAndGlyphs" textLength="355" x="58.5" y="502.1167">subscribers : ConcurrentHashMap&lt;String, List&lt;Subscriber&gt;&gt;</text><line style="stroke: #A80036; stroke-width: 1.5;" x1="39.5" x2="418.5" y1="508.7109" y2="508.7109"/><polygon fill="#4177AF" points="49.5,515.7109,45.5,521.7109,53.5,521.7109" style="stroke: #1963A0; stroke-width: 1.0;"/><text fill="#000000" font-family="sans-serif" font-size="11" lengthAdjust="spacingAndGlyphs" textLength="46" x="58.5" y="522.9214">Broker()</text><polygon fill="#4177AF" points="49.5,528.5156,45.5,534.5156,53.5,534.5156" style="stroke: #1963A0; stroke-width: 1.0;"/><text fill="#000000" font-family="sans-serif" font-size="11" lengthAdjust="spacingAndGlyphs" textLength="91" x="58.5" y="535.7261">addSubscriber()</text><polygon fill="#4177AF" points="49.5,541.3203,45.5,547.3203,53.5,547.3203" style="stroke: #1963A0; stroke-width: 1.0;"/><text fill="#000000" font-family="sans-serif" font-size="11" lengthAdjust="spacingAndGlyphs" textLength="143" x="58.5" y="548.5308">getSubscribersForTopic()</text><polygon fill="#4177AF" points="49.5,554.125,45.5,560.125,53.5,560.125" style="stroke: #1963A0; stroke-width: 1.0;"/><text fill="#000000" font-family="sans-serif" font-size="11" lengthAdjust="spacingAndGlyphs" textLength="113" x="58.5" y="561.3354">removeSubscriber()</text><rect fill="#F24D5C" height="6" style="stroke: #C82930; stroke-width: 1.0;" width="6" x="46.5" y="567.9297"/><text fill="#000000" font-family="sans-serif" font-size="11" lengthAdjust="spacingAndGlyphs" textLength="81" x="58.5" y="574.1401">keyNotEmpty()</text><rect fill="#F24D5C" height="6" style="stroke: #C82930; stroke-width: 1.0;" width="6" x="46.5" y="580.7344"/><text fill="#000000" font-family="sans-serif" font-size="11" lengthAdjust="spacingAndGlyphs" textLength="82" x="58.5" y="586.9448">objectNotNull()</text><!--class in.ashwanik.pdp.pub_sub.FileSubscriber--><rect fill="#FEFECE" filter="url(#f100k53wp92kys)" height="124.8281" id="in.ashwanik.pdp.pub_sub.FileSubscriber" style="stroke: #A80036; stroke-width: 1.5;" width="196" x="455" y="462.4063"/><ellipse cx="504.75" cy="478.4063" fill="#ADD1B2" rx="11" ry="11" style="stroke: #A80036; stroke-width: 1.0;"/><path d="M507.0938,474.0781 L507.2656,474.1563 C507.4844,473.8438 507.6875,473.75 507.9844,473.75 C508.2813,473.75 508.5625,473.8906 508.7188,474.1563 C508.8125,474.3125 508.8281,474.4375 508.8281,474.875 L508.8281,476.2969 C508.8281,476.7188 508.7969,476.9063 508.6875,477.0625 C508.5156,477.2813 508.25,477.4219 507.9844,477.4219 C507.7656,477.4219 507.5313,477.3125 507.3906,477.1719 C507.25,477.0469 507.2188,476.9219 507.1563,476.5156 C507.0625,476.1094 506.8906,475.8906 506.4063,475.6094 C505.9375,475.3594 505.3281,475.2031 504.75,475.2031 C503.0156,475.2031 501.7656,476.5156 501.7656,478.2969 L501.7656,479.3906 C501.7656,481.0938 503.0625,482.1875 505.1094,482.1875 C505.875,482.1875 506.5625,482.0625 506.9844,481.7969 C507.1719,481.7031 507.1719,481.7031 507.625,481.2188 C507.8125,481.0313 508.0156,480.9531 508.2344,480.9531 C508.7031,480.9531 509.0938,481.3438 509.0938,481.7969 C509.0938,482.1875 508.7656,482.6406 508.1875,483.0469 C507.4375,483.5938 506.2813,483.8906 505.0625,483.8906 C502.1719,483.8906 500.0625,482 500.0625,479.4219 L500.0625,478.2969 C500.0625,475.5781 502.0625,473.5 504.6875,473.5 C505.5625,473.5 506.1563,473.6406 507.0938,474.0781 Z "/><text fill="#000000" font-family="sans-serif" font-size="12" lengthAdjust="spacingAndGlyphs" textLength="88" x="525.25" y="482.5605">FileSubscriber</text><line style="stroke: #A80036; stroke-width: 1.5;" x1="456" x2="650" y1="494.4063" y2="494.4063"/><rect fill="none" height="6" style="stroke: #C82930; stroke-width: 1.0;" width="6" x="463" y="502.4063"/><text fill="#000000" font-family="sans-serif" font-size="11" lengthAdjust="spacingAndGlyphs" text-decoration="underline" textLength="68" x="475" y="508.6167">log : Logger</text><rect fill="none" height="6" style="stroke: #C82930; stroke-width: 1.0;" width="6" x="463" y="515.2109"/><text fill="#000000" font-family="sans-serif" font-size="11" lengthAdjust="spacingAndGlyphs" textLength="78" x="475" y="521.4214">name : String</text><rect fill="none" height="6" style="stroke: #C82930; stroke-width: 1.0;" width="6" x="463" y="528.0156"/><text fill="#000000" font-family="sans-serif" font-size="11" lengthAdjust="spacingAndGlyphs" textLength="170" x="475" y="534.2261">outputStream : OutputStream</text><line style="stroke: #A80036; stroke-width: 1.5;" x1="456" x2="650" y1="540.8203" y2="540.8203"/><ellipse cx="466" cy="551.8203" fill="#84BE84" rx="3" ry="3" style="stroke: #038048; stroke-width: 1.0;"/><text fill="#000000" font-family="sans-serif" font-size="11" lengthAdjust="spacingAndGlyphs" textLength="59" x="475" y="555.0308">getName()</text><ellipse cx="466" cy="564.625" fill="#84BE84" rx="3" ry="3" style="stroke: #038048; stroke-width: 1.0;"/><text fill="#000000" font-family="sans-serif" font-size="11" lengthAdjust="spacingAndGlyphs" textLength="49" x="475" y="567.8354">receive()</text><polygon fill="#4177AF" points="466,573.4297,462,579.4297,470,579.4297" style="stroke: #1963A0; stroke-width: 1.0;"/><text fill="#000000" font-family="sans-serif" font-size="11" lengthAdjust="spacingAndGlyphs" textLength="89" x="475" y="580.6401">FileSubscriber()</text><!--class in.ashwanik.pdp.pub_sub.Message--><rect fill="#FEFECE" filter="url(#f100k53wp92kys)" height="278.4844" id="in.ashwanik.pdp.pub_sub.Message" style="stroke: #A80036; stroke-width: 1.5;" width="126" x="706" y="100.9063"/><ellipse cx="738.1" cy="116.9063" fill="#ADD1B2" rx="11" ry="11" style="stroke: #A80036; stroke-width: 1.0;"/><path d="M740.4438,112.5781 L740.6156,112.6563 C740.8344,112.3438 741.0375,112.25 741.3344,112.25 C741.6313,112.25 741.9125,112.3906 742.0688,112.6563 C742.1625,112.8125 742.1781,112.9375 742.1781,113.375 L742.1781,114.7969 C742.1781,115.2188 742.1469,115.4063 742.0375,115.5625 C741.8656,115.7813 741.6,115.9219 741.3344,115.9219 C741.1156,115.9219 740.8813,115.8125 740.7406,115.6719 C740.6,115.5469 740.5688,115.4219 740.5063,115.0156 C740.4125,114.6094 740.2406,114.3906 739.7563,114.1094 C739.2875,113.8594 738.6781,113.7031 738.1,113.7031 C736.3656,113.7031 735.1156,115.0156 735.1156,116.7969 L735.1156,117.8906 C735.1156,119.5938 736.4125,120.6875 738.4594,120.6875 C739.225,120.6875 739.9125,120.5625 740.3344,120.2969 C740.5219,120.2031 740.5219,120.2031 740.975,119.7188 C741.1625,119.5313 741.3656,119.4531 741.5844,119.4531 C742.0531,119.4531 742.4438,119.8438 742.4438,120.2969 C742.4438,120.6875 742.1156,121.1406 741.5375,121.5469 C740.7875,122.0938 739.6313,122.3906 738.4125,122.3906 C735.5219,122.3906 733.4125,120.5 733.4125,117.9219 L733.4125,116.7969 C733.4125,114.0781 735.4125,112 738.0375,112 C738.9125,112 739.5063,112.1406 740.4438,112.5781 Z "/><text fill="#000000" font-family="sans-serif" font-size="12" lengthAdjust="spacingAndGlyphs" textLength="56" x="755.9" y="121.0605">Message</text><line style="stroke: #A80036; stroke-width: 1.5;" x1="707" x2="831" y1="132.9063" y2="132.9063"/><rect fill="none" height="6" style="stroke: #C82930; stroke-width: 1.0;" width="6" x="714" y="140.9063"/><text fill="#000000" font-family="sans-serif" font-size="11" lengthAdjust="spacingAndGlyphs" textLength="100" x="726" y="147.1167">receivedOn : long</text><rect fill="none" height="6" style="stroke: #C82930; stroke-width: 1.0;" width="6" x="714" y="153.7109"/><text fill="#000000" font-family="sans-serif" font-size="11" lengthAdjust="spacingAndGlyphs" textLength="92" x="726" y="159.9214">receiver : String</text><rect fill="none" height="6" style="stroke: #C82930; stroke-width: 1.0;" width="6" x="714" y="166.5156"/><text fill="#000000" font-family="sans-serif" font-size="11" lengthAdjust="spacingAndGlyphs" textLength="86" x="726" y="172.7261">sender : String</text><rect fill="none" height="6" style="stroke: #C82930; stroke-width: 1.0;" width="6" x="714" y="179.3203"/><text fill="#000000" font-family="sans-serif" font-size="11" lengthAdjust="spacingAndGlyphs" textLength="77" x="726" y="185.5308">sentOn : long</text><rect fill="none" height="6" style="stroke: #C82930; stroke-width: 1.0;" width="6" x="714" y="192.125"/><text fill="#000000" font-family="sans-serif" font-size="11" lengthAdjust="spacingAndGlyphs" textLength="73" x="726" y="198.3354">topic : String</text><line style="stroke: #A80036; stroke-width: 1.5;" x1="707" x2="831" y1="204.9297" y2="204.9297"/><ellipse cx="717" cy="215.9297" fill="#84BE84" rx="3" ry="3" style="stroke: #038048; stroke-width: 1.0;"/><text fill="#000000" font-family="sans-serif" font-size="11" lengthAdjust="spacingAndGlyphs" textLength="70" x="726" y="219.1401">getPayload()</text><ellipse cx="717" cy="228.7344" fill="#84BE84" rx="3" ry="3" style="stroke: #038048; stroke-width: 1.0;"/><text fill="#000000" font-family="sans-serif" font-size="11" lengthAdjust="spacingAndGlyphs" textLength="92" x="726" y="231.9448">getReceivedOn()</text><ellipse cx="717" cy="241.5391" fill="#84BE84" rx="3" ry="3" style="stroke: #038048; stroke-width: 1.0;"/><text fill="#000000" font-family="sans-serif" font-size="11" lengthAdjust="spacingAndGlyphs" textLength="74" x="726" y="244.7495">getReceiver()</text><ellipse cx="717" cy="254.3438" fill="#84BE84" rx="3" ry="3" style="stroke: #038048; stroke-width: 1.0;"/><text fill="#000000" font-family="sans-serif" font-size="11" lengthAdjust="spacingAndGlyphs" textLength="67" x="726" y="257.5542">getSender()</text><ellipse cx="717" cy="267.1484" fill="#84BE84" rx="3" ry="3" style="stroke: #038048; stroke-width: 1.0;"/><text fill="#000000" font-family="sans-serif" font-size="11" lengthAdjust="spacingAndGlyphs" textLength="68" x="726" y="270.3589">getSentOn()</text><ellipse cx="717" cy="279.9531" fill="#84BE84" rx="3" ry="3" style="stroke: #038048; stroke-width: 1.0;"/><text fill="#000000" font-family="sans-serif" font-size="11" lengthAdjust="spacingAndGlyphs" textLength="56" x="726" y="283.1636">getTopic()</text><ellipse cx="717" cy="292.7578" fill="#84BE84" rx="3" ry="3" style="stroke: #038048; stroke-width: 1.0;"/><text fill="#000000" font-family="sans-serif" font-size="11" lengthAdjust="spacingAndGlyphs" textLength="70" x="726" y="295.9683">setPayload()</text><ellipse cx="717" cy="305.5625" fill="#84BE84" rx="3" ry="3" style="stroke: #038048; stroke-width: 1.0;"/><text fill="#000000" font-family="sans-serif" font-size="11" lengthAdjust="spacingAndGlyphs" textLength="92" x="726" y="308.7729">setReceivedOn()</text><ellipse cx="717" cy="318.3672" fill="#84BE84" rx="3" ry="3" style="stroke: #038048; stroke-width: 1.0;"/><text fill="#000000" font-family="sans-serif" font-size="11" lengthAdjust="spacingAndGlyphs" textLength="74" x="726" y="321.5776">setReceiver()</text><ellipse cx="717" cy="331.1719" fill="#84BE84" rx="3" ry="3" style="stroke: #038048; stroke-width: 1.0;"/><text fill="#000000" font-family="sans-serif" font-size="11" lengthAdjust="spacingAndGlyphs" textLength="67" x="726" y="334.3823">setSender()</text><ellipse cx="717" cy="343.9766" fill="#84BE84" rx="3" ry="3" style="stroke: #038048; stroke-width: 1.0;"/><text fill="#000000" font-family="sans-serif" font-size="11" lengthAdjust="spacingAndGlyphs" textLength="68" x="726" y="347.187">setSentOn()</text><ellipse cx="717" cy="356.7813" fill="#84BE84" rx="3" ry="3" style="stroke: #038048; stroke-width: 1.0;"/><text fill="#000000" font-family="sans-serif" font-size="11" lengthAdjust="spacingAndGlyphs" textLength="56" x="726" y="359.9917">setTopic()</text><polygon fill="#4177AF" points="717,365.5859,713,371.5859,721,371.5859" style="stroke: #1963A0; stroke-width: 1.0;"/><text fill="#000000" font-family="sans-serif" font-size="11" lengthAdjust="spacingAndGlyphs" textLength="58" x="726" y="372.7964">getBytes()</text><!--class in.ashwanik.pdp.pub_sub.MessagePublisher--><rect fill="#FEFECE" filter="url(#f100k53wp92kys)" height="99.2188" id="in.ashwanik.pdp.pub_sub.MessagePublisher" style="stroke: #A80036; stroke-width: 1.5;" width="146" x="686" y="475.4063"/><ellipse cx="701" cy="491.4063" fill="#ADD1B2" rx="11" ry="11" style="stroke: #A80036; stroke-width: 1.0;"/><path d="M703.3438,487.0781 L703.5156,487.1563 C703.7344,486.8438 703.9375,486.75 704.2344,486.75 C704.5313,486.75 704.8125,486.8906 704.9688,487.1563 C705.0625,487.3125 705.0781,487.4375 705.0781,487.875 L705.0781,489.2969 C705.0781,489.7188 705.0469,489.9063 704.9375,490.0625 C704.7656,490.2813 704.5,490.4219 704.2344,490.4219 C704.0156,490.4219 703.7813,490.3125 703.6406,490.1719 C703.5,490.0469 703.4688,489.9219 703.4063,489.5156 C703.3125,489.1094 703.1406,488.8906 702.6563,488.6094 C702.1875,488.3594 701.5781,488.2031 701,488.2031 C699.2656,488.2031 698.0156,489.5156 698.0156,491.2969 L698.0156,492.3906 C698.0156,494.0938 699.3125,495.1875 701.3594,495.1875 C702.125,495.1875 702.8125,495.0625 703.2344,494.7969 C703.4219,494.7031 703.4219,494.7031 703.875,494.2188 C704.0625,494.0313 704.2656,493.9531 704.4844,493.9531 C704.9531,493.9531 705.3438,494.3438 705.3438,494.7969 C705.3438,495.1875 705.0156,495.6406 704.4375,496.0469 C703.6875,496.5938 702.5313,496.8906 701.3125,496.8906 C698.4219,496.8906 696.3125,495 696.3125,492.4219 L696.3125,491.2969 C696.3125,488.5781 698.3125,486.5 700.9375,486.5 C701.8125,486.5 702.4063,486.6406 703.3438,487.0781 Z "/><text fill="#000000" font-family="sans-serif" font-size="12" lengthAdjust="spacingAndGlyphs" textLength="114" x="715" y="495.5605">MessagePublisher</text><line style="stroke: #A80036; stroke-width: 1.5;" x1="687" x2="831" y1="507.4063" y2="507.4063"/><rect fill="none" height="6" style="stroke: #C82930; stroke-width: 1.0;" width="6" x="694" y="515.4063"/><text fill="#000000" font-family="sans-serif" font-size="11" lengthAdjust="spacingAndGlyphs" textLength="78" x="706" y="521.6167">name : String</text><line style="stroke: #A80036; stroke-width: 1.5;" x1="687" x2="831" y1="528.2109" y2="528.2109"/><ellipse cx="697" cy="539.2109" fill="#84BE84" rx="3" ry="3" style="stroke: #038048; stroke-width: 1.0;"/><text fill="#000000" font-family="sans-serif" font-size="11" lengthAdjust="spacingAndGlyphs" textLength="59" x="706" y="542.4214">getName()</text><ellipse cx="697" cy="552.0156" fill="#84BE84" rx="3" ry="3" style="stroke: #038048; stroke-width: 1.0;"/><text fill="#000000" font-family="sans-serif" font-size="11" lengthAdjust="spacingAndGlyphs" textLength="49" x="706" y="555.2261">publish()</text><polygon fill="#4177AF" points="697,560.8203,693,566.8203,701,566.8203" style="stroke: #1963A0; stroke-width: 1.0;"/><text fill="#000000" font-family="sans-serif" font-size="11" lengthAdjust="spacingAndGlyphs" textLength="112" x="706" y="568.0308">MessagePublisher()</text><!--class in.ashwanik.pdp.pub_sub.PublishService--><rect fill="#FEFECE" filter="url(#f100k53wp92kys)" height="86.4141" id="in.ashwanik.pdp.pub_sub.PublishService" style="stroke: #A80036; stroke-width: 1.5;" width="122" x="238" y="196.9063"/><ellipse cx="253" cy="212.9063" fill="#ADD1B2" rx="11" ry="11" style="stroke: #A80036; stroke-width: 1.0;"/><path d="M255.3438,208.5781 L255.5156,208.6563 C255.7344,208.3438 255.9375,208.25 256.2344,208.25 C256.5313,208.25 256.8125,208.3906 256.9688,208.6563 C257.0625,208.8125 257.0781,208.9375 257.0781,209.375 L257.0781,210.7969 C257.0781,211.2188 257.0469,211.4063 256.9375,211.5625 C256.7656,211.7813 256.5,211.9219 256.2344,211.9219 C256.0156,211.9219 255.7813,211.8125 255.6406,211.6719 C255.5,211.5469 255.4688,211.4219 255.4063,211.0156 C255.3125,210.6094 255.1406,210.3906 254.6563,210.1094 C254.1875,209.8594 253.5781,209.7031 253,209.7031 C251.2656,209.7031 250.0156,211.0156 250.0156,212.7969 L250.0156,213.8906 C250.0156,215.5938 251.3125,216.6875 253.3594,216.6875 C254.125,216.6875 254.8125,216.5625 255.2344,216.2969 C255.4219,216.2031 255.4219,216.2031 255.875,215.7188 C256.0625,215.5313 256.2656,215.4531 256.4844,215.4531 C256.9531,215.4531 257.3438,215.8438 257.3438,216.2969 C257.3438,216.6875 257.0156,217.1406 256.4375,217.5469 C255.6875,218.0938 254.5313,218.3906 253.3125,218.3906 C250.4219,218.3906 248.3125,216.5 248.3125,213.9219 L248.3125,212.7969 C248.3125,210.0781 250.3125,208 252.9375,208 C253.8125,208 254.4063,208.1406 255.3438,208.5781 Z "/><text fill="#000000" font-family="sans-serif" font-size="12" lengthAdjust="spacingAndGlyphs" textLength="90" x="267" y="217.0605">PublishService</text><line style="stroke: #A80036; stroke-width: 1.5;" x1="239" x2="359" y1="228.9063" y2="228.9063"/><rect fill="none" height="6" style="stroke: #C82930; stroke-width: 1.0;" width="6" x="246" y="236.9063"/><text fill="#000000" font-family="sans-serif" font-size="11" lengthAdjust="spacingAndGlyphs" text-decoration="underline" textLength="68" x="258" y="243.1167">log : Logger</text><line style="stroke: #A80036; stroke-width: 1.5;" x1="239" x2="359" y1="249.7109" y2="249.7109"/><ellipse cx="249" cy="260.7109" fill="#84BE84" rx="3" ry="3" style="stroke: #038048; stroke-width: 1.0;"/><text fill="#000000" font-family="sans-serif" font-size="11" lengthAdjust="spacingAndGlyphs" textLength="91" x="258" y="263.9214">PublishService()</text><polygon fill="#4177AF" points="249,269.5156,245,275.5156,253,275.5156" style="stroke: #1963A0; stroke-width: 1.0;"/><text fill="#000000" font-family="sans-serif" font-size="11" lengthAdjust="spacingAndGlyphs" textLength="49" x="258" y="276.7261">publish()</text><!--class in.ashwanik.pdp.pub_sub.Publisher--><rect fill="#FEFECE" filter="url(#f100k53wp92kys)" height="73.6094" id="in.ashwanik.pdp.pub_sub.Publisher" style="stroke: #A80036; stroke-width: 1.5;" width="88" x="583" y="202.9063"/><ellipse cx="598" cy="218.9063" fill="#B4A7E5" rx="11" ry="11" style="stroke: #A80036; stroke-width: 1.0;"/><path d="M598.9531,215.6875 L598.9531,222.2031 L600.6719,222.2031 C601.125,222.2031 601.2656,222.2344 601.4375,222.3594 C601.6719,222.5313 601.7813,222.7813 601.7813,223.0625 C601.7813,223.625 601.4219,223.9063 600.6719,223.9063 L595.5313,223.9063 C595.125,223.9063 594.9219,223.8594 594.7656,223.7344 C594.5469,223.5781 594.4063,223.3125 594.4063,223.0625 C594.4063,222.7656 594.5625,222.4844 594.8125,222.3281 C594.9688,222.2188 595.0938,222.2031 595.5313,222.2031 L597.25,222.2031 L597.25,215.6875 L595.5313,215.6875 C595.1094,215.6875 594.9219,215.6563 594.7656,215.5469 C594.5469,215.375 594.4063,215.125 594.4063,214.8438 C594.4063,214.5625 594.5625,214.2656 594.8125,214.1094 C594.9688,214.0156 595.0938,214 595.5313,214 L600.6719,214 C601.125,214 601.2656,214.0313 601.4375,214.1406 C601.6719,214.3125 601.7813,214.5781 601.7813,214.8438 C601.7813,215.1406 601.6406,215.4219 601.375,215.5781 C601.25,215.6563 601.0625,215.6875 600.6719,215.6875 Z "/><text fill="#000000" font-family="sans-serif" font-size="12" font-style="italic" lengthAdjust="spacingAndGlyphs" textLength="56" x="612" y="223.0605">Publisher</text><line style="stroke: #A80036; stroke-width: 1.5;" x1="584" x2="670" y1="234.9063" y2="234.9063"/><line style="stroke: #A80036; stroke-width: 1.5;" x1="584" x2="670" y1="242.9063" y2="242.9063"/><ellipse cx="594" cy="253.9063" fill="#84BE84" rx="3" ry="3" style="stroke: #038048; stroke-width: 1.0;"/><text fill="#000000" font-family="sans-serif" font-size="11" font-style="italic" lengthAdjust="spacingAndGlyphs" textLength="59" x="603" y="257.1167">getName()</text><ellipse cx="594" cy="266.7109" fill="#84BE84" rx="3" ry="3" style="stroke: #038048; stroke-width: 1.0;"/><text fill="#000000" font-family="sans-serif" font-size="11" font-style="italic" lengthAdjust="spacingAndGlyphs" textLength="48" x="603" y="269.9214">publish()</text><!--class in.ashwanik.pdp.pub_sub.SubscribeService--><rect fill="#FEFECE" filter="url(#f100k53wp92kys)" height="86.4141" id="in.ashwanik.pdp.pub_sub.SubscribeService" style="stroke: #A80036; stroke-width: 1.5;" width="139" x="63.5" y="196.9063"/><ellipse cx="78.5" cy="212.9063" fill="#ADD1B2" rx="11" ry="11" style="stroke: #A80036; stroke-width: 1.0;"/><path d="M80.8438,208.5781 L81.0156,208.6563 C81.2344,208.3438 81.4375,208.25 81.7344,208.25 C82.0313,208.25 82.3125,208.3906 82.4688,208.6563 C82.5625,208.8125 82.5781,208.9375 82.5781,209.375 L82.5781,210.7969 C82.5781,211.2188 82.5469,211.4063 82.4375,211.5625 C82.2656,211.7813 82,211.9219 81.7344,211.9219 C81.5156,211.9219 81.2813,211.8125 81.1406,211.6719 C81,211.5469 80.9688,211.4219 80.9063,211.0156 C80.8125,210.6094 80.6406,210.3906 80.1563,210.1094 C79.6875,209.8594 79.0781,209.7031 78.5,209.7031 C76.7656,209.7031 75.5156,211.0156 75.5156,212.7969 L75.5156,213.8906 C75.5156,215.5938 76.8125,216.6875 78.8594,216.6875 C79.625,216.6875 80.3125,216.5625 80.7344,216.2969 C80.9219,216.2031 80.9219,216.2031 81.375,215.7188 C81.5625,215.5313 81.7656,215.4531 81.9844,215.4531 C82.4531,215.4531 82.8438,215.8438 82.8438,216.2969 C82.8438,216.6875 82.5156,217.1406 81.9375,217.5469 C81.1875,218.0938 80.0313,218.3906 78.8125,218.3906 C75.9219,218.3906 73.8125,216.5 73.8125,213.9219 L73.8125,212.7969 C73.8125,210.0781 75.8125,208 78.4375,208 C79.3125,208 79.9063,208.1406 80.8438,208.5781 Z "/><text fill="#000000" font-family="sans-serif" font-size="12" lengthAdjust="spacingAndGlyphs" textLength="107" x="92.5" y="217.0605">SubscribeService</text><line style="stroke: #A80036; stroke-width: 1.5;" x1="64.5" x2="201.5" y1="228.9063" y2="228.9063"/><line style="stroke: #A80036; stroke-width: 1.5;" x1="64.5" x2="201.5" y1="236.9063" y2="236.9063"/><ellipse cx="74.5" cy="247.9063" fill="#84BE84" rx="3" ry="3" style="stroke: #038048; stroke-width: 1.0;"/><text fill="#000000" font-family="sans-serif" font-size="11" lengthAdjust="spacingAndGlyphs" textLength="107" x="83.5" y="251.1167">SubscribeService()</text><polygon fill="#4177AF" points="74.5,256.7109,70.5,262.7109,78.5,262.7109" style="stroke: #1963A0; stroke-width: 1.0;"/><text fill="#000000" font-family="sans-serif" font-size="11" lengthAdjust="spacingAndGlyphs" textLength="64" x="83.5" y="263.9214">subscribe()</text><polygon fill="#4177AF" points="74.5,269.5156,70.5,275.5156,78.5,275.5156" style="stroke: #1963A0; stroke-width: 1.0;"/><text fill="#000000" font-family="sans-serif" font-size="11" lengthAdjust="spacingAndGlyphs" textLength="78" x="83.5" y="276.7261">unsubscribe()</text><!--class in.ashwanik.pdp.pub_sub.Subscriber--><rect fill="#FEFECE" filter="url(#f100k53wp92kys)" height="73.6094" id="in.ashwanik.pdp.pub_sub.Subscriber" style="stroke: #A80036; stroke-width: 1.5;" width="98" x="450" y="202.9063"/><ellipse cx="465" cy="218.9063" fill="#B4A7E5" rx="11" ry="11" style="stroke: #A80036; stroke-width: 1.0;"/><path d="M465.9531,215.6875 L465.9531,222.2031 L467.6719,222.2031 C468.125,222.2031 468.2656,222.2344 468.4375,222.3594 C468.6719,222.5313 468.7813,222.7813 468.7813,223.0625 C468.7813,223.625 468.4219,223.9063 467.6719,223.9063 L462.5313,223.9063 C462.125,223.9063 461.9219,223.8594 461.7656,223.7344 C461.5469,223.5781 461.4063,223.3125 461.4063,223.0625 C461.4063,222.7656 461.5625,222.4844 461.8125,222.3281 C461.9688,222.2188 462.0938,222.2031 462.5313,222.2031 L464.25,222.2031 L464.25,215.6875 L462.5313,215.6875 C462.1094,215.6875 461.9219,215.6563 461.7656,215.5469 C461.5469,215.375 461.4063,215.125 461.4063,214.8438 C461.4063,214.5625 461.5625,214.2656 461.8125,214.1094 C461.9688,214.0156 462.0938,214 462.5313,214 L467.6719,214 C468.125,214 468.2656,214.0313 468.4375,214.1406 C468.6719,214.3125 468.7813,214.5781 468.7813,214.8438 C468.7813,215.1406 468.6406,215.4219 468.375,215.5781 C468.25,215.6563 468.0625,215.6875 467.6719,215.6875 Z "/><text fill="#000000" font-family="sans-serif" font-size="12" font-style="italic" lengthAdjust="spacingAndGlyphs" textLength="66" x="479" y="223.0605">Subscriber</text><line style="stroke: #A80036; stroke-width: 1.5;" x1="451" x2="547" y1="234.9063" y2="234.9063"/><line style="stroke: #A80036; stroke-width: 1.5;" x1="451" x2="547" y1="242.9063" y2="242.9063"/><ellipse cx="461" cy="253.9063" fill="#84BE84" rx="3" ry="3" style="stroke: #038048; stroke-width: 1.0;"/><text fill="#000000" font-family="sans-serif" font-size="11" font-style="italic" lengthAdjust="spacingAndGlyphs" textLength="59" x="470" y="257.1167">getName()</text><ellipse cx="461" cy="266.7109" fill="#84BE84" rx="3" ry="3" style="stroke: #038048; stroke-width: 1.0;"/><text fill="#000000" font-family="sans-serif" font-size="11" font-style="italic" lengthAdjust="spacingAndGlyphs" textLength="50" x="470" y="269.9214">receive()</text><!--class T--><rect fill="#FEFECE" filter="url(#f100k53wp92kys)" height="48" id="T" style="stroke: #A80036; stroke-width: 1.5;" width="39" x="867.5" y="500.9063"/><ellipse cx="882.5" cy="516.9063" fill="#ADD1B2" rx="11" ry="11" style="stroke: #A80036; stroke-width: 1.0;"/><path d="M884.8438,512.5781 L885.0156,512.6563 C885.2344,512.3438 885.4375,512.25 885.7344,512.25 C886.0313,512.25 886.3125,512.3906 886.4688,512.6563 C886.5625,512.8125 886.5781,512.9375 886.5781,513.375 L886.5781,514.7969 C886.5781,515.2188 886.5469,515.4063 886.4375,515.5625 C886.2656,515.7813 886,515.9219 885.7344,515.9219 C885.5156,515.9219 885.2813,515.8125 885.1406,515.6719 C885,515.5469 884.9688,515.4219 884.9063,515.0156 C884.8125,514.6094 884.6406,514.3906 884.1563,514.1094 C883.6875,513.8594 883.0781,513.7031 882.5,513.7031 C880.7656,513.7031 879.5156,515.0156 879.5156,516.7969 L879.5156,517.8906 C879.5156,519.5938 880.8125,520.6875 882.8594,520.6875 C883.625,520.6875 884.3125,520.5625 884.7344,520.2969 C884.9219,520.2031 884.9219,520.2031 885.375,519.7188 C885.5625,519.5313 885.7656,519.4531 885.9844,519.4531 C886.4531,519.4531 886.8438,519.8438 886.8438,520.2969 C886.8438,520.6875 886.5156,521.1406 885.9375,521.5469 C885.1875,522.0938 884.0313,522.3906 882.8125,522.3906 C879.9219,522.3906 877.8125,520.5 877.8125,517.9219 L877.8125,516.7969 C877.8125,514.0781 879.8125,512 882.4375,512 C883.3125,512 883.9063,512.1406 884.8438,512.5781 Z "/><text fill="#000000" font-family="sans-serif" font-size="12" lengthAdjust="spacingAndGlyphs" textLength="7" x="896.5" y="521.0605">T</text><line style="stroke: #A80036; stroke-width: 1.5;" x1="868.5" x2="905.5" y1="532.9063" y2="532.9063"/><line style="stroke: #A80036; stroke-width: 1.5;" x1="868.5" x2="905.5" y1="540.9063" y2="540.9063"/><!--reverse link in.ashwanik.pdp.pub_sub.Subscriber to in.ashwanik.pdp.pub_sub.FileSubscriber--><path d="M509.646,296.6993 C518.741,344.3653 531.809,412.8483 541.217,462.1523 " fill="none" id="in.ashwanik.pdp.pub_sub.Subscriber&lt;-in.ashwanik.pdp.pub_sub.FileSubscriber" style="stroke: #A80036; stroke-width: 1.0; stroke-dasharray: 7.0,7.0;"/><polygon fill="none" points="502.767,297.9933,505.894,277.0363,516.519,295.3693,502.767,297.9933" style="stroke: #A80036; stroke-width: 1.0;"/><!--reverse link in.ashwanik.pdp.pub_sub.Message to T--><path d="M831.654,391.1693 C849.489,433.9423 866.876,475.6443 877.265,500.5593 " fill="none" id="in.ashwanik.pdp.pub_sub.Message&lt;-T" style="stroke: #A80036; stroke-width: 1.0;"/><polygon fill="#FFFFFF" points="826.617,379.0902,825.2341,386.1675,831.2351,390.166,832.618,383.0888,826.617,379.0902" style="stroke: #A80036; stroke-width: 1.0;"/><text fill="#000000" font-family="sans-serif" font-size="13" lengthAdjust="spacingAndGlyphs" textLength="50" x="846" y="421.9731">payload</text><!--reverse link in.ashwanik.pdp.pub_sub.Publisher to in.ashwanik.pdp.pub_sub.MessagePublisher--><path d="M651.053,295.3663 C662.401,320.8193 676.227,351.4913 689,378.9063 C704.052,411.2123 721.474,447.3063 735.172,475.4013 " fill="none" id="in.ashwanik.pdp.pub_sub.Publisher&lt;-in.ashwanik.pdp.pub_sub.MessagePublisher" style="stroke: #A80036; stroke-width: 1.0; stroke-dasharray: 7.0,7.0;"/><polygon fill="none" points="644.643,298.1793,642.917,277.0593,657.437,292.4933,644.643,298.1793" style="stroke: #A80036; stroke-width: 1.0;"/><!--reverse link in.ashwanik.pdp.pub_sub.PublishService to in.ashwanik.pdp.pub_sub.Broker--><path d="M285.472,295.5983 C274.168,341.2973 257.995,406.6833 245.852,455.7773 " fill="none" id="in.ashwanik.pdp.pub_sub.PublishService&lt;-in.ashwanik.pdp.pub_sub.Broker" style="stroke: #A80036; stroke-width: 1.0;"/><polygon fill="#FFFFFF" points="288.596,282.9683,283.2724,287.8323,285.7147,294.6172,291.0384,289.7532,288.596,282.9683" style="stroke: #A80036; stroke-width: 1.0;"/><text fill="#000000" font-family="sans-serif" font-size="13" lengthAdjust="spacingAndGlyphs" textLength="41" x="256" y="421.9731">broker</text><!--reverse link in.ashwanik.pdp.pub_sub.SubscribeService to in.ashwanik.pdp.pub_sub.Broker--><path d="M151.453,295.3053 C166.96,341.0173 189.199,406.5773 205.889,455.7773 " fill="none" id="in.ashwanik.pdp.pub_sub.SubscribeService&lt;-in.ashwanik.pdp.pub_sub.Broker" style="stroke: #A80036; stroke-width: 1.0;"/><polygon fill="#FFFFFF" points="147.269,282.9683,145.4082,289.9351,151.1234,294.3324,152.9843,287.3655,147.269,282.9683" style="stroke: #A80036; stroke-width: 1.0;"/><text fill="#000000" font-family="sans-serif" font-size="13" lengthAdjust="spacingAndGlyphs" textLength="41" x="197" y="421.9731">broker</text><!--
@startuml
title __PUB_SUB__\n

  namespace in.ashwanik.pdp.pub_sub {
    class in.ashwanik.pdp.pub_sub.Broker {
        - subscribers : ConcurrentHashMap<String, List<Subscriber>>
        ~ Broker()
        ~ addSubscriber()
        ~ getSubscribersForTopic()
        ~ removeSubscriber()
        - keyNotEmpty()
        - objectNotNull()
    }
  }
  

  namespace in.ashwanik.pdp.pub_sub {
    class in.ashwanik.pdp.pub_sub.FileSubscriber {
        {static} - log : Logger
        - name : String
        - outputStream : OutputStream
        + getName()
        + receive()
        ~ FileSubscriber()
    }
  }
  

  namespace in.ashwanik.pdp.pub_sub {
    class in.ashwanik.pdp.pub_sub.Message {
        - receivedOn : long
        - receiver : String
        - sender : String
        - sentOn : long
        - topic : String
        + getPayload()
        + getReceivedOn()
        + getReceiver()
        + getSender()
        + getSentOn()
        + getTopic()
        + setPayload()
        + setReceivedOn()
        + setReceiver()
        + setSender()
        + setSentOn()
        + setTopic()
        ~ getBytes()
    }
  }
  

  namespace in.ashwanik.pdp.pub_sub {
    class in.ashwanik.pdp.pub_sub.MessagePublisher {
        - name : String
        + getName()
        + publish()
        ~ MessagePublisher()
    }
  }
  

  namespace in.ashwanik.pdp.pub_sub {
    class in.ashwanik.pdp.pub_sub.PublishService {
        {static} - log : Logger
        + PublishService()
        ~ publish()
    }
  }
  

  namespace in.ashwanik.pdp.pub_sub {
    interface in.ashwanik.pdp.pub_sub.Publisher {
        {abstract} + getName()
        {abstract} + publish()
    }
  }
  

  namespace in.ashwanik.pdp.pub_sub {
    class in.ashwanik.pdp.pub_sub.SubscribeService {
        + SubscribeService()
        ~ subscribe()
        ~ unsubscribe()
    }
  }
  

  namespace in.ashwanik.pdp.pub_sub {
    interface in.ashwanik.pdp.pub_sub.Subscriber {
        {abstract} + getName()
        {abstract} + receive()
    }
  }
  

  in.ashwanik.pdp.pub_sub.FileSubscriber .up.|> in.ashwanik.pdp.pub_sub.Subscriber
  in.ashwanik.pdp.pub_sub.Message o- - T : payload
  in.ashwanik.pdp.pub_sub.MessagePublisher .up.|> in.ashwanik.pdp.pub_sub.Publisher
  in.ashwanik.pdp.pub_sub.PublishService o- - in.ashwanik.pdp.pub_sub.Broker : broker
  in.ashwanik.pdp.pub_sub.SubscribeService o- - in.ashwanik.pdp.pub_sub.Broker : broker
@enduml

PlantUML version 1.2019.10beta5(Unknown compile time)
(GPL source distribution)
Java Runtime: Java(TM) SE Runtime Environment
JVM: Java HotSpot(TM) 64-Bit Server VM
Java Version: 1.7.0_25-b15
Operating System: Linux
Default Encoding: UTF-8
Language: en
Country: US
--></g></svg>