<?xml version="1.0" encoding="UTF-8" standalone="no"?>
<svg xmlns="http://www.w3.org/2000/svg" xmlns:xlink="http://www.w3.org/1999/xlink" contentScriptType="application/ecmascript" contentStyleType="text/css" height="985px" preserveAspectRatio="none" style="width:392px;height:985px;" version="1.1" viewBox="0 0 392 985" width="392px" zoomAndPan="magnify"><defs><filter height="300%" id="f106skinwj36dt" width="300%" x="-1" y="-1"><feGaussianBlur result="blurOut" stdDeviation="2.0"/><feColorMatrix in="blurOut" result="blurOut2" type="matrix" values="0 0 0 0 0 0 0 0 0 0 0 0 0 0 0 0 0 0 .4 0"/><feOffset dx="4.0" dy="4.0" in="blurOut2" result="blurOut3"/><feBlend in="SourceGraphic" in2="blurOut3" mode="normal"/></filter></defs><g><text fill="#000000" font-family="sans-serif" font-size="18" lengthAdjust="spacingAndGlyphs" text-decoration="underline" textLength="61" x="171.5" y="16.708">RETRY</text><text fill="#000000" font-family="sans-serif" font-size="18" lengthAdjust="spacingAndGlyphs" textLength="0" x="205" y="37.6611"/><!--MD5=[eb213a05799961f949ef68d5f960cac9]
cluster in.ashwanik.pdp.retry--><polygon fill="#FFFFFF" filter="url(#f106skinwj36dt)" points="22,65.9063,200,65.9063,207,88.2031,370,88.2031,370,973.9063,22,973.9063,22,65.9063" style="stroke: #000000; stroke-width: 1.5;"/><line style="stroke: #000000; stroke-width: 1.5;" x1="22" x2="207" y1="88.2031" y2="88.2031"/><text fill="#000000" font-family="sans-serif" font-size="14" font-weight="bold" lengthAdjust="spacingAndGlyphs" textLength="172" x="26" y="80.9014">in.ashwanik.pdp.retry</text><!--MD5=[e44cd701864a744181d38bc07fd73f54]
class in.ashwanik.pdp.retry.RetryCommand--><rect fill="#FEFECE" filter="url(#f106skinwj36dt)" height="214.4609" id="in.ashwanik.pdp.retry.RetryCommand" style="stroke: #A80036; stroke-width: 1.5;" width="184" x="104" y="100.9063"/><ellipse cx="145.1" cy="116.9063" fill="#ADD1B2" rx="11" ry="11" style="stroke: #A80036; stroke-width: 1.0;"/><path d="M147.4438,112.5781 L147.6156,112.6563 C147.8344,112.3438 148.0375,112.25 148.3344,112.25 C148.6313,112.25 148.9125,112.3906 149.0688,112.6563 C149.1625,112.8125 149.1781,112.9375 149.1781,113.375 L149.1781,114.7969 C149.1781,115.2188 149.1469,115.4063 149.0375,115.5625 C148.8656,115.7813 148.6,115.9219 148.3344,115.9219 C148.1156,115.9219 147.8813,115.8125 147.7406,115.6719 C147.6,115.5469 147.5688,115.4219 147.5063,115.0156 C147.4125,114.6094 147.2406,114.3906 146.7563,114.1094 C146.2875,113.8594 145.6781,113.7031 145.1,113.7031 C143.3656,113.7031 142.1156,115.0156 142.1156,116.7969 L142.1156,117.8906 C142.1156,119.5938 143.4125,120.6875 145.4594,120.6875 C146.225,120.6875 146.9125,120.5625 147.3344,120.2969 C147.5219,120.2031 147.5219,120.2031 147.975,119.7188 C148.1625,119.5313 148.3656,119.4531 148.5844,119.4531 C149.0531,119.4531 149.4438,119.8438 149.4438,120.2969 C149.4438,120.6875 149.1156,121.1406 148.5375,121.5469 C147.7875,122.0938 146.6313,122.3906 145.4125,122.3906 C142.5219,122.3906 140.4125,120.5 140.4125,117.9219 L140.4125,116.7969 C140.4125,114.0781 142.4125,112 145.0375,112 C145.9125,112 146.5063,112.1406 147.4438,112.5781 Z "/><text fill="#000000" font-family="sans-serif" font-size="12" lengthAdjust="spacingAndGlyphs" textLength="94" x="164.9" y="121.0605">RetryCommand</text><line style="stroke: #A80036; stroke-width: 1.5;" x1="105" x2="287" y1="132.9063" y2="132.9063"/><rect fill="none" height="6" style="stroke: #C82930; stroke-width: 1.0;" width="6" x="112" y="140.9063"/><text fill="#000000" font-family="sans-serif" font-size="11" lengthAdjust="spacingAndGlyphs" text-decoration="underline" textLength="107" x="124" y="147.1167">DEFAULT_WAIT : int</text><rect fill="none" height="6" style="stroke: #C82930; stroke-width: 1.0;" width="6" x="112" y="153.7109"/><text fill="#000000" font-family="sans-serif" font-size="11" lengthAdjust="spacingAndGlyphs" textLength="152" x="124" y="159.9214">exponentialWaitTime : long</text><rect fill="none" height="6" style="stroke: #C82930; stroke-width: 1.0;" width="6" x="112" y="166.5156"/><text fill="#000000" font-family="sans-serif" font-size="11" lengthAdjust="spacingAndGlyphs" text-decoration="underline" textLength="68" x="124" y="172.7261">log : Logger</text><rect fill="none" height="6" style="stroke: #C82930; stroke-width: 1.0;" width="6" x="112" y="179.3203"/><text fill="#000000" font-family="sans-serif" font-size="11" lengthAdjust="spacingAndGlyphs" textLength="98" x="124" y="185.5308">retryCounter : int</text><line style="stroke: #A80036; stroke-width: 1.5;" x1="105" x2="287" y1="192.125" y2="192.125"/><polygon fill="#4177AF" points="115,199.125,111,205.125,119,205.125" style="stroke: #1963A0; stroke-width: 1.0;"/><text fill="#000000" font-family="sans-serif" font-size="11" lengthAdjust="spacingAndGlyphs" textLength="95" x="124" y="206.3354">RetryCommand()</text><polygon fill="#4177AF" points="115,211.9297,111,217.9297,119,217.9297" style="stroke: #1963A0; stroke-width: 1.0;"/><text fill="#000000" font-family="sans-serif" font-size="11" lengthAdjust="spacingAndGlyphs" textLength="142" x="124" y="219.1401">getExponentialWaitTime()</text><polygon fill="#4177AF" points="115,224.7344,111,230.7344,119,230.7344" style="stroke: #1963A0; stroke-width: 1.0;"/><text fill="#000000" font-family="sans-serif" font-size="11" lengthAdjust="spacingAndGlyphs" textLength="100" x="124" y="231.9448">getRetryCounter()</text><polygon fill="#4177AF" points="115,237.5391,111,243.5391,119,243.5391" style="stroke: #1963A0; stroke-width: 1.0;"/><text fill="#000000" font-family="sans-serif" font-size="11" lengthAdjust="spacingAndGlyphs" textLength="92" x="124" y="244.7495">getRetryParam()</text><polygon fill="#4177AF" points="115,250.3438,111,256.3438,119,256.3438" style="stroke: #1963A0; stroke-width: 1.0;"/><text fill="#000000" font-family="sans-serif" font-size="11" lengthAdjust="spacingAndGlyphs" textLength="27" x="124" y="257.5542">run()</text><polygon fill="#4177AF" points="115,263.1484,111,269.1484,119,269.1484" style="stroke: #1963A0; stroke-width: 1.0;"/><text fill="#000000" font-family="sans-serif" font-size="11" lengthAdjust="spacingAndGlyphs" textLength="27" x="124" y="270.3589">run()</text><rect fill="#F24D5C" height="6" style="stroke: #C82930; stroke-width: 1.0;" width="6" x="112" y="276.9531"/><text fill="#000000" font-family="sans-serif" font-size="11" lengthAdjust="spacingAndGlyphs" textLength="147" x="124" y="283.1636">applyExponentialBackOff()</text><rect fill="#F24D5C" height="6" style="stroke: #C82930; stroke-width: 1.0;" width="6" x="112" y="289.7578"/><text fill="#000000" font-family="sans-serif" font-size="11" lengthAdjust="spacingAndGlyphs" textLength="158" x="124" y="295.9683">checkExceptionForRetrying()</text><rect fill="#F24D5C" height="6" style="stroke: #C82930; stroke-width: 1.0;" width="6" x="112" y="302.5625"/><text fill="#000000" font-family="sans-serif" font-size="11" lengthAdjust="spacingAndGlyphs" textLength="35" x="124" y="308.7729">retry()</text><!--MD5=[ae04482b9641399ea0b545516a39c292]
class in.ashwanik.pdp.retry.RetryParam--><rect fill="#FEFECE" filter="url(#f106skinwj36dt)" height="227.2656" id="in.ashwanik.pdp.retry.RetryParam" style="stroke: #A80036; stroke-width: 1.5;" width="268" x="62" y="391.9063"/><ellipse cx="155.75" cy="407.9063" fill="#ADD1B2" rx="11" ry="11" style="stroke: #A80036; stroke-width: 1.0;"/><path d="M158.0938,403.5781 L158.2656,403.6563 C158.4844,403.3438 158.6875,403.25 158.9844,403.25 C159.2813,403.25 159.5625,403.3906 159.7188,403.6563 C159.8125,403.8125 159.8281,403.9375 159.8281,404.375 L159.8281,405.7969 C159.8281,406.2188 159.7969,406.4063 159.6875,406.5625 C159.5156,406.7813 159.25,406.9219 158.9844,406.9219 C158.7656,406.9219 158.5313,406.8125 158.3906,406.6719 C158.25,406.5469 158.2188,406.4219 158.1563,406.0156 C158.0625,405.6094 157.8906,405.3906 157.4063,405.1094 C156.9375,404.8594 156.3281,404.7031 155.75,404.7031 C154.0156,404.7031 152.7656,406.0156 152.7656,407.7969 L152.7656,408.8906 C152.7656,410.5938 154.0625,411.6875 156.1094,411.6875 C156.875,411.6875 157.5625,411.5625 157.9844,411.2969 C158.1719,411.2031 158.1719,411.2031 158.625,410.7188 C158.8125,410.5313 159.0156,410.4531 159.2344,410.4531 C159.7031,410.4531 160.0938,410.8438 160.0938,411.2969 C160.0938,411.6875 159.7656,412.1406 159.1875,412.5469 C158.4375,413.0938 157.2813,413.3906 156.0625,413.3906 C153.1719,413.3906 151.0625,411.5 151.0625,408.9219 L151.0625,407.7969 C151.0625,405.0781 153.0625,403 155.6875,403 C156.5625,403 157.1563,403.1406 158.0938,403.5781 Z "/><text fill="#000000" font-family="sans-serif" font-size="12" lengthAdjust="spacingAndGlyphs" textLength="72" x="176.25" y="412.0605">RetryParam</text><line style="stroke: #A80036; stroke-width: 1.5;" x1="63" x2="329" y1="423.9063" y2="423.9063"/><rect fill="none" height="6" style="stroke: #C82930; stroke-width: 1.0;" width="6" x="70" y="431.9063"/><text fill="#000000" font-family="sans-serif" font-size="11" lengthAdjust="spacingAndGlyphs" textLength="164" x="82" y="438.1167">exponentialBackOffBase : int</text><rect fill="none" height="6" style="stroke: #C82930; stroke-width: 1.0;" width="6" x="70" y="444.7109"/><text fill="#000000" font-family="sans-serif" font-size="11" lengthAdjust="spacingAndGlyphs" textLength="186" x="82" y="450.9214">exponentialBackOffMultiplier : int</text><rect fill="none" height="6" style="stroke: #C82930; stroke-width: 1.0;" width="6" x="70" y="457.5156"/><text fill="#000000" font-family="sans-serif" font-size="11" lengthAdjust="spacingAndGlyphs" textLength="99" x="82" y="463.7261">message : String</text><rect fill="none" height="6" style="stroke: #C82930; stroke-width: 1.0;" width="6" x="70" y="470.3203"/><text fill="#000000" font-family="sans-serif" font-size="11" lengthAdjust="spacingAndGlyphs" textLength="242" x="82" y="476.5308">retryAbleException : Predicate&lt;Exception&gt;</text><rect fill="none" height="6" style="stroke: #C82930; stroke-width: 1.0;" width="6" x="70" y="483.125"/><text fill="#000000" font-family="sans-serif" font-size="11" lengthAdjust="spacingAndGlyphs" textLength="86" x="82" y="489.3354">retryCount : int</text><rect fill="none" height="6" style="stroke: #C82930; stroke-width: 1.0;" width="6" x="70" y="495.9297"/><text fill="#000000" font-family="sans-serif" font-size="11" lengthAdjust="spacingAndGlyphs" textLength="187" x="82" y="502.1401">useExponentialBackOff : boolean</text><line style="stroke: #A80036; stroke-width: 1.5;" x1="63" x2="329" y1="508.7344" y2="508.7344"/><ellipse cx="73" cy="519.7344" fill="#84BE84" rx="3" ry="3" style="stroke: #038048; stroke-width: 1.0;"/><text fill="#000000" font-family="sans-serif" font-size="11" lengthAdjust="spacingAndGlyphs" textLength="164" x="82" y="522.9448">getExponentialBackOffBase()</text><ellipse cx="73" cy="532.5391" fill="#84BE84" rx="3" ry="3" style="stroke: #038048; stroke-width: 1.0;"/><text fill="#000000" font-family="sans-serif" font-size="11" lengthAdjust="spacingAndGlyphs" textLength="186" x="82" y="535.7495">getExponentialBackOffMultiplier()</text><ellipse cx="73" cy="545.3438" fill="#84BE84" rx="3" ry="3" style="stroke: #038048; stroke-width: 1.0;"/><text fill="#000000" font-family="sans-serif" font-size="11" lengthAdjust="spacingAndGlyphs" textLength="77" x="82" y="548.5542">getMessage()</text><ellipse cx="73" cy="558.1484" fill="#84BE84" rx="3" ry="3" style="stroke: #038048; stroke-width: 1.0;"/><text fill="#000000" font-family="sans-serif" font-size="11" lengthAdjust="spacingAndGlyphs" textLength="133" x="82" y="561.3589">getRetryAbleException()</text><ellipse cx="73" cy="570.9531" fill="#84BE84" rx="3" ry="3" style="stroke: #038048; stroke-width: 1.0;"/><text fill="#000000" font-family="sans-serif" font-size="11" lengthAdjust="spacingAndGlyphs" textLength="88" x="82" y="574.1636">getRetryCount()</text><ellipse cx="73" cy="583.7578" fill="#84BE84" rx="3" ry="3" style="stroke: #038048; stroke-width: 1.0;"/><text fill="#000000" font-family="sans-serif" font-size="11" lengthAdjust="spacingAndGlyphs" textLength="149" x="82" y="586.9683">isUseExponentialBackOff()</text><polygon fill="#4177AF" points="73,592.5625,69,598.5625,77,598.5625" style="stroke: #1963A0; stroke-width: 1.0;"/><text fill="#000000" font-family="sans-serif" font-size="11" lengthAdjust="spacingAndGlyphs" text-decoration="underline" textLength="47" x="82" y="599.7729">builder()</text><rect fill="#F24D5C" height="6" style="stroke: #C82930; stroke-width: 1.0;" width="6" x="70" y="606.3672"/><text fill="#000000" font-family="sans-serif" font-size="11" lengthAdjust="spacingAndGlyphs" textLength="74" x="82" y="612.5776">RetryParam()</text><!--MD5=[7e9f9a2381a1ab0cc8494454c3523026]
class in.ashwanik.pdp.retry.RetryParam.RetryParamBuilder--><rect fill="#FEFECE" filter="url(#f106skinwj36dt)" height="278.4844" id="in.ashwanik.pdp.retry.RetryParam.RetryParamBuilder" style="stroke: #A80036; stroke-width: 1.5;" width="315" x="38.5" y="679.9063"/><ellipse cx="96.25" cy="695.9063" fill="#ADD1B2" rx="11" ry="11" style="stroke: #A80036; stroke-width: 1.0;"/><path d="M98.5938,691.5781 L98.7656,691.6563 C98.9844,691.3438 99.1875,691.25 99.4844,691.25 C99.7813,691.25 100.0625,691.3906 100.2188,691.6563 C100.3125,691.8125 100.3281,691.9375 100.3281,692.375 L100.3281,693.7969 C100.3281,694.2188 100.2969,694.4063 100.1875,694.5625 C100.0156,694.7813 99.75,694.9219 99.4844,694.9219 C99.2656,694.9219 99.0313,694.8125 98.8906,694.6719 C98.75,694.5469 98.7188,694.4219 98.6563,694.0156 C98.5625,693.6094 98.3906,693.3906 97.9063,693.1094 C97.4375,692.8594 96.8281,692.7031 96.25,692.7031 C94.5156,692.7031 93.2656,694.0156 93.2656,695.7969 L93.2656,696.8906 C93.2656,698.5938 94.5625,699.6875 96.6094,699.6875 C97.375,699.6875 98.0625,699.5625 98.4844,699.2969 C98.6719,699.2031 98.6719,699.2031 99.125,698.7188 C99.3125,698.5313 99.5156,698.4531 99.7344,698.4531 C100.2031,698.4531 100.5938,698.8438 100.5938,699.2969 C100.5938,699.6875 100.2656,700.1406 99.6875,700.5469 C98.9375,701.0938 97.7813,701.3906 96.5625,701.3906 C93.6719,701.3906 91.5625,699.5 91.5625,696.9219 L91.5625,695.7969 C91.5625,693.0781 93.5625,691 96.1875,691 C97.0625,691 97.6563,691.1406 98.5938,691.5781 Z "/><text fill="#000000" font-family="sans-serif" font-size="12" lengthAdjust="spacingAndGlyphs" textLength="191" x="116.75" y="700.0605">RetryParam.RetryParamBuilder</text><line style="stroke: #A80036; stroke-width: 1.5;" x1="39.5" x2="352.5" y1="711.9063" y2="711.9063"/><rect fill="none" height="6" style="stroke: #C82930; stroke-width: 1.0;" width="6" x="46.5" y="719.9063"/><text fill="#000000" font-family="sans-serif" font-size="11" lengthAdjust="spacingAndGlyphs" text-decoration="underline" textLength="256" x="58.5" y="726.1167">DEFAULT_EXPONENTIAL_BACK_OFF_BASE : int</text><rect fill="none" height="6" style="stroke: #C82930; stroke-width: 1.0;" width="6" x="46.5" y="732.7109"/><text fill="#000000" font-family="sans-serif" font-size="11" lengthAdjust="spacingAndGlyphs" text-decoration="underline" textLength="289" x="58.5" y="738.9214">DEFAULT_EXPONENTIAL_BACK_OFF_MULTIPLIER : int</text><rect fill="none" height="6" style="stroke: #C82930; stroke-width: 1.0;" width="6" x="46.5" y="745.5156"/><text fill="#000000" font-family="sans-serif" font-size="11" lengthAdjust="spacingAndGlyphs" text-decoration="underline" textLength="162" x="58.5" y="751.7261">DEFAULT_RETRY_COUNT : int</text><rect fill="none" height="6" style="stroke: #C82930; stroke-width: 1.0;" width="6" x="46.5" y="758.3203"/><text fill="#000000" font-family="sans-serif" font-size="11" lengthAdjust="spacingAndGlyphs" text-decoration="underline" textLength="280" x="58.5" y="764.5308">DEFAULT_USE_EXPONENTIAL_BACK_OFF : boolean</text><rect fill="none" height="6" style="stroke: #C82930; stroke-width: 1.0;" width="6" x="46.5" y="771.125"/><text fill="#000000" font-family="sans-serif" font-size="11" lengthAdjust="spacingAndGlyphs" textLength="190" x="58.5" y="777.3354">exponentialBackOffBase : Integer</text><rect fill="none" height="6" style="stroke: #C82930; stroke-width: 1.0;" width="6" x="46.5" y="783.9297"/><text fill="#000000" font-family="sans-serif" font-size="11" lengthAdjust="spacingAndGlyphs" textLength="212" x="58.5" y="790.1401">exponentialBackOffMultiplier : Integer</text><rect fill="none" height="6" style="stroke: #C82930; stroke-width: 1.0;" width="6" x="46.5" y="796.7344"/><text fill="#000000" font-family="sans-serif" font-size="11" lengthAdjust="spacingAndGlyphs" textLength="99" x="58.5" y="802.9448">message : String</text><rect fill="none" height="6" style="stroke: #C82930; stroke-width: 1.0;" width="6" x="46.5" y="809.5391"/><text fill="#000000" font-family="sans-serif" font-size="11" lengthAdjust="spacingAndGlyphs" textLength="242" x="58.5" y="815.7495">retryAbleException : Predicate&lt;Exception&gt;</text><rect fill="none" height="6" style="stroke: #C82930; stroke-width: 1.0;" width="6" x="46.5" y="822.3438"/><text fill="#000000" font-family="sans-serif" font-size="11" lengthAdjust="spacingAndGlyphs" textLength="112" x="58.5" y="828.5542">retryCount : Integer</text><rect fill="none" height="6" style="stroke: #C82930; stroke-width: 1.0;" width="6" x="46.5" y="835.1484"/><text fill="#000000" font-family="sans-serif" font-size="11" lengthAdjust="spacingAndGlyphs" textLength="188" x="58.5" y="841.3589">useExponentialBackOff : Boolean</text><line style="stroke: #A80036; stroke-width: 1.5;" x1="39.5" x2="352.5" y1="847.9531" y2="847.9531"/><polygon fill="#4177AF" points="49.5,854.9531,45.5,860.9531,53.5,860.9531" style="stroke: #1963A0; stroke-width: 1.0;"/><text fill="#000000" font-family="sans-serif" font-size="11" lengthAdjust="spacingAndGlyphs" textLength="35" x="58.5" y="862.1636">build()</text><polygon fill="#4177AF" points="49.5,867.7578,45.5,873.7578,53.5,873.7578" style="stroke: #1963A0; stroke-width: 1.0;"/><text fill="#000000" font-family="sans-serif" font-size="11" lengthAdjust="spacingAndGlyphs" textLength="146" x="58.5" y="874.9683">exponentialBackOffBase()</text><polygon fill="#4177AF" points="49.5,880.5625,45.5,886.5625,53.5,886.5625" style="stroke: #1963A0; stroke-width: 1.0;"/><text fill="#000000" font-family="sans-serif" font-size="11" lengthAdjust="spacingAndGlyphs" textLength="168" x="58.5" y="887.7729">exponentialBackOffMultiplier()</text><polygon fill="#4177AF" points="49.5,893.3672,45.5,899.3672,53.5,899.3672" style="stroke: #1963A0; stroke-width: 1.0;"/><text fill="#000000" font-family="sans-serif" font-size="11" lengthAdjust="spacingAndGlyphs" textLength="61" x="58.5" y="900.5776">message()</text><polygon fill="#4177AF" points="49.5,906.1719,45.5,912.1719,53.5,912.1719" style="stroke: #1963A0; stroke-width: 1.0;"/><text fill="#000000" font-family="sans-serif" font-size="11" lengthAdjust="spacingAndGlyphs" textLength="113" x="58.5" y="913.3823">retryAbleException()</text><polygon fill="#4177AF" points="49.5,918.9766,45.5,924.9766,53.5,924.9766" style="stroke: #1963A0; stroke-width: 1.0;"/><text fill="#000000" font-family="sans-serif" font-size="11" lengthAdjust="spacingAndGlyphs" textLength="68" x="58.5" y="926.187">retryCount()</text><polygon fill="#4177AF" points="49.5,931.7813,45.5,937.7813,53.5,937.7813" style="stroke: #1963A0; stroke-width: 1.0;"/><text fill="#000000" font-family="sans-serif" font-size="11" lengthAdjust="spacingAndGlyphs" textLength="138" x="58.5" y="938.9917">useExponentialBackOff()</text><rect fill="#F24D5C" height="6" style="stroke: #C82930; stroke-width: 1.0;" width="6" x="46.5" y="945.5859"/><text fill="#000000" font-family="sans-serif" font-size="11" lengthAdjust="spacingAndGlyphs" textLength="114" x="58.5" y="951.7964">RetryParamBuilder()</text><!--MD5=[fb8913a6f1cbbdbd1dd837a23d0e39e7]
reverse link in.ashwanik.pdp.retry.RetryCommand to in.ashwanik.pdp.retry.RetryParam--><path d="M196,328.4443 C196,349.3842 196,371.1102 196,391.8533 " fill="none" id="in.ashwanik.pdp.retry.RetryCommand&lt;-in.ashwanik.pdp.retry.RetryParam" style="stroke: #A80036; stroke-width: 1.0;"/><polygon fill="#FFFFFF" points="196,315.1713,192,321.1713,196,327.1713,200,321.1713,196,315.1713" style="stroke: #A80036; stroke-width: 1.0;"/><text fill="#000000" font-family="sans-serif" font-size="13" lengthAdjust="spacingAndGlyphs" textLength="72" x="197" y="357.9731">retryParam</text><!--MD5=[6563c7e53c9c8dcfd4829f4705e10d3c]
reverse link in.ashwanik.pdp.retry.RetryParam to in.ashwanik.pdp.retry.RetryParam.RetryParamBuilder--><path d="M196,634.6963 C196,649.6083 196,664.8673 196,679.9023 " fill="none" id="in.ashwanik.pdp.retry.RetryParam&lt;-in.ashwanik.pdp.retry.RetryParam.RetryParamBuilder" style="stroke: #A80036; stroke-width: 1.0;"/><ellipse cx="196" cy="627.3053" fill="#FFFFFF" rx="8" ry="8" style="stroke: #A80036; stroke-width: 1.0;"/><line style="stroke: #A80036; stroke-width: 1.0;" x1="196" x2="196" y1="635.3053" y2="619.3053"/><line style="stroke: #A80036; stroke-width: 1.0;" x1="188" x2="204" y1="627.3053" y2="627.3053"/><!--MD5=[6d1c36591b0e997e357983e5ff8cc4d5]
@startuml
title __RETRY__\n

  namespace in.ashwanik.pdp.retry {
    class in.ashwanik.pdp.retry.RetryCommand {
        {static} - DEFAULT_WAIT : int
        - exponentialWaitTime : long
        {static} - log : Logger
        - retryCounter : int
        ~ RetryCommand()
        ~ getExponentialWaitTime()
        ~ getRetryCounter()
        ~ getRetryParam()
        ~ run()
        ~ run()
        - applyExponentialBackOff()
        - checkExceptionForRetrying()
        - retry()
    }
  }
  

  namespace in.ashwanik.pdp.retry {
    class in.ashwanik.pdp.retry.RetryParam {
        - exponentialBackOffBase : int
        - exponentialBackOffMultiplier : int
        - message : String
        - retryAbleException : Predicate<Exception>
        - retryCount : int
        - useExponentialBackOff : boolean
        + getExponentialBackOffBase()
        + getExponentialBackOffMultiplier()
        + getMessage()
        + getRetryAbleException()
        + getRetryCount()
        + isUseExponentialBackOff()
        {static} ~ builder()
        - RetryParam()
    }
  }
  

  namespace in.ashwanik.pdp.retry {
    class in.ashwanik.pdp.retry.RetryParam.RetryParamBuilder {
        {static} - DEFAULT_EXPONENTIAL_BACK_OFF_BASE : int
        {static} - DEFAULT_EXPONENTIAL_BACK_OFF_MULTIPLIER : int
        {static} - DEFAULT_RETRY_COUNT : int
        {static} - DEFAULT_USE_EXPONENTIAL_BACK_OFF : boolean
        - exponentialBackOffBase : Integer
        - exponentialBackOffMultiplier : Integer
        - message : String
        - retryAbleException : Predicate<Exception>
        - retryCount : Integer
        - useExponentialBackOff : Boolean
        ~ build()
        ~ exponentialBackOffBase()
        ~ exponentialBackOffMultiplier()
        ~ message()
        ~ retryAbleException()
        ~ retryCount()
        ~ useExponentialBackOff()
        - RetryParamBuilder()
    }
  }
  

  in.ashwanik.pdp.retry.RetryCommand o- - in.ashwanik.pdp.retry.RetryParam : retryParam
  in.ashwanik.pdp.retry.RetryParam +-down- in.ashwanik.pdp.retry.RetryParam.RetryParamBuilder
@enduml

PlantUML version 1.2019.11(Sun Sep 22 10:02:15 UTC 2019)
(GPL source distribution)
Java Runtime: Java(TM) SE Runtime Environment
JVM: Java HotSpot(TM) 64-Bit Server VM
Java Version: 1.7.0_25-b15
Operating System: Linux
Default Encoding: UTF-8
Language: en
Country: US
--></g></svg>