<?xml version="1.0" encoding="UTF-8" standalone="no"?>
<svg xmlns="http://www.w3.org/2000/svg" xmlns:xlink="http://www.w3.org/1999/xlink" contentScriptType="application/ecmascript" contentStyleType="text/css" height="713px" preserveAspectRatio="none" style="width:337px;height:713px;" version="1.1" viewBox="0 0 337 713" width="337px" zoomAndPan="magnify"><defs><filter height="300%" id="f10qtwkosxkbj6" width="300%" x="-1" y="-1"><feGaussianBlur result="blurOut" stdDeviation="2.0"/><feColorMatrix in="blurOut" result="blurOut2" type="matrix" values="0 0 0 0 0 0 0 0 0 0 0 0 0 0 0 0 0 0 .4 0"/><feOffset dx="4.0" dy="4.0" in="blurOut2" result="blurOut3"/><feBlend in="SourceGraphic" in2="blurOut3" mode="normal"/></filter></defs><g><text fill="#000000" font-family="sans-serif" font-size="18" lengthAdjust="spacingAndGlyphs" text-decoration="underline" textLength="174" x="75.5" y="16.708">SERVICE_LOCATOR</text><text fill="#000000" font-family="sans-serif" font-size="18" lengthAdjust="spacingAndGlyphs" textLength="0" x="165.5" y="37.6611"/><!--MD5=[0fa7107cb8ccefce5e6ae304e98f120e]
cluster in.ashwanik.pdp.service_locator--><polygon fill="#FFFFFF" filter="url(#f10qtwkosxkbj6)" points="22,65.9063,281,65.9063,288,88.2031,291,88.2031,291,664.9063,22,664.9063,22,65.9063" style="stroke: #000000; stroke-width: 1.5;"/><line style="stroke: #000000; stroke-width: 1.5;" x1="22" x2="288" y1="88.2031" y2="88.2031"/><text fill="#000000" font-family="sans-serif" font-size="14" font-weight="bold" lengthAdjust="spacingAndGlyphs" textLength="253" x="26" y="80.9014">in.ashwanik.pdp.service_locator</text><!--MD5=[4d0b8f10b934a8604ab0f60873235118]
class in.ashwanik.pdp.service_locator.Cache--><rect fill="#FEFECE" filter="url(#f10qtwkosxkbj6)" height="73.6094" id="in.ashwanik.pdp.service_locator.Cache" style="stroke: #A80036; stroke-width: 1.5;" width="71" x="99.5" y="276.9063"/><ellipse cx="114.5" cy="292.9063" fill="#B4A7E5" rx="11" ry="11" style="stroke: #A80036; stroke-width: 1.0;"/><path d="M115.4531,289.6875 L115.4531,296.2031 L117.1719,296.2031 C117.625,296.2031 117.7656,296.2344 117.9375,296.3594 C118.1719,296.5313 118.2813,296.7813 118.2813,297.0625 C118.2813,297.625 117.9219,297.9063 117.1719,297.9063 L112.0313,297.9063 C111.625,297.9063 111.4219,297.8594 111.2656,297.7344 C111.0469,297.5781 110.9063,297.3125 110.9063,297.0625 C110.9063,296.7656 111.0625,296.4844 111.3125,296.3281 C111.4688,296.2188 111.5938,296.2031 112.0313,296.2031 L113.75,296.2031 L113.75,289.6875 L112.0313,289.6875 C111.6094,289.6875 111.4219,289.6563 111.2656,289.5469 C111.0469,289.375 110.9063,289.125 110.9063,288.8438 C110.9063,288.5625 111.0625,288.2656 111.3125,288.1094 C111.4688,288.0156 111.5938,288 112.0313,288 L117.1719,288 C117.625,288 117.7656,288.0313 117.9375,288.1406 C118.1719,288.3125 118.2813,288.5781 118.2813,288.8438 C118.2813,289.1406 118.1406,289.4219 117.875,289.5781 C117.75,289.6563 117.5625,289.6875 117.1719,289.6875 Z "/><text fill="#000000" font-family="sans-serif" font-size="12" font-style="italic" lengthAdjust="spacingAndGlyphs" textLength="39" x="128.5" y="297.0605">Cache</text><line style="stroke: #A80036; stroke-width: 1.5;" x1="100.5" x2="169.5" y1="308.9063" y2="308.9063"/><line style="stroke: #A80036; stroke-width: 1.5;" x1="100.5" x2="169.5" y1="316.9063" y2="316.9063"/><ellipse cx="110.5" cy="327.9063" fill="#84BE84" rx="3" ry="3" style="stroke: #038048; stroke-width: 1.0;"/><text fill="#000000" font-family="sans-serif" font-size="11" font-style="italic" lengthAdjust="spacingAndGlyphs" textLength="26" x="119.5" y="331.1167">get()</text><ellipse cx="110.5" cy="340.7109" fill="#84BE84" rx="3" ry="3" style="stroke: #038048; stroke-width: 1.0;"/><text fill="#000000" font-family="sans-serif" font-size="11" font-style="italic" lengthAdjust="spacingAndGlyphs" textLength="26" x="119.5" y="343.9214">put()</text><!--MD5=[038cbe4492a81f3ef7c019c707c66c60]
class in.ashwanik.pdp.service_locator.NullCache--><rect fill="#FEFECE" filter="url(#f10qtwkosxkbj6)" height="73.6094" id="in.ashwanik.pdp.service_locator.NullCache" style="stroke: #A80036; stroke-width: 1.5;" width="94" x="39" y="417.9063"/><ellipse cx="54" cy="433.9063" fill="#ADD1B2" rx="11" ry="11" style="stroke: #A80036; stroke-width: 1.0;"/><path d="M56.3438,429.5781 L56.5156,429.6563 C56.7344,429.3438 56.9375,429.25 57.2344,429.25 C57.5313,429.25 57.8125,429.3906 57.9688,429.6563 C58.0625,429.8125 58.0781,429.9375 58.0781,430.375 L58.0781,431.7969 C58.0781,432.2188 58.0469,432.4063 57.9375,432.5625 C57.7656,432.7813 57.5,432.9219 57.2344,432.9219 C57.0156,432.9219 56.7813,432.8125 56.6406,432.6719 C56.5,432.5469 56.4688,432.4219 56.4063,432.0156 C56.3125,431.6094 56.1406,431.3906 55.6563,431.1094 C55.1875,430.8594 54.5781,430.7031 54,430.7031 C52.2656,430.7031 51.0156,432.0156 51.0156,433.7969 L51.0156,434.8906 C51.0156,436.5938 52.3125,437.6875 54.3594,437.6875 C55.125,437.6875 55.8125,437.5625 56.2344,437.2969 C56.4219,437.2031 56.4219,437.2031 56.875,436.7188 C57.0625,436.5313 57.2656,436.4531 57.4844,436.4531 C57.9531,436.4531 58.3438,436.8438 58.3438,437.2969 C58.3438,437.6875 58.0156,438.1406 57.4375,438.5469 C56.6875,439.0938 55.5313,439.3906 54.3125,439.3906 C51.4219,439.3906 49.3125,437.5 49.3125,434.9219 L49.3125,433.7969 C49.3125,431.0781 51.3125,429 53.9375,429 C54.8125,429 55.4063,429.1406 56.3438,429.5781 Z "/><text fill="#000000" font-family="sans-serif" font-size="12" lengthAdjust="spacingAndGlyphs" textLength="62" x="68" y="438.0605">NullCache</text><line style="stroke: #A80036; stroke-width: 1.5;" x1="40" x2="132" y1="449.9063" y2="449.9063"/><line style="stroke: #A80036; stroke-width: 1.5;" x1="40" x2="132" y1="457.9063" y2="457.9063"/><ellipse cx="50" cy="468.9063" fill="#84BE84" rx="3" ry="3" style="stroke: #038048; stroke-width: 1.0;"/><text fill="#000000" font-family="sans-serif" font-size="11" lengthAdjust="spacingAndGlyphs" textLength="26" x="59" y="472.1167">get()</text><ellipse cx="50" cy="481.7109" fill="#84BE84" rx="3" ry="3" style="stroke: #038048; stroke-width: 1.0;"/><text fill="#000000" font-family="sans-serif" font-size="11" lengthAdjust="spacingAndGlyphs" textLength="26" x="59" y="484.9214">put()</text><!--MD5=[786228adc42f560c99b520cbe064cad9]
class in.ashwanik.pdp.service_locator.RedisCache--><rect fill="#FEFECE" filter="url(#f10qtwkosxkbj6)" height="86.4141" id="in.ashwanik.pdp.service_locator.RedisCache" style="stroke: #A80036; stroke-width: 1.5;" width="105" x="168.5" y="411.9063"/><ellipse cx="183.5" cy="427.9063" fill="#ADD1B2" rx="11" ry="11" style="stroke: #A80036; stroke-width: 1.0;"/><path d="M185.8438,423.5781 L186.0156,423.6563 C186.2344,423.3438 186.4375,423.25 186.7344,423.25 C187.0313,423.25 187.3125,423.3906 187.4688,423.6563 C187.5625,423.8125 187.5781,423.9375 187.5781,424.375 L187.5781,425.7969 C187.5781,426.2188 187.5469,426.4063 187.4375,426.5625 C187.2656,426.7813 187,426.9219 186.7344,426.9219 C186.5156,426.9219 186.2813,426.8125 186.1406,426.6719 C186,426.5469 185.9688,426.4219 185.9063,426.0156 C185.8125,425.6094 185.6406,425.3906 185.1563,425.1094 C184.6875,424.8594 184.0781,424.7031 183.5,424.7031 C181.7656,424.7031 180.5156,426.0156 180.5156,427.7969 L180.5156,428.8906 C180.5156,430.5938 181.8125,431.6875 183.8594,431.6875 C184.625,431.6875 185.3125,431.5625 185.7344,431.2969 C185.9219,431.2031 185.9219,431.2031 186.375,430.7188 C186.5625,430.5313 186.7656,430.4531 186.9844,430.4531 C187.4531,430.4531 187.8438,430.8438 187.8438,431.2969 C187.8438,431.6875 187.5156,432.1406 186.9375,432.5469 C186.1875,433.0938 185.0313,433.3906 183.8125,433.3906 C180.9219,433.3906 178.8125,431.5 178.8125,428.9219 L178.8125,427.7969 C178.8125,425.0781 180.8125,423 183.4375,423 C184.3125,423 184.9063,423.1406 185.8438,423.5781 Z "/><text fill="#000000" font-family="sans-serif" font-size="12" lengthAdjust="spacingAndGlyphs" textLength="73" x="197.5" y="432.0605">RedisCache</text><line style="stroke: #A80036; stroke-width: 1.5;" x1="169.5" x2="272.5" y1="443.9063" y2="443.9063"/><line style="stroke: #A80036; stroke-width: 1.5;" x1="169.5" x2="272.5" y1="451.9063" y2="451.9063"/><ellipse cx="179.5" cy="462.9063" fill="#84BE84" rx="3" ry="3" style="stroke: #038048; stroke-width: 1.0;"/><text fill="#000000" font-family="sans-serif" font-size="11" lengthAdjust="spacingAndGlyphs" textLength="74" x="188.5" y="466.1167">RedisCache()</text><ellipse cx="179.5" cy="475.7109" fill="#84BE84" rx="3" ry="3" style="stroke: #038048; stroke-width: 1.0;"/><text fill="#000000" font-family="sans-serif" font-size="11" lengthAdjust="spacingAndGlyphs" textLength="26" x="188.5" y="478.9214">get()</text><ellipse cx="179.5" cy="488.5156" fill="#84BE84" rx="3" ry="3" style="stroke: #038048; stroke-width: 1.0;"/><text fill="#000000" font-family="sans-serif" font-size="11" lengthAdjust="spacingAndGlyphs" textLength="26" x="188.5" y="491.7261">put()</text><!--MD5=[9b214815e629fc070fac8583e5ff1430]
class in.ashwanik.pdp.service_locator.RedisClient--><rect fill="#FEFECE" filter="url(#f10qtwkosxkbj6)" height="73.6094" id="in.ashwanik.pdp.service_locator.RedisClient" style="stroke: #A80036; stroke-width: 1.5;" width="100" x="155" y="574.9063"/><ellipse cx="170" cy="590.9063" fill="#B4A7E5" rx="11" ry="11" style="stroke: #A80036; stroke-width: 1.0;"/><path d="M170.9531,587.6875 L170.9531,594.2031 L172.6719,594.2031 C173.125,594.2031 173.2656,594.2344 173.4375,594.3594 C173.6719,594.5313 173.7813,594.7813 173.7813,595.0625 C173.7813,595.625 173.4219,595.9063 172.6719,595.9063 L167.5313,595.9063 C167.125,595.9063 166.9219,595.8594 166.7656,595.7344 C166.5469,595.5781 166.4063,595.3125 166.4063,595.0625 C166.4063,594.7656 166.5625,594.4844 166.8125,594.3281 C166.9688,594.2188 167.0938,594.2031 167.5313,594.2031 L169.25,594.2031 L169.25,587.6875 L167.5313,587.6875 C167.1094,587.6875 166.9219,587.6563 166.7656,587.5469 C166.5469,587.375 166.4063,587.125 166.4063,586.8438 C166.4063,586.5625 166.5625,586.2656 166.8125,586.1094 C166.9688,586.0156 167.0938,586 167.5313,586 L172.6719,586 C173.125,586 173.2656,586.0313 173.4375,586.1406 C173.6719,586.3125 173.7813,586.5781 173.7813,586.8438 C173.7813,587.1406 173.6406,587.4219 173.375,587.5781 C173.25,587.6563 173.0625,587.6875 172.6719,587.6875 Z "/><text fill="#000000" font-family="sans-serif" font-size="12" font-style="italic" lengthAdjust="spacingAndGlyphs" textLength="68" x="184" y="595.0605">RedisClient</text><line style="stroke: #A80036; stroke-width: 1.5;" x1="156" x2="254" y1="606.9063" y2="606.9063"/><line style="stroke: #A80036; stroke-width: 1.5;" x1="156" x2="254" y1="614.9063" y2="614.9063"/><ellipse cx="166" cy="625.9063" fill="#84BE84" rx="3" ry="3" style="stroke: #038048; stroke-width: 1.0;"/><text fill="#000000" font-family="sans-serif" font-size="11" font-style="italic" lengthAdjust="spacingAndGlyphs" textLength="26" x="175" y="629.1167">get()</text><ellipse cx="166" cy="638.7109" fill="#84BE84" rx="3" ry="3" style="stroke: #038048; stroke-width: 1.0;"/><text fill="#000000" font-family="sans-serif" font-size="11" font-style="italic" lengthAdjust="spacingAndGlyphs" textLength="35" x="175" y="641.9214">save()</text><!--MD5=[3afe8a2639116b593fee9fccc70b1265]
class in.ashwanik.pdp.service_locator.ServiceLocator--><rect fill="#FEFECE" filter="url(#f10qtwkosxkbj6)" height="99.2188" id="in.ashwanik.pdp.service_locator.ServiceLocator" style="stroke: #A80036; stroke-width: 1.5;" width="161" x="56.5" y="100.9063"/><ellipse cx="88.15" cy="116.9063" fill="#ADD1B2" rx="11" ry="11" style="stroke: #A80036; stroke-width: 1.0;"/><path d="M90.4938,112.5781 L90.6656,112.6563 C90.8844,112.3438 91.0875,112.25 91.3844,112.25 C91.6813,112.25 91.9625,112.3906 92.1188,112.6563 C92.2125,112.8125 92.2281,112.9375 92.2281,113.375 L92.2281,114.7969 C92.2281,115.2188 92.1969,115.4063 92.0875,115.5625 C91.9156,115.7813 91.65,115.9219 91.3844,115.9219 C91.1656,115.9219 90.9313,115.8125 90.7906,115.6719 C90.65,115.5469 90.6188,115.4219 90.5563,115.0156 C90.4625,114.6094 90.2906,114.3906 89.8063,114.1094 C89.3375,113.8594 88.7281,113.7031 88.15,113.7031 C86.4156,113.7031 85.1656,115.0156 85.1656,116.7969 L85.1656,117.8906 C85.1656,119.5938 86.4625,120.6875 88.5094,120.6875 C89.275,120.6875 89.9625,120.5625 90.3844,120.2969 C90.5719,120.2031 90.5719,120.2031 91.025,119.7188 C91.2125,119.5313 91.4156,119.4531 91.6344,119.4531 C92.1031,119.4531 92.4938,119.8438 92.4938,120.2969 C92.4938,120.6875 92.1656,121.1406 91.5875,121.5469 C90.8375,122.0938 89.6813,122.3906 88.4625,122.3906 C85.5719,122.3906 83.4625,120.5 83.4625,117.9219 L83.4625,116.7969 C83.4625,114.0781 85.4625,112 88.0875,112 C88.9625,112 89.5563,112.1406 90.4938,112.5781 Z "/><text fill="#000000" font-family="sans-serif" font-size="12" lengthAdjust="spacingAndGlyphs" textLength="92" x="105.85" y="121.0605">ServiceLocator</text><line style="stroke: #A80036; stroke-width: 1.5;" x1="57.5" x2="216.5" y1="132.9063" y2="132.9063"/><rect fill="none" height="6" style="stroke: #C82930; stroke-width: 1.0;" width="6" x="64.5" y="140.9063"/><text fill="#000000" font-family="sans-serif" font-size="11" lengthAdjust="spacingAndGlyphs" text-decoration="underline" textLength="135" x="76.5" y="147.1167">locator : ServiceLocator</text><line style="stroke: #A80036; stroke-width: 1.5;" x1="57.5" x2="216.5" y1="153.7109" y2="153.7109"/><ellipse cx="67.5" cy="164.7109" fill="#84BE84" rx="3" ry="3" style="stroke: #038048; stroke-width: 1.0;"/><text fill="#000000" font-family="sans-serif" font-size="11" lengthAdjust="spacingAndGlyphs" textLength="61" x="76.5" y="167.9214">getCache()</text><ellipse cx="67.5" cy="177.5156" fill="#84BE84" rx="3" ry="3" style="stroke: #038048; stroke-width: 1.0;"/><text fill="#000000" font-family="sans-serif" font-size="11" lengthAdjust="spacingAndGlyphs" text-decoration="underline" textLength="74" x="76.5" y="180.7261">getInstance()</text><ellipse cx="67.5" cy="190.3203" fill="#84BE84" rx="3" ry="3" style="stroke: #038048; stroke-width: 1.0;"/><text fill="#000000" font-family="sans-serif" font-size="11" lengthAdjust="spacingAndGlyphs" textLength="61" x="76.5" y="193.5308">setCache()</text><!--MD5=[0b14d3fd2030deb3ca8794c06e3bf8c5]
reverse link in.ashwanik.pdp.service_locator.Cache to in.ashwanik.pdp.service_locator.NullCache--><path d="M115.555,370.0663 C109.941,385.9913 103.9574,402.9663 98.8527,417.4463 " fill="none" id="in.ashwanik.pdp.service_locator.Cache&lt;-in.ashwanik.pdp.service_locator.NullCache" style="stroke: #A80036; stroke-width: 1.0; stroke-dasharray: 7.0,7.0;"/><polygon fill="none" points="109.003,367.5993,122.254,351.0643,122.206,372.2533,109.003,367.5993" style="stroke: #A80036; stroke-width: 1.0;"/><!--MD5=[905178a27db339e37911dc56ef822446]
reverse link in.ashwanik.pdp.service_locator.Cache to in.ashwanik.pdp.service_locator.RedisCache--><path d="M168.17,368.5173 C177.04,382.8553 186.501,398.1463 194.929,411.7673 " fill="none" id="in.ashwanik.pdp.service_locator.Cache&lt;-in.ashwanik.pdp.service_locator.RedisCache" style="stroke: #A80036; stroke-width: 1.0; stroke-dasharray: 7.0,7.0;"/><polygon fill="none" points="161.941,371.7553,157.371,351.0643,173.847,364.3893,161.941,371.7553" style="stroke: #A80036; stroke-width: 1.0;"/><!--MD5=[a7ed14d1adaddb3425c1566a97892797]
reverse link in.ashwanik.pdp.service_locator.RedisCache to in.ashwanik.pdp.service_locator.RedisClient--><path d="M215.278,511.3393 C213.105,532.3923 210.687,555.8153 208.742,574.6513 " fill="none" id="in.ashwanik.pdp.service_locator.RedisCache&lt;-in.ashwanik.pdp.service_locator.RedisClient" style="stroke: #A80036; stroke-width: 1.0;"/><polygon fill="#FFFFFF" points="216.628,498.2603,212.0327,503.8175,215.3951,510.1967,219.9904,504.6395,216.628,498.2603" style="stroke: #A80036; stroke-width: 1.0;"/><text fill="#000000" font-family="sans-serif" font-size="13" lengthAdjust="spacingAndGlyphs" textLength="67" x="214" y="540.9731">redisClient</text><!--MD5=[b3e9231720b856f969f420cf69e895cb]
reverse link in.ashwanik.pdp.service_locator.ServiceLocator to in.ashwanik.pdp.service_locator.Cache--><path d="M87.6956,211.9883 C84.6228,217.8093 81.9769,223.8193 80,229.9063 C73.646,249.4713 85.0837,268.7813 99.1452,283.8463 " fill="none" id="in.ashwanik.pdp.service_locator.ServiceLocator&lt;-in.ashwanik.pdp.service_locator.Cache" style="stroke: #A80036; stroke-width: 1.0;"/><polygon fill="#FFFFFF" points="94.5247,200.3403,88.0395,203.4935,88.4559,210.6925,94.9411,207.5393,94.5247,200.3403" style="stroke: #A80036; stroke-width: 1.0;"/><text fill="#000000" font-family="sans-serif" font-size="13" lengthAdjust="spacingAndGlyphs" textLength="38" x="81" y="242.9731">cache</text><!--MD5=[b3e9231720b856f969f420cf69e895cb]
reverse link in.ashwanik.pdp.service_locator.ServiceLocator to in.ashwanik.pdp.service_locator.Cache--><path d="M136.233,213.3433 C135.968,234.7753 135.679,258.0783 135.448,276.7483 " fill="none" id="in.ashwanik.pdp.service_locator.ServiceLocator&lt;-in.ashwanik.pdp.service_locator.Cache-1" style="stroke: #A80036; stroke-width: 1.0;"/><polygon fill="#FFFFFF" points="136.395,200.3003,132.3208,206.2501,136.246,212.2993,140.3202,206.3495,136.395,200.3003" style="stroke: #A80036; stroke-width: 1.0;"/><text fill="#000000" font-family="sans-serif" font-size="13" lengthAdjust="spacingAndGlyphs" textLength="62" x="137" y="242.9731">nullCache</text><text fill="#888888" font-family="sans-serif" font-size="10" lengthAdjust="spacingAndGlyphs" textLength="0" x="325" y="700.1885"/><!--MD5=[bc5872ed8898eb917c652c91fdf016bc]
@startuml
title __SERVICE_LOCATOR__\n

  namespace in.ashwanik.pdp.service_locator {
    interface in.ashwanik.pdp.service_locator.Cache {
        {abstract} + get()
        {abstract} + put()
    }
  }
  

  namespace in.ashwanik.pdp.service_locator {
    class in.ashwanik.pdp.service_locator.NullCache {
        + get()
        + put()
    }
  }
  

  namespace in.ashwanik.pdp.service_locator {
    class in.ashwanik.pdp.service_locator.RedisCache {
        + RedisCache()
        + get()
        + put()
    }
  }
  

  namespace in.ashwanik.pdp.service_locator {
    interface in.ashwanik.pdp.service_locator.RedisClient {
        {abstract} + get()
        {abstract} + save()
    }
  }
  

  namespace in.ashwanik.pdp.service_locator {
    class in.ashwanik.pdp.service_locator.ServiceLocator {
        {static} - locator : ServiceLocator
        + getCache()
        {static} + getInstance()
        + setCache()
    }
  }
  

  in.ashwanik.pdp.service_locator.NullCache .up.|> in.ashwanik.pdp.service_locator.Cache
  in.ashwanik.pdp.service_locator.RedisCache .up.|> in.ashwanik.pdp.service_locator.Cache
  in.ashwanik.pdp.service_locator.RedisCache o- - in.ashwanik.pdp.service_locator.RedisClient : redisClient
  in.ashwanik.pdp.service_locator.ServiceLocator o- - in.ashwanik.pdp.service_locator.Cache : cache
  in.ashwanik.pdp.service_locator.ServiceLocator o- - in.ashwanik.pdp.service_locator.Cache : nullCache

right footer

endfooter
@enduml

PlantUML version 1.2019.11(Sun Sep 22 10:02:15 UTC 2019)
(GPL source distribution)
Java Runtime: Java(TM) SE Runtime Environment
JVM: Java HotSpot(TM) 64-Bit Server VM
Java Version: 1.7.0_25-b15
Operating System: Linux
Default Encoding: UTF-8
Language: en
Country: US
--></g></svg>