<?xml version="1.0" encoding="UTF-8" standalone="no"?>
<svg xmlns="http://www.w3.org/2000/svg" xmlns:xlink="http://www.w3.org/1999/xlink" contentScriptType="application/ecmascript" contentStyleType="text/css" height="390px" preserveAspectRatio="none" style="width:435px;height:390px;" version="1.1" viewBox="0 0 435 390" width="435px" zoomAndPan="magnify"><defs><filter height="300%" id="f1vbcpvojyvuhd" width="300%" x="-1" y="-1"><feGaussianBlur result="blurOut" stdDeviation="2.0"/><feColorMatrix in="blurOut" result="blurOut2" type="matrix" values="0 0 0 0 0 0 0 0 0 0 0 0 0 0 0 0 0 0 .4 0"/><feOffset dx="4.0" dy="4.0" in="blurOut2" result="blurOut3"/><feBlend in="SourceGraphic" in2="blurOut3" mode="normal"/></filter></defs><g><text fill="#000000" font-family="sans-serif" font-size="18" lengthAdjust="spacingAndGlyphs" text-decoration="underline" textLength="106" x="170.5" y="16.708">SINGLETON</text><text fill="#000000" font-family="sans-serif" font-size="18" lengthAdjust="spacingAndGlyphs" textLength="0" x="226.5" y="37.6611"/><!--cluster in.ashwanik.pdp.singleton--><polygon fill="#FFFFFF" filter="url(#f1vbcpvojyvuhd)" points="22,65.9063,234,65.9063,241,88.2031,413,88.2031,413,378.9063,22,378.9063,22,65.9063" style="stroke: #000000; stroke-width: 1.5;"/><line style="stroke: #000000; stroke-width: 1.5;" x1="22" x2="241" y1="88.2031" y2="88.2031"/><text fill="#000000" font-family="sans-serif" font-size="14" font-weight="bold" lengthAdjust="spacingAndGlyphs" textLength="206" x="26" y="80.9014">in.ashwanik.pdp.singleton</text><!--class in.ashwanik.pdp.singleton.Game--><rect fill="#FEFECE" filter="url(#f1vbcpvojyvuhd)" height="99.2188" id="in.ashwanik.pdp.singleton.Game" style="stroke: #A80036; stroke-width: 1.5;" width="129" x="156.5" y="100.9063"/><ellipse cx="198.95" cy="116.9063" fill="#ADD1B2" rx="11" ry="11" style="stroke: #A80036; stroke-width: 1.0;"/><path d="M201.2938,112.5781 L201.4656,112.6563 C201.6844,112.3438 201.8875,112.25 202.1844,112.25 C202.4813,112.25 202.7625,112.3906 202.9188,112.6563 C203.0125,112.8125 203.0281,112.9375 203.0281,113.375 L203.0281,114.7969 C203.0281,115.2188 202.9969,115.4063 202.8875,115.5625 C202.7156,115.7813 202.45,115.9219 202.1844,115.9219 C201.9656,115.9219 201.7313,115.8125 201.5906,115.6719 C201.45,115.5469 201.4188,115.4219 201.3563,115.0156 C201.2625,114.6094 201.0906,114.3906 200.6063,114.1094 C200.1375,113.8594 199.5281,113.7031 198.95,113.7031 C197.2156,113.7031 195.9656,115.0156 195.9656,116.7969 L195.9656,117.8906 C195.9656,119.5938 197.2625,120.6875 199.3094,120.6875 C200.075,120.6875 200.7625,120.5625 201.1844,120.2969 C201.3719,120.2031 201.3719,120.2031 201.825,119.7188 C202.0125,119.5313 202.2156,119.4531 202.4344,119.4531 C202.9031,119.4531 203.2938,119.8438 203.2938,120.2969 C203.2938,120.6875 202.9656,121.1406 202.3875,121.5469 C201.6375,122.0938 200.4813,122.3906 199.2625,122.3906 C196.3719,122.3906 194.2625,120.5 194.2625,117.9219 L194.2625,116.7969 C194.2625,114.0781 196.2625,112 198.8875,112 C199.7625,112 200.3563,112.1406 201.2938,112.5781 Z "/><text fill="#000000" font-family="sans-serif" font-size="12" lengthAdjust="spacingAndGlyphs" textLength="36" x="219.05" y="121.0605">Game</text><line style="stroke: #A80036; stroke-width: 1.5;" x1="157.5" x2="284.5" y1="132.9063" y2="132.9063"/><rect fill="none" height="6" style="stroke: #C82930; stroke-width: 1.0;" width="6" x="164.5" y="140.9063"/><text fill="#000000" font-family="sans-serif" font-size="11" lengthAdjust="spacingAndGlyphs" text-decoration="underline" textLength="68" x="176.5" y="147.1167">log : Logger</text><line style="stroke: #A80036; stroke-width: 1.5;" x1="157.5" x2="284.5" y1="153.7109" y2="153.7109"/><ellipse cx="167.5" cy="164.7109" fill="#84BE84" rx="3" ry="3" style="stroke: #038048; stroke-width: 1.0;"/><text fill="#000000" font-family="sans-serif" font-size="11" lengthAdjust="spacingAndGlyphs" text-decoration="underline" textLength="103" x="176.5" y="167.9214">getCurrentGame()</text><ellipse cx="167.5" cy="177.5156" fill="#84BE84" rx="3" ry="3" style="stroke: #038048; stroke-width: 1.0;"/><text fill="#000000" font-family="sans-serif" font-size="11" lengthAdjust="spacingAndGlyphs" textLength="96" x="176.5" y="180.7261">getGameConfig()</text><rect fill="#F24D5C" height="6" style="stroke: #C82930; stroke-width: 1.0;" width="6" x="164.5" y="187.3203"/><text fill="#000000" font-family="sans-serif" font-size="11" lengthAdjust="spacingAndGlyphs" textLength="42" x="176.5" y="193.5308">Game()</text><!--class in.ashwanik.pdp.singleton.Game.SingletonHelper--><rect fill="#FEFECE" filter="url(#f1vbcpvojyvuhd)" height="60.8047" id="in.ashwanik.pdp.singleton.Game.SingletonHelper" style="stroke: #A80036; stroke-width: 1.5;" width="172" x="38" y="289.4063"/><ellipse cx="53" cy="305.4063" fill="#ADD1B2" rx="11" ry="11" style="stroke: #A80036; stroke-width: 1.0;"/><path d="M55.3438,301.0781 L55.5156,301.1563 C55.7344,300.8438 55.9375,300.75 56.2344,300.75 C56.5313,300.75 56.8125,300.8906 56.9688,301.1563 C57.0625,301.3125 57.0781,301.4375 57.0781,301.875 L57.0781,303.2969 C57.0781,303.7188 57.0469,303.9063 56.9375,304.0625 C56.7656,304.2813 56.5,304.4219 56.2344,304.4219 C56.0156,304.4219 55.7813,304.3125 55.6406,304.1719 C55.5,304.0469 55.4688,303.9219 55.4063,303.5156 C55.3125,303.1094 55.1406,302.8906 54.6563,302.6094 C54.1875,302.3594 53.5781,302.2031 53,302.2031 C51.2656,302.2031 50.0156,303.5156 50.0156,305.2969 L50.0156,306.3906 C50.0156,308.0938 51.3125,309.1875 53.3594,309.1875 C54.125,309.1875 54.8125,309.0625 55.2344,308.7969 C55.4219,308.7031 55.4219,308.7031 55.875,308.2188 C56.0625,308.0313 56.2656,307.9531 56.4844,307.9531 C56.9531,307.9531 57.3438,308.3438 57.3438,308.7969 C57.3438,309.1875 57.0156,309.6406 56.4375,310.0469 C55.6875,310.5938 54.5313,310.8906 53.3125,310.8906 C50.4219,310.8906 48.3125,309 48.3125,306.4219 L48.3125,305.2969 C48.3125,302.5781 50.3125,300.5 52.9375,300.5 C53.8125,300.5 54.4063,300.6406 55.3438,301.0781 Z "/><text fill="#000000" font-family="sans-serif" font-size="12" lengthAdjust="spacingAndGlyphs" textLength="140" x="67" y="309.5605">Game.SingletonHelper</text><line style="stroke: #A80036; stroke-width: 1.5;" x1="39" x2="209" y1="321.4063" y2="321.4063"/><rect fill="none" height="6" style="stroke: #C82930; stroke-width: 1.0;" width="6" x="46" y="329.4063"/><text fill="#000000" font-family="sans-serif" font-size="11" lengthAdjust="spacingAndGlyphs" text-decoration="underline" textLength="136" x="58" y="335.6167">CURRENT_GAME : Game</text><line style="stroke: #A80036; stroke-width: 1.5;" x1="39" x2="209" y1="342.2109" y2="342.2109"/><!--class in.ashwanik.pdp.singleton.GameConfig--><rect fill="#FEFECE" filter="url(#f1vbcpvojyvuhd)" height="86.4141" id="in.ashwanik.pdp.singleton.GameConfig" style="stroke: #A80036; stroke-width: 1.5;" width="152" x="245" y="276.9063"/><ellipse cx="280.25" cy="292.9063" fill="#ADD1B2" rx="11" ry="11" style="stroke: #A80036; stroke-width: 1.0;"/><path d="M282.5938,288.5781 L282.7656,288.6563 C282.9844,288.3438 283.1875,288.25 283.4844,288.25 C283.7813,288.25 284.0625,288.3906 284.2188,288.6563 C284.3125,288.8125 284.3281,288.9375 284.3281,289.375 L284.3281,290.7969 C284.3281,291.2188 284.2969,291.4063 284.1875,291.5625 C284.0156,291.7813 283.75,291.9219 283.4844,291.9219 C283.2656,291.9219 283.0313,291.8125 282.8906,291.6719 C282.75,291.5469 282.7188,291.4219 282.6563,291.0156 C282.5625,290.6094 282.3906,290.3906 281.9063,290.1094 C281.4375,289.8594 280.8281,289.7031 280.25,289.7031 C278.5156,289.7031 277.2656,291.0156 277.2656,292.7969 L277.2656,293.8906 C277.2656,295.5938 278.5625,296.6875 280.6094,296.6875 C281.375,296.6875 282.0625,296.5625 282.4844,296.2969 C282.6719,296.2031 282.6719,296.2031 283.125,295.7188 C283.3125,295.5313 283.5156,295.4531 283.7344,295.4531 C284.2031,295.4531 284.5938,295.8438 284.5938,296.2969 C284.5938,296.6875 284.2656,297.1406 283.6875,297.5469 C282.9375,298.0938 281.7813,298.3906 280.5625,298.3906 C277.6719,298.3906 275.5625,296.5 275.5625,293.9219 L275.5625,292.7969 C275.5625,290.0781 277.5625,288 280.1875,288 C281.0625,288 281.6563,288.1406 282.5938,288.5781 Z "/><text fill="#000000" font-family="sans-serif" font-size="12" lengthAdjust="spacingAndGlyphs" textLength="75" x="298.75" y="297.0605">GameConfig</text><line style="stroke: #A80036; stroke-width: 1.5;" x1="246" x2="396" y1="308.9063" y2="308.9063"/><rect fill="none" height="6" style="stroke: #C82930; stroke-width: 1.0;" width="6" x="253" y="316.9063"/><text fill="#000000" font-family="sans-serif" font-size="11" lengthAdjust="spacingAndGlyphs" textLength="125" x="265" y="323.1167">numberOfPlayers : int</text><line style="stroke: #A80036; stroke-width: 1.5;" x1="246" x2="396" y1="329.7109" y2="329.7109"/><ellipse cx="256" cy="340.7109" fill="#84BE84" rx="3" ry="3" style="stroke: #038048; stroke-width: 1.0;"/><text fill="#000000" font-family="sans-serif" font-size="11" lengthAdjust="spacingAndGlyphs" textLength="126" x="265" y="343.9214">getNumberOfPlayers()</text><ellipse cx="256" cy="353.5156" fill="#84BE84" rx="3" ry="3" style="stroke: #038048; stroke-width: 1.0;"/><text fill="#000000" font-family="sans-serif" font-size="11" lengthAdjust="spacingAndGlyphs" textLength="126" x="265" y="356.7261">setNumberOfPlayers()</text><!--reverse link in.ashwanik.pdp.singleton.Game to in.ashwanik.pdp.singleton.GameConfig--><path d="M256.981,211.6743 C269.854,233.2373 284.077,257.0593 295.84,276.7632 " fill="none" id="in.ashwanik.pdp.singleton.Game&lt;-in.ashwanik.pdp.singleton.GameConfig" style="stroke: #A80036; stroke-width: 1.0;"/><polygon fill="#FFFFFF" points="250.193,200.3043,249.8341,207.5064,256.3442,210.6078,256.7031,203.4056,250.193,200.3043" style="stroke: #A80036; stroke-width: 1.0;"/><text fill="#000000" font-family="sans-serif" font-size="13" lengthAdjust="spacingAndGlyphs" textLength="77" x="277" y="242.9731">gameConfig</text><!--reverse link in.ashwanik.pdp.singleton.Game to in.ashwanik.pdp.singleton.Game.SingletonHelper--><path d="M185.04,213.5033 C170.061,239.3673 153.37,268.1903 141.232,289.1493 " fill="none" id="in.ashwanik.pdp.singleton.Game&lt;-in.ashwanik.pdp.singleton.Game.SingletonHelper" style="stroke: #A80036; stroke-width: 1.0;"/><ellipse cx="188.6737" cy="207.2271" fill="#FFFFFF" rx="8" ry="8" style="stroke: #A80036; stroke-width: 1.0;"/><line style="stroke: #A80036; stroke-width: 1.0;" x1="184.6645" x2="192.683" y1="214.15" y2="200.3043"/><line style="stroke: #A80036; stroke-width: 1.0;" x1="181.7509" x2="195.5966" y1="203.2179" y2="211.2364"/><!--
@startuml
title __SINGLETON__\n

  namespace in.ashwanik.pdp.singleton {
    class in.ashwanik.pdp.singleton.Game {
        {static} - log : Logger
        {static} + getCurrentGame()
        + getGameConfig()
        - Game()
    }
  }
  

  namespace in.ashwanik.pdp.singleton {
    class in.ashwanik.pdp.singleton.Game.SingletonHelper {
        {static} - CURRENT_GAME : Game
    }
  }
  

  namespace in.ashwanik.pdp.singleton {
    class in.ashwanik.pdp.singleton.GameConfig {
        - numberOfPlayers : int
        + getNumberOfPlayers()
        + setNumberOfPlayers()
    }
  }
  

  in.ashwanik.pdp.singleton.Game o- - in.ashwanik.pdp.singleton.GameConfig : gameConfig
  in.ashwanik.pdp.singleton.Game +-down- in.ashwanik.pdp.singleton.Game.SingletonHelper
@enduml

PlantUML version 1.2019.10beta5(Unknown compile time)
(GPL source distribution)
Java Runtime: Java(TM) SE Runtime Environment
JVM: Java HotSpot(TM) 64-Bit Server VM
Java Version: 1.7.0_25-b15
Operating System: Linux
Default Encoding: UTF-8
Language: en
Country: US
--></g></svg>