<?xml version="1.0" encoding="UTF-8" standalone="no"?>
<svg xmlns="http://www.w3.org/2000/svg" xmlns:xlink="http://www.w3.org/1999/xlink" contentScriptType="application/ecmascript" contentStyleType="text/css" height="692px" preserveAspectRatio="none" style="width:1090px;height:692px;" version="1.1" viewBox="0 0 1090 692" width="1090px" zoomAndPan="magnify"><defs><filter height="300%" id="f13hhe3wuavk2j" width="300%" x="-1" y="-1"><feGaussianBlur result="blurOut" stdDeviation="2.0"/><feColorMatrix in="blurOut" result="blurOut2" type="matrix" values="0 0 0 0 0 0 0 0 0 0 0 0 0 0 0 0 0 0 .4 0"/><feOffset dx="4.0" dy="4.0" in="blurOut2" result="blurOut3"/><feBlend in="SourceGraphic" in2="blurOut3" mode="normal"/></filter></defs><g><text fill="#000000" font-family="sans-serif" font-size="18" lengthAdjust="spacingAndGlyphs" text-decoration="underline" textLength="58" x="522" y="16.708">STATE</text><text fill="#000000" font-family="sans-serif" font-size="18" lengthAdjust="spacingAndGlyphs" textLength="0" x="554" y="37.6611"/><!--MD5=[1e6acd95689525bc2c8703f12e38adfe]
cluster in.ashwanik.pdp.state--><polygon fill="#FFFFFF" filter="url(#f13hhe3wuavk2j)" points="22,65.9063,201,65.9063,208,88.2031,1068,88.2031,1068,680.9063,22,680.9063,22,65.9063" style="stroke: #000000; stroke-width: 1.5;"/><line style="stroke: #000000; stroke-width: 1.5;" x1="22" x2="208" y1="88.2031" y2="88.2031"/><text fill="#000000" font-family="sans-serif" font-size="14" font-weight="bold" lengthAdjust="spacingAndGlyphs" textLength="173" x="26" y="80.9014">in.ashwanik.pdp.state</text><!--MD5=[c991fe2aba8586d676feb50385f6a230]
class in.ashwanik.pdp.state.Approved--><rect fill="#FEFECE" filter="url(#f13hhe3wuavk2j)" height="137.6328" id="in.ashwanik.pdp.state.Approved" style="stroke: #A80036; stroke-width: 1.5;" width="227" x="38.5" y="526.9063"/><ellipse cx="118.25" cy="542.9063" fill="#ADD1B2" rx="11" ry="11" style="stroke: #A80036; stroke-width: 1.0;"/><path d="M120.5938,538.5781 L120.7656,538.6563 C120.9844,538.3438 121.1875,538.25 121.4844,538.25 C121.7813,538.25 122.0625,538.3906 122.2188,538.6563 C122.3125,538.8125 122.3281,538.9375 122.3281,539.375 L122.3281,540.7969 C122.3281,541.2188 122.2969,541.4063 122.1875,541.5625 C122.0156,541.7813 121.75,541.9219 121.4844,541.9219 C121.2656,541.9219 121.0313,541.8125 120.8906,541.6719 C120.75,541.5469 120.7188,541.4219 120.6563,541.0156 C120.5625,540.6094 120.3906,540.3906 119.9063,540.1094 C119.4375,539.8594 118.8281,539.7031 118.25,539.7031 C116.5156,539.7031 115.2656,541.0156 115.2656,542.7969 L115.2656,543.8906 C115.2656,545.5938 116.5625,546.6875 118.6094,546.6875 C119.375,546.6875 120.0625,546.5625 120.4844,546.2969 C120.6719,546.2031 120.6719,546.2031 121.125,545.7188 C121.3125,545.5313 121.5156,545.4531 121.7344,545.4531 C122.2031,545.4531 122.5938,545.8438 122.5938,546.2969 C122.5938,546.6875 122.2656,547.1406 121.6875,547.5469 C120.9375,548.0938 119.7813,548.3906 118.5625,548.3906 C115.6719,548.3906 113.5625,546.5 113.5625,543.9219 L113.5625,542.7969 C113.5625,540.0781 115.5625,538 118.1875,538 C119.0625,538 119.6563,538.1406 120.5938,538.5781 Z "/><text fill="#000000" font-family="sans-serif" font-size="12" lengthAdjust="spacingAndGlyphs" textLength="59" x="138.75" y="547.0605">Approved</text><line style="stroke: #A80036; stroke-width: 1.5;" x1="39.5" x2="264.5" y1="558.9063" y2="558.9063"/><rect fill="none" height="6" style="stroke: #C82930; stroke-width: 1.0;" width="6" x="46.5" y="566.9063"/><text fill="#000000" font-family="sans-serif" font-size="11" lengthAdjust="spacingAndGlyphs" text-decoration="underline" textLength="201" x="58.5" y="573.1167">allowedFrom : Set&lt;WorkflowState&gt;</text><rect fill="none" height="6" style="stroke: #C82930; stroke-width: 1.0;" width="6" x="46.5" y="579.7109"/><text fill="#000000" font-family="sans-serif" font-size="11" lengthAdjust="spacingAndGlyphs" text-decoration="underline" textLength="186" x="58.5" y="585.9214">allowedTo : Set&lt;WorkflowState&gt;</text><rect fill="none" height="6" style="stroke: #C82930; stroke-width: 1.0;" width="6" x="46.5" y="592.5156"/><text fill="#000000" font-family="sans-serif" font-size="11" lengthAdjust="spacingAndGlyphs" text-decoration="underline" textLength="113" x="58.5" y="598.7261">instance : Approved</text><line style="stroke: #A80036; stroke-width: 1.5;" x1="39.5" x2="264.5" y1="605.3203" y2="605.3203"/><polygon fill="#4177AF" points="49.5,612.3203,45.5,618.3203,53.5,618.3203" style="stroke: #1963A0; stroke-width: 1.0;"/><text fill="#000000" font-family="sans-serif" font-size="11" lengthAdjust="spacingAndGlyphs" textLength="128" x="58.5" y="619.5308">getAllowedFromState()</text><polygon fill="#4177AF" points="49.5,625.125,45.5,631.125,53.5,631.125" style="stroke: #1963A0; stroke-width: 1.0;"/><text fill="#000000" font-family="sans-serif" font-size="11" lengthAdjust="spacingAndGlyphs" textLength="113" x="58.5" y="632.3354">getAllowedToState()</text><polygon fill="#4177AF" points="49.5,637.9297,45.5,643.9297,53.5,643.9297" style="stroke: #1963A0; stroke-width: 1.0;"/><text fill="#000000" font-family="sans-serif" font-size="11" lengthAdjust="spacingAndGlyphs" text-decoration="underline" textLength="37" x="58.5" y="645.1401">state()</text><polygon fill="#4177AF" points="49.5,650.7344,45.5,656.7344,53.5,656.7344" style="stroke: #1963A0; stroke-width: 1.0;"/><text fill="#000000" font-family="sans-serif" font-size="11" lengthAdjust="spacingAndGlyphs" textLength="47" x="58.5" y="657.9448">update()</text><!--MD5=[329ceeddc11cded0832f07e0d461ec25]
class in.ashwanik.pdp.state.Closed--><rect fill="#FEFECE" filter="url(#f13hhe3wuavk2j)" height="137.6328" id="in.ashwanik.pdp.state.Closed" style="stroke: #A80036; stroke-width: 1.5;" width="227" x="300.5" y="526.9063"/><ellipse cx="388.75" cy="542.9063" fill="#ADD1B2" rx="11" ry="11" style="stroke: #A80036; stroke-width: 1.0;"/><path d="M391.0938,538.5781 L391.2656,538.6563 C391.4844,538.3438 391.6875,538.25 391.9844,538.25 C392.2813,538.25 392.5625,538.3906 392.7188,538.6563 C392.8125,538.8125 392.8281,538.9375 392.8281,539.375 L392.8281,540.7969 C392.8281,541.2188 392.7969,541.4063 392.6875,541.5625 C392.5156,541.7813 392.25,541.9219 391.9844,541.9219 C391.7656,541.9219 391.5313,541.8125 391.3906,541.6719 C391.25,541.5469 391.2188,541.4219 391.1563,541.0156 C391.0625,540.6094 390.8906,540.3906 390.4063,540.1094 C389.9375,539.8594 389.3281,539.7031 388.75,539.7031 C387.0156,539.7031 385.7656,541.0156 385.7656,542.7969 L385.7656,543.8906 C385.7656,545.5938 387.0625,546.6875 389.1094,546.6875 C389.875,546.6875 390.5625,546.5625 390.9844,546.2969 C391.1719,546.2031 391.1719,546.2031 391.625,545.7188 C391.8125,545.5313 392.0156,545.4531 392.2344,545.4531 C392.7031,545.4531 393.0938,545.8438 393.0938,546.2969 C393.0938,546.6875 392.7656,547.1406 392.1875,547.5469 C391.4375,548.0938 390.2813,548.3906 389.0625,548.3906 C386.1719,548.3906 384.0625,546.5 384.0625,543.9219 L384.0625,542.7969 C384.0625,540.0781 386.0625,538 388.6875,538 C389.5625,538 390.1563,538.1406 391.0938,538.5781 Z "/><text fill="#000000" font-family="sans-serif" font-size="12" lengthAdjust="spacingAndGlyphs" textLength="42" x="409.25" y="547.0605">Closed</text><line style="stroke: #A80036; stroke-width: 1.5;" x1="301.5" x2="526.5" y1="558.9063" y2="558.9063"/><rect fill="none" height="6" style="stroke: #C82930; stroke-width: 1.0;" width="6" x="308.5" y="566.9063"/><text fill="#000000" font-family="sans-serif" font-size="11" lengthAdjust="spacingAndGlyphs" text-decoration="underline" textLength="201" x="320.5" y="573.1167">allowedFrom : Set&lt;WorkflowState&gt;</text><rect fill="none" height="6" style="stroke: #C82930; stroke-width: 1.0;" width="6" x="308.5" y="579.7109"/><text fill="#000000" font-family="sans-serif" font-size="11" lengthAdjust="spacingAndGlyphs" text-decoration="underline" textLength="186" x="320.5" y="585.9214">allowedTo : Set&lt;WorkflowState&gt;</text><rect fill="none" height="6" style="stroke: #C82930; stroke-width: 1.0;" width="6" x="308.5" y="592.5156"/><text fill="#000000" font-family="sans-serif" font-size="11" lengthAdjust="spacingAndGlyphs" text-decoration="underline" textLength="99" x="320.5" y="598.7261">instance : Closed</text><line style="stroke: #A80036; stroke-width: 1.5;" x1="301.5" x2="526.5" y1="605.3203" y2="605.3203"/><polygon fill="#4177AF" points="311.5,612.3203,307.5,618.3203,315.5,618.3203" style="stroke: #1963A0; stroke-width: 1.0;"/><text fill="#000000" font-family="sans-serif" font-size="11" lengthAdjust="spacingAndGlyphs" textLength="128" x="320.5" y="619.5308">getAllowedFromState()</text><polygon fill="#4177AF" points="311.5,625.125,307.5,631.125,315.5,631.125" style="stroke: #1963A0; stroke-width: 1.0;"/><text fill="#000000" font-family="sans-serif" font-size="11" lengthAdjust="spacingAndGlyphs" textLength="113" x="320.5" y="632.3354">getAllowedToState()</text><polygon fill="#4177AF" points="311.5,637.9297,307.5,643.9297,315.5,643.9297" style="stroke: #1963A0; stroke-width: 1.0;"/><text fill="#000000" font-family="sans-serif" font-size="11" lengthAdjust="spacingAndGlyphs" text-decoration="underline" textLength="37" x="320.5" y="645.1401">state()</text><polygon fill="#4177AF" points="311.5,650.7344,307.5,656.7344,315.5,656.7344" style="stroke: #1963A0; stroke-width: 1.0;"/><text fill="#000000" font-family="sans-serif" font-size="11" lengthAdjust="spacingAndGlyphs" textLength="47" x="320.5" y="657.9448">update()</text><!--MD5=[adbc028dd91551882e7658a4f42af30c]
class in.ashwanik.pdp.state.InDraft--><rect fill="#FEFECE" filter="url(#f13hhe3wuavk2j)" height="137.6328" id="in.ashwanik.pdp.state.InDraft" style="stroke: #A80036; stroke-width: 1.5;" width="227" x="562.5" y="526.9063"/><ellipse cx="650.75" cy="542.9063" fill="#ADD1B2" rx="11" ry="11" style="stroke: #A80036; stroke-width: 1.0;"/><path d="M653.0938,538.5781 L653.2656,538.6563 C653.4844,538.3438 653.6875,538.25 653.9844,538.25 C654.2813,538.25 654.5625,538.3906 654.7188,538.6563 C654.8125,538.8125 654.8281,538.9375 654.8281,539.375 L654.8281,540.7969 C654.8281,541.2188 654.7969,541.4063 654.6875,541.5625 C654.5156,541.7813 654.25,541.9219 653.9844,541.9219 C653.7656,541.9219 653.5313,541.8125 653.3906,541.6719 C653.25,541.5469 653.2188,541.4219 653.1563,541.0156 C653.0625,540.6094 652.8906,540.3906 652.4063,540.1094 C651.9375,539.8594 651.3281,539.7031 650.75,539.7031 C649.0156,539.7031 647.7656,541.0156 647.7656,542.7969 L647.7656,543.8906 C647.7656,545.5938 649.0625,546.6875 651.1094,546.6875 C651.875,546.6875 652.5625,546.5625 652.9844,546.2969 C653.1719,546.2031 653.1719,546.2031 653.625,545.7188 C653.8125,545.5313 654.0156,545.4531 654.2344,545.4531 C654.7031,545.4531 655.0938,545.8438 655.0938,546.2969 C655.0938,546.6875 654.7656,547.1406 654.1875,547.5469 C653.4375,548.0938 652.2813,548.3906 651.0625,548.3906 C648.1719,548.3906 646.0625,546.5 646.0625,543.9219 L646.0625,542.7969 C646.0625,540.0781 648.0625,538 650.6875,538 C651.5625,538 652.1563,538.1406 653.0938,538.5781 Z "/><text fill="#000000" font-family="sans-serif" font-size="12" lengthAdjust="spacingAndGlyphs" textLength="42" x="671.25" y="547.0605">InDraft</text><line style="stroke: #A80036; stroke-width: 1.5;" x1="563.5" x2="788.5" y1="558.9063" y2="558.9063"/><rect fill="none" height="6" style="stroke: #C82930; stroke-width: 1.0;" width="6" x="570.5" y="566.9063"/><text fill="#000000" font-family="sans-serif" font-size="11" lengthAdjust="spacingAndGlyphs" text-decoration="underline" textLength="201" x="582.5" y="573.1167">allowedFrom : Set&lt;WorkflowState&gt;</text><rect fill="none" height="6" style="stroke: #C82930; stroke-width: 1.0;" width="6" x="570.5" y="579.7109"/><text fill="#000000" font-family="sans-serif" font-size="11" lengthAdjust="spacingAndGlyphs" text-decoration="underline" textLength="186" x="582.5" y="585.9214">allowedTo : Set&lt;WorkflowState&gt;</text><rect fill="none" height="6" style="stroke: #C82930; stroke-width: 1.0;" width="6" x="570.5" y="592.5156"/><text fill="#000000" font-family="sans-serif" font-size="11" lengthAdjust="spacingAndGlyphs" text-decoration="underline" textLength="98" x="582.5" y="598.7261">instance : InDraft</text><line style="stroke: #A80036; stroke-width: 1.5;" x1="563.5" x2="788.5" y1="605.3203" y2="605.3203"/><polygon fill="#4177AF" points="573.5,612.3203,569.5,618.3203,577.5,618.3203" style="stroke: #1963A0; stroke-width: 1.0;"/><text fill="#000000" font-family="sans-serif" font-size="11" lengthAdjust="spacingAndGlyphs" textLength="128" x="582.5" y="619.5308">getAllowedFromState()</text><polygon fill="#4177AF" points="573.5,625.125,569.5,631.125,577.5,631.125" style="stroke: #1963A0; stroke-width: 1.0;"/><text fill="#000000" font-family="sans-serif" font-size="11" lengthAdjust="spacingAndGlyphs" textLength="113" x="582.5" y="632.3354">getAllowedToState()</text><polygon fill="#4177AF" points="573.5,637.9297,569.5,643.9297,577.5,643.9297" style="stroke: #1963A0; stroke-width: 1.0;"/><text fill="#000000" font-family="sans-serif" font-size="11" lengthAdjust="spacingAndGlyphs" text-decoration="underline" textLength="37" x="582.5" y="645.1401">state()</text><polygon fill="#4177AF" points="573.5,650.7344,569.5,656.7344,577.5,656.7344" style="stroke: #1963A0; stroke-width: 1.0;"/><text fill="#000000" font-family="sans-serif" font-size="11" lengthAdjust="spacingAndGlyphs" textLength="47" x="582.5" y="657.9448">update()</text><!--MD5=[67cb5c8f47a081ed80cf292351b58c0c]
class in.ashwanik.pdp.state.Started--><rect fill="#FEFECE" filter="url(#f13hhe3wuavk2j)" height="137.6328" id="in.ashwanik.pdp.state.Started" style="stroke: #A80036; stroke-width: 1.5;" width="227" x="824.5" y="526.9063"/><ellipse cx="910.25" cy="542.9063" fill="#ADD1B2" rx="11" ry="11" style="stroke: #A80036; stroke-width: 1.0;"/><path d="M912.5938,538.5781 L912.7656,538.6563 C912.9844,538.3438 913.1875,538.25 913.4844,538.25 C913.7813,538.25 914.0625,538.3906 914.2188,538.6563 C914.3125,538.8125 914.3281,538.9375 914.3281,539.375 L914.3281,540.7969 C914.3281,541.2188 914.2969,541.4063 914.1875,541.5625 C914.0156,541.7813 913.75,541.9219 913.4844,541.9219 C913.2656,541.9219 913.0313,541.8125 912.8906,541.6719 C912.75,541.5469 912.7188,541.4219 912.6563,541.0156 C912.5625,540.6094 912.3906,540.3906 911.9063,540.1094 C911.4375,539.8594 910.8281,539.7031 910.25,539.7031 C908.5156,539.7031 907.2656,541.0156 907.2656,542.7969 L907.2656,543.8906 C907.2656,545.5938 908.5625,546.6875 910.6094,546.6875 C911.375,546.6875 912.0625,546.5625 912.4844,546.2969 C912.6719,546.2031 912.6719,546.2031 913.125,545.7188 C913.3125,545.5313 913.5156,545.4531 913.7344,545.4531 C914.2031,545.4531 914.5938,545.8438 914.5938,546.2969 C914.5938,546.6875 914.2656,547.1406 913.6875,547.5469 C912.9375,548.0938 911.7813,548.3906 910.5625,548.3906 C907.6719,548.3906 905.5625,546.5 905.5625,543.9219 L905.5625,542.7969 C905.5625,540.0781 907.5625,538 910.1875,538 C911.0625,538 911.6563,538.1406 912.5938,538.5781 Z "/><text fill="#000000" font-family="sans-serif" font-size="12" lengthAdjust="spacingAndGlyphs" textLength="47" x="930.75" y="547.0605">Started</text><line style="stroke: #A80036; stroke-width: 1.5;" x1="825.5" x2="1050.5" y1="558.9063" y2="558.9063"/><rect fill="none" height="6" style="stroke: #C82930; stroke-width: 1.0;" width="6" x="832.5" y="566.9063"/><text fill="#000000" font-family="sans-serif" font-size="11" lengthAdjust="spacingAndGlyphs" text-decoration="underline" textLength="201" x="844.5" y="573.1167">allowedFrom : Set&lt;WorkflowState&gt;</text><rect fill="none" height="6" style="stroke: #C82930; stroke-width: 1.0;" width="6" x="832.5" y="579.7109"/><text fill="#000000" font-family="sans-serif" font-size="11" lengthAdjust="spacingAndGlyphs" text-decoration="underline" textLength="186" x="844.5" y="585.9214">allowedTo : Set&lt;WorkflowState&gt;</text><rect fill="none" height="6" style="stroke: #C82930; stroke-width: 1.0;" width="6" x="832.5" y="592.5156"/><text fill="#000000" font-family="sans-serif" font-size="11" lengthAdjust="spacingAndGlyphs" text-decoration="underline" textLength="102" x="844.5" y="598.7261">instance : Started</text><line style="stroke: #A80036; stroke-width: 1.5;" x1="825.5" x2="1050.5" y1="605.3203" y2="605.3203"/><polygon fill="#4177AF" points="835.5,612.3203,831.5,618.3203,839.5,618.3203" style="stroke: #1963A0; stroke-width: 1.0;"/><text fill="#000000" font-family="sans-serif" font-size="11" lengthAdjust="spacingAndGlyphs" textLength="128" x="844.5" y="619.5308">getAllowedFromState()</text><polygon fill="#4177AF" points="835.5,625.125,831.5,631.125,839.5,631.125" style="stroke: #1963A0; stroke-width: 1.0;"/><text fill="#000000" font-family="sans-serif" font-size="11" lengthAdjust="spacingAndGlyphs" textLength="113" x="844.5" y="632.3354">getAllowedToState()</text><polygon fill="#4177AF" points="835.5,637.9297,831.5,643.9297,839.5,643.9297" style="stroke: #1963A0; stroke-width: 1.0;"/><text fill="#000000" font-family="sans-serif" font-size="11" lengthAdjust="spacingAndGlyphs" text-decoration="underline" textLength="37" x="844.5" y="645.1401">state()</text><polygon fill="#4177AF" points="835.5,650.7344,831.5,656.7344,839.5,656.7344" style="stroke: #1963A0; stroke-width: 1.0;"/><text fill="#000000" font-family="sans-serif" font-size="11" lengthAdjust="spacingAndGlyphs" textLength="47" x="844.5" y="657.9448">update()</text><!--MD5=[368ab60d546fe58802418a6aa860bcfe]
class in.ashwanik.pdp.state.WorkflowContext--><rect fill="#FEFECE" filter="url(#f13hhe3wuavk2j)" height="188.8516" id="in.ashwanik.pdp.state.WorkflowContext" style="stroke: #A80036; stroke-width: 1.5;" width="200" x="445" y="100.9063"/><ellipse cx="489.25" cy="116.9063" fill="#ADD1B2" rx="11" ry="11" style="stroke: #A80036; stroke-width: 1.0;"/><path d="M491.5938,112.5781 L491.7656,112.6563 C491.9844,112.3438 492.1875,112.25 492.4844,112.25 C492.7813,112.25 493.0625,112.3906 493.2188,112.6563 C493.3125,112.8125 493.3281,112.9375 493.3281,113.375 L493.3281,114.7969 C493.3281,115.2188 493.2969,115.4063 493.1875,115.5625 C493.0156,115.7813 492.75,115.9219 492.4844,115.9219 C492.2656,115.9219 492.0313,115.8125 491.8906,115.6719 C491.75,115.5469 491.7188,115.4219 491.6563,115.0156 C491.5625,114.6094 491.3906,114.3906 490.9063,114.1094 C490.4375,113.8594 489.8281,113.7031 489.25,113.7031 C487.5156,113.7031 486.2656,115.0156 486.2656,116.7969 L486.2656,117.8906 C486.2656,119.5938 487.5625,120.6875 489.6094,120.6875 C490.375,120.6875 491.0625,120.5625 491.4844,120.2969 C491.6719,120.2031 491.6719,120.2031 492.125,119.7188 C492.3125,119.5313 492.5156,119.4531 492.7344,119.4531 C493.2031,119.4531 493.5938,119.8438 493.5938,120.2969 C493.5938,120.6875 493.2656,121.1406 492.6875,121.5469 C491.9375,122.0938 490.7813,122.3906 489.5625,122.3906 C486.6719,122.3906 484.5625,120.5 484.5625,117.9219 L484.5625,116.7969 C484.5625,114.0781 486.5625,112 489.1875,112 C490.0625,112 490.6563,112.1406 491.5938,112.5781 Z "/><text fill="#000000" font-family="sans-serif" font-size="12" lengthAdjust="spacingAndGlyphs" textLength="103" x="509.75" y="121.0605">WorkflowContext</text><line style="stroke: #A80036; stroke-width: 1.5;" x1="446" x2="644" y1="132.9063" y2="132.9063"/><rect fill="none" height="6" style="stroke: #C82930; stroke-width: 1.0;" width="6" x="453" y="140.9063"/><text fill="#000000" font-family="sans-serif" font-size="11" lengthAdjust="spacingAndGlyphs" textLength="149" x="465" y="147.1167">createdAt : LocalDateTime</text><rect fill="none" height="6" style="stroke: #C82930; stroke-width: 1.0;" width="6" x="453" y="153.7109"/><text fill="#000000" font-family="sans-serif" font-size="11" lengthAdjust="spacingAndGlyphs" textLength="174" x="465" y="159.9214">lastModifiedAt : LocalDateTime</text><line style="stroke: #A80036; stroke-width: 1.5;" x1="446" x2="644" y1="166.5156" y2="166.5156"/><ellipse cx="456" cy="177.5156" fill="#84BE84" rx="3" ry="3" style="stroke: #038048; stroke-width: 1.0;"/><text fill="#000000" font-family="sans-serif" font-size="11" lengthAdjust="spacingAndGlyphs" textLength="82" x="465" y="180.7261">getCreatedAt()</text><ellipse cx="456" cy="190.3203" fill="#84BE84" rx="3" ry="3" style="stroke: #038048; stroke-width: 1.0;"/><text fill="#000000" font-family="sans-serif" font-size="11" lengthAdjust="spacingAndGlyphs" textLength="99" x="465" y="193.5308">getCurrentState()</text><ellipse cx="456" cy="203.125" fill="#84BE84" rx="3" ry="3" style="stroke: #038048; stroke-width: 1.0;"/><text fill="#000000" font-family="sans-serif" font-size="11" lengthAdjust="spacingAndGlyphs" textLength="108" x="465" y="206.3354">getLastModifiedAt()</text><ellipse cx="456" cy="215.9297" fill="#84BE84" rx="3" ry="3" style="stroke: #038048; stroke-width: 1.0;"/><text fill="#000000" font-family="sans-serif" font-size="11" lengthAdjust="spacingAndGlyphs" textLength="82" x="465" y="219.1401">setCreatedAt()</text><ellipse cx="456" cy="228.7344" fill="#84BE84" rx="3" ry="3" style="stroke: #038048; stroke-width: 1.0;"/><text fill="#000000" font-family="sans-serif" font-size="11" lengthAdjust="spacingAndGlyphs" textLength="99" x="465" y="231.9448">setCurrentState()</text><ellipse cx="456" cy="241.5391" fill="#84BE84" rx="3" ry="3" style="stroke: #038048; stroke-width: 1.0;"/><text fill="#000000" font-family="sans-serif" font-size="11" lengthAdjust="spacingAndGlyphs" textLength="108" x="465" y="244.7495">setLastModifiedAt()</text><polygon fill="#4177AF" points="456,250.3438,452,256.3438,460,256.3438" style="stroke: #1963A0; stroke-width: 1.0;"/><text fill="#000000" font-family="sans-serif" font-size="11" lengthAdjust="spacingAndGlyphs" textLength="101" x="465" y="257.5542">WorkflowContext()</text><polygon fill="#4177AF" points="456,263.1484,452,269.1484,460,269.1484" style="stroke: #1963A0; stroke-width: 1.0;"/><text fill="#000000" font-family="sans-serif" font-size="11" lengthAdjust="spacingAndGlyphs" textLength="79" x="465" y="270.3589">changeState()</text><polygon fill="#4177AF" points="456,275.9531,452,281.9531,460,281.9531" style="stroke: #1963A0; stroke-width: 1.0;"/><text fill="#000000" font-family="sans-serif" font-size="11" lengthAdjust="spacingAndGlyphs" textLength="47" x="465" y="283.1636">update()</text><!--MD5=[37f6dbf1ed25e6c56be22f88d1002753]
class in.ashwanik.pdp.state.WorkflowState--><rect fill="#FEFECE" filter="url(#f13hhe3wuavk2j)" height="99.2188" id="in.ashwanik.pdp.state.WorkflowState" style="stroke: #A80036; stroke-width: 1.5;" width="154" x="468" y="366.9063"/><ellipse cx="496.95" cy="382.9063" fill="#A9DCDF" rx="11" ry="11" style="stroke: #A80036; stroke-width: 1.0;"/><path d="M498.5281,384.7188 L494.4813,384.7188 L494.0906,385.7031 L494.4813,385.7031 C494.9344,385.7031 495.075,385.7344 495.2469,385.8594 C495.4656,386.0313 495.5906,386.2813 495.5906,386.5625 C495.5906,386.8438 495.45,387.1406 495.1844,387.2813 C495.0594,387.375 494.8406,387.4063 494.4813,387.4063 L492.2156,387.4063 C491.4656,387.4063 491.0906,387.125 491.0906,386.5625 C491.0906,386.2656 491.2469,385.9844 491.4969,385.8281 C491.6531,385.7188 491.8094,385.7031 492.2313,385.7031 L494.8719,379.1875 L493.7938,379.1875 C493.3563,379.1875 493.1844,379.1563 493.0125,379.0469 C492.7938,378.875 492.6531,378.625 492.6531,378.3438 C492.6531,378.0625 492.8094,377.7813 493.0594,377.6094 C493.2156,377.5156 493.3406,377.5 493.7938,377.5 L497.4656,377.5 L500.8563,385.7031 C501.325,385.7031 501.4813,385.7344 501.6531,385.875 C501.8719,386.0313 502.0125,386.2813 502.0125,386.5625 C502.0125,386.8438 501.8563,387.1406 501.6063,387.2813 C501.4656,387.375 501.2469,387.4063 500.8875,387.4063 L498.5281,387.4063 C498.1063,387.4063 497.9031,387.3594 497.7625,387.2344 C497.5438,387.0781 497.4031,386.8281 497.4031,386.5625 C497.4031,386.2656 497.5594,385.9844 497.8094,385.8281 C497.9656,385.7188 498.075,385.7031 498.5281,385.7031 L498.9188,385.7031 Z M497.825,383.0156 L496.4969,379.75 L495.1531,383.0156 Z "/><text fill="#000000" font-family="sans-serif" font-size="12" font-style="italic" lengthAdjust="spacingAndGlyphs" textLength="91" x="514.05" y="387.0605">WorkflowState</text><line style="stroke: #A80036; stroke-width: 1.5;" x1="469" x2="621" y1="398.9063" y2="398.9063"/><line style="stroke: #A80036; stroke-width: 1.5;" x1="469" x2="621" y1="406.9063" y2="406.9063"/><polygon fill="#4177AF" points="479,413.9063,475,419.9063,483,419.9063" style="stroke: #1963A0; stroke-width: 1.0;"/><text fill="#000000" font-family="sans-serif" font-size="11" lengthAdjust="spacingAndGlyphs" textLength="114" x="488" y="421.1167">canTransitionFrom()</text><polygon fill="#4177AF" points="479,426.7109,475,432.7109,483,432.7109" style="stroke: #1963A0; stroke-width: 1.0;"/><text fill="#000000" font-family="sans-serif" font-size="11" font-style="italic" lengthAdjust="spacingAndGlyphs" textLength="128" x="488" y="433.9214">getAllowedFromState()</text><polygon fill="#4177AF" points="479,439.5156,475,445.5156,483,445.5156" style="stroke: #1963A0; stroke-width: 1.0;"/><text fill="#000000" font-family="sans-serif" font-size="11" font-style="italic" lengthAdjust="spacingAndGlyphs" textLength="113" x="488" y="446.7261">getAllowedToState()</text><polygon fill="#4177AF" points="479,452.3203,475,458.3203,483,458.3203" style="stroke: #1963A0; stroke-width: 1.0;"/><text fill="#000000" font-family="sans-serif" font-size="11" font-style="italic" lengthAdjust="spacingAndGlyphs" textLength="47" x="488" y="459.5308">update()</text><!--MD5=[17bd794ebc045ec9cf7cb48c9c57fb74]
reverse link in.ashwanik.pdp.state.WorkflowState to in.ashwanik.pdp.state.Approved--><path d="M448.882,455.3483 C398.966,475.6123 337.231,501.5513 283,526.9063 C277.313,529.5653 271.514,532.3383 265.678,535.1782 " fill="none" id="in.ashwanik.pdp.state.WorkflowState&lt;-in.ashwanik.pdp.state.Approved" style="stroke: #A80036; stroke-width: 1.0;"/><polygon fill="none" points="446.576,448.7303,467.742,447.7333,451.818,461.7123,446.576,448.7303" style="stroke: #A80036; stroke-width: 1.0;"/><!--MD5=[d29052a2b2690748716a5bb5ca55ad61]
reverse link in.ashwanik.pdp.state.WorkflowState to in.ashwanik.pdp.state.Closed--><path d="M497.047,482.3803 C486.365,496.8543 475.01,512.2403 464.238,526.8353 " fill="none" id="in.ashwanik.pdp.state.WorkflowState&lt;-in.ashwanik.pdp.state.Closed" style="stroke: #A80036; stroke-width: 1.0;"/><polygon fill="none" points="491.695,477.8443,509.204,465.9093,502.959,486.1573,491.695,477.8443" style="stroke: #A80036; stroke-width: 1.0;"/><!--MD5=[5f5b469e4bba1ed31d3a613dca82a5db]
reverse link in.ashwanik.pdp.state.WorkflowState to in.ashwanik.pdp.state.InDraft--><path d="M592.953,482.3803 C603.635,496.8543 614.99,512.2403 625.762,526.8353 " fill="none" id="in.ashwanik.pdp.state.WorkflowState&lt;-in.ashwanik.pdp.state.InDraft" style="stroke: #A80036; stroke-width: 1.0;"/><polygon fill="none" points="587.041,486.1573,580.796,465.9093,598.305,477.8443,587.041,486.1573" style="stroke: #A80036; stroke-width: 1.0;"/><!--MD5=[7a550959c90bf14acea9b0909e966310]
reverse link in.ashwanik.pdp.state.WorkflowState to in.ashwanik.pdp.state.Started--><path d="M641.118,455.3483 C691.034,475.6123 752.769,501.5513 807,526.9063 C812.687,529.5653 818.486,532.3383 824.322,535.1782 " fill="none" id="in.ashwanik.pdp.state.WorkflowState&lt;-in.ashwanik.pdp.state.Started" style="stroke: #A80036; stroke-width: 1.0;"/><polygon fill="none" points="638.182,461.7123,622.258,447.7333,643.424,448.7303,638.182,461.7123" style="stroke: #A80036; stroke-width: 1.0;"/><!--MD5=[04104b614f7f3d0a7aead2774e6bc66a]
reverse link in.ashwanik.pdp.state.WorkflowContext to in.ashwanik.pdp.state.WorkflowState--><path d="M545,303.0383 C545,325.4023 545,347.9263 545,366.8753 " fill="none" id="in.ashwanik.pdp.state.WorkflowContext&lt;-in.ashwanik.pdp.state.WorkflowState" style="stroke: #A80036; stroke-width: 1.0;"/><polygon fill="#FFFFFF" points="545,289.9173,541,295.9173,545,301.9173,549,295.9173,545,289.9173" style="stroke: #A80036; stroke-width: 1.0;"/><text fill="#000000" font-family="sans-serif" font-size="13" lengthAdjust="spacingAndGlyphs" textLength="81" x="546" y="332.9731">currentState</text><!--MD5=[97c53cc163675d1eb6253fc1e68e784e]
@startuml
title __STATE__\n

  namespace in.ashwanik.pdp.state {
    class in.ashwanik.pdp.state.Approved {
        {static} - allowedFrom : Set<WorkflowState>
        {static} - allowedTo : Set<WorkflowState>
        {static} - instance : Approved
        ~ getAllowedFromState()
        ~ getAllowedToState()
        {static} ~ state()
        ~ update()
    }
  }
  

  namespace in.ashwanik.pdp.state {
    class in.ashwanik.pdp.state.Closed {
        {static} - allowedFrom : Set<WorkflowState>
        {static} - allowedTo : Set<WorkflowState>
        {static} - instance : Closed
        ~ getAllowedFromState()
        ~ getAllowedToState()
        {static} ~ state()
        ~ update()
    }
  }
  

  namespace in.ashwanik.pdp.state {
    class in.ashwanik.pdp.state.InDraft {
        {static} - allowedFrom : Set<WorkflowState>
        {static} - allowedTo : Set<WorkflowState>
        {static} - instance : InDraft
        ~ getAllowedFromState()
        ~ getAllowedToState()
        {static} ~ state()
        ~ update()
    }
  }
  

  namespace in.ashwanik.pdp.state {
    class in.ashwanik.pdp.state.Started {
        {static} - allowedFrom : Set<WorkflowState>
        {static} - allowedTo : Set<WorkflowState>
        {static} - instance : Started
        ~ getAllowedFromState()
        ~ getAllowedToState()
        {static} ~ state()
        ~ update()
    }
  }
  

  namespace in.ashwanik.pdp.state {
    class in.ashwanik.pdp.state.WorkflowContext {
        - createdAt : LocalDateTime
        - lastModifiedAt : LocalDateTime
        + getCreatedAt()
        + getCurrentState()
        + getLastModifiedAt()
        + setCreatedAt()
        + setCurrentState()
        + setLastModifiedAt()
        ~ WorkflowContext()
        ~ changeState()
        ~ update()
    }
  }
  

  namespace in.ashwanik.pdp.state {
    abstract class in.ashwanik.pdp.state.WorkflowState {
        ~ canTransitionFrom()
        {abstract} ~ getAllowedFromState()
        {abstract} ~ getAllowedToState()
        {abstract} ~ update()
    }
  }
  

  in.ashwanik.pdp.state.Approved -up-|> in.ashwanik.pdp.state.WorkflowState
  in.ashwanik.pdp.state.Closed -up-|> in.ashwanik.pdp.state.WorkflowState
  in.ashwanik.pdp.state.InDraft -up-|> in.ashwanik.pdp.state.WorkflowState
  in.ashwanik.pdp.state.Started -up-|> in.ashwanik.pdp.state.WorkflowState
  in.ashwanik.pdp.state.WorkflowContext o- - in.ashwanik.pdp.state.WorkflowState : currentState
@enduml

PlantUML version 1.2019.11(Sun Sep 22 10:02:15 UTC 2019)
(GPL source distribution)
Java Runtime: Java(TM) SE Runtime Environment
JVM: Java HotSpot(TM) 64-Bit Server VM
Java Version: 1.7.0_25-b15
Operating System: Linux
Default Encoding: UTF-8
Language: en
Country: US
--></g></svg>