<?xml version="1.0" encoding="UTF-8" standalone="no"?>
<svg xmlns="http://www.w3.org/2000/svg" xmlns:xlink="http://www.w3.org/1999/xlink" contentScriptType="application/ecmascript" contentStyleType="text/css" height="541px" preserveAspectRatio="none" style="width:1019px;height:541px;" version="1.1" viewBox="0 0 1019 541" width="1019px" zoomAndPan="magnify"><defs><filter height="300%" id="f1v14u1dy21x9o" width="300%" x="-1" y="-1"><feGaussianBlur result="blurOut" stdDeviation="2.0"/><feColorMatrix in="blurOut" result="blurOut2" type="matrix" values="0 0 0 0 0 0 0 0 0 0 0 0 0 0 0 0 0 0 .4 0"/><feOffset dx="4.0" dy="4.0" in="blurOut2" result="blurOut3"/><feBlend in="SourceGraphic" in2="blurOut3" mode="normal"/></filter></defs><g><text fill="#000000" font-family="sans-serif" font-size="18" lengthAdjust="spacingAndGlyphs" text-decoration="underline" textLength="97" x="467" y="16.708">STRATEGY</text><text fill="#000000" font-family="sans-serif" font-size="18" lengthAdjust="spacingAndGlyphs" textLength="0" x="518.5" y="37.6611"/><!--cluster in.ashwanik.pdp.strategy--><polygon fill="#FFFFFF" filter="url(#f1v14u1dy21x9o)" points="22,65.9063,227,65.9063,234,88.2031,997,88.2031,997,529.9063,22,529.9063,22,65.9063" style="stroke: #000000; stroke-width: 1.5;"/><line style="stroke: #000000; stroke-width: 1.5;" x1="22" x2="234" y1="88.2031" y2="88.2031"/><text fill="#000000" font-family="sans-serif" font-size="14" font-weight="bold" lengthAdjust="spacingAndGlyphs" textLength="199" x="26" y="80.9014">in.ashwanik.pdp.strategy</text><!--class in.ashwanik.pdp.strategy.CacheService--><rect fill="#FEFECE" filter="url(#f1v14u1dy21x9o)" height="73.6094" id="in.ashwanik.pdp.strategy.CacheService" style="stroke: #A80036; stroke-width: 1.5;" width="116" x="279" y="106.9063"/><ellipse cx="294" cy="122.9063" fill="#B4A7E5" rx="11" ry="11" style="stroke: #A80036; stroke-width: 1.0;"/><path d="M294.9531,119.6875 L294.9531,126.2031 L296.6719,126.2031 C297.125,126.2031 297.2656,126.2344 297.4375,126.3594 C297.6719,126.5313 297.7813,126.7813 297.7813,127.0625 C297.7813,127.625 297.4219,127.9063 296.6719,127.9063 L291.5313,127.9063 C291.125,127.9063 290.9219,127.8594 290.7656,127.7344 C290.5469,127.5781 290.4063,127.3125 290.4063,127.0625 C290.4063,126.7656 290.5625,126.4844 290.8125,126.3281 C290.9688,126.2188 291.0938,126.2031 291.5313,126.2031 L293.25,126.2031 L293.25,119.6875 L291.5313,119.6875 C291.1094,119.6875 290.9219,119.6563 290.7656,119.5469 C290.5469,119.375 290.4063,119.125 290.4063,118.8438 C290.4063,118.5625 290.5625,118.2656 290.8125,118.1094 C290.9688,118.0156 291.0938,118 291.5313,118 L296.6719,118 C297.125,118 297.2656,118.0313 297.4375,118.1406 C297.6719,118.3125 297.7813,118.5781 297.7813,118.8438 C297.7813,119.1406 297.6406,119.4219 297.375,119.5781 C297.25,119.6563 297.0625,119.6875 296.6719,119.6875 Z "/><text fill="#000000" font-family="sans-serif" font-size="12" font-style="italic" lengthAdjust="spacingAndGlyphs" textLength="84" x="308" y="127.0605">CacheService</text><line style="stroke: #A80036; stroke-width: 1.5;" x1="280" x2="394" y1="138.9063" y2="138.9063"/><line style="stroke: #A80036; stroke-width: 1.5;" x1="280" x2="394" y1="146.9063" y2="146.9063"/><ellipse cx="290" cy="157.9063" fill="#84BE84" rx="3" ry="3" style="stroke: #038048; stroke-width: 1.0;"/><text fill="#000000" font-family="sans-serif" font-size="11" font-style="italic" lengthAdjust="spacingAndGlyphs" textLength="26" x="299" y="161.1167">get()</text><ellipse cx="290" cy="170.7109" fill="#84BE84" rx="3" ry="3" style="stroke: #038048; stroke-width: 1.0;"/><text fill="#000000" font-family="sans-serif" font-size="11" font-style="italic" lengthAdjust="spacingAndGlyphs" textLength="35" x="299" y="173.9214">save()</text><!--class in.ashwanik.pdp.strategy.CacheServiceImpl--><rect fill="#FEFECE" filter="url(#f1v14u1dy21x9o)" height="99.2188" id="in.ashwanik.pdp.strategy.CacheServiceImpl" style="stroke: #A80036; stroke-width: 1.5;" width="322" x="38" y="263.9063"/><ellipse cx="140.25" cy="279.9063" fill="#ADD1B2" rx="11" ry="11" style="stroke: #A80036; stroke-width: 1.0;"/><path d="M142.5938,275.5781 L142.7656,275.6563 C142.9844,275.3438 143.1875,275.25 143.4844,275.25 C143.7813,275.25 144.0625,275.3906 144.2188,275.6563 C144.3125,275.8125 144.3281,275.9375 144.3281,276.375 L144.3281,277.7969 C144.3281,278.2188 144.2969,278.4063 144.1875,278.5625 C144.0156,278.7813 143.75,278.9219 143.4844,278.9219 C143.2656,278.9219 143.0313,278.8125 142.8906,278.6719 C142.75,278.5469 142.7188,278.4219 142.6563,278.0156 C142.5625,277.6094 142.3906,277.3906 141.9063,277.1094 C141.4375,276.8594 140.8281,276.7031 140.25,276.7031 C138.5156,276.7031 137.2656,278.0156 137.2656,279.7969 L137.2656,280.8906 C137.2656,282.5938 138.5625,283.6875 140.6094,283.6875 C141.375,283.6875 142.0625,283.5625 142.4844,283.2969 C142.6719,283.2031 142.6719,283.2031 143.125,282.7188 C143.3125,282.5313 143.5156,282.4531 143.7344,282.4531 C144.2031,282.4531 144.5938,282.8438 144.5938,283.2969 C144.5938,283.6875 144.2656,284.1406 143.6875,284.5469 C142.9375,285.0938 141.7813,285.3906 140.5625,285.3906 C137.6719,285.3906 135.5625,283.5 135.5625,280.9219 L135.5625,279.7969 C135.5625,277.0781 137.5625,275 140.1875,275 C141.0625,275 141.6563,275.1406 142.5938,275.5781 Z "/><text fill="#000000" font-family="sans-serif" font-size="12" lengthAdjust="spacingAndGlyphs" textLength="109" x="160.75" y="284.0605">CacheServiceImpl</text><line style="stroke: #A80036; stroke-width: 1.5;" x1="39" x2="359" y1="295.9063" y2="295.9063"/><rect fill="none" height="6" style="stroke: #C82930; stroke-width: 1.0;" width="6" x="46" y="303.9063"/><text fill="#000000" font-family="sans-serif" font-size="11" lengthAdjust="spacingAndGlyphs" textLength="296" x="58" y="310.1167">strategies : EnumMap&lt;CacheType, CacheStrategy&gt;</text><line style="stroke: #A80036; stroke-width: 1.5;" x1="39" x2="359" y1="316.7109" y2="316.7109"/><ellipse cx="49" cy="327.7109" fill="#84BE84" rx="3" ry="3" style="stroke: #038048; stroke-width: 1.0;"/><text fill="#000000" font-family="sans-serif" font-size="11" lengthAdjust="spacingAndGlyphs" textLength="26" x="58" y="330.9214">get()</text><ellipse cx="49" cy="340.5156" fill="#84BE84" rx="3" ry="3" style="stroke: #038048; stroke-width: 1.0;"/><text fill="#000000" font-family="sans-serif" font-size="11" lengthAdjust="spacingAndGlyphs" textLength="35" x="58" y="343.7261">save()</text><polygon fill="#4177AF" points="49,349.3203,45,355.3203,53,355.3203" style="stroke: #1963A0; stroke-width: 1.0;"/><text fill="#000000" font-family="sans-serif" font-size="11" lengthAdjust="spacingAndGlyphs" textLength="109" x="58" y="356.5308">CacheServiceImpl()</text><!--class in.ashwanik.pdp.strategy.CacheStrategy--><rect fill="#FEFECE" filter="url(#f1v14u1dy21x9o)" height="73.6094" id="in.ashwanik.pdp.strategy.CacheStrategy" style="stroke: #A80036; stroke-width: 1.5;" width="125" x="647.5" y="106.9063"/><ellipse cx="662.5" cy="122.9063" fill="#B4A7E5" rx="11" ry="11" style="stroke: #A80036; stroke-width: 1.0;"/><path d="M663.4531,119.6875 L663.4531,126.2031 L665.1719,126.2031 C665.625,126.2031 665.7656,126.2344 665.9375,126.3594 C666.1719,126.5313 666.2813,126.7813 666.2813,127.0625 C666.2813,127.625 665.9219,127.9063 665.1719,127.9063 L660.0313,127.9063 C659.625,127.9063 659.4219,127.8594 659.2656,127.7344 C659.0469,127.5781 658.9063,127.3125 658.9063,127.0625 C658.9063,126.7656 659.0625,126.4844 659.3125,126.3281 C659.4688,126.2188 659.5938,126.2031 660.0313,126.2031 L661.75,126.2031 L661.75,119.6875 L660.0313,119.6875 C659.6094,119.6875 659.4219,119.6563 659.2656,119.5469 C659.0469,119.375 658.9063,119.125 658.9063,118.8438 C658.9063,118.5625 659.0625,118.2656 659.3125,118.1094 C659.4688,118.0156 659.5938,118 660.0313,118 L665.1719,118 C665.625,118 665.7656,118.0313 665.9375,118.1406 C666.1719,118.3125 666.2813,118.5781 666.2813,118.8438 C666.2813,119.1406 666.1406,119.4219 665.875,119.5781 C665.75,119.6563 665.5625,119.6875 665.1719,119.6875 Z "/><text fill="#000000" font-family="sans-serif" font-size="12" font-style="italic" lengthAdjust="spacingAndGlyphs" textLength="93" x="676.5" y="127.0605">CacheStrategy</text><line style="stroke: #A80036; stroke-width: 1.5;" x1="648.5" x2="771.5" y1="138.9063" y2="138.9063"/><line style="stroke: #A80036; stroke-width: 1.5;" x1="648.5" x2="771.5" y1="146.9063" y2="146.9063"/><ellipse cx="658.5" cy="157.9063" fill="#84BE84" rx="3" ry="3" style="stroke: #038048; stroke-width: 1.0;"/><text fill="#000000" font-family="sans-serif" font-size="11" font-style="italic" lengthAdjust="spacingAndGlyphs" textLength="26" x="667.5" y="161.1167">get()</text><ellipse cx="658.5" cy="170.7109" fill="#84BE84" rx="3" ry="3" style="stroke: #038048; stroke-width: 1.0;"/><text fill="#000000" font-family="sans-serif" font-size="11" font-style="italic" lengthAdjust="spacingAndGlyphs" textLength="35" x="667.5" y="173.9214">save()</text><!--class in.ashwanik.pdp.strategy.CacheType--><rect fill="#FEFECE" filter="url(#f1v14u1dy21x9o)" height="86.4141" id="in.ashwanik.pdp.strategy.CacheType" style="stroke: #A80036; stroke-width: 1.5;" width="205" x="38.5" y="100.9063"/><ellipse cx="102.75" cy="116.9063" fill="#EB937F" rx="11" ry="11" style="stroke: #A80036; stroke-width: 1.0;"/><path d="M101.0469,117.7813 L101.0469,120.2031 L105.4063,120.2031 L105.4063,119.3281 C105.4063,118.8438 105.4375,118.7031 105.5469,118.5469 C105.7188,118.2969 105.9844,118.1875 106.25,118.1875 C106.5313,118.1875 106.8125,118.3438 106.9844,118.5938 C107.0625,118.75 107.0938,118.8906 107.0938,119.3281 L107.0938,121.9063 L99.0938,121.9063 C98.7031,121.9063 98.4688,121.8594 98.3281,121.7344 C98.1094,121.5781 97.9688,121.3281 97.9688,121.0625 C97.9688,120.7656 98.125,120.5 98.375,120.3281 C98.5313,120.2188 98.6875,120.2031 99.0938,120.2031 L99.3438,120.2031 L99.3438,113.6875 L99.0938,113.6875 C98.6719,113.6875 98.4844,113.6563 98.3281,113.5469 C98.1094,113.375 97.9688,113.125 97.9688,112.8438 C97.9688,112.5625 98.125,112.2656 98.375,112.1094 C98.5313,112.0156 98.6563,112 99.0938,112 L106.7188,112 L106.7188,114.5469 C106.7188,115.0156 106.6875,115.1563 106.5781,115.3281 C106.4063,115.5469 106.1406,115.6875 105.875,115.6875 C105.5938,115.6875 105.3125,115.5313 105.1406,115.2813 C105.0625,115.125 105.0313,114.9531 105.0313,114.5469 L105.0313,113.6875 L101.0469,113.6875 L101.0469,116.0938 L102.5,116.0938 L102.5,115.9688 C102.5,115.5156 102.5313,115.3594 102.6406,115.1875 C102.8125,114.9688 103.0781,114.8281 103.3281,114.8281 C103.7813,114.8281 104.0938,115.1406 104.1563,115.6094 C104.1719,115.7656 104.1719,115.8125 104.1719,115.9688 L104.1719,117.8906 C104.1719,118.3438 104.1406,118.5 104.0156,118.6563 C103.8594,118.875 103.5938,119.0156 103.3438,119.0156 C103.0469,119.0156 102.7656,118.8594 102.6094,118.6094 C102.5313,118.4531 102.5,118.2969 102.5,117.8906 L102.5,117.7813 Z "/><text fill="#000000" font-family="sans-serif" font-size="12" lengthAdjust="spacingAndGlyphs" textLength="68" x="123.25" y="121.0605">CacheType</text><line style="stroke: #A80036; stroke-width: 1.5;" x1="39.5" x2="242.5" y1="132.9063" y2="132.9063"/><text fill="#000000" font-family="sans-serif" font-size="11" lengthAdjust="spacingAndGlyphs" textLength="65" x="44.5" y="147.1167">IN_MEMORY</text><text fill="#000000" font-family="sans-serif" font-size="11" lengthAdjust="spacingAndGlyphs" textLength="33" x="44.5" y="159.9214">REDIS</text><text fill="#000000" font-family="sans-serif" font-size="11" lengthAdjust="spacingAndGlyphs" textLength="193" x="44.5" y="172.7261">REDIS_FALL_BACK_TO_IN_MEMORY</text><line style="stroke: #A80036; stroke-width: 1.5;" x1="39.5" x2="242.5" y1="179.3203" y2="179.3203"/><!--class in.ashwanik.pdp.strategy.InMemoryCacheStrategy--><rect fill="#FEFECE" filter="url(#f1v14u1dy21x9o)" height="99.2188" id="in.ashwanik.pdp.strategy.InMemoryCacheStrategy" style="stroke: #A80036; stroke-width: 1.5;" width="188" x="395" y="263.9063"/><ellipse cx="412.25" cy="279.9063" fill="#ADD1B2" rx="11" ry="11" style="stroke: #A80036; stroke-width: 1.0;"/><path d="M414.5938,275.5781 L414.7656,275.6563 C414.9844,275.3438 415.1875,275.25 415.4844,275.25 C415.7813,275.25 416.0625,275.3906 416.2188,275.6563 C416.3125,275.8125 416.3281,275.9375 416.3281,276.375 L416.3281,277.7969 C416.3281,278.2188 416.2969,278.4063 416.1875,278.5625 C416.0156,278.7813 415.75,278.9219 415.4844,278.9219 C415.2656,278.9219 415.0313,278.8125 414.8906,278.6719 C414.75,278.5469 414.7188,278.4219 414.6563,278.0156 C414.5625,277.6094 414.3906,277.3906 413.9063,277.1094 C413.4375,276.8594 412.8281,276.7031 412.25,276.7031 C410.5156,276.7031 409.2656,278.0156 409.2656,279.7969 L409.2656,280.8906 C409.2656,282.5938 410.5625,283.6875 412.6094,283.6875 C413.375,283.6875 414.0625,283.5625 414.4844,283.2969 C414.6719,283.2031 414.6719,283.2031 415.125,282.7188 C415.3125,282.5313 415.5156,282.4531 415.7344,282.4531 C416.2031,282.4531 416.5938,282.8438 416.5938,283.2969 C416.5938,283.6875 416.2656,284.1406 415.6875,284.5469 C414.9375,285.0938 413.7813,285.3906 412.5625,285.3906 C409.6719,285.3906 407.5625,283.5 407.5625,280.9219 L407.5625,279.7969 C407.5625,277.0781 409.5625,275 412.1875,275 C413.0625,275 413.6563,275.1406 414.5938,275.5781 Z "/><text fill="#000000" font-family="sans-serif" font-size="12" lengthAdjust="spacingAndGlyphs" textLength="151" x="426.75" y="284.0605">InMemoryCacheStrategy</text><line style="stroke: #A80036; stroke-width: 1.5;" x1="396" x2="582" y1="295.9063" y2="295.9063"/><rect fill="none" height="6" style="stroke: #C82930; stroke-width: 1.0;" width="6" x="403" y="303.9063"/><text fill="#000000" font-family="sans-serif" font-size="11" lengthAdjust="spacingAndGlyphs" textLength="162" x="415" y="310.1167">cache : Map&lt;String, String&gt;</text><line style="stroke: #A80036; stroke-width: 1.5;" x1="396" x2="582" y1="316.7109" y2="316.7109"/><ellipse cx="406" cy="327.7109" fill="#84BE84" rx="3" ry="3" style="stroke: #038048; stroke-width: 1.0;"/><text fill="#000000" font-family="sans-serif" font-size="11" lengthAdjust="spacingAndGlyphs" textLength="26" x="415" y="330.9214">get()</text><ellipse cx="406" cy="340.5156" fill="#84BE84" rx="3" ry="3" style="stroke: #038048; stroke-width: 1.0;"/><text fill="#000000" font-family="sans-serif" font-size="11" lengthAdjust="spacingAndGlyphs" textLength="35" x="415" y="343.7261">save()</text><polygon fill="#4177AF" points="406,349.3203,402,355.3203,410,355.3203" style="stroke: #1963A0; stroke-width: 1.0;"/><text fill="#000000" font-family="sans-serif" font-size="11" lengthAdjust="spacingAndGlyphs" textLength="146" x="415" y="356.5308">InMemoryCacheStrategy()</text><!--class in.ashwanik.pdp.strategy.RedisCacheStrategy--><rect fill="#FEFECE" filter="url(#f1v14u1dy21x9o)" height="86.4141" id="in.ashwanik.pdp.strategy.RedisCacheStrategy" style="stroke: #A80036; stroke-width: 1.5;" width="158" x="618" y="270.4063"/><ellipse cx="633" cy="286.4063" fill="#ADD1B2" rx="11" ry="11" style="stroke: #A80036; stroke-width: 1.0;"/><path d="M635.3438,282.0781 L635.5156,282.1563 C635.7344,281.8438 635.9375,281.75 636.2344,281.75 C636.5313,281.75 636.8125,281.8906 636.9688,282.1563 C637.0625,282.3125 637.0781,282.4375 637.0781,282.875 L637.0781,284.2969 C637.0781,284.7188 637.0469,284.9063 636.9375,285.0625 C636.7656,285.2813 636.5,285.4219 636.2344,285.4219 C636.0156,285.4219 635.7813,285.3125 635.6406,285.1719 C635.5,285.0469 635.4688,284.9219 635.4063,284.5156 C635.3125,284.1094 635.1406,283.8906 634.6563,283.6094 C634.1875,283.3594 633.5781,283.2031 633,283.2031 C631.2656,283.2031 630.0156,284.5156 630.0156,286.2969 L630.0156,287.3906 C630.0156,289.0938 631.3125,290.1875 633.3594,290.1875 C634.125,290.1875 634.8125,290.0625 635.2344,289.7969 C635.4219,289.7031 635.4219,289.7031 635.875,289.2188 C636.0625,289.0313 636.2656,288.9531 636.4844,288.9531 C636.9531,288.9531 637.3438,289.3438 637.3438,289.7969 C637.3438,290.1875 637.0156,290.6406 636.4375,291.0469 C635.6875,291.5938 634.5313,291.8906 633.3125,291.8906 C630.4219,291.8906 628.3125,290 628.3125,287.4219 L628.3125,286.2969 C628.3125,283.5781 630.3125,281.5 632.9375,281.5 C633.8125,281.5 634.4063,281.6406 635.3438,282.0781 Z "/><text fill="#000000" font-family="sans-serif" font-size="12" lengthAdjust="spacingAndGlyphs" textLength="126" x="647" y="290.5605">RedisCacheStrategy</text><line style="stroke: #A80036; stroke-width: 1.5;" x1="619" x2="775" y1="302.4063" y2="302.4063"/><line style="stroke: #A80036; stroke-width: 1.5;" x1="619" x2="775" y1="310.4063" y2="310.4063"/><ellipse cx="629" cy="321.4063" fill="#84BE84" rx="3" ry="3" style="stroke: #038048; stroke-width: 1.0;"/><text fill="#000000" font-family="sans-serif" font-size="11" lengthAdjust="spacingAndGlyphs" textLength="26" x="638" y="324.6167">get()</text><ellipse cx="629" cy="334.2109" fill="#84BE84" rx="3" ry="3" style="stroke: #038048; stroke-width: 1.0;"/><text fill="#000000" font-family="sans-serif" font-size="11" lengthAdjust="spacingAndGlyphs" textLength="35" x="638" y="337.4214">save()</text><polygon fill="#4177AF" points="629,343.0156,625,349.0156,633,349.0156" style="stroke: #1963A0; stroke-width: 1.0;"/><text fill="#000000" font-family="sans-serif" font-size="11" lengthAdjust="spacingAndGlyphs" textLength="122" x="638" y="350.2261">RedisCacheStrategy()</text><!--class in.ashwanik.pdp.strategy.RedisClient--><rect fill="#FEFECE" filter="url(#f1v14u1dy21x9o)" height="73.6094" id="in.ashwanik.pdp.strategy.RedisClient" style="stroke: #A80036; stroke-width: 1.5;" width="100" x="647" y="439.9063"/><ellipse cx="662" cy="455.9063" fill="#B4A7E5" rx="11" ry="11" style="stroke: #A80036; stroke-width: 1.0;"/><path d="M662.9531,452.6875 L662.9531,459.2031 L664.6719,459.2031 C665.125,459.2031 665.2656,459.2344 665.4375,459.3594 C665.6719,459.5313 665.7813,459.7813 665.7813,460.0625 C665.7813,460.625 665.4219,460.9063 664.6719,460.9063 L659.5313,460.9063 C659.125,460.9063 658.9219,460.8594 658.7656,460.7344 C658.5469,460.5781 658.4063,460.3125 658.4063,460.0625 C658.4063,459.7656 658.5625,459.4844 658.8125,459.3281 C658.9688,459.2188 659.0938,459.2031 659.5313,459.2031 L661.25,459.2031 L661.25,452.6875 L659.5313,452.6875 C659.1094,452.6875 658.9219,452.6563 658.7656,452.5469 C658.5469,452.375 658.4063,452.125 658.4063,451.8438 C658.4063,451.5625 658.5625,451.2656 658.8125,451.1094 C658.9688,451.0156 659.0938,451 659.5313,451 L664.6719,451 C665.125,451 665.2656,451.0313 665.4375,451.1406 C665.6719,451.3125 665.7813,451.5781 665.7813,451.8438 C665.7813,452.1406 665.6406,452.4219 665.375,452.5781 C665.25,452.6563 665.0625,452.6875 664.6719,452.6875 Z "/><text fill="#000000" font-family="sans-serif" font-size="12" font-style="italic" lengthAdjust="spacingAndGlyphs" textLength="68" x="676" y="460.0605">RedisClient</text><line style="stroke: #A80036; stroke-width: 1.5;" x1="648" x2="746" y1="471.9063" y2="471.9063"/><line style="stroke: #A80036; stroke-width: 1.5;" x1="648" x2="746" y1="479.9063" y2="479.9063"/><ellipse cx="658" cy="490.9063" fill="#84BE84" rx="3" ry="3" style="stroke: #038048; stroke-width: 1.0;"/><text fill="#000000" font-family="sans-serif" font-size="11" font-style="italic" lengthAdjust="spacingAndGlyphs" textLength="26" x="667" y="494.1167">get()</text><ellipse cx="658" cy="503.7109" fill="#84BE84" rx="3" ry="3" style="stroke: #038048; stroke-width: 1.0;"/><text fill="#000000" font-family="sans-serif" font-size="11" font-style="italic" lengthAdjust="spacingAndGlyphs" textLength="35" x="667" y="506.9214">save()</text><!--class in.ashwanik.pdp.strategy.RedisFallBackStrategy--><rect fill="#FEFECE" filter="url(#f1v14u1dy21x9o)" height="86.4141" id="in.ashwanik.pdp.strategy.RedisFallBackStrategy" style="stroke: #A80036; stroke-width: 1.5;" width="170" x="811" y="270.4063"/><ellipse cx="826" cy="286.4063" fill="#ADD1B2" rx="11" ry="11" style="stroke: #A80036; stroke-width: 1.0;"/><path d="M828.3438,282.0781 L828.5156,282.1563 C828.7344,281.8438 828.9375,281.75 829.2344,281.75 C829.5313,281.75 829.8125,281.8906 829.9688,282.1563 C830.0625,282.3125 830.0781,282.4375 830.0781,282.875 L830.0781,284.2969 C830.0781,284.7188 830.0469,284.9063 829.9375,285.0625 C829.7656,285.2813 829.5,285.4219 829.2344,285.4219 C829.0156,285.4219 828.7813,285.3125 828.6406,285.1719 C828.5,285.0469 828.4688,284.9219 828.4063,284.5156 C828.3125,284.1094 828.1406,283.8906 827.6563,283.6094 C827.1875,283.3594 826.5781,283.2031 826,283.2031 C824.2656,283.2031 823.0156,284.5156 823.0156,286.2969 L823.0156,287.3906 C823.0156,289.0938 824.3125,290.1875 826.3594,290.1875 C827.125,290.1875 827.8125,290.0625 828.2344,289.7969 C828.4219,289.7031 828.4219,289.7031 828.875,289.2188 C829.0625,289.0313 829.2656,288.9531 829.4844,288.9531 C829.9531,288.9531 830.3438,289.3438 830.3438,289.7969 C830.3438,290.1875 830.0156,290.6406 829.4375,291.0469 C828.6875,291.5938 827.5313,291.8906 826.3125,291.8906 C823.4219,291.8906 821.3125,290 821.3125,287.4219 L821.3125,286.2969 C821.3125,283.5781 823.3125,281.5 825.9375,281.5 C826.8125,281.5 827.4063,281.6406 828.3438,282.0781 Z "/><text fill="#000000" font-family="sans-serif" font-size="12" lengthAdjust="spacingAndGlyphs" textLength="138" x="840" y="290.5605">RedisFallBackStrategy</text><line style="stroke: #A80036; stroke-width: 1.5;" x1="812" x2="980" y1="302.4063" y2="302.4063"/><line style="stroke: #A80036; stroke-width: 1.5;" x1="812" x2="980" y1="310.4063" y2="310.4063"/><ellipse cx="822" cy="321.4063" fill="#84BE84" rx="3" ry="3" style="stroke: #038048; stroke-width: 1.0;"/><text fill="#000000" font-family="sans-serif" font-size="11" lengthAdjust="spacingAndGlyphs" textLength="26" x="831" y="324.6167">get()</text><ellipse cx="822" cy="334.2109" fill="#84BE84" rx="3" ry="3" style="stroke: #038048; stroke-width: 1.0;"/><text fill="#000000" font-family="sans-serif" font-size="11" lengthAdjust="spacingAndGlyphs" textLength="35" x="831" y="337.4214">save()</text><polygon fill="#4177AF" points="822,343.0156,818,349.0156,826,349.0156" style="stroke: #1963A0; stroke-width: 1.0;"/><text fill="#000000" font-family="sans-serif" font-size="11" lengthAdjust="spacingAndGlyphs" textLength="133" x="831" y="350.2261">RedisFallBackStrategy()</text><!--reverse link in.ashwanik.pdp.strategy.CacheService to in.ashwanik.pdp.strategy.CacheServiceImpl--><path d="M294.225,196.8252 C276.643,218.1653 256.393,242.7443 239.099,263.7353 " fill="none" id="in.ashwanik.pdp.strategy.CacheService&lt;-in.ashwanik.pdp.strategy.CacheServiceImpl" style="stroke: #A80036; stroke-width: 1.0; stroke-dasharray: 7.0,7.0;"/><polygon fill="none" points="288.936,192.2362,307.056,181.2513,299.741,201.1383,288.936,192.2362" style="stroke: #A80036; stroke-width: 1.0;"/><!--reverse link in.ashwanik.pdp.strategy.CacheStrategy to in.ashwanik.pdp.strategy.InMemoryCacheStrategy--><path d="M646.287,193.1953 C617.119,215.3033 582.616,241.4533 553.368,263.6203 " fill="none" id="in.ashwanik.pdp.strategy.CacheStrategy&lt;-in.ashwanik.pdp.strategy.InMemoryCacheStrategy" style="stroke: #A80036; stroke-width: 1.0; stroke-dasharray: 7.0,7.0;"/><polygon fill="none" points="642.151,187.5473,662.318,181.0453,650.607,198.7043,642.151,187.5473" style="stroke: #A80036; stroke-width: 1.0;"/><!--reverse link in.ashwanik.pdp.strategy.CacheStrategy to in.ashwanik.pdp.strategy.RedisCacheStrategy--><path d="M705.624,201.2953 C703.875,223.8313 701.895,249.3352 700.274,270.2203 " fill="none" id="in.ashwanik.pdp.strategy.CacheStrategy&lt;-in.ashwanik.pdp.strategy.RedisCacheStrategy" style="stroke: #A80036; stroke-width: 1.0; stroke-dasharray: 7.0,7.0;"/><polygon fill="none" points="698.653,200.6493,707.179,181.2513,712.611,201.7333,698.653,200.6493" style="stroke: #A80036; stroke-width: 1.0;"/><!--reverse link in.ashwanik.pdp.strategy.RedisCacheStrategy to in.ashwanik.pdp.strategy.RedisClient--><path d="M697,369.6543 C697,392.8653 697,419.2083 697,439.8583 " fill="none" id="in.ashwanik.pdp.strategy.RedisCacheStrategy&lt;-in.ashwanik.pdp.strategy.RedisClient" style="stroke: #A80036; stroke-width: 1.0;"/><polygon fill="#FFFFFF" points="697,356.4172,693,362.4172,697,368.4172,701,362.4172,697,356.4172" style="stroke: #A80036; stroke-width: 1.0;"/><text fill="#000000" font-family="sans-serif" font-size="13" lengthAdjust="spacingAndGlyphs" textLength="67" x="698" y="405.9731">redisClient</text><!--reverse link in.ashwanik.pdp.strategy.CacheStrategy to in.ashwanik.pdp.strategy.RedisFallBackStrategy--><path d="M703.711,201.7113 C704.93,213.2163 708.2,224.6193 715,233.9063 C737.187,264.2093 759.457,249.1633 794,263.9063 C799.501,266.2543 805.138,268.7303 810.802,271.2723 " fill="none" id="in.ashwanik.pdp.strategy.CacheStrategy&lt;-in.ashwanik.pdp.strategy.RedisFallBackStrategy" style="stroke: #A80036; stroke-width: 1.0; stroke-dasharray: 7.0,7.0;"/><polygon fill="none" points="696.706,201.4242,703.416,181.3252,710.705,201.2213,696.706,201.4242" style="stroke: #A80036; stroke-width: 1.0;"/><!--reverse link in.ashwanik.pdp.strategy.RedisFallBackStrategy to in.ashwanik.pdp.strategy.CacheStrategy--><path d="M799.183,264.1493 C774.045,250.9923 752.651,238.9663 748,233.9063 C734.356,219.0632 725.154,198.5802 719.227,181.0053 " fill="none" id="in.ashwanik.pdp.strategy.RedisFallBackStrategy&lt;-in.ashwanik.pdp.strategy.CacheStrategy" style="stroke: #A80036; stroke-width: 1.0;"/><polygon fill="#FFFFFF" points="810.95,270.2533,807.4656,263.9399,800.2977,264.728,803.7821,271.0414,810.95,270.2533" style="stroke: #A80036; stroke-width: 1.0;"/><text fill="#000000" font-family="sans-serif" font-size="13" lengthAdjust="spacingAndGlyphs" textLength="103" x="749" y="229.9731">inMemoryCache</text><!--reverse link in.ashwanik.pdp.strategy.RedisFallBackStrategy to in.ashwanik.pdp.strategy.CacheStrategy--><path d="M881.439,257.5803 C875.622,243.1013 867.687,228.3422 857,216.9063 C834.202,192.5093 801.364,175.3403 772.505,163.9033 " fill="none" id="in.ashwanik.pdp.strategy.RedisFallBackStrategy&lt;-in.ashwanik.pdp.strategy.CacheStrategy-1" style="stroke: #A80036; stroke-width: 1.0;"/><polygon fill="#FFFFFF" points="886.022,270.1423,887.7233,263.1347,881.9091,258.8691,880.2078,265.8766,886.022,270.1423" style="stroke: #A80036; stroke-width: 1.0;"/><text fill="#000000" font-family="sans-serif" font-size="13" lengthAdjust="spacingAndGlyphs" textLength="71" x="869" y="229.9731">redisCache</text><!--
@startuml
title __STRATEGY__\n

  namespace in.ashwanik.pdp.strategy {
    interface in.ashwanik.pdp.strategy.CacheService {
        {abstract} + get()
        {abstract} + save()
    }
  }
  

  namespace in.ashwanik.pdp.strategy {
    class in.ashwanik.pdp.strategy.CacheServiceImpl {
        - strategies : EnumMap<CacheType, CacheStrategy>
        + get()
        + save()
        ~ CacheServiceImpl()
    }
  }
  

  namespace in.ashwanik.pdp.strategy {
    interface in.ashwanik.pdp.strategy.CacheStrategy {
        {abstract} + get()
        {abstract} + save()
    }
  }
  

  namespace in.ashwanik.pdp.strategy {
    enum CacheType {
      IN_MEMORY
      REDIS
      REDIS_FALL_BACK_TO_IN_MEMORY
    }
  }
  

  namespace in.ashwanik.pdp.strategy {
    class in.ashwanik.pdp.strategy.InMemoryCacheStrategy {
        - cache : Map<String, String>
        + get()
        + save()
        ~ InMemoryCacheStrategy()
    }
  }
  

  namespace in.ashwanik.pdp.strategy {
    class in.ashwanik.pdp.strategy.RedisCacheStrategy {
        + get()
        + save()
        ~ RedisCacheStrategy()
    }
  }
  

  namespace in.ashwanik.pdp.strategy {
    interface in.ashwanik.pdp.strategy.RedisClient {
        {abstract} + get()
        {abstract} + save()
    }
  }
  

  namespace in.ashwanik.pdp.strategy {
    class in.ashwanik.pdp.strategy.RedisFallBackStrategy {
        + get()
        + save()
        ~ RedisFallBackStrategy()
    }
  }
  

  in.ashwanik.pdp.strategy.CacheServiceImpl .up.|> in.ashwanik.pdp.strategy.CacheService
  in.ashwanik.pdp.strategy.InMemoryCacheStrategy .up.|> in.ashwanik.pdp.strategy.CacheStrategy
  in.ashwanik.pdp.strategy.RedisCacheStrategy .up.|> in.ashwanik.pdp.strategy.CacheStrategy
  in.ashwanik.pdp.strategy.RedisCacheStrategy o- - in.ashwanik.pdp.strategy.RedisClient : redisClient
  in.ashwanik.pdp.strategy.RedisFallBackStrategy .up.|> in.ashwanik.pdp.strategy.CacheStrategy
  in.ashwanik.pdp.strategy.RedisFallBackStrategy o- - in.ashwanik.pdp.strategy.CacheStrategy : inMemoryCache
  in.ashwanik.pdp.strategy.RedisFallBackStrategy o- - in.ashwanik.pdp.strategy.CacheStrategy : redisCache
@enduml

PlantUML version 1.2019.10beta5(Unknown compile time)
(GPL source distribution)
Java Runtime: Java(TM) SE Runtime Environment
JVM: Java HotSpot(TM) 64-Bit Server VM
Java Version: 1.7.0_25-b15
Operating System: Linux
Default Encoding: UTF-8
Language: en
Country: US
--></g></svg>