<?xml version="1.0" encoding="UTF-8" standalone="no"?>
<svg xmlns="http://www.w3.org/2000/svg" xmlns:xlink="http://www.w3.org/1999/xlink" contentScriptType="application/ecmascript" contentStyleType="text/css" height="689px" preserveAspectRatio="none" style="width:660px;height:689px;" version="1.1" viewBox="0 0 660 689" width="660px" zoomAndPan="magnify"><defs><filter height="300%" id="f3bh1itwmdh1x" width="300%" x="-1" y="-1"><feGaussianBlur result="blurOut" stdDeviation="2.0"/><feColorMatrix in="blurOut" result="blurOut2" type="matrix" values="0 0 0 0 0 0 0 0 0 0 0 0 0 0 0 0 0 0 .4 0"/><feOffset dx="4.0" dy="4.0" in="blurOut2" result="blurOut3"/><feBlend in="SourceGraphic" in2="blurOut3" mode="normal"/></filter></defs><g><text fill="#000000" font-family="sans-serif" font-size="18" lengthAdjust="spacingAndGlyphs" text-decoration="underline" textLength="95" x="288.5" y="16.708">TEMPLATE</text><text fill="#000000" font-family="sans-serif" font-size="18" lengthAdjust="spacingAndGlyphs" textLength="0" x="339" y="37.6611"/><!--MD5=[2425e3b375182da836f454be56a0ce1c]
cluster in.ashwanik.pdp.template--><polygon fill="#FFFFFF" filter="url(#f3bh1itwmdh1x)" points="22,65.9063,230,65.9063,237,88.2031,638,88.2031,638,677.9063,22,677.9063,22,65.9063" style="stroke: #000000; stroke-width: 1.5;"/><line style="stroke: #000000; stroke-width: 1.5;" x1="22" x2="237" y1="88.2031" y2="88.2031"/><text fill="#000000" font-family="sans-serif" font-size="14" font-weight="bold" lengthAdjust="spacingAndGlyphs" textLength="202" x="26" y="80.9014">in.ashwanik.pdp.template</text><!--MD5=[e3555e3fdc04ee713925444f99e35989]
class in.ashwanik.pdp.template.App--><rect fill="#FEFECE" filter="url(#f3bh1itwmdh1x)" height="73.6094" id="in.ashwanik.pdp.template.App" style="stroke: #A80036; stroke-width: 1.5;" width="85" x="233.5" y="100.9063"/><ellipse cx="261.55" cy="116.9063" fill="#ADD1B2" rx="11" ry="11" style="stroke: #A80036; stroke-width: 1.0;"/><path d="M263.8938,112.5781 L264.0656,112.6563 C264.2844,112.3438 264.4875,112.25 264.7844,112.25 C265.0813,112.25 265.3625,112.3906 265.5188,112.6563 C265.6125,112.8125 265.6281,112.9375 265.6281,113.375 L265.6281,114.7969 C265.6281,115.2188 265.5969,115.4063 265.4875,115.5625 C265.3156,115.7813 265.05,115.9219 264.7844,115.9219 C264.5656,115.9219 264.3313,115.8125 264.1906,115.6719 C264.05,115.5469 264.0188,115.4219 263.9563,115.0156 C263.8625,114.6094 263.6906,114.3906 263.2063,114.1094 C262.7375,113.8594 262.1281,113.7031 261.55,113.7031 C259.8156,113.7031 258.5656,115.0156 258.5656,116.7969 L258.5656,117.8906 C258.5656,119.5938 259.8625,120.6875 261.9094,120.6875 C262.675,120.6875 263.3625,120.5625 263.7844,120.2969 C263.9719,120.2031 263.9719,120.2031 264.425,119.7188 C264.6125,119.5313 264.8156,119.4531 265.0344,119.4531 C265.5031,119.4531 265.8938,119.8438 265.8938,120.2969 C265.8938,120.6875 265.5656,121.1406 264.9875,121.5469 C264.2375,122.0938 263.0813,122.3906 261.8625,122.3906 C258.9719,122.3906 256.8625,120.5 256.8625,117.9219 L256.8625,116.7969 C256.8625,114.0781 258.8625,112 261.4875,112 C262.3625,112 262.9563,112.1406 263.8938,112.5781 Z "/><text fill="#000000" font-family="sans-serif" font-size="12" lengthAdjust="spacingAndGlyphs" textLength="24" x="278.45" y="121.0605">App</text><line style="stroke: #A80036; stroke-width: 1.5;" x1="234.5" x2="317.5" y1="132.9063" y2="132.9063"/><line style="stroke: #A80036; stroke-width: 1.5;" x1="234.5" x2="317.5" y1="140.9063" y2="140.9063"/><ellipse cx="244.5" cy="151.9063" fill="#84BE84" rx="3" ry="3" style="stroke: #038048; stroke-width: 1.0;"/><text fill="#000000" font-family="sans-serif" font-size="11" lengthAdjust="spacingAndGlyphs" textLength="59" x="253.5" y="155.1167">getArena()</text><polygon fill="#4177AF" points="244.5,160.7109,240.5,166.7109,248.5,166.7109" style="stroke: #1963A0; stroke-width: 1.0;"/><text fill="#000000" font-family="sans-serif" font-size="11" lengthAdjust="spacingAndGlyphs" textLength="29" x="253.5" y="167.9214">App()</text><!--MD5=[59f8c9c1186bee098da58fe42f50f502]
class in.ashwanik.pdp.template.Arena--><rect fill="#FEFECE" filter="url(#f3bh1itwmdh1x)" height="99.2188" id="in.ashwanik.pdp.template.Arena" style="stroke: #A80036; stroke-width: 1.5;" width="134" x="209" y="251.9063"/><ellipse cx="253.25" cy="267.9063" fill="#A9DCDF" rx="11" ry="11" style="stroke: #A80036; stroke-width: 1.0;"/><path d="M254.8281,269.7188 L250.7813,269.7188 L250.3906,270.7031 L250.7813,270.7031 C251.2344,270.7031 251.375,270.7344 251.5469,270.8594 C251.7656,271.0313 251.8906,271.2813 251.8906,271.5625 C251.8906,271.8438 251.75,272.1406 251.4844,272.2813 C251.3594,272.375 251.1406,272.4063 250.7813,272.4063 L248.5156,272.4063 C247.7656,272.4063 247.3906,272.125 247.3906,271.5625 C247.3906,271.2656 247.5469,270.9844 247.7969,270.8281 C247.9531,270.7188 248.1094,270.7031 248.5313,270.7031 L251.1719,264.1875 L250.0938,264.1875 C249.6563,264.1875 249.4844,264.1563 249.3125,264.0469 C249.0938,263.875 248.9531,263.625 248.9531,263.3438 C248.9531,263.0625 249.1094,262.7813 249.3594,262.6094 C249.5156,262.5156 249.6406,262.5 250.0938,262.5 L253.7656,262.5 L257.1563,270.7031 C257.625,270.7031 257.7813,270.7344 257.9531,270.875 C258.1719,271.0313 258.3125,271.2813 258.3125,271.5625 C258.3125,271.8438 258.1563,272.1406 257.9063,272.2813 C257.7656,272.375 257.5469,272.4063 257.1875,272.4063 L254.8281,272.4063 C254.4063,272.4063 254.2031,272.3594 254.0625,272.2344 C253.8438,272.0781 253.7031,271.8281 253.7031,271.5625 C253.7031,271.2656 253.8594,270.9844 254.1094,270.8281 C254.2656,270.7188 254.375,270.7031 254.8281,270.7031 L255.2188,270.7031 Z M254.125,268.0156 L252.7969,264.75 L251.4531,268.0156 Z "/><text fill="#000000" font-family="sans-serif" font-size="12" font-style="italic" lengthAdjust="spacingAndGlyphs" textLength="37" x="273.75" y="272.0605">Arena</text><line style="stroke: #A80036; stroke-width: 1.5;" x1="210" x2="342" y1="283.9063" y2="283.9063"/><line style="stroke: #A80036; stroke-width: 1.5;" x1="210" x2="342" y1="291.9063" y2="291.9063"/><polygon fill="#4177AF" points="220,298.9063,216,304.9063,224,304.9063" style="stroke: #1963A0; stroke-width: 1.0;"/><text fill="#000000" font-family="sans-serif" font-size="11" lengthAdjust="spacingAndGlyphs" textLength="35" x="229" y="306.1167">build()</text><polygon fill="#4177AF" points="220,311.7109,216,317.7109,224,317.7109" style="stroke: #1963A0; stroke-width: 1.0;"/><text fill="#000000" font-family="sans-serif" font-size="11" font-style="italic" lengthAdjust="spacingAndGlyphs" textLength="76" x="229" y="318.9214">buildTerrain()</text><polygon fill="#4177AF" points="220,324.5156,216,330.5156,224,330.5156" style="stroke: #1963A0; stroke-width: 1.0;"/><text fill="#000000" font-family="sans-serif" font-size="11" font-style="italic" lengthAdjust="spacingAndGlyphs" textLength="86" x="229" y="331.7261">placeNemesis()</text><polygon fill="#4177AF" points="220,337.3203,216,343.3203,224,343.3203" style="stroke: #1963A0; stroke-width: 1.0;"/><text fill="#000000" font-family="sans-serif" font-size="11" font-style="italic" lengthAdjust="spacingAndGlyphs" textLength="108" x="229" y="344.5308">setupImmovables()</text><!--MD5=[3dc6f77ee13b961beef89fc1d48decdf]
class in.ashwanik.pdp.template.CastleArena--><rect fill="#FEFECE" filter="url(#f3bh1itwmdh1x)" height="99.2188" id="in.ashwanik.pdp.template.CastleArena" style="stroke: #A80036; stroke-width: 1.5;" width="135" x="38.5" y="418.4063"/><ellipse cx="65.65" cy="434.4063" fill="#ADD1B2" rx="11" ry="11" style="stroke: #A80036; stroke-width: 1.0;"/><path d="M67.9938,430.0781 L68.1656,430.1563 C68.3844,429.8438 68.5875,429.75 68.8844,429.75 C69.1813,429.75 69.4625,429.8906 69.6188,430.1563 C69.7125,430.3125 69.7281,430.4375 69.7281,430.875 L69.7281,432.2969 C69.7281,432.7188 69.6969,432.9063 69.5875,433.0625 C69.4156,433.2813 69.15,433.4219 68.8844,433.4219 C68.6656,433.4219 68.4313,433.3125 68.2906,433.1719 C68.15,433.0469 68.1188,432.9219 68.0563,432.5156 C67.9625,432.1094 67.7906,431.8906 67.3063,431.6094 C66.8375,431.3594 66.2281,431.2031 65.65,431.2031 C63.9156,431.2031 62.6656,432.5156 62.6656,434.2969 L62.6656,435.3906 C62.6656,437.0938 63.9625,438.1875 66.0094,438.1875 C66.775,438.1875 67.4625,438.0625 67.8844,437.7969 C68.0719,437.7031 68.0719,437.7031 68.525,437.2188 C68.7125,437.0313 68.9156,436.9531 69.1344,436.9531 C69.6031,436.9531 69.9938,437.3438 69.9938,437.7969 C69.9938,438.1875 69.6656,438.6406 69.0875,439.0469 C68.3375,439.5938 67.1813,439.8906 65.9625,439.8906 C63.0719,439.8906 60.9625,438 60.9625,435.4219 L60.9625,434.2969 C60.9625,431.5781 62.9625,429.5 65.5875,429.5 C66.4625,429.5 67.0563,429.6406 67.9938,430.0781 Z "/><text fill="#000000" font-family="sans-serif" font-size="12" lengthAdjust="spacingAndGlyphs" textLength="76" x="82.35" y="438.5605">CastleArena</text><line style="stroke: #A80036; stroke-width: 1.5;" x1="39.5" x2="172.5" y1="450.4063" y2="450.4063"/><line style="stroke: #A80036; stroke-width: 1.5;" x1="39.5" x2="172.5" y1="458.4063" y2="458.4063"/><polygon fill="#4177AF" points="49.5,465.4063,45.5,471.4063,53.5,471.4063" style="stroke: #1963A0; stroke-width: 1.0;"/><text fill="#000000" font-family="sans-serif" font-size="11" lengthAdjust="spacingAndGlyphs" textLength="77" x="58.5" y="472.6167">CastleArena()</text><polygon fill="#4177AF" points="49.5,478.2109,45.5,484.2109,53.5,484.2109" style="stroke: #1963A0; stroke-width: 1.0;"/><text fill="#000000" font-family="sans-serif" font-size="11" lengthAdjust="spacingAndGlyphs" textLength="76" x="58.5" y="485.4214">buildTerrain()</text><polygon fill="#4177AF" points="49.5,491.0156,45.5,497.0156,53.5,497.0156" style="stroke: #1963A0; stroke-width: 1.0;"/><text fill="#000000" font-family="sans-serif" font-size="11" lengthAdjust="spacingAndGlyphs" textLength="88" x="58.5" y="498.2261">placeNemesis()</text><polygon fill="#4177AF" points="49.5,503.8203,45.5,509.8203,53.5,509.8203" style="stroke: #1963A0; stroke-width: 1.0;"/><text fill="#000000" font-family="sans-serif" font-size="11" lengthAdjust="spacingAndGlyphs" textLength="109" x="58.5" y="511.0308">setupImmovables()</text><!--MD5=[303e065530f10a4c19ee36d83eeb3b95]
class in.ashwanik.pdp.template.CastleMesh--><rect fill="#FEFECE" filter="url(#f3bh1itwmdh1x)" height="60.8047" id="in.ashwanik.pdp.template.CastleMesh" style="stroke: #A80036; stroke-width: 1.5;" width="104" x="118" y="600.9063"/><ellipse cx="133" cy="616.9063" fill="#ADD1B2" rx="11" ry="11" style="stroke: #A80036; stroke-width: 1.0;"/><path d="M135.3438,612.5781 L135.5156,612.6563 C135.7344,612.3438 135.9375,612.25 136.2344,612.25 C136.5313,612.25 136.8125,612.3906 136.9688,612.6563 C137.0625,612.8125 137.0781,612.9375 137.0781,613.375 L137.0781,614.7969 C137.0781,615.2188 137.0469,615.4063 136.9375,615.5625 C136.7656,615.7813 136.5,615.9219 136.2344,615.9219 C136.0156,615.9219 135.7813,615.8125 135.6406,615.6719 C135.5,615.5469 135.4688,615.4219 135.4063,615.0156 C135.3125,614.6094 135.1406,614.3906 134.6563,614.1094 C134.1875,613.8594 133.5781,613.7031 133,613.7031 C131.2656,613.7031 130.0156,615.0156 130.0156,616.7969 L130.0156,617.8906 C130.0156,619.5938 131.3125,620.6875 133.3594,620.6875 C134.125,620.6875 134.8125,620.5625 135.2344,620.2969 C135.4219,620.2031 135.4219,620.2031 135.875,619.7188 C136.0625,619.5313 136.2656,619.4531 136.4844,619.4531 C136.9531,619.4531 137.3438,619.8438 137.3438,620.2969 C137.3438,620.6875 137.0156,621.1406 136.4375,621.5469 C135.6875,622.0938 134.5313,622.3906 133.3125,622.3906 C130.4219,622.3906 128.3125,620.5 128.3125,617.9219 L128.3125,616.7969 C128.3125,614.0781 130.3125,612 132.9375,612 C133.8125,612 134.4063,612.1406 135.3438,612.5781 Z "/><text fill="#000000" font-family="sans-serif" font-size="12" lengthAdjust="spacingAndGlyphs" textLength="72" x="147" y="621.0605">CastleMesh</text><line style="stroke: #A80036; stroke-width: 1.5;" x1="119" x2="221" y1="632.9063" y2="632.9063"/><line style="stroke: #A80036; stroke-width: 1.5;" x1="119" x2="221" y1="640.9063" y2="640.9063"/><polygon fill="#4177AF" points="129,647.9063,125,653.9063,133,653.9063" style="stroke: #1963A0; stroke-width: 1.0;"/><text fill="#000000" font-family="sans-serif" font-size="11" lengthAdjust="spacingAndGlyphs" textLength="46" x="138" y="655.1167">render()</text><!--MD5=[75ed1a2bb9f1c536dbc7f4009d14588f]
class in.ashwanik.pdp.template.CaveMesh--><rect fill="#FEFECE" filter="url(#f3bh1itwmdh1x)" height="60.8047" id="in.ashwanik.pdp.template.CaveMesh" style="stroke: #A80036; stroke-width: 1.5;" width="95" x="283.5" y="600.9063"/><ellipse cx="298.5" cy="616.9063" fill="#ADD1B2" rx="11" ry="11" style="stroke: #A80036; stroke-width: 1.0;"/><path d="M300.8438,612.5781 L301.0156,612.6563 C301.2344,612.3438 301.4375,612.25 301.7344,612.25 C302.0313,612.25 302.3125,612.3906 302.4688,612.6563 C302.5625,612.8125 302.5781,612.9375 302.5781,613.375 L302.5781,614.7969 C302.5781,615.2188 302.5469,615.4063 302.4375,615.5625 C302.2656,615.7813 302,615.9219 301.7344,615.9219 C301.5156,615.9219 301.2813,615.8125 301.1406,615.6719 C301,615.5469 300.9688,615.4219 300.9063,615.0156 C300.8125,614.6094 300.6406,614.3906 300.1563,614.1094 C299.6875,613.8594 299.0781,613.7031 298.5,613.7031 C296.7656,613.7031 295.5156,615.0156 295.5156,616.7969 L295.5156,617.8906 C295.5156,619.5938 296.8125,620.6875 298.8594,620.6875 C299.625,620.6875 300.3125,620.5625 300.7344,620.2969 C300.9219,620.2031 300.9219,620.2031 301.375,619.7188 C301.5625,619.5313 301.7656,619.4531 301.9844,619.4531 C302.4531,619.4531 302.8438,619.8438 302.8438,620.2969 C302.8438,620.6875 302.5156,621.1406 301.9375,621.5469 C301.1875,622.0938 300.0313,622.3906 298.8125,622.3906 C295.9219,622.3906 293.8125,620.5 293.8125,617.9219 L293.8125,616.7969 C293.8125,614.0781 295.8125,612 298.4375,612 C299.3125,612 299.9063,612.1406 300.8438,612.5781 Z "/><text fill="#000000" font-family="sans-serif" font-size="12" lengthAdjust="spacingAndGlyphs" textLength="63" x="312.5" y="621.0605">CaveMesh</text><line style="stroke: #A80036; stroke-width: 1.5;" x1="284.5" x2="377.5" y1="632.9063" y2="632.9063"/><line style="stroke: #A80036; stroke-width: 1.5;" x1="284.5" x2="377.5" y1="640.9063" y2="640.9063"/><polygon fill="#4177AF" points="294.5,647.9063,290.5,653.9063,298.5,653.9063" style="stroke: #1963A0; stroke-width: 1.0;"/><text fill="#000000" font-family="sans-serif" font-size="11" lengthAdjust="spacingAndGlyphs" textLength="46" x="303.5" y="655.1167">render()</text><!--MD5=[8bbe9e8065c6de092f5891f9e2b09215]
class in.ashwanik.pdp.template.DungeonArena--><rect fill="#FEFECE" filter="url(#f3bh1itwmdh1x)" height="112.0234" id="in.ashwanik.pdp.template.DungeonArena" style="stroke: #A80036; stroke-width: 1.5;" width="135" x="208.5" y="411.9063"/><ellipse cx="227.55" cy="427.9063" fill="#ADD1B2" rx="11" ry="11" style="stroke: #A80036; stroke-width: 1.0;"/><path d="M229.8938,423.5781 L230.0656,423.6563 C230.2844,423.3438 230.4875,423.25 230.7844,423.25 C231.0813,423.25 231.3625,423.3906 231.5188,423.6563 C231.6125,423.8125 231.6281,423.9375 231.6281,424.375 L231.6281,425.7969 C231.6281,426.2188 231.5969,426.4063 231.4875,426.5625 C231.3156,426.7813 231.05,426.9219 230.7844,426.9219 C230.5656,426.9219 230.3313,426.8125 230.1906,426.6719 C230.05,426.5469 230.0188,426.4219 229.9563,426.0156 C229.8625,425.6094 229.6906,425.3906 229.2063,425.1094 C228.7375,424.8594 228.1281,424.7031 227.55,424.7031 C225.8156,424.7031 224.5656,426.0156 224.5656,427.7969 L224.5656,428.8906 C224.5656,430.5938 225.8625,431.6875 227.9094,431.6875 C228.675,431.6875 229.3625,431.5625 229.7844,431.2969 C229.9719,431.2031 229.9719,431.2031 230.425,430.7188 C230.6125,430.5313 230.8156,430.4531 231.0344,430.4531 C231.5031,430.4531 231.8938,430.8438 231.8938,431.2969 C231.8938,431.6875 231.5656,432.1406 230.9875,432.5469 C230.2375,433.0938 229.0813,433.3906 227.8625,433.3906 C224.9719,433.3906 222.8625,431.5 222.8625,428.9219 L222.8625,427.7969 C222.8625,425.0781 224.8625,423 227.4875,423 C228.3625,423 228.9563,423.1406 229.8938,423.5781 Z "/><text fill="#000000" font-family="sans-serif" font-size="12" lengthAdjust="spacingAndGlyphs" textLength="94" x="242.45" y="432.0605">DungeonArena</text><line style="stroke: #A80036; stroke-width: 1.5;" x1="209.5" x2="342.5" y1="443.9063" y2="443.9063"/><rect fill="none" height="6" style="stroke: #C82930; stroke-width: 1.0;" width="6" x="216.5" y="451.9063"/><text fill="#000000" font-family="sans-serif" font-size="11" lengthAdjust="spacingAndGlyphs" text-decoration="underline" textLength="68" x="228.5" y="458.1167">log : Logger</text><line style="stroke: #A80036; stroke-width: 1.5;" x1="209.5" x2="342.5" y1="464.7109" y2="464.7109"/><polygon fill="#4177AF" points="219.5,471.7109,215.5,477.7109,223.5,477.7109" style="stroke: #1963A0; stroke-width: 1.0;"/><text fill="#000000" font-family="sans-serif" font-size="11" lengthAdjust="spacingAndGlyphs" textLength="91" x="228.5" y="478.9214">DungeonArena()</text><polygon fill="#4177AF" points="219.5,484.5156,215.5,490.5156,223.5,490.5156" style="stroke: #1963A0; stroke-width: 1.0;"/><text fill="#000000" font-family="sans-serif" font-size="11" lengthAdjust="spacingAndGlyphs" textLength="76" x="228.5" y="491.7261">buildTerrain()</text><polygon fill="#4177AF" points="219.5,497.3203,215.5,503.3203,223.5,503.3203" style="stroke: #1963A0; stroke-width: 1.0;"/><text fill="#000000" font-family="sans-serif" font-size="11" lengthAdjust="spacingAndGlyphs" textLength="88" x="228.5" y="504.5308">placeNemesis()</text><polygon fill="#4177AF" points="219.5,510.125,215.5,516.125,223.5,516.125" style="stroke: #1963A0; stroke-width: 1.0;"/><text fill="#000000" font-family="sans-serif" font-size="11" lengthAdjust="spacingAndGlyphs" textLength="109" x="228.5" y="517.3354">setupImmovables()</text><!--MD5=[fc8fccc443d5e5d7da2aa3fe51a8fbf4]
class in.ashwanik.pdp.template.JungleArena--><rect fill="#FEFECE" filter="url(#f3bh1itwmdh1x)" height="112.0234" id="in.ashwanik.pdp.template.JungleArena" style="stroke: #A80036; stroke-width: 1.5;" width="135" x="486.5" y="411.9063"/><ellipse cx="514.1" cy="427.9063" fill="#ADD1B2" rx="11" ry="11" style="stroke: #A80036; stroke-width: 1.0;"/><path d="M516.4438,423.5781 L516.6156,423.6563 C516.8344,423.3438 517.0375,423.25 517.3344,423.25 C517.6313,423.25 517.9125,423.3906 518.0688,423.6563 C518.1625,423.8125 518.1781,423.9375 518.1781,424.375 L518.1781,425.7969 C518.1781,426.2188 518.1469,426.4063 518.0375,426.5625 C517.8656,426.7813 517.6,426.9219 517.3344,426.9219 C517.1156,426.9219 516.8813,426.8125 516.7406,426.6719 C516.6,426.5469 516.5688,426.4219 516.5063,426.0156 C516.4125,425.6094 516.2406,425.3906 515.7563,425.1094 C515.2875,424.8594 514.6781,424.7031 514.1,424.7031 C512.3656,424.7031 511.1156,426.0156 511.1156,427.7969 L511.1156,428.8906 C511.1156,430.5938 512.4125,431.6875 514.4594,431.6875 C515.225,431.6875 515.9125,431.5625 516.3344,431.2969 C516.5219,431.2031 516.5219,431.2031 516.975,430.7188 C517.1625,430.5313 517.3656,430.4531 517.5844,430.4531 C518.0531,430.4531 518.4438,430.8438 518.4438,431.2969 C518.4438,431.6875 518.1156,432.1406 517.5375,432.5469 C516.7875,433.0938 515.6313,433.3906 514.4125,433.3906 C511.5219,433.3906 509.4125,431.5 509.4125,428.9219 L509.4125,427.7969 C509.4125,425.0781 511.4125,423 514.0375,423 C514.9125,423 515.5063,423.1406 516.4438,423.5781 Z "/><text fill="#000000" font-family="sans-serif" font-size="12" lengthAdjust="spacingAndGlyphs" textLength="75" x="530.9" y="432.0605">JungleArena</text><line style="stroke: #A80036; stroke-width: 1.5;" x1="487.5" x2="620.5" y1="443.9063" y2="443.9063"/><rect fill="none" height="6" style="stroke: #C82930; stroke-width: 1.0;" width="6" x="494.5" y="451.9063"/><text fill="#000000" font-family="sans-serif" font-size="11" lengthAdjust="spacingAndGlyphs" text-decoration="underline" textLength="68" x="506.5" y="458.1167">log : Logger</text><line style="stroke: #A80036; stroke-width: 1.5;" x1="487.5" x2="620.5" y1="464.7109" y2="464.7109"/><polygon fill="#4177AF" points="497.5,471.7109,493.5,477.7109,501.5,477.7109" style="stroke: #1963A0; stroke-width: 1.0;"/><text fill="#000000" font-family="sans-serif" font-size="11" lengthAdjust="spacingAndGlyphs" textLength="75" x="506.5" y="478.9214">JungleArena()</text><polygon fill="#4177AF" points="497.5,484.5156,493.5,490.5156,501.5,490.5156" style="stroke: #1963A0; stroke-width: 1.0;"/><text fill="#000000" font-family="sans-serif" font-size="11" lengthAdjust="spacingAndGlyphs" textLength="76" x="506.5" y="491.7261">buildTerrain()</text><polygon fill="#4177AF" points="497.5,497.3203,493.5,503.3203,501.5,503.3203" style="stroke: #1963A0; stroke-width: 1.0;"/><text fill="#000000" font-family="sans-serif" font-size="11" lengthAdjust="spacingAndGlyphs" textLength="88" x="506.5" y="504.5308">placeNemesis()</text><polygon fill="#4177AF" points="497.5,510.125,493.5,516.125,501.5,516.125" style="stroke: #1963A0; stroke-width: 1.0;"/><text fill="#000000" font-family="sans-serif" font-size="11" lengthAdjust="spacingAndGlyphs" textLength="109" x="506.5" y="517.3354">setupImmovables()</text><!--MD5=[e82601084df89b0ba8d7d2c1a57b8e3e]
class in.ashwanik.pdp.template.Mesh--><rect fill="#FEFECE" filter="url(#f3bh1itwmdh1x)" height="60.8047" id="in.ashwanik.pdp.template.Mesh" style="stroke: #A80036; stroke-width: 1.5;" width="72" x="379" y="437.4063"/><ellipse cx="397.6" cy="453.4063" fill="#A9DCDF" rx="11" ry="11" style="stroke: #A80036; stroke-width: 1.0;"/><path d="M399.1781,455.2188 L395.1313,455.2188 L394.7406,456.2031 L395.1313,456.2031 C395.5844,456.2031 395.725,456.2344 395.8969,456.3594 C396.1156,456.5313 396.2406,456.7813 396.2406,457.0625 C396.2406,457.3438 396.1,457.6406 395.8344,457.7813 C395.7094,457.875 395.4906,457.9063 395.1313,457.9063 L392.8656,457.9063 C392.1156,457.9063 391.7406,457.625 391.7406,457.0625 C391.7406,456.7656 391.8969,456.4844 392.1469,456.3281 C392.3031,456.2188 392.4594,456.2031 392.8813,456.2031 L395.5219,449.6875 L394.4438,449.6875 C394.0063,449.6875 393.8344,449.6563 393.6625,449.5469 C393.4438,449.375 393.3031,449.125 393.3031,448.8438 C393.3031,448.5625 393.4594,448.2813 393.7094,448.1094 C393.8656,448.0156 393.9906,448 394.4438,448 L398.1156,448 L401.5063,456.2031 C401.975,456.2031 402.1313,456.2344 402.3031,456.375 C402.5219,456.5313 402.6625,456.7813 402.6625,457.0625 C402.6625,457.3438 402.5063,457.6406 402.2563,457.7813 C402.1156,457.875 401.8969,457.9063 401.5375,457.9063 L399.1781,457.9063 C398.7563,457.9063 398.5531,457.8594 398.4125,457.7344 C398.1938,457.5781 398.0531,457.3281 398.0531,457.0625 C398.0531,456.7656 398.2094,456.4844 398.4594,456.3281 C398.6156,456.2188 398.725,456.2031 399.1781,456.2031 L399.5688,456.2031 Z M398.475,453.5156 L397.1469,450.25 L395.8031,453.5156 Z "/><text fill="#000000" font-family="sans-serif" font-size="12" font-style="italic" lengthAdjust="spacingAndGlyphs" textLength="32" x="412.4" y="457.5605">Mesh</text><line style="stroke: #A80036; stroke-width: 1.5;" x1="380" x2="450" y1="469.4063" y2="469.4063"/><line style="stroke: #A80036; stroke-width: 1.5;" x1="380" x2="450" y1="477.4063" y2="477.4063"/><polygon fill="#4177AF" points="390,484.4063,386,490.4063,394,490.4063" style="stroke: #1963A0; stroke-width: 1.0;"/><text fill="#000000" font-family="sans-serif" font-size="11" font-style="italic" lengthAdjust="spacingAndGlyphs" textLength="46" x="399" y="491.6167">render()</text><!--MD5=[a416b8b6784abd055cdfcce9f1bdc7ce]
class in.ashwanik.pdp.template.TreeMesh--><rect fill="#FEFECE" filter="url(#f3bh1itwmdh1x)" height="60.8047" id="in.ashwanik.pdp.template.TreeMesh" style="stroke: #A80036; stroke-width: 1.5;" width="93" x="426.5" y="600.9063"/><ellipse cx="441.5" cy="616.9063" fill="#ADD1B2" rx="11" ry="11" style="stroke: #A80036; stroke-width: 1.0;"/><path d="M443.8438,612.5781 L444.0156,612.6563 C444.2344,612.3438 444.4375,612.25 444.7344,612.25 C445.0313,612.25 445.3125,612.3906 445.4688,612.6563 C445.5625,612.8125 445.5781,612.9375 445.5781,613.375 L445.5781,614.7969 C445.5781,615.2188 445.5469,615.4063 445.4375,615.5625 C445.2656,615.7813 445,615.9219 444.7344,615.9219 C444.5156,615.9219 444.2813,615.8125 444.1406,615.6719 C444,615.5469 443.9688,615.4219 443.9063,615.0156 C443.8125,614.6094 443.6406,614.3906 443.1563,614.1094 C442.6875,613.8594 442.0781,613.7031 441.5,613.7031 C439.7656,613.7031 438.5156,615.0156 438.5156,616.7969 L438.5156,617.8906 C438.5156,619.5938 439.8125,620.6875 441.8594,620.6875 C442.625,620.6875 443.3125,620.5625 443.7344,620.2969 C443.9219,620.2031 443.9219,620.2031 444.375,619.7188 C444.5625,619.5313 444.7656,619.4531 444.9844,619.4531 C445.4531,619.4531 445.8438,619.8438 445.8438,620.2969 C445.8438,620.6875 445.5156,621.1406 444.9375,621.5469 C444.1875,622.0938 443.0313,622.3906 441.8125,622.3906 C438.9219,622.3906 436.8125,620.5 436.8125,617.9219 L436.8125,616.7969 C436.8125,614.0781 438.8125,612 441.4375,612 C442.3125,612 442.9063,612.1406 443.8438,612.5781 Z "/><text fill="#000000" font-family="sans-serif" font-size="12" lengthAdjust="spacingAndGlyphs" textLength="61" x="455.5" y="621.0605">TreeMesh</text><line style="stroke: #A80036; stroke-width: 1.5;" x1="427.5" x2="518.5" y1="632.9063" y2="632.9063"/><line style="stroke: #A80036; stroke-width: 1.5;" x1="427.5" x2="518.5" y1="640.9063" y2="640.9063"/><polygon fill="#4177AF" points="437.5,647.9063,433.5,653.9063,441.5,653.9063" style="stroke: #1963A0; stroke-width: 1.0;"/><text fill="#000000" font-family="sans-serif" font-size="11" lengthAdjust="spacingAndGlyphs" textLength="46" x="446.5" y="655.1167">render()</text><!--MD5=[73c2c707ee189e32414266a9f1d7a1f5]
reverse link in.ashwanik.pdp.template.App to in.ashwanik.pdp.template.Arena--><path d="M276,188.2093 C276,208.3703 276,231.6303 276,251.7263 " fill="none" id="in.ashwanik.pdp.template.App&lt;-in.ashwanik.pdp.template.Arena" style="stroke: #A80036; stroke-width: 1.0;"/><polygon fill="#FFFFFF" points="276,175.1503,272,181.1503,276,187.1503,280,181.1503,276,175.1503" style="stroke: #A80036; stroke-width: 1.0;"/><text fill="#000000" font-family="sans-serif" font-size="13" lengthAdjust="spacingAndGlyphs" textLength="37" x="277" y="217.9731">arena</text><!--MD5=[7a1bd1cfabecc8043344ae53d2a43175]
reverse link in.ashwanik.pdp.template.Arena to in.ashwanik.pdp.template.CastleArena--><path d="M210.955,365.3473 C192.852,382.8643 173.47,401.6193 156.351,418.1843 " fill="none" id="in.ashwanik.pdp.template.Arena&lt;-in.ashwanik.pdp.template.CastleArena" style="stroke: #A80036; stroke-width: 1.0;"/><polygon fill="none" points="206.214,360.1933,225.455,351.3163,215.95,370.2543,206.214,360.1933" style="stroke: #A80036; stroke-width: 1.0;"/><!--MD5=[a12fecbf912cc8faa10b38aa5ab64dbf]
reverse link in.ashwanik.pdp.template.CastleArena to in.ashwanik.pdp.template.CastleMesh--><path d="M130.255,530.1123 C139.793,554.1793 150.307,580.7123 158.124,600.4389 " fill="none" id="in.ashwanik.pdp.template.CastleArena&lt;-in.ashwanik.pdp.template.CastleMesh" style="stroke: #A80036; stroke-width: 1.0;"/><polygon fill="#FFFFFF" points="125.376,517.8003,123.8681,524.8519,129.7974,528.956,131.3053,521.9043,125.376,517.8003" style="stroke: #A80036; stroke-width: 1.0;"/><text fill="#000000" font-family="sans-serif" font-size="13" lengthAdjust="spacingAndGlyphs" textLength="36" x="147" y="566.9731">mesh</text><!--MD5=[bc88210f53f961da48cfaa8c910f7921]
reverse link in.ashwanik.pdp.template.Mesh to in.ashwanik.pdp.template.CastleMesh--><path d="M383.843,515.2693 C375.635,527.7343 366.875,541.2643 359,553.9063 C354.365,561.3463 355.816,565.3943 349,570.9063 C343.828,575.0893 273.098,597.9358 222.122,614.0667 " fill="none" id="in.ashwanik.pdp.template.Mesh&lt;-in.ashwanik.pdp.template.CastleMesh" style="stroke: #A80036; stroke-width: 1.0;"/><polygon fill="none" points="378.038,511.3573,394.93,498.5633,389.703,519.0983,378.038,511.3573" style="stroke: #A80036; stroke-width: 1.0;"/><!--MD5=[3575577a629759fdd53456619c9fe0a8]
reverse link in.ashwanik.pdp.template.Mesh to in.ashwanik.pdp.template.CaveMesh--><path d="M391.088,516.3453 C382.334,533.5703 372.296,553.1563 363,570.9063 C357.885,580.6733 352.212,591.2893 347.08,600.815 " fill="none" id="in.ashwanik.pdp.template.Mesh&lt;-in.ashwanik.pdp.template.CaveMesh" style="stroke: #A80036; stroke-width: 1.0;"/><polygon fill="none" points="384.869,513.1313,400.152,498.4543,397.358,519.4583,384.869,513.1313" style="stroke: #A80036; stroke-width: 1.0;"/><!--MD5=[b32b0ef21e75e063bcaf2af4dfbe03f9]
reverse link in.ashwanik.pdp.template.Arena to in.ashwanik.pdp.template.DungeonArena--><path d="M276,371.7533 C276,385.1383 276,398.9893 276,411.8433 " fill="none" id="in.ashwanik.pdp.template.Arena&lt;-in.ashwanik.pdp.template.DungeonArena" style="stroke: #A80036; stroke-width: 1.0;"/><polygon fill="none" points="269,371.3163,276,351.3163,283,371.3163,269,371.3163" style="stroke: #A80036; stroke-width: 1.0;"/><!--MD5=[b172e12381e99ed518e510e106a0bc8c]
reverse link in.ashwanik.pdp.template.DungeonArena to in.ashwanik.pdp.template.CaveMesh--><path d="M298.969,536.3512 C306.637,558.8683 314.789,582.8043 320.95,600.8948 " fill="none" id="in.ashwanik.pdp.template.DungeonArena&lt;-in.ashwanik.pdp.template.CaveMesh" style="stroke: #A80036; stroke-width: 1.0;"/><polygon fill="#FFFFFF" points="294.774,524.0333,292.9214,531.0023,298.6418,535.3928,300.4944,528.4238,294.774,524.0333" style="stroke: #A80036; stroke-width: 1.0;"/><text fill="#000000" font-family="sans-serif" font-size="13" lengthAdjust="spacingAndGlyphs" textLength="36" x="311" y="566.9731">mesh</text><!--MD5=[99f1ebef44a3c820cbc45e5178f0e0ea]
reverse link in.ashwanik.pdp.template.Arena to in.ashwanik.pdp.template.JungleArena--><path d="M360.808,349.1173 C394.713,368.1553 433.959,390.6533 469,411.9063 C474.711,415.3703 480.599,419.0173 486.487,422.7173 " fill="none" id="in.ashwanik.pdp.template.Arena&lt;-in.ashwanik.pdp.template.JungleArena" style="stroke: #A80036; stroke-width: 1.0;"/><polygon fill="none" points="357.139,355.0853,343.1,339.2143,363.972,342.8663,357.139,355.0853" style="stroke: #A80036; stroke-width: 1.0;"/><!--MD5=[df3a82bf4f740ac016a16638c4689617]
reverse link in.ashwanik.pdp.template.JungleArena to in.ashwanik.pdp.template.TreeMesh--><path d="M520.487,535.7262 C509.102,558.4243 496.959,582.6373 487.801,600.8948 " fill="none" id="in.ashwanik.pdp.template.JungleArena&lt;-in.ashwanik.pdp.template.TreeMesh" style="stroke: #A80036; stroke-width: 1.0;"/><polygon fill="#FFFFFF" points="526.351,524.0333,520.0854,527.603,520.9707,534.7595,527.2363,531.1898,526.351,524.0333" style="stroke: #A80036; stroke-width: 1.0;"/><text fill="#000000" font-family="sans-serif" font-size="13" lengthAdjust="spacingAndGlyphs" textLength="36" x="512" y="566.9731">mesh</text><!--MD5=[5cfef390fdab2af9592028c7feef4c17]
reverse link in.ashwanik.pdp.template.Mesh to in.ashwanik.pdp.template.TreeMesh--><path d="M432.429,517.4373 C442.16,544.5313 453.969,577.4143 462.331,600.6995 " fill="none" id="in.ashwanik.pdp.template.Mesh&lt;-in.ashwanik.pdp.template.TreeMesh" style="stroke: #A80036; stroke-width: 1.0;"/><polygon fill="none" points="425.81,519.7173,425.638,498.5283,438.986,514.9853,425.81,519.7173" style="stroke: #A80036; stroke-width: 1.0;"/><!--MD5=[866fe9c91119d24a014258d4f5c1c529]
@startuml
title __TEMPLATE__\n

  namespace in.ashwanik.pdp.template {
    class in.ashwanik.pdp.template.App {
        + getArena()
        ~ App()
    }
  }
  

  namespace in.ashwanik.pdp.template {
    abstract class in.ashwanik.pdp.template.Arena {
        ~ build()
        {abstract} ~ buildTerrain()
        {abstract} ~ placeNemesis()
        {abstract} ~ setupImmovables()
    }
  }
  

  namespace in.ashwanik.pdp.template {
    class in.ashwanik.pdp.template.CastleArena {
        ~ CastleArena()
        ~ buildTerrain()
        ~ placeNemesis()
        ~ setupImmovables()
    }
  }
  

  namespace in.ashwanik.pdp.template {
    class in.ashwanik.pdp.template.CastleMesh {
        ~ render()
    }
  }
  

  namespace in.ashwanik.pdp.template {
    class in.ashwanik.pdp.template.CaveMesh {
        ~ render()
    }
  }
  

  namespace in.ashwanik.pdp.template {
    class in.ashwanik.pdp.template.DungeonArena {
        {static} - log : Logger
        ~ DungeonArena()
        ~ buildTerrain()
        ~ placeNemesis()
        ~ setupImmovables()
    }
  }
  

  namespace in.ashwanik.pdp.template {
    class in.ashwanik.pdp.template.JungleArena {
        {static} - log : Logger
        ~ JungleArena()
        ~ buildTerrain()
        ~ placeNemesis()
        ~ setupImmovables()
    }
  }
  

  namespace in.ashwanik.pdp.template {
    abstract class in.ashwanik.pdp.template.Mesh {
        {abstract} ~ render()
    }
  }
  

  namespace in.ashwanik.pdp.template {
    class in.ashwanik.pdp.template.TreeMesh {
        ~ render()
    }
  }
  

  in.ashwanik.pdp.template.App o- - in.ashwanik.pdp.template.Arena : arena
  in.ashwanik.pdp.template.CastleArena -up-|> in.ashwanik.pdp.template.Arena
  in.ashwanik.pdp.template.CastleArena o- - in.ashwanik.pdp.template.CastleMesh : mesh
  in.ashwanik.pdp.template.CastleMesh -up-|> in.ashwanik.pdp.template.Mesh
  in.ashwanik.pdp.template.CaveMesh -up-|> in.ashwanik.pdp.template.Mesh
  in.ashwanik.pdp.template.DungeonArena -up-|> in.ashwanik.pdp.template.Arena
  in.ashwanik.pdp.template.DungeonArena o- - in.ashwanik.pdp.template.CaveMesh : mesh
  in.ashwanik.pdp.template.JungleArena -up-|> in.ashwanik.pdp.template.Arena
  in.ashwanik.pdp.template.JungleArena o- - in.ashwanik.pdp.template.TreeMesh : mesh
  in.ashwanik.pdp.template.TreeMesh -up-|> in.ashwanik.pdp.template.Mesh
@enduml

PlantUML version 1.2019.11(Sun Sep 22 10:02:15 UTC 2019)
(GPL source distribution)
Java Runtime: Java(TM) SE Runtime Environment
JVM: Java HotSpot(TM) 64-Bit Server VM
Java Version: 1.7.0_25-b15
Operating System: Linux
Default Encoding: UTF-8
Language: en
Country: US
--></g></svg>