<?xml version="1.0" encoding="UTF-8" standalone="no"?>
<svg xmlns="http://www.w3.org/2000/svg" xmlns:xlink="http://www.w3.org/1999/xlink" contentScriptType="application/ecmascript" contentStyleType="text/css" height="373px" preserveAspectRatio="none" style="width:569px;height:373px;" version="1.1" viewBox="0 0 569 373" width="569px" zoomAndPan="magnify"><defs><filter height="300%" id="f12lnhsg60z41r" width="300%" x="-1" y="-1"><feGaussianBlur result="blurOut" stdDeviation="2.0"/><feColorMatrix in="blurOut" result="blurOut2" type="matrix" values="0 0 0 0 0 0 0 0 0 0 0 0 0 0 0 0 0 0 .4 0"/><feOffset dx="4.0" dy="4.0" in="blurOut2" result="blurOut3"/><feBlend in="SourceGraphic" in2="blurOut3" mode="normal"/></filter></defs><g><text fill="#000000" font-family="sans-serif" font-size="18" lengthAdjust="spacingAndGlyphs" text-decoration="underline" textLength="119" x="231" y="16.708">TRAMPOLINE</text><text fill="#000000" font-family="sans-serif" font-size="18" lengthAdjust="spacingAndGlyphs" textLength="0" x="293.5" y="37.6611"/><!--MD5=[2ebaf758e8654204d621b17ab31941d4]
cluster in.ashwanik.pdp.trampoline--><polygon fill="#FFFFFF" filter="url(#f12lnhsg60z41r)" points="22,65.9063,245,65.9063,252,88.2031,547,88.2031,547,361.9063,22,361.9063,22,65.9063" style="stroke: #000000; stroke-width: 1.5;"/><line style="stroke: #000000; stroke-width: 1.5;" x1="22" x2="252" y1="88.2031" y2="88.2031"/><text fill="#000000" font-family="sans-serif" font-size="14" font-weight="bold" lengthAdjust="spacingAndGlyphs" textLength="217" x="26" y="80.9014">in.ashwanik.pdp.trampoline</text><!--MD5=[52544504bbda5f05bc85baea38b59a70]
class in.ashwanik.pdp.trampoline.App--><rect fill="#FEFECE" filter="url(#f12lnhsg60z41r)" height="73.6094" id="in.ashwanik.pdp.trampoline.App" style="stroke: #A80036; stroke-width: 1.5;" width="196" x="75" y="106.9063"/><ellipse cx="156.75" cy="122.9063" fill="#ADD1B2" rx="11" ry="11" style="stroke: #A80036; stroke-width: 1.0;"/><path d="M159.0938,118.5781 L159.2656,118.6563 C159.4844,118.3438 159.6875,118.25 159.9844,118.25 C160.2813,118.25 160.5625,118.3906 160.7188,118.6563 C160.8125,118.8125 160.8281,118.9375 160.8281,119.375 L160.8281,120.7969 C160.8281,121.2188 160.7969,121.4063 160.6875,121.5625 C160.5156,121.7813 160.25,121.9219 159.9844,121.9219 C159.7656,121.9219 159.5313,121.8125 159.3906,121.6719 C159.25,121.5469 159.2188,121.4219 159.1563,121.0156 C159.0625,120.6094 158.8906,120.3906 158.4063,120.1094 C157.9375,119.8594 157.3281,119.7031 156.75,119.7031 C155.0156,119.7031 153.7656,121.0156 153.7656,122.7969 L153.7656,123.8906 C153.7656,125.5938 155.0625,126.6875 157.1094,126.6875 C157.875,126.6875 158.5625,126.5625 158.9844,126.2969 C159.1719,126.2031 159.1719,126.2031 159.625,125.7188 C159.8125,125.5313 160.0156,125.4531 160.2344,125.4531 C160.7031,125.4531 161.0938,125.8438 161.0938,126.2969 C161.0938,126.6875 160.7656,127.1406 160.1875,127.5469 C159.4375,128.0938 158.2813,128.3906 157.0625,128.3906 C154.1719,128.3906 152.0625,126.5 152.0625,123.9219 L152.0625,122.7969 C152.0625,120.0781 154.0625,118 156.6875,118 C157.5625,118 158.1563,118.1406 159.0938,118.5781 Z "/><text fill="#000000" font-family="sans-serif" font-size="12" lengthAdjust="spacingAndGlyphs" textLength="24" x="177.25" y="127.0605">App</text><line style="stroke: #A80036; stroke-width: 1.5;" x1="76" x2="270" y1="138.9063" y2="138.9063"/><line style="stroke: #A80036; stroke-width: 1.5;" x1="76" x2="270" y1="146.9063" y2="146.9063"/><polygon fill="#4177AF" points="86,153.9063,82,159.9063,90,159.9063" style="stroke: #1963A0; stroke-width: 1.0;"/><text fill="#000000" font-family="sans-serif" font-size="11" lengthAdjust="spacingAndGlyphs" textLength="161" x="95" y="161.1167">calculateFactorialRecursive()</text><polygon fill="#4177AF" points="86,166.7109,82,172.7109,90,172.7109" style="stroke: #1963A0; stroke-width: 1.0;"/><text fill="#000000" font-family="sans-serif" font-size="11" lengthAdjust="spacingAndGlyphs" textLength="170" x="95" y="173.9214">calculateFactorialTrampoline()</text><!--MD5=[ced6b31d0007a23670e895e3ae24c3a3]
class in.ashwanik.pdp.trampoline.BaseFactorialTrampoline--><rect fill="#FEFECE" filter="url(#f12lnhsg60z41r)" height="99.2188" id="in.ashwanik.pdp.trampoline.BaseFactorialTrampoline" style="stroke: #A80036; stroke-width: 1.5;" width="186" x="38" y="246.9063"/><ellipse cx="53" cy="262.9063" fill="#ADD1B2" rx="11" ry="11" style="stroke: #A80036; stroke-width: 1.0;"/><path d="M55.3438,258.5781 L55.5156,258.6563 C55.7344,258.3438 55.9375,258.25 56.2344,258.25 C56.5313,258.25 56.8125,258.3906 56.9688,258.6563 C57.0625,258.8125 57.0781,258.9375 57.0781,259.375 L57.0781,260.7969 C57.0781,261.2188 57.0469,261.4063 56.9375,261.5625 C56.7656,261.7813 56.5,261.9219 56.2344,261.9219 C56.0156,261.9219 55.7813,261.8125 55.6406,261.6719 C55.5,261.5469 55.4688,261.4219 55.4063,261.0156 C55.3125,260.6094 55.1406,260.3906 54.6563,260.1094 C54.1875,259.8594 53.5781,259.7031 53,259.7031 C51.2656,259.7031 50.0156,261.0156 50.0156,262.7969 L50.0156,263.8906 C50.0156,265.5938 51.3125,266.6875 53.3594,266.6875 C54.125,266.6875 54.8125,266.5625 55.2344,266.2969 C55.4219,266.2031 55.4219,266.2031 55.875,265.7188 C56.0625,265.5313 56.2656,265.4531 56.4844,265.4531 C56.9531,265.4531 57.3438,265.8438 57.3438,266.2969 C57.3438,266.6875 57.0156,267.1406 56.4375,267.5469 C55.6875,268.0938 54.5313,268.3906 53.3125,268.3906 C50.4219,268.3906 48.3125,266.5 48.3125,263.9219 L48.3125,262.7969 C48.3125,260.0781 50.3125,258 52.9375,258 C53.8125,258 54.4063,258.1406 55.3438,258.5781 Z "/><text fill="#000000" font-family="sans-serif" font-size="12" lengthAdjust="spacingAndGlyphs" textLength="154" x="67" y="267.0605">BaseFactorialTrampoline</text><line style="stroke: #A80036; stroke-width: 1.5;" x1="39" x2="223" y1="278.9063" y2="278.9063"/><rect fill="none" height="6" style="stroke: #C82930; stroke-width: 1.0;" width="6" x="46" y="286.9063"/><text fill="#000000" font-family="sans-serif" font-size="11" lengthAdjust="spacingAndGlyphs" textLength="105" x="58" y="293.1167">value : BigDecimal</text><line style="stroke: #A80036; stroke-width: 1.5;" x1="39" x2="223" y1="299.7109" y2="299.7109"/><ellipse cx="49" cy="310.7109" fill="#84BE84" rx="3" ry="3" style="stroke: #038048; stroke-width: 1.0;"/><text fill="#000000" font-family="sans-serif" font-size="11" lengthAdjust="spacingAndGlyphs" textLength="26" x="58" y="313.9214">get()</text><ellipse cx="49" cy="323.5156" fill="#84BE84" rx="3" ry="3" style="stroke: #038048; stroke-width: 1.0;"/><text fill="#000000" font-family="sans-serif" font-size="11" lengthAdjust="spacingAndGlyphs" textLength="32" x="58" y="326.7261">next()</text><polygon fill="#4177AF" points="49,332.3203,45,338.3203,53,338.3203" style="stroke: #1963A0; stroke-width: 1.0;"/><text fill="#000000" font-family="sans-serif" font-size="11" lengthAdjust="spacingAndGlyphs" textLength="149" x="58" y="339.5308">BaseFactorialTrampoline()</text><!--MD5=[d3f68d0773d327cbff7588b191352f00]
class in.ashwanik.pdp.trampoline.NextFactorialTrampoline--><rect fill="#FEFECE" filter="url(#f12lnhsg60z41r)" height="99.2188" id="in.ashwanik.pdp.trampoline.NextFactorialTrampoline" style="stroke: #A80036; stroke-width: 1.5;" width="272" x="259" y="246.9063"/><ellipse cx="315.25" cy="262.9063" fill="#ADD1B2" rx="11" ry="11" style="stroke: #A80036; stroke-width: 1.0;"/><path d="M317.5938,258.5781 L317.7656,258.6563 C317.9844,258.3438 318.1875,258.25 318.4844,258.25 C318.7813,258.25 319.0625,258.3906 319.2188,258.6563 C319.3125,258.8125 319.3281,258.9375 319.3281,259.375 L319.3281,260.7969 C319.3281,261.2188 319.2969,261.4063 319.1875,261.5625 C319.0156,261.7813 318.75,261.9219 318.4844,261.9219 C318.2656,261.9219 318.0313,261.8125 317.8906,261.6719 C317.75,261.5469 317.7188,261.4219 317.6563,261.0156 C317.5625,260.6094 317.3906,260.3906 316.9063,260.1094 C316.4375,259.8594 315.8281,259.7031 315.25,259.7031 C313.5156,259.7031 312.2656,261.0156 312.2656,262.7969 L312.2656,263.8906 C312.2656,265.5938 313.5625,266.6875 315.6094,266.6875 C316.375,266.6875 317.0625,266.5625 317.4844,266.2969 C317.6719,266.2031 317.6719,266.2031 318.125,265.7188 C318.3125,265.5313 318.5156,265.4531 318.7344,265.4531 C319.2031,265.4531 319.5938,265.8438 319.5938,266.2969 C319.5938,266.6875 319.2656,267.1406 318.6875,267.5469 C317.9375,268.0938 316.7813,268.3906 315.5625,268.3906 C312.6719,268.3906 310.5625,266.5 310.5625,263.9219 L310.5625,262.7969 C310.5625,260.0781 312.5625,258 315.1875,258 C316.0625,258 316.6563,258.1406 317.5938,258.5781 Z "/><text fill="#000000" font-family="sans-serif" font-size="12" lengthAdjust="spacingAndGlyphs" textLength="151" x="335.75" y="267.0605">NextFactorialTrampoline</text><line style="stroke: #A80036; stroke-width: 1.5;" x1="260" x2="530" y1="278.9063" y2="278.9063"/><rect fill="none" height="6" style="stroke: #C82930; stroke-width: 1.0;" width="6" x="267" y="286.9063"/><text fill="#000000" font-family="sans-serif" font-size="11" lengthAdjust="spacingAndGlyphs" textLength="246" x="279" y="293.1167">next : Supplier&lt;Trampoline&lt;BigDecimal&gt;&gt;</text><line style="stroke: #A80036; stroke-width: 1.5;" x1="260" x2="530" y1="299.7109" y2="299.7109"/><ellipse cx="270" cy="310.7109" fill="#84BE84" rx="3" ry="3" style="stroke: #038048; stroke-width: 1.0;"/><text fill="#000000" font-family="sans-serif" font-size="11" lengthAdjust="spacingAndGlyphs" textLength="26" x="279" y="313.9214">get()</text><ellipse cx="270" cy="323.5156" fill="#84BE84" rx="3" ry="3" style="stroke: #038048; stroke-width: 1.0;"/><text fill="#000000" font-family="sans-serif" font-size="11" lengthAdjust="spacingAndGlyphs" textLength="32" x="279" y="326.7261">next()</text><polygon fill="#4177AF" points="270,332.3203,266,338.3203,274,338.3203" style="stroke: #1963A0; stroke-width: 1.0;"/><text fill="#000000" font-family="sans-serif" font-size="11" lengthAdjust="spacingAndGlyphs" textLength="145" x="279" y="339.5308">NextFactorialTrampoline()</text><!--MD5=[30080a7a2a5564a52737fc343a3fb837]
class in.ashwanik.pdp.trampoline.Trampoline--><rect fill="#FEFECE" filter="url(#f12lnhsg60z41r)" height="86.4141" id="in.ashwanik.pdp.trampoline.Trampoline" style="stroke: #A80036; stroke-width: 1.5;" width="101" x="325.5" y="100.9063"/><ellipse cx="340.5" cy="116.9063" fill="#B4A7E5" rx="11" ry="11" style="stroke: #A80036; stroke-width: 1.0;"/><path d="M341.4531,113.6875 L341.4531,120.2031 L343.1719,120.2031 C343.625,120.2031 343.7656,120.2344 343.9375,120.3594 C344.1719,120.5313 344.2813,120.7813 344.2813,121.0625 C344.2813,121.625 343.9219,121.9063 343.1719,121.9063 L338.0313,121.9063 C337.625,121.9063 337.4219,121.8594 337.2656,121.7344 C337.0469,121.5781 336.9063,121.3125 336.9063,121.0625 C336.9063,120.7656 337.0625,120.4844 337.3125,120.3281 C337.4688,120.2188 337.5938,120.2031 338.0313,120.2031 L339.75,120.2031 L339.75,113.6875 L338.0313,113.6875 C337.6094,113.6875 337.4219,113.6563 337.2656,113.5469 C337.0469,113.375 336.9063,113.125 336.9063,112.8438 C336.9063,112.5625 337.0625,112.2656 337.3125,112.1094 C337.4688,112.0156 337.5938,112 338.0313,112 L343.1719,112 C343.625,112 343.7656,112.0313 343.9375,112.1406 C344.1719,112.3125 344.2813,112.5781 344.2813,112.8438 C344.2813,113.1406 344.1406,113.4219 343.875,113.5781 C343.75,113.6563 343.5625,113.6875 343.1719,113.6875 Z "/><text fill="#000000" font-family="sans-serif" font-size="12" font-style="italic" lengthAdjust="spacingAndGlyphs" textLength="69" x="354.5" y="121.0605">Trampoline</text><line style="stroke: #A80036; stroke-width: 1.5;" x1="326.5" x2="425.5" y1="132.9063" y2="132.9063"/><line style="stroke: #A80036; stroke-width: 1.5;" x1="326.5" x2="425.5" y1="140.9063" y2="140.9063"/><ellipse cx="336.5" cy="151.9063" fill="#84BE84" rx="3" ry="3" style="stroke: #038048; stroke-width: 1.0;"/><text fill="#000000" font-family="sans-serif" font-size="11" lengthAdjust="spacingAndGlyphs" textLength="57" x="345.5" y="155.1167">compute()</text><ellipse cx="336.5" cy="164.7109" fill="#84BE84" rx="3" ry="3" style="stroke: #038048; stroke-width: 1.0;"/><text fill="#000000" font-family="sans-serif" font-size="11" font-style="italic" lengthAdjust="spacingAndGlyphs" textLength="26" x="345.5" y="167.9214">get()</text><ellipse cx="336.5" cy="177.5156" fill="#84BE84" rx="3" ry="3" style="stroke: #038048; stroke-width: 1.0;"/><text fill="#000000" font-family="sans-serif" font-size="11" font-style="italic" lengthAdjust="spacingAndGlyphs" textLength="33" x="345.5" y="180.7261">next()</text><!--MD5=[11eea7085460a8ff1b63ed8086a5cdb9]
reverse link in.ashwanik.pdp.trampoline.Trampoline to in.ashwanik.pdp.trampoline.BaseFactorialTrampoline--><path d="M308.085,186.6253 C277.723,205.2763 241.737,227.3823 210.161,246.7783 " fill="none" id="in.ashwanik.pdp.trampoline.Trampoline&lt;-in.ashwanik.pdp.trampoline.BaseFactorialTrampoline" style="stroke: #A80036; stroke-width: 1.0; stroke-dasharray: 7.0,7.0;"/><polygon fill="none" points="304.53,180.5943,325.236,176.0903,311.858,192.5233,304.53,180.5943" style="stroke: #A80036; stroke-width: 1.0;"/><!--MD5=[3f8ac0298b65eb64012665698998bdac]
reverse link in.ashwanik.pdp.trampoline.Trampoline to in.ashwanik.pdp.trampoline.NextFactorialTrampoline--><path d="M383.872,207.2593 C385.536,220.4453 387.27,234.1753 388.859,246.7653 " fill="none" id="in.ashwanik.pdp.trampoline.Trampoline&lt;-in.ashwanik.pdp.trampoline.NextFactorialTrampoline" style="stroke: #A80036; stroke-width: 1.0; stroke-dasharray: 7.0,7.0;"/><polygon fill="none" points="376.903,207.9483,381.343,187.2293,390.793,206.1953,376.903,207.9483" style="stroke: #A80036; stroke-width: 1.0;"/><!--MD5=[1a778a8b5287b45e9019fc5871d401a2]
@startuml
title __TRAMPOLINE__\n

  namespace in.ashwanik.pdp.trampoline {
    class in.ashwanik.pdp.trampoline.App {
        ~ calculateFactorialRecursive()
        ~ calculateFactorialTrampoline()
    }
  }
  

  namespace in.ashwanik.pdp.trampoline {
    class in.ashwanik.pdp.trampoline.BaseFactorialTrampoline {
        - value : BigDecimal
        + get()
        + next()
        ~ BaseFactorialTrampoline()
    }
  }
  

  namespace in.ashwanik.pdp.trampoline {
    class in.ashwanik.pdp.trampoline.NextFactorialTrampoline {
        - next : Supplier<Trampoline<BigDecimal>>
        + get()
        + next()
        ~ NextFactorialTrampoline()
    }
  }
  

  namespace in.ashwanik.pdp.trampoline {
    interface in.ashwanik.pdp.trampoline.Trampoline {
        + compute()
        {abstract} + get()
        {abstract} + next()
    }
  }
  

  in.ashwanik.pdp.trampoline.BaseFactorialTrampoline .up.|> in.ashwanik.pdp.trampoline.Trampoline
  in.ashwanik.pdp.trampoline.NextFactorialTrampoline .up.|> in.ashwanik.pdp.trampoline.Trampoline
@enduml

PlantUML version 1.2019.10(Fri Sep 13 20:53:03 UTC 2019)
(GPL source distribution)
Java Runtime: Java(TM) SE Runtime Environment
JVM: Java HotSpot(TM) 64-Bit Server VM
Java Version: 1.7.0_25-b15
Operating System: Linux
Default Encoding: UTF-8
Language: en
Country: US
--></g></svg>