<?xml version="1.0" encoding="UTF-8" standalone="no"?>
<svg xmlns="http://www.w3.org/2000/svg" xmlns:xlink="http://www.w3.org/1999/xlink" contentScriptType="application/ecmascript" contentStyleType="text/css" height="1022px" preserveAspectRatio="none" style="width:587px;height:1022px;" version="1.1" viewBox="0 0 587 1022" width="587px" zoomAndPan="magnify"><defs><filter height="300%" id="f1neeaa9xsupc9" width="300%" x="-1" y="-1"><feGaussianBlur result="blurOut" stdDeviation="2.0"/><feColorMatrix in="blurOut" result="blurOut2" type="matrix" values="0 0 0 0 0 0 0 0 0 0 0 0 0 0 0 0 0 0 .4 0"/><feOffset dx="4.0" dy="4.0" in="blurOut2" result="blurOut3"/><feBlend in="SourceGraphic" in2="blurOut3" mode="normal"/></filter></defs><g><text fill="#000000" font-family="sans-serif" font-size="18" lengthAdjust="spacingAndGlyphs" text-decoration="underline" textLength="146" x="226.5" y="16.708">UNIT_OF_WORK</text><text fill="#000000" font-family="sans-serif" font-size="18" lengthAdjust="spacingAndGlyphs" textLength="0" x="302.5" y="37.6611"/><!--MD5=[b37bcaaed94d9aecee0c8eb4a1533ba1]
cluster in.ashwanik.pdp.unit_of_work--><polygon fill="#FFFFFF" filter="url(#f1neeaa9xsupc9)" points="22,65.9063,261,65.9063,268,88.2031,565,88.2031,565,1010.9063,22,1010.9063,22,65.9063" style="stroke: #000000; stroke-width: 1.5;"/><line style="stroke: #000000; stroke-width: 1.5;" x1="22" x2="268" y1="88.2031" y2="88.2031"/><text fill="#000000" font-family="sans-serif" font-size="14" font-weight="bold" lengthAdjust="spacingAndGlyphs" textLength="233" x="26" y="80.9014">in.ashwanik.pdp.unit_of_work</text><!--MD5=[918d1603da6e858e25ee96619ca88f41]
class in.ashwanik.pdp.unit_of_work.DbContext--><rect fill="#FEFECE" filter="url(#f1neeaa9xsupc9)" height="99.2188" id="in.ashwanik.pdp.unit_of_work.DbContext" style="stroke: #A80036; stroke-width: 1.5;" width="298" x="251" y="649.4063"/><ellipse cx="363.25" cy="665.4063" fill="#ADD1B2" rx="11" ry="11" style="stroke: #A80036; stroke-width: 1.0;"/><path d="M365.5938,661.0781 L365.7656,661.1563 C365.9844,660.8438 366.1875,660.75 366.4844,660.75 C366.7813,660.75 367.0625,660.8906 367.2188,661.1563 C367.3125,661.3125 367.3281,661.4375 367.3281,661.875 L367.3281,663.2969 C367.3281,663.7188 367.2969,663.9063 367.1875,664.0625 C367.0156,664.2813 366.75,664.4219 366.4844,664.4219 C366.2656,664.4219 366.0313,664.3125 365.8906,664.1719 C365.75,664.0469 365.7188,663.9219 365.6563,663.5156 C365.5625,663.1094 365.3906,662.8906 364.9063,662.6094 C364.4375,662.3594 363.8281,662.2031 363.25,662.2031 C361.5156,662.2031 360.2656,663.5156 360.2656,665.2969 L360.2656,666.3906 C360.2656,668.0938 361.5625,669.1875 363.6094,669.1875 C364.375,669.1875 365.0625,669.0625 365.4844,668.7969 C365.6719,668.7031 365.6719,668.7031 366.125,668.2188 C366.3125,668.0313 366.5156,667.9531 366.7344,667.9531 C367.2031,667.9531 367.5938,668.3438 367.5938,668.7969 C367.5938,669.1875 367.2656,669.6406 366.6875,670.0469 C365.9375,670.5938 364.7813,670.8906 363.5625,670.8906 C360.6719,670.8906 358.5625,669 358.5625,666.4219 L358.5625,665.2969 C358.5625,662.5781 360.5625,660.5 363.1875,660.5 C364.0625,660.5 364.6563,660.6406 365.5938,661.0781 Z "/><text fill="#000000" font-family="sans-serif" font-size="12" lengthAdjust="spacingAndGlyphs" textLength="65" x="383.75" y="669.5605">DbContext</text><line style="stroke: #A80036; stroke-width: 1.5;" x1="252" x2="548" y1="681.4063" y2="681.4063"/><rect fill="none" height="6" style="stroke: #C82930; stroke-width: 1.0;" width="6" x="259" y="689.4063"/><text fill="#000000" font-family="sans-serif" font-size="11" lengthAdjust="spacingAndGlyphs" textLength="272" x="271" y="695.6167">entities : EnumMap&lt;Operation, List&lt;Product&gt;&gt;</text><line style="stroke: #A80036; stroke-width: 1.5;" x1="252" x2="548" y1="702.2109" y2="702.2109"/><polygon fill="#4177AF" points="262,709.2109,258,715.2109,266,715.2109" style="stroke: #1963A0; stroke-width: 1.0;"/><text fill="#000000" font-family="sans-serif" font-size="11" lengthAdjust="spacingAndGlyphs" textLength="66" x="271" y="716.4214">DbContext()</text><polygon fill="#4177AF" points="262,722.0156,258,728.0156,266,728.0156" style="stroke: #1963A0; stroke-width: 1.0;"/><text fill="#000000" font-family="sans-serif" font-size="11" lengthAdjust="spacingAndGlyphs" textLength="50" x="271" y="729.2261">commit()</text><polygon fill="#4177AF" points="262,734.8203,258,740.8203,266,740.8203" style="stroke: #1963A0; stroke-width: 1.0;"/><text fill="#000000" font-family="sans-serif" font-size="11" lengthAdjust="spacingAndGlyphs" textLength="53" x="271" y="742.0308">register()</text><!--MD5=[e4f0334b8daff4f9c7a031fc7e76a4e2]
class in.ashwanik.pdp.unit_of_work.Entity--><rect fill="#FEFECE" filter="url(#f1neeaa9xsupc9)" height="201.6563" id="in.ashwanik.pdp.unit_of_work.Entity" style="stroke: #A80036; stroke-width: 1.5;" width="181" x="167.5" y="100.9063"/><ellipse cx="236.25" cy="116.9063" fill="#ADD1B2" rx="11" ry="11" style="stroke: #A80036; stroke-width: 1.0;"/><path d="M238.5938,112.5781 L238.7656,112.6563 C238.9844,112.3438 239.1875,112.25 239.4844,112.25 C239.7813,112.25 240.0625,112.3906 240.2188,112.6563 C240.3125,112.8125 240.3281,112.9375 240.3281,113.375 L240.3281,114.7969 C240.3281,115.2188 240.2969,115.4063 240.1875,115.5625 C240.0156,115.7813 239.75,115.9219 239.4844,115.9219 C239.2656,115.9219 239.0313,115.8125 238.8906,115.6719 C238.75,115.5469 238.7188,115.4219 238.6563,115.0156 C238.5625,114.6094 238.3906,114.3906 237.9063,114.1094 C237.4375,113.8594 236.8281,113.7031 236.25,113.7031 C234.5156,113.7031 233.2656,115.0156 233.2656,116.7969 L233.2656,117.8906 C233.2656,119.5938 234.5625,120.6875 236.6094,120.6875 C237.375,120.6875 238.0625,120.5625 238.4844,120.2969 C238.6719,120.2031 238.6719,120.2031 239.125,119.7188 C239.3125,119.5313 239.5156,119.4531 239.7344,119.4531 C240.2031,119.4531 240.5938,119.8438 240.5938,120.2969 C240.5938,120.6875 240.2656,121.1406 239.6875,121.5469 C238.9375,122.0938 237.7813,122.3906 236.5625,122.3906 C233.6719,122.3906 231.5625,120.5 231.5625,117.9219 L231.5625,116.7969 C231.5625,114.0781 233.5625,112 236.1875,112 C237.0625,112 237.6563,112.1406 238.5938,112.5781 Z "/><text fill="#000000" font-family="sans-serif" font-size="12" lengthAdjust="spacingAndGlyphs" textLength="35" x="256.75" y="121.0605">Entity</text><line style="stroke: #A80036; stroke-width: 1.5;" x1="168.5" x2="347.5" y1="132.9063" y2="132.9063"/><rect fill="none" height="6" style="stroke: #C82930; stroke-width: 1.0;" width="6" x="175.5" y="140.9063"/><text fill="#000000" font-family="sans-serif" font-size="11" lengthAdjust="spacingAndGlyphs" textLength="149" x="187.5" y="147.1167">createdAt : LocalDateTime</text><rect fill="none" height="6" style="stroke: #C82930; stroke-width: 1.0;" width="6" x="175.5" y="153.7109"/><text fill="#000000" font-family="sans-serif" font-size="11" lengthAdjust="spacingAndGlyphs" textLength="56" x="187.5" y="159.9214">id : String</text><rect fill="none" height="6" style="stroke: #C82930; stroke-width: 1.0;" width="6" x="175.5" y="166.5156"/><text fill="#000000" font-family="sans-serif" font-size="11" lengthAdjust="spacingAndGlyphs" textLength="155" x="187.5" y="172.7261">modifiedAt : LocalDateTime</text><line style="stroke: #A80036; stroke-width: 1.5;" x1="168.5" x2="347.5" y1="179.3203" y2="179.3203"/><ellipse cx="178.5" cy="190.3203" fill="#84BE84" rx="3" ry="3" style="stroke: #038048; stroke-width: 1.0;"/><text fill="#000000" font-family="sans-serif" font-size="11" lengthAdjust="spacingAndGlyphs" textLength="46" x="187.5" y="193.5308">equals()</text><ellipse cx="178.5" cy="203.125" fill="#84BE84" rx="3" ry="3" style="stroke: #038048; stroke-width: 1.0;"/><text fill="#000000" font-family="sans-serif" font-size="11" lengthAdjust="spacingAndGlyphs" textLength="82" x="187.5" y="206.3354">getCreatedAt()</text><ellipse cx="178.5" cy="215.9297" fill="#84BE84" rx="3" ry="3" style="stroke: #038048; stroke-width: 1.0;"/><text fill="#000000" font-family="sans-serif" font-size="11" lengthAdjust="spacingAndGlyphs" textLength="36" x="187.5" y="219.1401">getId()</text><ellipse cx="178.5" cy="228.7344" fill="#84BE84" rx="3" ry="3" style="stroke: #038048; stroke-width: 1.0;"/><text fill="#000000" font-family="sans-serif" font-size="11" lengthAdjust="spacingAndGlyphs" textLength="84" x="187.5" y="231.9448">getModifiedAt()</text><ellipse cx="178.5" cy="241.5391" fill="#84BE84" rx="3" ry="3" style="stroke: #038048; stroke-width: 1.0;"/><text fill="#000000" font-family="sans-serif" font-size="11" lengthAdjust="spacingAndGlyphs" textLength="65" x="187.5" y="244.7495">hashCode()</text><ellipse cx="178.5" cy="254.3438" fill="#84BE84" rx="3" ry="3" style="stroke: #038048; stroke-width: 1.0;"/><text fill="#000000" font-family="sans-serif" font-size="11" lengthAdjust="spacingAndGlyphs" textLength="82" x="187.5" y="257.5542">setCreatedAt()</text><ellipse cx="178.5" cy="267.1484" fill="#84BE84" rx="3" ry="3" style="stroke: #038048; stroke-width: 1.0;"/><text fill="#000000" font-family="sans-serif" font-size="11" lengthAdjust="spacingAndGlyphs" textLength="36" x="187.5" y="270.3589">setId()</text><ellipse cx="178.5" cy="279.9531" fill="#84BE84" rx="3" ry="3" style="stroke: #038048; stroke-width: 1.0;"/><text fill="#000000" font-family="sans-serif" font-size="11" lengthAdjust="spacingAndGlyphs" textLength="84" x="187.5" y="283.1636">setModifiedAt()</text><polygon fill="#FFFF44" points="178.5,287.7578,182.5,291.7578,178.5,295.7578,174.5,291.7578" style="stroke: #B38D22; stroke-width: 1.0;"/><text fill="#000000" font-family="sans-serif" font-size="11" lengthAdjust="spacingAndGlyphs" textLength="59" x="187.5" y="295.9683">canEqual()</text><!--MD5=[1b7ef7b1663390172cf3231d9f171204]
class in.ashwanik.pdp.unit_of_work.Operation--><rect fill="#FEFECE" filter="url(#f1neeaa9xsupc9)" height="86.4141" id="in.ashwanik.pdp.unit_of_work.Operation" style="stroke: #A80036; stroke-width: 1.5;" width="94" x="38" y="158.9063"/><ellipse cx="53" cy="174.9063" fill="#EB937F" rx="11" ry="11" style="stroke: #A80036; stroke-width: 1.0;"/><path d="M51.2969,175.7813 L51.2969,178.2031 L55.6563,178.2031 L55.6563,177.3281 C55.6563,176.8438 55.6875,176.7031 55.7969,176.5469 C55.9688,176.2969 56.2344,176.1875 56.5,176.1875 C56.7813,176.1875 57.0625,176.3438 57.2344,176.5938 C57.3125,176.75 57.3438,176.8906 57.3438,177.3281 L57.3438,179.9063 L49.3438,179.9063 C48.9531,179.9063 48.7188,179.8594 48.5781,179.7344 C48.3594,179.5781 48.2188,179.3281 48.2188,179.0625 C48.2188,178.7656 48.375,178.5 48.625,178.3281 C48.7813,178.2188 48.9375,178.2031 49.3438,178.2031 L49.5938,178.2031 L49.5938,171.6875 L49.3438,171.6875 C48.9219,171.6875 48.7344,171.6563 48.5781,171.5469 C48.3594,171.375 48.2188,171.125 48.2188,170.8438 C48.2188,170.5625 48.375,170.2656 48.625,170.1094 C48.7813,170.0156 48.9063,170 49.3438,170 L56.9688,170 L56.9688,172.5469 C56.9688,173.0156 56.9375,173.1563 56.8281,173.3281 C56.6563,173.5469 56.3906,173.6875 56.125,173.6875 C55.8438,173.6875 55.5625,173.5313 55.3906,173.2813 C55.3125,173.125 55.2813,172.9531 55.2813,172.5469 L55.2813,171.6875 L51.2969,171.6875 L51.2969,174.0938 L52.75,174.0938 L52.75,173.9688 C52.75,173.5156 52.7813,173.3594 52.8906,173.1875 C53.0625,172.9688 53.3281,172.8281 53.5781,172.8281 C54.0313,172.8281 54.3438,173.1406 54.4063,173.6094 C54.4219,173.7656 54.4219,173.8125 54.4219,173.9688 L54.4219,175.8906 C54.4219,176.3438 54.3906,176.5 54.2656,176.6563 C54.1094,176.875 53.8438,177.0156 53.5938,177.0156 C53.2969,177.0156 53.0156,176.8594 52.8594,176.6094 C52.7813,176.4531 52.75,176.2969 52.75,175.8906 L52.75,175.7813 Z "/><text fill="#000000" font-family="sans-serif" font-size="12" lengthAdjust="spacingAndGlyphs" textLength="62" x="67" y="179.0605">Operation</text><line style="stroke: #A80036; stroke-width: 1.5;" x1="39" x2="131" y1="190.9063" y2="190.9063"/><text fill="#000000" font-family="sans-serif" font-size="11" lengthAdjust="spacingAndGlyphs" textLength="42" x="44" y="205.1167">DELETE</text><text fill="#000000" font-family="sans-serif" font-size="11" lengthAdjust="spacingAndGlyphs" textLength="40" x="44" y="217.9214">INSERT</text><text fill="#000000" font-family="sans-serif" font-size="11" lengthAdjust="spacingAndGlyphs" textLength="44" x="44" y="230.7261">UPDATE</text><line style="stroke: #A80036; stroke-width: 1.5;" x1="39" x2="131" y1="237.3203" y2="237.3203"/><!--MD5=[e83d673252da54b0f2f7f4891e8e9f35]
class in.ashwanik.pdp.unit_of_work.Product--><rect fill="#FEFECE" filter="url(#f1neeaa9xsupc9)" height="188.8516" id="in.ashwanik.pdp.unit_of_work.Product" style="stroke: #A80036; stroke-width: 1.5;" width="104" x="124" y="363.9063"/><ellipse cx="149.35" cy="379.9063" fill="#ADD1B2" rx="11" ry="11" style="stroke: #A80036; stroke-width: 1.0;"/><path d="M151.6938,375.5781 L151.8656,375.6563 C152.0844,375.3438 152.2875,375.25 152.5844,375.25 C152.8813,375.25 153.1625,375.3906 153.3188,375.6563 C153.4125,375.8125 153.4281,375.9375 153.4281,376.375 L153.4281,377.7969 C153.4281,378.2188 153.3969,378.4063 153.2875,378.5625 C153.1156,378.7813 152.85,378.9219 152.5844,378.9219 C152.3656,378.9219 152.1313,378.8125 151.9906,378.6719 C151.85,378.5469 151.8188,378.4219 151.7563,378.0156 C151.6625,377.6094 151.4906,377.3906 151.0063,377.1094 C150.5375,376.8594 149.9281,376.7031 149.35,376.7031 C147.6156,376.7031 146.3656,378.0156 146.3656,379.7969 L146.3656,380.8906 C146.3656,382.5938 147.6625,383.6875 149.7094,383.6875 C150.475,383.6875 151.1625,383.5625 151.5844,383.2969 C151.7719,383.2031 151.7719,383.2031 152.225,382.7188 C152.4125,382.5313 152.6156,382.4531 152.8344,382.4531 C153.3031,382.4531 153.6938,382.8438 153.6938,383.2969 C153.6938,383.6875 153.3656,384.1406 152.7875,384.5469 C152.0375,385.0938 150.8813,385.3906 149.6625,385.3906 C146.7719,385.3906 144.6625,383.5 144.6625,380.9219 L144.6625,379.7969 C144.6625,377.0781 146.6625,375 149.2875,375 C150.1625,375 150.7563,375.1406 151.6938,375.5781 Z "/><text fill="#000000" font-family="sans-serif" font-size="12" lengthAdjust="spacingAndGlyphs" textLength="49" x="165.65" y="384.0605">Product</text><line style="stroke: #A80036; stroke-width: 1.5;" x1="125" x2="227" y1="395.9063" y2="395.9063"/><rect fill="none" height="6" style="stroke: #C82930; stroke-width: 1.0;" width="6" x="132" y="403.9063"/><text fill="#000000" font-family="sans-serif" font-size="11" lengthAdjust="spacingAndGlyphs" textLength="78" x="144" y="410.1167">name : String</text><rect fill="none" height="6" style="stroke: #C82930; stroke-width: 1.0;" width="6" x="132" y="416.7109"/><text fill="#000000" font-family="sans-serif" font-size="11" lengthAdjust="spacingAndGlyphs" textLength="78" x="144" y="422.9214">price : double</text><line style="stroke: #A80036; stroke-width: 1.5;" x1="125" x2="227" y1="429.5156" y2="429.5156"/><ellipse cx="135" cy="440.5156" fill="#84BE84" rx="3" ry="3" style="stroke: #038048; stroke-width: 1.0;"/><text fill="#000000" font-family="sans-serif" font-size="11" lengthAdjust="spacingAndGlyphs" text-decoration="underline" textLength="47" x="144" y="443.7261">builder()</text><ellipse cx="135" cy="453.3203" fill="#84BE84" rx="3" ry="3" style="stroke: #038048; stroke-width: 1.0;"/><text fill="#000000" font-family="sans-serif" font-size="11" lengthAdjust="spacingAndGlyphs" textLength="46" x="144" y="456.5308">equals()</text><ellipse cx="135" cy="466.125" fill="#84BE84" rx="3" ry="3" style="stroke: #038048; stroke-width: 1.0;"/><text fill="#000000" font-family="sans-serif" font-size="11" lengthAdjust="spacingAndGlyphs" textLength="59" x="144" y="469.3354">getName()</text><ellipse cx="135" cy="478.9297" fill="#84BE84" rx="3" ry="3" style="stroke: #038048; stroke-width: 1.0;"/><text fill="#000000" font-family="sans-serif" font-size="11" lengthAdjust="spacingAndGlyphs" textLength="54" x="144" y="482.1401">getPrice()</text><ellipse cx="135" cy="491.7344" fill="#84BE84" rx="3" ry="3" style="stroke: #038048; stroke-width: 1.0;"/><text fill="#000000" font-family="sans-serif" font-size="11" lengthAdjust="spacingAndGlyphs" textLength="65" x="144" y="494.9448">hashCode()</text><ellipse cx="135" cy="504.5391" fill="#84BE84" rx="3" ry="3" style="stroke: #038048; stroke-width: 1.0;"/><text fill="#000000" font-family="sans-serif" font-size="11" lengthAdjust="spacingAndGlyphs" textLength="59" x="144" y="507.7495">setName()</text><ellipse cx="135" cy="517.3438" fill="#84BE84" rx="3" ry="3" style="stroke: #038048; stroke-width: 1.0;"/><text fill="#000000" font-family="sans-serif" font-size="11" lengthAdjust="spacingAndGlyphs" textLength="54" x="144" y="520.5542">setPrice()</text><polygon fill="#FFFF44" points="135,525.1484,139,529.1484,135,533.1484,131,529.1484" style="stroke: #B38D22; stroke-width: 1.0;"/><text fill="#000000" font-family="sans-serif" font-size="11" lengthAdjust="spacingAndGlyphs" textLength="59" x="144" y="533.3589">canEqual()</text><polygon fill="#4177AF" points="135,538.9531,131,544.9531,139,544.9531" style="stroke: #1963A0; stroke-width: 1.0;"/><text fill="#000000" font-family="sans-serif" font-size="11" lengthAdjust="spacingAndGlyphs" textLength="51" x="144" y="546.1636">Product()</text><!--MD5=[d46b3e7ead279a0589b3d68139a7d244]
class in.ashwanik.pdp.unit_of_work.Product.ProductBuilder--><rect fill="#FEFECE" filter="url(#f1neeaa9xsupc9)" height="137.6328" id="in.ashwanik.pdp.unit_of_work.Product.ProductBuilder" style="stroke: #A80036; stroke-width: 1.5;" width="177" x="38.5" y="629.9063"/><ellipse cx="53.5" cy="645.9063" fill="#ADD1B2" rx="11" ry="11" style="stroke: #A80036; stroke-width: 1.0;"/><path d="M55.8438,641.5781 L56.0156,641.6563 C56.2344,641.3438 56.4375,641.25 56.7344,641.25 C57.0313,641.25 57.3125,641.3906 57.4688,641.6563 C57.5625,641.8125 57.5781,641.9375 57.5781,642.375 L57.5781,643.7969 C57.5781,644.2188 57.5469,644.4063 57.4375,644.5625 C57.2656,644.7813 57,644.9219 56.7344,644.9219 C56.5156,644.9219 56.2813,644.8125 56.1406,644.6719 C56,644.5469 55.9688,644.4219 55.9063,644.0156 C55.8125,643.6094 55.6406,643.3906 55.1563,643.1094 C54.6875,642.8594 54.0781,642.7031 53.5,642.7031 C51.7656,642.7031 50.5156,644.0156 50.5156,645.7969 L50.5156,646.8906 C50.5156,648.5938 51.8125,649.6875 53.8594,649.6875 C54.625,649.6875 55.3125,649.5625 55.7344,649.2969 C55.9219,649.2031 55.9219,649.2031 56.375,648.7188 C56.5625,648.5313 56.7656,648.4531 56.9844,648.4531 C57.4531,648.4531 57.8438,648.8438 57.8438,649.2969 C57.8438,649.6875 57.5156,650.1406 56.9375,650.5469 C56.1875,651.0938 55.0313,651.3906 53.8125,651.3906 C50.9219,651.3906 48.8125,649.5 48.8125,646.9219 L48.8125,645.7969 C48.8125,643.0781 50.8125,641 53.4375,641 C54.3125,641 54.9063,641.1406 55.8438,641.5781 Z "/><text fill="#000000" font-family="sans-serif" font-size="12" lengthAdjust="spacingAndGlyphs" textLength="145" x="67.5" y="650.0605">Product.ProductBuilder</text><line style="stroke: #A80036; stroke-width: 1.5;" x1="39.5" x2="214.5" y1="661.9063" y2="661.9063"/><rect fill="none" height="6" style="stroke: #C82930; stroke-width: 1.0;" width="6" x="46.5" y="669.9063"/><text fill="#000000" font-family="sans-serif" font-size="11" lengthAdjust="spacingAndGlyphs" textLength="78" x="58.5" y="676.1167">name : String</text><rect fill="none" height="6" style="stroke: #C82930; stroke-width: 1.0;" width="6" x="46.5" y="682.7109"/><text fill="#000000" font-family="sans-serif" font-size="11" lengthAdjust="spacingAndGlyphs" textLength="78" x="58.5" y="688.9214">price : double</text><line style="stroke: #A80036; stroke-width: 1.5;" x1="39.5" x2="214.5" y1="695.5156" y2="695.5156"/><ellipse cx="49.5" cy="706.5156" fill="#84BE84" rx="3" ry="3" style="stroke: #038048; stroke-width: 1.0;"/><text fill="#000000" font-family="sans-serif" font-size="11" lengthAdjust="spacingAndGlyphs" textLength="35" x="58.5" y="709.7261">build()</text><ellipse cx="49.5" cy="719.3203" fill="#84BE84" rx="3" ry="3" style="stroke: #038048; stroke-width: 1.0;"/><text fill="#000000" font-family="sans-serif" font-size="11" lengthAdjust="spacingAndGlyphs" textLength="40" x="58.5" y="722.5308">name()</text><ellipse cx="49.5" cy="732.125" fill="#84BE84" rx="3" ry="3" style="stroke: #038048; stroke-width: 1.0;"/><text fill="#000000" font-family="sans-serif" font-size="11" lengthAdjust="spacingAndGlyphs" textLength="36" x="58.5" y="735.3354">price()</text><ellipse cx="49.5" cy="744.9297" fill="#84BE84" rx="3" ry="3" style="stroke: #038048; stroke-width: 1.0;"/><text fill="#000000" font-family="sans-serif" font-size="11" lengthAdjust="spacingAndGlyphs" textLength="53" x="58.5" y="748.1401">toString()</text><polygon fill="#4177AF" points="49.5,753.7344,45.5,759.7344,53.5,759.7344" style="stroke: #1963A0; stroke-width: 1.0;"/><text fill="#000000" font-family="sans-serif" font-size="11" lengthAdjust="spacingAndGlyphs" textLength="91" x="58.5" y="760.9448">ProductBuilder()</text><!--MD5=[1dc4f1fd9c26beaf9b598716889d2bd2]
class in.ashwanik.pdp.unit_of_work.ProductDatabase--><rect fill="#FEFECE" filter="url(#f1neeaa9xsupc9)" height="150.4375" id="in.ashwanik.pdp.unit_of_work.ProductDatabase" style="stroke: #A80036; stroke-width: 1.5;" width="356" x="193" y="844.9063"/><ellipse cx="311.75" cy="860.9063" fill="#ADD1B2" rx="11" ry="11" style="stroke: #A80036; stroke-width: 1.0;"/><path d="M314.0938,856.5781 L314.2656,856.6563 C314.4844,856.3438 314.6875,856.25 314.9844,856.25 C315.2813,856.25 315.5625,856.3906 315.7188,856.6563 C315.8125,856.8125 315.8281,856.9375 315.8281,857.375 L315.8281,858.7969 C315.8281,859.2188 315.7969,859.4063 315.6875,859.5625 C315.5156,859.7813 315.25,859.9219 314.9844,859.9219 C314.7656,859.9219 314.5313,859.8125 314.3906,859.6719 C314.25,859.5469 314.2188,859.4219 314.1563,859.0156 C314.0625,858.6094 313.8906,858.3906 313.4063,858.1094 C312.9375,857.8594 312.3281,857.7031 311.75,857.7031 C310.0156,857.7031 308.7656,859.0156 308.7656,860.7969 L308.7656,861.8906 C308.7656,863.5938 310.0625,864.6875 312.1094,864.6875 C312.875,864.6875 313.5625,864.5625 313.9844,864.2969 C314.1719,864.2031 314.1719,864.2031 314.625,863.7188 C314.8125,863.5313 315.0156,863.4531 315.2344,863.4531 C315.7031,863.4531 316.0938,863.8438 316.0938,864.2969 C316.0938,864.6875 315.7656,865.1406 315.1875,865.5469 C314.4375,866.0938 313.2813,866.3906 312.0625,866.3906 C309.1719,866.3906 307.0625,864.5 307.0625,861.9219 L307.0625,860.7969 C307.0625,858.0781 309.0625,856 311.6875,856 C312.5625,856 313.1563,856.1406 314.0938,856.5781 Z "/><text fill="#000000" font-family="sans-serif" font-size="12" lengthAdjust="spacingAndGlyphs" textLength="110" x="332.25" y="865.0605">ProductDatabase</text><line style="stroke: #A80036; stroke-width: 1.5;" x1="194" x2="548" y1="876.9063" y2="876.9063"/><rect fill="none" height="6" style="stroke: #C82930; stroke-width: 1.0;" width="6" x="201" y="884.9063"/><text fill="#000000" font-family="sans-serif" font-size="11" lengthAdjust="spacingAndGlyphs" textLength="330" x="213" y="891.1167">operations : EnumMap&lt;Operation, Consumer&lt;Product&gt;&gt;</text><rect fill="none" height="6" style="stroke: #C82930; stroke-width: 1.0;" width="6" x="201" y="897.7109"/><text fill="#000000" font-family="sans-serif" font-size="11" lengthAdjust="spacingAndGlyphs" textLength="188" x="213" y="903.9214">products : Map&lt;String, Product&gt;</text><line style="stroke: #A80036; stroke-width: 1.5;" x1="194" x2="548" y1="910.5156" y2="910.5156"/><ellipse cx="204" cy="921.5156" fill="#84BE84" rx="3" ry="3" style="stroke: #038048; stroke-width: 1.0;"/><text fill="#000000" font-family="sans-serif" font-size="11" lengthAdjust="spacingAndGlyphs" textLength="76" x="213" y="924.7261">getProducts()</text><polygon fill="#4177AF" points="204,930.3203,200,936.3203,208,936.3203" style="stroke: #1963A0; stroke-width: 1.0;"/><text fill="#000000" font-family="sans-serif" font-size="11" lengthAdjust="spacingAndGlyphs" textLength="105" x="213" y="937.5308">ProductDatabase()</text><polygon fill="#4177AF" points="204,943.125,200,949.125,208,949.125" style="stroke: #1963A0; stroke-width: 1.0;"/><text fill="#000000" font-family="sans-serif" font-size="11" lengthAdjust="spacingAndGlyphs" textLength="35" x="213" y="950.3354">save()</text><rect fill="#F24D5C" height="6" style="stroke: #C82930; stroke-width: 1.0;" width="6" x="201" y="956.9297"/><text fill="#000000" font-family="sans-serif" font-size="11" lengthAdjust="spacingAndGlyphs" textLength="43" x="213" y="963.1401">delete()</text><rect fill="#F24D5C" height="6" style="stroke: #C82930; stroke-width: 1.0;" width="6" x="201" y="969.7344"/><text fill="#000000" font-family="sans-serif" font-size="11" lengthAdjust="spacingAndGlyphs" textLength="41" x="213" y="975.9448">insert()</text><rect fill="#F24D5C" height="6" style="stroke: #C82930; stroke-width: 1.0;" width="6" x="201" y="982.5391"/><text fill="#000000" font-family="sans-serif" font-size="11" lengthAdjust="spacingAndGlyphs" textLength="47" x="213" y="988.7495">update()</text><!--MD5=[2b14ba4f2fa4f9c90bb22f28da3201d7]
class in.ashwanik.pdp.unit_of_work.ProductRepository--><rect fill="#FEFECE" filter="url(#f1neeaa9xsupc9)" height="112.0234" id="in.ashwanik.pdp.unit_of_work.ProductRepository" style="stroke: #A80036; stroke-width: 1.5;" width="147" x="338.5" y="402.4063"/><ellipse cx="353.5" cy="418.4063" fill="#ADD1B2" rx="11" ry="11" style="stroke: #A80036; stroke-width: 1.0;"/><path d="M355.8438,414.0781 L356.0156,414.1563 C356.2344,413.8438 356.4375,413.75 356.7344,413.75 C357.0313,413.75 357.3125,413.8906 357.4688,414.1563 C357.5625,414.3125 357.5781,414.4375 357.5781,414.875 L357.5781,416.2969 C357.5781,416.7188 357.5469,416.9063 357.4375,417.0625 C357.2656,417.2813 357,417.4219 356.7344,417.4219 C356.5156,417.4219 356.2813,417.3125 356.1406,417.1719 C356,417.0469 355.9688,416.9219 355.9063,416.5156 C355.8125,416.1094 355.6406,415.8906 355.1563,415.6094 C354.6875,415.3594 354.0781,415.2031 353.5,415.2031 C351.7656,415.2031 350.5156,416.5156 350.5156,418.2969 L350.5156,419.3906 C350.5156,421.0938 351.8125,422.1875 353.8594,422.1875 C354.625,422.1875 355.3125,422.0625 355.7344,421.7969 C355.9219,421.7031 355.9219,421.7031 356.375,421.2188 C356.5625,421.0313 356.7656,420.9531 356.9844,420.9531 C357.4531,420.9531 357.8438,421.3438 357.8438,421.7969 C357.8438,422.1875 357.5156,422.6406 356.9375,423.0469 C356.1875,423.5938 355.0313,423.8906 353.8125,423.8906 C350.9219,423.8906 348.8125,422 348.8125,419.4219 L348.8125,418.2969 C348.8125,415.5781 350.8125,413.5 353.4375,413.5 C354.3125,413.5 354.9063,413.6406 355.8438,414.0781 Z "/><text fill="#000000" font-family="sans-serif" font-size="12" lengthAdjust="spacingAndGlyphs" textLength="115" x="367.5" y="422.5605">ProductRepository</text><line style="stroke: #A80036; stroke-width: 1.5;" x1="339.5" x2="484.5" y1="434.4063" y2="434.4063"/><line style="stroke: #A80036; stroke-width: 1.5;" x1="339.5" x2="484.5" y1="442.4063" y2="442.4063"/><ellipse cx="349.5" cy="453.4063" fill="#84BE84" rx="3" ry="3" style="stroke: #038048; stroke-width: 1.0;"/><text fill="#000000" font-family="sans-serif" font-size="11" lengthAdjust="spacingAndGlyphs" textLength="111" x="358.5" y="456.6167">ProductRepository()</text><ellipse cx="349.5" cy="466.2109" fill="#84BE84" rx="3" ry="3" style="stroke: #038048; stroke-width: 1.0;"/><text fill="#000000" font-family="sans-serif" font-size="11" lengthAdjust="spacingAndGlyphs" textLength="50" x="358.5" y="469.4214">commit()</text><ellipse cx="349.5" cy="479.0156" fill="#84BE84" rx="3" ry="3" style="stroke: #038048; stroke-width: 1.0;"/><text fill="#000000" font-family="sans-serif" font-size="11" lengthAdjust="spacingAndGlyphs" textLength="44" x="358.5" y="482.2261">create()</text><ellipse cx="349.5" cy="491.8203" fill="#84BE84" rx="3" ry="3" style="stroke: #038048; stroke-width: 1.0;"/><text fill="#000000" font-family="sans-serif" font-size="11" lengthAdjust="spacingAndGlyphs" textLength="43" x="358.5" y="495.0308">delete()</text><ellipse cx="349.5" cy="504.625" fill="#84BE84" rx="3" ry="3" style="stroke: #038048; stroke-width: 1.0;"/><text fill="#000000" font-family="sans-serif" font-size="11" lengthAdjust="spacingAndGlyphs" textLength="47" x="358.5" y="507.8354">update()</text><!--MD5=[2156525b9d8e0e519e6f64e7a8e9905f]
class in.ashwanik.pdp.unit_of_work.UnitOfWork--><rect fill="#FEFECE" filter="url(#f1neeaa9xsupc9)" height="99.2188" id="in.ashwanik.pdp.unit_of_work.UnitOfWork" style="stroke: #A80036; stroke-width: 1.5;" width="101" x="383.5" y="152.4063"/><ellipse cx="398.5" cy="168.4063" fill="#B4A7E5" rx="11" ry="11" style="stroke: #A80036; stroke-width: 1.0;"/><path d="M399.4531,165.1875 L399.4531,171.7031 L401.1719,171.7031 C401.625,171.7031 401.7656,171.7344 401.9375,171.8594 C402.1719,172.0313 402.2813,172.2813 402.2813,172.5625 C402.2813,173.125 401.9219,173.4063 401.1719,173.4063 L396.0313,173.4063 C395.625,173.4063 395.4219,173.3594 395.2656,173.2344 C395.0469,173.0781 394.9063,172.8125 394.9063,172.5625 C394.9063,172.2656 395.0625,171.9844 395.3125,171.8281 C395.4688,171.7188 395.5938,171.7031 396.0313,171.7031 L397.75,171.7031 L397.75,165.1875 L396.0313,165.1875 C395.6094,165.1875 395.4219,165.1563 395.2656,165.0469 C395.0469,164.875 394.9063,164.625 394.9063,164.3438 C394.9063,164.0625 395.0625,163.7656 395.3125,163.6094 C395.4688,163.5156 395.5938,163.5 396.0313,163.5 L401.1719,163.5 C401.625,163.5 401.7656,163.5313 401.9375,163.6406 C402.1719,163.8125 402.2813,164.0781 402.2813,164.3438 C402.2813,164.6406 402.1406,164.9219 401.875,165.0781 C401.75,165.1563 401.5625,165.1875 401.1719,165.1875 Z "/><text fill="#000000" font-family="sans-serif" font-size="12" font-style="italic" lengthAdjust="spacingAndGlyphs" textLength="69" x="412.5" y="172.5605">UnitOfWork</text><line style="stroke: #A80036; stroke-width: 1.5;" x1="384.5" x2="483.5" y1="184.4063" y2="184.4063"/><line style="stroke: #A80036; stroke-width: 1.5;" x1="384.5" x2="483.5" y1="192.4063" y2="192.4063"/><ellipse cx="394.5" cy="203.4063" fill="#84BE84" rx="3" ry="3" style="stroke: #038048; stroke-width: 1.0;"/><text fill="#000000" font-family="sans-serif" font-size="11" font-style="italic" lengthAdjust="spacingAndGlyphs" textLength="50" x="403.5" y="206.6167">commit()</text><ellipse cx="394.5" cy="216.2109" fill="#84BE84" rx="3" ry="3" style="stroke: #038048; stroke-width: 1.0;"/><text fill="#000000" font-family="sans-serif" font-size="11" font-style="italic" lengthAdjust="spacingAndGlyphs" textLength="44" x="403.5" y="219.4214">create()</text><ellipse cx="394.5" cy="229.0156" fill="#84BE84" rx="3" ry="3" style="stroke: #038048; stroke-width: 1.0;"/><text fill="#000000" font-family="sans-serif" font-size="11" font-style="italic" lengthAdjust="spacingAndGlyphs" textLength="43" x="403.5" y="232.2261">delete()</text><ellipse cx="394.5" cy="241.8203" fill="#84BE84" rx="3" ry="3" style="stroke: #038048; stroke-width: 1.0;"/><text fill="#000000" font-family="sans-serif" font-size="11" font-style="italic" lengthAdjust="spacingAndGlyphs" textLength="47" x="403.5" y="245.0308">update()</text><!--MD5=[67226f3e5b4c5d0e47791750a8ac885a]
reverse link in.ashwanik.pdp.unit_of_work.DbContext to in.ashwanik.pdp.unit_of_work.ProductDatabase--><path d="M391.836,761.5623 C388.418,787.3693 384.416,817.5903 380.838,844.6103 " fill="none" id="in.ashwanik.pdp.unit_of_work.DbContext&lt;-in.ashwanik.pdp.unit_of_work.ProductDatabase" style="stroke: #A80036; stroke-width: 1.0;"/><polygon fill="#FFFFFF" points="393.564,748.5093,388.8107,753.932,391.9881,760.4053,396.7414,754.9826,393.564,748.5093" style="stroke: #A80036; stroke-width: 1.0;"/><text fill="#000000" font-family="sans-serif" font-size="13" lengthAdjust="spacingAndGlyphs" textLength="60" x="387" y="810.9731">database</text><!--MD5=[3a7887efacdf86507b2473016ef86e8a]
reverse link in.ashwanik.pdp.unit_of_work.Entity to in.ashwanik.pdp.unit_of_work.Product--><path d="M219.481,322.4562 C215.042,336.2343 210.563,350.1333 206.256,363.5033 " fill="none" id="in.ashwanik.pdp.unit_of_work.Entity&lt;-in.ashwanik.pdp.unit_of_work.Product" style="stroke: #A80036; stroke-width: 1.0;"/><polygon fill="none" points="212.913,320.0153,225.709,303.1263,226.238,324.3093,212.913,320.0153" style="stroke: #A80036; stroke-width: 1.0;"/><!--MD5=[9e6ff886438ddc1179973d4884fd37a5]
reverse link in.ashwanik.pdp.unit_of_work.Product to in.ashwanik.pdp.unit_of_work.Product.ProductBuilder--><path d="M153.727,567.8173 C149.403,588.8633 144.986,610.3633 141.02,629.6663 " fill="none" id="in.ashwanik.pdp.unit_of_work.Product&lt;-in.ashwanik.pdp.unit_of_work.Product.ProductBuilder" style="stroke: #A80036; stroke-width: 1.0;"/><ellipse cx="155.1651" cy="560.8196" fill="#FFFFFF" rx="8" ry="8" style="stroke: #A80036; stroke-width: 1.0;"/><line style="stroke: #A80036; stroke-width: 1.0;" x1="153.5551" x2="156.775" y1="568.6559" y2="552.9833"/><line style="stroke: #A80036; stroke-width: 1.0;" x1="147.3287" x2="163.0014" y1="559.2096" y2="562.4295"/><!--MD5=[0269ca2e79fe63f5dda351bdd258f72a]
reverse link in.ashwanik.pdp.unit_of_work.UnitOfWork to in.ashwanik.pdp.unit_of_work.ProductRepository--><path d="M428.051,271.7223 C424.513,312.6553 420.084,363.8932 416.775,402.1703 " fill="none" id="in.ashwanik.pdp.unit_of_work.UnitOfWork&lt;-in.ashwanik.pdp.unit_of_work.ProductRepository" style="stroke: #A80036; stroke-width: 1.0; stroke-dasharray: 7.0,7.0;"/><polygon fill="none" points="421.088,270.9983,429.784,251.6753,435.036,272.2043,421.088,270.9983" style="stroke: #A80036; stroke-width: 1.0;"/><!--MD5=[a92996fedfadbfa6fd42d5c8e0709cdc]
reverse link in.ashwanik.pdp.unit_of_work.ProductRepository to in.ashwanik.pdp.unit_of_work.DbContext--><path d="M408.574,527.4923 C406.619,566.3523 404.214,614.1563 402.449,649.2333 " fill="none" id="in.ashwanik.pdp.unit_of_work.ProductRepository&lt;-in.ashwanik.pdp.unit_of_work.DbContext" style="stroke: #A80036; stroke-width: 1.0;"/><polygon fill="#FFFFFF" points="409.232,514.4223,404.9357,520.2138,408.6294,526.4071,412.9257,520.6155,409.232,514.4223" style="stroke: #A80036; stroke-width: 1.0;"/><text fill="#000000" font-family="sans-serif" font-size="13" lengthAdjust="spacingAndGlyphs" textLength="48" x="406" y="595.9731">context</text><!--MD5=[621dad49be0138492647e1ca2ad318b8]
@startuml
title __UNIT_OF_WORK__\n

  namespace in.ashwanik.pdp.unit_of_work {
    class in.ashwanik.pdp.unit_of_work.DbContext {
        - entities : EnumMap<Operation, List<Product>>
        ~ DbContext()
        ~ commit()
        ~ register()
    }
  }
  

  namespace in.ashwanik.pdp.unit_of_work {
    class in.ashwanik.pdp.unit_of_work.Entity {
        - createdAt : LocalDateTime
        - id : String
        - modifiedAt : LocalDateTime
        + equals()
        + getCreatedAt()
        + getId()
        + getModifiedAt()
        + hashCode()
        + setCreatedAt()
        + setId()
        + setModifiedAt()
        # canEqual()
    }
  }
  

  namespace in.ashwanik.pdp.unit_of_work {
    enum Operation {
      DELETE
      INSERT
      UPDATE
    }
  }
  

  namespace in.ashwanik.pdp.unit_of_work {
    class in.ashwanik.pdp.unit_of_work.Product {
        - name : String
        - price : double
        {static} + builder()
        + equals()
        + getName()
        + getPrice()
        + hashCode()
        + setName()
        + setPrice()
        # canEqual()
        ~ Product()
    }
  }
  

  namespace in.ashwanik.pdp.unit_of_work {
    class in.ashwanik.pdp.unit_of_work.Product.ProductBuilder {
        - name : String
        - price : double
        + build()
        + name()
        + price()
        + toString()
        ~ ProductBuilder()
    }
  }
  

  namespace in.ashwanik.pdp.unit_of_work {
    class in.ashwanik.pdp.unit_of_work.ProductDatabase {
        - operations : EnumMap<Operation, Consumer<Product>>
        - products : Map<String, Product>
        + getProducts()
        ~ ProductDatabase()
        ~ save()
        - delete()
        - insert()
        - update()
    }
  }
  

  namespace in.ashwanik.pdp.unit_of_work {
    class in.ashwanik.pdp.unit_of_work.ProductRepository {
        + ProductRepository()
        + commit()
        + create()
        + delete()
        + update()
    }
  }
  

  namespace in.ashwanik.pdp.unit_of_work {
    interface in.ashwanik.pdp.unit_of_work.UnitOfWork {
        {abstract} + commit()
        {abstract} + create()
        {abstract} + delete()
        {abstract} + update()
    }
  }
  

  in.ashwanik.pdp.unit_of_work.DbContext o- - in.ashwanik.pdp.unit_of_work.ProductDatabase : database
  in.ashwanik.pdp.unit_of_work.Product -up-|> in.ashwanik.pdp.unit_of_work.Entity
  in.ashwanik.pdp.unit_of_work.Product +-down- in.ashwanik.pdp.unit_of_work.Product.ProductBuilder
  in.ashwanik.pdp.unit_of_work.ProductRepository .up.|> in.ashwanik.pdp.unit_of_work.UnitOfWork
  in.ashwanik.pdp.unit_of_work.ProductRepository o- - in.ashwanik.pdp.unit_of_work.DbContext : context
@enduml

PlantUML version 1.2019.11(Sun Sep 22 10:02:15 UTC 2019)
(GPL source distribution)
Java Runtime: Java(TM) SE Runtime Environment
JVM: Java HotSpot(TM) 64-Bit Server VM
Java Version: 1.7.0_25-b15
Operating System: Linux
Default Encoding: UTF-8
Language: en
Country: US
--></g></svg>