<?xml version="1.0" encoding="UTF-8" standalone="no"?>
<svg xmlns="http://www.w3.org/2000/svg" xmlns:xlink="http://www.w3.org/1999/xlink" contentScriptType="application/ecmascript" contentStyleType="text/css" height="425px" preserveAspectRatio="none" style="width:778px;height:425px;" version="1.1" viewBox="0 0 778 425" width="778px" zoomAndPan="magnify"><defs><filter height="300%" id="f1jp69czntq8st" width="300%" x="-1" y="-1"><feGaussianBlur result="blurOut" stdDeviation="2.0"/><feColorMatrix in="blurOut" result="blurOut2" type="matrix" values="0 0 0 0 0 0 0 0 0 0 0 0 0 0 0 0 0 0 .4 0"/><feOffset dx="4.0" dy="4.0" in="blurOut2" result="blurOut3"/><feBlend in="SourceGraphic" in2="blurOut3" mode="normal"/></filter></defs><g><text fill="#000000" font-family="sans-serif" font-size="18" lengthAdjust="spacingAndGlyphs" text-decoration="underline" textLength="74" x="358" y="16.708">VISITOR</text><text fill="#000000" font-family="sans-serif" font-size="18" lengthAdjust="spacingAndGlyphs" textLength="0" x="398" y="37.6611"/><!--MD5=[c4ff0f4a91de2a7d968c00cacc9093ee]
cluster in.ashwanik.pdp.visitor--><polygon fill="#FFFFFF" filter="url(#f1jp69czntq8st)" points="22,65.9063,210,65.9063,217,88.2031,756,88.2031,756,413.9063,22,413.9063,22,65.9063" style="stroke: #000000; stroke-width: 1.5;"/><line style="stroke: #000000; stroke-width: 1.5;" x1="22" x2="217" y1="88.2031" y2="88.2031"/><text fill="#000000" font-family="sans-serif" font-size="14" font-weight="bold" lengthAdjust="spacingAndGlyphs" textLength="182" x="26" y="80.9014">in.ashwanik.pdp.visitor</text><!--MD5=[7aae668492de3cf2be612cacbb3e3bee]
class in.ashwanik.pdp.visitor.BoldText--><rect fill="#FEFECE" filter="url(#f1jp69czntq8st)" height="73.6094" id="in.ashwanik.pdp.visitor.BoldText" style="stroke: #A80036; stroke-width: 1.5;" width="85" x="404.5" y="298.4063"/><ellipse cx="419.5" cy="314.4063" fill="#ADD1B2" rx="11" ry="11" style="stroke: #A80036; stroke-width: 1.0;"/><path d="M421.8438,310.0781 L422.0156,310.1563 C422.2344,309.8438 422.4375,309.75 422.7344,309.75 C423.0313,309.75 423.3125,309.8906 423.4688,310.1563 C423.5625,310.3125 423.5781,310.4375 423.5781,310.875 L423.5781,312.2969 C423.5781,312.7188 423.5469,312.9063 423.4375,313.0625 C423.2656,313.2813 423,313.4219 422.7344,313.4219 C422.5156,313.4219 422.2813,313.3125 422.1406,313.1719 C422,313.0469 421.9688,312.9219 421.9063,312.5156 C421.8125,312.1094 421.6406,311.8906 421.1563,311.6094 C420.6875,311.3594 420.0781,311.2031 419.5,311.2031 C417.7656,311.2031 416.5156,312.5156 416.5156,314.2969 L416.5156,315.3906 C416.5156,317.0938 417.8125,318.1875 419.8594,318.1875 C420.625,318.1875 421.3125,318.0625 421.7344,317.7969 C421.9219,317.7031 421.9219,317.7031 422.375,317.2188 C422.5625,317.0313 422.7656,316.9531 422.9844,316.9531 C423.4531,316.9531 423.8438,317.3438 423.8438,317.7969 C423.8438,318.1875 423.5156,318.6406 422.9375,319.0469 C422.1875,319.5938 421.0313,319.8906 419.8125,319.8906 C416.9219,319.8906 414.8125,318 414.8125,315.4219 L414.8125,314.2969 C414.8125,311.5781 416.8125,309.5 419.4375,309.5 C420.3125,309.5 420.9063,309.6406 421.8438,310.0781 Z "/><text fill="#000000" font-family="sans-serif" font-size="12" lengthAdjust="spacingAndGlyphs" textLength="53" x="433.5" y="318.5605">BoldText</text><line style="stroke: #A80036; stroke-width: 1.5;" x1="405.5" x2="488.5" y1="330.4063" y2="330.4063"/><line style="stroke: #A80036; stroke-width: 1.5;" x1="405.5" x2="488.5" y1="338.4063" y2="338.4063"/><polygon fill="#4177AF" points="415.5,345.4063,411.5,351.4063,419.5,351.4063" style="stroke: #1963A0; stroke-width: 1.0;"/><text fill="#000000" font-family="sans-serif" font-size="11" lengthAdjust="spacingAndGlyphs" textLength="57" x="424.5" y="352.6167">BoldText()</text><polygon fill="#4177AF" points="415.5,358.2109,411.5,364.2109,419.5,364.2109" style="stroke: #1963A0; stroke-width: 1.0;"/><text fill="#000000" font-family="sans-serif" font-size="11" lengthAdjust="spacingAndGlyphs" textLength="45" x="424.5" y="365.4214">accept()</text><!--MD5=[59685aeb2ba5930c43d4c69816ee48be]
class in.ashwanik.pdp.visitor.Document--><rect fill="#FEFECE" filter="url(#f1jp69czntq8st)" height="112.0234" id="in.ashwanik.pdp.visitor.Document" style="stroke: #A80036; stroke-width: 1.5;" width="186" x="39" y="100.9063"/><ellipse cx="95.75" cy="116.9063" fill="#ADD1B2" rx="11" ry="11" style="stroke: #A80036; stroke-width: 1.0;"/><path d="M98.0938,112.5781 L98.2656,112.6563 C98.4844,112.3438 98.6875,112.25 98.9844,112.25 C99.2813,112.25 99.5625,112.3906 99.7188,112.6563 C99.8125,112.8125 99.8281,112.9375 99.8281,113.375 L99.8281,114.7969 C99.8281,115.2188 99.7969,115.4063 99.6875,115.5625 C99.5156,115.7813 99.25,115.9219 98.9844,115.9219 C98.7656,115.9219 98.5313,115.8125 98.3906,115.6719 C98.25,115.5469 98.2188,115.4219 98.1563,115.0156 C98.0625,114.6094 97.8906,114.3906 97.4063,114.1094 C96.9375,113.8594 96.3281,113.7031 95.75,113.7031 C94.0156,113.7031 92.7656,115.0156 92.7656,116.7969 L92.7656,117.8906 C92.7656,119.5938 94.0625,120.6875 96.1094,120.6875 C96.875,120.6875 97.5625,120.5625 97.9844,120.2969 C98.1719,120.2031 98.1719,120.2031 98.625,119.7188 C98.8125,119.5313 99.0156,119.4531 99.2344,119.4531 C99.7031,119.4531 100.0938,119.8438 100.0938,120.2969 C100.0938,120.6875 99.7656,121.1406 99.1875,121.5469 C98.4375,122.0938 97.2813,122.3906 96.0625,122.3906 C93.1719,122.3906 91.0625,120.5 91.0625,117.9219 L91.0625,116.7969 C91.0625,114.0781 93.0625,112 95.6875,112 C96.5625,112 97.1563,112.1406 98.0938,112.5781 Z "/><text fill="#000000" font-family="sans-serif" font-size="12" lengthAdjust="spacingAndGlyphs" textLength="64" x="116.25" y="121.0605">Document</text><line style="stroke: #A80036; stroke-width: 1.5;" x1="40" x2="224" y1="132.9063" y2="132.9063"/><rect fill="none" height="6" style="stroke: #C82930; stroke-width: 1.0;" width="6" x="47" y="140.9063"/><text fill="#000000" font-family="sans-serif" font-size="11" lengthAdjust="spacingAndGlyphs" textLength="160" x="59" y="147.1167">parts : List&lt;DocumentPart&gt;</text><line style="stroke: #A80036; stroke-width: 1.5;" x1="40" x2="224" y1="153.7109" y2="153.7109"/><polygon fill="#4177AF" points="50,160.7109,46,166.7109,54,166.7109" style="stroke: #1963A0; stroke-width: 1.0;"/><text fill="#000000" font-family="sans-serif" font-size="11" lengthAdjust="spacingAndGlyphs" textLength="65" x="59" y="167.9214">Document()</text><polygon fill="#4177AF" points="50,173.5156,46,179.5156,54,179.5156" style="stroke: #1963A0; stroke-width: 1.0;"/><text fill="#000000" font-family="sans-serif" font-size="11" lengthAdjust="spacingAndGlyphs" textLength="29" x="59" y="180.7261">add()</text><polygon fill="#4177AF" points="50,186.3203,46,192.3203,54,192.3203" style="stroke: #1963A0; stroke-width: 1.0;"/><text fill="#000000" font-family="sans-serif" font-size="11" lengthAdjust="spacingAndGlyphs" textLength="36" x="59" y="193.5308">clear()</text><polygon fill="#4177AF" points="50,199.125,46,205.125,54,205.125" style="stroke: #1963A0; stroke-width: 1.0;"/><text fill="#000000" font-family="sans-serif" font-size="11" lengthAdjust="spacingAndGlyphs" textLength="59" x="59" y="206.3354">generate()</text><!--MD5=[8faebce0f4ffeae162ae7649c070140c]
class in.ashwanik.pdp.visitor.DocumentPart--><rect fill="#FEFECE" filter="url(#f1jp69czntq8st)" height="99.2188" id="in.ashwanik.pdp.visitor.DocumentPart" style="stroke: #A80036; stroke-width: 1.5;" width="121" x="510.5" y="107.4063"/><ellipse cx="525.5" cy="123.4063" fill="#A9DCDF" rx="11" ry="11" style="stroke: #A80036; stroke-width: 1.0;"/><path d="M527.0781,125.2188 L523.0313,125.2188 L522.6406,126.2031 L523.0313,126.2031 C523.4844,126.2031 523.625,126.2344 523.7969,126.3594 C524.0156,126.5313 524.1406,126.7813 524.1406,127.0625 C524.1406,127.3438 524,127.6406 523.7344,127.7813 C523.6094,127.875 523.3906,127.9063 523.0313,127.9063 L520.7656,127.9063 C520.0156,127.9063 519.6406,127.625 519.6406,127.0625 C519.6406,126.7656 519.7969,126.4844 520.0469,126.3281 C520.2031,126.2188 520.3594,126.2031 520.7813,126.2031 L523.4219,119.6875 L522.3438,119.6875 C521.9063,119.6875 521.7344,119.6563 521.5625,119.5469 C521.3438,119.375 521.2031,119.125 521.2031,118.8438 C521.2031,118.5625 521.3594,118.2813 521.6094,118.1094 C521.7656,118.0156 521.8906,118 522.3438,118 L526.0156,118 L529.4063,126.2031 C529.875,126.2031 530.0313,126.2344 530.2031,126.375 C530.4219,126.5313 530.5625,126.7813 530.5625,127.0625 C530.5625,127.3438 530.4063,127.6406 530.1563,127.7813 C530.0156,127.875 529.7969,127.9063 529.4375,127.9063 L527.0781,127.9063 C526.6563,127.9063 526.4531,127.8594 526.3125,127.7344 C526.0938,127.5781 525.9531,127.3281 525.9531,127.0625 C525.9531,126.7656 526.1094,126.4844 526.3594,126.3281 C526.5156,126.2188 526.625,126.2031 527.0781,126.2031 L527.4688,126.2031 Z M526.375,123.5156 L525.0469,120.25 L523.7031,123.5156 Z "/><text fill="#000000" font-family="sans-serif" font-size="12" font-style="italic" lengthAdjust="spacingAndGlyphs" textLength="89" x="539.5" y="127.5605">DocumentPart</text><line style="stroke: #A80036; stroke-width: 1.5;" x1="511.5" x2="630.5" y1="139.4063" y2="139.4063"/><rect fill="none" height="6" style="stroke: #C82930; stroke-width: 1.0;" width="6" x="518.5" y="147.4063"/><text fill="#000000" font-family="sans-serif" font-size="11" lengthAdjust="spacingAndGlyphs" textLength="67" x="530.5" y="153.6167">text : String</text><line style="stroke: #A80036; stroke-width: 1.5;" x1="511.5" x2="630.5" y1="160.2109" y2="160.2109"/><ellipse cx="521.5" cy="171.2109" fill="#84BE84" rx="3" ry="3" style="stroke: #038048; stroke-width: 1.0;"/><text fill="#000000" font-family="sans-serif" font-size="11" lengthAdjust="spacingAndGlyphs" textLength="50" x="530.5" y="174.4214">getText()</text><polygon fill="#4177AF" points="521.5,180.0156,517.5,186.0156,525.5,186.0156" style="stroke: #1963A0; stroke-width: 1.0;"/><text fill="#000000" font-family="sans-serif" font-size="11" lengthAdjust="spacingAndGlyphs" textLength="88" x="530.5" y="187.2261">DocumentPart()</text><polygon fill="#4177AF" points="521.5,192.8203,517.5,198.8203,525.5,198.8203" style="stroke: #1963A0; stroke-width: 1.0;"/><text fill="#000000" font-family="sans-serif" font-size="11" font-style="italic" lengthAdjust="spacingAndGlyphs" textLength="45" x="530.5" y="200.0308">accept()</text><!--MD5=[2b398784e7bf703e8d10a03298507573]
class in.ashwanik.pdp.visitor.HtmlVisitor--><rect fill="#FEFECE" filter="url(#f1jp69czntq8st)" height="124.8281" id="in.ashwanik.pdp.visitor.HtmlVisitor" style="stroke: #A80036; stroke-width: 1.5;" width="148" x="38" y="272.9063"/><ellipse cx="75.05" cy="288.9063" fill="#ADD1B2" rx="11" ry="11" style="stroke: #A80036; stroke-width: 1.0;"/><path d="M77.3938,284.5781 L77.5656,284.6563 C77.7844,284.3438 77.9875,284.25 78.2844,284.25 C78.5813,284.25 78.8625,284.3906 79.0188,284.6563 C79.1125,284.8125 79.1281,284.9375 79.1281,285.375 L79.1281,286.7969 C79.1281,287.2188 79.0969,287.4063 78.9875,287.5625 C78.8156,287.7813 78.55,287.9219 78.2844,287.9219 C78.0656,287.9219 77.8313,287.8125 77.6906,287.6719 C77.55,287.5469 77.5188,287.4219 77.4563,287.0156 C77.3625,286.6094 77.1906,286.3906 76.7063,286.1094 C76.2375,285.8594 75.6281,285.7031 75.05,285.7031 C73.3156,285.7031 72.0656,287.0156 72.0656,288.7969 L72.0656,289.8906 C72.0656,291.5938 73.3625,292.6875 75.4094,292.6875 C76.175,292.6875 76.8625,292.5625 77.2844,292.2969 C77.4719,292.2031 77.4719,292.2031 77.925,291.7188 C78.1125,291.5313 78.3156,291.4531 78.5344,291.4531 C79.0031,291.4531 79.3938,291.8438 79.3938,292.2969 C79.3938,292.6875 79.0656,293.1406 78.4875,293.5469 C77.7375,294.0938 76.5813,294.3906 75.3625,294.3906 C72.4719,294.3906 70.3625,292.5 70.3625,289.9219 L70.3625,288.7969 C70.3625,286.0781 72.3625,284 74.9875,284 C75.8625,284 76.4563,284.1406 77.3938,284.5781 Z "/><text fill="#000000" font-family="sans-serif" font-size="12" lengthAdjust="spacingAndGlyphs" textLength="67" x="93.95" y="293.0605">HtmlVisitor</text><line style="stroke: #A80036; stroke-width: 1.5;" x1="39" x2="185" y1="304.9063" y2="304.9063"/><rect fill="none" height="6" style="stroke: #C82930; stroke-width: 1.0;" width="6" x="46" y="312.9063"/><text fill="#000000" font-family="sans-serif" font-size="11" lengthAdjust="spacingAndGlyphs" textLength="122" x="58" y="319.1167">output : StringBuilder</text><line style="stroke: #A80036; stroke-width: 1.5;" x1="39" x2="185" y1="325.7109" y2="325.7109"/><ellipse cx="49" cy="336.7109" fill="#84BE84" rx="3" ry="3" style="stroke: #038048; stroke-width: 1.0;"/><text fill="#000000" font-family="sans-serif" font-size="11" lengthAdjust="spacingAndGlyphs" textLength="31" x="58" y="339.9214">visit()</text><ellipse cx="49" cy="349.5156" fill="#84BE84" rx="3" ry="3" style="stroke: #038048; stroke-width: 1.0;"/><text fill="#000000" font-family="sans-serif" font-size="11" lengthAdjust="spacingAndGlyphs" textLength="31" x="58" y="352.7261">visit()</text><ellipse cx="49" cy="362.3203" fill="#84BE84" rx="3" ry="3" style="stroke: #038048; stroke-width: 1.0;"/><text fill="#000000" font-family="sans-serif" font-size="11" lengthAdjust="spacingAndGlyphs" textLength="31" x="58" y="365.5308">visit()</text><polygon fill="#4177AF" points="49,371.125,45,377.125,53,377.125" style="stroke: #1963A0; stroke-width: 1.0;"/><text fill="#000000" font-family="sans-serif" font-size="11" lengthAdjust="spacingAndGlyphs" textLength="70" x="58" y="378.3354">HtmlVisitor()</text><polygon fill="#4177AF" points="49,383.9297,45,389.9297,53,389.9297" style="stroke: #1963A0; stroke-width: 1.0;"/><text fill="#000000" font-family="sans-serif" font-size="11" lengthAdjust="spacingAndGlyphs" textLength="64" x="58" y="391.1401">getOutput()</text><!--MD5=[f8f2be4db5682f465ea7bf827982f124]
class in.ashwanik.pdp.visitor.HyperLink--><rect fill="#FEFECE" filter="url(#f1jp69czntq8st)" height="99.2188" id="in.ashwanik.pdp.visitor.HyperLink" style="stroke: #A80036; stroke-width: 1.5;" width="92" x="525" y="285.9063"/><ellipse cx="540" cy="301.9063" fill="#ADD1B2" rx="11" ry="11" style="stroke: #A80036; stroke-width: 1.0;"/><path d="M542.3438,297.5781 L542.5156,297.6563 C542.7344,297.3438 542.9375,297.25 543.2344,297.25 C543.5313,297.25 543.8125,297.3906 543.9688,297.6563 C544.0625,297.8125 544.0781,297.9375 544.0781,298.375 L544.0781,299.7969 C544.0781,300.2188 544.0469,300.4063 543.9375,300.5625 C543.7656,300.7813 543.5,300.9219 543.2344,300.9219 C543.0156,300.9219 542.7813,300.8125 542.6406,300.6719 C542.5,300.5469 542.4688,300.4219 542.4063,300.0156 C542.3125,299.6094 542.1406,299.3906 541.6563,299.1094 C541.1875,298.8594 540.5781,298.7031 540,298.7031 C538.2656,298.7031 537.0156,300.0156 537.0156,301.7969 L537.0156,302.8906 C537.0156,304.5938 538.3125,305.6875 540.3594,305.6875 C541.125,305.6875 541.8125,305.5625 542.2344,305.2969 C542.4219,305.2031 542.4219,305.2031 542.875,304.7188 C543.0625,304.5313 543.2656,304.4531 543.4844,304.4531 C543.9531,304.4531 544.3438,304.8438 544.3438,305.2969 C544.3438,305.6875 544.0156,306.1406 543.4375,306.5469 C542.6875,307.0938 541.5313,307.3906 540.3125,307.3906 C537.4219,307.3906 535.3125,305.5 535.3125,302.9219 L535.3125,301.7969 C535.3125,299.0781 537.3125,297 539.9375,297 C540.8125,297 541.4063,297.1406 542.3438,297.5781 Z "/><text fill="#000000" font-family="sans-serif" font-size="12" lengthAdjust="spacingAndGlyphs" textLength="60" x="554" y="306.0605">HyperLink</text><line style="stroke: #A80036; stroke-width: 1.5;" x1="526" x2="616" y1="317.9063" y2="317.9063"/><rect fill="none" height="6" style="stroke: #C82930; stroke-width: 1.0;" width="6" x="533" y="325.9063"/><text fill="#000000" font-family="sans-serif" font-size="11" lengthAdjust="spacingAndGlyphs" textLength="61" x="545" y="332.1167">url : String</text><line style="stroke: #A80036; stroke-width: 1.5;" x1="526" x2="616" y1="338.7109" y2="338.7109"/><ellipse cx="536" cy="349.7109" fill="#84BE84" rx="3" ry="3" style="stroke: #038048; stroke-width: 1.0;"/><text fill="#000000" font-family="sans-serif" font-size="11" lengthAdjust="spacingAndGlyphs" textLength="42" x="545" y="352.9214">getUrl()</text><polygon fill="#4177AF" points="536,358.5156,532,364.5156,540,364.5156" style="stroke: #1963A0; stroke-width: 1.0;"/><text fill="#000000" font-family="sans-serif" font-size="11" lengthAdjust="spacingAndGlyphs" textLength="63" x="545" y="365.7261">HyperLink()</text><polygon fill="#4177AF" points="536,371.3203,532,377.3203,540,377.3203" style="stroke: #1963A0; stroke-width: 1.0;"/><text fill="#000000" font-family="sans-serif" font-size="11" lengthAdjust="spacingAndGlyphs" textLength="45" x="545" y="378.5308">accept()</text><!--MD5=[053123a9db99240272edfff57b404fe1]
class in.ashwanik.pdp.visitor.MarkDownVisitor--><rect fill="#FEFECE" filter="url(#f1jp69czntq8st)" height="124.8281" id="in.ashwanik.pdp.visitor.MarkDownVisitor" style="stroke: #A80036; stroke-width: 1.5;" width="148" x="221" y="272.9063"/><ellipse cx="241.85" cy="288.9063" fill="#ADD1B2" rx="11" ry="11" style="stroke: #A80036; stroke-width: 1.0;"/><path d="M244.1938,284.5781 L244.3656,284.6563 C244.5844,284.3438 244.7875,284.25 245.0844,284.25 C245.3813,284.25 245.6625,284.3906 245.8188,284.6563 C245.9125,284.8125 245.9281,284.9375 245.9281,285.375 L245.9281,286.7969 C245.9281,287.2188 245.8969,287.4063 245.7875,287.5625 C245.6156,287.7813 245.35,287.9219 245.0844,287.9219 C244.8656,287.9219 244.6313,287.8125 244.4906,287.6719 C244.35,287.5469 244.3188,287.4219 244.2563,287.0156 C244.1625,286.6094 243.9906,286.3906 243.5063,286.1094 C243.0375,285.8594 242.4281,285.7031 241.85,285.7031 C240.1156,285.7031 238.8656,287.0156 238.8656,288.7969 L238.8656,289.8906 C238.8656,291.5938 240.1625,292.6875 242.2094,292.6875 C242.975,292.6875 243.6625,292.5625 244.0844,292.2969 C244.2719,292.2031 244.2719,292.2031 244.725,291.7188 C244.9125,291.5313 245.1156,291.4531 245.3344,291.4531 C245.8031,291.4531 246.1938,291.8438 246.1938,292.2969 C246.1938,292.6875 245.8656,293.1406 245.2875,293.5469 C244.5375,294.0938 243.3813,294.3906 242.1625,294.3906 C239.2719,294.3906 237.1625,292.5 237.1625,289.9219 L237.1625,288.7969 C237.1625,286.0781 239.1625,284 241.7875,284 C242.6625,284 243.2563,284.1406 244.1938,284.5781 Z "/><text fill="#000000" font-family="sans-serif" font-size="12" lengthAdjust="spacingAndGlyphs" textLength="103" x="257.15" y="293.0605">MarkDownVisitor</text><line style="stroke: #A80036; stroke-width: 1.5;" x1="222" x2="368" y1="304.9063" y2="304.9063"/><rect fill="none" height="6" style="stroke: #C82930; stroke-width: 1.0;" width="6" x="229" y="312.9063"/><text fill="#000000" font-family="sans-serif" font-size="11" lengthAdjust="spacingAndGlyphs" textLength="122" x="241" y="319.1167">output : StringBuilder</text><line style="stroke: #A80036; stroke-width: 1.5;" x1="222" x2="368" y1="325.7109" y2="325.7109"/><ellipse cx="232" cy="336.7109" fill="#84BE84" rx="3" ry="3" style="stroke: #038048; stroke-width: 1.0;"/><text fill="#000000" font-family="sans-serif" font-size="11" lengthAdjust="spacingAndGlyphs" textLength="31" x="241" y="339.9214">visit()</text><ellipse cx="232" cy="349.5156" fill="#84BE84" rx="3" ry="3" style="stroke: #038048; stroke-width: 1.0;"/><text fill="#000000" font-family="sans-serif" font-size="11" lengthAdjust="spacingAndGlyphs" textLength="31" x="241" y="352.7261">visit()</text><ellipse cx="232" cy="362.3203" fill="#84BE84" rx="3" ry="3" style="stroke: #038048; stroke-width: 1.0;"/><text fill="#000000" font-family="sans-serif" font-size="11" lengthAdjust="spacingAndGlyphs" textLength="31" x="241" y="365.5308">visit()</text><polygon fill="#4177AF" points="232,371.125,228,377.125,236,377.125" style="stroke: #1963A0; stroke-width: 1.0;"/><text fill="#000000" font-family="sans-serif" font-size="11" lengthAdjust="spacingAndGlyphs" textLength="102" x="241" y="378.3354">MarkDownVisitor()</text><polygon fill="#4177AF" points="232,383.9297,228,389.9297,236,389.9297" style="stroke: #1963A0; stroke-width: 1.0;"/><text fill="#000000" font-family="sans-serif" font-size="11" lengthAdjust="spacingAndGlyphs" textLength="64" x="241" y="391.1401">getOutput()</text><!--MD5=[d87720f5cb312fefb17854b5f08d1851]
class in.ashwanik.pdp.visitor.PlainText--><rect fill="#FEFECE" filter="url(#f1jp69czntq8st)" height="73.6094" id="in.ashwanik.pdp.visitor.PlainText" style="stroke: #A80036; stroke-width: 1.5;" width="88" x="652" y="298.4063"/><ellipse cx="667" cy="314.4063" fill="#ADD1B2" rx="11" ry="11" style="stroke: #A80036; stroke-width: 1.0;"/><path d="M669.3438,310.0781 L669.5156,310.1563 C669.7344,309.8438 669.9375,309.75 670.2344,309.75 C670.5313,309.75 670.8125,309.8906 670.9688,310.1563 C671.0625,310.3125 671.0781,310.4375 671.0781,310.875 L671.0781,312.2969 C671.0781,312.7188 671.0469,312.9063 670.9375,313.0625 C670.7656,313.2813 670.5,313.4219 670.2344,313.4219 C670.0156,313.4219 669.7813,313.3125 669.6406,313.1719 C669.5,313.0469 669.4688,312.9219 669.4063,312.5156 C669.3125,312.1094 669.1406,311.8906 668.6563,311.6094 C668.1875,311.3594 667.5781,311.2031 667,311.2031 C665.2656,311.2031 664.0156,312.5156 664.0156,314.2969 L664.0156,315.3906 C664.0156,317.0938 665.3125,318.1875 667.3594,318.1875 C668.125,318.1875 668.8125,318.0625 669.2344,317.7969 C669.4219,317.7031 669.4219,317.7031 669.875,317.2188 C670.0625,317.0313 670.2656,316.9531 670.4844,316.9531 C670.9531,316.9531 671.3438,317.3438 671.3438,317.7969 C671.3438,318.1875 671.0156,318.6406 670.4375,319.0469 C669.6875,319.5938 668.5313,319.8906 667.3125,319.8906 C664.4219,319.8906 662.3125,318 662.3125,315.4219 L662.3125,314.2969 C662.3125,311.5781 664.3125,309.5 666.9375,309.5 C667.8125,309.5 668.4063,309.6406 669.3438,310.0781 Z "/><text fill="#000000" font-family="sans-serif" font-size="12" lengthAdjust="spacingAndGlyphs" textLength="56" x="681" y="318.5605">PlainText</text><line style="stroke: #A80036; stroke-width: 1.5;" x1="653" x2="739" y1="330.4063" y2="330.4063"/><line style="stroke: #A80036; stroke-width: 1.5;" x1="653" x2="739" y1="338.4063" y2="338.4063"/><polygon fill="#4177AF" points="663,345.4063,659,351.4063,667,351.4063" style="stroke: #1963A0; stroke-width: 1.0;"/><text fill="#000000" font-family="sans-serif" font-size="11" lengthAdjust="spacingAndGlyphs" textLength="59" x="672" y="352.6167">PlainText()</text><polygon fill="#4177AF" points="663,358.2109,659,364.2109,667,364.2109" style="stroke: #1963A0; stroke-width: 1.0;"/><text fill="#000000" font-family="sans-serif" font-size="11" lengthAdjust="spacingAndGlyphs" textLength="45" x="672" y="365.4214">accept()</text><!--MD5=[0e74f0bc3c91de175c5a0007295d44a8]
class in.ashwanik.pdp.visitor.Visitor--><rect fill="#FEFECE" filter="url(#f1jp69czntq8st)" height="86.4141" id="in.ashwanik.pdp.visitor.Visitor" style="stroke: #A80036; stroke-width: 1.5;" width="70" x="260" y="113.9063"/><ellipse cx="275" cy="129.9063" fill="#B4A7E5" rx="11" ry="11" style="stroke: #A80036; stroke-width: 1.0;"/><path d="M275.9531,126.6875 L275.9531,133.2031 L277.6719,133.2031 C278.125,133.2031 278.2656,133.2344 278.4375,133.3594 C278.6719,133.5313 278.7813,133.7813 278.7813,134.0625 C278.7813,134.625 278.4219,134.9063 277.6719,134.9063 L272.5313,134.9063 C272.125,134.9063 271.9219,134.8594 271.7656,134.7344 C271.5469,134.5781 271.4063,134.3125 271.4063,134.0625 C271.4063,133.7656 271.5625,133.4844 271.8125,133.3281 C271.9688,133.2188 272.0938,133.2031 272.5313,133.2031 L274.25,133.2031 L274.25,126.6875 L272.5313,126.6875 C272.1094,126.6875 271.9219,126.6563 271.7656,126.5469 C271.5469,126.375 271.4063,126.125 271.4063,125.8438 C271.4063,125.5625 271.5625,125.2656 271.8125,125.1094 C271.9688,125.0156 272.0938,125 272.5313,125 L277.6719,125 C278.125,125 278.2656,125.0313 278.4375,125.1406 C278.6719,125.3125 278.7813,125.5781 278.7813,125.8438 C278.7813,126.1406 278.6406,126.4219 278.375,126.5781 C278.25,126.6563 278.0625,126.6875 277.6719,126.6875 Z "/><text fill="#000000" font-family="sans-serif" font-size="12" font-style="italic" lengthAdjust="spacingAndGlyphs" textLength="38" x="289" y="134.0605">Visitor</text><line style="stroke: #A80036; stroke-width: 1.5;" x1="261" x2="329" y1="145.9063" y2="145.9063"/><line style="stroke: #A80036; stroke-width: 1.5;" x1="261" x2="329" y1="153.9063" y2="153.9063"/><ellipse cx="271" cy="164.9063" fill="#84BE84" rx="3" ry="3" style="stroke: #038048; stroke-width: 1.0;"/><text fill="#000000" font-family="sans-serif" font-size="11" font-style="italic" lengthAdjust="spacingAndGlyphs" textLength="31" x="280" y="168.1167">visit()</text><ellipse cx="271" cy="177.7109" fill="#84BE84" rx="3" ry="3" style="stroke: #038048; stroke-width: 1.0;"/><text fill="#000000" font-family="sans-serif" font-size="11" font-style="italic" lengthAdjust="spacingAndGlyphs" textLength="31" x="280" y="180.9214">visit()</text><ellipse cx="271" cy="190.5156" fill="#84BE84" rx="3" ry="3" style="stroke: #038048; stroke-width: 1.0;"/><text fill="#000000" font-family="sans-serif" font-size="11" font-style="italic" lengthAdjust="spacingAndGlyphs" textLength="31" x="280" y="193.7261">visit()</text><!--MD5=[2770bb055887bddf1bc1aff212ceeef1]
reverse link in.ashwanik.pdp.visitor.DocumentPart to in.ashwanik.pdp.visitor.BoldText--><path d="M525.139,223.1843 C507.333,248.5293 487.618,276.5902 472.446,298.1863 " fill="none" id="in.ashwanik.pdp.visitor.DocumentPart&lt;-in.ashwanik.pdp.visitor.BoldText" style="stroke: #A80036; stroke-width: 1.0;"/><polygon fill="none" points="519.563,218.9443,536.788,206.6033,531.019,226.9923,519.563,218.9443" style="stroke: #A80036; stroke-width: 1.0;"/><!--MD5=[f345e743644112bb5250066dc129dc73]
reverse link in.ashwanik.pdp.visitor.Visitor to in.ashwanik.pdp.visitor.HtmlVisitor--><path d="M245.599,209.3423 C244.391,210.5453 243.19,211.7343 242,212.9063 C221.971,232.6323 199.754,253.6863 179.437,272.6323 " fill="none" id="in.ashwanik.pdp.visitor.Visitor&lt;-in.ashwanik.pdp.visitor.HtmlVisitor" style="stroke: #A80036; stroke-width: 1.0; stroke-dasharray: 7.0,7.0;"/><polygon fill="none" points="240.877,204.1613,259.912,194.8523,250.837,214.0003,240.877,204.1613" style="stroke: #A80036; stroke-width: 1.0;"/><!--MD5=[c4dafe86f5b3acdd04778354f1ee6bc6]
reverse link in.ashwanik.pdp.visitor.DocumentPart to in.ashwanik.pdp.visitor.HyperLink--><path d="M571,226.8743 C571,246.5893 571,267.6543 571,285.8683 " fill="none" id="in.ashwanik.pdp.visitor.DocumentPart&lt;-in.ashwanik.pdp.visitor.HyperLink" style="stroke: #A80036; stroke-width: 1.0;"/><polygon fill="none" points="564,226.6033,571,206.6033,578,226.6033,564,226.6033" style="stroke: #A80036; stroke-width: 1.0;"/><!--MD5=[c01f13657979c1c42ae9eb1a5a770ec0]
reverse link in.ashwanik.pdp.visitor.Visitor to in.ashwanik.pdp.visitor.MarkDownVisitor--><path d="M295,220.4003 C295,237.4063 295,255.8103 295,272.7693 " fill="none" id="in.ashwanik.pdp.visitor.Visitor&lt;-in.ashwanik.pdp.visitor.MarkDownVisitor" style="stroke: #A80036; stroke-width: 1.0; stroke-dasharray: 7.0,7.0;"/><polygon fill="none" points="288,220.1823,295,200.1823,302,220.1823,288,220.1823" style="stroke: #A80036; stroke-width: 1.0;"/><!--MD5=[d13be4406a5e2a50176edab3c9a90e11]
reverse link in.ashwanik.pdp.visitor.DocumentPart to in.ashwanik.pdp.visitor.PlainText--><path d="M617.231,223.1843 C635.181,248.5293 655.054,276.5902 670.348,298.1863 " fill="none" id="in.ashwanik.pdp.visitor.DocumentPart&lt;-in.ashwanik.pdp.visitor.PlainText" style="stroke: #A80036; stroke-width: 1.0;"/><polygon fill="none" points="611.334,226.9703,605.488,206.6033,622.759,218.8783,611.334,226.9703" style="stroke: #A80036; stroke-width: 1.0;"/><!--MD5=[236e9428af462ac5d7bdf9b7811b63fc]
@startuml
title __VISITOR__\n

  namespace in.ashwanik.pdp.visitor {
    class in.ashwanik.pdp.visitor.BoldText {
        ~ BoldText()
        ~ accept()
    }
  }
  

  namespace in.ashwanik.pdp.visitor {
    class in.ashwanik.pdp.visitor.Document {
        - parts : List<DocumentPart>
        ~ Document()
        ~ add()
        ~ clear()
        ~ generate()
    }
  }
  

  namespace in.ashwanik.pdp.visitor {
    abstract class in.ashwanik.pdp.visitor.DocumentPart {
        - text : String
        + getText()
        ~ DocumentPart()
        {abstract} ~ accept()
    }
  }
  

  namespace in.ashwanik.pdp.visitor {
    class in.ashwanik.pdp.visitor.HtmlVisitor {
        - output : StringBuilder
        + visit()
        + visit()
        + visit()
        ~ HtmlVisitor()
        ~ getOutput()
    }
  }
  

  namespace in.ashwanik.pdp.visitor {
    class in.ashwanik.pdp.visitor.HyperLink {
        - url : String
        + getUrl()
        ~ HyperLink()
        ~ accept()
    }
  }
  

  namespace in.ashwanik.pdp.visitor {
    class in.ashwanik.pdp.visitor.MarkDownVisitor {
        - output : StringBuilder
        + visit()
        + visit()
        + visit()
        ~ MarkDownVisitor()
        ~ getOutput()
    }
  }
  

  namespace in.ashwanik.pdp.visitor {
    class in.ashwanik.pdp.visitor.PlainText {
        ~ PlainText()
        ~ accept()
    }
  }
  

  namespace in.ashwanik.pdp.visitor {
    interface in.ashwanik.pdp.visitor.Visitor {
        {abstract} + visit()
        {abstract} + visit()
        {abstract} + visit()
    }
  }
  

  in.ashwanik.pdp.visitor.BoldText -up-|> in.ashwanik.pdp.visitor.DocumentPart
  in.ashwanik.pdp.visitor.HtmlVisitor .up.|> in.ashwanik.pdp.visitor.Visitor
  in.ashwanik.pdp.visitor.HyperLink -up-|> in.ashwanik.pdp.visitor.DocumentPart
  in.ashwanik.pdp.visitor.MarkDownVisitor .up.|> in.ashwanik.pdp.visitor.Visitor
  in.ashwanik.pdp.visitor.PlainText -up-|> in.ashwanik.pdp.visitor.DocumentPart
@enduml

PlantUML version 1.2019.11(Sun Sep 22 10:02:15 UTC 2019)
(GPL source distribution)
Java Runtime: Java(TM) SE Runtime Environment
JVM: Java HotSpot(TM) 64-Bit Server VM
Java Version: 1.7.0_25-b15
Operating System: Linux
Default Encoding: UTF-8
Language: en
Country: US
--></g></svg>